<?xml version="1.0" encoding="utf-8"?>
<!-- Generator: Adobe Illustrator 13.0.2, SVG Export Plug-In . SVG Version: 6.00 Build 14948)  -->
<!DOCTYPE svg PUBLIC "-//W3C//DTD SVG 1.0//EN" "http://www.w3.org/TR/2001/REC-SVG-20010904/DTD/svg10.dtd">
<svg version="1.0" id="Ebene_1" xmlns="http://www.w3.org/2000/svg" xmlns:xlink="http://www.w3.org/1999/xlink" x="0px" y="0px"
	 width="444.907px" height="561.259px" viewBox="0 0 444.907 561.259" enable-background="new 0 0 444.907 561.259"
	 xml:space="preserve">
<polygon fill-rule="evenodd" clip-rule="evenodd" points="444.907,0 0,0 0,426.283 222.453,561.259 444.907,426.283 444.907,0 "/>
<polygon fill-rule="evenodd" clip-rule="evenodd" fill="#FFFFFF" points="11.361,11.278 433.63,11.278 433.63,419.875 
	222.453,547.847 11.361,419.875 11.361,11.278 "/>
<polygon fill-rule="evenodd" clip-rule="evenodd" points="422.354,22.639 22.638,22.639 22.638,413.471 222.453,534.69 
	422.354,413.471 422.354,22.639 "/>
<polygon fill-rule="evenodd" clip-rule="evenodd" fill="#FFFFFF" points="33.916,33.916 410.993,33.916 410.993,407.061 
	222.453,521.281 33.916,407.061 33.916,33.916 "/>
<path fill-rule="evenodd" clip-rule="evenodd" d="M205.881,38.443c-5.468,0-9.996,1.195-13.583,3.587
	c-3.587,2.477-6.407,5.723-8.117,9.653c-1.879,3.929-2.818,8.115-2.818,12.387c0,3.417,0.426,6.664,1.367,9.825
	c0.94,2.99,2.221,5.638,4.271,8.115c1.709,2.477,4.187,4.356,7.348,5.638c3.246,1.367,6.833,2.049,11.19,2.049
	c3.331,0,5.981-0.341,8.117-0.939c2.049-0.513,4.271-1.878,6.918-3.759l1.452,3.759h2.307v-25.03h-22.979v2.648h15.461v14.694
	c0,2.136-1.11,3.844-3.417,4.869c-2.221,0.94-4.868,1.538-7.688,1.708c-4.528-0.17-7.945-1.708-10.422-4.1
	c-2.392-2.477-3.929-5.468-4.528-8.884c-0.683-3.417-1.11-7.176-0.939-11.106c-0.171-6.236,0.939-11.533,3.417-16.061
	c2.477-4.356,6.833-6.577,13.411-6.577c8.287,0,12.388,4.356,12.388,13.241l4.014-1.964
	C221.685,43.056,216.047,38.443,205.881,38.443L205.881,38.443z"/>
<polygon fill-rule="evenodd" clip-rule="evenodd" points="265.08,42.031 265.08,39.212 234.5,39.212 234.5,88.759 268.071,88.759 
	268.071,86.197 242.445,86.197 242.445,62.361 261.664,62.361 261.664,59.971 242.445,59.971 242.445,42.031 265.08,42.031 "/>
<path fill-rule="evenodd" clip-rule="evenodd" d="M310.358,44.764c-2.306-1.964-5.127-3.331-8.288-4.271
	c-3.243-0.854-6.662-1.28-9.993-1.28h-16.403v49.547h7.86V65.268h7.005c4.356-0.256,7.518,0.513,9.226,2.221
	c1.881,1.537,2.991,3.759,3.246,7.005c0.343,2.818,0.513,5.638,0.686,8.115c0,2.392,0.598,4.528,1.705,6.151h8.886
	c-1.28-1.28-2.048-2.562-2.476-4.1c-0.343-1.709-0.513-3.93-0.343-6.579c-0.17-2.818-0.428-4.954-0.768-6.662
	c-0.601-1.625-1.538-3.161-2.818-4.102c-1.283-0.939-2.651-1.537-4.187-2.049c-1.453-0.429-3.334-0.769-5.47-1.197
	c2.136-0.341,4.017-0.768,5.47-1.11c1.365-0.341,2.646-0.939,3.844-1.538c1.623-1.282,3.161-2.562,4.271-4.271
	c0.938-1.708,1.535-3.417,1.708-5.125C313.346,49.036,312.409,46.559,310.358,44.764L310.358,44.764z M283.534,41.859h7.005
	c2.479,0,4.356,0.171,5.81,0.343c1.538,0.255,3.076,0.939,4.526,1.879c1.538,0.939,2.648,2.306,3.419,3.844
	c0.768,1.28,1.107,2.818,1.107,4.526c0,1.455-0.34,2.991-1.107,4.444c-0.771,1.367-1.881,2.648-3.419,3.672
	c-1.28,0.854-2.818,1.708-4.526,1.793c-1.453,0.258-3.331,0.429-5.81,0.429h-7.005V41.859L283.534,41.859z"/>
<path fill-rule="evenodd" clip-rule="evenodd" d="M328.469,44.849c0.938-1.28,2.391-2.392,4.099-3.16
	c1.711-0.599,3.759-0.94,5.81-0.94c2.306,0,4.359,0.341,6.492,0.94c2.051,0.513,3.504,1.452,4.869,2.818
	c1.283,1.282,1.881,2.99,1.881,5.041c0,0.769-0.17,2.136-0.598,3.844l4.187-1.367c-0.173-4.698-1.711-8.115-4.356-10.166
	c-2.818-2.221-7.008-3.416-12.475-3.416c-3.158,0-5.979,0.598-8.628,1.708c-2.476,1.195-4.526,2.905-6.064,4.869
	c-1.708,2.136-2.394,4.528-2.394,7.176c0,3.759,1.283,6.664,3.932,8.543c2.476,2.051,6.407,3.929,11.531,5.638
	c4.872,1.708,8.628,3.416,11.106,5.041c2.221,1.367,3.419,3.672,3.589,6.662c-0.17,1.881-0.771,3.589-2.136,5.212
	c-1.28,1.367-2.821,2.477-4.869,3.417c-2.051,0.769-4.359,1.195-6.58,1.195c-2.051,0-3.929-0.426-5.895-1.195
	c-2.051-0.94-3.759-2.051-4.869-3.417c-1.28-1.452-2.051-2.991-2.051-4.699c0-2.051,0.343-3.929,1.11-5.808l-4.696,1.28
	c-0.173,1.367-0.428,2.477-0.173,3.076c-0.255,3.93,1.453,6.918,4.869,9.226c3.246,2.222,7.348,3.331,12.217,3.331
	c2.306,0,4.529-0.341,7.005-0.939c2.309-0.513,4.356-1.28,6.237-2.392c1.708-1.195,3.161-2.477,4.356-4.185
	c0.94-1.709,1.453-3.589,1.708-5.64c-0.255-4.185-1.538-7.346-4.187-9.396c-2.646-2.136-6.577-4.015-11.704-5.725
	c-5.294-1.878-9.053-3.587-11.446-5.041c-2.476-1.367-3.586-3.587-3.416-6.577C326.931,47.925,327.444,46.217,328.469,44.849
	L328.469,44.849z"/>
<path fill-rule="evenodd" clip-rule="evenodd" d="M114.217,39.212h-6.407L90.467,88.759h3.417l4.185-12.557h20.673l4.358,12.557
	h7.944L114.217,39.212L114.217,39.212z M108.749,46.046l9.312,27.508H99.01L108.749,46.046L108.749,46.046z"/>
<polygon fill-rule="evenodd" clip-rule="evenodd" points="144.8,39.212 137.454,39.212 137.454,88.759 140.442,88.759 
	140.442,46.046 166.071,88.759 171.965,88.759 171.965,39.212 169.147,39.212 169.147,80.301 144.8,39.212 "/>
<polygon fill-rule="evenodd" clip-rule="evenodd" points="101.829,96.021 45.277,190.248 222.453,485.656 399.716,190.248 
	343.162,96.021 101.829,96.021 "/>
<polygon fill-rule="evenodd" clip-rule="evenodd" fill="#FFFFFF" points="134.462,99.694 134.462,135.403 82.778,135.403 
	104.051,99.694 134.462,99.694 "/>
<polygon fill-rule="evenodd" clip-rule="evenodd" fill="#FFFFFF" points="134.462,238.856 134.462,331.46 79.532,239.966 
	79.532,238.856 134.462,238.856 "/>
<polygon fill-rule="evenodd" clip-rule="evenodd" fill="#FFFFFF" points="341.026,99.694 362.383,135.403 310.528,135.403 
	310.528,99.694 341.026,99.694 "/>
<polygon fill-rule="evenodd" clip-rule="evenodd" fill="#FFFFFF" points="195.116,135.403 195.116,99.694 249.959,99.694 
	249.959,135.403 195.116,135.403 "/>
<polygon fill-rule="evenodd" clip-rule="evenodd" fill="#FFFFFF" points="310.528,331.46 310.528,238.856 365.375,238.856 
	365.375,239.966 310.528,331.46 "/>
<polygon fill-rule="evenodd" clip-rule="evenodd" fill="#FFFFFF" points="195.116,238.856 249.959,238.856 249.959,432.265 
	222.453,478.308 195.116,432.69 195.116,238.856 "/>
<path fill-rule="evenodd" clip-rule="evenodd" fill="#FFFFFF" d="M103.538,167.011c-1.709,2.82-2.648,5.895-2.648,9.056
	c-0.171,5.295,1.879,9.825,6.236,13.412c2.82,2.477,7.86,4.698,15.207,6.407c5.637,1.28,9.312,2.049,10.764,2.647
	c2.479,0.771,4.015,1.709,4.698,2.991c0.94,0.939,1.538,2.307,1.709,3.929c-0.171,2.477-1.282,4.786-3.589,6.494
	c-2.049,1.622-5.467,2.562-9.738,2.562c-4.185,0-7.433-0.94-9.738-2.99c-2.563-2.051-4.271-5.297-5.041-9.568l-12.984,1.112
	c0.769,7.345,3.587,12.984,8.285,16.743c4.358,3.759,10.937,5.637,19.478,5.637c5.638,0,10.509-0.681,14.438-2.219
	c3.844-1.538,6.835-3.93,8.884-7.176c2.051-3.161,3.246-6.749,3.246-10.594c0-4.1-0.769-7.518-2.306-10.336
	c-1.879-2.82-4.356-5.041-7.518-6.749c-3.417-1.538-8.287-3.076-14.694-4.528c-6.664-1.708-10.764-3.248-12.643-4.699
	c-1.367-1.025-1.879-2.306-1.879-3.842c0-1.625,0.769-3.163,2.221-4.102c2.136-1.538,5.125-2.307,9.056-2.307
	c4.015,0,6.833,0.769,8.713,2.307c2.051,1.452,3.161,3.929,3.76,7.175l13.411-0.769c-0.256-5.893-2.477-10.592-6.833-14.351
	c-4.1-3.589-10.337-5.467-18.624-5.467c-5.125,0-9.652,0.769-13.241,2.477C108.579,161.544,105.587,163.85,103.538,167.011
	L103.538,167.011z"/>
<path fill-rule="evenodd" clip-rule="evenodd" fill="#FFFFFF" d="M246.374,177.177c-1.708-5.212-3.929-9.226-7.093-12.045
	c-5.124-4.869-11.701-7.346-19.818-7.346c-9.397,0-17,2.99-22.638,9.226c-6.066,6.066-9.056,14.522-9.056,25.458
	c0,9.995,2.818,18.111,8.713,24.347c5.638,5.81,12.986,8.626,22.211,8.626c7.005,0,12.814-1.622,17.514-5.21
	c4.781-3.246,8.115-8.542,10.166-15.461l-13.327-4.358c-0.94,4.699-2.906,8.287-5.467,10.337c-2.648,2.306-5.64,3.417-9.227,3.417
	c-4.698,0-8.714-1.708-11.704-5.297c-3.246-3.417-4.698-9.226-4.698-17.512c0-7.945,1.452-13.583,4.698-16.745
	c2.99-3.587,7.006-5.297,12.045-5.297c3.589,0,6.578,0.94,9.226,2.991c2.479,1.709,3.932,4.356,4.699,7.945L246.374,177.177
	L246.374,177.177z"/>
<path fill-rule="evenodd" clip-rule="evenodd" fill="#FFFFFF" d="M337.267,167.011c-5.979-6.236-13.752-9.226-23.32-9.226
	c-5.47,0-10.594,0.939-14.95,2.818c-3.161,1.11-5.979,3.246-8.628,6.066c-2.648,2.477-4.699,5.467-6.237,8.629
	c-2.051,4.526-3.246,10.25-2.991,16.828c-0.255,10.336,2.821,18.453,8.801,24.688c6.064,5.81,14.01,8.626,24.006,8.626
	c9.738,0,17.511-2.988,23.32-9.054c5.895-5.808,8.886-14.096,8.886-24.688C346.153,181.021,343.162,172.906,337.267,167.011
	L337.267,167.011z M300.107,174.957c3.416-3.759,7.945-5.64,13.84-5.64c5.467,0,9.738,1.709,13.154,5.297
	c3.246,3.759,4.869,9.397,5.127,17.086c-0.258,7.348-1.881,12.814-5.127,16.831c-3.416,3.757-7.688,5.637-13.154,5.637
	c-5.47,0-9.996-1.879-13.412-5.637c-3.589-4.017-5.467-9.483-5.467-16.831C295.068,184.011,296.776,178.544,300.107,174.957
	L300.107,174.957z"/>
</svg>
