<?xml version="1.0" encoding="utf-8"?>
<!-- Generator: Adobe Illustrator 14.0.0, SVG Export Plug-In . SVG Version: 6.00 Build 43363)  -->
<svg version="1.2" baseProfile="tiny" id="Layer_1" xmlns:svg="http://www.w3.org/2000/svg"
	 xmlns="http://www.w3.org/2000/svg" xmlns:xlink="http://www.w3.org/1999/xlink" x="0px" y="0px" width="525px" height="575px"
	 viewBox="0 0 525 575" xml:space="preserve">
<path id="path6166" fill="#4087BF" d="M483.227,5.25v417.744c0,8.28,0,16.992-1.513,25.416c-1.584,8.641-4.752,16.848-10.943,23.688
	c-5.616,6.191-12.889,10.655-20.736,14.04c-7.704,3.312-15.84,5.688-23.616,7.848c-15.84,4.32-31.68,9-47.231,14.184
	c-15.552,5.185-30.96,11.017-45.864,17.712c-12.168,5.545-24.048,11.736-35.136,18.937c-11.017,7.2-21.384,15.479-30.528,25.2
	l-1.943,2.16l-1.944-2.16c-9.144-9.721-19.512-18-30.528-25.2c-11.088-7.2-22.968-13.392-35.208-18.937
	c-14.832-6.695-30.24-12.527-45.792-17.712c-15.552-5.184-31.392-9.863-47.232-14.184c-7.776-2.16-15.912-4.536-23.616-7.848
	c-7.848-3.385-15.12-7.849-20.736-14.04c-6.192-6.841-9.36-15.048-10.944-23.688c-1.512-8.424-1.512-17.136-1.512-25.416V5.25
	H483.227z"/>
<path id="path6168" fill="#FFFFFF" d="M477.754,10.794H53.674v412.2c0,8.064,0.072,16.561,1.44,24.48
	c1.44,7.632,4.176,14.903,9.576,20.88c5.112,5.616,11.736,9.647,18.864,12.744c7.272,3.168,15.336,5.472,22.896,7.56
	c15.768,4.32,31.68,9,47.52,14.256c15.768,5.328,31.392,11.232,46.368,18c12.384,5.544,24.552,11.88,35.856,19.296
	c10.656,6.912,20.592,14.761,29.521,23.977c8.928-9.216,18.863-17.064,29.52-23.977c11.304-7.416,23.472-13.752,35.855-19.296
	c14.977-6.768,30.601-12.672,46.368-18c15.84-5.256,31.752-9.936,47.521-14.256c7.56-2.088,15.624-4.392,22.896-7.56
	c7.128-3.097,13.752-7.128,18.864-12.744c5.4-5.977,8.136-13.248,9.576-20.88c1.368-7.92,1.439-16.416,1.439-24.48V10.794z"/>
<path id="path6170" fill="#4087BF" d="M472.21,16.338H59.218v406.656c0,7.776-0.072,15.769,1.296,23.472
	c2.808,15.192,11.448,23.616,25.272,29.593c7.056,3.096,14.616,5.184,22.104,7.271c16.056,4.393,32.04,9.145,47.808,14.4
	c15.912,5.328,31.608,11.231,46.872,18.144c12.672,5.688,25.056,12.168,36.648,19.729c9.432,6.12,18.36,13.031,26.497,20.808
	c8.135-7.776,17.063-14.688,26.496-20.808c11.592-7.561,23.976-14.04,36.647-19.729c15.264-6.912,30.96-12.815,46.872-18.144
	c15.768-5.256,31.752-10.008,47.808-14.4c7.488-2.088,15.048-4.176,22.104-7.271c13.896-5.977,22.464-14.4,25.271-29.593
	c1.368-7.703,1.296-15.695,1.296-23.472V16.338z"/>
<rect id="rect6172" x="73.546" y="30.666" fill="#FFFFFF" width="384.335" height="83.88"/>
<path id="path6174" fill="#4087BF" d="M129.634,92.514l-10.656,2.232l-4.248-9H98.746l-3.816,9.072l-10.656-2.304l22.68-42.12
	L129.634,92.514L129.634,92.514z M111.13,77.466l-4.392-8.784l-4.392,8.784H111.13z"/>
<polygon id="polygon6176" fill="#4087BF" points="143.458,87.474 136.69,94.603 129.563,87.69 136.33,80.346 "/>
<path id="path6178" fill="#4087BF" d="M167.506,77.466c0,3.312-0.432,5.976-1.152,8.208c-0.936,2.52-2.448,4.536-4.536,5.904
	c-2.448,1.656-5.4,2.52-9,2.52c-0.648,0-1.584-0.072-2.88-0.288c-1.296-0.144-1.8-0.216-1.656-0.216l-2.592-10.152
	c1.008,0.504,3.096,0.792,6.192,0.792c1.872-0.216,3.168-0.72,3.888-1.656c0.576-0.792,0.936-2.16,0.936-4.104V52.266l10.8-0.936
	V77.466L167.506,77.466z"/>
<path id="path6180" fill="#4087BF" d="M279.395,78.546c0,5.112-1.656,9-5.04,11.808c-1.584,1.368-3.384,2.304-5.472,3.024
	c-2.16,0.72-4.32,1.08-6.553,1.08c-2.592,0.072-4.968-0.288-7.2-1.008c-4.32-1.44-7.344-3.96-9-7.704
	c-0.792-1.8-1.224-3.816-1.224-6.048V52.482l10.872-0.936v27.36c0,2.304,0.792,3.96,1.8,4.968c1.08,1.008,2.808,1.656,5.112,1.584
	c2.159-0.144,3.528-0.936,4.392-2.232c0.721-1.008,1.584-2.664,1.584-4.824V52.626l10.729-0.936V78.546L279.395,78.546z"/>
<polygon id="polygon6182" fill="#4087BF" points="319.643,91.074 309.635,94.314 300.85,79.771 291.418,94.674 281.771,91.074 
	295.162,71.922 282.346,54.138 292.282,51.258 301.066,64.434 309.851,51.187 319.354,54.57 306.683,71.778 "/>
<polygon id="polygon6184" fill="#4087BF" points="349.378,84.522 346.714,93.594 322.378,93.594 322.378,52.626 346.21,52.626 
	348.298,61.698 332.674,61.698 332.674,68.178 343.906,68.178 343.906,77.178 332.603,77.178 332.603,84.522 "/>
<path id="path6186" fill="#4087BF" d="M385.307,91.074l-10.584,3.312L362.41,75.378v17.928l-10.584,0.648V52.626h12.456
	c4.68,0,8.424,0.864,11.232,2.52c1.512,0.936,2.735,2.16,3.6,3.672c1.08,1.728,1.584,3.6,1.584,5.616
	c0.144,4.968-2.016,8.712-6.479,11.232L385.307,91.074L385.307,91.074z M370.33,66.594c-0.144-3.528-2.088-5.328-5.76-5.328h-2.16
	V72.21h2.376c2.448,0,4.104-1.008,4.968-2.952C370.114,68.322,370.33,67.458,370.33,66.594z"/>
<polygon id="polygon6188" fill="#4087BF" points="183.058,87.474 176.29,94.603 169.162,87.69 175.93,80.346 "/>
<path id="path6190" fill="#4087BF" d="M244.258,92.514l-10.584,2.232l-4.248-9H213.37l-3.816,9.072l-10.656-2.304l22.68-42.12
	L244.258,92.514L244.258,92.514z M225.754,77.466l-4.32-8.784l-4.392,8.784H225.754z"/>
<path id="path6192" fill="#4087BF" d="M419.146,91.074l-10.656,3.312l-12.24-19.008v17.928l-10.584,0.648V52.626h12.456
	c4.681,0,8.424,0.864,11.232,2.52c1.512,0.936,2.664,2.16,3.6,3.672c1.008,1.728,1.584,3.6,1.584,5.616
	c0.145,4.968-2.088,8.712-6.479,11.232L419.146,91.074L419.146,91.074z M404.17,66.594c-0.144-3.528-2.088-5.328-5.76-5.328h-2.16
	V72.21h2.376c2.448,0,4.104-1.008,4.969-2.952C403.954,68.322,404.17,67.458,404.17,66.594z"/>
<polygon id="polygon6194" fill="#4087BF" points="447.154,84.522 444.563,93.594 420.154,93.594 420.154,52.626 444.059,52.626 
	446.074,61.698 430.45,61.698 430.45,68.178 441.683,68.178 441.683,77.178 430.378,77.178 430.378,84.522 "/>
<path id="path6196" fill="#FFFFFF" d="M265.715,374.178c32.256,0,58.607-26.352,58.607-58.607s-26.352-58.608-58.607-58.608
	c-32.256,0-58.608,26.352-58.608,58.608S233.458,374.178,265.715,374.178z"/>
<path id="path6198" fill="#4087BF" d="M265.715,370.723c30.383,0,55.151-24.769,55.151-55.152c0-30.312-24.769-55.152-55.151-55.152
	c-30.385,0-55.152,24.84-55.152,55.152C210.563,345.954,235.33,370.723,265.715,370.723z"/>
<path id="path6200" fill="#FFFFFF" d="M235.187,253.65l-41.184-91.944l71.712,47.088l71.712-47.088l-41.185,91.944
	c-9.216-4.608-19.584-7.128-30.527-7.128C254.771,246.522,244.402,249.042,235.187,253.65L235.187,253.65z M234.826,196.338
	c-1.296,0.144-1.656,0.936-1.008,2.232l31.896,33.336l31.896-33.336c0.647-1.296,0.288-2.088-1.008-2.232l-30.888,20.304
	L234.826,196.338z"/>
<path id="path6202" fill="#FFFFFF" d="M203.794,346.098l-92.016,41.185l47.088-71.712l-47.088-71.64l92.016,41.112
	c-4.608,9.144-7.2,19.584-7.2,30.528S199.187,336.883,203.794,346.098L203.794,346.098z M146.482,346.459
	c0.144,1.295,0.864,1.655,2.232,1.008l33.264-31.896l-33.264-31.896c-1.368-0.648-2.088-0.288-2.232,1.008l20.304,30.888
	L146.482,346.459z"/>
<path id="path6204" fill="#FFFFFF" d="M296.242,377.49l41.185,92.016l-71.712-47.088l-71.712,47.088l41.184-92.016
	c9.216,4.607,19.584,7.2,30.528,7.2C276.658,384.69,287.026,382.098,296.242,377.49L296.242,377.49z M296.603,434.803
	c1.296-0.145,1.655-0.864,1.008-2.232l-31.896-33.264l-31.896,33.264c-0.648,1.368-0.288,2.088,1.008,2.232l30.889-20.305
	L296.603,434.803z"/>
<path id="path6206" fill="#FFFFFF" d="M327.635,285.042l92.016-41.112l-47.088,71.64l47.088,71.712l-92.016-41.185
	c4.607-9.215,7.199-19.584,7.199-30.527S332.242,294.187,327.635,285.042L327.635,285.042z M384.946,284.682
	c-0.144-1.296-0.864-1.656-2.232-1.008L349.45,315.57l33.264,31.896c1.368,0.647,2.089,0.287,2.232-1.008l-20.304-30.889
	L384.946,284.682z"/>
<path id="path6208" fill="#FFFFFF" d="M286.018,268.986c0.937,0.36,1.801,0.792,2.664,1.224l0.576,7.704l-9.432,3.672l9.36,18.216
	c3.096-1.225,6.12-2.521,9.144-3.889c2.376,3.816,4.68,7.561,7.057,11.305l7.128-11.592c0.432,1.008,0.792,1.943,1.151,2.951
	l-6.768,11.016c2.88,4.393,5.832,8.785,9.144,12.961l0.072,0.072c-0.072,0.575-0.216,1.151-0.288,1.728
	c-3.096,3.672-5.976,7.56-8.64,11.663l4.032,2.305c-0.433,0.721-0.793,1.512-1.225,2.232l-4.104-2.448
	c-1.944,3.096-3.672,6.264-5.328,9.504l-13.68-4.608l-6.696,21.313c-0.72,0.216-1.368,0.432-2.089,0.576l-12.383-5.832
	l-12.385,5.832c-0.72-0.145-1.368-0.36-2.088-0.576l-6.696-21.313l-13.68,4.608c-1.656-3.24-3.456-6.408-5.328-9.504l-4.104,2.448
	c-0.432-0.721-0.792-1.512-1.224-2.232l4.032-2.305c-2.664-4.104-5.544-7.991-8.64-11.663c-0.072-0.576-0.216-1.152-0.288-1.728
	l0.072-0.072c3.312-4.176,6.264-8.568,9.144-12.961l-6.768-11.016c0.36-1.008,0.72-1.943,1.152-2.951l7.128,11.592
	c2.376-3.744,4.68-7.488,7.056-11.305c3.024,1.368,6.048,2.664,9.144,3.889l9.36-18.216l-9.432-3.672l0.576-7.704
	c0.864-0.432,1.728-0.864,2.664-1.224l-0.576,7.272l20.88,8.136l20.879-8.136L286.018,268.986L286.018,268.986z M258.875,322.555
	v15.623l-11.952,4.033l6.336,19.943l12.457-5.904l12.455,5.904l6.336-19.943l-11.951-4.033v-15.623H258.875L258.875,322.555z
	 M265.715,287.13l-11.736-4.608l-9.36,18.144c4.752,1.729,9.504,3.313,14.256,4.896v14.472h13.68v-14.472
	c4.752-1.584,9.504-3.168,14.256-4.896l-9.36-18.144L265.715,287.13L265.715,287.13z M313.378,323.274
	c-5.832-7.704-10.944-15.912-15.983-24.12c-3.744,1.512-7.344,3.023-11.088,4.393c-3.672,1.367-7.416,2.592-11.232,3.887v28.945
	l24.191,8.135C303.37,336.954,307.979,329.898,313.378,323.274L313.378,323.274z M218.05,323.274
	c5.4,6.624,10.008,13.68,14.112,21.239l24.12-8.135v-28.945c-3.744-1.295-7.488-2.52-11.16-3.887
	c-3.744-1.369-7.344-2.881-11.088-4.393C228.994,307.362,223.882,315.57,218.05,323.274z"/>
<path id="path6210" fill="#FFFFFF" d="M311.506,323.274c-5.399-7.128-10.08-14.688-14.688-22.248
	c-3.313,1.368-6.624,2.664-10.008,3.888c-3.456,1.297-6.84,2.448-10.225,3.528v26.856l22.032,7.416
	C302.29,335.874,306.61,329.322,311.506,323.274z"/>
<polygon id="polygon6212" fill="#FFFFFF" points="248.794,343.146 260.314,339.258 260.314,324.066 271.114,324.066 
	271.114,339.258 282.635,343.146 277.307,360.066 265.715,354.594 254.122,360.066 "/>
<path id="path6214" fill="#FFFFFF" d="M219.922,323.274c5.4-7.128,10.08-14.688,14.688-22.248c3.312,1.368,6.624,2.664,10.008,3.888
	c3.456,1.297,6.84,2.448,10.224,3.528v26.856l-22.032,7.416C229.138,335.874,224.818,329.322,219.922,323.274z"/>
<path id="path6216" fill="#FFFFFF" d="M254.698,284.394l11.017,4.321l11.016-4.321l7.992,15.48
	c-4.536,1.656-9.072,3.097-13.608,4.608v14.04h-10.8v-14.04c-4.536-1.512-9.072-2.952-13.608-4.608L254.698,284.394z"/>
<path id="path6218" fill="#FFFFFF" d="M236.554,273.954c1.512-1.08,3.024-2.016,4.608-2.88l-0.504,7.848l8.928,3.456l-8.064,15.551
	c-3.024-1.224-6.048-2.52-9-3.887c-2.16,3.455-4.32,6.911-6.48,10.367l-5.616-9.072l15.696-5.615L236.554,273.954z"/>
<path id="path6220" fill="#FFFFFF" d="M222.658,288.57c2.304-3.672,5.112-7.056,8.28-10.008l-0.216,7.272L222.658,288.57z"/>
<path id="path6222" fill="#FFFFFF" d="M219.634,294.043c0.576-1.225,1.152-2.377,1.8-3.529l10.728-3.6l0.288-9.72
	c0.864-0.792,1.728-1.44,2.592-2.16l-0.36,13.681L219.634,294.043z"/>
<path id="path6224" fill="#FFFFFF" d="M215.098,320.538c-0.144-1.655-0.288-3.312-0.288-4.968c0-5.256,0.864-10.368,2.304-15.12
	l5.688,9.072C220.354,313.266,217.834,317.01,215.098,320.538z"/>
<path id="path6226" fill="#FFFFFF" d="M219.563,336.954c-1.368-3.024-2.52-6.192-3.312-9.432c2.088,2.521,4.032,5.184,5.832,7.991
	L219.563,336.954z"/>
<path id="path6228" fill="#FFFFFF" d="M249.514,363.811c-11.448-3.889-21.168-11.809-27.36-21.961l2.88-1.728
	c1.8,3.024,3.456,6.192,5.112,9.288l13.392-4.536L249.514,363.811z"/>
<path id="path6230" fill="#FFFFFF" d="M275.723,365.467c-3.24,0.647-6.625,1.008-10.008,1.008c-3.385,0-6.769-0.36-10.009-1.008
	l10.009-4.824L275.723,365.467z"/>
<path id="path6232" fill="#FFFFFF" d="M309.274,341.85c-6.192,10.152-15.912,18.072-27.36,21.961l5.977-18.937l13.392,4.536
	c1.656-3.096,3.312-6.264,5.112-9.288L309.274,341.85z"/>
<path id="path6234" fill="#FFFFFF" d="M315.179,327.522c-0.792,3.239-1.944,6.407-3.313,9.432l-2.52-1.44
	C311.146,332.706,313.09,330.043,315.179,327.522z"/>
<path id="path6236" fill="#FFFFFF" d="M314.314,300.45c1.439,4.752,2.304,9.864,2.304,15.12c0,1.656-0.144,3.384-0.288,4.968
	c-2.735-3.528-5.256-7.272-7.704-11.016L314.314,300.45z"/>
<path id="path6238" fill="#FFFFFF" d="M300.49,278.563c3.168,2.952,5.977,6.336,8.28,10.008l-8.064-2.736L300.49,278.563z"/>
<path id="path6240" fill="#FFFFFF" d="M296.387,275.034c0.863,0.72,1.728,1.368,2.592,2.088l0.287,9.792l10.729,3.6
	c0.648,1.152,1.225,2.305,1.8,3.529l-15.048-5.328L296.387,275.034z"/>
<path id="path6242" fill="#FFFFFF" d="M290.266,271.074c1.584,0.864,3.097,1.8,4.609,2.88l0.432,15.769l15.695,5.615l-5.615,9.072
	c-2.16-3.456-4.32-6.912-6.48-10.367c-2.952,1.367-5.977,2.663-9,3.887l-8.064-15.551l8.929-3.456L290.266,271.074z"/>
<path id="path6244" fill="#FFFFFF" d="M265.715,264.738c6.623,0,12.959,1.224,18.791,3.6l0.504,6.984l-19.295,7.488l-19.296-7.488
	l0.504-6.984C252.754,265.962,259.09,264.738,265.715,264.738z"/>
</svg>
