<svg width="353" height="512" viewBox="0 0 353 512" fill="none" xmlns="http://www.w3.org/2000/svg">
<g clip-path="url(#clip0_2008_77)">
<path d="M74.5135 81.7304C77.3828 66.3808 88.1278 54.9738 101.856 51.6958C102.61 51.5113 103.276 51.4932 104.095 51.3355C105.948 50.9709 108.307 50.5407 110.571 50.8002C110.642 50.8045 110.742 50.8002 110.73 50.8002C112.525 51.0217 114.337 51.0829 116.245 51.426C118.07 51.7492 119.927 52.412 121.597 53.0352C122.004 53.1887 122.893 53.8627 123.359 53.7507L123.439 53.5696C125.632 51.3993 127.444 48.76 129.755 46.6896C135.028 41.9523 142.878 38.5407 152.214 38.5545C156.035 38.5588 159.264 39.4302 162.607 39.9836C160.841 32.5286 165.035 25.7183 168.923 23.0902C170.42 22.0757 172.144 21.4852 173.881 20.6776V14.1535H167.485V7.27081H173.881C173.881 5.00906 173.881 2.49561 173.957 0.386414H177.315H180.674C180.75 2.49561 180.75 5.00992 180.75 7.27081H187.146V14.1535H180.75V20.6776C182.487 21.4861 184.21 22.0765 185.708 23.0902C189.596 25.7183 193.79 32.5277 192.024 39.9836C195.367 39.4302 198.596 38.5588 202.417 38.5545C211.754 38.5415 219.604 41.9531 224.876 46.6896C227.188 48.76 228.999 51.3993 231.193 53.5696L231.273 53.7507C231.738 53.8627 232.627 53.1887 233.034 53.0352C234.703 52.4112 236.561 51.7483 238.386 51.426C240.294 51.0838 242.106 51.0226 243.901 50.8002C243.888 50.8002 243.99 50.8045 244.06 50.8002C246.325 50.5407 248.683 50.9709 250.536 51.3355C251.354 51.4932 252.021 51.5113 252.776 51.6958C266.503 54.9729 277.248 66.3808 280.118 81.7304C280.668 84.6749 280.914 88.3606 280.675 91.917C279.605 107.923 274.623 118.695 269.003 129.55C266.52 134.356 263.663 140.265 259.411 143.047C260.045 144.045 260.846 145.011 261.332 146.177C262.439 148.842 262.389 152.519 261.492 155.294C258.17 165.527 242.844 168.134 233.509 162.352C229.361 159.782 227.105 156.765 226.475 150.464C218.733 158.706 201.906 158.348 195.703 148.676C194.923 147.452 194.453 146.014 193.941 144.475C192.854 146.087 191.848 147.803 190.422 149.035C187.094 151.913 182.215 153.363 177.316 153.401C172.417 153.363 167.538 151.912 164.21 149.035C162.784 147.803 161.778 146.087 160.691 144.475C160.179 146.014 159.709 147.452 158.929 148.676C152.726 158.348 135.899 158.706 128.157 150.464C127.528 156.765 125.271 159.782 121.123 162.352C111.787 168.134 96.4621 165.527 93.1402 155.294C92.2429 152.519 92.1921 148.842 93.3003 146.177C93.7864 145.01 94.5874 144.045 95.2206 143.047C90.9687 140.265 88.1114 134.356 85.6293 129.55C80.0094 118.696 75.0271 107.923 73.9568 91.917C73.7168 88.3606 73.9637 84.6749 74.5135 81.7304Z" fill="#F5C03E"/>
<path d="M109.292 73.0566C103.579 73.4936 99.7203 76.257 97.3001 80.3884C92.9837 87.7451 96.0844 101.234 98.496 108.364C99.7874 112.177 101.738 115.709 103.537 119.09C104.72 121.321 106.234 123.439 107.609 125.524C109.504 128.397 111.895 131.114 111.367 136.433C113.686 136.815 115.405 137.034 117.204 137.593C120.379 138.572 122.535 140.659 124.88 142.513C124.88 138.708 126.117 136.413 127.673 134.374C128.512 133.277 129.384 132.332 130.47 131.513C130.956 131.149 131.364 130.849 131.91 130.53C131.344 130.017 130.74 129.343 130.236 128.743C128.11 126.24 126.897 122.368 125.514 119.09C121.388 109.316 117.754 99.191 116.245 86.3763C115.784 82.47 115.545 78.024 116.085 73.9505C114.191 73.3307 111.308 72.9032 109.292 73.0566Z" fill="#FF1119"/>
<path d="M155.81 60.4549C160.163 60.817 163.79 62.1849 167.004 63.8493V114.979C167.004 116.961 166.912 119.051 167.164 120.792C167.466 122.848 168.262 124.637 169.164 126.066C164.122 128.714 162.143 130.523 159.727 136.165C157.659 131.705 153.52 129.169 148.701 127.761C148.97 126.277 149.464 124.887 149.338 123.027C149.095 119.353 147.493 116.989 146.381 114.354C145.279 111.738 144.159 109.129 143.1 106.491C139.976 98.6954 134.289 80.8271 138.223 70.3777C139.158 67.897 140.711 66.1386 142.464 64.569C145.517 61.8254 149.933 59.9593 155.81 60.4549Z" fill="#FF1119"/>
<path d="M245.339 73.0566C251.051 73.4936 254.91 76.257 257.33 80.3884C261.647 87.7451 258.546 101.234 256.134 108.364C254.843 112.177 252.893 115.709 251.093 119.09C249.91 121.321 248.396 123.439 247.021 125.524C245.126 128.397 242.735 131.114 243.263 136.433C240.945 136.815 239.225 137.034 237.426 137.593C234.251 138.572 232.095 140.659 229.751 142.513C229.751 138.708 228.513 136.413 226.957 134.374C226.118 133.277 225.247 132.332 224.16 131.513C223.674 131.149 223.266 130.849 222.721 130.53C223.287 130.017 223.891 129.343 224.394 128.743C226.521 126.24 227.733 122.368 229.116 119.09C233.243 109.316 236.876 99.191 238.385 86.3763C238.846 82.47 239.085 78.024 238.545 73.9505C240.44 73.3307 243.322 72.9032 245.339 73.0566Z" fill="#FF1119"/>
<path d="M198.821 60.4549C194.467 60.817 190.84 62.1849 187.627 63.8493V114.979C187.627 116.961 187.719 119.051 187.467 120.792C187.165 122.848 186.369 124.637 185.466 126.066C190.508 128.714 192.488 130.523 194.903 136.165C196.971 131.705 201.11 129.169 205.929 127.761C205.661 126.277 205.166 124.887 205.292 123.027C205.535 119.353 207.138 116.989 208.249 114.354C209.351 111.738 210.472 109.129 211.53 106.491C214.654 98.6954 220.341 80.8271 216.407 70.3777C215.472 67.897 213.919 66.1386 212.167 64.569C209.113 61.8254 204.697 59.9593 198.821 60.4549Z" fill="#FF1119"/>
<path d="M2.47302 335.15C2.47302 238.41 80.7476 159.989 177.318 159.989C273.878 159.989 352.157 238.409 352.157 335.15C352.157 431.895 273.878 510.319 177.318 510.319C80.7485 510.319 2.47302 431.895 2.47302 335.15Z" fill="#FF1119"/>
<path d="M25.873 333.57C25.873 336.922 29.1149 339.641 33.1207 339.641C37.1214 339.641 40.3632 336.922 40.3632 333.57C40.3632 330.22 37.1214 327.499 33.1207 327.499C29.114 327.499 25.873 330.22 25.873 333.57Z" fill="black"/>
<path d="M40.4682 388.532C48.3818 386.181 53.5706 377.812 51.5823 369.452L49.0236 358.693L18.5282 366.658L21.0912 377.417C23.1543 386.098 32.2475 390.96 40.4682 388.532ZM27.8984 375.636L27.1645 372.548L44.0361 368.139L44.7709 371.23C45.7981 375.544 42.6948 379.522 38.6184 380.756C34.2822 382.055 28.9893 380.216 27.8984 375.636Z" fill="black"/>
<path d="M58.3809 403.458L63.5861 413.303L69.7213 409.74L60.8639 392.982L33.3754 408.942L42.4892 426.181L48.6305 422.613L43.1732 412.295L48.3947 409.258L52.8359 417.662L58.9728 414.093L54.5351 405.694L58.3809 403.458Z" fill="black"/>
<path d="M95.138 435.181L88.4522 429.705L69.1087 455.652L76.4106 461.631C81.5271 465.825 88.1966 466.963 91.8704 462.032C94.1271 459.006 93.7993 455.254 91.8162 452.029C94.8816 452.73 97.7088 451.978 99.6429 449.383C103.023 444.842 99.8906 439.065 95.138 435.181ZM86.3684 456.482C85.0142 458.3 82.8409 457.563 80.3252 455.502L79.3693 454.724L83.0465 449.791L83.9981 450.569C86.6789 452.767 87.6933 454.709 86.3684 456.482ZM92.6593 445.824C91.6905 447.117 90.2641 447.07 87.9531 445.175L87.0472 444.433L90.0756 440.365L90.9438 441.077C93.2555 442.97 93.6246 444.523 92.6593 445.824Z" fill="black"/>
<path d="M100.657 476.25L106.869 481.07L111.214 475.827L120.307 480.07L119.501 486.965L127.072 488.576L129.307 454.296L123.474 451.568L100.657 476.25ZM121.201 472.44L116.028 470.027L122.408 462.304L121.201 472.44Z" fill="black"/>
<path d="M235.217 478.593L224.446 482.046L222.697 476.061L231.464 473.253L229.412 466.22L220.646 469.027L219.363 464.622L229.631 461.333L227.579 454.3L210.095 459.898L219.288 491.388L237.272 485.628L235.217 478.593Z" fill="black"/>
<path d="M267.146 461.401L257.526 466.989L245.69 444.622L239.088 448.452L254.329 477.25L270.548 467.836L267.146 461.401Z" fill="black"/>
<path d="M267.772 426.666C261.703 432.806 263.539 443.081 269.395 449.44C275.258 455.794 284.998 458.067 291.062 451.929C297.131 445.79 295.299 435.514 289.439 429.159C283.579 422.802 273.837 420.53 267.772 426.666ZM286.264 446.717C283.017 449.998 278.535 447.821 274.898 443.875C271.261 439.924 269.337 435.154 272.574 431.879C275.816 428.599 280.299 430.776 283.94 434.722C287.58 438.672 289.502 443.438 286.264 446.717Z" fill="black"/>
<path d="M310.027 400.637L289.216 401.478L285.563 408.393L313.055 424.355L316.712 417.444L301.132 408.397L321.943 407.556L325.596 400.645L298.107 384.679L294.446 391.591L310.027 400.637Z" fill="black"/>
<path d="M330.452 363.669L337.054 363.063L336.982 354.968L304.508 359.799L303.182 366.353L330.973 384.599L334.181 377.232L328.385 373.866L330.452 363.669ZM321.963 370.14L313.428 365.209L323.142 364.341L321.963 370.14Z" fill="black"/>
<path d="M316.033 337.09C316.033 340.436 319.279 343.157 323.276 343.157C327.281 343.157 330.528 340.436 330.528 337.09C330.528 333.737 327.282 331.02 323.276 331.02C319.28 331.02 316.033 333.737 316.033 337.09Z" fill="black"/>
<path d="M300.561 298.455L305.044 317.314L311.855 315.532L309.196 304.345L332.881 298.163L331.052 290.491L300.561 298.455Z" fill="black"/>
<path d="M291.024 276.867C295.239 284.522 305.2 285.153 312.502 280.734C319.804 276.32 324.266 266.965 320.051 259.31C315.836 251.655 305.874 251.027 298.573 255.445C291.271 259.865 286.809 269.215 291.024 276.867ZM302.398 262.388C306.933 259.644 311.81 258.842 314.067 262.933C316.315 267.022 313.216 271.049 308.682 273.796C304.143 276.541 299.262 277.336 297.013 273.246C294.761 269.161 297.86 265.129 302.398 262.388Z" fill="black"/>
<path d="M276.89 238.348L268.199 246.842L273.413 252.705L282.107 244.21L302.508 239.211L299.236 231.826L284.632 236.262L285.614 233.465L286.427 233.275L290.44 221.616L289.703 221.198L289.7 221.207L283.076 217.374L276.89 238.348Z" fill="black"/>
<path d="M251.096 192.431L234.44 220.358L240.837 224.544L250.274 208.719L249.989 230.538L256.385 234.728L273.04 206.803L266.639 202.613L257.203 218.435L257.243 215.354L257.797 214.372L257.995 196.958L257.48 196.597L257.479 196.61L251.096 192.431Z" fill="black"/>
<path d="M220.433 209.108L220.78 216.042L228.506 216.252L225.019 182.084L218.826 180.46L200.452 208.918L207.363 212.53L210.778 206.582L220.433 209.108ZM219.556 191.229L220.042 201.427L214.557 199.99L219.556 191.229Z" fill="black"/>
<path d="M181.394 199.315H182.601C189.308 199.315 195.75 194.54 195.75 187.517C195.75 180.487 189.308 175.713 182.601 175.713H173.852V208.644H181.394V199.315ZM181.394 183.072H182.601C185.273 183.072 188.101 184.717 188.101 187.517C188.101 190.311 185.273 191.958 182.601 191.958H181.394V183.072Z" fill="black"/>
<path d="M150.747 198.618C152.295 199.117 153.751 199.688 154.04 201.367C154.313 202.985 153.356 204.602 151.85 205.106C149.691 205.812 147.234 205.295 146.273 203.208L142.657 209.678C145.723 212.641 149.877 213.062 153.315 212.301C158.792 211.077 162.479 205.488 161.414 199.725C160.487 194.877 156.771 192.676 152.162 191.345L149.997 190.705C147.669 190.044 145.723 189.692 145.854 187.7C145.934 186.507 146.667 185.388 147.8 185.135C149.528 184.694 151.324 184.578 152.502 185.887L155.903 179.687C152.98 177.419 149.976 177.134 146.341 177.945C141.777 178.958 137.499 184.007 138.48 189.343C139.441 194.625 143.933 196.434 148.916 198.018L150.747 198.618Z" fill="black"/>
<path d="M131.078 208.692L120.794 213.492L118.362 207.778L126.737 203.87L123.881 197.152L115.505 201.061L113.714 196.849L123.525 192.273L120.672 185.554L103.971 193.343L116.755 223.424L133.934 215.411L131.078 208.692Z" fill="black"/>
<path d="M86.8295 245.091C92.7599 238.657 91.8798 228.001 85.5553 221.984C79.4519 216.197 69.932 216.022 64.2192 222.218L56.8718 230.192L79.482 253.064L86.8295 245.091ZM69.2687 227.327C72.2128 224.132 77.0782 224.78 80.2408 227.748C83.5919 230.908 84.9091 236.588 81.78 239.984L79.6704 242.274L67.1548 229.615L69.2687 227.327Z" fill="black"/>
<path d="M46.4365 274.485C53.7211 278.709 63.6919 278.099 67.7252 270.466C69.9613 266.246 70.4388 262.506 68.9332 257.992L68.9271 257.993L68.7697 257.461L61.9341 259.091L62.0632 259.459L62.0554 259.461C63.3142 261.944 63.1386 264.541 61.6786 266.958C59.2464 270.875 54.0412 269.736 50.1446 267.475C46.2489 265.216 42.7008 261.274 44.4499 256.959C45.515 254.375 47.2642 252.881 49.8599 252.382L47.8552 245.764C43.4011 246.816 40.6325 249.225 38.3982 253.443C34.567 260.694 39.151 270.254 46.4365 274.485Z" fill="black"/>
<path d="M52.7274 303.27L42.6199 300.831L42.8798 299.651L56.0114 293.253L54.2916 285.684L54.2649 285.698L53.9982 284.699L42.2551 290.916C41.0343 287.595 38.473 285.237 35.4153 284.497C29.2827 283.016 23.7841 288.224 22.3714 294.64L20.4037 303.566L51.0342 310.973L52.7274 303.27ZM36.0477 297.945L35.7827 299.173L28.9385 297.519L29.2104 296.291C29.9993 292.708 31.4964 291.771 33.6894 292.303C35.8842 292.835 36.5553 295.648 36.0477 297.945Z" fill="black"/>
<path d="M160.237 482.319C163.323 480.816 165.399 477.973 165.892 474.712C166.87 468.203 161.538 462.819 155.327 461.788L146.683 460.354L141.772 492.877L149.224 494.115L150.844 483.382L151.98 483.57L158.992 496.85L166.081 494.523L166.062 494.49L166.931 494.262L160.237 482.319ZM158.339 473.455C157.986 475.787 155.357 476.687 153.134 476.318L151.942 476.12L153.037 468.852L154.228 469.049C157.697 469.628 158.692 471.126 158.339 473.455Z" fill="black"/>
<path d="M198.259 485.377L198.024 485.85C196.712 488.263 194.558 489.503 191.859 489.538C187.393 489.534 185.471 484.337 185.161 479.684C184.851 475.031 186.075 469.766 190.48 468.951C193.126 468.483 195.278 469.203 197.09 471.217L201.301 465.847C198.029 462.514 194.599 461.389 190.003 461.725C182.108 462.3 176.949 471.535 177.533 480.242C178.112 488.945 184.035 497.367 192.342 496.761C196.94 496.426 200.194 494.812 202.982 491.032L202.979 491.029L203.247 490.6L198.259 485.377Z" fill="black"/>
<path d="M23.8263 335.299C23.8263 338.65 27.0681 341.368 31.0697 341.368C35.0746 341.368 38.3173 338.65 38.3173 335.299C38.3173 331.951 35.0746 329.234 31.0697 329.234C27.0673 329.234 23.8263 331.951 23.8263 335.299Z" fill="#F5C03E"/>
<path d="M314.099 335.299C314.099 338.65 317.342 341.368 321.347 341.368C325.348 341.368 328.59 338.65 328.59 335.299C328.59 331.951 325.348 329.234 321.347 329.234C317.342 329.234 314.099 331.951 314.099 335.299Z" fill="#F5C03E"/>
<path d="M44.289 275.163C51.5789 279.393 61.5478 278.777 65.5821 271.149C67.8181 266.924 68.2913 263.187 66.79 258.675L59.9071 260.14C61.1658 262.626 60.9938 265.223 59.5303 267.636C57.1015 271.56 51.892 270.418 47.9963 268.158C44.0998 265.893 40.5568 261.956 42.3008 257.637C43.3659 255.054 45.1193 253.56 47.715 253.064L45.7104 246.442C41.2563 247.495 38.4876 249.902 36.2524 254.128C32.4195 261.371 37.0087 270.933 44.289 275.163Z" fill="#F5C03E"/>
<path d="M84.0987 245.21C90.03 238.774 89.1439 228.117 82.8202 222.102C76.7177 216.315 67.197 216.14 61.4842 222.336L54.1367 230.315L76.7513 253.183L84.0987 245.21ZM66.5388 227.448C69.4829 224.249 74.344 224.896 77.5101 227.866C80.862 231.025 82.1793 236.707 79.0493 240.1L76.9397 242.392L64.4249 229.734L66.5388 227.448Z" fill="#F5C03E"/>
<path d="M255.642 232.105L272.294 204.18L265.901 199.99L256.465 215.811L256.753 193.996L250.354 189.808L233.699 217.729L240.095 221.922L249.532 206.095L249.251 227.911L255.642 232.105Z" fill="#F5C03E"/>
<path d="M218.445 207.199L218.784 214.133L226.515 214.344L223.034 180.178L216.835 178.554L198.461 207.01L205.368 210.624L208.782 204.674L218.445 207.199ZM217.564 189.32L218.05 199.517L212.564 198.082L217.564 189.32Z" fill="#F5C03E"/>
<path d="M179.402 197.407H180.609C187.316 197.407 193.758 192.633 193.758 185.604C193.758 178.579 187.316 173.806 180.609 173.806H171.86V206.735H179.402V197.407ZM179.402 181.164H180.609C183.281 181.164 186.109 182.805 186.109 185.604C186.109 188.403 183.282 190.049 180.609 190.049H179.402V181.164Z" fill="#F5C03E"/>
<path d="M149.155 196.832C150.703 197.327 152.157 197.902 152.446 199.576C152.719 201.2 151.763 202.815 150.257 203.321C148.097 204.021 145.64 203.504 144.676 201.417L141.065 207.888C144.13 210.852 148.282 211.276 151.721 210.512C157.199 209.292 160.886 203.702 159.825 197.933C158.894 193.094 155.177 190.887 150.573 189.556L148.404 188.916C146.076 188.259 144.129 187.908 144.261 185.915C144.34 184.717 145.074 183.603 146.206 183.351C147.935 182.904 149.729 182.789 150.908 184.098L154.31 177.898C151.387 175.633 148.383 175.345 144.748 176.155C140.185 177.172 135.906 182.223 136.887 187.559C137.848 192.841 142.34 194.644 147.318 196.228L149.155 196.832Z" fill="#F5C03E"/>
<path d="M118.29 212.656L115.856 206.941L124.233 203.036L121.376 196.318L113.001 200.225L111.209 196.012L121.019 191.436L118.164 184.717L101.467 192.505L114.255 222.592L131.43 214.579L128.574 207.86L118.29 212.656Z" fill="#F5C03E"/>
<path d="M299.29 229.022L284.691 233.459L289.933 218.507L283.131 214.57L276.949 235.544L268.254 244.043L273.467 249.902L282.166 241.406L302.565 236.408L299.29 229.022Z" fill="#F5C03E"/>
<path d="M290.856 274.218C295.071 281.873 305.032 282.501 312.334 278.087C319.637 273.669 324.098 264.313 319.884 256.661C315.669 249.006 305.707 248.379 298.405 252.796C291.104 257.214 286.641 266.564 290.856 274.218ZM302.23 259.74C306.765 256.993 311.641 256.198 313.899 260.284C316.15 264.373 313.047 268.401 308.513 271.144C303.979 273.892 299.093 274.687 296.845 270.598C294.589 266.511 297.692 262.478 302.23 259.74Z" fill="#F5C03E"/>
<path d="M306.353 314.866L313.164 313.088L310.506 301.9L334.185 295.72L332.36 288.047L301.874 296.012L306.353 314.866Z" fill="#F5C03E"/>
<path d="M41.7183 386.03C49.6362 383.677 54.8242 375.306 52.8367 366.946L50.278 356.186L19.7792 364.151L22.3422 374.91C24.4045 383.592 33.4976 388.456 41.7183 386.03ZM29.1519 373.133L28.418 370.042L45.2905 365.635L46.0244 368.723C47.0526 373.038 43.9449 377.017 39.872 378.254C35.5358 379.555 30.2429 377.709 29.1519 373.133Z" fill="#F5C03E"/>
<path d="M64.3242 410.5L70.4689 406.936L61.6029 390.178L34.1144 406.139L43.2317 423.378L49.372 419.813L43.9113 409.487L49.1337 406.459L53.5749 414.859L59.7153 411.296L55.2732 402.892L59.119 400.658L64.3242 410.5Z" fill="#F5C03E"/>
<path d="M94.8024 432.314L88.1131 426.842L68.7662 452.787L76.0724 458.769C81.189 462.963 87.8533 464.102 91.5279 459.169C93.7881 456.141 93.4568 452.393 91.4771 449.164C94.5425 449.868 97.3654 449.112 99.3038 446.52C102.688 441.981 99.5456 436.202 94.8024 432.314ZM86.0285 453.622C84.6743 455.439 82.4967 454.7 79.9802 452.64L79.0286 451.862L82.7066 446.929L83.6547 447.709C86.3348 449.903 87.35 451.849 86.0285 453.622ZM92.3151 442.961C91.3464 444.257 89.9207 444.207 87.609 442.313L86.703 441.57L89.7358 437.503L90.5996 438.216C92.9156 440.108 93.2839 441.659 92.3151 442.961Z" fill="#F5C03E"/>
<path d="M98.9503 473.983L105.158 478.801L109.508 473.565L118.6 477.803L117.791 484.695L125.362 486.306L127.605 452.028L121.763 449.306L98.9503 473.983ZM119.493 470.17L114.327 467.76L120.697 460.042L119.493 470.17Z" fill="#F5C03E"/>
<path d="M164.24 472.505C165.222 465.999 159.883 460.613 153.68 459.582L145.036 458.146L140.124 490.667L147.573 491.908L149.193 481.172L150.333 481.362L157.341 494.639L164.429 492.318L157.671 480.529C161.271 479.179 163.703 476.082 164.24 472.505ZM156.686 471.252C156.334 473.583 153.709 474.477 151.481 474.108L150.294 473.91L151.388 466.648L152.575 466.846C156.045 467.422 157.039 468.92 156.686 471.252Z" fill="#F5C03E"/>
<path d="M189.866 488.104C185.4 488.104 183.479 482.906 183.164 478.254C182.858 473.6 184.078 468.34 188.487 467.521C191.137 467.047 193.285 467.773 195.097 469.783L199.311 464.415C196.04 461.079 192.605 459.954 188.004 460.289C180.115 460.868 174.96 470.103 175.539 478.81C176.123 487.511 182.041 495.936 190.344 495.33C194.946 494.995 198.196 493.379 200.994 489.601L196.074 484.35C194.765 486.812 192.593 488.071 189.866 488.104Z" fill="#F5C03E"/>
<path d="M221.998 480.853L220.252 474.868L229.023 472.062L226.967 465.029L218.201 467.836L216.913 463.43L227.181 460.141L225.13 453.107L207.65 458.706L216.842 490.195L234.823 484.437L232.772 477.404L221.998 480.853Z" fill="#F5C03E"/>
<path d="M265.335 426.074C259.27 432.21 261.104 442.489 266.963 448.843C272.818 455.197 282.565 457.469 288.629 451.331C294.695 445.198 292.861 434.916 287.007 428.561C281.142 422.209 271.399 419.935 265.335 426.074ZM283.822 446.124C280.585 449.4 276.101 447.223 272.456 443.277C268.819 439.328 266.899 434.559 270.138 431.28C273.38 428.005 277.863 430.182 281.503 434.128C285.14 438.074 287.065 442.844 283.822 446.124Z" fill="#F5C03E"/>
<path d="M254.963 466.274L243.122 443.906L236.529 447.735L251.771 476.533L267.986 467.121L264.58 460.685L254.963 466.274Z" fill="#F5C03E"/>
<path d="M328.745 365.936L335.352 365.329L335.276 357.235L302.805 362.067L301.472 368.614L329.267 386.865L332.475 379.499L326.673 376.133L328.745 365.936ZM320.253 372.405L311.722 367.477L321.431 366.609L320.253 372.405Z" fill="#F5C03E"/>
<path d="M286.712 402.316L283.059 409.225L310.551 425.186L314.209 418.275L298.628 409.229L319.438 408.388L323.093 401.478L295.603 385.516L291.942 392.424L307.524 401.473L286.712 402.316Z" fill="#F5C03E"/>
<path d="M50.5421 304.812L40.4338 302.368L40.6901 301.195L53.827 294.793L52.1028 287.227L40.4088 293.463C39.3729 289.611 36.5923 286.854 33.2205 286.039C27.0982 284.559 21.5988 289.761 20.1861 296.178L18.2193 305.107L48.8446 312.513L50.5421 304.812ZM33.8623 299.486L33.5939 300.713L26.7489 299.061L27.0259 297.829C27.814 294.247 29.311 293.315 31.505 293.847C33.698 294.377 34.37 297.185 33.8623 299.486Z" fill="#F5C03E"/>
<path d="M217.681 226.792L71.029 380.322C74.214 387.835 78.1726 394.939 82.7996 401.538L239.367 237.634C232.588 233.295 225.326 229.651 217.681 226.792Z" fill="white"/>
<path d="M62.4116 324.188L161.338 220.625C108.711 227.928 67.4301 270.77 62.4116 324.188Z" fill="white"/>
<path d="M271.84 268.787L115.283 432.687C122.056 437.02 129.312 440.66 136.95 443.516L283.602 289.991C280.419 282.483 276.464 275.383 271.84 268.787Z" fill="white"/>
<path d="M292.22 346.119L193.296 449.683C245.924 442.381 287.205 399.539 292.22 346.119Z" fill="white"/>
<path d="M239.367 237.634L82.7996 401.538C91.4832 413.925 102.528 424.528 115.283 432.687L271.84 268.787C263.16 256.4 252.119 245.795 239.367 237.634Z" fill="#1E6BC0"/>
<path d="M292.739 335.158C292.739 319.131 289.484 303.868 283.601 289.991L136.95 443.516C149.515 448.216 163.116 450.791 177.318 450.791C182.741 450.791 188.072 450.407 193.296 449.682L292.22 346.119C292.559 342.51 292.739 338.855 292.739 335.158Z" fill="#1E6BC0"/>
<path d="M177.318 219.517C171.895 219.517 166.562 219.9 161.339 220.625L62.4116 324.188C62.0726 327.799 61.892 331.457 61.892 335.159C61.892 351.184 65.1476 366.447 71.029 380.322L217.681 226.792C205.116 222.092 191.518 219.517 177.318 219.517Z" fill="#1E6BC0"/>
</g>
<defs>
<clipPath id="clip0_2008_77">
<rect width="351.752" height="512" fill="white" transform="translate(0.442383 -0.302673)"/>
</clipPath>
</defs>
</svg>
