<svg width="270" height="270" viewBox="0 0 270 270" fill="none" xmlns="http://www.w3.org/2000/svg">
<g clip-path="url(#clip0_1_442)">
<path d="M235 135C235 190.227 190.229 235 135 235C79.7715 235 35 190.227 35 135C35 79.7711 79.7715 35 135 35C190.229 35 235 79.7711 235 135Z" fill="#D0162D"/>
<path d="M66.6087 203.391C48.3407 185.123 38.28 160.834 38.28 135C38.28 109.165 48.3407 84.8761 66.6087 66.6084C84.8766 48.3404 109.165 38.28 135 38.28C160.835 38.28 185.124 48.3404 203.391 66.6084C221.66 84.8761 231.72 109.165 231.72 135C231.72 160.834 221.66 185.123 203.391 203.391C185.123 221.659 160.835 231.72 135 231.72C109.166 231.72 84.8766 221.659 66.6087 203.391Z" fill="white"/>
<path d="M135 228.44C110.041 228.44 86.5766 218.72 68.9281 201.072C51.2796 183.423 41.5601 159.959 41.5601 135C41.5602 110.041 51.2796 86.5764 68.9283 68.9277C86.5766 51.2793 110.041 41.56 135 41.56C159.959 41.56 183.423 51.2794 201.072 68.9279C218.72 86.5764 228.44 110.041 228.44 135C228.44 159.959 218.721 183.424 201.073 201.072C183.424 218.721 159.959 228.44 135 228.44Z" fill="#D0162D"/>
<path d="M197.833 135C197.833 169.701 169.701 197.833 135 197.833C100.299 197.833 72.1674 169.701 72.1674 135C72.1674 100.298 100.299 72.1673 135 72.1673C169.701 72.1673 197.833 100.298 197.833 135Z" fill="white"/>
<path d="M82.0102 185.523L88.0877 191.266L86.5794 192.862L82.2577 188.779L80.6523 190.478L84.4608 194.076L82.9524 195.673L79.1439 192.074L76.2239 195.164L74.4679 193.505L82.0102 185.523Z" fill="white"/>
<path d="M86.4157 197.975L89.9469 192.788L91.944 194.147L88.4483 199.283C87.4419 200.761 87.6601 202.029 88.8791 202.859C90.0981 203.689 91.3406 203.453 92.3205 202.013L95.8604 196.813L97.8577 198.173L94.3707 203.295C92.4992 206.044 90.0377 206.343 87.5995 204.683C85.1615 203.023 84.5971 200.646 86.4157 197.975Z" fill="white"/>
<path d="M101.957 202.739L98.9314 201.32L99.877 199.303L108.116 203.166L107.17 205.183L104.144 203.764L100.428 211.69L98.2407 210.665L101.957 202.739Z" fill="white"/>
<path d="M110.464 204.033L115.362 205.451C116.567 205.8 117.421 206.406 117.849 207.183C118.192 207.805 118.263 208.462 118.045 209.216C117.7 210.406 116.875 210.886 116 211.09C117.085 211.91 117.634 212.837 117.215 214.284C116.657 216.212 114.81 216.723 112.429 216.034L107.411 214.582L110.464 204.033ZM113.018 214C114.043 214.296 114.766 214.114 115.001 213.3C115.206 212.592 114.805 212.002 113.615 211.657L110.932 210.881L110.261 213.202L113.018 214ZM113.63 209.571C114.655 209.868 115.399 209.724 115.635 208.91C115.835 208.217 115.406 207.668 114.426 207.385L112.136 206.722L111.49 208.952L113.63 209.571Z" fill="white"/>
<path d="M120.899 212.563C121.225 209.458 123.942 207.173 127.312 207.527C130.682 207.881 132.837 210.647 132.507 213.783C132.181 216.888 129.464 219.173 126.094 218.819C122.724 218.465 120.57 215.699 120.899 212.563ZM129.995 213.519C130.192 211.647 128.983 209.942 127.048 209.739C125.114 209.535 123.611 210.924 123.411 212.827C123.214 214.699 124.424 216.404 126.358 216.607C128.293 216.81 129.795 215.422 129.995 213.519Z" fill="white"/>
<path d="M135.86 208.195L138.272 208.052L138.792 216.822L144.258 216.498L144.388 218.691L136.511 219.158L135.86 208.195Z" fill="white"/>
<path d="M153.106 211.67C152.199 208.683 153.709 205.552 156.937 204.573C158.918 203.972 160.257 204.386 161.524 205.05L160.626 207.061C159.592 206.571 158.769 206.345 157.568 206.709C155.797 207.247 154.967 209.105 155.523 210.937C156.069 212.738 157.771 213.861 159.572 213.315C160.773 212.95 161.363 212.247 161.961 211.246L163.911 212.376C163.18 213.86 162.171 214.854 160.144 215.469C157.051 216.408 154.031 214.718 153.106 211.67Z" fill="white"/>
<path d="M163.593 202.405L165.768 201.354L169.591 209.264L174.521 206.881L175.476 208.859L168.372 212.293L163.593 202.405Z" fill="white"/>
<path d="M176.033 203.144L172.474 197.976L174.464 196.606L177.987 201.723C179.001 203.196 180.263 203.451 181.477 202.615C182.692 201.778 182.922 200.535 181.934 199.101L178.367 193.919L180.357 192.549L183.871 197.653C185.757 200.393 185.144 202.795 182.715 204.467C180.285 206.14 177.865 205.806 176.033 203.144Z" fill="white"/>
<path d="M182.714 190.571L186.378 187.026C187.28 186.153 188.231 185.714 189.118 185.728C189.828 185.74 190.434 186.005 190.979 186.569C191.841 187.46 191.847 188.414 191.589 189.275C192.84 188.741 193.917 188.725 194.964 189.808C196.36 191.251 195.886 193.107 194.105 194.831L190.35 198.463L182.714 190.571ZM189.094 190.576C189.86 189.835 190.105 189.118 189.516 188.509C189.014 187.99 188.325 188.09 187.592 188.799L185.878 190.457L187.493 192.125L189.094 190.576ZM192.632 193.308C193.399 192.567 193.599 191.849 193.01 191.24C192.497 190.71 191.786 190.765 190.896 191.627L188.889 193.569L190.569 195.305L192.632 193.308Z" fill="white"/>
<path d="M75.6283 83.0505C71.6698 78.5655 71.7496 71.7379 76.578 67.4763C79.3697 65.0124 81.7724 64.2758 84.6519 64.2176L84.7453 67.9208C82.5807 67.959 80.7822 68.3656 78.7458 70.1632C75.7939 72.7684 75.8335 77.3332 78.5801 80.4452C81.4882 83.7403 85.8028 84.2473 89.0751 81.3592C90.5852 80.0263 91.534 78.334 91.8719 76.7334L89.2262 73.7357L85.1301 77.3508L82.9692 74.9025L89.7881 68.884L95.7258 75.6116C95.3383 78.355 94.0829 81.4984 91.2457 84.0029C86.2341 88.4258 79.7886 87.7644 75.6283 83.0505Z" fill="white"/>
<path d="M91.9858 57.1415L95.3084 55.3939L105.255 74.3013L101.932 76.049L91.9858 57.1415Z" fill="white"/>
<path d="M104.497 51.0459L113.711 48.6431C118.554 47.3801 122.067 49.2397 123.107 53.2265C123.993 56.6228 122.486 59.1919 119.808 60.7735L127.43 67.1441L123.148 68.2607L116.13 62.3949L111.641 63.5654L113.52 70.7714L109.888 71.7186L104.497 51.0459ZM116.118 58.9603C118.717 58.2824 120.016 56.4928 119.454 54.3368C118.876 52.1219 116.966 51.327 114.278 52.0277L108.992 53.4063L110.802 60.3463L116.118 58.9603Z" fill="white"/>
<path d="M128.136 56.2761C128.46 50.2724 133.365 45.4948 139.917 45.8496C146.469 46.2045 150.772 51.4195 150.444 57.4841C150.118 63.4877 145.214 68.2654 138.662 67.9105C132.109 67.5557 127.807 62.3406 128.136 56.2761ZM146.512 57.2713C146.737 53.1265 143.906 49.5194 139.67 49.2901C135.434 49.0607 132.295 52.2833 132.067 56.4889C131.842 60.6336 134.673 64.2407 138.909 64.4702C143.145 64.6996 146.284 61.4767 146.512 57.2713Z" fill="white"/>
<path d="M159.273 48.9338L162.505 50.2223L167.665 68.1824L173.136 54.4612L176.567 55.8289L168.654 75.6736L165.734 74.5095L160.42 56.0281L154.791 70.1461L151.361 68.7786L159.273 48.9338Z" fill="white"/>
<path d="M192.594 67.0313L195.203 69.3327L188.02 91.6875L185.045 89.0631L186.831 83.7613L179.255 77.0791L174.195 79.4941L171.311 76.9502L192.594 67.0313ZM188.002 80.3581L190.885 71.5064L182.486 75.4926L188.002 80.3581Z" fill="white"/>
<path fill-rule="evenodd" clip-rule="evenodd" d="M194.386 135.161L135.161 194.387C142.446 194.368 149.42 193.032 155.865 190.612L190.612 155.865C193.031 149.42 194.367 142.447 194.386 135.161Z" fill="#D0162D"/>
<path fill-rule="evenodd" clip-rule="evenodd" d="M187.753 107.726L107.725 187.753C111.574 189.748 115.663 191.343 119.946 192.462L192.461 119.947C191.342 115.663 189.747 111.575 187.753 107.726Z" fill="#D0162D"/>
<path fill-rule="evenodd" clip-rule="evenodd" d="M172.53 88.9755L88.9752 172.53C91.5048 175.628 94.3401 178.466 97.4366 180.998L180.998 97.437C178.466 94.3403 175.628 91.5052 172.53 88.9755Z" fill="#D0162D"/>
<path fill-rule="evenodd" clip-rule="evenodd" d="M150.02 77.5285L77.5293 150.02C78.6462 154.305 80.2399 158.395 82.2324 162.246L162.246 82.2323C158.395 80.2397 154.305 78.6454 150.02 77.5285Z" fill="#D0162D"/>
<path fill-rule="evenodd" clip-rule="evenodd" d="M134.912 75.611C127.644 75.6217 120.685 76.9424 114.251 79.3421L79.3422 114.251C76.9426 120.684 75.6219 127.643 75.6111 134.911L134.912 75.611Z" fill="#D0162D"/>
<path d="M135 75.7274C139.726 80.4534 189.546 130.274 194.272 135C189.546 139.726 139.726 189.546 135 194.272C130.274 189.546 80.4535 139.726 75.7275 135C80.4535 130.274 130.274 80.4534 135 75.7274Z" fill="white"/>
<path d="M135 80.5454C139.342 84.8873 185.112 130.658 189.454 135C185.112 139.342 139.342 185.112 135 189.454C130.658 185.112 84.8874 139.342 80.5455 135C84.8874 130.658 130.658 84.8873 135 80.5454Z" fill="#FFB607"/>
<path d="M104.736 110.809L92.6305 122.915V147.085C96.7764 151.231 99.2233 153.678 104.736 159.191V110.809Z" fill="#D0162D"/>
<path d="M165.263 110.809V159.191C170.776 153.678 173.223 151.231 177.369 147.085V122.915C173.223 118.769 170.776 116.322 165.263 110.809Z" fill="#D0162D"/>
<path d="M128.947 86.5985L116.842 98.7037V171.296C121.902 176.356 126.164 180.619 128.949 183.404L128.947 86.5985Z" fill="#D0162D"/>
<path d="M141.052 86.5974C141.052 115.869 141.052 154.142 141.052 183.402C143.837 180.618 148.098 176.356 153.157 171.297C153.159 149.312 153.158 120.686 153.157 98.7026C148.098 93.6436 143.837 89.3822 141.052 86.5974Z" fill="#D0162D"/>
<path d="M109.257 111.553V151.058C109.279 154.109 109.305 157.549 112.018 160.196C114.035 162.163 115.985 162.851 119.471 162.824H128.914C130.422 162.824 131.24 162.937 133.356 165.477L135 167.45L136.643 165.477C138.759 162.937 139.577 162.824 141.085 162.824H150.545C154.014 162.851 155.964 162.163 157.981 160.196C160.694 157.549 160.72 154.109 160.742 151.074V111.553H109.257Z" fill="white"/>
<path d="M135 164.107C132.683 161.326 131.327 160.685 128.914 160.685H119.454C116.412 160.709 115.055 160.169 113.512 158.664C111.563 156.763 111.42 154.291 111.396 151.058V113.692H158.603V151.058C158.579 154.291 158.437 156.763 156.487 158.664C154.944 160.169 153.588 160.709 150.545 160.685H141.085C138.672 160.685 137.316 161.326 134.999 164.107H135Z" fill="#D0162D"/>
<path d="M156.364 117.599C155.967 117.419 155.538 117.332 155.108 117.332H155.109C153.469 117.332 151.864 118.596 151.864 121.413V125.389C151.864 126.583 151.816 126.984 151.376 127.613C150.912 128.206 149.978 128.473 148.405 128.473H148.406C146.833 128.473 145.899 128.206 145.434 127.613C144.995 126.984 144.947 126.583 144.947 125.389V121.413C144.947 118.596 143.342 117.332 141.702 117.332H141.703C140.063 117.332 138.458 118.596 138.458 121.413V125.389C138.458 126.583 138.41 126.984 137.97 127.613C137.506 128.206 136.572 128.473 134.999 128.473H135C133.427 128.473 132.493 128.206 132.028 127.613C131.589 126.984 131.541 126.583 131.541 125.389V121.413C131.541 118.596 129.936 117.332 128.296 117.332H128.297C126.657 117.332 125.052 118.596 125.052 121.413V125.389C125.052 126.583 125.003 126.984 124.564 127.613C124.1 128.206 123.166 128.473 121.593 128.473H121.594C120.021 128.473 119.087 128.206 118.622 127.613C118.183 126.984 118.135 126.583 118.135 125.389V121.413C118.135 118.596 116.53 117.332 114.89 117.332H114.891C114.446 117.332 114.003 117.425 113.595 117.617L113.535 117.65C113.535 116.822 113.535 116.198 113.535 115.832H156.464C156.464 116.198 156.464 116.822 156.464 117.65L156.364 117.599Z" fill="white"/>
<path d="M156.307 136.736C155.926 136.573 155.518 136.494 155.108 136.494H155.109C153.469 136.494 151.864 137.759 151.864 140.576V144.551C151.864 145.746 151.816 146.147 151.376 146.775C150.912 147.369 149.978 147.635 148.405 147.635H148.406C146.833 147.635 145.899 147.369 145.434 146.775C144.995 146.147 144.947 145.746 144.947 144.551V140.576C144.947 137.759 143.342 136.494 141.702 136.494H141.703C140.063 136.494 138.458 137.759 138.458 140.576V144.551C138.458 145.746 138.41 146.147 137.97 146.775C137.506 147.369 136.572 147.635 134.999 147.635H135C133.427 147.635 132.493 147.369 132.028 146.775C131.589 146.147 131.541 145.746 131.541 144.551V140.576C131.541 137.759 129.936 136.494 128.296 136.494H128.297C126.657 136.494 125.052 137.759 125.052 140.576V144.551C125.052 145.746 125.003 146.147 124.564 146.775C124.1 147.369 123.166 147.635 121.593 147.635H121.594C120.021 147.635 119.087 147.369 118.622 146.775C118.183 146.147 118.135 145.746 118.135 144.551V140.576C118.135 137.759 116.53 136.494 114.89 136.494H114.891C114.453 136.494 114.018 136.584 113.616 136.77L113.535 136.805C113.535 133.465 113.535 129.951 113.535 126.76L113.598 126.752C113.961 126.707 114.385 126.69 114.891 126.69H114.89C116.29 126.69 117.065 126.815 117.671 127.332C118.133 127.722 118.349 128.456 118.349 129.81V133.75C118.349 136.566 119.954 137.831 121.594 137.831H121.593C123.233 137.831 124.838 136.566 124.838 133.75V129.81C124.838 128.456 125.054 127.722 125.516 127.332C126.122 126.815 126.897 126.69 128.297 126.69H128.296C129.696 126.69 130.471 126.815 131.077 127.332C131.539 127.722 131.755 128.456 131.755 129.81V133.75C131.755 136.566 133.36 137.831 135 137.831H134.999C136.639 137.831 138.244 136.566 138.244 133.75V129.81C138.244 128.456 138.46 127.722 138.921 127.332C139.528 126.815 140.303 126.69 141.703 126.69H141.702C143.101 126.69 143.877 126.815 144.483 127.332C144.945 127.722 145.161 128.456 145.161 129.81V133.75C145.161 136.566 146.766 137.831 148.406 137.831H148.405C150.045 137.831 151.65 136.566 151.65 133.75V129.81C151.65 128.456 151.866 127.722 152.328 127.332C152.934 126.815 153.709 126.69 155.109 126.69H155.108C155.592 126.69 156.002 126.705 156.356 126.746L156.463 126.754C156.463 129.944 156.463 133.457 156.463 136.797L156.307 136.736Z" fill="white"/>
<path d="M156.464 146.019C156.464 149.055 156.464 151.042 156.464 151.042C156.439 154.35 156.559 156.412 155.323 157.619C154.299 158.617 153.242 158.567 150.545 158.545H141.085C138.614 158.545 136.881 159.206 134.999 160.977C133.118 159.206 131.385 158.545 128.914 158.545H119.454C116.757 158.567 115.699 158.617 114.676 157.619C113.44 156.412 113.56 154.35 113.535 151.042C113.535 151.042 113.535 149.013 113.535 145.924L113.606 145.913C113.968 145.869 114.39 145.853 114.891 145.853H114.89C116.29 145.853 117.065 145.977 117.671 146.494C118.133 146.884 118.349 147.618 118.349 148.973V152.912C118.349 155.729 119.954 156.993 121.594 156.993H121.593C123.233 156.993 124.838 155.729 124.838 152.912V148.973C124.838 147.618 125.054 146.884 125.516 146.494C126.122 145.977 126.897 145.853 128.297 145.853H128.296C129.696 145.853 130.471 145.977 131.077 146.494C131.539 146.884 131.755 147.618 131.755 148.973V152.912C131.755 155.729 133.36 156.993 135 156.993H134.999C136.639 156.993 138.244 155.729 138.244 152.912V148.973C138.244 147.618 138.46 146.884 138.921 146.494C139.528 145.977 140.303 145.853 141.703 145.853H141.702C143.101 145.853 143.877 145.977 144.483 146.494C144.945 146.884 145.161 147.618 145.161 148.973V152.912C145.161 155.729 146.766 156.993 148.406 156.993H148.405C150.045 156.993 151.65 155.729 151.65 152.912V148.973C151.65 147.618 151.866 146.884 152.328 146.494C152.934 145.977 153.709 145.853 155.109 145.853H155.108C155.648 145.853 156.095 145.871 156.475 145.924L156.464 146.019Z" fill="white"/>
</g>
<defs>
<clipPath id="clip0_1_442">
<rect width="200" height="200" fill="white" transform="translate(35 35)"/>
</clipPath>
</defs>
</svg>
