<svg width="512" height="503" viewBox="0 0 512 503" fill="none" xmlns="http://www.w3.org/2000/svg">
<path d="M420.951 405.7L456.886 432.648L392.031 453.426L373.222 381.838C373.222 381.838 386.979 383.527 396.523 376.503C406.072 369.489 439.483 343.381 439.483 343.381L420.951 405.7Z" fill="url(#paint0_linear_2004_736)"/>
<path d="M373.219 381.84C373.219 381.84 386.976 383.524 396.525 376.505C406.069 369.486 439.48 343.383 439.48 343.383L420.949 405.702L456.889 432.65L392.029 453.423L373.219 381.84Z" stroke="#79580B" stroke-width="3.9449" stroke-miterlimit="10"/>
<path d="M320.715 383.524L320.437 419.457L369.851 422.542L385.292 397.562C385.292 397.562 385.854 392.788 370.974 388.859C356.094 384.93 320.715 383.524 320.715 383.524Z" fill="#DBDBDB"/>
<path d="M320.715 383.524L320.437 419.457L369.851 422.542L385.292 397.562C385.292 397.562 385.854 392.788 370.974 388.859C356.094 384.93 320.715 383.524 320.715 383.524Z" stroke="#875D00" stroke-width="3.9449" stroke-miterlimit="10"/>
<path d="M83.7265 410.935L47.7915 437.882L112.647 458.66L131.456 387.072C131.456 387.072 117.699 388.761 108.155 381.737C98.6063 374.723 65.195 348.615 65.195 348.615L83.7265 410.935Z" fill="url(#paint1_linear_2004_736)"/>
<path d="M131.459 387.074C131.459 387.074 117.702 388.758 108.153 381.739C98.609 374.72 65.1977 348.618 65.1977 348.618L83.7292 410.937L47.7891 437.884L112.649 458.657L131.459 387.074Z" stroke="#79580B" stroke-width="3.9449" stroke-miterlimit="10"/>
<path d="M183.962 388.758L184.241 424.692L134.827 427.776L119.386 402.796C119.386 402.796 118.824 398.022 133.704 394.093C148.584 390.164 183.962 388.758 183.962 388.758Z" fill="#DBDBDB"/>
<path d="M183.962 388.758L184.241 424.692L134.827 427.776L119.386 402.796C119.386 402.796 118.824 398.022 133.704 394.093C148.584 390.164 183.962 388.758 183.962 388.758Z" stroke="#875D00" stroke-width="3.9449" stroke-miterlimit="10"/>
<path d="M253.105 500.55C236.766 500.769 225.692 499.216 225.692 499.216L225.626 499.207L107.418 474.625L115.741 428.662L117.778 397.062L121.001 401.662L126.467 409.467C127.107 409.625 144.304 413.875 165.066 418.625C186.209 423.463 210.418 428.655 222.095 430.029C245.599 432.797 281.186 430.568 281.229 430.565C316.259 427.072 341.026 419.728 357.45 413.34C365.666 410.145 371.789 407.191 376.102 405.053C378.258 403.985 379.956 403.122 381.288 402.514C381.954 402.21 382.525 401.969 383.069 401.791C383.612 401.614 384.091 401.422 384.945 401.565C386.096 401.756 386.917 402.594 387.362 403.368C387.807 404.142 388.037 404.96 388.21 405.842C388.558 407.604 388.628 409.651 388.604 411.667C388.558 415.395 388.175 418.468 388.113 418.994C388.433 419.69 392.951 429.534 397.209 440.523C399.415 446.214 401.503 452.095 402.812 457.017C403.466 459.477 403.93 461.692 404.103 463.597C404.277 465.502 404.322 467.13 403.32 468.633L403.063 469.019L402.663 469.249C390.955 475.981 370.304 481.517 348.35 486.225C326.396 490.933 303.216 494.718 286.946 497.522C274.607 499.649 262.909 500.418 253.105 500.55Z" fill="#CF9800"/>
<path d="M244.172 496.554C255.153 496.83 270.163 496.412 286.277 493.634C302.579 490.825 325.701 487.047 347.523 482.368C368.986 477.765 389.162 472.193 400.055 466.127C400.097 465.934 400.296 465.295 400.173 463.955C400.033 462.419 399.619 460.363 398.999 458.03C397.758 453.364 395.708 447.567 393.531 441.949C389.177 430.713 384.323 420.181 384.323 420.181L384.089 419.672L384.156 419.114C384.156 419.114 384.612 415.368 384.658 411.619C384.681 409.745 384.589 407.864 384.341 406.603C384.247 406.127 384.136 405.877 384.039 405.645C383.748 405.751 383.415 405.879 382.927 406.102C381.731 406.648 380.028 407.51 377.854 408.588C373.505 410.743 367.244 413.763 358.88 417.016C342.151 423.523 316.992 430.968 281.574 434.495L281.539 434.499L281.503 434.501C281.503 434.501 245.85 436.799 221.634 433.946C209.449 432.513 185.367 427.317 164.185 422.47C143.003 417.623 124.81 413.129 124.81 413.129L124.091 412.952L120.992 408.528L119.662 429.143L111.986 471.545L226.294 495.314C226.375 495.325 233.254 496.28 244.172 496.554Z" fill="white"/>
<path d="M148.992 434.882L156.856 435.284L156.898 436.705L151.917 458.292L165.695 460.048L165.731 461.48L164.129 468.406L142.414 463.395L142.43 461.902L148.992 434.882Z" fill="#A17300"/>
<path d="M178.594 441.272L201.668 444.413L201.689 445.834L200.36 452.56L185.14 449.552L184.275 453.94L198.042 455.237L198.058 456.664L196.816 462.936L183.034 460.217L182.132 464.769L197.553 466.401L197.558 467.812L196.219 474.579L172.924 469.98L172.944 468.523L178.594 441.272Z" fill="#A17300"/>
<path d="M204.551 460.446L204.567 460.364C206.328 452.021 214.26 446.857 223.093 448.721C227.76 449.704 231.411 450.971 233.817 453.85C233.837 454.431 233.837 454.612 233.842 455.302L227.986 459.962C226.302 457.815 224.504 456.409 221.641 455.806C217.51 454.936 213.591 457.696 212.669 462.073L212.653 462.156C211.669 466.816 214.198 470.812 218.741 471.77C220.703 472.187 222.264 472.089 223.572 471.553L224.309 468.072L218.705 466.893L218.741 465.42L219.931 461.085L233.044 462.408L233.059 463.855L230.35 476.698C226.786 478.593 222.207 479.638 216.974 478.531C208.054 476.651 202.723 469.118 204.551 460.446Z" fill="#A17300"/>
<path d="M255.969 469.197L252.709 460.922L249.402 469.197H255.969ZM248.861 451.308H256.68L269.123 479.3L269.139 480.778H260.44L258.354 475.51H247.022L244.931 480.778H236.443L236.449 479.3L248.861 451.308Z" fill="#A17300"/>
<path d="M272.213 451.41L272.208 449.963L279.722 450.463L293.608 464.299L291.666 448.954L291.697 447.507L303.27 475.515L303.296 476.983L296.286 477.868L281.834 463.512L283.812 477.971L283.843 479.439L275.88 480.443L272.213 451.41Z" fill="#A17300"/>
<path d="M327.668 435.564L327.688 437.021L322.229 442.356L316.399 443.221L316.445 441.723L327.668 435.564ZM308.05 446.497L308.039 445.044L332.319 448.34L332.345 449.808L317.001 452.094L317.66 456.517L332.478 459.288L332.499 460.776L318.603 462.841L319.288 467.434L335.821 470.457L335.852 471.94L312.361 475.437L308.05 446.497Z" fill="#A17300"/>
<path d="M342.455 466.763L342.496 465.264C345.875 466.82 352.349 462.473 355.645 461.685C357.798 461.171 358.767 460.172 358.473 458.951L358.453 458.869C358.164 457.648 357.082 457.262 352.957 457.257C346.565 457.319 341.482 456.727 340.096 450.908L340.076 450.83C338.819 445.542 354.528 439.522 361.507 438.703C361.62 439.445 361.563 439.388 361.543 440.083L358.926 446.597C355.877 445.346 352.808 445.089 350.284 445.686C348.373 446.144 347.621 447.138 347.873 448.199L347.894 448.276C348.203 449.579 349.316 449.914 353.513 449.862C360.363 449.734 364.932 450.882 366.199 456.206L366.219 456.289C367.605 462.103 363.835 466.655 356.918 468.303C351.875 469.502 346.74 469.049 342.455 466.763Z" fill="#A17300"/>
<path d="M148.991 433.431L156.897 435.254L151.917 456.841L165.731 460.028L164.129 466.954L142.414 461.944L148.991 433.431Z" fill="#CF9800"/>
<path d="M178.594 439.821L201.689 444.383L200.36 451.108L185.14 448.101L184.275 452.488L198.058 455.213L196.816 461.485L183.034 458.766L182.132 463.318L197.558 466.361L196.219 473.128L172.923 468.529L178.594 439.821Z" fill="#CF9800"/>
<path d="M204.551 458.994L204.567 458.912C206.328 450.57 214.26 445.405 223.093 447.269C228.125 448.33 231.365 450.596 233.842 453.85L227.986 458.51C226.302 456.363 224.504 454.957 221.641 454.355C217.51 453.484 213.59 456.245 212.669 460.622L212.653 460.704C211.669 465.364 214.198 469.36 218.741 470.318C220.703 470.735 222.264 470.637 223.572 470.102L224.309 466.621L218.705 465.442L219.931 459.633L233.059 462.403L230.35 475.246C226.786 477.141 222.207 478.187 216.974 477.079C208.054 475.2 202.723 467.666 204.551 458.994Z" fill="#CF9800"/>
<path d="M255.969 467.746L252.709 459.471L249.402 467.746H255.969ZM248.861 449.857H256.68L269.139 479.327H260.44L258.354 474.059H247.022L244.931 479.327H236.443L248.861 449.857Z" fill="#CF9800"/>
<path d="M272.213 449.959L279.723 449.012L293.608 462.848L291.667 447.503L299.634 446.499L303.296 475.531L296.287 476.417L281.834 462.06L283.843 477.988L275.88 478.992L272.213 449.959Z" fill="#CF9800"/>
<path d="M319.866 434.409L327.69 435.567L322.23 440.902L316.395 441.772L319.866 434.409ZM308.051 445.042L331.331 441.577L332.346 448.359L317.002 450.645L317.656 455.068L331.558 452.998L332.495 459.322L318.599 461.392L319.284 465.98L334.833 463.668L335.853 470.486L312.362 473.988L308.051 445.042Z" fill="#CF9800"/>
<path d="M342.455 465.312L345.597 459.019C348.976 460.579 352.349 461.022 355.645 460.234C357.798 459.719 358.767 458.72 358.473 457.5L358.452 457.418C358.164 456.197 357.082 455.811 352.957 455.806C346.565 455.868 341.482 455.27 340.096 449.457L340.076 449.379C338.819 444.091 342.095 439.271 348.929 437.644C353.771 436.49 357.86 436.892 361.543 438.632L358.926 445.146C355.877 443.895 352.808 443.638 350.284 444.235C348.373 444.693 347.621 445.687 347.873 446.748L347.894 446.825C348.203 448.128 349.315 448.463 353.513 448.411C360.363 448.282 364.932 449.431 366.199 454.755L366.219 454.838C367.605 460.652 363.835 465.204 356.918 466.852C351.875 468.051 346.74 467.598 342.455 465.312Z" fill="#CF9800"/>
<path d="M500.795 5.38715H10.844L253.242 414.675L500.795 5.38715Z" fill="white"/>
<path d="M53.5889 71.6051L17.1079 9.38885H497.773L457.429 71.6051H53.5889ZM252.29 404.999L58.7394 79.3294H452.284L252.29 404.999ZM1.99634 1.99417L251.723 421.524L510.005 1.99417H1.99634Z" fill="#CF9800"/>
<path d="M2.01709 1.99564L3.31501 4.1687H508.635L510.005 1.99564H2.01709Z" fill="#E4C444"/>
<path d="M53.5183 71.5263L54.8214 73.7148H456.03L457.497 71.5418L53.5183 71.5263Z" fill="#E4C444"/>
<path d="M17.1101 9.3888L17.929 10.8101H496.863L497.775 9.3888H17.1101Z" fill="#A17300"/>
<path d="M58.6333 79.1718L59.4522 80.593H451.575L452.481 79.1718H58.6333Z" fill="#3F3400"/>
<path d="M251.724 421.521L251.806 423.453L510.006 5.74039V1.99667L251.724 421.521Z" fill="#3F3400"/>
<path d="M251.804 423.453L2.01499 5.78671L1.99438 1.99667L251.752 421.552" fill="#3F3400"/>
<path d="M57.2839 41.532V41.4445C57.2839 32.5873 64.0568 25.6458 73.2608 25.6458C79.4671 25.6458 83.4639 28.2515 86.1576 31.9385L79.8174 36.846C78.0816 34.7192 76.0832 33.2825 73.1732 33.2825C68.9189 33.2825 65.9265 36.9284 65.9265 41.357V41.4445C65.9265 46.0018 68.9189 49.5601 73.1732 49.5601C76.3459 49.5601 78.2104 48.0873 80.0337 45.8731L86.3739 50.3892C83.5051 54.3388 79.6422 57.2432 72.9569 57.2432C64.2732 57.2432 57.2839 50.6055 57.2839 41.532Z" fill="#CF9800"/>
<path d="M90.0242 26.2524H98.4452V49.2604H113.165V56.6396H90.0242V26.2524Z" fill="#CF9800"/>
<path d="M115.602 43.3117V26.2514H124.11V43.1366C124.11 47.524 126.325 49.6044 129.714 49.6044C133.139 49.6044 135.354 47.6116 135.354 43.3529V26.2514H143.867V43.0955C143.867 52.8589 138.264 57.2 129.626 57.2C121.03 57.2 115.602 52.8177 115.602 43.3117Z" fill="#CF9800"/>
<path d="M163.494 44.2664H157.071V49.8639H163.581C166.188 49.8639 167.619 48.8701 167.619 47.0883V47.0008C167.619 45.3529 166.316 44.2664 163.494 44.2664ZM166.404 35.6307C166.404 33.9365 165.054 33.025 162.582 33.025H157.071V38.3651H162.366C164.926 38.3651 166.404 37.4948 166.404 35.7131V35.6307ZM148.861 26.2534H164.452C168.268 26.2534 170.962 27.2061 172.744 28.9415C173.96 30.2031 174.696 31.8098 174.696 33.8902V33.9777C174.696 37.4948 172.698 39.5804 170.009 40.7493C173.697 41.9646 176.04 44.0501 176.04 48.1749V48.2624C176.04 53.4685 171.786 56.6355 164.534 56.6355H148.861V26.2534Z" fill="#CF9800"/>
<path d="M200.36 33.6748V49.1697H203.79C208.869 49.1697 212.211 46.3941 212.211 41.4866V41.3991C212.211 36.538 208.869 33.6748 203.79 33.6748H200.36ZM191.939 26.2544H203.703C214.514 26.2544 220.807 32.5008 220.807 41.2704V41.3579C220.807 50.1275 214.426 56.6365 203.528 56.6365H191.939V26.2544Z" fill="#CF9800"/>
<path d="M225.199 26.2526H249.643V33.3692H233.532V38.014H248.124V44.6569H233.532V49.4768H249.859V56.6398H225.199V26.2526Z" fill="#CF9800"/>
<path d="M266.667 41.3579C269.618 41.3579 271.487 39.7513 271.487 37.3619V37.2795C271.487 34.6739 269.618 33.3298 266.625 33.3298H262.629V41.3579L266.667 41.3579ZM254.208 26.2544H267.274C274.918 26.2544 279.867 30.2041 279.867 36.8882V36.9757C279.867 44.1798 274.351 47.9544 266.842 47.9544H262.629V56.6365H254.208V26.2544Z" fill="#CF9800"/>
<path d="M306.526 41.532V41.4445C306.526 37.0159 303.4 33.2413 298.754 33.2413C294.108 33.2413 291.028 36.9747 291.028 41.357V41.4445C291.028 45.8319 294.196 49.6476 298.842 49.6476C303.441 49.6476 306.526 45.9143 306.526 41.532ZM282.432 41.532V41.4445C282.432 32.7212 289.463 25.6458 298.842 25.6458C308.221 25.6458 315.164 32.6337 315.164 41.357V41.4445C315.164 50.1677 308.133 57.2432 298.754 57.2432C289.375 57.2432 282.432 50.2553 282.432 41.532Z" fill="#CF9800"/>
<path d="M333.537 40.8374C336.359 40.8374 338.054 39.4471 338.054 37.2328V37.1504C338.054 34.7198 336.271 33.4994 333.49 33.4994H327.938V40.8375L333.537 40.8374ZM319.512 26.2541H333.882C338.527 26.2541 341.741 27.4693 343.781 29.5085C345.563 31.2903 346.475 33.5869 346.475 36.5839V36.6715C346.475 41.3575 343.997 44.4421 340.222 46.0487L347.474 56.6361H337.791L331.667 47.4339H327.938V56.6361H319.512V26.2541Z" fill="#CF9800"/>
<path d="M358.158 33.6317H349.083V26.2524H375.701V33.6317H366.58V56.6396H358.158V33.6317Z" fill="#CF9800"/>
<path d="M379.607 26.2514H388.028V56.6387H379.607V26.2514Z" fill="#CF9800"/>
<path d="M391.205 26.2524H400.584L407.485 45.4806L414.433 26.2524H423.637L411.307 56.8558H403.489L391.205 26.2524Z" fill="#CF9800"/>
<path d="M447.737 41.532V41.4445C447.737 37.0159 444.611 33.2413 439.965 33.2413C435.319 33.2413 432.239 36.9747 432.239 41.357V41.4445C432.239 45.8319 435.407 49.6476 440.053 49.6476C444.652 49.6476 447.737 45.9143 447.737 41.532ZM423.643 41.532V41.4445C423.643 32.7212 430.674 25.6458 440.053 25.6458C449.432 25.6458 456.375 32.6337 456.375 41.357V41.4445C456.375 50.1677 449.344 57.2432 439.965 57.2432C430.586 57.2432 423.643 50.2553 423.643 41.532Z" fill="#CF9800"/>
<path d="M124.438 132.364V132.235C124.438 118.928 134.616 108.49 148.445 108.49C157.777 108.49 163.778 112.404 167.821 117.95L158.298 125.319C155.686 122.121 152.689 119.969 148.316 119.969C141.924 119.969 137.423 125.453 137.423 132.101V132.235C137.423 139.084 141.924 144.429 148.316 144.429C153.08 144.429 155.882 142.215 158.622 138.888L168.15 145.67C163.84 151.607 158.035 155.974 147.991 155.974C134.94 155.974 124.438 145.994 124.438 132.364Z" fill="#CF9800"/>
<path d="M352.977 120.558V143.844H358.133C365.766 143.844 370.787 139.668 370.787 132.299V132.17C370.787 124.863 365.766 120.558 358.133 120.558H352.977ZM340.322 109.405H357.999C374.243 109.405 383.705 118.797 383.705 131.975V132.104C383.705 145.281 374.115 155.065 357.741 155.065H340.322V109.405Z" fill="#CF9800"/>
<path d="M237.479 330.924H248.697V361.569H268.304V371.399H237.479V330.924Z" fill="#CF9800"/>
<path d="M234.084 104.681V107.626L236.077 107.667L234.084 104.681Z" fill="#E4C444"/>
<path d="M273.966 104.681V107.626L271.972 107.668L273.966 104.681Z" fill="#E4C444"/>
<path d="M326.227 111.299C326.227 111.299 322.688 106.418 320.819 106.109C318.949 105.8 317.239 106.263 316.925 107.355C316.616 108.441 314.432 112.026 314.432 112.026C314.432 112.026 312.877 109.847 311.007 109.847C309.143 109.847 305.712 114.204 306.027 121.053C306.336 127.907 306.65 129.307 306.65 129.307L295.906 129.93C295.906 129.93 292.321 122.453 291.234 118.565C290.142 114.672 289.365 112.026 289.365 112.026C289.365 112.026 282.515 121.212 269.587 121.212C256.664 121.212 258.843 113.272 259.626 112.649C260.404 112.026 271.771 108.441 273.481 106.418C275.196 104.394 272.08 100.346 269.747 98.7913C267.408 97.2362 260.558 91.4739 260.558 91.4739H257.442V88.6725L260.543 87.5809L260.558 84.934L256.978 85.5571L256.819 82.9823C256.819 82.9823 255.948 82.3644 254.331 82.2305V82.2048C254.218 82.2048 254.12 82.215 254.017 82.215C253.914 82.215 253.816 82.2048 253.708 82.2048V82.2305C252.085 82.3644 251.215 82.9823 251.215 82.9823L251.06 85.5571L247.476 84.934L247.502 87.6015L250.592 88.6725V91.4739H247.476C247.476 91.4739 240.626 97.2362 238.292 98.7913C235.954 100.346 232.838 104.394 234.553 106.418C236.268 108.441 247.635 112.026 248.413 112.649C249.191 113.272 251.37 121.212 238.447 121.212C225.524 121.212 218.669 112.026 218.669 112.026C218.669 112.026 217.891 114.672 216.805 118.565C215.713 122.453 212.133 129.93 212.133 129.93L201.384 129.307C201.384 129.307 201.698 127.907 202.007 121.053C202.321 114.204 198.896 109.847 197.027 109.847C195.157 109.847 193.602 112.026 193.602 112.026C193.602 112.026 191.423 108.441 191.109 107.355C190.8 106.263 189.085 105.8 187.215 106.109C185.345 106.418 181.797 111.248 181.797 111.248L210.572 164.18L254.017 160.467L297.461 164.18L326.227 111.299Z" fill="#E4C444"/>
<path d="M295.904 129.928V132.56L306.648 131.937V129.305L295.904 129.928Z" fill="#79580B"/>
<path d="M201.386 129.306V131.937L212.13 132.56V129.929L201.386 129.306Z" fill="#79580B"/>
<path d="M326.268 111.229C326.268 111.229 322.689 109.051 320.819 108.737C318.95 108.428 317.24 108.891 316.925 109.983C316.616 111.075 314.433 114.654 314.433 114.654C314.433 114.654 312.877 112.475 311.008 112.475C309.138 112.475 305.713 116.832 306.027 123.686C306.336 130.535 306.65 131.935 306.65 131.935L295.906 132.559C295.906 132.559 292.322 125.087 291.235 121.194C290.143 117.301 289.365 114.654 289.365 114.654C289.365 114.654 282.515 123.84 269.587 123.84C256.665 123.84 258.843 115.9 259.621 115.277C260.404 114.654 271.771 111.075 273.481 109.051C275.196 107.027 272.08 102.98 269.742 101.419C267.409 99.8643 260.558 94.1021 260.558 94.1021H257.442V91.3007L260.244 90.3687L260.558 87.5673L256.974 88.1904L256.819 84.2974C256.819 84.2974 255.949 83.6795 254.326 83.5456V83.5198C254.218 83.5198 254.12 83.5301 254.017 83.5301C253.914 83.5301 253.816 83.5198 253.708 83.5198V83.5456C252.086 83.6795 251.215 84.2974 251.215 84.2974L251.061 88.1904L247.476 87.5673L247.79 90.3687L250.592 91.3007V94.1021H247.476C247.476 94.1021 240.626 99.8643 238.288 101.419C235.954 102.98 232.838 107.027 234.554 109.051C236.263 111.075 247.631 114.654 248.414 115.277C249.191 115.9 251.37 123.84 238.447 123.84C225.52 123.84 218.669 114.654 218.669 114.654C218.669 114.654 217.892 117.301 216.8 121.194C215.713 125.087 212.128 132.559 212.128 132.559L201.384 131.935C201.384 131.935 201.699 130.535 202.008 123.686C202.322 116.832 198.897 112.475 197.027 112.475C195.157 112.475 193.602 114.654 193.602 114.654C193.602 114.654 191.418 111.075 191.109 109.983C190.795 108.891 189.085 108.428 187.215 108.737C185.346 109.051 181.766 111.229 181.766 111.229L210.573 166.808L254.017 163.1L297.462 166.808L326.268 111.229Z" fill="#CF9800"/>
<path d="M210.573 166.808L254.018 163.101L297.462 166.808L298.374 165.052C285.307 156.885 269.887 152.148 253.369 152.148C237.269 152.148 222.198 156.638 209.343 164.435L210.573 166.808Z" fill="#79580B"/>
<path d="M244.898 105.936C244.898 102.883 248.828 100.406 253.67 100.406C258.516 100.406 262.441 102.883 262.441 105.936C262.441 108.99 258.516 111.467 253.67 111.467C248.828 111.467 244.898 108.99 244.898 105.936Z" fill="#79580B"/>
<path d="M253.371 166.107C212.934 166.107 180.033 198.997 180.033 239.431C180.033 279.86 212.934 312.755 253.371 312.755C293.808 312.755 326.709 279.86 326.709 239.431C326.709 198.997 293.808 166.107 253.371 166.107ZM253.371 324.578C206.414 324.578 168.208 286.379 168.208 239.431C168.208 192.478 206.414 154.279 253.371 154.279C300.333 154.279 338.534 192.478 338.534 239.431C338.534 286.379 300.333 324.578 253.371 324.578Z" fill="#E4C444"/>
<path d="M253.371 170.095C212.934 170.095 180.033 202.985 180.033 243.419C180.033 283.847 212.934 316.742 253.371 316.742C293.808 316.742 326.709 283.847 326.709 243.419C326.709 202.985 293.808 170.095 253.371 170.095ZM253.371 328.566C206.414 328.566 168.208 290.367 168.208 243.419C168.208 196.466 206.414 158.266 253.371 158.266C300.333 158.266 338.534 196.466 338.534 243.419C338.534 290.367 300.333 328.566 253.371 328.566Z" fill="#79580B"/>
<path d="M239.572 321.119L206.057 308.508V174.291L239.572 162.787V321.119Z" fill="#0B1F6F"/>
<path d="M300.683 306.104L267.169 321.12V162.788L300.683 174.05V306.104Z" fill="#0B1F6F"/>
<path d="M300.866 306.343H297.343V183.193H300.866V306.343Z" fill="#07174C"/>
<path d="M209.171 306.343H205.437V183.193H209.171V306.343Z" fill="#07174C"/>
<path d="M239.318 319.232H236.104V168.609H239.318V319.232Z" fill="#205F9B"/>
<path d="M270.416 319.232H267.305V168.578H270.416V319.232Z" fill="#205F9B"/>
<path d="M253.371 168.124C212.934 168.124 180.033 201.014 180.033 241.448C180.033 281.877 212.934 314.772 253.371 314.772C293.808 314.772 326.709 281.877 326.709 241.448C326.709 201.014 293.808 168.124 253.371 168.124ZM253.371 326.595C206.414 326.595 168.208 288.396 168.208 241.448C168.208 194.495 206.414 156.296 253.371 156.296C300.333 156.296 338.534 194.495 338.534 241.448C338.534 288.396 300.333 326.595 253.371 326.595Z" fill="#CF9800"/>
<path d="M190.672 106.706V109.347C190.672 109.347 191.048 110.032 191.496 110.928C191.945 111.829 193.603 114.656 193.603 114.656V112.025L191.311 107.792C191.311 107.792 190.884 106.752 190.672 106.706Z" fill="#A17300"/>
<path d="M317.349 106.706V109.347C317.349 109.347 316.973 110.032 316.525 110.928C316.077 111.829 314.419 114.656 314.419 114.656V112.025L316.711 107.792C316.711 107.792 317.138 106.752 317.349 106.706Z" fill="#A17300"/>
<path d="M244.898 104.266C244.898 101.212 248.828 98.7351 253.67 98.7351C258.516 98.7351 262.441 101.212 262.441 104.266C262.441 107.319 258.516 109.796 253.67 109.796C248.828 109.796 244.898 107.319 244.898 104.266Z" fill="#E94F2B"/>
<path d="M218.671 112.025V114.656C218.671 114.656 215.987 124.58 214.231 128.406C212.495 132.191 212.129 132.556 212.129 132.556V129.93C212.129 129.93 214.184 126.897 218.671 112.025Z" fill="#A17300"/>
<path d="M289.374 112.025V114.656C289.374 114.656 292.057 124.58 293.813 128.406C295.549 132.191 295.915 132.556 295.915 132.556V129.93C295.915 129.93 293.86 126.897 289.374 112.025Z" fill="#A17300"/>
<path d="M244.898 105.168C244.898 102.217 248.828 99.8277 253.67 99.8277C258.516 99.8277 262.441 102.217 262.441 105.168C262.441 108.118 258.516 110.513 253.67 110.513C248.828 110.513 244.898 108.118 244.898 105.168Z" fill="#F50605"/>
<path d="M250.27 136.196C250.27 134.399 251.727 132.936 253.53 132.936C255.328 132.936 256.79 134.399 256.79 136.196C256.79 137.993 255.328 139.455 253.53 139.455C251.727 139.455 250.27 137.993 250.27 136.196Z" fill="#79580B"/>
<path d="M230.74 139.607L241.133 136.641C241.952 136.409 242.807 136.883 243.039 137.701L243.678 139.931C243.909 140.75 243.436 141.605 242.617 141.837L232.223 144.803C231.404 145.034 230.549 144.561 230.317 143.742L229.679 141.512C229.447 140.693 229.921 139.839 230.74 139.607Z" fill="#79580B"/>
<path d="M209.904 151.083L215.121 143.101L224.995 143.575L219.247 151.454L209.904 151.083Z" fill="#79580B"/>
<path d="M276.49 139.573L266.096 136.607C265.277 136.375 264.422 136.849 264.19 137.667L263.551 139.897C263.32 140.716 263.794 141.571 264.612 141.802L275.006 144.769C275.825 145 276.68 144.527 276.912 143.708L277.551 141.478C277.782 140.659 277.308 139.804 276.49 139.573Z" fill="#79580B"/>
<path d="M250.27 134.753C250.27 132.956 251.727 131.494 253.53 131.494C255.328 131.494 256.79 132.956 256.79 134.753C256.79 136.551 255.328 138.013 253.53 138.013C251.727 138.013 250.27 136.551 250.27 134.753Z" fill="#E4C444"/>
<path d="M230.252 137.977L240.646 135.011C241.465 134.78 242.32 135.253 242.552 136.072L243.19 138.302C243.422 139.121 242.948 139.975 242.129 140.207L231.736 143.173C230.917 143.405 230.062 142.931 229.83 142.112L229.191 139.883C228.96 139.064 229.433 138.209 230.252 137.977Z" fill="#E4C444"/>
<path d="M208.677 149.436L214.796 141.135L224.67 141.609L218.551 149.91L208.677 149.436Z" fill="#E4C444"/>
<path d="M276.937 137.961L266.543 134.995C265.724 134.764 264.869 135.237 264.638 136.056L263.999 138.286C263.767 139.105 264.241 139.959 265.06 140.191L275.454 143.157C276.273 143.389 277.128 142.915 277.359 142.096L277.998 139.867C278.23 139.048 277.756 138.193 276.937 137.961Z" fill="#E4C444"/>
<path d="M208.677 149.436L209.002 150.26L209.759 149.524L209.615 149.194L208.677 149.436Z" fill="#E4C444"/>
<path d="M224.671 141.606L224.995 142.43L224.073 142.626L223.723 142.214L224.671 141.606Z" fill="#E4C444"/>
<path d="M209.924 151.083L209.002 150.259L224.995 142.427V143.575L209.924 151.083Z" fill="#79580B"/>
<path d="M250.27 135.517C250.27 133.72 251.727 132.257 253.53 132.257C255.328 132.257 256.79 133.72 256.79 135.517C256.79 137.314 255.328 138.776 253.53 138.776C251.727 138.776 250.27 137.314 250.27 135.517Z" fill="#0B1F6F"/>
<path d="M230.48 138.785L240.873 135.819C241.692 135.587 242.547 136.061 242.779 136.88L243.418 139.109C243.649 139.928 243.176 140.783 242.357 141.015L231.963 143.981C231.144 144.212 230.289 143.739 230.057 142.92L229.419 140.69C229.187 139.871 229.661 139.017 230.48 138.785Z" fill="#449001"/>
<path d="M209.002 150.258L215.121 141.957L224.995 142.431L218.876 150.732L209.002 150.258Z" fill="#F50605"/>
<path d="M297.037 151.083L291.82 143.101L281.947 143.575L287.694 151.454L297.037 151.083Z" fill="#79580B"/>
<path d="M298.264 149.436L292.145 141.135L282.271 141.609L288.39 149.91L298.264 149.436Z" fill="#E4C444"/>
<path d="M298.264 149.436L297.939 150.26L297.182 149.524L297.326 149.194L298.264 149.436Z" fill="#E4C444"/>
<path d="M282.271 141.606L281.947 142.43L282.868 142.626L283.219 142.214L282.271 141.606Z" fill="#E4C444"/>
<path d="M297.017 151.083L297.939 150.259L281.947 142.427V143.575L297.017 151.083Z" fill="#79580B"/>
<path d="M297.939 150.258L291.82 141.957L281.947 142.431L288.065 150.732L297.939 150.258Z" fill="#F50605"/>
<path d="M276.705 138.785L266.312 135.819C265.493 135.587 264.638 136.061 264.406 136.88L263.767 139.109C263.536 139.928 264.009 140.783 264.828 141.015L275.222 143.981C276.041 144.212 276.896 143.739 277.128 142.92L277.766 140.69C277.998 139.871 277.524 139.017 276.705 138.785Z" fill="#449001"/>
<path d="M258.931 94.1063H257.442V91.4749H258.931V94.1063Z" fill="#A17300"/>
<path d="M250.592 91.4748H249.031V94.1062H250.592V91.4748Z" fill="#A17300"/>
<path d="M281.656 431.781L285.925 428.29C285.925 428.29 174.108 397.62 122.083 322.318C70.0577 247.012 87.5282 210.909 87.5282 210.909C87.5282 210.909 82.8721 260.983 99.9563 292.817C117.035 324.646 130.2 350.883 184.203 385.977C238.561 421.302 281.656 431.781 281.656 431.781Z" fill="#3F3400"/>
<path d="M282.477 431.124L286.747 427.633C286.747 427.633 174.93 396.962 122.904 321.661C70.8792 246.355 88.3497 210.252 88.3497 210.252C88.3497 210.252 83.6937 260.326 100.778 292.16C117.857 323.989 131.022 350.226 185.025 385.319C239.383 420.645 282.477 431.124 282.477 431.124Z" fill="#E4C444"/>
<path d="M282.106 431.446L286.376 427.954C286.376 427.954 174.559 397.284 122.533 321.983C70.5082 246.676 87.9839 210.573 87.9839 210.573C87.9839 210.573 83.3227 260.647 100.407 292.481C117.486 324.31 130.651 350.547 184.654 385.641C239.012 420.966 282.106 431.446 282.106 431.446Z" fill="#CF9800"/>
<path d="M80.1254 217.754C80.1254 217.754 73.7748 196.95 72.4614 182.933C71.1429 168.916 72.8992 161.907 82.7521 149.209C92.6102 136.505 107.068 124.46 107.068 124.46C107.068 124.46 115.607 150.743 107.505 168.7C99.3985 186.656 80.1254 217.754 80.1254 217.754Z" fill="#00AA30"/>
<path d="M81.4397 149.211C71.5816 161.91 69.8305 168.918 71.1438 182.935C72.4572 196.952 78.8078 217.756 78.8078 217.756C78.8078 217.756 98.0809 186.658 106.193 168.697C114.295 150.741 107.038 124.494 107.038 124.494C107.038 124.494 91.2977 136.507 81.4397 149.211Z" fill="url(#paint2_linear_2004_736)"/>
<path d="M89.3621 249.639C89.3621 249.639 60.3854 238.496 55.1319 224.963C49.8784 211.435 49.0801 187.717 49.0801 187.717C49.0801 187.717 78.0568 201.564 86.0194 217.8C93.977 234.042 89.3621 249.639 89.3621 249.639Z" fill="#00AA30"/>
<path d="M54.0133 225.285C59.2719 238.813 88.2486 249.961 88.2486 249.961C88.2486 249.961 92.8634 234.358 84.9059 218.122C76.9433 201.88 49.0842 187.781 49.0842 187.781C49.0842 187.781 48.7598 211.752 54.0133 225.285Z" fill="url(#paint3_linear_2004_736)"/>
<path d="M98.5965 281.318C98.5965 281.318 84.4275 246.136 74.075 238.021C63.7277 229.9 43.8262 225.6 43.8262 225.6C43.8262 225.6 50.1922 254.89 60.5447 264.283C70.892 273.676 98.5965 281.318 98.5965 281.318Z" fill="#00AA30"/>
<path d="M43.8513 225.594C43.8513 225.594 50.1967 256.007 60.5441 265.399C70.8914 274.792 98.5959 282.429 98.5959 282.429C98.5959 282.429 84.4269 247.253 74.0744 239.132C63.7322 231.016 43.8513 225.594 43.8513 225.594Z" fill="url(#paint4_linear_2004_736)"/>
<path d="M111.811 304.4C111.811 304.4 99.0741 284.502 84.4261 274.95C69.7781 265.397 44.7827 265.078 44.7827 265.078C44.7827 265.078 57.6796 293.735 73.9191 298.988C90.1586 304.24 111.811 304.4 111.811 304.4Z" fill="#00AA30"/>
<path d="M44.7991 265.111C44.7991 265.111 57.6753 294.849 73.92 300.102C90.1543 305.354 111.807 305.514 111.807 305.514C111.807 305.514 99.075 285.616 84.427 276.069C69.779 266.517 44.7991 265.111 44.7991 265.111Z" fill="url(#paint5_linear_2004_736)"/>
<path d="M128.852 330.573C128.852 330.573 109.821 313.966 100.586 309.831C91.3514 305.691 84.5064 303.621 76.2244 303.94C67.9476 304.259 56.0242 304.743 56.0242 304.743C56.0242 304.743 74.9522 329.409 89.2809 332.751C103.61 336.093 128.852 330.573 128.852 330.573Z" fill="#0B3D00"/>
<path d="M128.627 330.125C128.627 330.125 110.384 311.72 101.15 307.585C91.9147 303.445 85.0697 301.375 76.7877 301.694C68.5109 302.013 56.5669 304.238 56.5669 304.238C56.5669 304.238 75.5156 327.164 89.8442 330.506C104.173 333.848 128.627 330.125 128.627 330.125Z" fill="#00AA30"/>
<path d="M71.7361 337.976C71.7361 337.976 93.0128 354.718 103.01 359.481C113.012 364.249 149.864 354.367 149.864 354.367C149.632 354.022 122.314 335.299 107.893 333.208C105.987 332.935 103.947 332.812 101.851 332.812C88.1044 332.812 71.7361 337.976 71.7361 337.976Z" fill="url(#paint6_linear_2004_736)"/>
<path d="M163.205 365.144C163.205 365.144 143.943 378.306 130.103 381.674C116.269 385.047 83.9805 374.078 83.9805 374.078C83.9805 374.078 105.803 356.101 118.942 354.824C132.081 353.547 163.205 365.144 163.205 365.144Z" fill="#00AA30"/>
<path d="M163.331 365.144C163.331 365.144 143.939 380.932 130.105 384.305C116.271 387.678 83.9773 374.047 83.9773 374.047C83.9773 374.047 105.805 358.733 118.944 357.456C132.083 356.173 163.331 365.144 163.331 365.144Z" fill="#0B3D00"/>
<path d="M119.522 355.943C106.384 357.22 83.948 374.08 83.948 374.08C83.948 374.08 116.855 386.166 130.684 382.798C144.523 379.42 163.353 365.125 163.353 365.125C163.353 365.125 136.097 355.83 121.959 355.83C121.099 355.83 120.285 355.871 119.522 355.943Z" fill="url(#paint7_linear_2004_736)"/>
<path d="M195.468 385.295C195.468 385.295 180.099 378.05 157.648 374.97C135.197 371.891 110.469 391.13 110.469 391.13C110.469 391.13 133.584 404.091 157.797 405.389C182.009 406.681 198.692 384.461 198.692 384.461L195.468 385.295Z" fill="#00AA30"/>
<path d="M196.232 386.717C196.232 386.717 180.863 379.472 158.412 376.392C135.961 373.313 110.549 391.156 110.549 391.156C110.549 391.156 134.349 405.513 158.562 406.81C182.774 408.103 199.457 385.883 199.457 385.883L196.232 386.717Z" fill="#0B3D00"/>
<path d="M110.478 391.186C110.478 391.186 134.274 404.472 158.481 405.77C182.693 407.062 199.376 384.842 199.376 384.842L196.157 385.676C196.157 385.676 180.783 378.431 158.337 375.352C156.642 375.12 154.937 375.017 153.227 375.017C132.203 375.011 110.478 391.186 110.478 391.186Z" fill="url(#paint8_linear_2004_736)"/>
<path d="M212.636 401.247C212.636 401.247 197.957 412.581 187.213 412.236C176.469 411.891 161.857 405.995 159.936 404.903C158.813 404.27 158.035 403.523 158.035 403.523C158.035 403.523 171.025 394.274 183.026 394.388C195.031 394.501 212.636 401.247 212.636 401.247Z" fill="#0B3D00"/>
<path d="M212.033 400.964C212.033 400.964 197.859 409.574 187.115 409.229C176.371 408.884 160.508 404.506 158.664 403.878C157.994 403.646 158.823 402.956 158.823 402.956C158.823 402.956 170.948 392.941 182.954 393.054C194.959 393.167 212.033 400.964 212.033 400.964Z" fill="#00AA30"/>
<path d="M94.5679 271.243C94.5679 271.243 112.105 236.808 112.105 216.88C112.105 196.951 97.8643 173.737 97.8643 173.737C97.8643 173.737 83.412 195.195 78.8126 215.783C74.208 236.365 92.5953 267.299 94.5679 271.243Z" fill="#00AA30"/>
<path d="M80.1262 215.779C75.5268 236.367 92.5956 267.47 94.5682 271.414C94.5682 271.414 113.419 236.809 113.419 216.881C113.419 196.952 97.9109 173.785 97.9109 173.785C97.9109 173.785 84.7256 195.196 80.1262 215.779Z" fill="url(#paint9_linear_2004_736)"/>
<path d="M128.212 329.123C128.212 329.123 134.016 299.137 133.357 280.743C132.698 262.349 125.693 252.272 120.651 246.582C115.614 240.886 109.902 233.023 109.902 233.023C109.902 233.023 92.8331 271.984 100.281 291.037C107.728 310.09 128.212 329.123 128.212 329.123Z" fill="#00AA30"/>
<path d="M101.599 291.034C109.046 310.087 128.793 330.546 128.793 330.546C128.793 330.546 135.329 299.139 134.67 280.745C134.016 262.351 127.006 252.273 121.969 246.583C116.932 240.888 109.922 233.004 109.922 233.004C109.922 233.004 94.1461 271.986 101.599 291.034Z" fill="url(#paint10_linear_2004_736)"/>
<path d="M148.074 351.637C148.074 351.637 156.403 329.17 155.254 313.726C154.105 298.288 152.462 290.404 146.874 281.207C141.291 272.01 141.456 271.372 141.456 271.372C141.456 271.372 130.284 292.541 129.131 308.474C127.982 324.407 139.37 339.484 148.074 351.637Z" fill="#00AA30"/>
<path d="M130.446 308.47C129.298 324.407 139.367 339.588 148.076 351.741C148.076 351.741 157.718 329.171 156.569 313.727C155.421 298.289 153.773 290.405 148.19 281.208C142.606 272.011 141.453 271.352 141.453 271.352C141.453 271.352 131.6 292.542 130.446 308.47Z" fill="url(#paint11_linear_2004_736)"/>
<path d="M168.354 369.191C168.354 369.191 177.249 343.211 177.074 329.782C176.899 316.357 169.925 305.723 165.913 300.141C161.9 294.564 160.159 292.468 160.159 292.468C160.159 292.468 147.077 316.357 149.694 334.318C152.31 352.28 168.354 369.191 168.354 369.191Z" fill="#00AA30"/>
<path d="M151.007 335.628C153.624 353.595 169.668 370.506 169.668 370.506C169.668 370.506 178.563 344.521 178.387 331.097C178.218 317.672 171.239 307.033 167.226 301.456C163.214 295.874 160.16 292.522 160.16 292.522C160.16 292.522 148.391 317.672 151.007 335.628Z" fill="url(#paint12_linear_2004_736)"/>
<path d="M179.937 319.949C179.937 319.949 173.108 344.229 174.38 355.347C175.652 366.459 195.729 385.379 195.729 385.379C195.729 385.379 202.651 367.412 202.017 355.027C201.379 342.643 192.324 329.002 179.937 319.949Z" fill="#00AA30"/>
<path d="M175.312 355.042C176.59 366.16 195.646 385.373 195.646 385.373C195.646 385.373 203.583 367.112 202.95 354.723C202.316 342.343 192.314 329.001 179.922 319.953C179.922 319.953 174.045 343.924 175.312 355.042Z" fill="url(#paint13_linear_2004_736)"/>
<path d="M212.595 401.326C212.595 401.326 213.662 374.121 209.469 366.252C205.271 358.389 194.785 349.826 194.785 349.826C194.785 349.826 186.39 371.15 192.859 382.509C199.328 393.869 212.595 401.326 212.595 401.326Z" fill="#0B3D00"/>
<path d="M211.22 399.085C211.22 399.085 212.27 371.818 208.073 363.95C203.875 356.087 193.389 347.523 193.389 347.523C193.389 347.523 184.993 368.847 191.462 380.207C197.932 391.567 211.22 399.085 211.22 399.085Z" fill="#00AA30"/>
<path d="M191.872 381.526C198.346 392.886 212.474 400.975 212.474 400.975C212.474 400.975 212.674 373.132 208.482 365.269C204.284 357.4 193.798 348.837 193.798 348.837C193.798 348.837 185.408 370.161 191.872 381.526Z" fill="url(#paint14_linear_2004_736)"/>
<path d="M182.729 394.008C170.785 394.008 158.012 403.504 158.012 403.504C158.012 403.504 157.992 403.504 159.851 404.524C161.556 405.461 176.425 411.156 187.174 411.496C197.923 411.841 212.577 401.161 212.577 401.161C212.577 401.161 194.952 394.122 182.946 394.008C182.874 394.008 182.802 394.008 182.729 394.008Z" fill="url(#paint15_linear_2004_736)"/>
<path d="M76.1554 302.172C67.8734 302.486 56.5886 304.242 56.5886 304.242C56.5886 304.242 74.878 327.641 89.2067 330.983C103.541 334.325 128.768 330.463 128.768 330.463C128.768 330.463 109.747 312.198 100.512 308.058C91.8953 304.196 85.3593 302.141 77.7984 302.141C77.2576 302.141 76.7116 302.151 76.1554 302.172Z" fill="url(#paint16_linear_2004_736)"/>
<path d="M223.399 431.781L219.129 428.29C219.129 428.29 330.946 397.62 382.971 322.318C434.997 247.012 417.526 210.909 417.526 210.909C417.526 210.909 422.182 260.983 405.098 292.817C388.019 324.646 374.854 350.883 320.851 385.977C266.493 421.302 223.399 431.781 223.399 431.781Z" fill="#3F3400"/>
<path d="M222.577 431.124L218.307 427.633C218.307 427.633 330.125 396.962 382.15 321.661C434.175 246.355 416.704 210.252 416.704 210.252C416.704 210.252 421.361 260.326 404.276 292.16C387.197 323.989 374.033 350.226 320.03 385.319C265.671 420.645 222.577 431.124 222.577 431.124Z" fill="#E4C444"/>
<path d="M222.948 431.446L218.678 427.954C218.678 427.954 330.495 397.284 382.521 321.983C434.546 246.676 417.07 210.573 417.07 210.573C417.07 210.573 421.731 260.647 404.647 292.481C387.568 324.31 374.403 350.547 320.4 385.641C266.042 420.966 222.948 431.446 222.948 431.446Z" fill="#CF9800"/>
<path d="M424.929 217.754C424.929 217.754 431.279 196.95 432.593 182.933C433.911 168.916 432.155 161.907 422.302 149.209C412.444 136.505 397.987 124.46 397.987 124.46C397.987 124.46 389.447 150.743 397.549 168.7C405.656 186.656 424.929 217.754 424.929 217.754Z" fill="#00AA30"/>
<path d="M423.615 149.211C433.473 161.91 435.224 168.918 433.91 182.935C432.597 196.952 426.246 217.756 426.246 217.756C426.246 217.756 406.973 186.658 398.861 168.697C390.76 150.741 398.017 124.494 398.017 124.494C398.017 124.494 413.756 136.507 423.615 149.211Z" fill="url(#paint17_linear_2004_736)"/>
<path d="M415.692 249.639C415.692 249.639 444.669 238.496 449.922 224.963C455.176 211.435 455.974 187.717 455.974 187.717C455.974 187.717 426.997 201.564 419.035 217.8C411.077 234.042 415.692 249.639 415.692 249.639Z" fill="#00AA30"/>
<path d="M451.041 225.285C445.782 238.813 416.806 249.961 416.806 249.961C416.806 249.961 412.191 234.358 420.148 218.122C428.111 201.88 455.97 187.781 455.97 187.781C455.97 187.781 456.294 211.752 451.041 225.285Z" fill="url(#paint18_linear_2004_736)"/>
<path d="M406.458 281.318C406.458 281.318 420.627 246.136 430.979 238.021C441.327 229.9 461.228 225.6 461.228 225.6C461.228 225.6 454.862 254.89 444.51 264.283C434.162 273.676 406.458 281.318 406.458 281.318Z" fill="#00AA30"/>
<path d="M461.203 225.594C461.203 225.594 454.857 256.007 444.51 265.399C434.163 274.792 406.458 282.429 406.458 282.429C406.458 282.429 420.627 247.253 430.98 239.132C441.322 231.016 461.203 225.594 461.203 225.594Z" fill="url(#paint19_linear_2004_736)"/>
<path d="M393.242 304.4C393.242 304.4 405.98 284.502 420.628 274.95C435.276 265.397 460.271 265.078 460.271 265.078C460.271 265.078 447.374 293.735 431.135 298.988C414.895 304.24 393.242 304.4 393.242 304.4Z" fill="#00AA30"/>
<path d="M460.255 265.111C460.255 265.111 447.379 294.849 431.134 300.102C414.9 305.354 393.247 305.514 393.247 305.514C393.247 305.514 405.979 285.616 420.627 276.069C435.275 266.517 460.255 265.111 460.255 265.111Z" fill="url(#paint20_linear_2004_736)"/>
<path d="M376.202 330.573C376.202 330.573 395.233 313.966 404.468 309.831C413.703 305.691 420.548 303.621 428.83 303.94C437.107 304.259 449.03 304.743 449.03 304.743C449.03 304.743 430.102 329.409 415.773 332.751C401.445 336.093 376.202 330.573 376.202 330.573Z" fill="#0B3D00"/>
<path d="M376.426 330.125C376.426 330.125 394.669 311.72 403.904 307.585C413.139 303.445 419.984 301.375 428.266 301.694C436.543 302.013 448.487 304.238 448.487 304.238C448.487 304.238 429.538 327.164 415.209 330.506C400.881 333.848 376.426 330.125 376.426 330.125Z" fill="#00AA30"/>
<path d="M433.318 337.976C433.318 337.976 412.041 354.718 402.044 359.481C392.042 364.249 355.19 354.367 355.19 354.367C355.422 354.022 382.74 335.299 397.161 333.208C399.067 332.935 401.107 332.812 403.203 332.812C416.95 332.812 433.318 337.976 433.318 337.976Z" fill="url(#paint21_linear_2004_736)"/>
<path d="M341.849 365.144C341.849 365.144 361.112 378.306 374.951 381.674C388.785 385.047 421.074 374.078 421.074 374.078C421.074 374.078 399.251 356.101 386.112 354.824C372.973 353.547 341.849 365.144 341.849 365.144Z" fill="#00AA30"/>
<path d="M341.722 365.144C341.722 365.144 361.114 380.932 374.948 384.305C388.783 387.678 421.076 374.047 421.076 374.047C421.076 374.047 399.248 358.733 386.109 357.456C372.971 356.173 341.722 365.144 341.722 365.144Z" fill="#0B3D00"/>
<path d="M385.532 355.943C398.671 357.22 421.106 374.08 421.106 374.08C421.106 374.08 388.2 386.166 374.371 382.798C360.531 379.42 341.701 365.125 341.701 365.125C341.701 365.125 368.957 355.83 383.096 355.83C383.956 355.83 384.769 355.871 385.532 355.943Z" fill="url(#paint22_linear_2004_736)"/>
<path d="M309.587 385.295C309.587 385.295 324.956 378.05 347.407 374.97C369.858 371.891 394.585 391.13 394.585 391.13C394.585 391.13 371.47 404.091 347.257 405.389C323.045 406.681 306.362 384.461 306.362 384.461L309.587 385.295Z" fill="#00AA30"/>
<path d="M308.822 386.717C308.822 386.717 324.191 379.472 346.642 376.392C369.093 373.313 394.505 391.156 394.505 391.156C394.505 391.156 370.705 405.513 346.492 406.81C322.28 408.103 305.598 385.883 305.598 385.883L308.822 386.717Z" fill="#0B3D00"/>
<path d="M394.576 391.186C394.576 391.186 370.781 404.472 346.573 405.77C322.361 407.062 305.678 384.842 305.678 384.842L308.897 385.676C308.897 385.676 324.272 378.431 346.718 375.352C348.412 375.12 350.117 375.017 351.827 375.017C372.851 375.011 394.576 391.186 394.576 391.186Z" fill="url(#paint23_linear_2004_736)"/>
<path d="M292.418 401.247C292.418 401.247 307.097 412.581 317.841 412.236C328.585 411.891 343.197 405.995 345.118 404.903C346.241 404.27 347.019 403.523 347.019 403.523C347.019 403.523 334.029 394.274 322.029 394.388C310.023 394.501 292.418 401.247 292.418 401.247Z" fill="#0B3D00"/>
<path d="M293.021 400.964C293.021 400.964 307.195 409.574 317.939 409.229C328.683 408.884 344.547 404.507 346.39 403.878C347.06 403.647 346.231 402.957 346.231 402.957C346.231 402.957 334.107 392.941 322.101 393.054C310.095 393.167 293.021 400.964 293.021 400.964Z" fill="#00AA30"/>
<path d="M410.486 271.243C410.486 271.243 392.949 236.808 392.949 216.88C392.949 196.951 407.19 173.737 407.19 173.737C407.19 173.737 421.642 195.195 426.242 215.783C430.846 236.365 412.459 267.299 410.486 271.243Z" fill="#00AA30"/>
<path d="M424.928 215.779C429.527 236.367 412.459 267.47 410.486 271.414C410.486 271.414 391.635 236.809 391.635 216.881C391.635 196.952 407.143 173.785 407.143 173.785C407.143 173.785 420.329 195.196 424.928 215.779Z" fill="url(#paint24_linear_2004_736)"/>
<path d="M376.842 329.123C376.842 329.123 371.038 299.137 371.697 280.743C372.356 262.349 379.361 252.272 384.403 246.582C389.44 240.886 395.152 233.023 395.152 233.023C395.152 233.023 412.221 271.984 404.773 291.037C397.326 310.09 376.842 329.123 376.842 329.123Z" fill="#00AA30"/>
<path d="M403.455 291.034C396.008 310.087 376.261 330.546 376.261 330.546C376.261 330.546 369.725 299.139 370.384 280.745C371.038 262.351 378.048 252.273 383.085 246.583C388.122 240.888 395.132 233.004 395.132 233.004C395.132 233.004 410.908 271.986 403.455 291.034Z" fill="url(#paint25_linear_2004_736)"/>
<path d="M356.98 351.637C356.98 351.637 348.652 329.17 349.8 313.726C350.949 298.288 352.592 290.404 358.18 281.207C363.763 272.01 363.598 271.372 363.598 271.372C363.598 271.372 374.77 292.541 375.923 308.474C377.072 324.407 365.684 339.484 356.98 351.637Z" fill="#00AA30"/>
<path d="M374.608 308.47C375.756 324.408 365.687 339.588 356.977 351.741C356.977 351.741 347.336 329.171 348.484 313.727C349.633 298.289 351.281 290.405 356.864 281.208C362.447 272.011 363.601 271.352 363.601 271.352C363.601 271.352 373.454 292.542 374.608 308.47Z" fill="url(#paint26_linear_2004_736)"/>
<path d="M336.7 369.191C336.7 369.191 327.805 343.211 327.981 329.782C328.156 316.357 335.129 305.723 339.142 300.141C343.154 294.564 344.895 292.468 344.895 292.468C344.895 292.468 357.977 316.357 355.361 334.318C352.744 352.28 336.7 369.191 336.7 369.191Z" fill="#00AA30"/>
<path d="M354.047 335.628C351.43 353.595 335.386 370.506 335.386 370.506C335.386 370.506 326.492 344.521 326.667 331.097C326.837 317.672 333.816 307.033 337.828 301.456C341.84 295.874 344.894 292.522 344.894 292.522C344.894 292.522 356.663 317.672 354.047 335.628Z" fill="url(#paint27_linear_2004_736)"/>
<path d="M325.117 319.949C325.117 319.949 331.946 344.229 330.674 355.347C329.402 366.459 309.326 385.379 309.326 385.379C309.326 385.379 302.403 367.412 303.037 355.027C303.675 342.643 312.73 329.002 325.117 319.949Z" fill="#00AA30"/>
<path d="M329.741 355.042C328.464 366.16 309.407 385.373 309.407 385.373C309.407 385.373 301.47 367.112 302.104 354.723C302.737 342.343 312.74 329.001 325.132 319.953C325.132 319.953 331.008 343.924 329.741 355.042Z" fill="url(#paint28_linear_2004_736)"/>
<path d="M292.459 401.326C292.459 401.326 291.392 374.121 295.585 366.252C299.783 358.389 310.269 349.826 310.269 349.826C310.269 349.826 318.664 371.15 312.195 382.509C305.726 393.869 292.459 401.326 292.459 401.326Z" fill="#0B3D00"/>
<path d="M293.834 399.085C293.834 399.085 292.783 371.818 296.981 363.95C301.179 356.087 311.665 347.523 311.665 347.523C311.665 347.523 320.06 368.847 313.591 380.207C307.122 391.567 293.834 399.085 293.834 399.085Z" fill="#00AA30"/>
<path d="M313.183 381.526C306.708 392.886 292.581 400.976 292.581 400.976C292.581 400.976 292.38 373.132 296.572 365.269C300.77 357.4 311.256 348.837 311.256 348.837C311.256 348.837 319.646 370.161 313.183 381.526Z" fill="url(#paint29_linear_2004_736)"/>
<path d="M322.325 394.008C334.269 394.008 347.042 403.504 347.042 403.504C347.042 403.504 347.063 403.504 345.203 404.524C343.498 405.461 328.629 411.156 317.88 411.496C307.131 411.841 292.478 401.161 292.478 401.161C292.478 401.161 310.103 394.122 322.108 394.008C322.181 394.008 322.253 394.008 322.325 394.008Z" fill="url(#paint30_linear_2004_736)"/>
<path d="M428.899 302.172C437.181 302.486 448.466 304.242 448.466 304.242C448.466 304.242 430.176 327.641 415.847 330.983C401.514 334.325 376.287 330.463 376.287 330.463C376.287 330.463 395.307 312.198 404.542 308.058C413.159 304.196 419.695 302.141 427.256 302.141C427.797 302.141 428.343 302.151 428.899 302.172Z" fill="url(#paint31_linear_2004_736)"/>
<defs>
<linearGradient id="paint0_linear_2004_736" x1="426.375" y1="396.496" x2="379.065" y2="414.897" gradientUnits="userSpaceOnUse">
<stop stop-color="white"/>
<stop offset="1" stop-color="#DADADA"/>
</linearGradient>
<linearGradient id="paint1_linear_2004_736" x1="78.3033" y1="401.73" x2="125.613" y2="420.132" gradientUnits="userSpaceOnUse">
<stop stop-color="white"/>
<stop offset="1" stop-color="#DADADA"/>
</linearGradient>
<linearGradient id="paint2_linear_2004_736" x1="131.302" y1="122.446" x2="65.6762" y2="200.682" gradientUnits="userSpaceOnUse">
<stop stop-color="#3AAA35"/>
<stop offset="1" stop-color="#0F2A00"/>
</linearGradient>
<linearGradient id="paint3_linear_2004_736" x1="49.0768" y1="218.871" x2="89.5791" y2="218.871" gradientUnits="userSpaceOnUse">
<stop stop-color="#3AAA35"/>
<stop offset="1" stop-color="#0F2A00"/>
</linearGradient>
<linearGradient id="paint4_linear_2004_736" x1="43.8544" y1="254.011" x2="98.5965" y2="254.011" gradientUnits="userSpaceOnUse">
<stop stop-color="#3AAA35"/>
<stop offset="1" stop-color="#0F2A00"/>
</linearGradient>
<linearGradient id="paint5_linear_2004_736" x1="44.8012" y1="285.311" x2="111.812" y2="285.311" gradientUnits="userSpaceOnUse">
<stop stop-color="#3AAA35"/>
<stop offset="1" stop-color="#0F2A00"/>
</linearGradient>
<linearGradient id="paint6_linear_2004_736" x1="71.735" y1="346.797" x2="149.866" y2="346.797" gradientUnits="userSpaceOnUse">
<stop stop-color="#3AAA35"/>
<stop offset="1" stop-color="#0F2A00"/>
</linearGradient>
<linearGradient id="paint7_linear_2004_736" x1="83.9472" y1="369.611" x2="163.357" y2="369.611" gradientUnits="userSpaceOnUse">
<stop stop-color="#3AAA35"/>
<stop offset="1" stop-color="#0F2A00"/>
</linearGradient>
<linearGradient id="paint8_linear_2004_736" x1="110.527" y1="389.252" x2="199.212" y2="391.482" gradientUnits="userSpaceOnUse">
<stop stop-color="#3AAA35"/>
<stop offset="1" stop-color="#0F2A00"/>
</linearGradient>
<linearGradient id="paint9_linear_2004_736" x1="118.964" y1="184.516" x2="71.4953" y2="264.091" gradientUnits="userSpaceOnUse">
<stop stop-color="#3AAA35"/>
<stop offset="1" stop-color="#0F2A00"/>
</linearGradient>
<linearGradient id="paint10_linear_2004_736" x1="121.499" y1="242.424" x2="112.931" y2="321.525" gradientUnits="userSpaceOnUse">
<stop stop-color="#3AAA35"/>
<stop offset="1" stop-color="#0F2A00"/>
</linearGradient>
<linearGradient id="paint11_linear_2004_736" x1="150.931" y1="272.299" x2="136.726" y2="352.384" gradientUnits="userSpaceOnUse">
<stop stop-color="#3AAA35"/>
<stop offset="1" stop-color="#0F2A00"/>
</linearGradient>
<linearGradient id="paint12_linear_2004_736" x1="150.629" y1="331.513" x2="178.391" y2="331.513" gradientUnits="userSpaceOnUse">
<stop stop-color="#3AAA35"/>
<stop offset="1" stop-color="#0F2A00"/>
</linearGradient>
<linearGradient id="paint13_linear_2004_736" x1="175.137" y1="352.661" x2="202.989" y2="352.661" gradientUnits="userSpaceOnUse">
<stop stop-color="#3AAA35"/>
<stop offset="1" stop-color="#0F2A00"/>
</linearGradient>
<linearGradient id="paint14_linear_2004_736" x1="189.425" y1="374.908" x2="212.474" y2="374.908" gradientUnits="userSpaceOnUse">
<stop stop-color="#3AAA35"/>
<stop offset="1" stop-color="#0F2A00"/>
</linearGradient>
<linearGradient id="paint15_linear_2004_736" x1="158.013" y1="402.756" x2="212.573" y2="402.756" gradientUnits="userSpaceOnUse">
<stop stop-color="#3AAA35"/>
<stop offset="1" stop-color="#0F2A00"/>
</linearGradient>
<linearGradient id="paint16_linear_2004_736" x1="56.5886" y1="317.242" x2="128.768" y2="317.242" gradientUnits="userSpaceOnUse">
<stop stop-color="#3AAA35"/>
<stop offset="1" stop-color="#0F2A00"/>
</linearGradient>
<linearGradient id="paint17_linear_2004_736" x1="373.752" y1="122.446" x2="439.378" y2="200.682" gradientUnits="userSpaceOnUse">
<stop stop-color="#3AAA35"/>
<stop offset="1" stop-color="#0F2A00"/>
</linearGradient>
<linearGradient id="paint18_linear_2004_736" x1="455.977" y1="218.871" x2="415.475" y2="218.871" gradientUnits="userSpaceOnUse">
<stop stop-color="#3AAA35"/>
<stop offset="1" stop-color="#0F2A00"/>
</linearGradient>
<linearGradient id="paint19_linear_2004_736" x1="461.2" y1="254.011" x2="406.458" y2="254.011" gradientUnits="userSpaceOnUse">
<stop stop-color="#3AAA35"/>
<stop offset="1" stop-color="#0F2A00"/>
</linearGradient>
<linearGradient id="paint20_linear_2004_736" x1="460.253" y1="285.311" x2="393.243" y2="285.311" gradientUnits="userSpaceOnUse">
<stop stop-color="#3AAA35"/>
<stop offset="1" stop-color="#0F2A00"/>
</linearGradient>
<linearGradient id="paint21_linear_2004_736" x1="433.319" y1="346.797" x2="355.188" y2="346.797" gradientUnits="userSpaceOnUse">
<stop stop-color="#3AAA35"/>
<stop offset="1" stop-color="#0F2A00"/>
</linearGradient>
<linearGradient id="paint22_linear_2004_736" x1="421.107" y1="369.611" x2="341.697" y2="369.611" gradientUnits="userSpaceOnUse">
<stop stop-color="#3AAA35"/>
<stop offset="1" stop-color="#0F2A00"/>
</linearGradient>
<linearGradient id="paint23_linear_2004_736" x1="394.527" y1="389.252" x2="305.842" y2="391.482" gradientUnits="userSpaceOnUse">
<stop stop-color="#3AAA35"/>
<stop offset="1" stop-color="#0F2A00"/>
</linearGradient>
<linearGradient id="paint24_linear_2004_736" x1="386.09" y1="184.516" x2="433.559" y2="264.091" gradientUnits="userSpaceOnUse">
<stop stop-color="#3AAA35"/>
<stop offset="1" stop-color="#0F2A00"/>
</linearGradient>
<linearGradient id="paint25_linear_2004_736" x1="383.556" y1="242.424" x2="392.123" y2="321.525" gradientUnits="userSpaceOnUse">
<stop stop-color="#3AAA35"/>
<stop offset="1" stop-color="#0F2A00"/>
</linearGradient>
<linearGradient id="paint26_linear_2004_736" x1="354.122" y1="272.299" x2="368.328" y2="352.384" gradientUnits="userSpaceOnUse">
<stop stop-color="#3AAA35"/>
<stop offset="1" stop-color="#0F2A00"/>
</linearGradient>
<linearGradient id="paint27_linear_2004_736" x1="354.426" y1="331.513" x2="326.663" y2="331.513" gradientUnits="userSpaceOnUse">
<stop stop-color="#3AAA35"/>
<stop offset="1" stop-color="#0F2A00"/>
</linearGradient>
<linearGradient id="paint28_linear_2004_736" x1="329.917" y1="352.661" x2="302.065" y2="352.661" gradientUnits="userSpaceOnUse">
<stop stop-color="#3AAA35"/>
<stop offset="1" stop-color="#0F2A00"/>
</linearGradient>
<linearGradient id="paint29_linear_2004_736" x1="315.629" y1="374.908" x2="292.58" y2="374.908" gradientUnits="userSpaceOnUse">
<stop stop-color="#3AAA35"/>
<stop offset="1" stop-color="#0F2A00"/>
</linearGradient>
<linearGradient id="paint30_linear_2004_736" x1="347.042" y1="402.756" x2="292.481" y2="402.756" gradientUnits="userSpaceOnUse">
<stop stop-color="#3AAA35"/>
<stop offset="1" stop-color="#0F2A00"/>
</linearGradient>
<linearGradient id="paint31_linear_2004_736" x1="448.466" y1="317.242" x2="376.286" y2="317.242" gradientUnits="userSpaceOnUse">
<stop stop-color="#3AAA35"/>
<stop offset="1" stop-color="#0F2A00"/>
</linearGradient>
</defs>
</svg>
