<svg width="305" height="512" viewBox="0 0 305 512" fill="none" xmlns="http://www.w3.org/2000/svg">
<g clip-path="url(#clip0_2003_6639)">
<path d="M148.443 0V4.47214H143.952V13.0818H148.443V16.2551C144.806 17.5541 141.93 20.4301 140.631 24.0671H140.352C126.064 24.0671 113.465 31.4725 106.172 42.6248C85.2774 43.0888 68.4092 60.2349 68.4092 81.2407C68.4092 84.0798 68.7242 86.8625 69.318 89.5903C67.6665 91.3161 66.6283 93.6172 66.6283 96.178C66.6283 101.467 70.9885 105.753 76.3513 105.753C77.075 105.753 77.7802 105.661 78.4668 105.512C80.6008 106.811 83.0873 107.553 85.6666 107.553H85.7587C87.1875 108.388 88.6905 109.186 90.2863 109.947L92.2163 119.708C54.7139 123.085 23.9662 129.041 11.4592 135.963C6.89435 138.431 3.09078 141.159 2.47842 151.179C-6.28019 276.305 20.7563 354.168 45.1208 402.767C72.5842 457.564 112.166 498.221 151.06 511.656C152.544 512.138 153.008 512.119 154.66 511.562C193.48 498.035 232.948 457.452 260.356 402.748C284.721 354.168 311.757 276.305 302.999 151.179C302.386 141.159 298.564 138.412 294.018 135.963C281.511 129.041 250.763 123.085 213.261 119.708L215.191 109.929C216.786 109.168 218.307 108.388 219.736 107.553H219.848C222.186 107.553 224.506 106.959 226.603 105.771C226.751 105.697 226.88 105.605 227.01 105.512C227.697 105.661 228.384 105.753 229.108 105.753C234.471 105.753 238.831 101.448 238.831 96.178C238.831 93.6358 237.811 91.3161 236.159 89.5903C236.753 86.8811 237.068 84.0798 237.068 81.2407C237.068 60.2349 220.201 43.0888 199.307 42.6248C192.014 31.4539 179.413 24.0671 165.125 24.0671H164.847C163.548 20.4301 160.671 17.5541 157.053 16.2551V13.0818H161.674V4.47214H157.053V0H148.443ZM140.371 35.146C140.872 35.146 141.373 35.1639 141.874 35.1825C143.173 37.2422 145.011 38.895 147.219 39.9527V55.8543C133.951 56.2068 121.666 57.7662 110.996 60.2899C113.186 46.0571 125.526 35.146 140.371 35.146ZM165.144 35.146C179.989 35.146 192.311 46.0761 194.519 60.3089C183.849 57.7852 171.545 56.2073 158.296 55.8732V39.9527C160.486 38.895 162.342 37.2422 163.641 35.1825C164.142 35.1639 164.643 35.146 165.144 35.146ZM100.939 54.3699C100.159 57.3203 99.713 60.4006 99.6017 63.5552C91.9194 66.1902 85.5183 69.4005 80.7679 73.0561C83.6627 63.7594 91.3449 56.5595 100.939 54.3699ZM204.557 54.3699C214.151 56.5595 221.833 63.7594 224.728 73.0561C219.959 69.4191 213.557 66.2088 205.893 63.5552C205.8 60.4006 205.355 57.3203 204.557 54.3699Z" fill="#63257E"/>
<path d="M147.218 77.2504V59.5476C133.895 59.9187 121.406 61.6074 110.662 64.2795C110.662 64.4836 110.643 64.6692 110.643 64.8547C110.643 69.4753 111.738 73.9845 113.761 78.0669C118.4 78.1411 122.334 81.4813 123.15 86.0647C123.54 88.1987 123.188 90.277 122.297 92.077C122.872 92.1883 123.447 92.244 124.06 92.1698C125.526 91.9842 126.825 91.2605 127.734 90.0914C127.957 89.8131 128.161 89.4976 128.309 89.1822C127.53 88.1616 127.047 86.8997 127.047 85.508C127.047 82.1493 129.775 79.4215 133.134 79.4215C136.493 79.4215 139.22 82.1493 139.22 85.508C139.22 86.5843 138.905 87.6049 138.422 88.477C139.424 89.9244 141.113 90.8708 143.024 90.8708C143.581 90.8708 144.119 90.7409 144.639 90.5739C143.618 89.0337 143.024 87.1966 143.024 85.2111C143.024 81.9266 144.676 79.0133 147.218 77.2504Z" fill="#C8342C"/>
<path d="M201.495 89.5162C201.161 91.3718 200.326 93.0048 199.139 94.3223C199.528 94.5079 199.955 94.6377 200.401 94.712C202.126 95.0089 203.815 94.3965 204.965 93.2275C204.724 92.578 204.576 91.8728 204.576 91.1306C204.576 87.7719 207.303 85.0441 210.662 85.0441C214.021 85.0441 216.749 87.7719 216.749 91.1306C216.749 92.8192 216.044 94.3594 214.93 95.4542C215.487 96.9944 216.73 98.2563 218.419 98.7202C218.883 98.8501 219.347 98.8872 219.811 98.8872C219.551 98.015 219.402 97.1058 219.402 96.1408C219.402 92.1883 221.852 88.7739 225.34 87.3265C225.786 85.341 226.027 83.2998 226.027 81.2215C226.027 80.4421 225.99 79.6813 225.934 78.939C225.897 78.9019 225.878 78.8648 225.841 78.8277C225.34 78.3267 224.821 77.8257 224.245 77.3246C224.19 77.269 224.116 77.2133 224.041 77.1576C223.522 76.7123 222.984 76.2855 222.427 75.8587C222.241 75.7288 222.056 75.5803 221.852 75.4504C221.369 75.0979 220.887 74.7639 220.367 74.4298C220.145 74.2814 219.94 74.1515 219.718 74.003C219.161 73.6505 218.604 73.3165 218.011 72.9824C217.825 72.8711 217.639 72.7598 217.435 72.6484C215.821 71.7392 214.058 70.867 212.184 70.0134C212.11 69.9763 212.035 69.9578 211.98 69.9206C211.126 69.5309 210.235 69.1598 209.326 68.8072C209.141 68.733 208.936 68.6588 208.751 68.5846C207.934 68.2691 207.081 67.9537 206.227 67.6382C206.116 67.6011 206.005 67.564 205.875 67.5083C205.485 73.3907 203.815 79.1246 201.031 84.2647C201.644 85.9534 201.829 87.7348 201.495 89.5162Z" fill="#C8342C"/>
<path d="M191.753 78.0669C193.776 73.9845 194.871 69.4753 194.871 64.8547C194.871 64.6506 194.852 64.4651 194.852 64.2795C184.108 61.6259 171.601 59.9187 158.296 59.5476V77.2319C160.82 78.9947 162.49 81.9081 162.49 85.2297C162.49 87.2152 161.896 89.0523 160.875 90.5925C161.395 90.7595 161.933 90.8708 162.49 90.8894C162.508 90.8894 162.546 90.8894 162.564 90.8894C164.438 90.8894 166.108 89.943 167.092 88.4956C166.591 87.6049 166.275 86.6028 166.275 85.5266C166.275 82.1679 169.003 79.4401 172.362 79.4401C175.721 79.4401 178.448 82.1679 178.448 85.5266C178.448 86.9183 177.966 88.1801 177.187 89.2007C177.354 89.5162 177.539 89.8317 177.762 90.11C178.671 91.2605 179.97 92.0028 181.436 92.1883C182.03 92.2625 182.624 92.2069 183.18 92.0955C182.271 90.2399 181.956 88.1616 182.327 86.0833C183.18 81.4813 187.114 78.1411 191.753 78.0669Z" fill="#C8342C"/>
<path d="M96.7818 68.6217C96.5962 68.6959 96.3921 68.7701 96.2065 68.8444C95.2787 69.2155 94.3509 69.6052 93.4787 69.9949C93.4416 70.0134 93.4045 70.032 93.3488 70.0505C91.4375 70.9041 89.6561 71.7948 88.0046 72.7412C87.8932 72.7969 87.8005 72.8711 87.6891 72.9268C86.984 73.335 86.3159 73.7247 85.6665 74.1515C85.5366 74.2257 85.4252 74.2999 85.2953 74.3927C84.6459 74.8195 84.0149 75.2463 83.4026 75.6917C83.3469 75.7288 83.2727 75.7844 83.217 75.8216C81.8624 76.8422 80.6377 77.8813 79.5985 78.9576C79.5429 79.7184 79.5057 80.4792 79.5057 81.2586C79.5057 83.3369 79.747 85.3967 80.1923 87.3822C83.6809 88.8482 86.1304 92.244 86.1304 96.1965C86.1304 97.1429 85.9819 98.0707 85.7221 98.9428C86.186 98.9428 86.65 98.9057 87.1139 98.7758C88.8025 98.2934 90.0458 97.0501 90.6025 95.5099C89.4891 94.3965 88.7839 92.8749 88.7839 91.1863C88.7839 87.8276 91.5117 85.0998 94.8704 85.0998C98.2291 85.0998 100.957 87.8276 100.957 91.1863C100.957 91.9285 100.808 92.6151 100.567 93.2831C101.718 94.4522 103.388 95.046 105.132 94.7676C105.577 94.6934 105.986 94.545 106.375 94.378C105.188 93.0605 104.334 91.4275 104.019 89.5719C103.666 87.7348 103.852 85.9534 104.501 84.3018C101.718 79.1617 100.048 73.4463 99.658 67.5454C99.5466 67.5825 99.4168 67.6382 99.3054 67.6753C98.4333 67.9908 97.5982 68.3062 96.7818 68.6217Z" fill="#C8342C"/>
<path d="M93.7756 107.386C93.8498 107.423 93.9055 107.442 93.9797 107.479C110.421 103.749 130.851 101.114 152.878 101.114C174.886 101.114 195.112 103.749 211.516 107.479C212.388 107.089 213.26 106.7 214.095 106.291C211.72 105.215 209.753 103.508 208.361 101.43C206.265 102.691 203.815 103.415 201.273 103.415C200.512 103.415 199.751 103.359 198.972 103.229C195.557 102.654 192.551 100.854 190.417 98.145C188.061 99.8522 185.184 100.854 182.141 100.854C181.566 100.854 180.991 100.817 180.415 100.743C177.001 100.335 173.939 98.7203 171.657 96.178C169.189 98.2564 166.034 99.5182 162.564 99.5182C162.49 99.5182 162.434 99.5182 162.36 99.5182C158.723 99.4625 155.346 98.0522 152.748 95.5286C150.15 98.0522 146.754 99.4625 143.136 99.5182C143.061 99.5182 143.006 99.5182 142.932 99.5182C139.48 99.5182 136.307 98.2564 133.839 96.178C131.556 98.7017 128.495 100.316 125.08 100.743C124.505 100.817 123.93 100.854 123.355 100.854C120.293 100.854 117.416 99.8522 115.078 98.145C112.944 100.854 109.938 102.654 106.524 103.229C105.744 103.359 104.984 103.415 104.223 103.415C101.662 103.415 99.2312 102.691 97.1343 101.448C95.7426 103.526 93.7756 105.234 91.3818 106.328C91.4189 106.347 91.456 106.365 91.5117 106.384C92.254 106.718 93.0148 107.052 93.7756 107.386Z" fill="#C8342C"/>
<path d="M152.748 116.757C172.306 116.924 191.642 117.87 209.568 119.373L211.182 111.19C197.766 108.11 177.632 104.807 152.878 104.807C132.948 104.807 112.313 107.071 94.3137 111.19L95.9281 119.373C113.854 117.852 133.189 116.924 152.748 116.757Z" fill="#F4CF45"/>
<path d="M232.002 91.0379C232.93 87.8833 233.394 84.6174 233.394 81.2401C233.394 61.9786 217.714 46.2984 198.452 46.2984H197.265C190.844 35.2202 178.857 27.7605 165.162 27.7605C163.863 27.7605 162.583 27.8348 161.302 27.9647C161.098 23.7524 157.888 20.3565 153.75 19.8741V9.83507H158.686V7.84953H153.75V3.41455H151.783V7.84953H146.847V9.81651H151.783V19.8555C147.663 20.338 144.435 23.7338 144.23 27.9461C142.95 27.8162 141.67 27.742 140.371 27.742C126.676 27.742 114.689 35.2017 108.268 46.2798H107.081C87.8004 46.2984 72.1203 61.9786 72.1203 81.2401C72.1203 84.5988 72.5842 87.8647 73.512 91.0193C71.6378 92.0214 70.3389 93.9327 70.3389 96.1594C70.3389 99.4068 73.0481 102.042 76.3697 102.042C77.2233 102.042 78.0398 101.856 78.782 101.541C80.6748 103.192 83.1242 104.139 85.685 104.139C86.6128 104.139 87.5592 104.009 88.5056 103.749C92.3839 102.654 95.1302 99.4996 95.9096 95.8069C97.858 98.3862 100.92 99.9821 104.241 99.9821C104.817 99.9821 105.392 99.9264 105.967 99.8336C108.714 99.3697 111.126 97.8666 112.74 95.5842C113.148 95.0089 113.501 94.3966 113.779 93.7657C114.058 93.7471 114.336 93.7471 114.633 93.6915C114.819 93.6544 114.967 93.5987 115.153 93.543C117.138 95.9182 120.126 97.4027 123.373 97.4027C123.8 97.4027 124.245 97.3842 124.691 97.3285C127.53 96.976 130.072 95.5471 131.853 93.2832C132.558 92.3925 133.097 91.409 133.468 90.3699C135.286 93.7657 138.849 96.0853 142.95 96.0853C143.006 96.0853 143.061 96.0853 143.099 96.0853C145.975 96.0481 148.647 94.8977 150.651 92.8379C151.152 92.3183 151.597 91.7616 151.968 91.1678C152.228 91.2049 152.488 91.242 152.748 91.242C153.008 91.242 153.267 91.2049 153.527 91.1678C153.917 91.7616 154.344 92.3183 154.845 92.8379C156.849 94.8977 159.521 96.0481 162.397 96.0853C162.453 96.0853 162.509 96.0853 162.546 96.0853C166.647 96.0853 170.209 93.7657 172.028 90.3699C172.418 91.409 172.956 92.3925 173.642 93.2832C175.405 95.5471 177.947 96.976 180.805 97.3285C181.25 97.3842 181.677 97.4027 182.123 97.4027C185.37 97.4027 188.339 95.9182 190.343 93.543C190.51 93.5987 190.677 93.6543 190.844 93.6915C191.122 93.7471 191.419 93.7657 191.698 93.7657C191.976 94.3966 192.329 95.0089 192.737 95.5842C194.351 97.8666 196.764 99.3697 199.51 99.8336C200.085 99.9264 200.679 99.9821 201.236 99.9821C204.557 99.9821 207.638 98.3677 209.568 95.8069C210.347 99.4996 213.093 102.654 216.972 103.749C217.918 104.009 218.864 104.139 219.811 104.139C221.574 104.139 223.336 103.693 224.914 102.803C225.563 102.45 226.138 102.023 226.695 101.541C227.437 101.856 228.235 102.023 229.089 102.023C232.429 102.023 235.12 99.3883 235.12 96.1409C235.157 93.9512 233.876 92.0399 232.002 91.0379ZM111.256 94.5636C109.92 96.4378 107.934 97.6811 105.67 98.0522C101.699 98.7202 97.8951 96.5306 96.3549 92.9863C96.8931 92.5409 97.2456 91.8915 97.2456 91.1307C97.2456 89.8131 96.1694 88.7369 94.8519 88.7369C93.5344 88.7369 92.4581 89.8131 92.4581 91.1307C92.4581 92.2626 93.2375 93.1904 94.2766 93.4502C94.388 97.3099 91.8828 100.891 88.0046 101.986C85.2953 102.747 82.5119 102.097 80.4335 100.502C81.6397 99.4254 82.4191 97.8852 82.4191 96.1594C82.4191 93.1719 80.1181 90.7224 77.1676 90.3513C76.2769 87.4194 75.813 84.3761 75.813 81.2215C75.813 64.2239 89.4705 50.3437 106.375 49.9726C104.371 54.5189 103.258 59.5477 103.258 64.8362C103.258 71.7021 105.169 78.401 108.714 84.1906C107.767 85.471 107.322 87.1225 107.619 88.8297C108.045 91.1492 109.734 92.8935 111.85 93.5244C111.683 93.9141 111.478 94.2481 111.256 94.5636ZM150.911 79.5143C148.48 80.2937 146.717 82.5576 146.717 85.2297C146.717 87.6049 148.109 89.6461 150.094 90.6296C149.853 90.9636 149.593 91.2791 149.315 91.5575C147.663 93.2646 145.437 94.211 143.061 94.2481C138.905 94.3223 135.323 91.4461 134.34 87.5493C135.045 87.141 135.527 86.3617 135.527 85.4895C135.527 84.172 134.451 83.0957 133.134 83.0957C131.816 83.0957 130.74 84.172 130.74 85.4895C130.74 86.4916 131.352 87.3451 132.224 87.6977C132.039 89.3121 131.427 90.8337 130.406 92.1513C128.94 94.0255 126.843 95.2131 124.486 95.4914C121.573 95.844 118.827 94.7491 116.953 92.7636C118.882 91.4647 119.977 89.108 119.532 86.6771C119.012 83.7638 116.47 81.704 113.594 81.704C113.241 81.704 112.87 81.7411 112.518 81.7968C112.258 81.8524 111.998 81.9452 111.738 82.0195C108.639 76.8608 106.951 70.9042 106.951 64.8177C106.951 46.3912 121.944 31.3976 140.371 31.3976C141.911 31.3976 143.433 31.5089 144.936 31.7131C146.012 34.1811 148.202 36.0553 150.911 36.6491V79.5143ZM191.92 81.7597C189.063 81.7597 186.502 83.8009 185.982 86.7328C185.537 89.1637 186.632 91.5203 188.58 92.8193C186.706 94.8048 183.96 95.8997 181.046 95.5471C178.69 95.2502 176.593 94.0626 175.127 92.2069C174.106 90.8894 173.512 89.3678 173.327 87.7534C174.18 87.3823 174.793 86.5287 174.793 85.5452C174.793 84.2277 173.717 83.1514 172.399 83.1514C171.082 83.1514 170.005 84.2277 170.005 85.5452C170.005 86.4359 170.488 87.1967 171.193 87.6049C170.209 91.5018 166.665 94.378 162.471 94.3038C160.096 94.2667 157.869 93.3203 156.218 91.6131C155.94 91.3162 155.68 91.0008 155.439 90.6853C157.443 89.7018 158.816 87.6606 158.816 85.2854C158.816 82.5947 157.053 80.3494 154.622 79.57V36.7047C157.313 36.1109 159.539 34.2367 160.616 31.7687C162.119 31.5646 163.622 31.4533 165.162 31.4533C183.589 31.4533 198.582 46.4468 198.582 64.8733C198.582 70.9784 196.894 76.9165 193.795 82.0751C193.535 82.0009 193.294 81.9081 193.015 81.8525C192.626 81.7782 192.273 81.7597 191.92 81.7597ZM228.347 90.3698C225.378 90.741 223.077 93.1904 223.077 96.178C223.077 97.9037 223.856 99.4439 225.081 100.52C224.747 100.78 224.413 101.003 224.042 101.225C222.037 102.357 219.718 102.636 217.51 102.005C213.631 100.91 211.126 97.3285 211.238 93.4688C212.277 93.209 213.056 92.2812 213.056 91.1492C213.056 89.8317 211.98 88.7554 210.662 88.7554C209.345 88.7554 208.269 89.8317 208.269 91.1492C208.269 91.8915 208.621 92.5595 209.159 93.0048C207.619 96.5491 203.834 98.7388 199.863 98.0707C197.599 97.6996 195.613 96.4563 194.277 94.5821C194.054 94.2667 193.85 93.9327 193.665 93.5801C195.78 92.9492 197.469 91.2049 197.896 88.8853C198.192 87.1967 197.766 85.5452 196.819 84.2462C200.364 78.4566 202.275 71.7578 202.275 64.8733C202.275 59.5848 201.161 54.556 199.157 50.0097C216.081 50.3808 229.72 64.2424 229.72 81.2587C229.701 84.3761 229.237 87.4379 228.347 90.3698Z" fill="#F4CF45"/>
<path d="M291.977 139.749C273.698 129.635 213.854 121.6 152.748 121.062C91.6416 121.6 31.7972 129.635 13.5563 139.73C10.0306 141.623 7.30279 143.107 6.78321 151.439C1.04929 233.458 9.90069 304.177 33.7828 366.359L296.263 142.94C295.094 141.437 293.628 140.639 291.977 139.749Z" fill="#C8342C"/>
<path d="M5.39148 216.943C5.83683 231.417 6.82032 245.52 8.34195 259.252C48.7578 258.454 99.3796 254.13 158.871 242.496C97.6539 241.141 46.1413 230.23 5.39148 216.943Z" fill="#F4CF45"/>
<path d="M251.839 163.297C178.783 154.408 121.443 139.34 80.1181 125.219C49.0918 128.633 24.2262 133.811 13.5563 139.712C10.0306 141.604 7.30279 143.089 6.78321 151.421C6.78321 151.476 6.78321 151.532 6.76465 151.588C40.0363 159.715 124.858 175.266 251.839 163.297Z" fill="#F4CF45"/>
<path d="M109.66 284.21C71.9719 280.814 38.4219 273.967 9.06567 265.394C10.4574 276.732 12.2388 287.81 14.3728 298.666C42.7827 297.125 74.6069 292.783 109.66 284.21Z" fill="#F4CF45"/>
<path d="M15.579 304.53C17.4161 313.214 19.5129 321.75 21.8325 330.137C35.7683 328.43 50.4465 325.647 65.9039 321.564C50.4465 319.542 33.2818 313.307 15.579 304.53Z" fill="#F4CF45"/>
<path d="M6.35644 158.156C5.26161 176.101 4.89048 193.506 5.2245 210.374C49.8526 214.883 116.786 216.758 202.627 205.16C114.299 198.016 48.6279 176.676 6.35644 158.156Z" fill="#F4CF45"/>
<path d="M128.198 495.66C112.536 485.695 97.2086 471.574 83.0872 454.205V324.385L128.198 285.991V358.343C125.785 359.957 123.503 361.813 121.406 363.928C113.037 372.297 108.435 383.431 108.435 395.252C108.435 407.091 113.037 418.206 121.406 426.575C123.503 428.672 125.785 430.546 128.198 432.16V495.66Z" fill="white"/>
<path d="M296.263 142.922C297.562 144.573 298.453 147.078 298.713 151.476C304.447 233.458 295.614 304.14 271.732 366.322V163.816L296.263 142.922Z" fill="white"/>
<path d="M222.52 205.698V454.038C208.417 471.426 193.089 485.584 177.428 495.568V432.049C179.785 430.453 182.011 428.635 184.071 426.575C192.44 418.206 197.042 407.072 197.042 395.252C197.042 383.413 192.44 372.297 184.071 363.928C182.011 361.869 179.785 360.032 177.428 358.454V244.11L222.52 205.698Z" fill="white"/>
<path d="M152.747 355.152C130.647 355.152 112.666 373.132 112.666 395.233C112.666 417.333 130.647 435.316 152.747 435.316C174.848 435.316 192.83 417.333 192.83 395.233C192.83 373.132 174.848 355.152 152.747 355.152Z" fill="white"/>
<path d="M126.992 376.862C128.94 374.135 131.315 371.741 134.006 369.755L136.901 380.388H130.517V417.742C131.816 419.022 133.227 420.21 134.73 421.249V403.695L157.888 403.676L152.748 422.585L148.758 407.907H144.379L150.67 431.047C151.356 431.084 152.043 431.103 152.748 431.103C153.453 431.103 154.14 431.084 154.826 431.047L162.267 403.658H165.106L172.343 420.062C173.513 419.134 174.607 418.132 175.628 417.074L169.263 402.637C173.308 400.8 176.11 396.736 176.11 392.023C176.11 386.994 172.9 382.689 168.41 381.056L171.49 369.737C174.181 371.722 176.556 374.135 178.504 376.844L181.529 373.819C178.207 369.366 173.884 365.71 168.911 363.186L164.234 380.351H145.641L146.791 384.563H163.065L160.17 395.196H164.55L167.296 385.12C169.987 386.233 171.898 388.887 171.898 391.986C171.898 396.087 168.558 399.408 164.476 399.408H146.476L136.622 363.168C131.631 365.691 127.307 369.347 124.004 373.801L126.992 376.862ZM142.078 399.464H134.711V384.6H138.033L142.078 399.464Z" fill="#63257E"/>
</g>
<defs>
<clipPath id="clip0_2003_6639">
<rect width="303.892" height="512" fill="white" transform="translate(0.792603)"/>
</clipPath>
</defs>
</svg>
