<svg width="512" height="512" viewBox="0 0 512 512" fill="none" xmlns="http://www.w3.org/2000/svg">
<path d="M257.322 500.565C392.298 500.565 501.717 391.146 501.717 256.171C501.717 121.195 392.298 11.776 257.322 11.776C122.347 11.776 12.9277 121.195 12.9277 256.171C12.9277 391.146 122.347 500.565 257.322 500.565Z" fill="white"/>
<path d="M299.819 211.115L387.883 175.445L372.693 199.851L299.989 216.747L299.819 211.115ZM299.819 220.672V224.597H405.973L371.669 205.824L299.819 220.672ZM416.213 183.979C415.701 183.296 414.677 182.784 411.093 181.76L392.832 176.981C392.832 176.811 376.96 202.923 376.96 202.923L406.827 218.795L415.189 189.44C416.555 185.685 416.896 184.832 416.213 183.979ZM98.6025 189.44L106.965 218.795L136.832 202.923C136.832 202.923 120.96 176.811 120.96 176.981L102.699 181.76C99.1145 182.784 98.0905 183.296 97.5785 183.979C97.2372 184.832 97.5785 185.685 98.6025 189.44ZM142.464 205.653L108.16 224.256H214.315V220.501L142.464 205.653ZM299.819 228.523L299.648 232.277L343.851 239.445L371.499 228.352H299.819V228.523ZM299.819 235.861V239.787C299.819 239.957 333.099 257.877 333.099 257.877C333.099 257.877 338.048 260.608 339.755 261.12C342.315 261.632 346.24 261.461 346.24 261.461L359.381 260.779C359.381 260.779 341.291 244.224 341.632 244.395C341.973 244.395 299.819 235.861 299.819 235.861ZM384.299 233.643L378.496 230.741L348.459 243.371L364.501 258.731L384.299 239.104C385.664 237.568 386.688 236.715 386.517 235.861C386.347 235.179 385.835 234.496 384.299 233.643ZM127.957 235.691C127.957 236.544 128.811 237.397 130.176 238.933L149.973 258.56L166.016 243.2L135.979 230.571L130.176 233.472C128.64 234.496 127.957 235.179 127.957 235.691ZM214.656 211.115L126.592 175.445L141.781 199.851L214.485 216.747L214.656 211.115ZM142.976 228.523L170.624 239.616L214.827 232.448L214.656 228.693H142.976V228.523ZM173.013 244.224C173.525 244.053 155.264 260.608 155.264 260.608L168.405 261.291C168.405 261.291 172.331 261.632 174.891 260.949C176.427 260.608 181.547 257.707 181.547 257.707C181.547 257.707 214.827 239.787 214.827 239.616V235.691C214.656 235.861 172.501 244.395 173.013 244.224ZM298.795 204.971L326.955 174.592L345.045 152.576L346.069 146.603L344.192 144.896L341.973 151.723L294.699 194.56C294.869 194.901 298.795 204.971 298.795 204.971ZM334.976 306.176C334.464 305.493 319.104 264.875 319.104 264.875C316.544 258.389 314.325 257.195 309.717 254.635L299.136 247.979L298.624 248.661L310.741 265.045V288.939L349.995 338.773C355.285 345.429 355.627 347.648 363.307 347.648L368.085 345.429L359.04 343.893C359.211 344.064 335.659 306.859 334.976 306.176ZM179.669 306.176C179.157 306.859 155.605 344.064 155.605 344.064L146.56 345.6L151.339 347.819C159.189 347.819 159.36 345.6 164.651 338.944L203.904 289.109L204.075 265.216L216.192 248.832L215.68 248.149L205.099 254.805C200.491 257.365 198.272 258.56 195.712 265.045C195.541 264.875 180.352 305.493 179.669 306.176ZM187.691 174.421L215.851 204.8C215.851 204.8 219.776 194.731 219.947 194.389L172.843 151.723L170.624 144.896L168.747 146.603L169.771 152.576L187.691 174.421ZM304.768 267.264V316.928L288.384 344.747L266.027 361.813L257.493 372.736L248.789 361.813L226.261 344.747L209.877 316.928V267.264L224.555 246.613L219.605 243.371V210.773L226.603 190.293L232.405 186.88C232.405 186.88 232.747 177.323 234.795 174.763C236.331 172.715 243.84 170.325 243.84 170.325L247.595 165.205L234.283 146.091L221.141 138.923L216.875 133.973L223.36 136.021L237.184 143.872L250.496 162.816L257.323 161.109L263.979 162.816L277.461 143.872L291.285 136.021L297.771 133.973L293.504 138.923L280.363 146.091L267.221 165.376L270.805 170.325C270.805 170.325 278.315 172.885 279.851 174.763C281.728 177.323 282.24 186.88 282.24 186.88L288.043 190.293L295.04 210.773V243.371L290.432 246.443L304.768 267.264ZM275.413 225.109V240.981L284.459 220.672L257.152 208.725L231.211 217.771L231.381 218.624L257.152 215.723L275.413 225.109ZM268.757 181.248L277.632 184.832L270.635 172.032L268.757 181.248ZM236.843 185.003L245.888 181.589L243.84 172.203L236.843 185.003ZM224.384 210.091L242.987 200.192H271.659L290.261 210.091L288.213 204.288L274.901 193.195L286.848 197.291L285.483 193.195C285.483 193.195 272.683 186.88 272.512 186.368H242.304C242.133 186.88 229.333 193.195 229.333 193.195L227.968 197.291L239.915 193.195L226.603 204.288L224.384 210.091ZM294.869 324.096L272.683 331.947H241.792L219.947 324.096L227.627 337.579L245.888 344.235L233.088 343.893L250.496 357.205H263.979L281.387 343.893L268.587 344.235L286.848 337.579L294.869 324.096ZM240.256 313.856H274.219L290.091 301.739L289.92 301.227L272.512 307.541H242.133L224.725 301.227L224.555 301.739L240.256 313.856ZM299.307 268.629L273.195 271.701L292.992 260.779L285.141 249.856L273.877 257.365H240.768L229.845 250.027L221.995 260.779L241.451 271.701L215.339 268.459V282.453L232.235 288.768H282.411L299.307 282.453V268.629ZM502.912 256C502.912 120.491 392.661 10.0693 256.981 10.0693C121.301 10.0693 11.2212 120.491 11.2212 256C11.2212 391.509 121.472 501.931 257.152 501.931C392.832 501.931 502.912 391.509 502.912 256ZM497.109 256C497.109 388.267 389.419 495.957 257.152 495.957C124.885 495.957 17.0239 388.267 17.0239 256C17.0239 123.733 124.715 16.0427 257.152 16.0427C389.589 16.0427 497.109 123.733 497.109 256ZM135.467 173.739C161.92 134.827 206.464 109.397 256.811 109.397C307.499 109.397 352.384 135.339 378.667 174.592L384.299 172.203C356.992 131.072 309.717 103.424 256.811 103.424C203.904 103.424 157.312 130.389 129.835 171.52L135.467 173.739ZM106.795 228.523C105.088 237.397 104.405 246.784 104.405 256C104.405 340.139 172.843 408.576 256.981 408.576C341.12 408.576 409.557 340.139 409.557 256C409.557 246.613 408.704 237.227 406.997 228.352H401.024C402.731 237.227 403.584 246.613 403.584 256C403.584 336.896 337.707 402.603 256.981 402.603C176.256 402.603 110.037 336.896 110.037 256C110.037 246.613 110.891 237.397 112.597 228.523H106.795Z" fill="#0F0F0F"/>
<path d="M226.432 204.458L239.744 193.365L227.797 197.461L229.163 193.365C229.163 193.365 241.963 187.05 242.133 186.538H272.341C272.512 187.05 285.312 193.365 285.312 193.365L286.677 197.461L274.731 193.365L288.043 204.458L290.091 210.261L271.488 200.362H242.816L224.213 210.261L226.432 204.458ZM294.869 324.096L272.683 331.946H241.792L219.947 324.096L227.627 337.578L245.888 344.234L233.088 343.893L250.496 357.205H263.979L281.387 343.893L268.587 344.234L286.848 337.578L294.869 324.096ZM299.307 268.629L273.195 271.701L292.992 260.778L285.141 249.856L273.877 257.365H240.768L229.845 250.026L221.995 260.778L241.451 271.701L215.339 268.458V282.453L232.235 288.768H282.411L299.307 282.453V268.629Z" fill="#FFB400"/>
<path d="M321.493 165.376V127.488L324.224 129.024V162.816L321.493 165.376ZM321.493 308.907V382.976L324.224 381.44V313.344L321.493 308.907ZM324.224 196.779V183.125L321.493 186.368V197.973L324.224 196.779ZM324.224 266.581V257.195L321.493 255.488V261.12L324.224 266.581ZM281.045 137.557V115.541L278.315 115.029V139.093L281.045 137.557ZM278.315 358.741V396.971L281.045 396.459V356.352L278.315 358.741ZM278.315 155.307V169.131L281.045 170.496V151.211L278.315 155.307ZM367.744 179.2V164.864L365.013 162.475V180.395L367.744 179.2ZM364.843 263.509V340.309L367.573 340.821V263.339L364.843 263.509ZM194.005 165.376V127.488L191.275 129.024V162.816L194.005 165.376ZM191.275 313.344V381.44L194.005 382.976V308.907L191.275 313.344ZM194.005 197.973V186.368L191.275 183.125V196.779L194.005 197.973ZM194.005 261.12V255.488L191.275 257.195V266.581L194.005 261.12ZM237.184 139.093V115.029L234.453 115.541V137.557L237.184 139.093ZM234.624 356.523V396.629L237.355 397.141V358.912L234.624 356.523ZM234.624 151.211V170.496L237.355 169.131V155.307L234.624 151.211ZM150.485 180.224V162.304L147.755 164.693V179.029L150.485 180.224ZM148.096 263.339V340.821L150.827 340.309V263.509L148.096 263.339Z" fill="#E5E5E5"/>
<path d="M117.205 131.584C114.816 129.536 112.085 130.56 110.037 132.949L106.453 137.216L113.792 143.36L117.205 139.264C119.253 136.704 119.595 133.632 117.205 131.584Z" fill="#D20000"/>
<path d="M235.477 455.338L241.792 456.021L239.573 447.146L235.477 455.338Z" fill="#D20000"/>
<path d="M210.901 439.808L206.976 438.784L205.269 444.757L209.024 445.781C210.901 446.293 212.779 445.44 213.291 443.562C213.803 441.344 212.437 440.149 210.901 439.808Z" fill="#D20000"/>
<path d="M98.7732 123.904L95.3599 128L101.675 133.29L104.917 129.365C106.624 127.317 106.624 124.757 104.576 123.05C102.528 121.173 100.139 122.368 98.7732 123.904Z" fill="#D20000"/>
<path d="M67.1999 252.416C69.0773 252.416 70.2719 251.051 70.2719 249.344C70.2719 247.637 69.0773 246.272 67.1999 246.272C65.4933 246.272 64.2986 247.637 64.2986 249.344C64.2986 251.051 65.4933 252.416 67.1999 252.416Z" fill="#D20000"/>
<path d="M152.192 413.013C148.267 410.453 142.976 411.477 140.075 416.256C137.003 421.035 138.368 425.984 142.293 428.544C146.219 431.104 151.509 430.08 154.411 425.472C157.483 420.693 156.288 415.573 152.192 413.013Z" fill="#D20000"/>
<path d="M208.171 450.219L204.075 449.024L202.197 455.851L206.123 456.875C208.512 457.557 210.731 456.704 211.413 454.485C211.925 452.437 210.389 450.901 208.171 450.219Z" fill="#D20000"/>
<path d="M67.1998 256C64.2985 256 62.4211 258.048 62.4211 260.608C62.4211 263.168 64.2985 265.216 67.1998 265.216C70.1011 265.216 71.9785 263.168 71.9785 260.608C71.9785 258.219 70.1011 256 67.1998 256Z" fill="#D20000"/>
<path d="M137.685 93.5251C135.979 91.4771 133.248 91.1358 130.859 93.0131L126.763 96.4264L132.736 103.765L136.661 100.693C139.051 98.6451 139.392 95.7438 137.685 93.5251Z" fill="#D20000"/>
<path d="M412.288 137.387C416.896 132.949 418.261 126.293 412.97 121.173L409.045 117.248L391.979 133.973L395.733 137.728C401.024 143.019 407.68 141.824 412.288 137.387Z" fill="#D20000"/>
<path d="M441.472 252.245C443.349 252.245 444.544 250.88 444.544 249.173C444.544 247.467 443.349 246.101 441.472 246.101C439.765 246.101 438.571 247.467 438.571 249.173C438.571 251.051 439.765 252.245 441.472 252.245Z" fill="#D20000"/>
<path d="M441.472 256C438.571 256 436.693 258.048 436.693 260.608C436.693 263.168 438.571 265.216 441.472 265.216C444.373 265.216 446.251 263.168 446.251 260.608C446.251 258.048 444.373 256 441.472 256Z" fill="#D20000"/>
<path d="M465.194 246.272C462.293 246.272 460.586 248.491 460.586 251.051C460.586 253.611 462.464 255.829 465.194 255.829C468.096 255.829 469.802 253.611 469.802 251.051C469.802 248.32 467.925 246.272 465.194 246.272Z" fill="#D20000"/>
<path d="M380.715 97.7917C382.251 95.7437 382.08 93.0131 379.52 91.1357L375.253 87.8931L369.621 95.5731L373.717 98.6451C376.107 100.522 379.008 100.01 380.715 97.7917Z" fill="#D20000"/>
<path d="M328.661 89.4291C334.464 91.8185 340.949 89.4291 343.851 82.6025C346.752 75.7758 343.851 69.2905 338.048 66.9011C332.245 64.5118 325.76 66.9011 322.859 73.8985C319.957 80.5545 322.859 87.0398 328.661 89.4291Z" fill="#D20000"/>
<path d="M257.323 22.016C128.299 22.016 23.5093 126.976 23.5093 255.829C23.5093 384.853 128.469 489.643 257.323 489.643C386.347 489.643 491.136 384.683 491.136 255.829C491.136 126.976 386.176 22.016 257.323 22.016ZM417.408 116.736C425.771 125.269 424.064 136.021 417.579 142.336C411.264 148.651 400 150.869 390.784 141.653L382.251 133.12L408.192 107.52L417.408 116.736ZM383.957 86.6986C389.76 91.136 390.272 97.4506 386.859 102.059C384.64 105.131 380.373 107.179 375.595 105.813L373.376 124.245L366.379 118.955L368.768 102.741L366.037 100.693L357.333 112.128L351.531 107.691L373.376 78.6773L383.957 86.6986ZM316.203 70.9973C320.469 60.928 331.051 56.4906 340.779 60.5866C350.507 64.6826 354.944 75.264 350.677 85.3333C346.411 95.4026 335.829 99.6693 326.101 95.5733C316.373 91.6479 311.936 81.0666 316.203 70.9973ZM289.237 45.9093L310.912 50.0053L309.717 56.1493L295.211 53.4186L293.504 62.1226L305.109 64.3413L303.915 70.4853L292.309 68.2666L289.408 82.944L282.24 81.5786L289.237 45.9093ZM242.304 43.6906L272.341 43.8613V50.176H260.907L260.736 80.2133H253.397L253.568 50.176H242.133L242.304 43.6906ZM203.051 50.8586L224.896 69.4613L219.776 46.9333L226.944 45.2266L235.136 80.7253L228.48 82.2613L206.805 63.8293L211.925 86.1866L204.757 87.8933L196.565 52.3946L203.051 50.8586ZM175.915 59.5626L178.645 65.1946L165.333 71.5093L169.088 79.5306L179.669 74.4106L182.4 80.0426L171.819 85.1626L175.573 93.0133L189.227 86.528L191.957 92.16L171.648 101.888L155.947 69.12L175.915 59.5626ZM127.616 87.7226C133.248 83.1146 139.563 84.1386 143.147 88.7466C145.536 91.6479 146.56 96.256 144 100.693L161.237 107.349L154.411 112.981L139.221 106.667L136.661 108.715L145.707 119.979L140.075 124.587L117.035 96.0853L127.616 87.7226ZM94.5066 119.467C99.2853 113.835 104.747 113.323 108.501 116.395C111.232 118.784 112.256 122.539 110.891 125.952C114.133 123.392 118.4 123.051 121.984 125.952C126.08 129.365 127.957 136.363 122.667 142.507L113.963 152.917L85.9733 129.536L94.5066 119.467ZM49.7919 268.8H45.6959V245.077L49.7919 242.517V268.8ZM67.1999 269.141C62.2506 269.141 58.3253 265.557 58.3253 260.779C58.3253 257.707 59.8613 255.317 62.2506 253.952C61.0559 252.928 60.3733 251.221 60.3733 249.344C60.3733 245.589 63.2746 242.517 67.1999 242.517C71.1253 242.517 74.0266 245.589 74.0266 249.344C74.0266 251.221 73.3439 252.757 72.1493 253.952C74.5386 255.317 76.0746 257.877 76.0746 260.779C76.0746 265.557 72.3199 269.141 67.1999 269.141ZM104.576 378.88L100.821 381.611L95.5306 374.443L86.4853 381.099L83.2426 376.661L105.259 360.448L115.157 373.76L111.403 376.491L104.747 367.616L99.4559 371.541L104.576 378.88ZM108.843 408.405C103.381 402.773 103.381 394.069 109.355 388.267C115.328 382.464 123.861 382.635 129.493 388.437C134.955 394.069 134.955 402.773 128.981 408.576C123.008 414.379 114.304 414.208 108.843 408.405ZM159.189 428.373C154.752 435.2 146.389 437.077 139.563 432.811C132.907 428.544 131.029 420.011 135.296 413.184C139.733 406.187 148.267 404.309 154.923 408.576C161.579 413.013 163.627 421.547 159.189 428.373ZM190.763 433.835L182.912 430.251L173.525 450.901L168.576 448.683L177.963 428.032L170.112 424.448L171.989 420.181L192.64 429.568L190.763 433.835ZM218.923 443.904C218.24 446.464 215.851 448.341 213.12 448.512C215.851 450.048 217.557 452.779 216.533 456.021C215.509 459.947 211.243 463.36 205.44 461.653L195.541 458.923L202.88 432.64L212.437 435.371C217.899 436.907 219.947 440.491 218.923 443.904ZM244.864 467.627L243.157 461.312L233.088 460.288L230.187 466.261L224.213 465.579L237.525 439.467L242.816 439.979L250.667 468.309L244.864 467.627ZM256.981 414.549C169.6 414.549 98.4319 343.381 98.4319 256C98.4319 246.443 99.4559 236.203 100.992 228.011C101.504 225.451 102.357 222.549 102.357 222.549L93.1413 191.147C91.2639 184.491 90.4106 182.613 91.4346 180.907C91.7759 180.224 92.6293 179.029 95.7013 178.347L122.837 171.52L123.349 170.496C151.509 126.635 200.832 97.4506 256.811 97.4506C312.448 97.4506 361.6 126.293 389.76 169.813L390.613 171.349L417.749 178.176C420.821 179.029 421.675 180.053 422.016 180.736C423.04 182.443 422.357 184.32 420.309 190.976L411.264 222.379C411.264 222.379 412.117 225.451 412.629 228.181C414.336 237.227 415.019 246.443 415.019 256C415.531 343.381 344.363 414.549 256.981 414.549ZM263.467 467.968L261.931 440.661L267.392 440.32L268.757 463.019L279.68 462.336L280.021 466.944L263.467 467.968ZM292.48 464.896L287.189 438.101L292.651 437.077L297.088 459.264L307.84 457.045L308.693 461.653L292.48 464.896ZM345.728 448.171C339.072 451.072 331.221 448.853 327.637 440.661C323.712 431.957 328.32 424.448 334.805 421.547C338.219 420.011 342.656 419.669 346.752 421.888L344.704 426.837C341.973 425.131 339.072 425.301 336.853 426.325C332.587 428.203 330.197 432.469 332.757 438.101C335.147 443.392 339.755 445.099 344.021 443.221C347.264 441.856 349.141 438.784 348.971 434.688L354.091 435.029C353.92 441.344 350.677 446.123 345.728 448.171ZM368.939 435.541L353.749 412.843L358.357 409.771L370.987 428.544L380.032 422.4L382.592 426.325L368.939 435.541ZM400.853 412.501C396.757 416.085 390.272 417.109 385.664 411.989L374.059 398.677L378.155 395.093L389.419 407.893C392.149 410.965 395.051 410.624 397.44 408.576C399.659 406.528 400.512 403.627 397.781 400.555L386.517 387.755L390.613 384.171L402.219 397.483C406.997 402.603 405.12 408.917 400.853 412.501ZM425.941 385.195L418.944 392.704L398.976 373.931L405.803 366.763C409.557 362.667 413.824 362.667 416.384 365.056C418.432 366.933 418.944 369.835 417.749 372.395C420.309 370.688 423.552 370.517 426.112 372.907C429.013 375.467 430.037 380.757 425.941 385.195ZM441.472 269.141C436.523 269.141 432.597 265.557 432.597 260.779C432.597 257.707 434.133 255.317 436.523 253.952C435.328 252.928 434.645 251.221 434.645 249.344C434.645 245.589 437.547 242.517 441.472 242.517C445.397 242.517 448.299 245.589 448.299 249.344C448.299 251.221 447.616 252.757 446.421 253.952C448.811 255.317 450.347 257.877 450.347 260.779C450.347 265.387 446.592 269.141 441.472 269.141ZM464.853 268.8H460.416L465.877 259.413C465.536 259.413 465.195 259.584 464.853 259.584C460.587 259.584 456.491 256.171 456.491 251.051C456.491 246.272 460.245 242.517 465.195 242.517C470.144 242.517 473.899 246.272 473.899 251.051C473.899 252.928 473.216 254.464 472.363 256L464.853 268.8Z" fill="#D20000"/>
<path d="M413.312 369.834C411.776 368.298 409.899 369.152 408.875 370.346L406.144 373.248L410.752 377.514L413.312 374.613C414.507 373.077 414.677 371.2 413.312 369.834Z" fill="#D20000"/>
<path d="M113.109 392.363C109.184 396.288 109.184 401.579 112.427 404.992C115.669 408.405 120.96 408.576 125.056 404.821C129.152 400.896 128.981 395.605 125.738 392.192C122.496 388.608 117.205 388.437 113.109 392.363Z" fill="#D20000"/>
<path d="M416.896 377.514L413.995 380.586L419.285 385.536L422.016 382.634C423.723 380.928 424.064 378.368 422.357 376.832C420.48 375.125 418.432 375.808 416.896 377.514Z" fill="#D20000"/>
</svg>
