<svg width="512" height="512" viewBox="0 0 512 512" fill="none" xmlns="http://www.w3.org/2000/svg">
<g clip-path="url(#clip0_1_3044)">
<g clip-path="url(#clip1_1_3044)">
<mask id="mask0_1_3044" style="mask-type:luminance" maskUnits="userSpaceOnUse" x="0" y="0" width="512" height="512">
<path d="M0 0H511.999V511.999H0V0Z" fill="white"/>
</mask>
<g mask="url(#mask0_1_3044)">
<path d="M511.999 255.998C511.999 397.384 397.384 511.999 256.001 511.999C114.615 511.999 0 397.384 0 255.998C0 114.612 114.615 -0.00362396 256.001 -0.00362396C397.384 -0.00362396 511.999 114.612 511.999 255.998Z" fill="#0059AA"/>
</g>
<path d="M502.249 255.998C502.249 391.999 391.999 502.252 256.002 502.252C120 502.252 9.75098 391.999 9.75098 255.998C9.75098 119.996 120 9.74725 256.002 9.74725C391.999 9.74725 502.249 119.996 502.249 255.998ZM72.4197 257.574C73.264 358.243 155.134 439.587 256.002 439.587C357.391 439.587 439.587 357.395 439.587 255.998C439.587 244.765 438.58 233.768 436.645 223.089L436.594 222.477C440.692 223.357 445.196 224.35 449.903 225.415C468.137 229.546 483.95 232.68 488.222 231.967C492.498 231.256 490.073 228.691 483.95 225.557C477.822 222.422 464.151 216.581 448.762 212.168C443.156 210.559 437.656 208.957 433.173 207.649L432.963 206.957C411.512 129.374 340.408 72.4124 256.002 72.4124C161.453 72.4124 83.5946 143.883 73.5176 235.75L73.3401 236.808C67.7562 237.71 60.4838 238.743 51.7475 239.659C27.3903 242.225 20.9295 241.747 20.2664 243.08C19.27 245.073 22.0746 249.903 31.945 253.193C38.2463 255.295 53.7658 257.074 72.369 256.393L72.4197 257.574Z" fill="white"/>
<path d="M388.64 287.892C371.128 290.273 349.923 298.284 333.592 302.98C316.496 307.894 297.907 314.09 277.819 313.238C257.734 312.38 234.442 306.397 214.784 302.767C195.126 299.132 184.444 296.57 168.631 300.415C152.818 304.263 146.629 308.93 136.791 308.749C125.04 308.535 110.938 304.049 100.038 292.936C89.1422 281.826 86.3629 271.358 90.2111 266.655C94.0557 261.955 104.27 264.288 124.827 266.727C150.039 269.716 170.697 268.151 183.23 265.017C195.768 261.882 215.567 256.61 215.567 256.61C221.408 261.741 224.115 260.458 224.115 260.458C224.115 260.458 219.556 255.614 207.022 249.349C194.485 243.08 173.545 244.79 153.315 246.497C133.088 248.207 107.908 252.117 81.8046 253.762C60.4331 255.396 40.116 253.44 32.6914 250.965C27.575 249.258 24.5385 247.033 23.2195 245.609C22.7666 245.116 22.7956 244.591 23.6689 244.497C25.0929 244.337 27.1474 244.185 29.4882 244.008C34.2713 243.649 41.5074 243.16 51.9939 241.997C91.0663 237.666 113.572 231.398 137.647 224.133C167.787 215.038 201.609 203.479 218.846 202.196C233.663 201.094 237.79 202.765 255.882 213.592C274.898 224.97 289.215 235.815 299.476 242.504C303.553 245.174 308.64 248.374 313.71 251.204C320.116 254.773 322.352 253.016 322.352 253.016C312.594 248.49 300.313 240.312 295.001 236.663C295.001 236.663 308.59 229.474 320.449 223.491C332.309 217.509 353.354 208.214 368.526 204.475C376.697 202.46 383.459 200.989 393.634 201.482C403.355 202.123 414.574 204.558 425.847 207.508C430.586 208.747 439.293 211.45 448.233 214.016C458.172 216.867 467.089 220.212 473.72 222.998C477.804 224.712 481.04 226.184 483.073 227.271C485.874 228.763 487.74 229.503 487.696 230.093C487.653 230.684 486.58 230.495 480.388 229.557C473.985 228.59 463.933 226.622 450.327 223.538C432.275 219.451 416.951 216.436 416.795 216.404C408.657 214.875 399.185 218.792 389.68 223.172C374.617 230.115 361.37 238.235 355.601 242.083C349.832 245.928 345.343 247.852 345.343 247.852C359.018 247.638 370.983 256.824 377.607 261.955C384.234 267.082 388.292 270.289 391.927 271.14C392.141 271.191 392.362 271.238 392.594 271.282L392.677 271.851C392.767 273.304 392.514 275.26 390.785 276.413C387.792 278.406 381.669 279.83 376.541 279.83C371.41 279.83 367.566 282.109 367.566 282.109C367.566 282.109 374.686 281.826 379.817 283.109C383.643 284.066 386.521 285.261 388.205 287.109L388.64 287.892ZM361.866 272.423C365.439 272.126 366.142 269.434 366.142 269.434C366.142 269.434 364.573 266.727 361.725 266.582C359.022 266.448 357.166 269.434 357.166 269.434C357.166 269.434 358.449 272.709 361.866 272.423Z" fill="white"/>
<path d="M392.677 271.851C392.767 273.304 392.514 275.26 390.785 276.413C387.792 278.406 381.669 279.83 376.541 279.83C371.41 279.83 367.566 282.109 367.566 282.109C367.566 282.109 374.686 281.826 379.817 283.109C383.643 284.066 386.521 285.261 388.205 287.109L388.64 287.892C389.459 287.78 390.271 287.682 391.072 287.595C409.019 285.671 420.556 289.519 420.556 289.519C420.556 289.519 421.201 281.612 411.371 276.699C402.12 272.072 396.279 271.988 392.594 271.282L392.677 271.851Z" fill="#FBAB1E"/>
<path d="M175.719 473.597L176.107 467.647L165.591 463.368L161.67 467.879L155.645 465.426L178.455 440.214L182.98 442.058L181.748 476.047L175.719 473.597ZM177.31 449.925L169.189 459.165L176.545 462.158L177.31 449.925Z" fill="#0059AA"/>
<path d="M193.612 479.438L200.957 448.345L207.026 449.78L200.96 475.46L215.067 478.79L213.788 484.207L193.612 479.438Z" fill="#0059AA"/>
<path d="M240.464 487.251L227.133 486.232L229.564 454.375L242.362 455.353C248.58 455.828 251.939 459.596 251.523 465.053C251.251 468.59 248.751 470.695 247.08 471.329C248.936 472.373 251.244 474.572 250.918 478.822C250.465 484.776 246.149 487.685 240.464 487.251ZM240.862 473.826L234.373 473.329L233.775 481.16L240.264 481.656C243.084 481.87 244.562 480.185 244.725 478.036C244.888 475.887 243.678 474.039 240.862 473.826ZM241.446 460.864L235.362 460.4L234.8 467.738L240.888 468.202C243.526 468.405 245.113 467.039 245.283 464.846C245.45 462.654 244.084 461.067 241.446 460.864Z" fill="#0059AA"/>
<path d="M264.27 487.627L262.727 455.715L268.955 455.414L270.503 487.323L264.27 487.627Z" fill="#0059AA"/>
<path d="M304.176 479.594C302.353 482.192 299.875 483.903 296.295 484.529C292.715 485.156 289.754 484.399 287.16 482.576C283.417 479.953 282.819 476.003 281.866 470.568C280.913 465.133 280.134 461.212 282.757 457.473C284.58 454.875 287.106 453.157 290.686 452.53C294.266 451.903 297.179 452.668 299.773 454.49C303.517 457.114 304.162 461.056 305.114 466.495C306.067 471.93 306.799 475.855 304.176 479.594ZM295.875 459.002C294.809 458.139 293.327 457.715 291.646 458.009C289.965 458.306 288.667 459.216 287.961 460.386C287.001 461.922 286.946 463.437 288.008 469.492C289.07 475.547 289.635 476.953 291.062 478.065C292.124 478.927 293.653 479.344 295.335 479.047C297.012 478.757 298.266 477.851 298.973 476.681C299.933 475.144 300.031 473.626 298.969 467.568C297.907 461.513 297.299 460.118 295.875 459.002Z" fill="#0059AA"/>
<path d="M340.263 472.05L321.75 457.842L328.349 476.311L322.475 478.409L311.724 448.323L316.963 446.45L335.465 460.614L328.878 442.192L334.751 440.094L345.502 470.18L340.263 472.05Z" fill="#0059AA"/>
<path d="M91.0156 144.941L83.6707 156.116L56.9727 138.56L64.024 127.838C67.4519 122.627 72.3726 121.511 76.9455 124.519C79.9095 126.468 80.54 129.675 80.29 131.443C82.0981 130.323 85.1419 129.374 88.7038 131.715C93.6898 134.994 94.1463 140.179 91.0156 144.941ZM68.4012 131.309L65.0495 136.407L71.1986 140.451L74.5503 135.349C76.007 133.139 75.583 131.088 73.7459 129.881C71.9088 128.671 69.8579 129.095 68.4012 131.309ZM79.4602 138.096L75.8838 143.531L82.446 147.847L86.0224 142.408C87.5733 140.049 86.8159 137.936 85.0151 136.751C83.2142 135.57 81.0147 135.733 79.4602 138.096Z" fill="#0059AA"/>
<path d="M113.503 117.181L99.8968 113.162L96.8639 116.467L106.252 125.084L102.035 129.678L78.4927 108.079L86.9572 98.8568C91.3562 94.0593 97.2371 94.2187 101.172 97.8313C104.481 100.864 104.68 104.763 103.412 107.8L118.384 111.858L113.503 117.181ZM90.7836 102.915L86.8086 107.245L93.0266 112.949L96.998 108.619C98.8496 106.6 98.7735 104.093 96.9545 102.426C95.1391 100.759 92.6353 100.897 90.7836 102.915Z" fill="#0059AA"/>
<path d="M124.638 106.684L103.904 82.377L108.651 78.3296L129.385 102.632L124.638 106.684Z" fill="#0059AA"/>
<path d="M152.017 82.2937C151.347 85.7542 149.499 88.3232 146.51 90.3089C143.665 92.1931 140.629 92.8055 137.393 92.1497C135.465 91.7619 133.863 90.8851 132.57 89.5878C131.28 88.2906 129.667 86.1817 127.732 83.2648C125.801 80.3479 124.486 78.0433 123.794 76.3475C123.076 74.6155 122.92 72.8363 123.308 70.9086C123.964 67.6728 125.714 65.1146 128.559 63.2304C134.614 59.2119 140.447 60.9476 144.234 65.111L138.998 68.5823C136.65 66.4263 134.211 66.1582 131.631 67.8685C130.247 68.7852 129.446 70.0136 129.243 71.4956C129.091 73.3762 129.436 74.5466 132.932 79.8188C136.404 85.0548 137.32 85.9534 139.186 86.4934C140.592 86.9064 142.013 86.6129 143.433 85.6708C144.966 84.6526 145.879 83.3481 146.144 81.7176C146.336 80.3008 145.952 78.8332 144.984 77.373L144.317 76.362L139.418 79.6123L136.541 75.2713L146.6 68.6041L149.18 72.4921C151.76 76.3837 152.561 79.134 152.017 82.2937Z" fill="#0059AA"/>
<path d="M179.447 72.3399L173.961 60.1467L164.102 64.5819L169.584 76.7751L163.899 79.3369L150.793 50.1966L156.482 47.6384L161.837 59.5489L171.7 55.1101L166.341 43.2032L172.03 40.645L185.136 69.7817L179.447 72.3399Z" fill="#0059AA"/>
<path d="M199.594 37.873L206.54 63.3246L200.522 64.966L193.579 39.5144L185.528 41.7103L184.06 36.3402L206.182 30.3071L207.646 35.6735L199.594 37.873Z" fill="#0059AA"/>
<path d="M240.286 54.3383C238.326 56.8349 235.757 58.4075 232.148 58.8387C228.539 59.2699 225.629 58.3531 223.133 56.3928C219.542 53.5664 219.158 49.5914 218.502 44.1127C217.846 38.6303 217.281 34.6771 220.103 31.0862C222.067 28.5895 224.68 27.0133 228.289 26.5821C231.898 26.1473 234.764 27.0713 237.257 29.0316C240.852 31.8543 241.279 35.8257 241.935 41.3081C242.591 46.7868 243.109 50.7474 240.286 54.3383ZM233.115 33.3219C232.104 32.4051 230.64 31.9014 228.948 32.1044C227.256 32.3073 225.908 33.1479 225.14 34.2785C224.1 35.7605 223.962 37.2679 224.694 43.3699C225.423 49.4755 225.912 50.9068 227.274 52.0989C228.289 53.0193 229.796 53.5157 231.488 53.3128C233.181 53.1099 234.481 52.2765 235.25 51.1459C236.293 49.6639 236.474 48.1529 235.742 42.0473C235.014 35.9453 234.481 34.5176 233.115 33.3219Z" fill="#0059AA"/>
<path d="M271.731 57.6538L259.969 37.4961L259.089 57.0849L252.86 56.8059L254.291 24.8899L259.853 25.14L271.615 45.2505L272.492 25.7052L278.721 25.9842L277.29 57.9038L271.731 57.6538Z" fill="#0059AA"/>
<path d="M320.083 67.5496L318.641 64.2159C316.891 64.9117 314.246 66.0929 309.858 64.7885C303.104 62.781 300.799 58.2553 302.509 52.4939C303.672 48.5805 307.267 46.8847 310.459 45.9136C309.633 44.1235 308.466 41.4385 309.336 38.5107C310.575 34.3401 314.514 32.2783 319.63 33.8002C324.446 35.2314 326.551 39.1811 325.312 43.3554C324.606 45.7179 322.884 46.939 320.583 47.7543C320.583 47.7543 318.848 48.4065 317.92 48.6928L321.265 56.3348C322.649 55.2949 323.674 53.5882 324.41 51.4177L329.7 52.9903C328.309 56.8856 326.472 59.7554 323.605 61.5273L327.182 69.6585L320.083 67.5496ZM312.445 50.2509C310.213 50.9901 308.608 51.8235 307.955 54.0194C307.202 56.5558 308.742 58.9329 311.322 59.701C313.13 60.2373 314.63 60.0743 316.42 59.2481L312.445 50.2509ZM318.21 38.5759C316.532 38.0759 315.355 38.8948 314.931 40.3152C314.597 41.4349 315.228 42.7901 315.931 44.3555C316.438 44.2286 317.474 43.8808 317.474 43.8808C318.67 43.4858 319.688 42.8988 320.007 41.8262C320.428 40.4058 319.801 39.047 318.21 38.5759Z" fill="#0059AA"/>
<path d="M361.214 87.1492L367.986 75.6191L358.663 70.144L351.89 81.674L346.513 78.5143L362.692 50.9647L368.069 54.1244L361.457 65.3827L370.783 70.8615L377.396 59.6032L382.774 62.7593L366.595 90.3089L361.214 87.1492Z" fill="#0059AA"/>
<path d="M391.76 106.068C388.6 106.361 385.694 105.575 382.897 103.252C380.103 100.926 378.77 98.1828 378.48 95.0231C378.059 90.472 380.683 87.4608 384.212 83.2177C387.742 78.9709 390.227 75.8438 394.775 75.4271C397.934 75.1373 400.877 75.9489 403.674 78.2716C406.468 80.5979 407.769 83.3155 408.059 86.4716C408.479 91.0227 405.888 94.0665 402.359 98.3096C398.829 102.553 396.311 105.651 391.76 106.068ZM402.094 86.4173C402.065 85.0476 401.424 83.6416 400.116 82.551C398.804 81.4603 397.268 81.0617 395.916 81.2791C394.126 81.54 392.938 82.4785 389.006 87.2036C385.075 91.9322 384.372 93.2693 384.44 95.0775C384.469 96.4472 385.143 97.8821 386.455 98.9727C387.767 100.063 389.267 100.437 390.615 100.216C392.409 99.9547 393.633 99.0452 397.565 94.3201C401.496 89.5951 402.167 88.2254 402.094 86.4173Z" fill="#0059AA"/>
<path d="M406.011 125.45L402.906 121.964L419.737 92.8345L424.035 97.6574L412.762 116.3L432.575 107.234L436.905 112.093L406.011 125.45Z" fill="#0059AA"/>
<path d="M416.944 138.781L443.649 121.246L455.197 138.842L450.548 141.893L442.421 129.515L436.155 133.628L443.076 144.169L438.424 147.223L431.507 136.683L425.017 140.94L433.141 153.322L428.492 156.373L416.944 138.781Z" fill="#0059AA"/>
</g>
</g>
<defs>
<clipPath id="clip0_1_3044">
<rect width="512" height="512" fill="white"/>
</clipPath>
<clipPath id="clip1_1_3044">
<rect width="511.999" height="511.999" fill="white"/>
</clipPath>
</defs>
</svg>
