<svg width="512" height="512" viewBox="0 0 512 512" fill="none" xmlns="http://www.w3.org/2000/svg">
<g clip-path="url(#clip0_1_2826)">
<path d="M174.315 405.43C174.315 405.43 117.017 376.692 89.1034 332.61C89.2518 370.489 87.382 417.74 87.382 417.74L175.079 434.969L174.315 405.43Z" fill="white"/>
<path d="M325.726 406.209C325.726 406.209 383.024 379.735 410.938 335.66C410.789 373.532 412.667 417.732 412.667 417.732L324.962 434.969L325.726 406.209Z" fill="white"/>
<path d="M326.345 461.492H173.923V391.93H326.345V461.492Z" fill="white"/>
<path d="M295.484 397.078C295.484 421.727 275.235 441.731 250.259 441.731C225.291 441.731 205.042 421.727 205.042 397.078C205.042 372.414 225.291 352.417 250.259 352.417C275.235 352.417 295.484 372.414 295.484 397.078Z" fill="white"/>
<path d="M68.0358 420.387V355.136L64.1403 353.674V344.852L68.0358 343.123V336.972L64.1403 335.517V324.996L76.9398 312.857V309.985C76.9398 309.985 77.3702 307.462 80.6498 307.462H84.4266C84.4266 307.462 87.3798 307.893 87.3798 309.985V312.664L100.506 325.033L100.38 335.555L96.4767 336.935V343.071L100.461 344.778V354.49V414.11L68.0358 420.387Z" fill="white"/>
<path d="M433.533 420.387V355.136L437.429 353.674V344.852L433.533 343.123V336.972L437.429 335.517V324.996L424.629 312.857V309.985C424.629 309.985 424.199 307.462 420.919 307.462H417.135C417.135 307.462 414.189 307.893 414.189 309.985V312.664L401.063 325.033L401.182 335.555L405.085 336.935V343.071L401.108 344.778V354.49V414.11L433.533 420.387Z" fill="white"/>
<path d="M246.294 512C214.603 512 194.346 501.137 173.007 489.688C161.698 483.634 150.012 477.364 136.278 472.756C97.4264 459.712 71.8422 475.694 70.7738 476.384L65.5946 468.4C66.8115 467.606 95.8905 449.16 139.305 463.733C153.796 468.601 165.839 475.063 177.496 481.311C199.533 493.124 220.316 504.291 254.537 502.236C286.547 500.314 308.548 489.436 329.821 478.914C338.888 474.425 347.458 470.189 356.54 466.775C357.126 466.553 357.824 466.278 358.625 465.967C370.008 461.463 404.666 447.795 434.591 470.582L428.826 478.15C403.168 458.606 373.347 470.381 362.113 474.811C361.267 475.145 360.525 475.442 359.887 475.679C351.257 478.929 342.887 483.062 334.035 487.44C312.94 497.865 289.033 509.693 255.116 511.733C252.081 511.911 249.143 512 246.294 512Z" fill="white"/>
<path d="M416.031 494.809L409.301 490.476C407.795 489.504 403.825 488.888 399.796 489.533C399.084 489.645 398.334 489.815 397.592 489.978C394.216 490.728 390.009 491.64 386.744 489.021C385.409 487.945 383.798 485.868 383.798 482.054C383.791 479.153 385.045 476.57 387.323 474.797C394.758 469.017 413.004 473.053 418.42 474.426C422.019 475.413 425.996 475.376 426.775 474.664C428.623 454.125 436.97 439.27 441.667 432.37C407.936 411.979 356.315 423.057 336.963 435.412C308.122 453.836 284.074 465.262 253.362 465.396C227.192 465.418 204.984 454.637 181.544 443.166C168.418 436.74 154.854 430.099 139.94 425.091C108.583 414.562 72.9153 426.411 59.3663 431.82C64.4045 438.751 72.0842 452.352 72.9153 471.822C73.6498 472.727 77.6047 472.957 81.1589 472.17C86.7313 471.035 105.148 467.882 112.293 474.011C114.482 475.895 115.617 478.522 115.476 481.416C115.291 485.222 113.592 487.233 112.197 488.242C108.813 490.706 104.658 489.585 101.312 488.672C100.57 488.48 99.8424 488.279 99.145 488.138C95.1456 487.292 91.1536 487.715 89.5954 488.621L82.68 492.613L82.4129 481.601C79.6823 482.128 71.9433 483.197 67.1648 479.546C64.8572 477.78 63.5661 475.25 63.4399 472.222C62.3714 447.328 48.5109 433.505 48.3699 433.371L43.5543 428.667L49.6091 425.714C51.6347 424.727 99.8647 401.636 142.953 416.097C158.46 421.306 172.321 428.096 185.707 434.655C208.033 445.585 229.121 455.906 253.006 455.906H253.325C281.744 455.787 304.449 444.924 331.858 427.413C354.519 412.959 413.79 400.553 451.224 427.309L455.461 430.344L452.055 434.276C451.921 434.425 438.476 450.341 436.206 475.346C435.939 478.366 434.529 480.837 432.14 482.484C427.243 485.868 419.652 484.488 416.81 483.805L416.031 494.809Z" fill="white"/>
<path d="M111.755 474.026C111.755 474.026 107.021 469.278 105.048 465.79C101.152 458.882 70.6781 472.513 70.6781 472.513L78.9885 474.301" fill="white"/>
<path d="M386.206 475.842C386.206 475.842 391.051 471.205 393.099 467.769C397.18 460.958 427.306 475.3 427.306 475.3L418.958 476.896" fill="white"/>
<path d="M67.1343 474.298C67.1343 474.298 66.474 455.555 62.2742 447.245C58.0671 438.927 56.3828 430.557 56.3828 430.557C56.3828 430.557 81.9298 417.698 98.5803 417.387C115.223 417.075 156.657 424.273 169.56 431.388C182.471 438.512 217.263 457.596 235.309 461.491C253.361 465.387 283.175 460.749 301.821 453.077C320.468 445.405 332.941 432.19 340.495 428.836C348.048 425.482 372.423 416.667 388.814 415.198C405.204 413.714 424.942 420.429 436.064 422.529C447.187 424.629 445.547 428.836 445.547 428.836L432.169 471.412C432.169 471.412 410.777 464.14 396.434 463.725C382.091 463.302 357.694 474.09 350.133 476.888C342.587 479.693 309.353 493.561 298.653 497.768C287.954 501.967 251.811 511.628 231.213 507.013C210.622 502.39 170.614 482.082 160.151 476.888C149.682 471.701 111.832 459.228 106.816 461.61C101.801 463.984 67.1343 474.298 67.1343 474.298Z" fill="white"/>
<path d="M275.965 316.47C276.047 316.522 276.136 316.552 276.21 316.589L274.949 316.797L275.965 316.47ZM423.92 68.0486C423.163 65.7336 419.223 63.9453 403.263 63.9453C397.045 63.9453 391.25 64.1976 391.19 64.1976C390.938 64.205 390.701 64.257 390.463 64.3238C380.587 65.0435 371.156 67.3215 362.638 71.024C373.939 57.3935 391.539 48.8753 402.179 44.6756C402.728 44.453 404.301 43.7333 404.635 43.2213C405.147 42.4051 406.023 41.6631 405.303 40.3349C404.064 38.0718 399.226 37.4856 395.991 37.4856C392.518 37.4856 387.584 37.9605 381.411 38.888C378.472 39.2219 375.571 39.6968 372.796 40.3052C372.67 40.3275 372.544 40.3571 372.425 40.4017C360.167 43.1545 348.57 48.6453 338.887 56.2805C337.529 57.3564 336.223 58.4694 334.939 59.6046L342.738 46.3303C346.96 39.4371 351.523 33.0633 356.346 27.3944C356.672 27.016 356.888 26.556 356.984 26.0737C357.177 25.1091 358.275 23.5954 357.652 22.8311C357.251 22.3562 356.361 21.5549 354.773 21.5549C353.363 21.5549 348.703 22.0298 330.829 35.6084C314.007 47.3616 299.59 62.5875 289.069 79.7203C284.847 87.2887 277.464 101.335 275.008 111.226C274.867 110.224 274.726 109.23 274.622 108.265C274.177 104.295 273.939 100.177 273.873 95.2948C273.791 89.4553 274.051 84.2242 274.288 80.8704C274.392 79.4605 274.125 76.1364 272.76 75.8099C271.387 75.4686 269.302 78.2066 268.745 79.5051C260.005 99.5168 257.704 116.16 257.23 126.088L254.032 155.286C253.668 157.304 252.147 167.054 252.147 167.054C249.721 162.832 248.014 159.7 246.159 155.122C246.092 154.966 246.018 154.826 245.929 154.677L243.176 150.277C243.109 150.158 243.028 150.04 242.939 149.943C238.769 144.987 234.554 142.427 229.679 139.481C222.83 135.326 214.312 130.169 201.654 115.522C194.672 107.434 186.576 91.1025 183.965 79.8612C178.785 57.5938 179.268 30.9709 185.219 7.05621C185.76 5.46091 186.139 2.54483 185.426 1.55057C184.885 0.793732 183.868 0.274353 182.926 0.274353C181.063 0.274353 179.379 1.91415 167.7 20.4716C167.67 20.5235 167.641 20.568 167.611 20.62C159.946 32.8333 154.529 46.7977 151.969 61.0441C151.398 64.1457 150.975 67.2398 150.678 70.3117C147.97 63.5744 145.729 56.5996 143.978 49.4838C140.238 34.2357 138.999 18.7575 140.409 4.74115C140.498 3.8656 140.691 1.52832 140.068 0.905029C139.467 0.333679 138.636 -0.000213623 137.768 -0.000213623C135.193 -0.000213623 131.238 3.31653 123.009 25.302C115.181 46.2264 112.658 65.4071 115.107 86.3834C106.218 74.8156 102.211 58.5362 98.6048 43.8817C97.707 40.2459 96.8315 36.6768 95.904 33.2637C95.4439 31.5496 94.2048 27.4019 92.6466 28.1884C92.5353 28.2329 92.4314 28.2997 92.3275 28.3739C92.3201 28.3813 92.3053 28.3887 92.2904 28.3961C92.2311 28.4332 92.1791 28.4778 92.1272 28.5297C92.053 28.5891 91.9788 28.641 91.9194 28.7003C91.6004 29.0046 90.4725 32.6255 90.2796 33.0188C89.7825 33.9537 89.456 35.319 89.2631 37.3076C89.2556 37.404 89.2482 37.4931 89.2482 37.5895C89.2482 38.2722 89.2037 38.9548 89.1666 39.6375C89.1221 40.3943 89.0701 41.1437 89.0701 41.9005C88.0091 52.897 87.1706 81.3452 101.773 111.077L102.107 111.849C102.3 112.294 102.5 112.747 102.701 113.199C104.289 116.546 106.084 119.625 107.806 122.586C108.377 123.565 108.933 124.53 109.483 125.494C111.501 129.034 113.267 131.193 115.085 133.248C106.841 131.564 94.6574 129.137 88.7808 128.254C87.4229 128.076 86.1318 128.818 85.6421 130.087C85.1598 131.363 85.6199 132.803 86.77 133.545C91.6746 136.765 100.623 144.831 110.017 153.572L109.883 153.609L126.549 169.109L128.07 170.534C133.509 175.653 139.155 180.944 144.549 185.849L133.123 184.713C131.861 184.565 130.637 185.307 130.155 186.494C129.665 187.681 130.014 189.047 131.015 189.855L157.609 211.381L157.586 211.388L169.221 220.648C169.303 220.73 169.369 220.834 169.466 220.908L189.433 236.972C189.923 237.366 190.539 237.588 191.169 237.61L196.289 237.744C185.449 242.248 175.535 242.396 163.931 238.508C154.989 235.511 146.427 230.843 139.177 225.004C138.146 224.173 135.512 222.629 134.451 223.416C133.39 224.21 134.176 227.133 134.673 228.365C136.937 233.908 141.107 238.79 145.321 243.183C131.564 241.365 119.01 237.573 104.712 231.029C103.532 230.487 101.38 229.092 100.534 230.064C99.6956 231.044 100.371 234.145 101.068 235.236C107.539 245.275 112.725 252.161 117.875 257.526C123.291 263.158 130.437 268.923 133.954 271.03C134.622 271.446 136.425 272.514 144.987 272.514C148.222 272.514 151.821 272.351 154.841 272.062C155.219 272.024 155.59 271.987 155.947 271.958C147.406 274.978 139.526 276.098 132.737 275.245C131.268 275.03 127.921 275.178 127.573 276.61C127.231 278.057 129.999 280.357 131.394 280.854C141.581 284.49 151.547 286.976 161.089 288.23C164.227 289.113 173.168 291.45 182.8 292.296C183.453 292.355 184.061 292.355 184.647 292.34C185.441 292.422 186.235 292.481 186.999 292.563C190.694 292.897 194.189 293.231 197.914 293.231C200.979 293.231 204.006 293.001 207.152 292.511C207.182 292.889 207.278 293.26 207.456 293.609L209.133 296.904C208.525 297.008 207.931 297.304 207.493 297.787C206.647 298.692 206.469 300.042 207.056 301.133L210.669 307.885C210.751 308.041 210.847 308.197 210.958 308.33C210.988 308.353 211.07 308.464 211.226 308.65C211.07 308.716 210.921 308.813 210.773 308.909C209.794 309.592 209.341 310.824 209.63 311.981C211.5 319.505 215.136 322.147 217.8 324.083C219.618 325.396 220.716 326.19 221.287 328.253C221.673 329.618 222.296 331.147 222.949 332.787C224.329 336.23 226.407 341.431 225.108 343.494C223.365 346.276 222.17 347.078 220.174 348.398C218.935 349.23 217.392 350.268 215.507 351.953C210.988 356.019 210.669 361.413 214.572 368.002L214.809 368.388C215.403 369.434 216.598 369.991 217.792 369.805C218.987 369.605 219.929 368.692 220.167 367.498C221.072 362.853 228.707 359.172 230.199 359.076C232.825 358.898 235.311 358.727 237.018 357.021C239.8 354.245 254.885 354.075 254.885 354.075C254.885 354.075 256.651 354.134 259.433 354.705C259.968 354.973 260.517 355.21 261.006 355.522C261.489 355.833 262.001 355.997 262.572 355.959C262.898 355.959 267.959 358 268.374 358.482C269.124 359.365 277.679 364.099 278.673 364.633C279.252 364.938 284.231 371.579 284.951 371.579C286.108 373.285 286.546 372.81 286.576 371.067C289.818 369.152 292.734 364.886 293.855 360.337C294.975 355.804 294.3 351.493 291.926 347.864C291.792 347.656 291.636 347.471 291.451 347.308C290.946 346.848 289.633 345.801 288.089 344.585C285.982 342.93 282.465 340.162 281.753 339.346C279.616 336.905 278.577 334.249 277.546 331.229C278.362 331.177 279.126 330.783 279.645 330.13C280.187 329.448 280.387 328.535 280.195 327.682L279.809 326.012C279.215 323.46 278.54 320.573 277.998 317.405L277.961 317.242C278.087 317.257 278.206 317.264 278.325 317.264C278.332 317.264 278.347 317.257 278.369 317.264C279.972 317.264 281.27 315.966 281.27 314.363C281.27 313.821 281.122 313.317 280.87 312.886L277.664 304.212C277.961 304.546 278.176 304.791 278.273 304.895C279.067 305.726 280.981 307.143 282.072 306.75C283.148 306.379 283.185 304.272 283.274 303.129C283.726 297.341 288.149 291.48 292.92 288.044C293.187 288.831 293.447 289.358 293.513 289.484C294.011 290.456 294.055 292.57 295.146 292.57C295.161 292.57 295.183 292.57 295.205 292.563C296.303 292.548 297.134 291.02 298.715 289.387C300.711 287.31 302.388 285.514 304.488 284.898L314.497 288.927C315.091 290.715 316.33 293.624 318.511 295.39C320.389 296.904 322.214 298.054 325.523 300.154C325.872 300.376 326.243 300.606 326.636 300.859C326.332 301.007 326.006 301.155 325.627 301.289C324.484 301.697 321.197 302.78 321.19 303.997C321.19 305.207 324.455 306.305 325.597 306.728C327.816 307.559 330.265 308.004 332.661 308.004C337.588 308.004 341.899 306.238 344.504 303.174C346.648 300.643 347.472 297.438 346.885 293.921C346.448 291.287 345.409 284.787 345.075 282.694L347.783 273.827C347.865 273.553 347.909 273.256 347.909 272.967C347.887 268.767 346.685 264.078 344.348 259.025L344.237 258.691C344.133 258.342 343.955 258.03 343.739 257.763C343.613 257.496 343.487 257.266 343.376 257.051C342.745 255.671 341.973 254.291 340.987 252.777C333.811 240.949 323.602 231.311 323.171 230.903C322.303 230.094 320.596 228.677 319.52 229.174C318.445 229.678 318.222 232.001 318.289 233.188L318.326 233.819C317.628 232.157 314.957 229.374 314.364 228.484C313.073 226.555 312.115 224.581 311.767 223.164C320.381 183.311 346.744 156.777 347.004 156.51C347.479 156.035 347.783 155.412 347.843 154.736C353.556 97.7137 418.681 72.6119 419.342 72.3671C419.587 72.278 421.271 71.7512 421.479 71.6028C423.742 69.9333 424.105 68.62 423.92 68.0486Z" fill="white"/>
<path d="M246.338 508.905C215.27 508.905 195.31 498.198 174.275 486.92C162.863 480.806 151.08 474.491 137.123 469.802C96.7875 456.253 69.5636 473.549 69.289 473.72L67.0704 470.314C68.2428 469.557 96.2236 451.786 138.421 465.951C152.697 470.744 164.636 477.148 176.196 483.336C198.583 495.342 219.722 506.687 254.693 504.587C287.244 502.628 309.489 491.632 331.007 480.984C340.015 476.525 348.526 472.317 357.489 468.949C358.09 468.719 358.803 468.444 359.611 468.125C371.817 463.309 404.228 450.532 432.921 472.377L430.457 475.612C403.59 455.147 372.722 467.316 361.103 471.909C360.272 472.228 359.537 472.525 358.914 472.755C350.151 476.05 341.722 480.212 332.81 484.635C311.953 494.948 288.313 506.635 254.937 508.638C251.977 508.816 249.113 508.905 246.338 508.905Z" fill="#292D6B"/>
<path d="M242.115 476.849L241.195 476.82L240.972 483.587L241.811 483.616C244.296 483.691 245.684 482.644 245.765 480.27C245.847 478.074 244.593 476.931 242.115 476.849Z" fill="#1B458F"/>
<path d="M262.593 485.817L267.201 485.186L263.87 477.595L262.593 485.817Z" fill="#1B458F"/>
<path d="M194.679 473.796L196.237 465.657L190.531 471.711L194.679 473.796Z" fill="#1B458F"/>
<path d="M112.011 432.737L110.512 432.648L110.104 439.4L111.64 439.496C114.052 439.637 115.439 438.472 115.573 436.246C115.699 434.132 114.423 432.878 112.011 432.737Z" fill="#1B458F"/>
<path d="M307.303 473.121L311.539 471.206L306.19 464.87L307.303 473.121Z" fill="#1B458F"/>
<path d="M418.683 455.702C416.724 455.857 415.017 454.403 414.847 452.452C414.691 450.493 416.145 448.779 418.111 448.615C420.063 448.452 421.777 449.914 421.933 451.865C422.103 453.824 420.634 455.538 418.683 455.702ZM413.118 435.608C411.886 434.406 410.409 433.442 408.443 433.226C404.993 432.855 402.463 435.193 402.003 439.481C401.528 443.852 403.694 446.62 407.182 446.998C408.933 447.183 410.558 446.738 412.45 445.915L412.747 452.051C410.602 452.845 408.384 453.268 405.438 452.949C397.766 452.118 393.714 446.716 394.575 438.717C395.414 430.941 400.815 426.259 408.599 427.105C411.144 427.379 413.162 428.114 414.839 429.212L413.118 435.608ZM389.589 452.147C387.637 452.303 385.923 450.849 385.76 448.897C385.604 446.939 387.051 445.225 389.018 445.061C390.969 444.906 392.683 446.36 392.846 448.319C393.002 450.27 391.555 451.992 389.589 452.147ZM379.119 453.75L371.855 455.271L366.669 430.585L382.273 427.313L383.542 433.323L375.202 435.067L376.033 439.044L382.043 437.79L384.298 443.548L377.287 445.017L379.119 453.75ZM346.694 465.11L337.159 441.752L352.563 435.467L354.789 440.914L346.152 444.431L347.518 447.784L354.055 445.128L357.097 450.159L349.714 453.171L351.242 456.896L360.176 453.253L362.402 458.699L346.694 465.11ZM337.708 469.941C330.771 473.324 324.464 470.898 320.946 463.663C317.518 456.622 319.603 449.78 326.645 446.367C328.945 445.247 331.045 444.794 333.056 444.831L334.993 451.161C333.316 450.804 331.55 450.767 329.784 451.635C326.652 453.157 325.755 456.488 327.639 460.369C329.554 464.316 332.87 465.503 336.024 463.967C337.604 463.203 338.747 461.957 339.912 460.25L343.422 465.296C342.027 467.114 340.379 468.649 337.708 469.941ZM318.587 479.178L315.404 475.676L308.169 478.948L308.778 483.319L302.181 486.302L299.688 459.627L307.316 456.176L324.998 474.994L318.587 479.178ZM284.247 491.933L276.797 467.833L283.958 465.615L289.538 483.638L296.349 481.531L299.206 487.311L284.247 491.933ZM271.693 494.835L269.637 490.576L261.772 491.659L261.119 496.029L253.936 497.016L259.13 470.712L267.426 469.577L279.038 492.653L271.693 494.835ZM242.027 489.069L240.855 489.032L240.603 496.601L233.153 496.348L233.999 471.12L242.732 471.41C249.24 471.632 253.135 474.585 252.935 480.403C252.734 486.354 248.386 489.285 242.027 489.069ZM219.04 493.87L204.163 489.054L211.91 465.066L219.04 467.366L213.238 485.315L220.027 487.504L219.04 493.87ZM200.208 486.65L192.922 484.291L193.634 479.616L186.548 476.047L183.528 479.282L177.058 476.025L196.216 457.304L203.703 461.066L200.208 486.65ZM166.054 469.933L174.876 453.09L168.881 449.944L171.775 444.445L189.753 453.861L187.772 459.842L181.517 456.57L172.695 473.413L166.054 469.933ZM158.322 448.504C162.849 452.504 164.244 455.293 162.619 459.085C160.274 464.561 155.384 464.932 150.68 462.914C147.281 461.46 144.825 459.575 142.666 457.304L146.079 452.118C148.224 454.626 150.709 456.726 153.024 457.72C154.367 458.299 155.436 458.195 155.874 457.193C156.289 456.221 155.926 455.509 153.24 453.038C149.218 449.335 147.734 446.864 149.478 442.798C151.518 438.035 156.267 437.248 160.838 439.207C164.199 440.639 165.995 442.093 167.827 444.149L164.429 449.283C162.574 446.946 160.474 445.247 158.723 444.497C157.35 443.911 156.475 444.089 156.133 444.898C155.74 445.803 156.074 446.501 158.322 448.504ZM135.536 456.896L128.308 454.93L130.623 446.397L126.402 429.034L134.348 430.162L136.396 440.758L143.349 432.87L150.865 434.918L137.895 448.215L135.536 456.896ZM115.153 453.008L111.005 444.661L109.87 444.594L109.402 452.4L101.99 451.954L103.503 426.764L113.142 427.342C119.642 427.736 123.189 430.845 122.87 436.246C122.662 439.645 120.985 441.96 118.047 443.251L123.114 452.274L115.153 453.008ZM91.854 453.772C84.2707 455.219 78.8244 451.235 77.3182 443.325C75.849 435.638 79.6481 429.583 87.3426 428.114C89.858 427.639 91.995 427.75 93.9316 428.314L94.1542 434.94C92.6257 434.154 90.9265 433.657 88.9824 434.02C85.5692 434.681 83.8255 437.656 84.6343 441.893C85.4579 446.204 88.3443 448.23 91.7946 447.569C93.516 447.243 94.9481 446.338 96.5137 444.995L98.5913 450.782C96.766 452.177 94.7626 453.223 91.854 453.772ZM334.414 431.416C305.839 449.654 282.585 460.532 253.343 460.651C213.809 460.799 183.172 434.607 141.449 420.59C99.7118 406.581 51.6895 429.976 51.6895 429.976C51.6895 429.976 67.0192 444.95 68.1768 472.026C68.1768 472.026 96.0314 453.861 137.769 467.87C179.499 481.887 201.121 509.845 254.812 506.61C301.573 503.805 328.166 482.154 358.202 470.853C367.522 467.351 401.876 451.376 431.594 473.925C434.302 447.54 448.474 431.171 448.474 431.171C412.91 405.758 355.405 418.015 334.414 431.416Z" fill="#1B458F"/>
<path d="M94.6714 480.967C96.7787 480.967 98.8266 481.212 100.518 481.56C101.335 481.738 102.203 481.968 103.063 482.198C104.926 482.696 107.463 483.401 108.25 482.822C108.539 482.607 108.732 481.976 108.777 481.1C108.814 480.254 108.554 479.639 107.924 479.104C105.052 476.633 96.4225 476.789 89.0322 477.687L89.1286 481.635C90.8723 481.152 92.7941 480.967 94.6714 480.967ZM399.196 478.496C395.797 478.496 392.926 478.934 391.449 480.091C390.796 480.596 390.499 481.204 390.499 482.05C390.507 482.933 390.67 483.571 390.952 483.794C391.701 484.402 394.276 483.846 396.146 483.423C397.022 483.237 397.897 483.044 398.736 482.911C401.948 482.391 406.452 482.339 410.103 483.527L410.378 479.587C406.682 478.949 402.661 478.496 399.196 478.496ZM413.598 489.945L410.8 488.142C408.508 486.665 403.692 486.101 399.351 486.799C398.595 486.918 397.801 487.103 396.999 487.274C393.898 487.949 390.707 488.654 388.481 486.873C387.212 485.849 386.574 484.232 386.574 482.05C386.567 479.995 387.413 478.244 389.03 476.99C395.76 471.736 415.505 476.552 417.738 477.116C419.69 477.657 425.737 478.763 428.327 476.96C429.054 476.463 429.432 475.758 429.529 474.741C431.591 452.058 441.861 436.573 445.615 431.594C411.372 408.755 356.842 420.056 335.428 433.1C311.046 447.97 284.609 462.484 253.348 462.617H252.992C227.564 462.617 205.801 451.955 182.762 440.676C169.561 434.206 155.909 427.528 140.824 422.46C105.549 410.625 65.1249 426.267 54.9595 430.659C59.2186 435.742 69.1985 449.892 70.1483 471.937C70.1854 472.953 70.5415 473.673 71.239 474.207C73.7618 476.129 79.8314 475.313 81.768 474.875C84.0534 474.407 103.998 470.542 110.483 476.114C112.042 477.442 112.806 479.23 112.709 481.286C112.598 483.46 111.878 485.048 110.572 485.998C108.257 487.689 105.096 486.829 102.032 485.998C101.246 485.79 100.459 485.575 99.717 485.419C95.406 484.514 90.5755 484.847 88.2086 486.205L85.337 487.875L85.1144 478.258C84.224 478.407 83.3781 478.563 82.5916 478.726C81.6938 478.926 73.2795 480.722 68.8572 477.346C67.2174 476.092 66.3047 474.289 66.2157 472.107C65.0953 446.122 50.4556 431.535 50.3072 431.386L48.3112 429.427L50.8192 428.211C52.8077 427.231 100.051 404.622 142.078 418.72C157.407 423.877 171.172 430.622 184.49 437.137C207.107 448.215 228.476 458.677 252.999 458.677H253.333C280.624 458.566 304.205 447.517 333.388 429.739C355.944 415.982 414.088 404.17 449.615 429.568L451.366 430.83L449.948 432.455C449.822 432.625 435.806 449.12 433.454 475.105C433.246 477.272 432.259 479.03 430.56 480.195C425.982 483.363 417.657 481.175 416.722 480.915C415.965 480.729 415.141 480.529 414.273 480.343L413.598 489.945Z" fill="#C4122E"/>
<path d="M246.358 509.21C215.298 509.21 195.346 498.51 174.318 487.232C162.913 481.118 151.108 474.796 137.158 470.106C96.9121 456.595 69.5323 473.861 69.2652 474.039L67.1208 470.744C68.2857 469.973 96.274 452.224 138.412 466.381C152.688 471.175 164.627 477.578 176.18 483.767C198.574 495.772 219.72 507.11 254.713 505.017C287.272 503.066 309.532 492.055 331.058 481.414C340.058 476.955 348.569 472.748 357.525 469.387C358.126 469.157 358.838 468.875 359.647 468.556C371.845 463.747 404.234 450.963 432.897 472.807L430.515 475.931C403.603 455.444 372.713 467.635 361.094 472.221C360.255 472.54 359.528 472.837 358.912 473.074C350.142 476.361 341.713 480.531 332.801 484.939C311.944 495.26 288.304 506.947 254.943 508.95C251.99 509.128 249.126 509.21 246.358 509.21Z" fill="#C4122E"/>
<path d="M108.636 479.716C99.1977 472 95.5397 464.513 95.3839 464.186L98.9232 462.48C98.9677 462.561 102.411 469.543 111.129 476.674L108.636 479.716Z" fill="#C4122E"/>
<path d="M390.967 480.534L388.652 477.351C398.81 469.968 400.019 462.103 400.027 462.021L403.93 462.57C403.87 462.956 402.46 472.179 390.967 480.534Z" fill="#C4122E"/>
<path d="M294.497 272.244C294.801 272.54 295.075 272.815 295.328 273.045C295.328 273.045 295.201 272.704 294.497 272.244Z" fill="#27409B"/>
<path d="M273.461 119.175C272.852 116.259 272.214 112.631 271.732 108.587C272.11 111.933 272.659 115.428 273.461 119.175Z" fill="#27409B"/>
<mask id="mask0_1_2826" style="mask-type:luminance" maskUnits="userSpaceOnUse" x="271" y="108" width="3" height="12">
<path d="M271.733 119.178H273.462V108.59H271.733V119.178Z" fill="white"/>
</mask>
<g mask="url(#mask0_1_2826)">
<path d="M273.461 119.175C272.852 116.259 272.214 112.631 271.732 108.587C272.11 111.933 272.659 115.428 273.461 119.175Z" fill="white"/>
</g>
<mask id="mask1_1_2826" style="mask-type:luminance" maskUnits="userSpaceOnUse" x="43" y="-2" width="1447" height="517">
<path d="M43.5535 514.768H1489.05V-1.9389H43.5535V514.768Z" fill="white"/>
</mask>
<g mask="url(#mask1_1_2826)">
<path d="M340.795 299.134C339.734 300.477 338.042 301.657 336.239 302.443C334.251 303.319 332.121 303.719 330.518 303.319C330.556 303.304 330.593 303.281 330.637 303.259C330.808 303.178 330.956 303.096 331.112 303.007C331.223 302.94 331.357 302.881 331.468 302.814C335.505 300.313 333.323 295.602 329.131 290.794L329.057 290.779L319.455 282.431L318.943 281.979L318.795 281.853L318.891 281.823L319.188 281.726L319.262 281.712L319.618 281.593L321.065 282.402L325.955 285.162L326.319 285.355L328.485 286.579L330.837 287.907C330.845 287.907 330.852 287.9 330.86 287.9C330.875 287.892 330.889 287.892 330.912 287.885C333.115 287.373 335.594 286.757 335.965 286.653C337.612 286.223 338.539 285.755 339.044 285.37C339.081 285.711 343.229 296.04 340.795 299.134ZM330.014 297.086L326.541 294.259L324.048 292.233L323.425 290.311L323.269 289.807L322.401 287.18L322.386 287.098C325.183 288.753 327.395 291.736 328.841 294.118C329.146 294.63 330.696 297.642 330.696 297.642L330.014 297.086ZM311.924 273.349L307.479 265.35L296.127 259.63L305.402 270.389C300.519 267.599 292.194 263.169 283.171 261.492C283.171 261.492 290.844 268.66 294.502 272.244C295.199 272.696 295.325 273.052 295.325 273.052C295.08 272.815 294.799 272.54 294.502 272.244C293.418 271.546 290.97 270.611 285.36 270.292C280.159 269.765 273.993 268.4 268.391 265.247C268.391 265.247 269.504 266.886 271.797 268.86C271.826 268.89 271.863 268.912 271.893 268.934C271.9 268.942 271.908 268.957 271.923 268.964C274.067 270.789 277.221 272.867 281.472 274.247C281.799 274.358 286.058 276.117 286.399 276.213C283.335 277.438 280.767 278.899 278.623 280.561C274.475 283.759 271.908 287.61 270.372 291.528C267.723 298.303 265.297 310.538 267.166 317.513C261.29 309.618 256.103 299.445 258.99 287.93C250.041 292.968 244.276 291.32 238.073 290.408C235.209 294.266 231.424 303.534 230.942 311.481C230.415 310.642 229.925 309.729 229.473 308.78C227.158 303.845 225.978 298.206 225.689 292.79C225.548 290.63 225.562 288.545 225.733 286.638V286.624L246.183 272.118L216.436 269.624C216.443 269.61 216.451 269.61 216.451 269.61C216.94 269.246 217.452 268.89 217.95 268.526C229.399 260.468 243.526 254.911 257.706 255.541C258.804 255.578 259.902 255.667 261 255.794C251.866 250.681 235.832 250.926 226.327 253.901C213.423 257.93 208.304 258.175 194.495 255.727C208.994 252.796 208.467 252.403 217.067 248.336C224.13 244.382 237.546 237.08 254.463 240.197C250.316 238.379 246.776 236.672 241.738 235.47C236.819 234.342 228.798 233.244 220.213 235.084C220.213 235.084 226.052 228.837 236.967 227.301C222.075 213.87 178.075 192.798 178.075 192.798C240.551 207.549 267.107 236.872 271.069 241.614C271.336 241.822 271.589 242.029 271.841 242.23C269.489 236.872 255.636 204.566 217.66 180.911C212.399 177.631 206.59 175.316 201.225 172.207C192.655 167.221 184.73 161.7 177.525 155.653L177.563 155.772C106.909 99.6619 133.206 22.4493 133.206 22.4493C130.92 40.3612 133.955 57.9021 139.142 73.5212C142.436 83.4343 146.599 92.5535 150.828 100.493C155.584 109.412 160.415 116.832 164.199 122.174C172.992 132.918 183.432 142.104 195.526 148.738C195.526 148.738 142.206 112.424 172.495 35.0114C171.315 38.3207 150.346 100.359 229.132 154.392C230.653 155.416 231.758 155.379 232.211 156.484C242.688 181.72 283.06 221.899 290.584 241.228C290.243 237.273 289.909 233.318 289.567 229.371C294.086 234.231 297.626 240.249 299.481 246.622C299.822 242.719 300.171 236.791 300.505 232.888C307.027 236.472 316.702 243.959 324.686 252.573C324.686 252.573 324.597 252.484 324.471 252.343C324.182 252.032 323.922 251.75 323.677 251.49C323.796 251.616 323.915 251.742 324.018 251.853C324.093 251.935 324.145 251.994 324.204 252.061C324.315 252.173 324.397 252.262 324.471 252.343C324.545 252.432 324.605 252.484 324.686 252.573L324.338 246.838L324.167 244.166C324.167 244.166 336.232 258.999 340.335 270.47C340.565 271.123 340.78 271.769 340.951 272.392C340.877 275.62 340.417 277.786 339.882 279.218C339.422 280.435 337.59 282.439 337.189 282.736C336.9 282.958 336.714 283.025 336.714 283.025C337.278 282.595 337.397 281.556 337.404 280.591C337.412 279.374 337.152 278.105 336.699 276.659C336.276 275.301 335.764 274.002 335.341 273.008C334.881 271.917 334.525 271.197 334.525 271.197C334.777 273.861 334.644 275.813 334.332 277.222C334.332 277.26 334.325 277.304 334.31 277.349C333.702 280.005 332.477 280.702 332.151 280.843C332.106 280.866 332.069 280.881 332.069 280.881C331.98 280.45 331.884 280.042 331.78 279.671C331.446 278.699 331.067 277.749 330.696 276.814C329.331 273.401 324.345 263.97 322.713 260.683C321.303 262.694 323.187 267.376 323.187 267.376C323.826 268.615 325.31 271.769 325.31 271.769C323.929 274.915 325.97 278.395 328.738 279.723C327.959 280.072 325.369 279.701 323.551 278.647C324.226 280.02 326.66 283.292 327.877 284.227C324.375 283.359 316.331 277 311.924 273.349ZM341.641 260.09C341.537 259.763 341.478 259.578 341.478 259.578C341.478 259.578 341.507 259.711 341.559 259.912C341.292 259.363 341.025 258.813 340.743 258.25C340.105 256.847 339.333 255.549 338.51 254.287C331.453 242.66 321.184 233.029 321.184 233.029L321.347 235.856C321.355 235.856 321.384 235.871 321.384 235.871L321.703 240.286C321.703 240.286 288.603 221.06 274.483 203.342C263.538 189.6 250.939 174.619 243.474 156.217L240.714 151.81C231.179 140.479 221.237 142.616 199.459 117.418C191.994 108.774 183.751 91.767 181.139 80.5183C175.611 56.7594 176.598 29.7135 182.475 6.11792C182.475 6.11792 185.235 -1.94022 170.157 22.019L170.165 22.0042C162.619 33.9875 157.336 47.6328 154.813 61.5528C153.529 68.6685 152.95 75.8362 153.18 82.8927C148.068 72.705 143.972 61.6196 141.167 50.1779C137.465 35.1079 136.018 19.4443 137.524 4.45587C137.524 4.45587 134.875 1.87369 125.726 26.3226C116.57 50.7863 115.123 71.6588 119.33 95.0392C102.509 80.7854 98.7028 54.6744 93.1081 34.0097C93.1081 34.0097 93.1007 34.0097 93.1007 34.0246C93.0932 34.0246 93.0784 34.0394 93.0636 34.0468C93.019 34.0913 92.9374 34.1878 92.8484 34.3659C92.6332 34.7665 92.3438 35.6718 92.1583 37.5861C92.1583 39.0775 91.9654 40.5616 91.9654 42.0456C90.9489 52.3965 89.9917 80.5109 104.416 109.894C104.728 110.577 105.01 111.289 105.329 111.957C107.377 116.283 109.803 120.186 112.007 124.051C115.657 130.492 118.499 132.065 122.595 137.741C122.165 137.675 97.4117 132.481 88.3519 131.123C93.8352 134.714 103.867 143.826 115.272 154.511C115.272 154.511 149.426 157.256 176.234 177.09C176.234 177.09 153.025 165.73 125.133 163.793C126.773 165.336 128.412 166.88 130.06 168.43C138.007 175.902 145.983 183.345 153.084 189.607L152.98 189.6L132.835 187.604L161.795 211.029L166.996 211.207C166.996 211.207 176.724 210.865 186.355 213.039C196.625 215.369 202.078 218.701 202.078 218.701C196.343 216.757 186.8 216.46 181.042 216.831C176.939 217.091 174.261 218.241 171.278 218.656L172.977 220.014L191.245 234.706L207.517 235.136C193.783 243.684 180.301 247.053 163.012 241.258C153.826 238.178 144.922 233.355 137.361 227.271C140.418 234.773 147.519 241.221 153.039 246.904C134.823 245.502 120.147 241.287 103.504 233.667C109.87 243.543 114.93 250.258 119.976 255.519C125.014 260.772 131.967 266.463 135.447 268.548C137.658 269.877 147.838 269.825 154.568 269.172C155.829 269.053 156.987 268.919 157.929 268.756C159.473 268.504 161.402 268.088 163.457 267.614C170.38 266.018 178.713 263.688 178.253 263.993C175.247 265.944 171.968 267.858 168.51 269.632C166.47 270.678 164.37 271.68 162.225 272.6C152.542 276.755 141.991 279.337 132.375 278.12C143.126 281.964 154.382 284.776 165.78 285.852C169.697 286.23 171.122 286.171 174.535 284.583C179.625 282.231 183.825 280.294 187.869 278.365C189.917 277.378 191.95 276.384 194.005 275.33C196.847 273.891 199.771 272.362 203.043 270.537C201.158 272.31 199.259 273.965 197.315 275.612C196.224 276.518 195.111 277.438 193.983 278.373C190.05 281.593 185.843 284.932 181.042 289.146C193.909 290.044 201.358 292.174 218.447 286.831C218.447 286.831 214.93 289.458 210.04 292.292L215.108 302.235L209.61 299.764L213.223 306.517C213.223 306.517 215.79 309.7 219.448 312.356L220.688 316.341C217.861 315.502 214.24 312.482 212.444 311.288C215.301 322.759 222.12 320.511 224.086 327.463C225.407 332.16 230.378 340.574 227.566 345.041C224.264 350.302 222.097 349.931 217.445 354.123C212.051 358.961 216.206 365.016 217.319 366.945C218.432 361.284 222.654 357.596 225.051 356.876C228.812 355.771 233.324 356.616 234.971 354.969C240.914 349.041 253.699 347.534 262.544 353.07C258.448 346.451 256.341 346.651 248.194 344.299C262.588 345.249 263.538 348.403 270.58 356.594C271.158 351.927 267.285 345.991 263.976 343.149C262.944 342.274 251.503 340.663 240.388 339.699C236.485 339.358 234.904 334.342 234.34 331.641C235.023 332.034 238.169 333.689 241.234 333.652C240.454 329.734 239.379 325.289 238.733 322.618C239.831 323.115 240.952 323.813 243.415 323.894L241.805 317.32C241.048 312.067 239.341 308.268 244.387 300.239C247.17 302.191 248.401 303.037 249.663 304.454C249.663 304.454 250.709 309.47 251.859 312.148C252.082 312.653 257.038 316.89 257.216 317.402L248.683 314.931C248.683 314.931 251.533 321.409 257.164 325.141C260.503 326.321 263.471 327.664 264.443 328.962C265.445 330.313 267.129 333.948 266.335 335.9C265.697 337.473 261.164 330.75 251.622 338.764C258.136 338.868 265.95 340.649 267.634 342.637C269.815 345.219 271.381 347.564 272.954 348.506C279.884 352.662 280.367 354.843 279.81 362.998C284.099 359.688 282.897 351.059 282.251 348.974C287.935 355.793 286.688 365.053 284.952 368.674C289.211 366.307 294.376 356.891 289.501 349.449C288.18 348.254 280.975 342.86 279.573 341.257C275.959 337.124 275.054 332.479 273.281 327.767C274.535 327.842 276.108 328.346 277.369 328.331C276.731 325.541 275.833 321.906 275.136 317.891C275.076 317.528 275.009 317.157 274.95 316.793C274.928 316.645 274.906 316.489 274.883 316.341C274.794 315.747 274.705 315.146 274.624 314.53C274.609 314.389 274.594 314.233 274.579 314.092C274.497 313.477 274.431 312.853 274.371 312.223C276.709 313.721 278.319 314.36 278.319 314.36L274.312 303.497V303.467C274.386 302.651 274.49 301.827 274.624 301.004C274.624 300.959 274.638 300.892 274.646 300.848C274.765 300.106 274.92 299.356 275.091 298.622C275.121 298.503 275.15 298.377 275.18 298.258C275.336 297.583 275.544 296.915 275.766 296.247C275.818 296.084 275.855 295.928 275.915 295.765C276.197 294.971 276.516 294.17 276.872 293.398C275.061 297.286 280.389 302.903 280.389 302.903C281.057 294.296 288.751 286.26 295.207 283.359C294.85 285.748 296.09 288.152 296.09 288.152C297.997 284.086 301.892 282.491 304.682 281.853L309.906 283.952L315.441 286.178L316.895 286.765C316.895 286.765 317.89 291.165 320.338 293.131C322.698 295.038 325.146 296.44 331.03 300.224C330.593 301.686 329.264 303.059 326.615 304.016C334.978 307.147 345.522 303.385 344.03 294.4C343.503 291.231 342.108 282.483 342.108 282.483V282.454L344.09 275.998L344.676 274.069L344.735 273.869L345.01 272.978C344.987 268.816 343.659 264.408 341.641 260.09Z" fill="#1B458F"/>
<path d="M391.32 67.0919L391.802 67.1364C378.35 67.9526 365.023 71.8481 353.923 78.8971C363.065 61.0966 383.254 49.0391 401.107 41.9752C401.107 41.9752 403.311 38.5472 381.741 41.7749C378.936 42.0939 376.153 42.5391 373.401 43.1476C373.356 43.155 373.319 43.1624 373.274 43.1698H373.312C361.454 45.7965 350.191 51.0573 340.678 58.5589C335.314 62.8032 330.483 67.7375 326.439 73.3099C308.253 97.4917 302.109 118.646 302.109 118.646C302.109 118.646 299.483 87.4301 339.365 46.2417C343.758 38.9033 348.692 31.9063 354.138 25.5177C354.138 25.5177 355.058 20.8505 332.479 37.9833C316.148 49.3952 301.887 64.391 291.603 81.138C287.907 87.7566 279.998 102.604 277.705 112.428C277.727 112.718 277.742 113.022 277.764 113.311C277.764 113.311 278.009 119.195 279.092 127.023C280.406 136.491 284.286 149.565 284.286 149.565C281.645 144.171 276.926 132.277 275.36 126.801C274.596 124.122 273.987 121.599 273.461 119.173C273.134 117.659 272.882 116.212 272.637 114.78C272.503 114.016 272.377 113.222 272.251 112.406C272.066 111.115 271.873 109.831 271.732 108.577C271.227 104.006 271.034 99.6806 270.967 95.3324C270.886 89.5968 271.138 84.4102 271.398 80.6631C261.032 104.429 260.053 122.735 260.03 130.065C259.518 134.74 259.236 138.227 259.044 141.151C261.73 148.786 266.501 158.974 275.048 171.892C275.048 171.892 267.361 167.611 258.316 151.784C257.953 155.271 257.315 159.241 255.935 165.422C266.189 182.844 276.473 196.252 285.77 206.484V185.753C289.095 189.084 291.387 191.674 292.96 193.677C294.444 186.925 296.529 178.822 299.431 170.2C317.506 116.405 338.935 100.014 338.935 100.014C319.212 130.83 301.115 193.143 301.872 222.237C305.693 225.494 309.106 228.106 311.941 230.094C310.42 227.794 309.129 225.182 308.802 223.142C317.58 181.575 344.96 154.448 344.96 154.448C350.925 94.8947 418.321 69.6592 418.321 69.6592C423.805 65.645 391.32 67.0919 391.32 67.0919Z" fill="#1B458F"/>
<path d="M401.427 410.143V379.409V376.463C397.896 379.172 394.579 381.59 391.448 383.787V387.133V391.541V393.715H386.343V387.259C364.446 401.736 353.613 403.249 353.613 403.249C368.371 395.703 378.923 388.306 386.343 382.028V373.74V369.177C359.438 392.29 335.278 404.192 326.344 408.176C326.344 408.814 326.344 410.781 326.352 413.526H366.019H372.482C381.69 411.998 391.537 411.263 401.42 411.686" fill="#D3D2D2"/>
<path d="M359.78 416.216C352.56 418.086 346.008 420.393 340.503 422.916V416.216H359.78Z" fill="#A7A5A6"/>
<path d="M301.819 444.46C300.024 445.262 296.811 446.672 295.46 447.243L295.482 440.402V426.363H301.819V440.402V444.46Z" fill="#A7A5A6"/>
<path d="M301.814 423.843H295.485V407.942H301.814V423.843Z" fill="#A7A5A6"/>
<path d="M323.794 431.337V426.366H318.14V431.337V435.93C320.017 434.847 321.909 433.719 323.816 432.554L323.794 431.337Z" fill="#A7A5A6"/>
<path d="M323.792 423.843H318.138V407.942H323.792V423.843Z" fill="#A7A5A6"/>
<path d="M308.696 436.945V426.364H304.341V436.945L304.333 443.304C305.78 442.606 307.234 441.864 308.696 441.122V436.945Z" fill="#A7A5A6"/>
<path d="M308.692 423.843H304.337V407.942H308.692V423.843Z" fill="#A7A5A6"/>
<path d="M315.556 423.843H311.2V407.942H315.556V423.843Z" fill="#A7A5A6"/>
<path d="M315.551 435.832V426.364H311.188V435.832V439.794C312.643 439.022 314.097 438.228 315.551 437.405V435.832Z" fill="#A7A5A6"/>
<path d="M323.814 394.452H295.485V405.427H323.814V394.452Z" fill="#A7A5A6"/>
<path d="M182.676 433.067C180.614 432.058 178.536 431.041 176.444 430.039L176.436 428.815V426.359H182.676V428.815V433.067Z" fill="#A7A5A6"/>
<path d="M182.775 423.843H176.446V407.942H182.775V423.843Z" fill="#A7A5A6"/>
<path d="M198.942 440.942C200.856 441.84 202.778 442.723 204.685 443.576L204.744 431.252V426.362H198.942V431.252V440.942Z" fill="#A7A5A6"/>
<path d="M204.745 423.843H199.077V407.942H204.745V423.843Z" fill="#A7A5A6"/>
<path d="M189.542 423.843H185.194V407.942H189.542V423.843Z" fill="#A7A5A6"/>
<path d="M196.428 423.843H192.146V407.942H196.428V423.843Z" fill="#A7A5A6"/>
<path d="M204.768 394.452H176.438V405.427H204.768V394.452Z" fill="#A7A5A6"/>
<path d="M192.089 437.66C193.409 438.306 195.057 439.174 196.437 439.849V436.659V426.367H192.074V436.659L192.089 437.66Z" fill="#A7A5A6"/>
<path d="M169.567 426.8C171.029 427.475 172.476 428.15 173.923 428.84V424.64V416.219H169.56V424.64L169.567 426.8Z" fill="#A7A5A6"/>
<path d="M185.192 434.297L185.919 434.646C187.128 435.24 188.33 435.833 189.54 436.419V433.103V426.365H185.192V433.103V434.297Z" fill="#A7A5A6"/>
<path d="M100.043 398.25V376.457C103.568 379.173 106.885 381.592 110.016 383.788V393.716H115.121V387.268C137.017 401.737 147.851 403.244 147.851 403.244C133.092 395.698 122.548 388.307 115.121 382.022V372.948V369.178C140.898 391.32 164.152 403.177 173.917 407.629V413.535C173.917 413.535 134.695 413.728 133.715 413.52C122.289 411.072 110.751 410.909 100.043 411.962" fill="#D3D2D2"/>
<path d="M160.149 422.728C154.658 420.458 147.275 417.475 143.165 416.102H160.149V422.728Z" fill="#A7A5A6"/>
<path d="M162.682 422.355V416.211H167.045V422.355L167.03 425.634C166.599 425.434 164.952 424.737 162.667 423.779L162.682 422.355Z" fill="#A7A5A6"/>
<path d="M331.118 426.364V416.213H326.339V426.364V431.023C327.913 430.044 329.508 429.042 331.111 428.026L331.118 426.364Z" fill="#A7A5A6"/>
<path d="M337.998 422.903V416.218H333.635V422.903L333.68 426.428C335.015 425.641 336.462 424.862 337.998 424.105V422.903Z" fill="#A7A5A6"/>
<path d="M293.007 405.43V397.661C293.007 373.976 273.819 354.781 250.134 354.781C226.45 354.781 207.262 373.976 207.262 397.661V405.43L214.563 405.422C214.096 403.122 213.851 400.733 213.851 398.284C213.851 378.384 229.982 362.26 249.875 362.26C269.775 362.26 285.899 378.384 285.899 398.284C285.899 400.733 285.654 403.137 285.194 405.452L293.007 405.43Z" fill="#A7A5A6"/>
<path d="M110.02 374.209V364.578L100.047 354.487V363.391V365.802C101.413 367.924 104.425 372.057 110.02 377.437V374.209Z" fill="#D3D2D2"/>
<path d="M401.428 365.802C400.055 367.924 397.042 372.057 391.448 377.437V372.473V364.578L401.428 354.494V362.233V365.802Z" fill="#D3D2D2"/>
<path d="M242.932 439.487C241.782 439.487 240.995 440.244 240.995 441.557C240.995 442.811 241.619 443.508 242.932 443.508C243.733 443.508 244.453 443.249 245.143 442.722V442.655C245.143 440.607 244.245 439.487 242.932 439.487Z" fill="#A7A5A6"/>
<path d="M253.773 439.539C252.274 439.539 251.451 440.979 251.451 443.598C251.451 446.225 252.274 447.672 253.773 447.672C255.265 447.672 256.066 446.225 256.066 443.598C256.066 440.979 255.265 439.539 253.773 439.539Z" fill="#A7A5A6"/>
<path d="M263.712 449.355C262.331 449.355 261.248 449.028 260.365 448.554L260.677 446.721C261.515 447.218 262.547 447.589 263.726 447.589C265.01 447.589 265.967 446.943 265.967 445.652C265.967 444.554 265.247 443.879 263.942 443.879C263.2 443.879 262.673 444.02 262.213 444.205L260.81 443.894L261.204 438.062H267.384L267.666 439.835H262.858L262.658 442.425C263.073 442.306 263.593 442.195 264.327 442.195C266.531 442.195 267.971 443.456 267.971 445.548C267.971 448.012 266.168 449.355 263.712 449.355ZM253.776 449.355C251.12 449.355 249.354 447.3 249.354 443.604C249.354 439.924 251.12 437.846 253.776 437.846C256.41 437.846 258.184 439.924 258.184 443.604C258.184 447.3 256.41 449.355 253.776 449.355ZM240.739 449.37L240.472 447.619C242.683 447.173 244.405 446.194 244.983 444.294C244.197 444.799 243.329 445.111 242.327 445.111C240.331 445.111 238.996 443.916 238.996 441.675C238.996 439.375 240.687 437.846 242.95 437.846C245.377 437.846 247.083 439.471 247.083 442.543C247.083 446.431 244.434 448.643 240.739 449.37ZM236.332 449.14H234.239V440.095L231.976 440.963L231.746 439.308L234.477 438.047H236.332V449.14ZM284.577 408.011C280.325 423.185 266.405 434.307 249.881 434.307C233.349 434.307 219.414 423.17 215.177 407.988L207.26 407.944V437.564L207.245 444.695C222.122 451.165 237.022 455.907 253.212 455.907H253.531C267.659 455.855 280.369 453.139 292.946 448.279L293.006 407.929L284.577 408.011Z" fill="#A7A5A6"/>
<path d="M90.2831 349.809C91.782 350.091 93.2215 350.455 94.5793 350.87V370.118C93.214 369.695 91.782 369.339 90.2831 369.057V349.809Z" fill="#A7A5A6"/>
<path d="M87.7925 368.672C86.3975 368.501 84.958 368.382 83.4963 368.345L83.5037 349.098C84.2012 349.12 84.8987 349.15 85.5961 349.202C86.3381 349.261 87.0727 349.335 87.7925 349.424V368.672Z" fill="#A7A5A6"/>
<path d="M76.6987 368.672C78.0936 368.501 79.5331 368.382 81.0023 368.345V349.098C79.5331 349.135 78.0936 349.246 76.6987 349.424V368.672Z" fill="#A7A5A6"/>
<path d="M69.9221 370.127C71.2873 369.69 72.712 369.341 74.2108 369.059V349.811C72.712 350.093 71.2873 350.457 69.9221 350.873V370.127Z" fill="#A7A5A6"/>
<path d="M66.0369 334.173C66.9644 333.75 67.9364 333.356 68.9603 333.008V335.323L66.0369 334.173Z" fill="#A7A5A6"/>
<path d="M81 340.926C79.5309 340.963 78.0914 341.074 76.6964 341.252V331.235C78.0914 331.065 79.5309 330.953 81 330.902V340.926Z" fill="#A7A5A6"/>
<path d="M87.7925 331.236C86.3975 331.066 84.958 330.947 83.4963 330.91V340.927C84.958 340.964 86.3975 341.068 87.7925 341.253V331.236Z" fill="#A7A5A6"/>
<path d="M90.2831 331.622C91.782 331.904 93.214 332.268 94.5793 332.683V342.693C93.2215 342.277 91.782 341.914 90.2831 341.646V331.622Z" fill="#A7A5A6"/>
<path d="M74.2078 341.642C72.7163 341.916 71.2769 342.28 69.919 342.696V332.686C71.2843 332.27 72.7163 331.907 74.2078 331.617V341.642Z" fill="#A7A5A6"/>
<path d="M95.5425 333.007C96.5813 333.363 97.5682 333.756 98.5031 334.194L95.5425 335.329V333.007Z" fill="#A7A5A6"/>
<path d="M66.0369 352.36C66.9644 351.93 67.9364 351.544 68.9603 351.195V353.51L66.0369 352.36Z" fill="#A7A5A6"/>
<path d="M95.5425 351.194C96.5813 351.551 97.5682 351.944 98.5031 352.382L95.5425 353.517V351.194Z" fill="#A7A5A6"/>
<path d="M98.5037 327.68C94.0443 325.617 88.3903 324.385 82.2539 324.385C76.125 324.385 70.4932 325.617 66.0338 327.665V331.842C70.4932 329.787 76.125 328.57 82.2539 328.57C88.3903 328.57 94.0443 329.802 98.5037 331.857V327.68Z" fill="#A7A5A6"/>
<path d="M98.5037 346.022C94.0443 343.967 88.3903 342.728 82.2539 342.728C76.125 342.728 70.4932 343.952 66.0338 346.007V350.185C70.4932 348.137 76.125 346.905 82.2539 346.905C88.3903 346.905 94.0443 348.144 98.5037 350.2V346.022Z" fill="#A7A5A6"/>
<path d="M98.5037 325.842C94.0443 323.779 88.3903 322.54 82.2539 322.54C76.125 322.54 70.4932 323.772 66.0338 325.82L78.9149 313.554C80.0057 313.465 81.1187 313.428 82.2539 313.428C83.3892 313.428 84.4948 313.465 85.5929 313.547L98.5037 325.842Z" fill="#A7A5A6"/>
<path d="M78.912 310.123V312.149C80.0027 312.067 81.1231 312.03 82.251 312.03C83.3862 312.03 84.4992 312.067 85.59 312.149V310.123C85.59 309.359 83.9279 309.329 83.4975 309.314C83.0894 309.314 82.6665 309.307 82.251 309.307C81.828 309.307 81.4125 309.314 80.997 309.314C80.5518 309.329 78.912 309.314 78.912 310.123Z" fill="#A7A5A6"/>
<path d="M94.5793 390.997C93.214 390.559 91.782 390.21 90.2831 389.928V371.208C91.782 371.482 93.214 371.839 94.5793 372.261V390.997Z" fill="#A7A5A6"/>
<path d="M87.7925 389.541C86.4049 389.363 84.958 389.259 83.4963 389.215V370.487C84.958 370.524 86.4049 370.643 87.7925 370.813V389.541Z" fill="#A7A5A6"/>
<path d="M81 389.22C79.5309 389.257 78.0914 389.361 76.6964 389.539V370.811C78.0914 370.625 79.5309 370.529 81 370.477V389.22Z" fill="#A7A5A6"/>
<path d="M74.2078 389.933C72.7163 390.207 71.2843 390.571 69.919 390.994V372.259C71.2843 371.836 72.7163 371.487 74.2078 371.205V389.933Z" fill="#A7A5A6"/>
<path d="M427.282 349.809C428.781 350.091 430.213 350.455 431.571 350.87V370.118C430.213 369.695 428.781 369.339 427.282 369.057V349.809Z" fill="#A7A5A6"/>
<path d="M424.79 368.672C423.395 368.501 421.963 368.382 420.494 368.345V349.098C421.206 349.12 421.896 349.15 422.594 349.202C423.336 349.261 424.07 349.335 424.79 349.424V368.672Z" fill="#A7A5A6"/>
<path d="M413.698 368.672C415.093 368.501 416.525 368.382 418.002 368.345V349.098C416.525 349.135 415.093 349.246 413.698 349.424V368.672Z" fill="#A7A5A6"/>
<path d="M406.918 370.127C408.284 369.69 409.716 369.341 411.207 369.059V349.811C409.716 350.093 408.284 350.457 406.918 350.873V370.127Z" fill="#A7A5A6"/>
<path d="M403.036 334.173C403.964 333.75 404.936 333.356 405.96 333.008V335.323L403.036 334.173Z" fill="#A7A5A6"/>
<path d="M417.999 340.926C416.53 340.963 415.091 341.074 413.696 341.252V331.235C415.091 331.065 416.53 330.953 417.999 330.902V340.926Z" fill="#A7A5A6"/>
<path d="M424.79 331.236C423.395 331.066 421.963 330.947 420.494 330.91V340.927C421.963 340.964 423.395 341.068 424.79 341.253V331.236Z" fill="#A7A5A6"/>
<path d="M427.282 331.622C428.781 331.904 430.213 332.268 431.571 332.683V342.693C430.213 342.277 428.781 341.914 427.282 341.646V331.622Z" fill="#A7A5A6"/>
<path d="M411.205 341.642C409.713 341.916 408.274 342.28 406.916 342.696V332.686C408.281 332.27 409.713 331.907 411.212 331.617L411.205 341.642Z" fill="#A7A5A6"/>
<path d="M432.543 333.007C433.574 333.363 434.568 333.756 435.503 334.194L432.543 335.329V333.007Z" fill="#A7A5A6"/>
<path d="M403.036 352.36C403.964 351.93 404.936 351.544 405.96 351.195V353.51L403.036 352.36Z" fill="#A7A5A6"/>
<path d="M432.543 351.194C433.574 351.551 434.568 351.944 435.503 352.382L432.543 353.517V351.194Z" fill="#A7A5A6"/>
<path d="M435.503 327.68C431.036 325.617 425.39 324.385 419.253 324.385C413.124 324.385 407.493 325.617 403.033 327.665V331.842C407.493 329.787 413.124 328.57 419.253 328.57C425.39 328.57 431.044 329.802 435.503 331.857V327.68Z" fill="#A7A5A6"/>
<path d="M435.503 346.022C431.036 343.967 425.39 342.728 419.253 342.728C413.124 342.728 407.493 343.952 403.033 346.007V350.185C407.493 348.137 413.124 346.905 419.253 346.905C425.39 346.905 431.044 348.144 435.503 350.2V346.022Z" fill="#A7A5A6"/>
<path d="M435.503 325.842C431.036 323.779 425.39 322.54 419.253 322.54C413.124 322.54 407.493 323.772 403.033 325.82L415.907 313.554C417.005 313.465 418.118 313.428 419.253 313.428C420.389 313.428 421.494 313.465 422.592 313.547L435.503 325.842Z" fill="#A7A5A6"/>
<path d="M415.91 310.123V312.149C417.008 312.067 418.114 312.03 419.249 312.03C420.377 312.03 421.497 312.067 422.588 312.149V310.123C422.588 309.359 420.926 309.329 420.495 309.314C420.08 309.314 419.664 309.307 419.249 309.307C418.833 309.307 418.41 309.314 417.995 309.314C417.55 309.329 415.91 309.314 415.91 310.123Z" fill="#A7A5A6"/>
<path d="M431.576 390.997C430.21 390.559 428.778 390.21 427.287 389.928V371.208C428.778 371.482 430.21 371.839 431.576 372.261V390.997Z" fill="#A7A5A6"/>
<path d="M424.79 389.541C423.395 389.363 421.963 389.259 420.494 389.215V370.487C421.963 370.524 423.395 370.643 424.79 370.813V389.541Z" fill="#A7A5A6"/>
<path d="M417.999 389.22C416.53 389.257 415.091 389.361 413.696 389.539V370.811C415.091 370.625 416.53 370.529 417.999 370.477V389.22Z" fill="#A7A5A6"/>
<path d="M411.205 389.933C409.713 390.207 408.281 390.571 406.916 390.994V372.259C408.281 371.836 409.713 371.487 411.205 371.205V389.933Z" fill="#A7A5A6"/>
<path d="M74.1781 416.703C72.7089 417.118 71.2843 417.534 69.9264 417.957C69.9264 415.456 69.919 408.533 69.919 408.533V393.285C69.919 393.285 72.7163 392.499 74.2078 392.217V406.849L74.1781 416.703ZM81.0416 414.937C79.5427 415.286 78.081 415.649 76.6638 416.02C76.6638 414.989 76.7009 406.278 76.7009 406.278V391.831C76.7009 391.831 79.5279 391.542 80.9971 391.504L81.049 406.278L81.0416 414.937ZM87.7938 391.831C86.3988 391.645 83.4976 391.504 83.4976 391.504V406.278C83.4976 406.278 83.4753 413.178 83.4753 414.38C84.8851 414.076 86.3172 413.787 87.7715 413.512L87.7938 391.831ZM94.5831 405.654V393.285C93.2178 392.855 90.2869 392.217 90.2869 392.217V405.654L90.2498 413.067C90.2498 413.067 93.0991 412.6 94.5534 412.399L94.5831 405.654ZM411.202 408.207V392.217C409.718 392.499 406.921 393.285 406.921 393.285V409.899C406.921 409.899 406.958 410.218 406.958 412.132C408.375 412.251 409.792 412.407 411.209 412.585M418.043 407.383L417.999 391.504C416.529 391.542 413.702 391.831 413.702 391.831V407.383C413.702 407.383 413.643 411.479 413.643 412.919C415.127 413.141 416.596 413.386 418.058 413.661M424.803 415.204C423.371 414.818 421.931 414.469 420.477 414.15C420.477 413.06 420.492 407.383 420.492 407.383V391.504C420.492 391.504 423.4 391.645 424.795 391.831V407.383L424.803 415.204ZM431.577 417.304C430.145 416.784 428.706 416.324 427.244 415.887C427.244 414.751 427.281 406.634 427.281 406.634V392.217C427.281 392.217 430.212 392.855 431.577 393.285V406.634V417.304Z" fill="#A7A5A6"/>
<path d="M236.037 410.581C241.832 413.75 247.39 415.234 251.026 415.901C251.107 415.916 251.174 415.931 251.241 415.931C251.501 415.931 251.753 415.85 251.953 415.679C252.22 415.471 252.376 415.167 252.391 414.833C252.636 408.66 251.263 403.176 250.662 401.106C250.573 400.794 250.358 400.535 250.068 400.394C242.686 396.817 236.705 392.899 232.298 388.729C229.085 385.687 226.747 382.578 225.375 379.484C225.204 379.106 224.848 378.853 224.44 378.809C224.024 378.764 223.624 378.957 223.386 379.291C220.952 382.786 219.164 386.852 218.229 391.037C218.177 391.274 218.207 391.527 218.311 391.757C221.962 399.807 227.927 406.144 236.037 410.581Z" fill="#C4122E"/>
<path d="M233.824 386.935C234.039 387.136 234.321 387.247 234.618 387.247H234.714C235.041 387.225 235.345 387.054 235.538 386.787C244.152 375.16 253.591 370.841 259.994 369.261C260.491 369.15 260.847 368.704 260.87 368.193C260.885 367.681 260.566 367.22 260.076 367.065C256.826 366.004 253.435 365.469 249.985 365.469C245.607 365.469 241.325 366.338 237.259 368.066C233.386 369.721 229.928 372.058 226.96 375.026C226.686 375.301 226.574 375.716 226.664 376.095C227.138 378.031 228.682 382.016 233.824 386.935Z" fill="#C4122E"/>
<path d="M237.192 388.44C236.828 388.937 236.925 389.642 237.414 390.013C240.961 392.78 245.294 395.444 250.318 397.937C250.481 398.011 250.652 398.048 250.822 398.048C251.149 398.048 251.468 397.915 251.69 397.648C254.696 394.168 263.221 385.857 277.482 383.654C277.853 383.602 278.18 383.364 278.35 383.03C278.514 382.696 278.506 382.296 278.313 381.969C275.798 377.532 272.229 373.696 267.992 370.891C267.814 370.773 267.599 370.706 267.384 370.698C266.1 370.661 261.262 370.743 255.104 373.444C248.344 376.404 242.304 381.45 237.192 388.44Z" fill="#C4122E"/>
<path d="M280.426 386.488C280.24 385.991 279.743 385.687 279.216 385.753C276.686 386.065 274.2 386.592 271.826 387.341C271.537 387.43 271.284 387.638 271.151 387.905C271.017 388.18 270.988 388.491 271.084 388.788C271.923 391.378 273.377 396.653 273.637 402.857C273.8 406.782 273.458 410.544 272.627 414.001C272.071 416.302 271.292 418.52 270.312 420.576C270.075 421.073 270.223 421.674 270.661 421.993C270.869 422.149 271.099 422.215 271.344 422.215C271.626 422.215 271.9 422.119 272.123 421.919C275.662 418.661 278.378 414.721 280.196 410.225C283.268 402.604 283.349 394.16 280.426 386.488Z" fill="#C4122E"/>
<path d="M251.668 418.719C251.497 418.467 251.23 418.289 250.926 418.237C247.364 417.584 241.895 416.181 236.086 413.199C229.163 409.644 223.613 404.792 219.591 398.782C219.302 398.351 218.76 398.166 218.27 398.321C217.788 398.485 217.469 398.952 217.491 399.464C217.639 403.36 218.5 407.166 220.029 410.772C222.314 416.137 225.987 420.789 230.662 424.24C235.151 427.534 240.449 429.641 245.991 430.331C246.043 430.346 246.08 430.346 246.132 430.346C246.459 430.346 246.77 430.198 246.993 429.946C249.412 427.156 251.052 423.661 251.846 419.587C251.905 419.283 251.838 418.971 251.668 418.719Z" fill="#C4122E"/>
<path d="M268.949 389.708C268.845 389.396 268.623 389.144 268.326 389.011C268.029 388.877 267.68 388.877 267.391 389.018C259.622 392.491 254.851 397.521 253.16 399.517C252.907 399.822 252.818 400.215 252.93 400.586C253.575 402.738 254.658 407.123 254.785 412.354C254.859 415.634 254.54 418.713 253.835 421.518C253.16 424.181 252.113 426.645 250.733 428.797C250.503 429.168 250.496 429.613 250.711 429.999C250.926 430.34 251.29 430.555 251.698 430.555H251.765C255.029 430.377 258.294 429.665 261.47 428.47C261.611 428.426 261.744 428.344 261.856 428.233C265.217 425.072 267.732 421.28 269.32 416.977C270.648 413.37 271.339 409.356 271.376 405.06C271.42 398.375 269.877 392.572 268.949 389.708Z" fill="#C4122E"/>
</g>
</g>
<defs>
<clipPath id="clip0_1_2826">
<rect width="411.906" height="512" fill="white" transform="translate(43.5547)"/>
</clipPath>
</defs>
</svg>
