<svg width="512" height="512" viewBox="0 0 512 512" fill="none" xmlns="http://www.w3.org/2000/svg">
<g clip-path="url(#clip0_1_3210)">
<path d="M442.354 24.1063C441.755 23.9616 357.664 0.0373145 259.325 0C259.036 0 258.752 0.0113074 258.463 0.0113074C258.173 0.0113074 257.891 0 257.602 0C159.263 0.0373145 75.173 23.9616 74.5737 24.1063C69.5668 25.5242 66.1067 30.1015 66.1067 35.3165V303.821L66.3204 305.988C66.5511 307.753 92.4643 440.233 253.762 511.026C255.249 511.673 256.848 512 258.448 512C258.454 512 258.458 511.995 258.464 511.995C258.47 511.995 258.474 512 258.48 512C260.08 512 261.679 511.673 263.166 511.026C424.464 440.233 450.377 307.753 450.608 305.988L450.821 303.821V35.3165C450.82 30.1015 447.36 25.5242 442.354 24.1063Z" fill="white"/>
<path d="M440.488 30.599C440.237 30.5346 355.386 6.92131 258.464 6.76074C161.541 6.92131 76.6916 30.5357 76.4406 30.599C74.3171 31.1825 72.8618 33.1025 72.8618 35.3063V303.821L72.9421 304.736C73.0382 305.464 98.0107 435.312 256.495 504.844C257.121 505.116 257.795 505.255 258.464 505.255C259.133 505.255 259.806 505.116 260.433 504.844C418.918 435.312 443.89 305.464 443.986 304.736L444.066 303.821V35.3063C444.065 33.1025 442.61 31.1825 440.488 30.599Z" fill="black"/>
<path d="M258.464 16.5598C218.553 16.6072 180.738 20.7265 150.145 25.487V420.331C175.797 447.057 210.803 473.784 258.464 495.003C306.125 473.784 341.131 447.057 366.783 420.331V25.4858C336.189 20.7254 298.375 16.6072 258.464 16.5598Z" fill="white"/>
<path d="M205.471 382.066C190.537 367.144 183.676 349.392 183.686 331.613C183.686 310.411 193.372 289.22 210.241 272.362C223.469 259.14 239.322 250.346 255.784 247.143L232.769 224.138C226.608 230.294 202.844 254.004 193.986 262.862H194.093L190.478 266.436L189.205 267.671C188.359 268.388 187.066 269.051 185.59 269.029C183.921 269.137 182.162 268.232 181.033 266.943L168.421 254.193C167.169 253.096 166.207 251.384 166.313 249.668C166.286 248.181 166.966 246.886 167.822 245.887L255.196 158.549L235.952 139.332C229.802 145.478 206.027 169.199 197.164 178.067H197.25L193.656 181.624L192.372 182.87C191.548 183.56 190.265 184.267 188.751 184.24C187.077 184.347 185.349 183.432 184.209 182.148L171.581 169.392C170.357 168.295 169.383 166.606 169.479 164.872C169.452 163.38 170.132 162.086 170.998 161.085L268.626 63.5058C270.626 61.4354 273.445 60.152 276.541 60.152C279.611 60.1362 282.356 61.3981 284.297 63.4199L349.262 128.39C349.979 129.245 350.647 130.54 350.621 132.016C350.727 133.674 349.835 135.433 348.562 136.563L347.947 137.172H347.921C347.551 137.515 347.049 138.018 346.444 138.611C345.208 139.835 343.566 141.467 341.924 143.109C338.641 146.377 335.377 149.639 335.367 149.639L333.88 151.104L279.029 96.2374L254.099 121.188L346.074 213.173C346.802 214.035 347.471 215.34 347.443 216.804C347.551 218.467 346.658 220.216 345.373 221.361L330.729 235.915L275.863 181.049L250.922 205.978L296.208 251.264C304.584 254.848 312.612 260.24 319.946 267.589C334.081 281.891 342.1 299.108 342.111 316.261C342.111 328.685 337.875 341.015 328.895 351.935L327.429 353.722L306.024 332.301L306.849 330.91C310.845 324.14 313.176 317.191 313.165 310.323C313.155 302.113 309.929 293.881 301.799 285.731C293.054 277.007 283.538 273.498 273.841 273.477C259.143 273.451 243.867 281.863 231.828 293.93C219.762 305.96 211.359 321.251 211.386 335.955C211.397 345.652 214.917 355.172 223.629 363.895C231.015 371.271 239.226 374.411 247.629 374.421C257.192 374.421 267.082 370.25 275.854 363.013L277.314 361.826L298.397 382.91L296.745 384.381C283.277 396.33 267.606 402.459 251.961 402.459C235.455 402.462 219.044 395.641 205.471 382.066Z" fill="black"/>
<path d="M264.583 250.025L260.406 250.587C243.536 252.903 226.933 261.558 213.194 275.308C196.977 291.504 187.847 311.695 187.847 331.613C187.863 348.322 194.216 364.892 208.407 379.114C221.318 391.999 236.6 398.283 251.961 398.294C265.878 398.294 279.913 393.1 292.312 382.707L277.025 367.411C268.039 374.402 257.856 378.578 247.629 378.589C238.157 378.601 228.732 374.926 220.688 366.844C211.265 357.458 207.199 346.691 207.22 335.957C207.242 319.644 216.313 303.56 228.887 290.991C241.462 278.416 257.539 269.34 273.842 269.313C284.572 269.303 295.343 273.362 304.741 282.782C313.497 291.515 317.353 300.967 317.332 310.326C317.332 317.638 315.022 324.806 311.245 331.619L327.109 347.488C334.522 337.728 337.941 327.063 337.941 316.263C337.951 300.431 330.512 284.209 316.996 270.527C309.92 263.435 302.207 258.306 294.211 254.93L293.81 254.76L245.025 205.98L275.865 175.162L330.731 230.022L342.439 218.411C343.434 217.255 343.171 217.721 343.279 216.806C343.257 216.389 343.236 216.33 342.995 215.982L248.201 121.189L279.031 90.3496L333.902 145.231C337.079 142.06 344.385 134.758 345.626 133.604C346.61 132.475 346.353 132.93 346.455 132.015C346.434 131.598 346.423 131.539 346.172 131.169L281.325 66.3338C280.064 65.0504 278.491 64.3278 276.544 64.312C274.602 64.312 272.864 65.1092 271.601 66.4186L174.08 163.881C173.69 164.394 173.669 164.474 173.642 164.87C173.738 165.71 173.497 165.271 174.535 166.449L187.173 179.216C188.312 180.227 187.874 179.97 188.75 180.076C189.136 180.05 189.243 180.029 189.612 179.766L190.564 178.825L190.634 178.739L190.693 178.668L190.811 178.551C190.907 178.455 191.024 178.326 191.191 178.155C191.517 177.834 191.992 177.358 192.587 176.764C193.785 175.561 195.491 173.839 197.545 171.791C201.653 167.689 207.124 162.212 212.601 156.751C223.534 145.829 234.483 134.918 234.483 134.918L235.943 133.457L261.086 158.547L170.91 248.666C170.54 249.169 170.504 249.265 170.477 249.667C170.583 250.523 170.322 250.073 171.37 251.261L183.998 264.017C185.126 265.006 184.688 264.767 185.592 264.863C185.993 264.841 186.079 264.815 186.437 264.569L187.464 263.548L187.517 263.483L187.634 263.355C187.731 263.269 187.848 263.142 188.014 262.97C188.341 262.649 188.816 262.173 189.41 261.569C190.608 260.366 192.313 258.654 194.368 256.595C198.476 252.492 203.948 247.026 209.424 241.555C220.357 230.633 231.305 219.711 231.305 219.711L232.766 218.246L261.6 247.053L264.583 250.025Z" fill="#E53138"/>
</g>
<defs>
<clipPath id="clip0_1_3210">
<rect width="384.714" height="512" fill="white" transform="translate(66.1067)"/>
</clipPath>
</defs>
</svg>
