<svg width="512" height="512" viewBox="0 0 512 512" fill="none" xmlns="http://www.w3.org/2000/svg">
<path d="M282.365 486.203C280.364 492.086 273.989 506.514 258.558 506.514C241.006 506.514 234.919 487.523 234.624 486.723L234.105 484.925C234.105 484.925 249.22 486.182 257.547 486.182C265.852 486.182 280.083 485.361 282.386 484.925L282.365 486.203Z" fill="black"/>
<path d="M328.42 476.84L332.022 477.297C327.725 488.523 320.01 501.104 304.887 501.104C290.137 501.104 282.863 492.567 279.816 486.859L277.24 485.286C277.24 485.286 302.648 484.465 328.42 476.84Z" fill="black"/>
<path d="M189.229 476.84L185.627 477.297C189.903 488.523 197.654 501.104 212.825 501.104C227.491 501.104 235.397 492.117 238.654 486.859L240.402 485.286C240.402 485.286 215.037 484.465 189.229 476.84Z" fill="black"/>
<path d="M270.872 487.401C268.478 490.827 266.87 490.651 264.041 490.651C262.574 490.651 260.467 491.831 260.489 494.007C260.552 495.72 261.949 497.11 264.245 497.11C269.468 497.11 273.463 489.872 274.523 486.79C274.523 486.79 277.584 486.664 278.475 486.572C278.475 486.572 272.999 502.944 258.747 502.944C244.474 502.944 238.654 486.769 238.654 486.769C238.654 486.769 250.688 487.499 257.547 487.499C264.427 487.499 268.808 487.436 270.872 487.401Z" fill="url(#paint0_radial_1_2654)"/>
<path d="M191.167 480.185C200.441 482.642 207.068 484.72 222.689 486.616C222.689 486.616 222.191 488.195 218.793 488.069C217.494 487.985 217.318 487.662 216.869 487.585C215.865 487.402 214.412 488.42 214.559 490.112C214.714 491.306 215.711 492.787 219.179 492.787C222.647 492.787 226.684 489.965 228.727 487.325C228.727 487.325 230.798 487.809 232.953 487.915C232.953 487.915 226.277 497.238 213.162 497.238C198.763 497.238 193.399 484.313 191.167 480.185Z" fill="url(#paint1_radial_1_2654)"/>
<path d="M257.371 403.449C307.106 403.449 362.204 372.923 400.888 328.918C405.1 324.158 412.156 315.115 428.956 315.115C445.785 315.115 468.153 330.455 465.534 358.369C463.582 378.701 434.524 424.574 384.768 452.79C335.027 481.119 289.203 487.177 257.371 487.177C225.512 487.177 179.73 481.119 129.96 452.79C80.2118 424.574 51.1603 378.701 49.2226 358.369C46.6039 330.455 68.9788 315.115 85.7722 315.115C102.615 315.115 109.699 324.158 113.897 328.918C152.525 372.923 207.651 403.449 257.371 403.449Z" fill="#FFE500" stroke="black" stroke-width="3.58054" stroke-miterlimit="3.863"/>
<path d="M256.95 410.217C206.907 410.217 149.962 380.688 108.021 332.919C103.752 328.068 98.318 321.827 85.386 321.827C77.8317 321.827 69.2665 325.871 63.5868 332.126C59.3112 336.774 54.5161 344.967 55.6675 357.527C57.3314 374.685 84.5224 419.091 132.986 446.668C172.049 468.888 213.759 480.115 256.95 480.115C300.183 480.115 341.893 468.888 380.956 446.668C429.406 419.091 456.639 374.685 458.239 357.527C459.44 344.967 454.61 336.774 450.39 332.126C444.683 325.871 436.096 321.827 428.577 321.827C415.589 321.827 410.162 328.068 405.932 332.919C364.015 380.688 307 410.217 256.95 410.217Z" fill="#DA020E"/>
<path d="M472.225 161.106L472.4 149.507C475.974 152.238 482.693 152.281 486.624 148.089C488.414 146.18 489.432 143.224 489.285 140.184C489.117 136.751 487.558 133.184 484.995 130.671C470.477 116.482 457.58 102.315 457.58 102.315C456.246 100.208 454.161 98.6849 452.953 98.1654C451.177 97.3158 444.858 94.4304 440.042 101.746C435.696 108.373 436.342 117.718 437.178 121.13L450.791 139.686C455.452 145.597 468.588 158.171 472.225 161.106Z" fill="black"/>
<path d="M181.253 40.834C198.391 35.077 214.061 30.317 235.179 28.4495L238.38 26.6522C226.593 17.3498 214.882 11.0032 203.221 11.0032C195.898 11.0032 181 15.9808 177.68 42.2662L181.253 40.834Z" fill="black"/>
<path d="M333.524 40.834C316.38 35.077 300.724 30.317 279.627 28.4495L276.383 26.6522C288.22 17.3498 299.903 11.0032 311.578 11.0032C318.907 11.0032 333.742 15.9808 337.133 42.2662L333.524 40.834Z" fill="black"/>
<path d="M238.008 27.5788C246.63 11.003 254.514 5.00732 258.923 5.00732C264.371 5.00732 270.788 13.6708 275.829 24.8828L276.889 27.4243L272.459 27.0803C269.552 26.5327 261.275 26.4274 258.115 26.4274C254.872 26.4274 247.879 26.4274 243.667 26.8206L238.008 27.5788Z" fill="black"/>
<path d="M170.027 401.129L157.545 423.693C153.774 430.475 149.892 434.779 143.524 431.128C137.255 427.582 138.708 422.443 142.555 415.437L155.073 392.844L144.978 387.242L131.751 411.119C124.47 424.262 133.632 432.413 140.807 436.365C148.467 440.606 159.616 443.758 166.833 430.714L180.151 406.731L170.027 401.129ZM330.548 447.617L326.342 434.67L338.867 430.627L337.133 425.242L324.594 429.307L321.028 418.242L333.848 414.037L332.12 408.708L308.65 416.34L321.695 456.442L347.566 448.052L345.86 442.702L330.548 447.617ZM357.36 395.72L343.073 403.955L364.226 440.638L378.457 432.41C393.165 423.929 394.562 411.081 388.77 400.775C381.799 388.545 370.292 388.264 357.36 395.72ZM378.948 406.883C384.305 416.269 383.217 423.115 374.967 427.839L371.036 430.128L355.506 403.295L359.733 400.845C369.639 395.151 375.262 400.22 378.948 406.883ZM264.659 424.071L265.424 429.569L277.233 427.898L282.337 464.152L293.317 462.629L288.227 426.395L299.86 424.78L299.06 419.206L264.659 424.071ZM254.661 424.415L243.604 423.811L241.392 465.935L252.457 466.525L254.661 424.415ZM221.089 419.265L213.387 448.05L198.974 413.333L190.008 410.925L179.084 451.679L188.85 454.27L196.615 425.247L211.246 460.259L220.014 462.625L230.897 421.856L221.089 419.265Z" fill="#FFE500"/>
<path d="M162.901 153.305V350.88L257.371 411.581L351.834 350.88L351.975 153.607C348.949 150.939 342.665 145.091 337.744 142.03H176.564C172.485 144.894 164.313 151.788 162.901 153.305Z" fill="#FFE500"/>
<mask id="mask0_1_2654" style="mask-type:luminance" maskUnits="userSpaceOnUse" x="162" y="142" width="190" height="270">
<path d="M162.901 153.305V350.88L257.371 411.581L351.834 350.88L351.975 153.607C348.949 150.939 342.665 145.091 337.744 142.03H176.564C172.485 144.894 164.313 151.788 162.901 153.305Z" fill="white"/>
</mask>
<g mask="url(#mask0_1_2654)">
<g filter="url(#filter0_f_1_2654)">
<path d="M162.901 73.053L162.901 153.305V350.88L257.371 411.581L351.834 350.88L351.975 73.3549" stroke="#B54005" stroke-width="17.0667" stroke-miterlimit="3.863"/>
</g>
</g>
<path d="M295.128 295.061V287.717C295.128 287.717 293.177 284.699 288.339 284.699C283.516 284.699 280.631 286.152 280.631 287.367C280.631 289.353 284.949 295.061 295.128 295.061ZM257.034 230.057L264.336 217.307L270.058 230.057H279.536C273.835 235.407 271.504 243.501 271.504 248.9V254.784C271.504 257.283 270.247 261.418 270.247 261.418C270.247 261.418 278.475 267.688 279.739 268.776C280.266 269.19 280.841 269.443 280.462 270.531C279.809 272.363 274.221 274.884 273.652 275.361C272.389 276.484 272.059 277.158 272.389 278.268C272.789 279.335 273.835 279.531 275.976 278.773C278.138 278.078 282.618 275.726 286.374 274.118C290.116 272.49 295.128 272.904 295.128 272.904V265.708H280.975V242.841L278.475 238.812L284.717 227.691L290.993 238.882L288.522 242.841V254.784H295.732V242.841L293.247 238.882L299.509 227.775L305.744 238.882L303.279 242.841V254.784H310.539V242.841L307.969 238.882L314.253 227.775L320.515 238.882L318.016 242.841L318.135 265.673H303.869V276.232C307.106 279.272 310.16 286.152 310.16 290.203C310.16 294.352 307.457 296.107 307.457 296.107C308.362 299.365 308.187 300.72 307.801 303.668C307.457 306.666 303.715 311.342 303.715 311.342V365.914C303.715 369.621 295.128 369.255 295.128 366.089V312.571C290.27 307.256 277.043 303.079 277.043 303.079C272.192 307.93 269.208 316.355 269.208 316.355C271.314 317.829 274.593 316.355 275.829 314.923C277.043 313.49 279.535 313.118 280.975 314.024C282.386 314.923 282.737 315.267 282.252 317.373C281.698 319.591 280.813 323.137 280.813 325.615C280.813 328.157 283.671 327.588 285.805 327.777C290.116 328.157 290.825 332.973 290.467 335.662C290.116 338.365 288.852 344.1 288.852 347.667C288.852 351.198 289.041 354.765 289.392 356.787C289.765 358.739 290.467 360.894 290.27 363.414C290.052 366.805 287.967 367.346 285.805 365.169C283.671 363.028 253.784 331.168 253.784 331.168C251.797 337.648 260.067 348.699 262.735 352.111C265.424 355.523 265.248 358.029 262.896 360.367C260.594 362.677 256.108 363.913 255.23 366.089C254.317 368.195 257.371 374.682 263.655 382.728C269.917 390.76 256.466 396.152 248.441 397.759C240.36 399.346 240.36 393.8 240.922 390.76C241.455 387.748 241.455 385.916 241.259 383.269C241.083 380.573 238.612 376.838 235.179 372.366C231.788 367.872 231.788 363.786 233.199 353.375C234.624 342.991 234.287 336.364 234.287 336.364C234.287 336.364 230.707 336.511 225.511 336.364C220.344 336.167 216.055 333.169 215.69 320.63C215.332 308.127 215.037 278.268 214.187 275.136C213.359 272.04 210.01 271.472 208.599 271.057C207.131 270.692 207.061 268.579 208.479 267.821C212.214 266.003 216.694 261.418 215.037 258.568C213.359 255.71 206.78 256.3 202.378 258.455C197.962 260.59 193.308 265.28 192.107 266.557C190.949 267.821 189.945 267.821 190.071 266.459C190.219 264.999 189.257 258.168 188.688 255.802C188.056 253.415 185.922 248.9 185.199 247.707C184.49 246.506 185.199 246.043 186.406 246.506C187.565 246.984 190.219 248.086 192.711 248.746C195.224 249.504 197.618 248.268 198.763 245.924C199.956 243.501 202.287 238.397 203.481 236.116C204.653 233.862 206.549 234.367 208.107 234.711C209.652 235.077 211.084 236.031 212.509 236.6C213.927 237.19 215.114 237.077 215.619 236.354C216.104 235.666 216.694 235.407 217.55 233.623C218.386 231.84 219.425 232.69 219.558 233.399C223.827 259.066 234.947 260.246 234.947 260.246C233.276 264.521 229.359 271.338 228.432 273.058C227.428 274.666 227.056 276.955 226.81 278.731C226.621 280.5 227.428 297.455 228.615 303.668C229.822 309.889 233.62 307.467 234.856 305.564C236 303.668 239.728 295.777 239.728 295.777C239.728 295.777 240.648 293.629 240.648 291.846C240.648 290.048 237.559 286.152 236.85 284.937C236.113 283.702 233.508 281.336 233.508 275.361C233.508 269.408 238.872 265.28 240.803 263.714C242.712 262.148 242.712 259.979 242.452 258.673C241.617 254.067 236.724 244.379 234.372 240.665C231.964 236.965 227.316 229.937 227.316 229.937H236.976L243.197 217.019L249.965 229.994L257.034 230.057ZM255.469 269.19C258.621 263.981 259.941 258.568 259.941 258.568H250.828C250.828 258.568 252.288 264.107 255.469 269.19ZM245.977 242.926C246.342 245.594 248.329 246.612 249.838 245.832C251.341 245.004 251.081 242.841 249.964 241.114C248.897 239.422 246.679 237.534 245.998 237.815C245.303 238.102 245.738 241.353 245.977 242.926ZM264.041 237.815C263.388 237.534 261.05 239.422 259.941 241.114C258.874 242.841 258.6 245.004 260.116 245.832C261.598 246.612 263.507 245.572 263.985 242.926C264.245 241.353 264.757 238.102 264.041 237.815Z" fill="url(#paint2_linear_1_2654)"/>
<path d="M170.313 202.56V214.453H344.606V202.56H331.753V204.48H183.166V202.56H170.313Z" fill="#DA020E"/>
<path d="M170.322 149.114H344.582V196.503H170.322V149.114Z" fill="#DA020E"/>
<path d="M200.265 182.745L213.611 186.023L220.815 165.951V160.868L200.265 182.745ZM310.258 194.577V188.395H297.663V183.2H307.955V160.284H298.47L295.227 153.979L292.06 160.284H282.547V183.2H292.882V188.395H268.106V183.2H278.412V160.284H268.913L265.705 153.979L262.461 160.284H252.99V183.2H263.346V188.395H238.057V183.2H248.385V160.284H238.872L235.691 153.979L232.427 160.284H222.949V183.2H233.311V188.395L213.303 188.458L193.399 183.81L197.387 194.577L310.258 194.577Z" fill="#FFE500"/>
<path d="M182.243 38.9663C199.065 33.3357 211.779 28.9478 232.497 27.1084C222.949 20.4809 214.475 14.8713 204.73 14.8713C199.605 14.8713 195.224 16.8301 194.213 20.4107C193.273 23.6682 195.842 25.0864 196.755 24.8688C197.71 24.6231 198.391 24.3423 198.159 23.4576C197.913 22.5239 198.636 20.1509 201.894 20.1509C205.208 20.1509 206.457 23.2189 206.457 25.3251C206.457 27.4313 203.116 30.9487 196.972 30.9487C190.949 30.9487 187.86 26.9329 188.091 23.2189C185.185 27.4735 183.493 31.7771 182.243 38.9663Z" fill="url(#paint3_radial_1_2654)"/>
<path d="M65.0261 139.683L78.6883 121.127C79.4747 117.715 80.0995 108.377 75.7327 101.75C70.9586 94.4274 64.6681 97.32 62.8217 98.1695C61.6562 98.689 59.536 100.205 58.2302 102.319C58.2302 102.319 45.0945 116.781 30.6389 131.012C28.5959 133.041 26.3493 136.748 26.1597 140.181C25.9842 143.228 27.2128 146.289 28.982 148.199C32.9347 152.411 39.843 152.243 43.3744 149.505L43.6201 161.103C47.2568 158.175 60.3715 145.594 65.0261 139.683Z" fill="black"/>
<path d="M257.371 112.679C335.16 112.679 379.419 185.694 389.079 198.514C406.238 221.415 427.243 240.006 451.584 233.863C487.34 224.715 485.48 171.751 485.48 171.751C476.851 165.538 462.15 157.716 435.345 119.721C409.095 82.476 349.693 27.3007 257.371 27.3007C165.029 27.3007 105.641 82.476 79.4537 119.721C52.6208 157.716 37.8703 165.538 29.3262 171.751C29.3262 171.751 27.3955 224.715 63.1798 233.863C87.5064 240.006 108.498 221.415 125.685 198.514C135.31 185.694 179.596 112.679 257.371 112.679Z" fill="#FFE500" stroke="black" stroke-width="3.58054" stroke-miterlimit="3.863"/>
<path d="M257.371 105.747C332.366 105.747 376.968 169.361 393.098 192.315C414.445 220.809 432.516 231.564 449.878 227.148C474.97 220.76 478.087 186.225 478.424 175.771V175.357L478.143 175.139C469.297 169.01 454.498 158.851 429.701 123.699C414.908 102.707 358.75 34.1643 257.371 34.1643C156.028 34.1643 99.8207 102.707 85.0352 123.699C60.4418 158.627 44.9753 169.277 36.6909 174.964L36.3398 175.252L36.382 175.617C36.719 186.091 39.8432 220.809 64.8719 227.148C82.255 231.564 100.361 220.809 121.652 192.315C137.767 169.361 182.412 105.747 257.371 105.747Z" fill="#DA020E"/>
<path d="M216.63 52.6053C202.87 55.5189 193.806 65.6638 196.776 79.4173C198.503 86.8451 205.131 100.514 226.094 96.0562C231.914 94.947 235.06 92.6301 238.107 89.7165L234.287 85.3286C232.848 86.9293 230.7 89.2602 225.877 90.2641C215.732 92.4054 209.701 84.1983 208.199 77.1145C205.966 66.6186 212.081 59.3873 218.989 57.8919C223.925 56.8037 226.916 58.1446 228.811 58.8818H228.874L230.159 53.504C226.831 52.1701 222.837 51.2855 216.63 52.6053ZM331.713 113.112C339.583 117.851 348.17 117.044 352.185 110.395C355.106 105.748 355.134 101.886 351.624 94.9708C350.718 93.012 349.532 91.6079 348.738 89.8247C347.187 86.9321 345.754 84.5662 347.088 82.3266C348.563 79.8974 351.975 79.7008 355.064 81.5894C358.3 83.5482 359.641 86.7847 360.322 88.9962L365.398 86.8058C363.84 82.6355 361.53 78.8935 356.25 75.7693C347.229 70.3353 339.892 71.7675 336.838 76.8575C333.742 81.9755 334.62 86.2371 336.951 90.6039C336.951 90.6039 338.397 93.0823 339.232 94.7743C341.275 98.1863 343.655 102.49 341.984 105.179C339.962 108.57 336.48 109.307 333.089 107.201C328.743 104.463 327.725 101.275 326.82 98.1652L321.238 100.552C322.467 104.835 325.352 109.272 331.713 113.112ZM271.63 50.3917L271.314 67.5783L254.788 67.3396L255.033 50.0898L243.955 49.8862L243.218 92.0594L254.317 92.298L254.668 72.9632L271.223 73.265L270.907 92.5648L281.993 92.7333L282.716 50.5602L271.63 50.3917ZM430.347 184.309C430.424 184.414 436.848 187.587 443.988 181.178C449.955 175.814 447.954 168.463 441.72 161.562L430.227 148.791L398.894 177.028L406.301 185.243L418.776 174.052L422.378 178.117L414.48 195.935L423.937 203.489L430.347 184.309ZM435.942 163.535C438.877 166.792 438.926 170.661 435.514 173.665C432.193 176.726 427.952 176.024 424.73 172.486L422.855 170.387L433.464 160.804L435.942 163.535ZM387.043 152.761L397.539 144.048L405.957 154.067L410.309 150.437L401.843 140.376L410.724 132.899L419.394 143.227L423.698 139.639L407.859 120.76L375.571 147.874L393.011 168.691L397.363 165.075L387.043 152.761ZM374.939 89.3887L371.176 93.5169L380.022 101.513L355.506 128.711L363.777 136.146L388.258 108.941L396.991 116.804L400.74 112.676L374.939 89.3887ZM302.746 92.0622L307.211 79.2003L319.631 83.4829L321.477 78.1332L309.036 73.8575L312.821 62.8422L325.619 67.2301L327.417 61.9084L304.101 53.8838L290.397 93.8243L316.092 102.621L317.918 97.2996L302.746 92.0622ZM169.22 71.3996L185.059 96.646L149.794 83.4822L141.945 88.4107L164.305 124.237L172.822 118.873L156.878 93.3673L192.507 106.594L200.202 101.771L177.799 65.9657L169.22 71.3996ZM119.893 109.549L112.683 117.286L132.895 157.479L137.831 152.2L132.34 141.507L142.099 131.011L153.164 135.701L161.294 126.996L119.893 109.549ZM136.939 128.688L129.616 136.551L122.09 122.088L136.939 128.688ZM96.0716 135.055L88.2225 144.399L102.889 174.728L71.4361 164.429L64.6682 172.447L96.9844 199.581L101.892 193.754L79.0535 174.532L109.664 184.501L112.886 180.682L98.2902 151.434L121.227 170.663L128.388 162.189L96.0716 135.055Z" fill="#FFE500"/>
<path d="M46.7021 156.545L46.667 147.243C62.5407 132.668 70.0248 118.023 70.0248 118.023C70.0248 118.023 64.1906 115.825 61.5789 112.504C60.2871 110.658 59.7886 108.138 60.0063 106.446C60.5118 103.272 62.983 101.664 63.8255 101.299C65.6509 100.513 69.0419 98.7298 72.819 103.925C76.8418 109.549 75.7817 120.22 75.227 122.677C75.227 122.677 67.8273 135.56 46.7021 156.545Z" fill="url(#paint4_radial_1_2654)"/>
<path d="M64.2681 119.719C62.1267 123.454 56.7278 132.469 43.0726 145.268C40.805 147.395 35.1463 149.199 31.9379 145.598C30.7374 144.201 29.944 142.242 30.0634 139.967C30.2178 137.334 31.7975 134.273 33.3841 132.925C36.1362 130.601 47.8678 118.758 56.2083 109.441C56.44 111.14 57.9003 113.984 57.9003 113.984C59.0517 115.57 60.4558 117.852 64.2681 119.719Z" fill="url(#paint5_linear_1_2654)"/>
<path d="M256.95 410.217C206.907 410.217 149.962 380.688 108.021 332.919C103.752 328.068 98.318 321.827 85.386 321.827C77.8317 321.827 69.2665 325.871 63.5868 332.126C59.3112 336.774 54.5161 344.967 55.6675 357.527C57.3314 374.685 84.5224 419.091 132.986 446.668C172.049 468.888 213.759 480.115 256.95 480.115" fill="url(#paint6_linear_1_2654)"/>
<path d="M256.95 410.217C306.993 410.217 363.938 380.688 405.88 332.919C410.148 328.068 415.582 321.827 428.514 321.827C436.068 321.827 444.634 325.871 450.313 332.126C454.589 336.774 459.384 344.967 458.233 357.527C456.569 374.685 429.378 419.091 380.914 446.668C341.851 468.888 300.141 480.115 256.95 480.115" fill="url(#paint7_linear_1_2654)"/>
<path d="M393.098 192.315C414.444 220.809 432.516 231.564 449.878 227.148C474.97 220.759 478.087 186.225 478.424 175.771V175.357L478.143 175.139C469.297 169.01 454.497 158.851 429.7 123.699" fill="url(#paint8_linear_1_2654)"/>
<path d="M121.714 192.315C100.367 220.809 82.2963 231.564 64.9342 227.148C39.8423 220.759 36.7252 186.225 36.3882 175.771V175.357L36.669 175.139C45.515 169.01 60.3146 158.851 85.1116 123.699" fill="url(#paint9_linear_1_2654)"/>
<path d="M332.569 38.9663C315.747 33.3357 303.033 28.9478 282.315 27.1084C291.863 20.4809 300.337 14.8713 310.082 14.8713C315.207 14.8713 319.588 16.8301 320.599 20.4107C321.539 23.6682 318.97 25.0864 318.057 24.8688C317.102 24.6231 316.421 24.3423 316.653 23.4576C316.899 22.5239 316.176 20.1509 312.918 20.1509C309.604 20.1509 308.355 23.2189 308.355 25.3251C308.355 27.4313 311.696 30.9487 317.839 30.9487C323.863 30.9487 326.952 26.9329 326.721 23.2189C329.627 27.4735 331.319 31.7771 332.569 38.9663Z" fill="url(#paint10_radial_1_2654)"/>
<path d="M258.16 16.8856C257.634 20.101 253.934 23.1831 250.192 23.1831C246.443 23.1831 245.319 22.5794 245.319 22.5794C244.751 23.464 244.252 24.145 243.663 25.0998C247.061 24.9663 254.945 24.7487 258.104 24.7487C261.256 24.7487 269.997 25.2051 271.879 25.3385C268.839 18.2125 262.976 8.34848 258.926 8.34848C258.785 8.34848 258.61 8.33484 258.392 8.33484C257.444 8.33484 254.161 11.1814 252.402 13.6809C250.091 16.9646 258.16 16.8856 258.16 16.8856Z" fill="url(#paint11_radial_1_2654)"/>
<path d="M468.11 156.545L468.145 147.243C452.271 132.668 444.787 118.023 444.787 118.023C444.787 118.023 450.621 115.825 453.233 112.504C454.525 110.658 455.023 108.138 454.806 106.446C454.3 103.272 451.829 101.664 450.987 101.299C449.161 100.513 445.77 98.7298 441.993 103.925C437.97 109.549 439.03 120.22 439.585 122.677C439.585 122.677 446.985 135.56 468.11 156.545Z" fill="url(#paint12_radial_1_2654)"/>
<path d="M450.544 119.719C452.685 123.454 458.084 132.469 471.74 145.268C474.007 147.395 479.666 149.199 482.874 145.598C484.075 144.201 484.868 142.242 484.749 139.967C484.594 137.334 483.015 134.273 481.428 132.925C478.676 130.601 466.945 118.758 458.604 109.441C458.372 111.14 456.912 113.984 456.912 113.984C455.761 115.57 454.356 117.852 450.544 119.719Z" fill="url(#paint13_linear_1_2654)"/>
<path d="M162.901 153.305V350.88L257.371 411.581L351.834 350.88L351.975 153.607C348.949 150.939 342.665 145.091 337.744 142.03H176.564C172.485 144.894 164.313 151.788 162.901 153.305Z" stroke="black" stroke-width="3.58054" stroke-miterlimit="3.863"/>
<path d="M326.632 480.185C317.358 482.642 310.731 484.72 295.11 486.616C295.11 486.616 295.608 488.195 299.006 488.069C300.305 487.985 300.48 487.662 300.93 487.585C301.934 487.402 303.387 488.42 303.24 490.112C303.085 491.306 302.088 492.787 298.62 492.787C295.152 492.787 291.115 489.965 289.072 487.325C289.072 487.325 287.001 487.809 284.845 487.915C284.845 487.915 291.522 497.238 304.637 497.238C319.036 497.238 324.4 484.313 326.632 480.185Z" fill="url(#paint14_radial_1_2654)"/>
<path d="M12.0693 277.38C12.0693 253.544 31.4112 234.16 55.2745 234.16C79.1447 234.16 98.4727 253.544 98.4727 277.38C98.4727 301.257 79.1447 320.599 55.2745 320.599C31.4112 320.599 12.0693 301.257 12.0693 277.38Z" fill="#FFE500" stroke="black" stroke-width="3.58054" stroke-miterlimit="3.863"/>
<path d="M21.96 275.773C21.96 257.701 36.8738 243.005 55.2738 243.005C73.6792 243.005 88.5821 257.701 88.5821 275.773C88.5821 293.876 73.6792 308.54 55.2738 308.54C36.8738 308.54 21.96 293.876 21.96 275.773Z" fill="url(#paint15_radial_1_2654)"/>
<path d="M64.4504 307.083C62.5548 307.687 61.7334 306.36 60.8699 305.405C57.5069 301.537 56.6434 291.238 56.6434 289.876C56.6434 288.507 57.1489 287.004 58.1107 286.969C66.2196 286.815 72.0117 284.463 77.3263 280.047C82.6339 275.708 84.9367 270.73 85.407 269.846C85.8704 268.863 86.9726 269.038 87.1763 270.4C87.4009 271.538 87.8292 273.581 87.8292 275.792C87.8292 290.634 77.8247 302.759 64.4504 307.083ZM55.8922 308.424C55.6605 308.424 55.4008 308.452 55.1831 308.452C49.2085 308.452 42.6302 306.171 38.7337 303.952C34.6968 301.755 33.1804 291.392 33.1804 286.155C33.1804 269.102 40.1729 258.95 41.3103 256.956C42.4195 254.934 44.9189 254.723 46.7513 255.215C48.6469 255.762 49.3209 256.092 51.5043 256.738C52.6416 257.11 54.9514 257.581 56.6855 257.89C58.4196 258.304 60.2872 258.669 59.1639 261.905C58.0546 265.149 54.2775 272.942 53.8983 282.181C53.5333 290.543 54.6425 298.848 56.5311 303.952C57.7738 307.252 57.7737 308.487 55.8922 308.424ZM31.2076 269.495C29.6139 268.652 27.6972 264.538 27.0513 263.338C26.616 262.474 26.616 260.003 27.2409 258.95C29.9087 254.281 33.6929 249.956 38.5652 247.703C39.162 247.443 39.9974 247.394 39.9974 248.826C39.9974 249.591 40.4116 250.785 40.4257 251.543C40.4257 252.308 40.7487 253.874 39.7798 255.109C38.7618 256.352 34.402 264.082 33.2857 268.414C33.1031 269.382 32.8083 270.4 31.2076 269.495ZM30.3089 296.861C25.7876 292.396 22.5651 284.308 22.5651 275.792C22.5651 272.485 23.0565 269.319 23.9341 266.314C23.9341 266.314 24.7415 264.966 25.4436 266.111C25.9842 266.953 26.7284 267.803 27.3321 268.926C28.0061 270.049 31.5024 272.71 31.2076 274.88C29.986 282.848 31.0812 293.435 31.4603 295.218C31.7973 296.981 31.3128 297.732 30.3089 296.861ZM44.5819 244.922C47.9307 243.813 51.5043 243.188 55.1831 243.188C60.7786 243.188 66.2126 244.206 70.7479 247.099C71.9134 247.857 72.2433 248.742 72.2433 250.054C72.2433 254.33 65.5596 255.762 61.1366 255.762C56.6855 255.762 51.2094 254 47.334 252.772C43.4726 251.564 42.6302 249.331 42.6302 248.313C42.6302 247.338 43.3814 245.316 44.5819 244.922ZM74.7567 249.675C75.3535 250.16 76.9331 251.438 76.9331 251.438C80.0503 254.281 82.8656 257.524 84.5014 261.414C86.5444 266.314 80.2048 273.735 78.3443 275.448C69.9476 283.332 64.6891 283.185 61.7123 283.613C58.7356 284.049 56.8049 282.181 56.8821 279.941C57.0716 273.384 61.7404 262.081 63.0814 259.954C63.9379 258.585 65.4263 257.735 65.4263 257.735C68.5434 256.872 71.5693 255.573 73.135 253.789C74.6655 251.978 74.7567 249.675 74.7567 249.675ZM55.506 241.061C35.434 241.061 19.1812 257.321 19.1812 277.379C19.1812 297.451 35.434 313.704 55.506 313.704C75.5641 313.704 91.852 297.451 91.852 277.379C91.852 257.321 75.5641 241.061 55.506 241.061Z" fill="#DA020E"/>
<path d="M417.176 277.295C417.176 253.46 436.518 234.146 460.381 234.146C484.258 234.146 503.586 253.46 503.586 277.295C503.586 301.173 484.258 320.522 460.381 320.522C436.518 320.522 417.176 301.173 417.176 277.295Z" fill="#FFE500" stroke="black" stroke-width="3.58054" stroke-miterlimit="3.863"/>
<path d="M485.683 296.712C484.735 297.645 484.202 296.831 484.602 295.083C484.932 293.349 486.034 282.726 484.806 274.758C484.504 272.596 488.021 269.942 488.667 268.805C489.313 267.688 490.05 266.818 490.57 266.003C491.293 264.824 492.058 266.144 492.058 266.144C492.985 269.184 493.434 272.364 493.434 275.657C493.434 284.201 490.169 292.261 485.683 296.712ZM482.756 268.299C481.632 263.981 477.244 256.217 476.254 254.981C475.258 253.787 475.573 252.201 475.587 251.435C475.587 250.677 476.023 249.463 476.023 248.676C476.023 247.307 476.851 247.335 477.441 247.595C482.341 249.849 486.104 254.11 488.8 258.821C489.397 259.895 489.411 262.353 488.969 263.188C488.337 264.396 486.434 268.51 484.806 269.38C483.177 270.272 482.938 269.233 482.756 268.299ZM477.301 303.831C473.397 306.014 466.819 308.317 460.816 308.317H460.121C458.274 308.366 458.232 307.081 459.496 303.796C461.329 298.734 462.473 290.393 462.094 282.053C461.715 272.771 457.987 265.063 456.828 261.798C455.705 258.561 457.58 258.168 459.335 257.803C461.076 257.459 463.379 256.954 464.523 256.589C466.671 255.936 467.366 255.606 469.262 255.065C471.108 254.588 473.594 254.826 474.724 256.799C475.833 258.821 482.84 269.036 482.84 286.047C482.84 291.257 481.309 301.605 477.301 303.831ZM451.584 306.948C438.174 302.602 428.191 290.484 428.191 275.657C428.191 273.473 428.619 271.451 428.795 270.272C429.055 268.91 430.08 268.685 430.592 269.689C431.062 270.602 433.393 275.572 438.673 279.925C444.023 284.306 449.758 286.7 457.916 286.869C458.906 286.918 459.37 288.371 459.37 289.768C459.37 291.151 458.534 301.43 455.185 305.27C454.294 306.253 453.437 307.601 451.584 306.948ZM431.547 261.299C433.141 257.41 435.97 254.11 439.087 251.33C439.087 251.33 440.632 250.024 441.228 249.568C441.228 249.568 441.355 251.892 442.906 253.633C444.451 255.388 447.449 256.764 450.566 257.586C450.566 257.586 452.033 258.477 452.911 259.846C454.294 261.91 458.927 273.199 459.131 279.806C459.187 282.053 457.278 283.92 454.294 283.492C451.303 283.092 446.059 283.183 437.669 275.341C435.815 273.621 429.476 266.214 431.547 261.299ZM445.251 246.977C449.85 244.071 455.214 243.053 460.816 243.053C464.523 243.053 468.047 243.685 471.424 244.794C472.667 245.18 473.397 247.181 473.397 248.185C473.397 249.175 472.576 251.435 468.686 252.65C464.811 253.844 459.356 255.627 454.912 255.627C450.44 255.627 443.777 254.173 443.777 249.919C443.777 248.634 444.1 247.7 445.251 246.977ZM460.472 240.968C440.421 240.968 424.161 257.234 424.161 277.243C424.161 297.365 440.421 313.568 460.472 313.568C480.558 313.568 496.818 297.365 496.818 277.243C496.818 257.234 480.558 240.968 460.472 240.968Z" fill="#DA020E"/>
<path d="M427.56 275.613C427.56 257.541 442.474 242.845 460.874 242.845C479.279 242.845 494.182 257.541 494.182 275.613C494.182 293.716 479.279 308.38 460.874 308.38C442.474 308.38 427.56 293.716 427.56 275.613Z" fill="url(#paint16_radial_1_2654)"/>
<defs>
<filter id="filter0_f_1_2654" x="143.816" y="62.5009" width="227.244" height="369.775" filterUnits="userSpaceOnUse" color-interpolation-filters="sRGB">
<feFlood flood-opacity="0" result="BackgroundImageFix"/>
<feBlend mode="normal" in="SourceGraphic" in2="BackgroundImageFix" result="shape"/>
<feGaussianBlur stdDeviation="5.27602" result="effect1_foregroundBlur_1_2654"/>
</filter>
<radialGradient id="paint0_radial_1_2654" cx="0" cy="0" r="1" gradientUnits="userSpaceOnUse" gradientTransform="translate(258.565 494.545) scale(16.9293 12.5848)">
<stop stop-color="#FFE500"/>
<stop offset="0.5" stop-color="#FFE500"/>
<stop offset="1" stop-color="#E15007"/>
</radialGradient>
<radialGradient id="paint1_radial_1_2654" cx="0" cy="0" r="1" gradientUnits="userSpaceOnUse" gradientTransform="translate(212.06 488.711) scale(17.9013 16.0957)">
<stop stop-color="#FFE500"/>
<stop offset="0.5" stop-color="#FFE500"/>
<stop offset="1" stop-color="#E15007"/>
</radialGradient>
<linearGradient id="paint2_linear_1_2654" x1="252.497" y1="216.416" x2="252.497" y2="310.396" gradientUnits="userSpaceOnUse">
<stop stop-color="#8F0904"/>
<stop offset="0.249601" stop-color="#B40509"/>
<stop offset="1" stop-color="#DA020E"/>
</linearGradient>
<radialGradient id="paint3_radial_1_2654" cx="0" cy="0" r="1" gradientUnits="userSpaceOnUse" gradientTransform="translate(203.599 27.9748) scale(20.4665 19.4871)">
<stop stop-color="#FFE500"/>
<stop offset="0.5" stop-color="#FFE500"/>
<stop offset="1" stop-color="#E15007"/>
</radialGradient>
<radialGradient id="paint4_radial_1_2654" cx="0" cy="0" r="1" gradientUnits="userSpaceOnUse" gradientTransform="translate(54.8232 131.865) rotate(-60.273) scale(31.9362 28.0937)">
<stop stop-color="#FFE500"/>
<stop offset="0.5" stop-color="#FFE500"/>
<stop offset="1" stop-color="#E15007"/>
</radialGradient>
<linearGradient id="paint5_linear_1_2654" x1="50.5315" y1="119.16" x2="58.2947" y2="127.693" gradientUnits="userSpaceOnUse">
<stop stop-color="#FFE500"/>
<stop offset="0.5" stop-color="#FFE500"/>
<stop offset="1" stop-color="#E15007"/>
</linearGradient>
<linearGradient id="paint6_linear_1_2654" x1="68.1653" y1="330.976" x2="121.789" y2="392.523" gradientUnits="userSpaceOnUse">
<stop stop-color="#740703"/>
<stop offset="1" stop-color="#DA020E" stop-opacity="0"/>
</linearGradient>
<linearGradient id="paint7_linear_1_2654" x1="445.735" y1="330.976" x2="392.111" y2="392.523" gradientUnits="userSpaceOnUse">
<stop stop-color="#740703"/>
<stop offset="1" stop-color="#DA020E" stop-opacity="0"/>
</linearGradient>
<linearGradient id="paint8_linear_1_2654" x1="465.632" y1="217.715" x2="436.611" y2="190.408" gradientUnits="userSpaceOnUse">
<stop stop-color="#740703"/>
<stop offset="1" stop-color="#DA020E" stop-opacity="0"/>
</linearGradient>
<linearGradient id="paint9_linear_1_2654" x1="49.1805" y1="217.715" x2="79.9081" y2="185.288" gradientUnits="userSpaceOnUse">
<stop stop-color="#740703"/>
<stop offset="1" stop-color="#DA020E" stop-opacity="0"/>
</linearGradient>
<radialGradient id="paint10_radial_1_2654" cx="0" cy="0" r="1" gradientUnits="userSpaceOnUse" gradientTransform="translate(311.213 27.9748) rotate(180) scale(20.4665 19.4871)">
<stop stop-color="#FFE500"/>
<stop offset="0.5" stop-color="#FFE500"/>
<stop offset="1" stop-color="#E15007"/>
</radialGradient>
<radialGradient id="paint11_radial_1_2654" cx="0" cy="0" r="1" gradientUnits="userSpaceOnUse" gradientTransform="translate(257.406 18.496) scale(15.4622 14.7792)">
<stop stop-color="#FFE500"/>
<stop offset="0.5" stop-color="#FFE500"/>
<stop offset="1" stop-color="#E15007"/>
</radialGradient>
<radialGradient id="paint12_radial_1_2654" cx="0" cy="0" r="1" gradientUnits="userSpaceOnUse" gradientTransform="translate(459.989 131.865) rotate(-119.727) scale(31.9362 28.0936)">
<stop stop-color="#FFE500"/>
<stop offset="0.5" stop-color="#FFE500"/>
<stop offset="1" stop-color="#E15007"/>
</radialGradient>
<linearGradient id="paint13_linear_1_2654" x1="464.281" y1="119.16" x2="456.518" y2="127.693" gradientUnits="userSpaceOnUse">
<stop stop-color="#FFE500"/>
<stop offset="0.5" stop-color="#FFE500"/>
<stop offset="1" stop-color="#E15007"/>
</linearGradient>
<radialGradient id="paint14_radial_1_2654" cx="0" cy="0" r="1" gradientUnits="userSpaceOnUse" gradientTransform="translate(305.739 488.711) rotate(180) scale(17.9013 16.0957)">
<stop stop-color="#FFE500"/>
<stop offset="0.5" stop-color="#FFE500"/>
<stop offset="1" stop-color="#E15007"/>
</radialGradient>
<radialGradient id="paint15_radial_1_2654" cx="0" cy="0" r="1" gradientUnits="userSpaceOnUse" gradientTransform="translate(55.2711 275.773) scale(33.3111 32.7679)">
<stop stop-color="#DA030E" stop-opacity="0"/>
<stop offset="0.875" stop-color="#DA020E" stop-opacity="0"/>
<stop offset="1" stop-color="#DA020E"/>
</radialGradient>
<radialGradient id="paint16_radial_1_2654" cx="0" cy="0" r="1" gradientUnits="userSpaceOnUse" gradientTransform="translate(460.871 275.613) scale(33.3111 32.7679)">
<stop stop-color="#DA030E" stop-opacity="0"/>
<stop offset="0.875" stop-color="#DA020E" stop-opacity="0"/>
<stop offset="1" stop-color="#DA020E"/>
</radialGradient>
</defs>
</svg>
