<svg width="512" height="512" viewBox="0 0 512 512" fill="none" xmlns="http://www.w3.org/2000/svg">
<g clip-path="url(#clip0_1_2379)">
<g clip-path="url(#clip1_1_2379)">
<path d="M233.863 512.46C187.76 512.46 150.253 474.953 150.253 428.85C150.253 399.564 165.744 372.258 190.794 357.173C192.29 347.404 199.089 346.033 205.675 344.705C212.239 343.381 220.409 341.734 229.444 332.704C236.406 325.714 246.717 303.863 246.717 279.176V276.785C245.636 251.5 227.396 238.187 206.375 222.846C182.331 205.299 155.08 185.412 155.08 142.932C155.08 132.364 157.121 122.721 161.321 113.454C165.911 103.301 172.314 95.2126 178.506 87.3897C187.943 75.4665 196.094 65.1686 196.094 50.1754C196.094 18.9896 167.418 17.7063 166.197 17.6673L159.316 17.4454L163.717 12.1511C164.113 11.6732 173.728 0.459961 199.165 0.459961C211.745 0.459961 221.11 3.71512 227.794 10.4105C235.883 18.5132 239.799 31.5274 239.766 50.1971C239.766 63.5482 238.521 75.2379 237.424 85.5515C236.159 97.4274 235.068 107.684 236.071 117.548C237.665 133.237 244.493 146.078 258.9 160.485C261.277 162.855 268.52 170.077 277.178 170.077C279.851 170.077 281.535 165.275 284.061 157.44C289.573 140.34 298.8 111.717 341.972 98.1344L344.477 97.3463L345.851 99.584C346.009 99.8412 349.761 106.032 353.447 118.924L354.224 121.643L351.68 122.877C348.4 124.469 345.546 126.072 343.415 127.428C346.484 127.024 349.904 126.281 351.734 125.824L355.091 124.984L355.837 128.363C359.161 143.428 360.847 160.403 360.847 178.82V182.186H357.481C338.552 182.186 321.509 188.359 306.827 200.534C294.821 210.489 284.652 224.561 278.192 240.158C269.595 260.912 269.804 278.662 274.973 283.83L277.02 285.877L275.301 288.208C275.228 288.308 268.605 297.328 262.623 308.489C263.817 308.672 265.38 308.812 267.367 308.812C274.19 308.812 286.256 305.081 290.61 300.727C291.514 299.837 292.645 299.358 293.814 299.358C295.377 299.358 296.808 300.22 297.549 301.607C298.353 303.112 298.224 304.923 297.202 306.451C287.631 320.928 275.266 323.204 266.238 324.865C257.116 326.544 252.953 327.311 252.953 336.994C252.953 346.676 257.008 348.256 259.29 349.182C285.821 357.642 306.314 378.635 314.123 405.364L314.19 405.588C314.468 406.551 314.727 407.516 314.97 408.487L315.134 409.158C315.345 410.032 315.544 410.905 315.727 411.784L315.873 412.517C316.021 413.265 316.158 414.015 316.286 414.768C316.286 414.768 316.411 415.505 316.461 415.824C316.592 416.661 316.712 417.5 316.817 418.345C316.853 418.627 316.943 419.443 316.943 419.443C317.015 420.081 317.079 420.721 317.136 421.363C317.136 421.363 317.206 422.131 317.224 422.356C317.293 423.249 317.343 424.148 317.383 425.05C317.383 425.05 317.403 425.355 317.407 425.458C317.411 425.555 317.415 425.889 317.415 425.889C317.45 426.878 317.473 427.861 317.473 428.85L317.472 428.953C317.473 429.447 317.463 429.992 317.453 430.536C317.453 430.536 317.434 431.284 317.424 431.583C317.169 440.183 315.619 448.569 312.816 456.496L312.64 456.994L312.585 457.067C309.468 465.763 304.949 473.84 299.147 481.083C298.642 481.711 298.169 482.285 297.688 482.854L297.508 483.066C297.046 483.609 296.58 484.142 296.107 484.669L295.946 484.851C295.417 485.437 294.883 486.014 294.34 486.583L294.278 486.648C293.8 487.147 293.303 487.652 292.8 488.153L292.177 488.761C291.862 489.068 291.547 489.373 291.228 489.673C290.97 489.917 290.707 490.161 290.444 490.403C290.175 490.651 289.904 490.896 289.632 491.14C289.337 491.404 289.041 491.668 288.743 491.928C288.564 492.085 288.044 492.526 288.044 492.526C286.816 493.573 285.538 494.599 284.247 495.577L283.8 495.915C283.396 496.216 282.986 496.513 282.575 496.809L282.043 497.189C281.633 497.479 281.217 497.767 280.798 498.052L280.297 498.388C279.855 498.684 279.413 498.977 278.965 499.264L278.74 499.406C277.24 500.361 275.689 501.281 274.121 502.143L273.558 502.453C273.135 502.681 272.71 502.906 272.282 503.127C272.047 503.249 271.807 503.371 271.568 503.492C271.161 503.698 270.751 503.903 270.339 504.103C270.133 504.203 269.374 504.561 269.374 504.561C269.031 504.723 268.687 504.886 268.34 505.043C268.061 505.169 267.78 505.292 267.498 505.414L267.271 505.513C266.719 505.753 266.164 505.989 265.604 506.219C265.16 506.401 264.741 506.573 264.32 506.737C264.089 506.828 263.437 507.073 263.437 507.073C262.998 507.239 262.559 507.403 262.117 507.561C261.838 507.661 261.563 507.758 261.286 507.854C260.793 508.025 260.293 508.192 259.792 508.356L259.122 508.573C258.43 508.792 257.734 509.004 257.033 509.205L256.92 509.238C255.395 509.675 253.788 510.083 252.156 510.448L251.926 510.499C246.015 511.801 239.937 512.461 233.863 512.461L233.863 512.46Z" fill="white"/>
<path d="M227.254 84.5045C226.185 94.4592 225.209 103.682 225.503 112.719C225.503 112.719 198.021 109.496 198.021 88.8128C198.021 75.3912 206.36 72.118 206.36 50.189V50.1721C206.36 45.6787 205.864 41.6899 204.997 38.021C204.997 38.021 212.233 37.6339 212.233 28.8404C212.233 21.6036 207.386 16.6893 206.116 16.6893C205.089 16.6893 204.795 17.8168 202.548 17.8168C197.028 17.8168 196.641 10.782 196.641 10.782H199.182C214.951 10.782 229.551 15.5701 229.551 50.2307C229.551 63.0549 228.34 74.4315 227.254 84.5041V84.5045Z" fill="white"/>
<path d="M177.791 405.488C177.017 403.291 175.747 401.911 174.274 401.617L174.215 401.659C173.155 401.457 171.001 401.457 168.847 403.813C165.422 407.473 163.856 412.497 164.117 418.606C164.168 420.171 164.412 421.055 164.85 422.325C165.624 424.572 167.534 426.028 168.956 426.289C170.613 426.583 172.473 425.607 174.215 423.545C178.027 419.052 179.685 410.746 177.791 405.487V405.488ZM298.468 445.98C296.954 443.295 294.471 441.436 291.635 440.754L288.564 440.131C285.728 439.542 281.479 438.709 275.143 437.11C266.66 434.956 259.331 438.878 255.283 447.603C259.424 448.815 263.53 449.934 267.485 450.91C268.116 447.839 268.259 445.651 268.259 445.651C268.352 444.288 269.479 443.253 270.859 443.345C272.222 443.438 273.249 444.566 273.156 445.929C273.156 446.131 273.013 448.554 272.239 452.072C273.013 452.274 273.804 452.459 274.579 452.61C275.345 452.812 276.194 452.938 276.909 453.14C277.591 449.715 278.037 446.787 278.088 446.753C278.29 445.432 279.56 444.507 280.873 444.709C282.194 444.911 283.111 446.181 282.91 447.486C282.91 447.73 282.413 450.658 281.698 454.133C283.322 454.47 284.862 454.722 286.334 454.966C286.873 452.038 287.016 449.64 287.016 449.589C287.075 448.226 288.236 447.199 289.557 447.284C290.921 447.343 291.947 448.504 291.863 449.825C291.863 450.027 291.712 452.518 291.122 455.682C294.488 456.119 297.324 456.363 299.664 456.506L299.739 456.472C300.716 451.541 299.647 448.074 298.469 445.979L298.468 445.98ZM289.961 460.445C289.431 462.212 288.749 463.962 287.865 465.477C287.201 466.638 285.72 467.051 284.55 466.394C283.389 465.73 282.976 464.249 283.633 463.079C284.222 462.052 284.701 460.891 285.105 459.654C283.591 459.419 282.084 459.124 280.553 458.829C280.023 460.874 279.434 462.784 278.844 464.207C278.314 465.418 276.842 466.007 275.622 465.477C274.41 464.939 273.821 463.466 274.351 462.254C274.847 461.076 275.327 459.511 275.773 457.82C274.999 457.669 274.208 457.467 273.434 457.281C272.601 457.079 271.776 456.894 270.951 456.692C270.488 458.174 269.95 459.621 269.327 461.034C268.797 462.255 267.375 462.844 266.163 462.364C264.943 461.834 264.354 460.412 264.834 459.2C265.347 458.022 265.793 456.819 266.163 455.59C261.939 454.53 257.74 453.377 253.575 452.131C252.54 456.625 253.423 460.134 254.492 462.439H254.526C256.427 466.546 259.76 468.936 262.242 469.76C265.465 470.888 273.947 472.655 280.982 473.429C288.749 474.313 294.749 469.962 298.207 461.278C295.615 461.127 292.838 460.832 289.96 460.445H289.961ZM314.002 425.582C313.665 416.932 311.924 408.391 308.827 400.295H308.81C305.149 390.627 292.797 383.744 276.547 380.083C246.464 373.292 206.982 384.517 181.898 405.673C182.874 409.535 182.579 414.121 181.267 418.312C199.384 428.031 225.688 438.583 250.537 446.148C256.386 432.727 267.577 430.185 276.303 432.323C282.547 433.888 286.561 434.712 289.54 435.301L292.763 435.983C296.903 436.959 300.563 439.702 302.718 443.548C304.283 446.291 305.696 450.583 304.729 456.49C307.8 456.288 309.273 455.808 309.601 455.37C312.883 446.089 314.448 436.041 314.002 425.582ZM303.382 461.387C297.618 478.284 285.467 478.856 280.444 478.318L280.502 478.301C273.712 477.569 264.632 475.76 260.677 474.405C256.243 472.89 252.338 469.171 250.133 464.501C249.25 462.548 248.417 460.007 248.274 456.877C248.181 455.017 248.366 452.972 248.897 450.734C223.989 443.161 197.634 432.617 179.34 422.805C178.709 423.983 177.976 425.111 177.143 426.079C175.78 427.736 174.215 428.915 172.599 429.596C174.308 444.877 179.634 459.822 188.082 472.857C199.249 490.141 214.53 501.997 230.989 505.708C236.838 507.037 244.461 508.695 251.286 507.18C276.615 501.568 297.273 484.048 307.337 461C306.159 461.202 304.796 461.336 303.382 461.387L303.382 461.387ZM157.932 402.871C158.664 403.847 160.617 405.353 162.804 406.918H162.863C163.688 405.008 164.723 403.316 165.935 401.844C166.911 400.666 167.979 399.74 169.099 399.058C172.086 385.149 178.321 372.796 187.418 363.422C173.853 373.09 163.393 386.857 157.932 402.87L157.932 402.871ZM161.298 411.647C159.363 410.234 157.663 408.921 156.46 407.801C154.356 415.518 153.38 423.672 153.717 432.12C153.767 433.829 153.919 435.486 154.062 437.144C155.282 432.154 157.672 426.987 161.097 421.661C160.465 418.539 160.558 415.021 161.299 411.647L161.298 411.647ZM167.761 430.025H167.736C165.994 429.579 164.429 428.46 163.251 426.853C157.285 436.075 154.76 444.322 156.956 451.701C166.137 482.761 193.51 505.657 226.328 508.712C194.983 499.195 171.808 466.545 167.761 430.025V430.025Z" fill="#000A3C"/>
<path d="M260.862 353.341C256.756 351.885 249.544 350.211 249.544 336.991C249.544 312.293 276.581 331.471 294.362 304.577C295.245 303.256 293.974 302.095 292.948 303.105C287.571 308.482 274.351 312.176 267.325 312.176C260.299 312.176 257.715 310.56 257.715 310.56C264.304 297.383 272.55 286.208 272.55 286.208C255.999 269.656 283.835 178.818 357.439 178.818C357.439 157.722 355.201 141.288 352.508 129.086C350.758 129.524 336.882 132.805 336.259 129.86C335.721 127.26 346.458 121.647 350.169 119.847C346.567 107.25 342.94 101.343 342.94 101.343C279.821 121.202 292.502 173.441 277.137 173.441C267.123 173.441 259.264 165.641 256.478 162.863C240.12 146.505 234.17 132.545 232.681 117.886C230.737 98.7847 236.358 78.5047 236.358 50.1889C236.417 16.4538 223.273 3.82324 199.123 3.82324C174.972 3.82324 166.263 14.2995 166.263 14.2995C166.263 14.2995 199.417 15.368 199.417 50.172C199.417 76.645 175.696 89.7299 164.344 114.84C160.759 122.75 158.403 131.846 158.403 142.928C158.403 219.907 250.091 218.452 250.091 279.173H250.041C250.041 306.327 238.462 328.374 231.781 335.081C211.089 355.764 193.948 340.693 193.805 361.495C184.38 369.994 177.64 382.969 174.333 397.721C174.535 397.721 174.72 397.771 174.956 397.813C176.908 398.158 178.566 399.278 179.836 401.028C206.141 379.604 246.666 368.319 277.608 375.295C287.478 377.542 295.818 381.152 302.112 386.731C292.594 371.357 278.053 359.484 260.862 353.341ZM206.359 50.1889V50.172C206.359 45.6786 205.863 41.6898 204.996 38.0209C204.996 38.0209 212.233 37.6338 212.233 28.8403C212.233 21.6035 207.386 16.6892 206.115 16.6892C205.089 16.6892 204.794 17.8167 202.548 17.8167C197.027 17.8167 196.64 10.7819 196.64 10.7819H199.182C214.951 10.7819 229.551 15.57 229.551 50.2305C229.551 63.0548 228.339 74.4314 227.253 84.504C226.185 94.4587 225.209 103.681 225.503 112.719C225.503 112.719 198.02 109.496 198.02 88.8123C198.02 75.3907 206.359 72.1175 206.359 50.1885V50.1889Z" fill="#000A3C"/>
</g>
</g>
<defs>
<clipPath id="clip0_1_2379">
<rect width="512" height="512" fill="white"/>
</clipPath>
<clipPath id="clip1_1_2379">
<rect width="210.594" height="512" fill="white" transform="translate(150.253 0.459961)"/>
</clipPath>
</defs>
</svg>
