<svg width="512" height="512" viewBox="0 0 512 512" fill="none" xmlns="http://www.w3.org/2000/svg">
<g clip-path="url(#clip0_1_2701)">
<mask id="mask0_1_2701" style="mask-type:luminance" maskUnits="userSpaceOnUse" x="-368" y="-377" width="1245" height="1246">
<path d="M-367.535 868.135H876.84V-376.239H-367.535V868.135Z" fill="white"/>
</mask>
<g mask="url(#mask0_1_2701)">
<path d="M483.579 19.2312V19.2002C414.423 8.68521 337.296 2.8143 255.959 2.8143C174.624 2.8143 97.4949 8.68521 28.3403 19.2002V19.5742L28.3462 209.149C28.3906 369.696 121.481 459.987 252.258 507.989L255.975 509.181L255.987 509.186L259.699 507.989C390.479 459.987 483.559 369.696 483.608 209.149V19.6141V19.2312H483.579ZM255.975 247.209L255.928 247.162L256.222 247.456L255.975 247.209Z" fill="#2DAFE5"/>
<path d="M467.859 34.9493V34.9198C403.482 25.132 331.678 19.666 255.961 19.666C180.242 19.666 108.44 25.132 44.063 34.9198V35.2686L44.0689 214.924C44.1088 364.382 130.771 448.439 252.514 493.125L255.976 494.235L255.986 494.24L259.442 493.125C381.189 448.439 467.84 364.382 467.886 214.924V35.307V34.9493H467.859Z" fill="#7C2C3B"/>
<path d="M360.558 411.777C363.912 415.136 369.282 411.58 374.788 406.077C380.29 400.573 383.845 395.203 380.488 391.843L170.357 186.999C167 183.638 160.999 184.199 156.955 188.243C152.911 192.287 152.352 198.287 155.708 201.643L360.558 411.777Z" fill="#D6A93A"/>
<path d="M176.874 183.867L194.061 163.651C194.061 163.651 195.684 161.489 193.159 158.418C186.53 150.349 173.238 138.577 173.238 138.577C171.319 137.138 170.013 137.488 167.884 139.532C157.362 149.62 130.587 175.497 128.976 177.174C126.951 179.26 126.022 180.665 126.67 184.241C127.32 187.846 129.24 193.84 125.925 199.656L107.832 228.131C105.566 231.606 104.905 234.679 106.615 236.347C107.53 237.243 109.829 238.281 114.501 235.038C116.737 233.489 141.338 216.927 149.178 210.478C153.77 206.7 157.275 203.264 157.275 203.264L172.122 188.703C172.122 188.703 175.247 185.635 176.874 183.867Z" fill="#F8D742"/>
<path d="M114.619 233.213C109.481 236.694 109.496 237.204 110.213 237.108C111.346 236.858 112.758 236.249 114.502 235.037C116.735 233.488 141.338 216.928 149.178 210.477C152.416 207.815 155.106 205.325 156.414 204.085C152.369 204.943 147.212 206.912 144.083 209.525C139.883 213.034 121.971 228.229 114.619 233.213Z" fill="#D6A93A"/>
<path d="M176.873 183.867L194.061 163.651C194.061 163.651 195.059 162.306 194.255 160.237C194.255 160.237 192.839 158.638 187.885 164.419C183.718 169.277 181.749 171.173 178.239 175.371C175.531 178.609 173.525 184.013 172.715 188.118C173.699 187.144 175.685 185.16 176.873 183.867Z" fill="#D6A93A"/>
<path d="M151.849 411.777C148.497 415.136 143.126 411.58 137.619 406.077C132.117 400.573 128.562 395.203 131.919 391.843L342.131 186.919C345.486 183.559 351.487 184.119 355.532 188.163C359.576 192.209 360.135 198.208 356.778 201.564L151.849 411.777Z" fill="#D6A93A"/>
<path d="M149.806 409.757L345.939 208.34C349.295 204.983 348.737 198.984 344.693 194.941C342.578 192.824 339.93 191.673 337.403 191.525L131.918 391.844C128.717 395.049 131.806 400.083 136.874 405.318C141.916 410.078 146.718 412.852 149.806 409.757Z" fill="#F8D742"/>
<path d="M335.613 183.788L318.427 163.572C318.427 163.572 316.804 161.41 319.326 158.338C325.957 150.269 339.247 138.498 339.247 138.498C341.169 137.058 342.477 137.409 344.603 139.453C355.125 149.541 381.899 175.417 383.511 177.095C385.536 179.18 386.466 180.586 385.816 184.162C385.167 187.767 383.245 193.76 386.562 199.576L404.655 228.052C406.92 231.526 407.582 234.599 405.873 236.268C404.957 237.164 402.661 238.201 397.986 234.959C395.751 233.41 371.15 216.848 363.309 210.399C358.717 206.621 355.212 203.184 355.212 203.184L340.366 188.624C340.366 188.624 337.24 185.555 335.613 183.788Z" fill="#F8D742"/>
<path d="M397.869 233.134C403.005 236.615 402.992 237.124 402.274 237.028C401.14 236.779 399.728 236.17 397.986 234.958C395.752 233.409 371.15 216.847 363.31 210.398C360.072 207.736 357.38 205.245 356.073 204.005C360.119 204.864 365.274 206.833 368.405 209.446C372.603 212.955 390.516 228.15 397.869 233.134Z" fill="#D6A93A"/>
<path d="M335.613 183.788L318.427 163.572C318.427 163.572 317.428 162.227 318.232 160.158C318.232 160.158 319.648 158.558 324.603 164.339C328.768 169.198 330.74 171.094 334.247 175.292C336.956 178.53 338.962 183.934 339.774 188.039C338.788 187.065 336.803 185.081 335.613 183.788Z" fill="#D6A93A"/>
<path d="M368.718 189.646C367.098 191.265 364.473 191.265 362.853 189.646L354.05 180.839C352.43 179.223 352.43 176.597 354.051 174.98C355.671 173.357 358.295 173.357 359.915 174.977L368.718 183.781C370.34 185.399 370.34 188.025 368.718 189.646Z" fill="#D6A93A"/>
<path d="M355.232 180.839C353.614 179.222 353.614 176.597 355.234 174.979C355.891 174.318 356.719 173.932 357.573 173.81C356.326 173.631 355.01 174.016 354.051 174.979C352.43 176.597 352.43 179.222 354.05 180.839L362.853 189.647C363.815 190.608 365.128 190.994 366.377 190.815C365.521 190.691 364.695 190.305 364.036 189.647L355.232 180.839Z" fill="#CDA938"/>
<path d="M359.105 184.071C358.929 184.243 358.647 184.246 358.471 184.071C358.297 183.894 358.297 183.612 358.471 183.436L362.508 179.399C362.685 179.223 362.967 179.222 363.142 179.396C363.316 179.573 363.316 179.854 363.142 180.032L359.105 184.071Z" fill="#D6A93A"/>
<path d="M360.438 185.412C360.268 185.587 359.989 185.588 359.813 185.412C359.64 185.242 359.643 184.96 359.813 184.788C359.986 184.618 360.267 184.615 360.44 184.788C360.613 184.961 360.613 185.242 360.438 185.412Z" fill="#D6A93A"/>
<path d="M357.666 182.642C357.498 182.812 357.214 182.813 357.044 182.642C356.872 182.469 356.872 182.188 357.041 182.018C357.214 181.845 357.496 181.845 357.666 182.018C357.84 182.188 357.839 182.469 357.666 182.642Z" fill="#D6A93A"/>
<path d="M360.922 177.176L359.538 175.791C359.362 175.616 359.077 175.618 358.903 175.794C358.727 175.971 358.727 176.252 358.903 176.428L359.123 176.65C359.203 176.732 359.206 176.86 359.132 176.947L355.556 180.521C355.382 180.698 355.382 180.983 355.556 181.155C355.732 181.331 356.018 181.331 356.192 181.158L359.779 177.569C359.865 177.508 359.983 177.514 360.062 177.588L360.285 177.811C360.462 177.987 360.747 177.984 360.922 177.811C361.096 177.636 361.099 177.355 360.922 177.176Z" fill="#D6A93A"/>
<path d="M368.312 184.626C368.168 184.425 367.886 184.38 367.684 184.527L365.342 186.222C365.248 186.297 365.109 186.29 365.022 186.2C364.945 186.124 364.93 186.009 364.976 185.917L365.455 184.957C365.534 184.799 365.508 184.612 365.404 184.479C365.401 184.478 365.4 184.475 365.4 184.475C365.393 184.467 365.388 184.456 365.379 184.451C365.375 184.447 365.37 184.441 365.367 184.436C365.362 184.432 365.357 184.428 365.354 184.423C365.347 184.42 365.341 184.411 365.331 184.405C365.331 184.405 365.326 184.404 365.325 184.401C365.192 184.299 365.008 184.272 364.847 184.352L363.889 184.828C363.796 184.877 363.68 184.861 363.604 184.784C363.517 184.694 363.51 184.558 363.58 184.463L365.279 182.12C365.425 181.918 365.379 181.64 365.18 181.492C364.977 181.346 364.698 181.392 364.555 181.593L361.202 186.216C361.074 186.393 361.096 186.634 361.241 186.787C361.247 186.792 361.254 186.8 361.26 186.809C361.26 186.809 361.264 186.81 361.269 186.812C361.4 186.934 361.597 186.97 361.77 186.883L363.413 186.065C363.505 186.024 363.614 186.04 363.688 186.115C363.768 186.195 363.78 186.314 363.728 186.407L362.921 188.035C362.834 188.205 362.871 188.404 362.991 188.538C362.992 188.541 362.998 188.545 362.998 188.545C363.004 188.551 363.011 188.556 363.016 188.563C363.17 188.711 363.412 188.732 363.591 188.6L368.213 185.251C368.412 185.107 368.458 184.825 368.312 184.626Z" fill="#D6A93A"/>
<path d="M176.273 192.765C173.723 192.71 170.965 193.795 168.804 195.955C165.045 199.715 164.525 205.293 167.645 208.413L251.616 294.459L265.905 280.171L176.273 192.765Z" fill="#F8D742"/>
<path d="M380.489 391.843L274.56 288.606C272.897 289.348 271.339 290.397 269.973 291.761C264.46 297.275 264.03 305.944 268.677 311.953L363.423 409.1C366.54 412.224 371.531 408.916 376.651 403.802C377.516 402.936 378.328 402.076 379.065 401.226C381.795 397.541 382.84 394.199 380.489 391.843Z" fill="#F8D742"/>
<path d="M358.911 183.877C358.736 184.048 358.454 184.051 358.277 183.877C358.102 183.699 358.102 183.415 358.277 183.241L362.313 179.204C362.491 179.029 362.773 179.027 362.949 179.201C363.123 179.377 363.123 179.66 362.949 179.837L358.911 183.877Z" fill="#F8D742"/>
<path d="M360.244 185.218C360.074 185.39 359.794 185.394 359.62 185.218C359.447 185.047 359.45 184.766 359.62 184.593C359.793 184.423 360.072 184.421 360.245 184.593C360.418 184.767 360.418 185.047 360.244 185.218Z" fill="#F8D742"/>
<path d="M357.472 182.447C357.302 182.616 357.021 182.619 356.849 182.447C356.678 182.275 356.679 181.994 356.848 181.822C357.021 181.651 357.302 181.651 357.472 181.822C357.646 181.994 357.645 182.275 357.472 182.447Z" fill="#F8D742"/>
<path d="M360.727 176.981L359.345 175.596C359.169 175.423 358.883 175.424 358.708 175.599C358.532 175.776 358.532 176.057 358.708 176.233L358.928 176.455C359.008 176.539 359.011 176.665 358.937 176.752L355.362 180.327C355.189 180.503 355.189 180.788 355.362 180.961C355.538 181.136 355.823 181.136 355.999 180.963L359.585 177.374C359.672 177.313 359.79 177.319 359.869 177.393L360.092 177.616C360.268 177.792 360.553 177.789 360.727 177.616C360.903 177.442 360.905 177.16 360.727 176.981Z" fill="#F8D742"/>
<path d="M368.117 184.431C367.974 184.232 367.693 184.186 367.491 184.332L365.149 186.028C365.053 186.103 364.914 186.096 364.829 186.005C364.75 185.931 364.736 185.815 364.783 185.723L365.26 184.762C365.34 184.604 365.313 184.418 365.211 184.286C365.208 184.285 365.206 184.28 365.206 184.28C365.198 184.272 365.194 184.263 365.185 184.257C365.182 184.251 365.177 184.246 365.173 184.242C365.167 184.239 365.164 184.236 365.16 184.23C365.152 184.226 365.146 184.217 365.136 184.211C365.136 184.211 365.132 184.21 365.13 184.207C364.997 184.105 364.814 184.078 364.653 184.158L363.695 184.635C363.602 184.684 363.487 184.666 363.411 184.589C363.324 184.501 363.317 184.363 363.386 184.27L365.084 181.926C365.231 181.726 365.185 181.444 364.987 181.298C364.784 181.153 364.503 181.197 364.362 181.398L361.008 186.023C360.881 186.199 360.901 186.44 361.046 186.592C361.052 186.598 361.06 186.605 361.067 186.614C361.067 186.614 361.07 186.616 361.074 186.619C361.206 186.741 361.404 186.775 361.575 186.688L363.22 185.871C363.311 185.831 363.421 185.847 363.495 185.923C363.574 186.001 363.587 186.119 363.535 186.214L362.727 187.843C362.641 188.011 362.677 188.209 362.798 188.344C362.799 188.348 362.804 188.35 362.804 188.353C362.81 188.358 362.817 188.361 362.823 188.369C362.977 188.518 363.219 188.537 363.396 188.409L368.02 185.058C368.219 184.913 368.264 184.631 368.117 184.431Z" fill="#F8D742"/>
<path d="M158.437 175.057C160.056 176.677 160.056 179.302 158.437 180.922L149.631 189.726C148.014 191.346 145.387 191.346 143.77 189.724C142.147 188.104 142.147 185.481 143.767 183.861L152.572 175.057C154.189 173.436 156.816 173.436 158.437 175.057Z" fill="#D6A93A"/>
<path d="M144.506 184.599L153.311 175.796C154.805 174.302 157.152 174.189 158.781 175.453C158.675 175.315 158.564 175.182 158.438 175.055C156.817 173.437 154.192 173.437 152.572 175.055L143.767 183.86C142.148 185.48 142.148 188.105 143.77 189.725C143.894 189.849 144.027 189.96 144.163 190.067C142.899 188.441 143.011 186.094 144.506 184.599Z" fill="#CDA938"/>
<path d="M152.668 185.307C152.842 185.482 152.842 185.766 152.668 185.941C152.493 186.116 152.208 186.116 152.032 185.94L147.995 181.903C147.82 181.727 147.82 181.444 147.995 181.269C148.17 181.093 148.454 181.093 148.63 181.269L152.668 185.307Z" fill="#D6A93A"/>
<path d="M154.01 183.974C154.18 184.144 154.184 184.425 154.01 184.599C153.837 184.769 153.555 184.768 153.388 184.599C153.215 184.426 153.213 184.145 153.385 183.974C153.559 183.8 153.839 183.801 154.01 183.974Z" fill="#D6A93A"/>
<path d="M151.239 186.746C151.409 186.916 151.412 187.197 151.239 187.369C151.067 187.541 150.785 187.54 150.615 187.371C150.444 187.197 150.444 186.916 150.614 186.746C150.787 186.57 151.067 186.575 151.239 186.746Z" fill="#D6A93A"/>
<path d="M145.773 183.492L144.389 184.872C144.213 185.051 144.213 185.335 144.391 185.509C144.567 185.684 144.849 185.685 145.025 185.509L145.247 185.287C145.329 185.209 145.458 185.206 145.547 185.28L149.119 188.854C149.295 189.028 149.579 189.028 149.753 188.854C149.929 188.68 149.931 188.394 149.755 188.218L146.167 184.633C146.105 184.547 146.11 184.427 146.185 184.349L146.408 184.127C146.584 183.95 146.583 183.665 146.408 183.492C146.234 183.314 145.95 183.314 145.773 183.492Z" fill="#D6A93A"/>
<path d="M153.224 176.101C153.023 176.244 152.977 176.528 153.123 176.727L154.822 179.067C154.893 179.165 154.887 179.305 154.8 179.391C154.723 179.468 154.606 179.481 154.516 179.435L153.555 178.959C153.394 178.878 153.211 178.904 153.079 179.006C153.076 179.008 153.073 179.012 153.07 179.014C153.064 179.018 153.055 179.024 153.049 179.033C153.044 179.037 153.039 179.04 153.036 179.045C153.032 179.049 153.026 179.054 153.023 179.058C153.015 179.066 153.01 179.073 153.002 179.082C153.002 179.082 152.999 179.086 152.998 179.089C152.896 179.219 152.871 179.403 152.95 179.564L153.426 180.523C153.472 180.615 153.457 180.731 153.381 180.807C153.293 180.897 153.156 180.901 153.06 180.832L150.717 179.134C150.516 178.986 150.235 179.033 150.092 179.23C149.944 179.432 149.991 179.713 150.191 179.858L154.813 183.21C154.992 183.339 155.231 183.318 155.386 183.172C155.391 183.164 155.4 183.158 155.403 183.151C155.403 183.151 155.408 183.147 155.413 183.142C155.531 183.012 155.567 182.814 155.481 182.643L154.664 180.997C154.624 180.907 154.638 180.798 154.714 180.725C154.792 180.644 154.913 180.631 155.005 180.683L156.634 181.488C156.804 181.575 157.002 181.541 157.136 181.422C157.138 181.419 157.139 181.416 157.142 181.414C157.15 181.407 157.154 181.402 157.161 181.394C157.309 181.241 157.33 180.999 157.201 180.823L153.848 176.198C153.706 176 153.423 175.956 153.224 176.101Z" fill="#D6A93A"/>
<path d="M152.668 184.864C152.842 185.038 152.842 185.321 152.668 185.5C152.493 185.673 152.208 185.673 152.032 185.497L147.995 181.461C147.82 181.284 147.82 180.999 147.995 180.826C148.17 180.651 148.454 180.651 148.63 180.826L152.668 184.864Z" fill="#F8D742"/>
<path d="M154.01 183.53C154.18 183.702 154.184 183.983 154.01 184.156C153.837 184.327 153.555 184.326 153.388 184.156C153.215 183.983 153.213 183.703 153.385 183.529C153.559 183.356 153.839 183.359 154.01 183.53Z" fill="#F8D742"/>
<path d="M151.239 186.302C151.409 186.47 151.412 186.754 151.239 186.925C151.067 187.098 150.785 187.095 150.615 186.927C150.444 186.754 150.444 186.473 150.614 186.302C150.787 186.127 151.067 186.13 151.239 186.302Z" fill="#F8D742"/>
<path d="M145.773 183.047L144.389 184.429C144.213 184.607 144.213 184.89 144.391 185.065C144.567 185.239 144.849 185.241 145.025 185.065L145.247 184.845C145.329 184.765 145.458 184.763 145.547 184.836L149.119 188.411C149.295 188.586 149.579 188.586 149.753 188.411C149.929 188.235 149.931 187.952 149.755 187.777L146.167 184.188C146.105 184.104 146.11 183.984 146.185 183.906L146.408 183.684C146.584 183.505 146.583 183.222 146.408 183.047C146.234 182.87 145.95 182.87 145.773 183.047Z" fill="#F8D742"/>
<path d="M153.224 175.656C153.023 175.801 152.977 176.085 153.123 176.283L154.822 178.624C154.893 178.722 154.887 178.861 154.8 178.948C154.723 179.023 154.606 179.038 154.516 178.991L153.555 178.515C153.394 178.434 153.211 178.462 153.079 178.564C153.076 178.565 153.073 178.568 153.07 178.57C153.064 178.574 153.055 178.58 153.049 178.589C153.044 178.593 153.039 178.596 153.036 178.601C153.032 178.605 153.026 178.609 153.023 178.615C153.015 178.621 153.01 178.63 153.002 178.637C153.002 178.637 152.999 178.643 152.998 178.646C152.896 178.778 152.871 178.96 152.95 179.119L153.426 180.079C153.472 180.173 153.457 180.287 153.381 180.364C153.293 180.453 153.156 180.457 153.06 180.39L150.717 178.689C150.516 178.543 150.235 178.589 150.092 178.787C149.944 178.989 149.991 179.27 150.191 179.413L154.813 182.766C154.992 182.896 155.231 182.874 155.386 182.729C155.391 182.721 155.4 182.714 155.403 182.708C155.406 182.707 155.408 182.704 155.413 182.699C155.531 182.569 155.567 182.37 155.481 182.2L154.664 180.555C154.624 180.463 154.638 180.354 154.714 180.281C154.792 180.201 154.913 180.187 155.005 180.238L156.634 181.045C156.804 181.132 157.002 181.097 157.136 180.977C157.138 180.974 157.139 180.971 157.142 180.971C157.15 180.964 157.154 180.957 157.161 180.949C157.309 180.797 157.33 180.556 157.201 180.379L153.848 175.755C153.706 175.556 153.423 175.511 153.224 175.656Z" fill="#F8D742"/>
<path d="M173.344 124.649C165.402 125.402 157.845 120.075 157.623 111.728C157.382 104.042 157.14 96.3576 156.899 88.6731C160.504 88.3908 162.308 88.2563 165.916 88.0006C166.135 95.6866 166.355 103.373 166.574 111.059C166.684 114.884 169.244 116.743 173.076 116.49C173.608 116.455 173.874 116.437 174.406 116.403C178.239 116.155 180.694 113.969 180.603 110.142C180.416 102.455 180.232 94.7687 180.047 87.0827C183.658 86.8684 185.464 86.7679 189.076 86.5802C189.239 94.2661 189.403 101.954 189.566 109.641C189.697 118.029 182.765 124.184 174.671 124.562C174.14 124.598 173.874 124.614 173.344 124.649Z" fill="white"/>
<path d="M195.975 86.3056C200.167 86.106 202.264 86.0159 206.459 85.8518C211.171 93.4343 215.851 101.038 220.498 108.66C220.539 108.66 220.56 108.658 220.6 108.657C220.524 100.902 220.448 93.1446 220.372 85.3877C223.988 85.2872 225.797 85.2428 229.414 85.1689C229.517 97.332 229.619 109.494 229.722 121.657C225.594 121.741 223.531 121.793 219.404 121.912C214.757 114.312 210.076 106.731 205.362 99.1707C205.321 99.1722 205.3 99.1737 205.26 99.1751C205.373 106.914 205.486 114.654 205.6 122.393C202.028 122.538 200.241 122.616 196.67 122.787C196.438 110.627 196.207 98.4657 195.975 86.3056Z" fill="white"/>
<path d="M236.059 85.065C239.676 85.0074 241.485 84.9852 245.104 84.9542C245.147 97.1172 245.188 109.28 245.231 121.443C241.655 121.473 239.867 121.495 236.291 121.553C236.215 109.39 236.136 97.2281 236.059 85.065Z" fill="white"/>
<path d="M263.299 92.5833C258.645 92.5581 256.318 92.5566 251.664 92.5744C251.659 89.5133 251.657 87.982 251.652 84.9194C262.446 84.9121 273.232 85.0096 284.023 85.2136C283.997 88.2747 283.983 89.806 283.955 92.8685C279.302 92.7651 276.976 92.7251 272.321 92.6645C272.273 102.276 272.222 111.887 272.174 121.497C268.598 121.451 266.81 121.435 263.234 121.416C263.255 111.806 263.277 102.194 263.299 92.5833Z" fill="white"/>
<path d="M290.572 85.3507C298.735 85.5961 306.894 85.8932 315.055 86.2464C314.997 89.3075 314.969 90.8388 314.911 93.8999C308.752 93.6131 305.67 93.489 299.507 93.2791C299.47 95.9322 299.452 97.2595 299.415 99.9127C304.435 100.084 306.945 100.182 311.961 100.405C311.906 103.466 311.88 104.997 311.825 108.058C306.82 107.837 304.318 107.738 299.31 107.568C299.272 110.323 299.254 111.7 299.216 114.455C305.625 114.674 308.828 114.806 315.234 115.109C315.176 118.17 315.146 119.701 315.089 122.762C306.785 122.397 298.483 122.088 290.174 121.837C290.307 109.675 290.439 97.5123 290.572 85.3507Z" fill="white"/>
<path d="M321.921 86.5131C327.703 86.8073 330.593 86.9713 336.369 87.3335C346.859 87.7252 355.107 96.3039 354.818 106.831C354.536 117.16 345.696 124.798 335.442 123.809C329.732 123.45 326.877 123.286 321.161 122.993C321.415 110.833 321.668 98.6732 321.921 86.5131ZM335.28 116.135C341.464 116.522 345.347 113.127 345.545 106.139C345.743 99.2009 341.885 95.3431 335.815 94.9633C333.797 94.8376 332.788 94.777 330.77 94.6588C330.603 101.717 330.436 108.774 330.269 115.832C332.273 115.949 333.275 116.01 335.28 116.135Z" fill="white"/>
<path d="M81.261 43.8298C85.9613 43.2356 88.3129 42.9489 93.0176 42.3975C95.1283 52.7559 97.2375 63.1142 99.3482 73.474C99.3984 73.4681 99.425 73.4652 99.4753 73.4592C101.89 62.5924 104.306 51.7257 106.724 40.8589C110.777 40.4243 112.805 40.2159 116.859 39.8124C119.215 50.187 121.57 60.5601 123.923 70.9347C123.974 70.9288 123.999 70.9273 124.051 70.9214C126.333 60.1108 128.618 49.3001 130.905 38.491C135.543 38.0786 137.864 37.882 142.505 37.511C138.634 53.1195 134.767 68.7309 130.905 84.3423C125.463 84.8256 122.743 85.0813 117.305 85.6193C115.456 76.8514 113.609 68.0835 111.76 59.3141C111.708 59.32 111.683 59.323 111.631 59.3274C109.782 68.4781 107.934 77.6274 106.088 86.7782C100.602 87.3694 97.8597 87.6783 92.379 88.3242C88.675 73.4918 84.968 58.6608 81.261 43.8298Z" fill="white"/>
<path d="M376.585 38.1595C381.634 38.594 384.159 38.8231 389.205 39.305C392.539 49.146 395.869 58.9885 399.197 68.8339C399.248 68.8383 399.273 68.8413 399.325 68.8457C402.651 59.6891 405.979 50.5324 409.311 41.3772C414.3 41.9286 416.793 42.2168 421.779 42.8154C424.526 58.4371 427.271 74.0589 430.016 89.6821C425.391 89.0968 423.078 88.8145 418.45 88.2706C417.095 78.0689 415.739 67.8672 414.384 57.6641C414.332 57.6582 414.307 57.6552 414.255 57.6493C410.975 67.3307 407.698 77.0136 404.423 86.6964C400.37 86.2633 398.344 86.0549 394.288 85.6514C390.946 75.2857 387.601 64.9215 384.252 54.5572C384.202 54.5528 384.175 54.5513 384.125 54.5454C382.936 64.4839 381.749 74.421 380.563 84.3596C375.848 83.9398 373.49 83.7403 368.772 83.3619C371.375 68.2944 373.979 53.2269 376.585 38.1595Z" fill="white"/>
<path d="M146.985 37.2481C157.302 36.4736 167.622 35.7907 177.952 35.2024C177.729 39.0617 177.617 40.992 177.394 44.8513C170.997 45.2193 164.601 45.6169 158.207 46.0426C158.207 49.3786 158.207 51.0459 158.207 54.3804C164.468 53.9459 167.6 53.7478 173.864 53.3871V63.0064C167.6 63.3671 164.468 63.5652 158.207 63.9997C158.207 67.4614 158.207 69.1937 158.207 72.6568C164.9 72.1927 171.595 71.7788 178.292 71.4167C178.292 75.2641 178.292 77.1871 178.294 81.0345C167.85 81.6287 157.416 82.316 146.985 83.0994C146.985 67.8161 146.985 52.5313 146.985 37.2481Z" fill="white"/>
<path d="M230.741 43.017C224.941 43.1161 222.041 43.1796 216.243 43.3407C216.243 39.4933 216.243 37.5688 216.243 33.7214C229.658 33.3815 243.068 33.21 256.486 33.2056C256.486 37.0545 256.486 38.9775 256.486 42.8264C250.686 42.8131 247.785 42.8234 241.985 42.8737C241.985 54.951 241.985 67.0283 241.985 79.1057C237.487 79.1441 235.239 79.1722 230.741 79.249C230.741 67.1717 230.741 55.0944 230.741 43.017Z" fill="white"/>
<path d="M275.16 33.3024C279.658 33.357 281.906 33.394 286.404 33.4856V51.8256C292.901 51.9763 299.396 52.1552 305.892 52.3665V34.0266C310.389 34.1833 312.637 34.2705 317.132 34.4656V80.3169C312.637 80.1233 310.389 80.0346 305.892 79.8779V61.9223C299.396 61.7109 292.901 61.5306 286.404 61.3813V79.3369C281.906 79.2453 279.658 79.2083 275.16 79.1537C275.16 63.8704 275.16 48.5856 275.16 33.3024Z" fill="white"/>
<path d="M350.77 72.538C344.603 72.1182 341.518 71.9276 335.347 71.5787C334.243 75.3641 333.692 77.2575 332.588 81.0443C327.966 80.7931 325.656 80.6778 321.032 80.4664C325.67 65.4167 330.313 50.3699 334.96 35.3246C341.02 35.6645 344.05 35.8522 350.107 36.2602C355.124 51.9086 360.133 67.5584 365.133 83.2112C360.517 82.8476 358.21 82.6761 353.593 82.3524C352.463 78.4252 351.899 76.4623 350.77 72.538ZM343.027 46.2549C341.344 51.7534 339.66 57.2518 337.978 62.7517C342.045 62.9897 344.075 63.1153 348.14 63.3843C346.479 57.676 344.819 51.9692 343.156 46.2623C343.104 46.2594 343.079 46.2579 343.027 46.2549Z" fill="white"/>
<path d="M199.206 33.4646C190.835 33.7616 181.345 38.9172 181.283 48.3295C181.187 62.6979 202.764 58.8416 204.096 66.6931C204.465 68.8659 202.018 70.6898 198.92 70.6854C193.149 70.6795 188.598 69.5547 183.883 67.135C183.654 71.0948 183.465 73.1774 183.311 76.7721C188.177 80.0342 193.205 80.7363 198.64 80.8782C206.711 81.0866 216.417 75.4906 216.498 66.0531C216.621 51.7956 195.23 55.0222 193.68 47.6082C193.282 45.7089 195.601 43.8391 199.064 43.6411C204.355 43.3396 208.159 44.6506 211.056 45.8419C211.287 41.2821 211.356 40.6302 211.613 36.1916C209.065 34.7298 205.052 33.2561 199.206 33.4646Z" fill="white"/>
</g>
<path d="M189.592 412.272L195.054 414.658L187.351 432.291L196.465 436.273L194.42 440.954L179.844 434.588L189.592 412.272Z" fill="white"/>
<mask id="mask1_1_2701" style="mask-type:luminance" maskUnits="userSpaceOnUse" x="-368" y="-377" width="1245" height="1246">
<path d="M-367.535 868.135H876.84V-376.239H-367.535V868.135Z" fill="white"/>
</mask>
<g mask="url(#mask1_1_2701)">
<path d="M216.557 421.896C223.651 423.844 227.396 430.523 225.547 437.256C223.652 444.152 216.985 448.112 209.891 446.163C202.798 444.214 199.088 437.403 200.983 430.508C202.832 423.776 209.464 419.947 216.557 421.896ZM211.334 440.909C214.849 441.875 218.503 439.629 219.602 435.622C220.658 431.781 218.628 428.115 215.115 427.15C211.6 426.185 207.983 428.299 206.926 432.14C205.827 436.147 207.821 439.944 211.334 440.909Z" fill="white"/>
<path d="M231.253 425.915L237.251 426.526L242.808 438.526C243.594 440.215 244.419 442.867 244.419 442.867L244.487 442.875C244.487 442.875 244.481 440.238 244.636 438.712L245.789 427.395L251.719 427.999L249.253 452.226L243.288 451.619L237.694 439.649C236.908 437.96 236.083 435.308 236.083 435.308L236.015 435.301C236.015 435.301 236.019 437.938 235.864 439.463L234.716 450.747L228.786 450.142L231.253 425.915Z" fill="white"/>
<path d="M255.921 428.064L264.561 427.598C272.213 427.186 277.35 431.378 277.763 439.031C278.174 446.683 273.522 451.505 265.869 451.917L257.231 452.381L255.921 428.064ZM265.357 446.828C269.472 446.607 271.856 444.023 271.607 439.362C271.357 434.738 268.611 432.497 264.596 432.714L262.149 432.846L262.908 446.96L265.357 446.828Z" fill="white"/>
<path d="M290.487 423.767C297.672 422.187 304.099 426.354 305.599 433.172C307.135 440.157 303.079 446.769 295.894 448.35C288.709 449.93 282.253 445.631 280.717 438.645C279.217 431.825 283.302 425.347 290.487 423.767ZM294.723 443.028C298.282 442.244 300.47 438.555 299.577 434.496C298.721 430.605 295.217 428.306 291.658 429.09C288.098 429.871 285.881 433.429 286.737 437.321C287.63 441.378 291.164 443.81 294.723 443.028Z" fill="white"/>
<path d="M305.346 420.496L310.936 418.241L321.443 426.265C322.927 427.393 324.893 429.353 324.893 429.353L324.955 429.328C324.955 429.328 323.723 426.998 323.149 425.576L318.894 415.03L324.419 412.8L333.53 435.379L327.972 437.621L317.445 429.641C315.961 428.515 313.995 426.553 313.995 426.553L313.932 426.578C313.932 426.578 315.166 428.908 315.74 430.33L319.983 440.845L314.457 443.075L305.346 420.496Z" fill="white"/>
</g>
</g>
<defs>
<clipPath id="clip0_1_2701">
<rect width="461.156" height="512" fill="white" transform="translate(25.3958)"/>
</clipPath>
</defs>
</svg>
