<svg width="270" height="270" viewBox="0 0 270 270" fill="none" xmlns="http://www.w3.org/2000/svg">
<g clip-path="url(#clip0_1_184)">
<path d="M102.291 195.803L107.245 198.523C107.245 198.523 112.998 200.295 113.143 200.324C113.288 200.352 118.141 202.01 118.141 202.01L126.043 203.492L135.399 204.044L142.256 203.608L150.043 202.01L155.767 200.644L163.786 197.332L171.805 192.683L177.965 188.237L183.514 183.182L189.5 176.383L196.328 164.848L198.768 158.688L201.47 148.461L202.633 142.185L202.952 133.846L202.226 125.508L200.86 118.825L199.407 113.856L195.95 105.721L193.364 100.491L188.076 93.0529L183.369 87.242L175.611 80.5885L167.824 75.2715L158.556 71.291L149.287 68.5889L140.919 67.0199L130.663 66.8165L121.627 67.7173L113.404 69.7802L105.094 73.0634L96.9295 77.5378L88.7649 83.9299L84.4066 87.7943L80.1064 92.9079L76.3001 98.283L72.8136 104.443L70.0824 110.021L67.9614 116.994L66.189 124.374L65.4045 131.609L65.8113 140.994L66.3924 146.137L68.1066 154.127L70.6926 161.39L74.0048 167.986L79.4671 177.051L88.1545 186.145L94.9826 191.753L102.291 195.803Z" fill="#B2B3B5"/>
<path opacity="0.96" d="M105.652 139.87L132.197 104.944L134.178 104.176L134.491 104.042L135.236 104.456L156.785 127.438L164.81 145.189L164.94 146.038L165.919 157.556L160.397 162.503L159.328 162.795L157.252 162.38L109.721 162.775L103.157 155.571L104.215 145.188L105.652 139.87Z" fill="#312C28"/>
<mask id="mask0_1_184" style="mask-type:luminance" maskUnits="userSpaceOnUse" x="31" y="35" width="208" height="200">
<path d="M31 235H238.156V35H31V235Z" fill="white"/>
</mask>
<g mask="url(#mask0_1_184)">
<path d="M71.772 133.05C72.0198 131.485 72.4611 131.138 74.3588 131.441L83.474 132.894C88.1928 133.644 89.7816 130.507 90.1788 128.005C90.7185 124.597 89.1875 122.05 85.4735 121.46L76.1819 119.98C74.3113 119.681 73.9786 119.189 74.2095 117.722L73.7817 117.657L73.0111 122.505L73.4422 122.573C73.7002 120.934 74.1585 120.642 76.0291 120.94L85.2189 122.403C88.2471 122.882 89.7646 124.909 89.364 127.435C89.0483 129.407 87.6632 131.125 84.4042 130.609L74.7357 129.068C72.8923 128.772 72.5222 128.327 72.77 126.762L72.3457 126.691L71.3408 132.982L71.772 133.05Z" fill="white"/>
<path d="M80.8362 109.792C82.2111 107.018 85.314 106.488 89.123 108.376C92.8709 110.233 94.2831 112.878 92.9388 115.59C92.6231 116.235 92.2123 116.761 91.7777 117.108L80.3338 111.438C80.4424 110.739 80.5646 110.335 80.8362 109.792ZM80.5816 113.845L89.7001 118.36C91.221 119.117 91.3262 119.535 90.6337 120.937L90.9664 121.107L93.5363 115.909C95.2982 112.358 94.2662 108.203 90.1448 106.159C86.6923 104.448 82.4555 104.805 80.1708 109.415L77.6484 114.51L77.9811 114.673C78.6465 113.278 79.0573 113.088 80.5816 113.845Z" fill="white"/>
<path d="M88.1351 100.68L96.1774 106.903C97.4573 107.887 97.5659 108.386 96.6256 109.564L96.9209 109.788L100.414 105.277L100.119 105.049C99.2803 106.135 98.8628 106.39 97.4335 105.283L89.3878 99.0606C88.0604 98.0319 88.0468 97.5533 88.9566 96.416L88.6647 96.1852L85.1714 100.7L85.4667 100.928C86.3596 99.7735 86.8077 99.6513 88.1351 100.68Z" fill="white"/>
<path d="M92.2768 93.5134L93.2749 93.751L100.357 102.143C101.141 103.077 101.161 103.603 100.143 104.489L100.38 104.774L103.891 101.81L103.656 101.525C102.421 102.629 101.918 102.71 100.781 101.362L94.6804 94.1346L94.7143 94.1075L108.945 97.8622L109.176 97.6653L100.676 87.5928C99.9458 86.7305 99.9797 86.1602 100.845 85.4269L100.604 85.1451L97.3249 87.9119L97.566 88.1937C98.7508 87.165 99.243 87.1786 100.312 88.4449L105.72 94.8543L105.686 94.8815L93.0169 91.5512L90.5522 93.6322L90.7899 93.9106C91.2889 93.493 91.625 93.3504 92.2768 93.5134Z" fill="white"/>
<path d="M106.23 84.663L110.629 93.8359C111.373 95.3873 111.183 95.7913 109.781 96.4431L109.94 96.7758L118.777 92.5357L118.196 88.7097L117.816 88.7674C118.111 91.0453 117.636 92.1656 116.003 92.9498L114.078 93.8698C113.274 94.2568 113.05 94.1482 112.598 93.2044L110.3 88.4143L112.775 87.2261C113.915 86.6762 114.543 86.9342 115.229 88.4177L115.565 88.2514L113.321 83.5767L112.985 83.743C113.732 85.2436 113.556 85.9327 112.065 86.649L109.94 87.6675L107.425 82.4224L110.137 81.1222C111.668 80.3855 112.381 80.3109 113.528 82.1509L113.881 81.9811L112.293 79.1702L103.51 83.3832L103.673 83.7159C105.147 82.9588 105.551 83.2474 106.23 84.663Z" fill="white"/>
<path d="M119.198 83.6786C120.434 84.4356 122.871 85.1723 123.845 85.7664C124.789 86.3469 125.224 86.9376 125.434 87.8067C125.757 89.1612 125.064 90.38 123.774 90.6923C122.145 91.0827 120.05 90.217 119.235 87.4774L118.835 87.5758L119.999 92.4271L120.4 92.332C120.366 91.8024 120.563 91.5071 120.987 91.4052C121.622 91.2524 122.654 91.8126 124.114 91.4629C126.361 90.9232 127.685 88.7912 127.152 86.5642C126.887 85.4609 126.13 84.4594 125.132 83.8449C123.635 82.9283 121.228 82.3376 120.019 81.5975C119.205 81.0985 118.743 80.4704 118.556 79.71C118.298 78.6271 118.991 77.5882 120.196 77.2997C121.513 76.984 123.747 77.612 124.551 80.3992L124.911 80.3143L123.777 75.5887L123.418 75.6735C123.401 76.1726 123.187 76.4917 122.827 76.5766C122.382 76.6852 121.381 76.1624 119.792 76.5426C117.718 77.0451 116.631 78.8715 117.144 81.0102C117.436 82.2188 118.149 83.0336 119.198 83.6786Z" fill="white"/>
<path d="M129.348 77.5067L129.613 87.6777C129.654 89.3989 129.318 89.6908 127.77 89.7078L127.776 90.0778L137.577 89.8266L138.616 86.0957L138.243 85.9972C137.581 88.1903 136.684 89.0186 134.875 89.0696L132.743 89.1239C131.85 89.1476 131.694 88.9541 131.664 87.9085L131.528 82.5956L134.271 82.5243C135.534 82.4904 136.009 82.9792 136.026 84.6155L136.396 84.6053L136.264 79.4214L135.89 79.4316C135.958 81.1087 135.513 81.662 133.86 81.7062L131.507 81.7639L131.358 75.9519L134.362 75.8738C136.06 75.8263 136.742 76.0504 137.038 78.1993L137.431 78.1891L137.129 74.9742L127.393 75.2254L127.403 75.5954C129.056 75.5106 129.308 75.9383 129.348 77.5067Z" fill="white"/>
<path d="M149.004 92.6749C151.442 93.4489 153.666 92.7088 155.631 90.492L155.305 90.1695C153.469 92.057 151.883 92.6545 149.958 92.0367C147.035 91.1065 145.874 88.3499 147.511 83.2067C149.259 77.724 151.646 75.2933 154.664 76.2541C156.982 76.9908 158.031 79.3366 157.339 82.2595L157.777 82.3987L159.233 76.821L158.819 76.6886C158.483 77.4151 158.249 77.6358 157.933 77.5373C157.322 77.3404 156.673 76.0062 154.701 75.3782C150.682 74.0984 146.472 77.0247 144.798 82.2901C143.074 87.7015 145.593 91.5885 149.004 92.6749Z" fill="white"/>
<path d="M164.281 87.5419L164.315 87.5656L162.869 92.9261L160.136 91.1709L164.281 87.5419ZM154.131 93.4998L153.93 93.8155L157.322 95.9916L157.522 95.6827C156.592 95.1089 156.466 94.6642 156.772 94.1889C156.857 94.0599 157.01 93.9004 157.22 93.6967L159.488 91.7379L162.638 93.7646L161.959 96.3549C161.796 96.9286 161.742 97.0949 161.61 97.2986C161.277 97.8078 160.859 97.8248 160.089 97.3292L159.888 97.6415L164.156 100.385L164.359 100.072C163.48 99.5053 163.273 99.3016 163.816 97.2884L167.272 84.3371L166.98 84.147L156.87 92.8242C155.587 93.9411 155.03 94.0769 154.131 93.4998Z" fill="white"/>
<path d="M164.722 100.497L164.448 100.744L171 107.948L174.615 106.098L174.462 105.769C171.909 106.943 171.098 106.828 169.513 105.09L168.474 103.942C167.859 103.267 167.89 103.009 168.613 102.347L176.38 95.2821C177.667 94.1109 178.108 94.2093 179.151 95.384L179.426 95.1361L175.437 90.7534L175.165 91.0012C176.221 92.1283 176.275 92.6104 175.002 93.768L167.476 100.612C166.301 101.681 165.85 101.766 164.722 100.497Z" fill="white"/>
<path d="M174.16 113.893C175.226 115.794 177.042 116.625 179.561 116.388L179.538 115.994C177.3 116.106 175.966 115.549 175.124 114.049C173.844 111.767 174.727 109.377 178.733 107.127C183.01 104.73 185.913 104.597 187.234 106.954C188.249 108.76 187.536 110.834 185.411 112.253L185.604 112.596L189.749 109.965L189.569 109.642C188.938 109.897 188.663 109.9 188.524 109.652C188.259 109.177 188.629 107.969 187.767 106.431C186.008 103.294 181.683 102.673 177.579 104.978C173.359 107.344 172.666 111.231 174.16 113.893Z" fill="white"/>
<path d="M188.86 115.288L179.252 118.628C177.725 119.158 177.246 118.978 176.774 117.552L176.425 117.671L178.302 123.065L178.648 122.943C178.197 121.646 178.214 121.158 179.921 120.563L189.532 117.223C191.117 116.673 191.528 116.921 191.986 118.309L192.336 118.187L190.462 112.793L190.113 112.915C190.591 114.297 190.445 114.738 188.86 115.288Z" fill="white"/>
<path d="M193.647 126.542C193.996 128.932 192.078 130.249 187.223 130.958C183.004 131.576 180.206 131.261 179.809 128.565C179.463 126.172 181.384 124.858 186.232 124.148C190.758 123.486 193.28 124.019 193.647 126.542ZM185.879 121.735C181.829 122.329 178.512 124.926 179.059 128.677C179.633 132.598 183.744 133.936 187.58 133.372C191.352 132.822 194.977 130.378 194.4 126.43C193.823 122.488 189.651 121.185 185.879 121.735Z" fill="white"/>
<path d="M206.547 190.555C208.967 188.952 209.426 188.453 209.426 188.453C209.426 188.453 206.686 186.671 199.876 188.637C199.876 188.637 195.765 189.686 191.331 193.478C186.901 197.273 179.911 202.345 174.062 204.263C174.062 204.263 179.361 205.451 188.273 201.748C197.181 198.047 204.123 192.15 206.547 190.555Z" fill="#A0834A"/>
<path d="M163.535 205.051C153.116 203.34 140.198 212.635 140.198 212.635C157.122 213.613 163.535 205.051 163.535 205.051Z" fill="#A0834A"/>
<path d="M187.196 189.037C187.196 189.037 178.349 189.176 169.754 204.555C169.754 204.555 181.361 202.101 187.196 189.037Z" fill="#A0834A"/>
<path d="M164.179 216.131C175.749 214.315 185.17 211.501 185.17 211.501C185.17 211.501 182.379 207.804 173.929 208.469C165.48 209.138 160.876 211.803 157.97 212.648C155.064 213.5 149.066 214.526 147.188 214.56C147.188 214.56 152.61 217.951 164.179 216.131Z" fill="#A0834A"/>
<path d="M175.756 70.6458C182.542 80.905 195.802 83.115 195.802 83.115C188.385 70.9615 175.756 70.6458 175.756 70.6458Z" fill="#A0834A"/>
<path d="M217.105 73.691C217.105 73.691 210.645 82.8332 213.815 95.0682C213.815 95.0682 221.128 87.2635 217.105 73.691Z" fill="#A0834A"/>
<path d="M203.288 61.0146C203.288 61.0146 201.709 72.3805 211.099 83.4307C211.099 83.4307 211.34 68.9042 203.288 61.0146Z" fill="#A0834A"/>
<path d="M216.086 111.852C217.186 117.661 218.483 127.581 218.283 129.488C218.283 129.488 223.647 123.273 221.617 107.911C220.293 97.9199 220.028 94.2568 220.191 93.3199C220.191 93.3199 216.979 94.0939 215.557 102.425C215.557 102.425 214.986 106.04 216.086 111.852Z" fill="#A0834A"/>
<path d="M193.104 187.557C193.104 187.557 202.867 180.808 203.76 165.535C203.76 165.535 195.293 170.097 193.104 187.557Z" fill="#A0834A"/>
<path d="M226.95 126.881C226.95 126.881 222.571 128.419 220.024 132.802C217.478 137.181 216.351 144.341 215.465 148.724C214.576 153.106 212.505 159.142 212.505 159.142C212.505 159.142 219.373 152.988 221.8 145.706C224.227 138.427 226.359 128.361 226.95 126.881Z" fill="#A0834A"/>
<path d="M236.014 126.525C236.014 126.525 227.076 129.6 223.701 146.945C223.701 146.945 234.891 137.419 236.014 126.525Z" fill="#A0834A"/>
<path d="M211.538 107.867C207.922 93.1569 196.909 88.6045 196.909 88.6045C197.354 98.4393 211.538 107.867 211.538 107.867Z" fill="#A0834A"/>
<path d="M225.083 110.104C225.083 110.104 229.88 99.3355 225.287 85.3148C225.287 85.3148 221.749 89.0526 222.197 98.1949C222.645 107.341 225.083 110.104 225.083 110.104Z" fill="#A0834A"/>
<path d="M224.03 123.476C236.221 109.293 231.591 103.521 231.591 103.521C223.341 111.815 224.03 123.476 224.03 123.476Z" fill="#A0834A"/>
<path d="M211.266 102.611C211.266 102.611 213 99.6918 210.475 90.6921C207.949 81.6957 203.532 75.6156 201.556 73.1713C199.584 70.7236 199.268 68.0383 199.268 68.0383C199.268 68.0383 195.561 76.6442 201.638 85.4063C207.715 94.165 210.319 98.1913 211.266 102.611Z" fill="#A0834A"/>
<path d="M212.454 175.01C212.454 175.01 215.475 172.05 218.317 167.253C221.155 162.459 223.582 159.203 224.353 158.67C224.353 158.67 220.449 157.251 213.343 163.705C206.238 170.155 207.956 175.838 198.365 184.838C198.365 184.838 204.167 184.186 212.454 175.01Z" fill="#A0834A"/>
<path d="M154.572 52.2865C154.901 51.1051 155.136 50.4058 155.543 49.4654C156.741 48.817 157.811 48.6438 158.822 48.9256C160.981 49.5299 161.535 52.6328 160.272 57.1547C159.393 60.2915 157.882 61.7988 156.059 61.2896C153.696 60.6276 153.156 57.3482 154.572 52.2865ZM155.343 62.2911C159.43 63.4317 162.774 59.5277 163.898 55.5082C164.906 51.8995 163.433 48.5759 160.462 47.7476C158.975 47.33 157.498 47.5371 156.11 48.3485L156.062 48.2636C158.778 42.8387 163.232 39.7901 167.357 40.649L167.53 40.0413C161.861 38.0587 154.029 42.1258 151.585 50.8709C149.982 56.6081 151.496 61.2149 155.343 62.2911Z" fill="#A0834A"/>
<path d="M208.618 161.984C208.618 161.984 215.839 151.212 211.402 139.666C211.402 139.666 204.473 146.948 208.618 161.984Z" fill="#A0834A"/>
<path d="M190.048 49.4894C190.048 49.4894 186.338 57.8576 195.337 71.4336C195.337 71.4336 197.469 58.3295 190.048 49.4894Z" fill="#A0834A"/>
<path d="M141.706 48.7966C139.472 48.6099 138.345 45.67 138.732 40.9919C139.003 37.743 140.205 35.9777 142.089 36.1339C144.533 36.341 145.647 39.454 145.209 44.6957C145.107 45.9517 145.05 46.6477 144.825 47.6526C143.77 48.5114 142.751 48.8849 141.706 48.7966ZM142.992 56.5708C146.435 53.658 148.135 49.6827 148.482 45.5274C148.974 39.5932 146.587 35.3497 142.605 35.017C138.45 34.6741 135.839 38.9923 135.483 43.2868C135.174 47.0211 137.245 50.0052 140.317 50.2632C141.855 50.3888 143.264 49.9101 144.476 48.8543L144.544 48.929C142.894 54.8021 139.098 58.6009 134.882 58.533L134.831 59.161C138.131 59.6465 140.758 58.4583 142.992 56.5708Z" fill="#A0834A"/>
<path d="M209.331 111.526C205.712 120.142 214.943 133.593 214.943 133.593C217.58 120.954 209.331 111.526 209.331 111.526Z" fill="#A0834A"/>
<path d="M193.986 77.6697C193.986 77.6697 193.273 69.6986 186.331 63.9342C179.385 58.1731 171.808 51.8587 170.307 50.2801C170.307 50.2801 168.491 54.7817 175.124 61.4899C181.751 68.1981 189.563 72.0648 193.986 77.6697Z" fill="#A0834A"/>
<path d="M187.502 61.4865C187.502 61.4865 184.582 49.0172 171.716 42.6213C171.716 42.6213 173.454 52.8059 187.502 61.4865Z" fill="#A0834A"/>
<path d="M182.579 206.334C182.579 206.334 191.671 211.647 206.17 206.639C206.17 206.639 197.333 200.729 182.579 206.334Z" fill="#A0834A"/>
<path d="M53.0324 111.852C54.1324 106.04 53.562 102.425 53.562 102.425C52.1396 94.0939 48.9281 93.3199 48.9281 93.3199C49.091 94.2568 48.8262 97.9199 47.5057 107.911C45.4721 123.273 50.836 129.488 50.836 129.488C50.6357 127.581 51.9325 117.661 53.0324 111.852Z" fill="#A0834A"/>
<path d="M51.0974 191.149C59.3231 200.699 74.5354 201.887 74.5354 201.887C63.2951 189.913 51.0974 191.149 51.0974 191.149Z" fill="#A0834A"/>
<path d="M74.8274 214.838C81.4575 221.302 100.978 218.406 100.978 218.406C82.8392 210.734 74.8274 214.838 74.8274 214.838Z" fill="#A0834A"/>
<path d="M86.5394 206.334C71.7855 200.729 62.9453 206.639 62.9453 206.639C77.4514 211.647 86.5394 206.334 86.5394 206.334Z" fill="#A0834A"/>
<path d="M54.017 176.371C47.4446 160.86 37.2024 159.618 37.2024 159.618C39.572 168.617 54.017 176.371 54.017 176.371Z" fill="#A0834A"/>
<path d="M37.552 103.521C37.552 103.521 32.9214 109.293 45.1123 123.476C45.1123 123.476 45.8014 111.815 37.552 103.521Z" fill="#A0834A"/>
<path d="M92.3787 224.883C92.3787 224.883 104.189 228.095 114.819 219.126C114.819 219.126 102.373 217.011 92.3787 224.883Z" fill="#A0834A"/>
<path d="M46.9557 98.1983C47.4038 89.056 43.8664 85.3149 43.8664 85.3149C39.2732 99.3355 44.0701 110.107 44.0701 110.107C44.0701 110.107 46.5076 107.341 46.9557 98.1983Z" fill="#A0834A"/>
<path d="M31 141.564C36.9817 152.692 49.4679 155.001 49.4679 155.001C41.2999 142.097 31 141.564 31 141.564Z" fill="#A0834A"/>
<path d="M45.4281 146.948C42.0502 129.604 33.115 126.525 33.115 126.525C34.2387 137.415 45.4281 146.948 45.4281 146.948Z" fill="#A0834A"/>
<path d="M63.1831 185.072C54.1868 175.719 41.5784 177.318 41.5784 177.318C49.2134 186.019 63.1831 185.072 63.1831 185.072Z" fill="#A0834A"/>
<path d="M215.102 176.371C215.102 176.371 229.547 168.617 231.917 159.618C231.917 159.618 221.671 160.86 215.102 176.371Z" fill="#A0834A"/>
<path d="M205.936 185.072C205.936 185.072 219.906 186.019 227.544 177.318C227.544 177.318 214.932 175.719 205.936 185.072Z" fill="#A0834A"/>
<path d="M219.685 155.001C219.685 155.001 232.175 152.692 238.156 141.564C238.156 141.564 227.853 142.094 219.685 155.001Z" fill="#A0834A"/>
<path d="M194.597 201.883C194.597 201.883 209.809 200.695 218.035 191.146C218.035 191.146 205.841 189.913 194.597 201.883Z" fill="#A0834A"/>
<path d="M134.576 215.734C134.576 215.731 134.58 215.721 134.58 215.721C134.576 215.721 134.57 215.724 134.566 215.728C134.559 215.724 134.556 215.721 134.553 215.721C134.553 215.721 134.553 215.731 134.556 215.734C122.616 222.409 121.533 235 121.533 235C130.951 231.755 134.335 216.858 134.566 215.785C134.797 216.858 138.182 231.755 147.596 235C147.596 235 146.513 222.409 134.576 215.734Z" fill="#A0834A"/>
<path d="M163.025 228.818C159.413 225.623 148.936 215.086 134.848 214.787C134.848 214.787 139.523 216.861 145.148 221.95C150.77 227.042 158.941 235.095 169.302 231.541C169.302 231.541 166.637 232.013 163.025 228.818Z" fill="#A0834A"/>
<path d="M134.305 214.787C120.216 215.082 109.74 225.62 106.128 228.818C102.519 232.013 99.854 231.541 99.854 231.541C110.212 235.095 118.38 227.042 124.005 221.95C129.63 216.858 134.305 214.787 134.305 214.787Z" fill="#A0834A"/>
<path d="M168.151 218.406C168.151 218.406 187.672 221.302 194.302 214.838C194.302 214.838 186.297 210.734 168.151 218.406Z" fill="#A0834A"/>
<path d="M154.301 219.129C164.93 228.098 176.74 224.887 176.74 224.887C166.749 217.007 154.301 219.129 154.301 219.129Z" fill="#A0834A"/>
<path d="M128.941 212.631C128.941 212.631 116.024 203.336 105.605 205.047C105.605 205.047 112.018 213.609 128.941 212.631Z" fill="#A0834A"/>
<path d="M52.0141 73.691C47.9912 87.2635 55.3037 95.0682 55.3037 95.0682C58.4744 82.8332 52.0141 73.691 52.0141 73.691Z" fill="#A0834A"/>
<path d="M62.6059 190.555C65.0298 192.15 71.9722 198.047 80.8803 201.748C89.7883 205.451 95.0911 204.263 95.0911 204.263C89.2418 202.345 82.2518 197.273 77.8215 193.478C73.3879 189.686 69.2767 188.637 69.2767 188.637C62.4667 186.671 59.7271 188.453 59.7271 188.453C59.7271 188.453 60.182 188.952 62.6059 190.555Z" fill="#A0834A"/>
<path d="M83.9595 211.498C83.9595 211.498 93.3801 214.312 104.95 216.128C116.516 217.948 121.938 214.556 121.938 214.556C120.057 214.526 114.065 213.497 111.159 212.648C108.246 211.8 103.643 209.135 95.193 208.466C86.7466 207.801 83.9595 211.498 83.9595 211.498Z" fill="#A0834A"/>
<path d="M76.0495 187.557C73.8564 170.097 65.3931 165.535 65.3931 165.535C66.2791 180.808 76.0495 187.557 76.0495 187.557Z" fill="#A0834A"/>
<path d="M54.1867 133.593C54.1867 133.593 63.4104 120.142 59.7949 111.526C59.7949 111.526 51.5421 120.954 54.1867 133.593Z" fill="#A0834A"/>
<path d="M44.783 158.67C45.5502 159.203 47.9775 162.459 50.819 167.256C53.6639 172.05 56.6819 175.01 56.6819 175.01C64.9687 184.186 70.7704 184.838 70.7704 184.838C61.18 175.838 62.8978 170.155 55.7924 163.702C48.6904 157.251 44.783 158.67 44.783 158.67Z" fill="#A0834A"/>
<path d="M60.535 161.984C64.6801 146.948 57.7513 139.666 57.7513 139.666C53.3142 151.212 60.535 161.984 60.535 161.984Z" fill="#A0834A"/>
<path d="M123.883 36.2017C125.835 35.9947 127.369 37.5291 127.621 39.9327C127.848 42.0918 127.159 43.9284 125.455 45.4832C122.27 43.3479 121.208 41.6267 121.045 40.0583C120.827 38.001 122.002 36.3986 123.883 36.2017ZM129.759 54.6153C129.987 56.7779 128.727 58.5296 126.775 58.7367C124.372 58.9879 122.65 57.0528 122.308 53.7768C122.05 51.3359 122.61 49.5842 124.083 48.1991C128.245 50.898 129.525 52.351 129.759 54.6153ZM123.234 47.5099C120.702 49.8931 119.599 52.1575 119.853 54.5644C120.203 57.9117 123.085 60.1795 126.538 59.8162C129.953 59.4632 132.322 56.4995 131.959 53.0469C131.677 50.3616 130.136 48.4435 126.405 46.1249C129.25 43.7077 130.262 41.9119 130.041 39.8206C129.803 37.5529 127.685 34.8506 123.995 35.2376C120.542 35.6009 118.407 38.1164 118.753 41.3925C118.991 43.6602 120.308 45.4595 123.234 47.5099Z" fill="#A0834A"/>
<path d="M49.0944 132.802C46.5517 128.423 42.1689 126.881 42.1689 126.881C42.763 128.361 44.8916 138.427 47.3189 145.709C49.7462 152.988 56.6106 159.146 56.6106 159.146C56.6106 159.146 54.5397 153.106 53.6503 148.727C52.7642 144.344 51.6371 137.181 49.0944 132.802Z" fill="#A0834A"/>
<path d="M81.9226 189.037C87.7583 202.101 99.3653 204.555 99.3653 204.555C90.7696 189.176 81.9226 189.037 81.9226 189.037Z" fill="#A0834A"/>
<path d="M93.3971 70.6458C93.3971 70.6458 80.7683 70.9615 73.3506 83.115C73.3506 83.115 86.6108 80.905 93.3971 70.6458Z" fill="#A0834A"/>
<path d="M79.1048 49.4894C71.6837 58.3295 73.8191 71.4336 73.8191 71.4336C82.8154 57.8576 79.1048 49.4894 79.1048 49.4894Z" fill="#A0834A"/>
<path d="M57.5815 107.867C57.5815 107.867 71.7652 98.4393 72.2099 88.6045C72.2099 88.6045 61.2004 93.1569 57.5815 107.867Z" fill="#A0834A"/>
<path d="M67.4945 85.4029C73.5713 76.6408 69.8641 68.0383 69.8641 68.0383C69.8641 68.0383 69.5484 70.7202 67.5726 73.1679C65.6002 75.6156 61.1801 81.6923 58.6544 90.6921C56.1286 99.6918 57.8668 102.611 57.8668 102.611C58.8139 98.1879 61.4178 94.165 67.4945 85.4029Z" fill="#A0834A"/>
<path d="M65.8311 61.0146C57.7785 68.9042 58.0196 83.4307 58.0196 83.4307C67.4063 72.3805 65.8311 61.0146 65.8311 61.0146Z" fill="#A0834A"/>
<path d="M97.4029 42.6248C84.5399 49.0172 81.6169 61.4899 81.6169 61.4899C95.6682 52.8059 97.4029 42.6248 97.4029 42.6248Z" fill="#A0834A"/>
<path d="M103.785 42.4856C104.556 42.2513 105.052 42.7945 105.54 44.4071L110.144 59.5582C110.639 61.2013 110.324 62.2164 108.66 62.7561L108.833 63.3265L116.207 61.0893L116.034 60.5156C114.357 61.0282 113.488 60.4477 112.934 58.6382L106.841 38.5544L106.267 38.7275L102.376 42.9133L102.763 43.3445C102.994 43.0186 103.415 42.5976 103.785 42.4856Z" fill="#A0834A"/>
<path d="M94.0082 61.4865C100.638 54.7783 98.8221 50.2801 98.8221 50.2801C97.325 51.8553 89.7477 58.1697 82.8018 63.9341C75.8526 69.6952 75.1465 77.6663 75.1465 77.6663C79.5632 72.0648 87.3781 68.1913 94.0082 61.4865Z" fill="#A0834A"/>
<path d="M134.441 67.475C171.784 67.475 202.195 97.8859 202.195 135.27C202.195 150.869 196.895 165.26 188.004 176.731L164.797 145.217C165.032 142.918 164.967 141.557 164.967 141.557V104.044H134.475L164.787 145.19C164.784 145.24 164.777 145.298 164.77 145.353C164.75 145.549 164.729 145.75 164.706 145.957C164.702 145.977 164.699 145.998 164.695 146.021C164.665 146.262 164.634 146.514 164.597 146.775C164.594 146.795 164.59 146.816 164.587 146.843C164.471 147.668 164.319 148.574 164.115 149.549C164.112 149.572 164.105 149.589 164.101 149.606C164.037 149.922 163.966 150.248 163.891 150.574C163.884 150.594 163.881 150.621 163.874 150.642C163.799 150.968 163.718 151.304 163.629 151.643C163.623 151.67 163.616 151.697 163.606 151.728C163.521 152.064 163.433 152.404 163.331 152.75C163.314 152.818 163.293 152.889 163.276 152.957C163.181 153.266 163.093 153.578 162.998 153.901C162.971 153.986 162.94 154.074 162.913 154.155C162.815 154.464 162.72 154.773 162.618 155.086C162.584 155.174 162.553 155.265 162.519 155.357C162.414 155.669 162.309 155.982 162.19 156.301C162.139 156.44 162.081 156.586 162.03 156.729C161.925 157 161.827 157.272 161.718 157.547C161.647 157.727 161.569 157.917 161.487 158.097C161.392 158.341 161.297 158.579 161.195 158.823C161.11 159.02 161.019 159.22 160.931 159.417C160.829 159.652 160.73 159.886 160.622 160.12C160.479 160.429 160.326 160.741 160.177 161.054C160.112 161.183 160.055 161.312 159.99 161.441C159.773 161.882 159.542 162.327 159.304 162.775L134.481 129.084L134.471 129.074L109.699 162.775C109.692 162.771 109.689 162.768 109.689 162.768C109.461 162.347 109.248 161.926 109.04 161.509C108.976 161.38 108.911 161.247 108.847 161.115C108.708 160.83 108.569 160.544 108.44 160.263C108.365 160.106 108.297 159.957 108.229 159.801C108.11 159.543 107.995 159.285 107.883 159.03C107.815 158.871 107.747 158.715 107.683 158.558C107.577 158.307 107.475 158.059 107.374 157.815C107.313 157.655 107.251 157.503 107.19 157.346C107.092 157.099 106.997 156.847 106.905 156.6C106.851 156.457 106.796 156.311 106.749 156.172C106.647 155.897 106.552 155.625 106.46 155.357C106.423 155.245 106.386 155.133 106.348 155.028C106.226 154.654 106.104 154.284 105.995 153.921C105.968 153.84 105.948 153.758 105.924 153.68C105.836 153.398 105.754 153.117 105.676 152.845C105.639 152.702 105.598 152.567 105.564 152.427C105.506 152.217 105.449 152.003 105.398 151.799C105.357 151.65 105.316 151.501 105.282 151.348C105.235 151.161 105.191 150.974 105.147 150.791C105.113 150.638 105.075 150.486 105.041 150.336C105.004 150.166 104.967 149.99 104.929 149.82C104.899 149.671 104.865 149.521 104.838 149.375C104.8 149.212 104.773 149.056 104.743 148.893C104.712 148.747 104.685 148.601 104.661 148.462C104.631 148.309 104.607 148.16 104.583 148.017C104.515 147.607 104.447 147.209 104.393 146.833L104.396 146.836C104.311 146.252 104.244 145.702 104.189 145.203L80.9278 176.809C71.996 165.324 66.6763 150.91 66.6763 135.27C66.6763 97.8859 97.0873 67.475 134.441 67.475ZM134.441 203.068C118.122 203.068 103.127 197.26 91.4145 187.605L109.679 162.785C110.965 165.182 112.537 167.653 114.469 170.121C123.662 181.847 134.481 186.189 134.481 186.189C134.481 186.189 145.341 181.847 154.518 170.121C156.446 167.657 158.018 165.189 159.304 162.795L177.528 187.547C165.806 197.239 150.787 203.068 134.441 203.068ZM65.2131 135.266C65.2131 173.496 96.2793 204.592 134.481 204.592C172.707 204.592 203.79 173.496 203.79 135.266C203.79 97.0338 172.707 65.9507 134.481 65.9507C96.2793 65.9507 65.2131 97.0338 65.2131 135.266Z" fill="white"/>
<path d="M104.023 104.044V141.56C104.023 141.56 103.958 142.908 104.189 145.19L134.464 104.044H126.188H104.023Z" fill="white"/>
</g>
</g>
<defs>
<clipPath id="clip0_1_184">
<rect width="207.156" height="200" fill="white" transform="translate(31 35)"/>
</clipPath>
</defs>
</svg>
