<?xml version="1.0" encoding="UTF-8" standalone="no"?>
<svg
   xmlns:dc="http://purl.org/dc/elements/1.1/"
   xmlns:cc="http://creativecommons.org/ns#"
   xmlns:rdf="http://www.w3.org/1999/02/22-rdf-syntax-ns#"
   xmlns:svg="http://www.w3.org/2000/svg"
   xmlns="http://www.w3.org/2000/svg"
   xmlns:sodipodi="http://sodipodi.sourceforge.net/DTD/sodipodi-0.dtd"
   xmlns:inkscape="http://www.inkscape.org/namespaces/inkscape"
   viewBox="0 0 300.00001 300.00001"
   version="1.1"
   id="svg112"
   sodipodi:docname="Venezia_FC_(logo).svg"
   width="300"
   height="300"
   inkscape:version="0.92.4 (5da689c313, 2019-01-14)">
  <metadata
     id="metadata116">
    <rdf:RDF>
      <cc:Work
         rdf:about="">
        <dc:format>image/svg+xml</dc:format>
        <dc:type
           rdf:resource="http://purl.org/dc/dcmitype/StillImage" />
        <dc:title>logo-fc</dc:title>
      </cc:Work>
    </rdf:RDF>
  </metadata>
  <sodipodi:namedview
     pagecolor="#ffffff"
     bordercolor="#666666"
     borderopacity="1"
     objecttolerance="10"
     gridtolerance="10"
     guidetolerance="10"
     inkscape:pageopacity="0"
     inkscape:pageshadow="2"
     inkscape:window-width="1366"
     inkscape:window-height="705"
     id="namedview114"
     showgrid="false"
     fit-margin-top="1"
     fit-margin-right="1"
     fit-margin-bottom="1"
     fit-margin-left="1"
     inkscape:zoom="2.4706869"
     inkscape:cx="92.323578"
     inkscape:cy="103.50353"
     inkscape:window-x="-8"
     inkscape:window-y="-8"
     inkscape:window-maximized="1"
     inkscape:current-layer="svg112" />
  <defs
     id="defs4">
    <style
       id="style2">.cls-1{fill:#696d72;}.cls-2{fill:#12100b;}.cls-3{fill:#09611f;}.cls-4{fill:#ef7d00;}.cls-5{fill:#fff;}.cls-6{fill:#ad1917;}</style>
  </defs>
  <title
     id="title6">logo-fc</title>
  <g
     id="Livello_2"
     data-name="Livello 2"
     transform="matrix(1.5598827,0,0,1.5598827,1.0623953,1.0000131)">
    <g
       id="Layer_1"
       data-name="Layer 1">
      <path
         class="cls-1"
         d="M 95.52,0 A 95.52,95.52 0 1 0 191,95.52 95.63,95.63 0 0 0 95.52,0"
         id="path8"
         inkscape:connector-curvature="0"
         style="fill:#696d72" />
      <path
         class="cls-2"
         d="M 95.52,1.44 A 94.08,94.08 0 1 0 189.6,95.52 94.19,94.19 0 0 0 95.52,1.44"
         id="path10"
         inkscape:connector-curvature="0"
         style="fill:#12100b" />
      <path
         class="cls-3"
         d="m 107.35,123.15 c 0.88,-1.27 1.76,-2.61 2.65,-4 a 144.53,144.53 0 0 0 7.25,-13.2 A 127.36,127.36 0 0 0 124,89 a 152.26,152.26 0 0 0 5,-20.87 147.27,147.27 0 0 0 1.91,-22.88 61.38,61.38 0 0 0 -23.53,-10 z"
         id="path12"
         inkscape:connector-curvature="0"
         style="fill:#09611f" />
      <path
         class="cls-4"
         d="m 83.69,35.2 a 61.38,61.38 0 0 0 -23.53,10 147.27,147.27 0 0 0 1.91,22.88 151.9,151.9 0 0 0 5,20.87 127.33,127.33 0 0 0 6.73,17 142.24,142.24 0 0 0 7.2,13.2 c 0.89,1.39 1.77,2.73 2.65,4 z"
         id="path14"
         inkscape:connector-curvature="0"
         style="fill:#ef7d00" />
      <path
         class="cls-2"
         d="m 107.35,35.2 a 61.42,61.42 0 0 0 -23.66,0 v 88 a 98.38,98.38 0 0 0 7.13,9.29 c 1.76,2 3.34,3.72 4.7,5.12 1.36,-1.4 2.94,-3.12 4.7,-5.12 a 98.38,98.38 0 0 0 7.13,-9.29 z"
         id="path16"
         inkscape:connector-curvature="0"
         style="fill:#12100b" />
      <path
         class="cls-5"
         d="m 95.52,32.32 a 63.2,63.2 0 1 0 63.19,63.2 63.27,63.27 0 0 0 -63.19,-63.2 m 34.12,14.3 a 142.21,142.21 0 0 1 -1.84,22.08 145.94,145.94 0 0 1 -4.8,20.14 122.39,122.39 0 0 1 -6.49,16.4 140,140 0 0 1 -7,12.74 106.46,106.46 0 0 1 -9.44,12.82 c -1.7,1.93 -3.22,3.59 -4.54,4.94 -1.32,-1.35 -2.84,-3 -4.53,-4.94 A 104.35,104.35 0 0 1 81.55,118 137.47,137.47 0 0 1 74.55,105.26 122.39,122.39 0 0 1 68.06,88.86 147.4,147.4 0 0 1 63.24,68.7 142.21,142.21 0 0 1 61.4,46.62 a 59.52,59.52 0 0 1 68.24,0 M 35.87,95.52 A 59.31,59.31 0 0 1 43,67.36 a 162.73,162.73 0 0 0 5.77,26.86 158.16,158.16 0 0 0 7,18.14 128.93,128.93 0 0 0 9.23,16.9 120.36,120.36 0 0 0 8.78,12.1 c 2.83,3.37 5.4,6.25 7.64,8.54 1.81,1.85 3.39,3.37 4.73,4.54 A 59.75,59.75 0 0 1 35.85,95.52 m 69,58.92 c 1.34,-1.17 2.93,-2.69 4.73,-4.54 2.24,-2.29 4.81,-5.17 7.64,-8.54 a 120.36,120.36 0 0 0 8.78,-12.1 130.11,130.11 0 0 0 9.32,-16.9 158.16,158.16 0 0 0 7,-18.14 162.73,162.73 0 0 0 5.77,-26.86 59.63,59.63 0 0 1 -43.22,87.08"
         id="path18"
         inkscape:connector-curvature="0"
         style="fill:#ffffff" />
      <path
         class="cls-5"
         d="m 47.58,22.79 -0.7,0.46 c -0.42,0.27 -1,0.64 -1.5,1 l -2.15,1.56 c -0.51,0.38 -0.34,0.68 -0.28,0.76 0.06,0.08 0.38,0.31 1,-0.12 0.82,-0.57 1,-0.7 1.07,-0.73 0.07,-0.03 0.21,-0.08 0.35,0.11 a 19,19 0 0 1 1.32,4 c 0.44,1.6 0.75,2.62 0.89,3.06 0.23,0.74 0.43,1.36 0.59,1.88 v 0.08 l 1.45,0.9 -0.2,-0.63 c -1,-3.1 -1.64,-5.58 -2,-7.28 -0.18,-0.77 -0.31,-1.35 -0.39,-1.73 -0.24,-1 -0.18,-1.35 -0.11,-1.48 0.07,-0.13 0.3,-0.46 1.36,-1.19 0.39,-0.31 0.27,-0.58 0.22,-0.65 -0.05,-0.07 -0.32,-0.39 -0.87,0"
         id="path20"
         inkscape:connector-curvature="0"
         style="fill:#ffffff" />
      <path
         class="cls-5"
         d="m 39.53,30.81 -0.2,-0.1 a 1.52,1.52 0 0 0 -0.2,-0.11 c 0,0 0,-0.33 0.92,-1.07 0.47,-0.4 1,-0.85 0.71,-1.15 -0.11,-0.13 -0.37,-0.28 -0.93,0.17 0,0 -0.11,0.08 -0.29,0.24 -0.18,0.16 -0.44,0.34 -0.73,0.61 l -2.18,2 c -0.81,0.7 -1.55,1.46 -2.12,2 l -0.94,0.93 c -0.33,0.33 -0.94,0.94 -0.63,1.24 0.31,0.3 0.43,0.19 0.76,-0.13 l 0.68,-0.68 a 1.18,1.18 0 0 1 1.52,-0.31 c 1.22,0.56 2.36,1.07 3.41,1.5 1.93,0.81 3.35,1.48 4.27,1.94 2.1,1 3.78,1.91 5,2.61 0.8,0.43 1.5,0.86 2.08,1.24 0.35,0.22 0.63,0.26 0.82,0.11 0.19,-0.15 0.17,-0.4 -0.29,-1.55 C 50.73,39.15 50.36,38 50,36.94 v -0.08 c 0,0 -2.51,-1.6 -5.15,-3.08 -1.31,-0.75 -2.66,-1.49 -3.67,-2 l -1.69,-0.86 z"
         id="path22"
         inkscape:connector-curvature="0"
         style="fill:#ffffff" />
      <path
         class="cls-5"
         d="m 62.91,24.64 c 0.24,0.08 0.69,0.42 1.44,1.6 a 3.88,3.88 0 0 0 0.51,0.71 0.43,0.43 0 0 0 0.5,0 0.48,0.48 0 0 0 0.22,-0.68 A 2.89,2.89 0 0 0 65.4,26 c -0.31,-0.64 -0.75,-1.62 -1.32,-2.91 -0.2,-0.47 -0.36,-0.86 -0.47,-1.15 -0.31,-0.86 -0.53,-1.44 -0.65,-1.72 -0.23,-0.53 -0.56,-0.48 -0.73,-0.4 -0.41,0.19 -0.31,0.76 -0.16,1.29 0.27,1 0.27,1.76 0,2.15 a 6.73,6.73 0 0 1 -2,1.33 l -0.21,0.12 0.42,0.82 0.73,-0.38 c 1.18,-0.55 1.7,-0.56 1.93,-0.49"
         id="path24"
         inkscape:connector-curvature="0"
         style="fill:#ffffff" />
      <path
         class="cls-5"
         d="m 52.14,20 -1.93,1.16 c -0.23,0.13 -0.92,0.56 -0.66,1 0.26,0.44 0.93,-0.07 1.23,-0.24 a 2.18,2.18 0 0 1 0.86,-0.37 c 0.11,0 0.22,0.08 0.35,0.24 0.13,0.16 0.16,0.24 0.82,1.36 l 6.34,10.65 a 5.69,5.69 0 0 1 0.3,0.61 c 0.13,0.32 -0.27,0.67 -0.63,0.91 a 4.3,4.3 0 0 0 -0.6,0.46 0.37,0.37 0 0 0 0,0.48 c 0.1,0.16 0.31,0.29 0.76,0 l 1.7,-1 c 0.41,-0.24 0.83,-0.52 1.29,-0.78 l 1.45,-0.76 0.2,-0.1 L 55.54,18 55.3,18.12 c -1,0.54 -2.07,1.1 -3.16,1.79"
         id="path26"
         inkscape:connector-curvature="0"
         style="fill:#ffffff" />
      <path
         class="cls-5"
         d="m 68.43,25.84 c -0.15,0.06 -0.32,0.24 -0.24,0.7 a 11.67,11.67 0 0 1 0.3,2.09 2.56,2.56 0 0 1 -0.33,1.16 3.68,3.68 0 0 1 -1,1 c -0.32,0.2 -1.28,0.68 -2.82,1.44 l -0.57,0.29 0.41,0.82 0.19,-0.1 a 50.8,50.8 0 0 1 5.89,-2.39 l 0.2,-0.07 v 0 c 0.12,0 0.15,-0.09 0.1,-0.28 v -0.11 c 0,-0.09 -0.08,-0.21 -0.13,-0.35 -0.12,-0.33 -0.31,-0.86 -0.57,-1.61 l -0.8,-2.15 c -0.19,-0.51 -0.49,-0.45 -0.62,-0.4"
         id="path28"
         inkscape:connector-curvature="0"
         style="fill:#ffffff" />
      <path
         class="cls-5"
         d="m 58.28,17.79 a 7.47,7.47 0 0 1 3.8,-0.92 3,3 0 0 1 2.25,1.59 c 0.1,0.18 0.42,0.73 0.89,0.55 a 0.48,0.48 0 0 0 0.32,-0.64 c -0.07,-0.19 -0.3,-0.66 -0.71,-1.44 l -1.32,-2.61 -0.25,0.13 c -0.55,0.27 -1,0.49 -1.42,0.65 l -0.93,0.37 -0.9,0.42 c -1,0.46 -2.21,1 -3.49,1.63 l -0.23,0.12 0.46,0.94 0.25,-0.14 a 13,13 0 0 1 1.28,-0.65"
         id="path30"
         inkscape:connector-curvature="0"
         style="fill:#ffffff" />
      <path
         class="cls-5"
         d="m 144,44.24 v 0 c -0.73,-0.63 -0.88,-0.9 -0.92,-1 a 2.61,2.61 0 0 1 0.31,-1.42 c 0.36,-0.88 0.69,-1.76 1,-2.63 2.32,-6.69 3.28,-10.93 3.56,-11.88 0.31,-1.15 0.27,-1.4 0.06,-1.56 -0.21,-0.16 -0.52,-0.08 -1.2,0.35 -0.68,0.43 -1.23,0.75 -1.58,0.94 l -1.71,1.05 c 0,0 -0.37,1.49 -0.78,2.95 -0.41,1.46 -0.83,2.9 -0.83,2.9 v 0 l -0.26,0.85 a 1.56,1.56 0 0 1 -0.05,0.16 L 140,33.82 c -0.73,-0.56 -1.51,-1.07 -1.51,-1.07 l 2.3,-1.61 c 0.45,-0.3 0.85,-0.57 1.23,-0.81 h 0.07 l 0.41,-1.62 -0.75,0.48 -1.63,1.1 c -1.18,0.8 -2.34,1.62 -2.34,1.62 -1.36,1 -2.41,1.74 -3.14,2.29 a 9.89,9.89 0 0 1 -1.77,1.24 c -0.11,0 -0.4,0.05 -1.06,-0.3 -0.44,-0.22 -0.86,-0.4 -1,-0.11 a 0.47,0.47 0 0 0 0.22,0.69 l 0.57,0.33 c 0.33,0.21 0.79,0.45 1.22,0.75 l 1.74,1.15 c 0.46,0.31 0.69,0.14 0.78,0 0.09,-0.14 0.19,-0.36 -0.2,-0.66 l -0.89,-0.7 c -0.24,-0.26 -0.16,-0.4 -0.12,-0.46 a 1.8,1.8 0 0 1 0.38,-0.38 l 1.32,-1 c 0.85,-0.63 1.46,-1.06 1.81,-1.28 l 0.9,0.58 c 0.29,0.2 0.56,0.4 0.82,0.61 l 1.82,1.34 c -0.29,0.89 -0.51,1.49 -0.64,1.81 l -0.6,1.59 a 5.38,5.38 0 0 1 -0.39,0.93 0.35,0.35 0 0 1 -0.18,-0.07 v 0 A 1.41,1.41 0 0 1 139,40.02 c -0.94,-0.69 -1.35,-0.82 -1.56,-0.55 -0.21,0.27 0.23,0.76 0.4,0.89 0.17,0.13 0.66,0.47 1.29,1 0.31,0.23 0.67,0.52 1.06,0.84 a 22,22 0 0 1 1.78,1.6 l 0.77,0.74 a 6.36,6.36 0 0 0 0.73,0.61 0.45,0.45 0 0 0 0.57,-0.1 0.43,0.43 0 0 0 -0.06,-0.67"
         id="path32"
         inkscape:connector-curvature="0"
         style="fill:#ffffff" />
      <path
         class="cls-5"
         d="m 128.72,33.37 v 0 c -1,-0.61 -1.12,-0.82 -1.13,-0.85 -0.01,-0.03 -0.07,-0.2 0.35,-1 l 6.27,-12.37 0.24,-0.31 a 1.64,1.64 0 0 1 0.85,0.23 5.34,5.34 0 0 0 0.87,0.39 0.4,0.4 0 0 0 0.47,-0.2 c 0,-0.08 0.16,-0.38 -0.38,-0.67 L 135.17,18 c -0.63,-0.36 -1.51,-0.76 -2.38,-1.17 l -2.41,-1.12 -1.12,-0.45 a 4.27,4.27 0 0 0 -0.78,-0.29 0.38,0.38 0 0 0 -0.45,0.26 c -0.15,0.38 0.5,0.64 0.85,0.78 0.5,0.21 1.07,0.52 0.94,0.81 l 0.25,0.11 v 0 l -0.26,-0.09 c 0,0 -0.05,0.15 -0.13,0.38 l -5.1,11.68 a 8.22,8.22 0 0 1 -0.85,1.7 c 0,0 -0.19,0.14 -0.75,0 a 6.27,6.27 0 0 0 -0.88,-0.3 0.35,0.35 0 0 0 -0.43,0.22 c 0,0.1 -0.13,0.43 0.36,0.64 l 1,0.36 c 1.26,0.47 2.2,0.93 2.84,1.21 a 20.85,20.85 0 0 1 2.09,1.14 2.08,2.08 0 0 0 0.29,0.19 c 0.43,0.23 0.62,0 0.67,-0.14 a 0.42,0.42 0 0 0 -0.15,-0.57"
         id="path34"
         inkscape:connector-curvature="0"
         style="fill:#ffffff" />
      <path
         class="cls-5"
         d="m 99.28,9.43 a 7,7 0 0 1 3.78,1 3,3 0 0 1 1.24,2.44 c 0,0.21 0,0.85 0.53,0.9 a 0.49,0.49 0 0 0 0.59,-0.42 c 0,-0.2 0,-0.72 0,-1.6 l 0.06,-2.92 h -0.28 c -0.61,0 -1.14,0 -1.56,-0.09 l -1,-0.09 L 102,8.57 h -0.31 C 100.58,8.49 99.29,8.42 97.85,8.36 h -0.27 v 1 h 0.27 1.44"
         id="path36"
         inkscape:connector-curvature="0"
         style="fill:#ffffff" />
      <path
         class="cls-5"
         d="m 100.15,17.65 a 3.77,3.77 0 0 1 0.52,2.08 3.43,3.43 0 0 0 0.11,0.87 0.44,0.44 0 0 0 0.42,0.27 c 0.22,0 0.47,-0.09 0.5,-0.48 a 1.68,1.68 0 0 0 0,-0.38 c 0,-0.71 0.09,-1.78 0.21,-3.18 0,-0.52 0.08,-0.93 0.12,-1.24 0.13,-0.92 0.21,-1.52 0.23,-1.82 0,-0.58 -0.26,-0.7 -0.45,-0.72 -0.44,0 -0.63,0.53 -0.75,1.07 -0.24,1 -0.59,1.68 -1,1.89 a 6.35,6.35 0 0 1 -2.38,0.22 h -0.23 v 0.93 h 0.4 0.41 c 1.3,0.07 1.78,0.29 2,0.46"
         id="path38"
         inkscape:connector-curvature="0"
         style="fill:#ffffff" />
      <path
         class="cls-5"
         d="m 104.46,21.3 c -0.17,0 -0.4,0.06 -0.55,0.51 a 13.54,13.54 0 0 1 -0.71,2 2.66,2.66 0 0 1 -0.84,0.87 3.28,3.28 0 0 1 -1.34,0.38 c -0.38,0 -1.45,0 -3.18,-0.05 H 97.52 97.2 v 0.92 h 0.21 c 1,0.06 2,0.14 3.08,0.22 1.08,0.08 2.14,0.28 3.26,0.43 h 0.21 v 0 c 0.14,0 0.19,0 0.23,-0.2 V 26.3 a 1.2,1.2 0 0 0 0,-0.23 V 25.9 c 0,-0.34 0.13,-0.9 0.25,-1.68 0.19,-1.48 0.3,-2.24 0.3,-2.27 0.07,-0.54 -0.22,-0.64 -0.35,-0.65"
         id="path40"
         inkscape:connector-curvature="0"
         style="fill:#ffffff" />
      <path
         class="cls-5"
         d="m 92.85,8.44 -2.23,0.12 c -0.27,0 -1.08,0 -1.05,0.52 0.03,0.52 0.85,0.41 1.2,0.4 a 2.17,2.17 0 0 1 0.93,0.07 c 0.1,0 0.16,0.17 0.19,0.37 0.03,0.2 0,0.29 0.09,1.59 L 92.5,24 a 4.83,4.83 0 0 1 0,0.67 c 0,0.35 -0.57,0.48 -1,0.53 l -0.55,0.07 -0.39,0.06 c 0,0 0.15,0.19 0.32,0.38 l 0.31,0.38 h 0.1 L 93.14,26 c 1,-0.1 2,-0.07 3.15,-0.07 h 0.22 L 96.75,8.39 h -0.27 c -1.13,0 -2.34,0 -3.63,0.09"
         id="path42"
         inkscape:connector-curvature="0"
         style="fill:#ffffff" />
      <path
         class="cls-5"
         d="m 110,15 c 0.4,0.08 0.65,-0.33 0.73,-0.46 a 6.06,6.06 0 0 1 2.53,-2.29 6,6 0 0 1 3.91,0 l 1.15,0.3 h 0.16 l 0.59,-0.53 0.27,-0.27 -0.44,-0.13 -4.47,-1.16 q -1.77,-0.39 -2.52,-0.63 l -0.24,-0.07 -0.09,0.19 c -1,2.14 -1.56,3.52 -1.81,4.12 A 0.82,0.82 0 0 0 109.61,14.43 0.44,0.44 0 0 0 110,15"
         id="path44"
         inkscape:connector-curvature="0"
         style="fill:#ffffff" />
      <path
         class="cls-5"
         d="m 117.53,20.12 c 2.27,-2.12 4.17,-3.7 5.44,-4.68 a 11.58,11.58 0 0 0 1.85,-1.71 l 0.14,-0.22 -0.28,-0.13 -0.76,-0.29 c -0.18,-0.06 -0.57,-0.18 -1.21,-0.36 l -2.3,-0.6 -0.15,-0.05 -1,0.85 -1,0.86 L 117,15 c 0,0 -2.08,2 -4,4 -1,1 -1.88,2.07 -2.55,2.86 l -1.1,1.31 c -1.24,1.54 -2,2.55 -2.42,3 a 0.72,0.72 0 0 0 -0.19,0.35 c 0,0.09 0,0.4 0.45,0.46 0.45,0.06 0.79,0.14 1.24,0.2 0.45,0.06 0.75,0.12 1.22,0.21 l 0.86,0.16 0.44,-0.52 1,-1.12 1.48,-1.63 c 2.43,-2.64 3.89,-3.95 4.12,-4.18"
         id="path46"
         inkscape:connector-curvature="0"
         style="fill:#ffffff" />
      <path
         class="cls-5"
         d="m 121.16,24.41 c -0.15,-0.05 -0.44,-0.08 -0.69,0.34 -1.22,1.88 -2.35,2.82 -3.46,2.95 a 9.76,9.76 0 0 1 -3.05,-0.38 c -0.18,0 -0.79,-0.17 -1.81,-0.42 h -0.13 l -0.78,0.88 1.2,0.3 c 0.72,0.17 1.67,0.4 2.61,0.7 0.94,0.3 1.89,0.54 2.58,0.8 l 1.16,0.41 0.09,-0.18 c 0.69,-1.39 1.25,-2.45 1.64,-3.17 0.84,-1.48 0.86,-1.54 0.88,-1.58 a 0.44,0.44 0 0 0 -0.24,-0.62"
         id="path48"
         inkscape:connector-curvature="0"
         style="fill:#ffffff" />
      <path
         class="cls-5"
         d="M 86.23,9 C 86.06,9 85.69,9 85.11,9.09 L 82.78,9.42 81.84,9.55 81.19,9.65 80.9,9.7 c -0.69,0.13 -0.74,0.41 -0.72,0.57 0.02,0.16 0.13,0.34 0.66,0.28 l 0.63,-0.09 0.62,-0.06 a 1.88,1.88 0 0 1 0.84,0 c 0,0 0.15,0.09 0.22,0.55 l 1.15,7.94 1.4,1.31 -1.1,-8.49 c -0.09,-0.59 -0.13,-0.94 -0.14,-1.15 a 1.57,1.57 0 0 1 0,-0.29 v 0 c 0,0 0.06,-0.12 0.62,-0.22 L 86.61,9.82 C 86.94,9.75 87.03,9.56 87.02,9.4 87.01,9.24 86.88,9 86.22,9.03"
         id="path50"
         inkscape:connector-curvature="0"
         style="fill:#ffffff" />
      <path
         class="cls-5"
         d="m 73.22,11.32 h -0.14 c -0.85,0.29 -2,0.65 -3.34,1.05 -0.68,0.19 -1.18,0.36 -1.51,0.46 L 67,13.24 c -0.6,0.21 -0.53,0.56 -0.49,0.66 0.04,0.1 0.23,0.37 0.84,0.2 a 4.88,4.88 0 0 1 2.23,-0.36 1.86,1.86 0 0 1 1.28,1.1 v 0 l 0.09,0.21 v 0.07 c 0,0 0.87,0.53 2.11,1.34 1.24,0.81 2.87,1.95 4.42,3.13 1.55,1.18 3,2.4 4.1,3.35 1.1,0.95 1.76,1.58 1.76,1.58 2.54,2.27 2.63,2.28 2.8,2.25 0.17,-0.03 0.36,-0.17 0.29,-0.69 l -0.61,-4.76 -1.26,-1.2 c -0.77,-0.72 -1.83,-1.7 -2.91,-2.59 -1.08,-0.89 -2.22,-1.8 -3.08,-2.47 -0.44,-0.34 -0.8,-0.61 -1.06,-0.79 l -0.4,-0.29 -1.93,-1.34 z"
         id="path52"
         inkscape:connector-curvature="0"
         style="fill:#ffffff" />
      <path
         class="cls-5"
         d="m 77.21,27.46 a 2.92,2.92 0 0 1 -1.1,0.13 c 0,0 -0.18,0 -0.28,-0.36 L 73,17.28 l -1.62,-1 3,10 a 8,8 0 0 1 0.4,1.6 c 0,0 -0.1,0.23 -1.1,0.64 -1,0.41 -1.12,0.58 -1,0.86 a 0.4,0.4 0 0 0 0.46,0.27 v 0 l 0.2,-0.08 v -0.13 0.13 l 0.53,-0.21 c 0.83,-0.32 1.53,-0.51 2,-0.67 l 1.67,-0.44 a 1.42,1.42 0 0 0 0.38,-0.06 c 0.5,-0.12 0.49,-0.42 0.45,-0.54 a 0.3,0.3 0 0 0 -0.13,-0.22 c -0.12,-0.1 -0.35,-0.13 -1.08,0.05"
         id="path54"
         inkscape:connector-curvature="0"
         style="fill:#ffffff" />
      <path
         class="cls-4"
         d="M 43.87,137.16 A 66.26,66.26 0 0 1 33,117.68 v 44.13 a 91.83,91.83 0 0 0 10.92,8.83 z"
         id="path56"
         inkscape:connector-curvature="0"
         style="fill:#ef7d00" />
      <path
         class="cls-2"
         d="m 43.87,137.16 v 33.48 a 89.79,89.79 0 0 0 10.92,6.46 V 147.89 A 66.38,66.38 0 0 1 43.87,137.16"
         id="path58"
         inkscape:connector-curvature="0"
         style="fill:#12100b" />
      <path
         class="cls-3"
         d="m 54.79,147.89 v 29.21 a 90,90 0 0 0 10.92,4.61 v -26.9 a 65.84,65.84 0 0 1 -10.92,-6.92"
         id="path60"
         inkscape:connector-curvature="0"
         style="fill:#09611f" />
      <path
         class="cls-4"
         d="m 136.25,147.89 a 65.43,65.43 0 0 1 -10.92,6.92 v 26.9 a 90,90 0 0 0 10.92,-4.61 z"
         id="path62"
         inkscape:connector-curvature="0"
         style="fill:#ef7d00" />
      <path
         class="cls-2"
         d="m 136.25,147.89 v 29.21 a 89.79,89.79 0 0 0 10.92,-6.46 v -33.48 a 66.77,66.77 0 0 1 -10.92,10.73"
         id="path64"
         inkscape:connector-curvature="0"
         style="fill:#12100b" />
      <path
         class="cls-3"
         d="m 147.17,137.16 v 33.48 a 91,91 0 0 0 10.92,-8.83 v -44.13 a 66.26,66.26 0 0 1 -10.92,19.48"
         id="path66"
         inkscape:connector-curvature="0"
         style="fill:#09611f" />
      <path
         class="cls-5"
         d="m 95.52,28.91 a 66.61,66.61 0 1 0 66.6,66.61 66.68,66.68 0 0 0 -66.6,-66.61 m 0,132.06 A 65.46,65.46 0 1 1 161,95.52 65.52,65.52 0 0 1 95.52,161"
         id="path68"
         inkscape:connector-curvature="0"
         style="fill:#ffffff" />
      <path
         class="cls-5"
         d="M 95.52,3.74 A 91.78,91.78 0 1 0 187.43,95.52 91.95,91.95 0 0 0 95.52,3.74 m 0,182.26 A 90.48,90.48 0 1 1 186.12,95.52 90.64,90.64 0 0 1 95.52,186"
         id="path70"
         inkscape:connector-curvature="0"
         style="fill:#ffffff" />
      <path
         class="cls-5"
         d="m 171.9,52.81 -0.9,-2.13 -1.44,1.8 c -5,6.23 -13.79,8 -15.4,8.28 -0.88,-0.21 -3.12,-0.56 -4.35,1.08 -0.61,0.8 -6.64,4.91 -15.69,5.9 -4.8,0.52 -9.31,3 -12.12,4.83 v 0 a 8,8 0 0 0 -1.85,-5.14 4.61,4.61 0 0 0 0.91,-2 4.32,4.32 0 0 0 -0.47,-3.2 L 119.74,61 a 3.75,3.75 0 0 0 -0.21,-2 c -1,-2.47 -4.76,-3.87 -8.64,-3.4 a 4.31,4.31 0 0 1 2.43,-1.5 l 3.89,-1.14 -3.8,-1.42 a 10.88,10.88 0 0 0 -8,-0.06 2.24,2.24 0 0 1 0.64,-1.08 l 3.52,-2.47 h -4.3 a 10.41,10.41 0 0 0 -5.92,1.9 9.2,9.2 0 0 0 -1.86,-1.83 7,7 0 0 1 -1,-0.82 l -1,-1.05 -1,1.05 a 7,7 0 0 1 -1,0.82 9.2,9.2 0 0 0 -1.91,1.8 10.41,10.41 0 0 0 -5.92,-1.9 h -4.3 l 3.52,2.47 a 2.24,2.24 0 0 1 0.64,1.08 10.88,10.88 0 0 0 -8,0.06 l -3.8,1.42 3.89,1.14 a 4.24,4.24 0 0 1 2.43,1.5 c -3.88,-0.47 -7.63,0.93 -8.64,3.4 a 3.75,3.75 0 0 0 -0.21,2 l -0.88,1.24 a 4.37,4.37 0 0 0 -0.47,3.2 4.51,4.51 0 0 0 0.92,2 7.93,7.93 0 0 0 -1.76,5.13 v 0 c -2.82,-1.85 -7.33,-4.31 -12.13,-4.83 -9,-1 -15.08,-5.1 -15.69,-5.9 -1.23,-1.64 -3.47,-1.29 -4.35,-1.08 -1.61,-0.28 -10.38,-2 -15.39,-8.28 L 20,50.68 19.13,52.81 c -0.19,0.48 -4.62,11.82 5.12,23.63 0.51,1.37 3.11,7.25 11.79,11.88 1.19,1.45 7.81,9.1 16.15,11.91 1.22,0.91 7.86,5.59 15.78,6.66 h 0.2 a 27.61,27.61 0 0 1 -1.82,4.39 l -0.53,0.88 0.7,0.75 a 2.64,2.64 0 0 0 1.72,0.82 17.49,17.49 0 0 1 -1.24,2.55 l -0.32,0.52 0.18,0.59 a 2.9,2.9 0 0 0 1.14,1.55 16.25,16.25 0 0 0 -2.87,5.43 l -0.49,2 a 8,8 0 0 0 -1.38,4.63 11.18,11.18 0 0 0 0.23,3 11.64,11.64 0 0 1 -1.11,-0.57 l -1.38,-0.76 -3.9,9.44 -0.41,1 h -0.58 v 1.44 l -0.17,0.39 h 0.17 l 2.78,2 h 32 a 3.11,3.11 0 0 0 2.68,1.51 h 3.86 a 3.11,3.11 0 0 0 2.68,-1.51 h 32 l 2.79,-2 h 0.16 l -0.16,-0.39 v -1.44 h -0.59 l -0.41,-1 v 0 l -3.9,-9.44 -1.36,0.82 a 10.58,10.58 0 0 1 -1.1,0.57 11.19,11.19 0 0 0 0.22,-3 8,8 0 0 0 -1.4,-4.68 l -0.5,-2 a 16.25,16.25 0 0 0 -2.87,-5.43 2.85,2.85 0 0 0 1.19,-1.55 l 0.19,-0.59 -0.33,-0.52 a 17.49,17.49 0 0 1 -1.27,-2.52 2.64,2.64 0 0 0 1.72,-0.82 l 0.71,-0.75 -0.54,-0.88 a 27.61,27.61 0 0 1 -1.82,-4.39 h 0.2 c 7.92,-1.07 14.56,-5.75 15.78,-6.66 8.34,-2.81 15,-10.46 16.15,-11.91 8.68,-4.63 11.28,-10.51 11.79,-11.88 9.74,-11.81 5.31,-23.15 5.12,-23.63 m -84.13,79.27 0.41,0.18 H 87.7 a 1.74,1.74 0 0 1 0,-0.22 m 15.54,0 c 0,0.08 0,0.16 0,0.23 h -0.47 a 4.08,4.08 0 0 0 0.42,-0.19"
         id="path72"
         inkscape:connector-curvature="0"
         style="fill:#ffffff" />
      <path
         class="cls-2"
         d="m 58,143.57 h 75.05 l -0.74,-1.79 c -0.92,0.07 -1.85,0.08 -2.75,0.12 q 1.26,-0.3 2.52,-0.66 l -0.33,-0.82 c -1.1,0.12 -2.21,0.12 -3.3,0.17 1,-0.24 2,-0.5 3,-0.81 l -0.3,-0.73 a 38,38 0 0 1 -3.83,0.23 c 1.17,-0.27 2.36,-0.58 3.53,-1 l -0.28,-0.66 a 28.88,28.88 0 0 1 -4.36,0.32 39.78,39.78 0 0 0 4,-1.14 l -0.91,-2.18 a 19.23,19.23 0 0 1 -3,1.38 5.64,5.64 0 0 1 -2.71,2.74 4.88,4.88 0 0 1 -1.57,0.38 4.36,4.36 0 0 1 -2.8,2.12 l -2.15,0.48 1,-1.95 a 5.92,5.92 0 0 0 0.54,-1.72 2.89,2.89 0 0 1 -0.52,-0.53 2.69,2.69 0 0 1 -0.33,-0.5 3.38,3.38 0 0 1 -1,0.48 4.56,4.56 0 0 1 -3.09,2.62 l -2.16,0.48 1,-1.95 a 6.66,6.66 0 0 0 0.52,-1.61 4.29,4.29 0 0 1 -1.78,-1.64 h -0.13 a 3.23,3.23 0 0 1 -1.78,0.88 4.31,4.31 0 0 1 -2.27,2 l -2.07,0.76 1,-2.04 a 6.53,6.53 0 0 0 0.28,-1.38 4.89,4.89 0 0 1 -1.62,-1.61 0.41,0.41 0 0 1 0,-0.09 c -4.14,-0.88 -6.58,-0.19 -8.72,1.83 l -0.32,0.31 c -0.1,-0.11 -0.21,-0.21 -0.32,-0.31 -2.14,-2 -4.58,-2.71 -8.72,-1.83 a 0.36,0.36 0 0 0 0,0.09 5,5 0 0 1 -1.63,1.61 6.92,6.92 0 0 0 0.28,1.39 l 0.74,2 -2,-0.75 a 4.31,4.31 0 0 1 -2.27,-2 3.27,3.27 0 0 1 -1.78,-0.88 h -0.13 a 4.29,4.29 0 0 1 -1.78,1.64 6.31,6.31 0 0 0 0.53,1.62 l 1,1.93 -2.13,-0.47 a 4.56,4.56 0 0 1 -3.1,-2.62 3.38,3.38 0 0 1 -1,-0.48 3.2,3.2 0 0 1 -0.32,0.5 3.25,3.25 0 0 1 -0.52,0.53 5.82,5.82 0 0 0 0.53,1.72 l 1,1.95 -2.15,-0.48 a 4.39,4.39 0 0 1 -2.8,-2.12 4.76,4.76 0 0 1 -1.56,-0.38 5.62,5.62 0 0 1 -2.85,-2.72 19.23,19.23 0 0 1 -3,-1.38 l -0.91,2.18 a 40.53,40.53 0 0 0 4,1.14 29,29 0 0 1 -4.36,-0.32 l -0.28,0.66 c 1.18,0.39 2.36,0.7 3.53,1 a 38,38 0 0 1 -3.83,-0.23 l -0.3,0.73 c 1,0.31 2,0.57 3,0.81 -1.09,-0.05 -2.2,-0.05 -3.3,-0.17 l -0.33,0.82 c 0.84,0.24 1.68,0.46 2.53,0.66 -0.91,0 -1.84,-0.05 -2.76,-0.12 z"
         id="path74"
         inkscape:connector-curvature="0"
         style="fill:#12100b" />
      <path
         class="cls-2"
         d="m 57.49,144.45 v 1.08 h 34.33 a 1.8,1.8 0 0 0 1.77,1.5 h 3.86 a 1.8,1.8 0 0 0 1.77,-1.5 h 34.33 v -1.08 z"
         id="path76"
         inkscape:connector-curvature="0"
         style="fill:#12100b" />
      <path
         class="cls-2"
         d="m 85.57,127.27 c -1.22,-2.5 -3.51,-4.77 -6.2,-4.36 a 3.4,3.4 0 0 0 -2,1 c -0.66,0.71 -0.86,0.6 -1.78,0.31 a 3.66,3.66 0 0 0 -2.4,0 3.56,3.56 0 0 0 -1.26,0.8 c -0.12,0.11 -0.39,0.58 -0.52,0.61 -0.13,0.03 -0.45,-0.16 -0.69,-0.28 -1.68,-0.8 -3.68,0.19 -4.83,1.52 a 6.49,6.49 0 0 0 -1.32,4.21 8.87,8.87 0 0 0 0.74,4.31 4.82,4.82 0 0 0 2.29,2.36 3.87,3.87 0 0 0 1.81,0.3 3.68,3.68 0 0 0 2.48,2.19 7,7 0 0 1 -0.72,-2.76 2.93,2.93 0 0 0 0.81,-0.67 c 0.48,-0.62 0.31,-1 0.12,-1.68 a 11.06,11.06 0 0 1 -0.31,-4.68 c 0.16,0.75 0.36,1.49 0.56,2.23 a 15.39,15.39 0 0 0 0.77,2.67 2.22,2.22 0 0 0 1.75,1.19 3.87,3.87 0 0 0 2.65,2.56 6.89,6.89 0 0 1 -0.73,-2.77 c 1,-0.39 2.25,-1.26 2.19,-2.23 -0.06,-0.97 -0.43,-1.63 -0.56,-2.46 a 7,7 0 0 1 0,-2.82 c 0.21,0.86 0.43,1.71 0.67,2.56 0.56,1.9 1,3.76 3.25,3.8 a 3.51,3.51 0 0 0 2,2.08 7,7 0 0 1 -0.36,-2.4 3.92,3.92 0 0 0 1.82,-1.57 4.91,4.91 0 0 0 0.59,-3.17 9.3,9.3 0 0 0 -0.89,-2.88"
         id="path78"
         inkscape:connector-curvature="0"
         style="fill:#12100b" />
      <path
         class="cls-2"
         d="m 69.47,123.77 a 4.29,4.29 0 0 1 1.6,0.3 4.9,4.9 0 0 1 1.7,-1.07 5.1,5.1 0 0 1 1.74,-0.31 5,5 0 0 1 1.53,0.24 l 0.34,0.11 0.06,-0.05 a 4.74,4.74 0 0 1 2.73,-1.4 5.66,5.66 0 0 1 0.82,-0.06 6,6 0 0 1 3.24,1 c -1,-2.41 -2.56,-5 -3.45,-5.45 0.78,0.6 2.69,-0.78 2.5,-1.75 -1.14,-0.3 -2.55,-3.28 -2,-4.34 a 18.7,18.7 0 0 1 2.22,-3.32 4.68,4.68 0 0 1 -0.2,-0.45 c -0.28,-0.67 -0.54,-1.36 -0.76,-2 -0.13,-0.42 -0.26,-0.85 -0.37,-1.27 -0.11,-0.42 -0.22,-0.86 -0.3,-1.25 a 3.93,3.93 0 0 1 -0.92,0.1 6,6 0 0 1 -2.76,-0.77 7.72,7.72 0 0 1 -1,-0.62 l -0.72,-0.56 0.27,-0.87 c 0.06,-0.2 0.1,-0.39 0.16,-0.59 V 99.3 c 0.07,-0.28 0.13,-0.56 0.18,-0.83 a 13.19,13.19 0 0 0 0.17,-3.84 c -3.6,0.71 -5.13,4.25 -5.37,7.52 A 39.82,39.82 0 0 1 67.52,112 c 0.78,0.83 2.26,0.28 2.86,-0.57 a 18.26,18.26 0 0 1 -2.25,5.57 1.75,1.75 0 0 0 2.48,0.91 c -2.57,3 -3.74,5.21 -4.14,6.8 a 5.79,5.79 0 0 1 3,-0.93"
         id="path80"
         inkscape:connector-curvature="0"
         style="fill:#12100b" />
      <path
         class="cls-2"
         d="m 126.42,131.11 a 6.38,6.38 0 0 0 -1.32,-4.21 c -1.14,-1.33 -3.14,-2.32 -4.82,-1.52 -0.24,0.11 -0.45,0.35 -0.69,0.28 -0.24,-0.07 -0.4,-0.5 -0.52,-0.61 a 3.56,3.56 0 0 0 -1.26,-0.8 3.66,3.66 0 0 0 -2.4,0 c -0.92,0.29 -1.12,0.4 -1.78,-0.31 a 3.4,3.4 0 0 0 -2,-1 c -2.69,-0.41 -5,1.86 -6.2,4.36 a 9.26,9.26 0 0 0 -0.9,2.88 5,5 0 0 0 0.6,3.17 4,4 0 0 0 1.83,1.57 7.17,7.17 0 0 1 -0.37,2.4 3.56,3.56 0 0 0 2,-2.08 c 2.2,0 2.68,-1.9 3.24,-3.8 0.24,-0.85 0.46,-1.7 0.67,-2.56 a 6.7,6.7 0 0 1 0,2.82 c -0.13,0.83 -0.51,1.62 -0.56,2.46 -0.05,0.84 1.19,1.84 2.18,2.23 a 6.85,6.85 0 0 1 -0.72,2.77 3.87,3.87 0 0 0 2.65,-2.56 2.24,2.24 0 0 0 1.75,-1.19 15.39,15.39 0 0 0 0.77,-2.67 c 0.2,-0.74 0.4,-1.48 0.56,-2.23 a 10.9,10.9 0 0 1 -0.31,4.68 c -0.18,0.69 -0.37,1.06 0.12,1.68 a 3.15,3.15 0 0 0 0.81,0.68 7,7 0 0 1 -0.71,2.75 3.7,3.7 0 0 0 2.47,-2.19 3.87,3.87 0 0 0 1.81,-0.3 4.82,4.82 0 0 0 2.29,-2.36 8.86,8.86 0 0 0 0.73,-4.31"
         id="path82"
         inkscape:connector-curvature="0"
         style="fill:#12100b" />
      <path
         class="cls-2"
         d="m 107.81,122.53 a 6,6 0 0 1 3.24,-1 5.66,5.66 0 0 1 0.82,0.06 4.71,4.71 0 0 1 2.73,1.4 l 0.06,0.05 0.35,-0.11 a 4.9,4.9 0 0 1 1.53,-0.24 5.09,5.09 0 0 1 1.73,0.31 4.9,4.9 0 0 1 1.7,1.07 4.33,4.33 0 0 1 1.6,-0.3 5.76,5.76 0 0 1 3,0.93 c -0.4,-1.59 -1.57,-3.8 -4.14,-6.8 a 1.75,1.75 0 0 0 2.48,-0.91 18.26,18.26 0 0 1 -2.25,-5.55 c 0.61,0.85 2.08,1.4 2.87,0.57 a 39.46,39.46 0 0 1 -3.38,-9.89 c -0.24,-3.27 -1.77,-6.81 -5.36,-7.52 a 13.15,13.15 0 0 0 0.16,3.84 c 0,0.27 0.11,0.55 0.18,0.83 v 0.09 c 0,0.2 0.1,0.39 0.16,0.59 l 0.26,0.87 -0.71,0.56 a 7.72,7.72 0 0 1 -1,0.62 6,6 0 0 1 -2.76,0.77 3.93,3.93 0 0 1 -0.92,-0.1 c -0.08,0.39 -0.18,0.81 -0.29,1.25 -0.11,0.44 -0.24,0.85 -0.38,1.27 -0.22,0.68 -0.48,1.36 -0.76,2 -0.06,0.16 -0.13,0.31 -0.19,0.45 a 19.87,19.87 0 0 1 2.26,3.36 c 0.51,1.06 -0.89,4 -2,4.34 -0.2,1 1.7,2.35 2.49,1.75 -0.89,0.48 -2.39,3 -3.45,5.45"
         id="path84"
         inkscape:connector-curvature="0"
         style="fill:#12100b" />
      <path
         class="cls-2"
         d="m 108.08,117.13 a 2.44,2.44 0 0 1 -0.61,-2.07 l 0.16,-0.81 0.75,-0.19 a 4.26,4.26 0 0 0 1.2,-2.53 A 18.08,18.08 0 0 0 108,109 c -0.23,0.46 -0.47,0.91 -0.72,1.33 a 12.73,12.73 0 0 1 -3.78,4.31 l -2.7,1.72 a 7.68,7.68 0 0 0 -1.49,1.3 17.85,17.85 0 0 0 -2.55,3.79 l -1.21,2.64 -1.21,-2.64 a 17.85,17.85 0 0 0 -2.55,-3.79 7.68,7.68 0 0 0 -1.49,-1.3 l -2.69,-1.72 a 12.64,12.64 0 0 1 -3.79,-4.31 C 83.57,109.91 83.34,109.46 83.1,109 a 18.08,18.08 0 0 0 -1.61,2.49 4.26,4.26 0 0 0 1.2,2.53 l 0.75,0.19 0.17,0.81 a 2.54,2.54 0 0 1 -0.61,2.07 4.66,4.66 0 0 1 -0.75,0.71 29.68,29.68 0 0 1 2.19,4.2 l 1.33,3 a 12,12 0 0 1 1,1.66 10.39,10.39 0 0 1 1,3.3 c 0,0.06 0,0.12 0,0.18 0.2,1.9 5.65,0.56 7.72,3.05 2.07,-2.49 7.52,-1.15 7.72,-3.05 0,-0.06 0,-0.12 0,-0.18 a 10.66,10.66 0 0 1 1,-3.3 12,12 0 0 1 1,-1.66 l 1.33,-3 a 29.68,29.68 0 0 1 2.22,-4.15 4.2,4.2 0 0 1 -0.74,-0.71"
         id="path86"
         inkscape:connector-curvature="0"
         style="fill:#12100b" />
      <path
         class="cls-2"
         d="m 91.32,68.17 a 9.7,9.7 0 0 0 -3.78,-1.53 c -2.1,0 -2.28,1.29 -2.21,2.07 a 2,2 0 0 1 1.77,0.23 c 0.71,1.84 0.92,-0.15 3.56,0.66 a 2.42,2.42 0 0 0 2.75,0.69 c -2.32,-0.42 -2.09,-2.12 -2.09,-2.12"
         id="path88"
         inkscape:connector-curvature="0"
         style="fill:#12100b" />
      <path
         class="cls-2"
         d="m 170.64,53.32 c -5.92,7.38 -16.52,8.83 -16.52,8.83 0,0 -2.27,-0.73 -3.2,0.5 -0.93,1.23 -7.31,5.42 -16.63,6.43 -5.41,0.59 -10.9,4 -13.88,6.32 0,-0.29 0.08,-0.58 0.11,-0.86 a 16.73,16.73 0 0 0 0.15,-2 6.31,6.31 0 0 0 -2.52,-5.16 3.35,3.35 0 0 0 1.37,-4.38 c -0.44,1.64 -3.93,2.05 -4.8,1.58 8.1,-4.64 1.37,-9.09 -5,-7.45 -1,-2 0.68,-3.65 3.25,-4.4 a 9.58,9.58 0 0 0 -9.42,1.29 c 0.19,-1 0.47,-3.88 1.81,-4.81 -1.61,0 -4.72,0.61 -6.19,2.75 -1,-2.31 -2.5,-2.73 -3.61,-3.9 -1.11,1.17 -2.63,1.59 -3.6,3.9 -1.47,-2.14 -4.59,-2.75 -6.2,-2.75 1.34,0.93 1.62,3.8 1.81,4.81 a 9.59,9.59 0 0 0 -9.43,-1.29 c 2.58,0.75 4.24,2.44 3.26,4.4 -6.41,-1.64 -13.14,2.81 -5,7.45 -0.87,0.47 -4.36,0.06 -4.8,-1.58 a 3.35,3.35 0 0 0 1.37,4.34 6.31,6.31 0 0 0 -2.52,5.16 16.73,16.73 0 0 0 0.15,2 c 0,0.28 0.07,0.57 0.11,0.86 -3,-2.36 -8.47,-5.73 -13.88,-6.32 -9.32,-1 -15.7,-5.19 -16.63,-6.43 -0.93,-1.24 -3.2,-0.5 -3.2,-0.5 0,0 -10.68,-1.41 -16.6,-8.79 0,0 -4.48,11.05 5.06,22.44 0,0 2,6.52 11.46,11.48 0,0 7.06,8.9 15.92,11.78 0,0 7,5.4 15.32,6.53 1.76,-1.85 2,-5.53 2,-5.53 a 6,6 0 0 1 -2.89,-0.19 2.29,2.29 0 0 1 -0.78,-0.39 2.62,2.62 0 0 1 2.12,-0.85 c 0.08,0 0.16,0 0.2,-0.08 0.04,-0.08 0,-0.12 0,-0.18 0.05,-0.24 0.38,-0.28 0.63,-0.23 a 4.47,4.47 0 0 1 0.94,0.3 10,10 0 0 1 0.41,-1.31 0.54,0.54 0 0 1 0,-0.11 l -1,-0.48 c -2.19,-1.62 -5.32,-4.36 -5.48,-7.3 0.75,-0.13 1.88,0.65 2.46,1.1 a 15,15 0 0 1 2.82,3.6 10.83,10.83 0 0 0 1.81,1.94 c 0,0 2.4,-3.69 5.74,-3.64 a 17.43,17.43 0 0 1 0.13,6.49 c 0,0.29 -0.12,0.59 -0.2,0.9 -0.08,0.31 -0.12,0.49 -0.2,0.74 a 6.38,6.38 0 0 0 0.79,0.5 3.47,3.47 0 0 0 3.58,0.18 2.78,2.78 0 0 0 0.6,-0.55 6.24,6.24 0 0 0 0.06,1.25 17.49,17.49 0 0 0 0.39,1.87 c 0.11,0.38 0.22,0.79 0.36,1.2 0.2,0.63 0.45,1.28 0.72,1.94 l 0.5,1.13 0.12,0.24 c 0.27,0.55 0.55,1.08 0.86,1.6 a 11.37,11.37 0 0 0 3.35,3.87 13.2,13.2 0 0 1 -0.2,-2.26 6,6 0 0 1 0,-0.73 4.7,4.7 0 0 1 0.62,-2.25 15.55,15.55 0 0 0 1.75,5.12 c 1.63,2.91 3.84,4.56 5.18,7.49 1.34,-2.93 3.55,-4.58 5.18,-7.49 a 15.32,15.32 0 0 0 1.75,-5.12 4.59,4.59 0 0 1 0.62,2.25 c 0,0.22 0,0.47 0,0.73 a 14.46,14.46 0 0 1 -0.32,2.26 11.59,11.59 0 0 0 3.35,-3.87 c 0.31,-0.52 0.6,-1 0.86,-1.6 l 0.12,-0.24 0.5,-1.13 c 0.28,-0.66 0.51,-1.31 0.72,-1.94 0.14,-0.41 0.26,-0.82 0.36,-1.2 a 15.33,15.33 0 0 0 0.39,-1.87 6.24,6.24 0 0 0 0.06,-1.25 2.78,2.78 0 0 0 0.6,0.55 3.47,3.47 0 0 0 3.58,-0.18 5.75,5.75 0 0 0 0.78,-0.5 c -0.07,-0.25 -0.13,-0.49 -0.19,-0.74 -0.06,-0.25 -0.15,-0.61 -0.2,-0.9 a 17.43,17.43 0 0 1 0.13,-6.49 c 3.34,0 5.75,3.64 5.75,3.64 a 11.56,11.56 0 0 0 1.8,-1.94 15,15 0 0 1 2.82,-3.6 c 0.58,-0.45 1.72,-1.23 2.46,-1.1 -0.16,2.94 -3.29,5.68 -5.48,7.3 l -1,0.48 0.05,0.11 a 8.71,8.71 0 0 1 0.41,1.31 4.38,4.38 0 0 1 1,-0.3 c 0.24,0 0.57,0 0.62,0.23 0,0.06 0,0.13 0,0.18 a 0.3,0.3 0 0 0 0.21,0.08 2.61,2.61 0 0 1 2.12,0.85 2.25,2.25 0 0 1 -0.79,0.39 5.91,5.91 0 0 1 -2.88,0.19 c 0,0 0.26,3.68 2,5.53 8.33,-1.13 15.33,-6.53 15.33,-6.53 8.85,-2.88 15.91,-11.78 15.91,-11.78 9.49,-5 11.46,-11.48 11.46,-11.48 9.54,-11.39 5.06,-22.44 5.06,-22.44 M 39.35,65.68 c 0.11,-0.3 2.88,1.81 3.17,2 2.95,2.08 7.08,2.79 10.54,3.59 0.22,1.21 0.79,1.62 1.18,2.63 0,0 -3.83,-0.15 -4.19,-0.2 A 19.93,19.93 0 0 1 45.5,72.4 c -2.74,-1.18 -5.39,-3.18 -6.08,-6.23 0,-0.12 -0.06,-0.25 -0.08,-0.38 -0.02,-0.13 0,-0.08 0,-0.11 m 14.89,24.08 c -0.87,-0.52 -2.82,-1.49 -2.95,-2.52 3.27,0.51 6.32,0.1 9.57,0.73 0.57,0.4 1.14,0.8 1.77,1.22 a 18.64,18.64 0 0 1 -8.39,0.57 M 64,92 a 17.71,17.71 0 0 1 -6.67,0.72 C 56.51,92.27 55.75,91.83 55,91.39 56.93,91.11 62.4,89.87 64,92 M 47.49,82.75 c 4.55,0.58 11.32,0 14.81,3.38 A 101.71,101.71 0 0 1 52,86 10.69,10.69 0 0 1 47.52,82.73 m 14.19,-0.25 h -0.86 -1.63 c -1.07,0 -2.14,-0.06 -3.2,-0.11 C 54.7,82.31 53.39,82.24 52.08,82.12 51.5,82.06 50.93,81.95 50.34,81.91 A 6.64,6.64 0 0 1 48.57,81.6 v 0 A 6.44,6.44 0 0 1 46.61,80 c -0.71,-0.68 -1.4,-1.4 -2.06,-2.14 a 49.82,49.82 0 0 1 5.27,1.25 21.84,21.84 0 0 0 2.7,0.25 31.53,31.53 0 0 1 5.29,0.77 11,11 0 0 1 4.6,2.37 c -0.09,-0.08 -0.6,0 -0.73,0 m -13,-5.12 A 16.43,16.43 0 0 1 47,76.94 10.14,10.14 0 0 1 41.79,72.69 0.26,0.26 0 0 1 41.73,72.46 c 0.05,-0.11 0.2,-0.08 0.31,0 1.42,0.49 2.81,1 4.26,1.39 5.28,1.13 10.87,1.9 15.24,5.35 -4.29,-0.49 -8.63,-0.91 -12.87,-1.77 M 21.31,59.53 A 9.17,9.17 0 0 1 21,58.07 a 7,7 0 0 0 0,-1.45 3.86,3.86 0 0 0 0.9,1.19 c 0.37,0.4 0.67,0.87 1,1.28 a 11.1,11.1 0 0 0 2.31,1.91 14.88,14.88 0 0 0 2.58,1.31 q 1.86,0.78 3.78,1.38 a 25.14,25.14 0 0 0 3.61,0.92 6,6 0 0 1 2.17,0.67 c 0.87,0.53 1,1.33 1.31,2.23 0.31,0.9 0.68,2 1,3.11 -1.17,-0.24 -2.33,-0.5 -3.5,-0.65 -1.17,-0.15 -2.48,-0.31 -3.71,-0.53 a 11.19,11.19 0 0 1 -1.12,-0.24 18.48,18.48 0 0 1 -5,-2.34 11.06,11.06 0 0 1 -3.9,-4.46 14.16,14.16 0 0 1 -1,-2.88 m 2,8.65 c 0.69,0.34 1.45,0.44 2.15,0.76 0.94,0.43 1.9,0.82 2.88,1.18 a 37.51,37.51 0 0 0 6,1.61 38,38 0 0 0 4.75,0.56 3.13,3.13 0 0 1 1.3,0.24 c 0.51,0.25 0.55,0.62 0.67,1.09 a 10.61,10.61 0 0 0 0.44,1 c 0.07,0.17 0.54,1.63 0.74,1.64 -1.09,0 -2.17,-0.06 -3.25,-0.13 A 31.74,31.74 0 0 1 30.84,75 l -0.3,-0.11 c -3,-1.13 -6.11,-3.61 -7.28,-6.7 m 6.37,9.5 A 15.79,15.79 0 0 1 27.74,76 c 1.06,0.26 2.14,0.45 3.21,0.7 1.07,0.25 2.36,0.52 3.57,0.69 1.45,0.21 2.91,0.31 4.38,0.41 l 2.46,0.15 a 3.51,3.51 0 0 1 2,0.38 4.14,4.14 0 0 1 0.89,1 c 0.28,0.42 1.21,1.17 0.7,1.72 A 1,1 0 0 1 44.2,81.24 L 41.43,81.16 A 32.41,32.41 0 0 1 35.52,80.61 14.16,14.16 0 0 1 34.1,80.23 11.11,11.11 0 0 1 31.37,78.91 c -0.59,-0.39 -1.16,-0.83 -1.72,-1.26 m 5.76,6.19 a 8.92,8.92 0 0 1 -2.62,-2 36.25,36.25 0 0 0 11.08,1 5.49,5.49 0 0 1 2.46,0.18 2.68,2.68 0 0 1 1.08,0.8 c 0.3,0.37 0.39,0.84 0.69,1.2 a 7.65,7.65 0 0 0 0.71,1 18.24,18.24 0 0 1 -8.47,0 12.4,12.4 0 0 1 -1.74,-0.61 c -1.11,-0.47 -2.11,-1.14 -3.19,-1.65 m 3.81,4.36 c -0.17,-0.15 -0.35,-0.4 -0.21,-0.57 0.14,-0.17 0.27,-0.11 0.42,-0.09 l 2.36,0.29 a 25.94,25.94 0 0 0 4.58,0.07 16.9,16.9 0 0 0 2,-0.26 2.7,2.7 0 0 1 1.94,0.17 3.4,3.4 0 0 1 0.9,1 l 0.9,1.25 c 0.3,0.42 0.33,0.74 -0.26,0.81 a 26.64,26.64 0 0 1 -3.19,0.37 16.56,16.56 0 0 1 -5.29,-0.75 12.41,12.41 0 0 1 -4.17,-2.24 m 9.95,5.62 a 9.31,9.31 0 0 1 -1.32,-0.71 c -0.21,-0.13 -0.42,-0.27 -0.62,-0.42 -0.2,-0.15 -0.47,-0.28 -0.15,-0.39 a 6,6 0 0 1 1.41,-0.16 l 2.76,-0.33 a 6.37,6.37 0 0 1 2.68,0.08 4.25,4.25 0 0 1 1.68,1.14 c 0.33,0.34 1.59,0.94 0.83,1.5 A 1.28,1.28 0 0 1 55.75,94.7 14.08,14.08 0 0 1 51,94.48 10.61,10.61 0 0 1 49.15,93.85 M 53.67,97 C 53.31,96.9 52.95,96.77 52.6,96.64 52.25,96.51 51.85,96.42 51.74,96.17 a 0.06,0.06 0 0 1 0,-0.07 c 0,-0.12 0.53,-0.15 0.63,-0.17 L 54,95.56 a 9.56,9.56 0 0 1 3,-0.56 3.71,3.71 0 0 1 1.75,0.81 18.37,18.37 0 0 1 1.49,1.29 5.26,5.26 0 0 0 -1,0.22 c -0.37,0.06 -0.74,0.11 -1.12,0.14 a 13,13 0 0 1 -2.25,0 12.81,12.81 0 0 1 -2.2,-0.46 m 4.21,3.15 a 3.58,3.58 0 0 1 -1.65,-0.92 9.41,9.41 0 0 1 2.59,-0.8 c 0.51,-0.14 2.22,-0.79 2.7,-0.48 0.92,0.59 1.9,1.19 2.88,1.85 0,0.17 -0.07,0.34 -0.11,0.57 -0.04,0.23 -2.28,0.09 -2.5,0.09 a 13.77,13.77 0 0 1 -3.91,-0.31 m 10.74,2.23 a 4.66,4.66 0 0 1 -0.94,0.56 5.66,5.66 0 0 1 -1.6,0.2 11.77,11.77 0 0 1 -4.15,-0.53 5.45,5.45 0 0 1 -0.55,-0.25 0.7,0.7 0 0 1 -0.24,-0.21 c -0.28,-0.44 1.53,-0.75 1.82,-0.84 0.29,-0.09 2.09,-0.85 2.44,-0.67 1.06,0.56 2.11,1.12 3.22,1.74 m -0.2,-5 c -1.92,0.87 -3.49,0.63 -5.57,0.35 A 7.16,7.16 0 0 0 62.1,97.29 0.82,0.82 0 0 1 62.04,96.92 c 2.08,-0.42 4.64,-1.28 6.38,0.46 m -3,-2.7 c -0.84,1 -4.2,0.66 -5.47,0.53 -1.66,-1.14 -1.66,-1.14 -1.8,-1.4 2.92,-0.38 4.63,-0.52 7.27,0.87 m 1.55,-6.23 c -0.15,0.43 -0.19,0.35 -0.65,0.12 a 4.79,4.79 0 0 1 -1,-0.67 4.92,4.92 0 0 1 -1.4,-2 A 9.8,9.8 0 0 1 63.48,82.24 10.27,10.27 0 0 0 63,78.59 c -0.79,-2.12 -2.85,-2.39 -4.69,-3.2 -1.57,-0.69 -3.49,-1.74 -3.63,-3.66 1.29,0.35 2.59,0.69 3.85,1.13 a 13.1,13.1 0 0 1 6.53,4.21 7,7 0 0 1 1,1.83 11.63,11.63 0 0 1 0.59,3.43 c 0,1 0.11,2 0.16,2.92 0,0.52 0.06,1.06 0.08,1.59 a 5.09,5.09 0 0 1 0.05,1.6 m 36.22,-1.12 c -0.55,0.42 -1.31,0.67 -1.58,1.29 a 1.8,1.8 0 0 0 -0.13,0.69 2.88,2.88 0 0 1 -0.42,3 7.92,7.92 0 0 1 -2.64,1.7 1.92,1.92 0 0 0 -0.66,-1.55 c 0,0 -0.89,2.47 -2.21,3.28 -1.32,-0.81 -2.21,-3.28 -2.21,-3.28 A 1.92,1.92 0 0 0 92.65,94 7.92,7.92 0 0 1 90,92.33 a 2.88,2.88 0 0 1 -0.42,-3 1.8,1.8 0 0 0 -0.13,-0.69 c -0.27,-0.62 -1,-0.87 -1.58,-1.29 a 2.54,2.54 0 0 1 -1,-2 4.92,4.92 0 0 1 0.92,-2.94 c 0,1.08 0.18,3.26 1.09,3.87 a 6.38,6.38 0 0 0 1.56,0.6 3.17,3.17 0 0 1 1.56,1.2 v 0 c 0.55,0.66 1,-3 1.23,-2.14 v 3.44 l 0.89,-1 a 1.63,1.63 0 0 1 2.74,0 l 0.89,1 V 86 c 0.26,-0.81 0.68,2.8 1.24,2.14 v 0 a 3.14,3.14 0 0 1 1.56,-1.19 6.47,6.47 0 0 0 1.55,-0.6 c 0.91,-0.61 1,-2.79 1.1,-3.87 a 5,5 0 0 1 0.91,2.94 2.57,2.57 0 0 1 -1,2 m 7.13,-14.72 c 0,0 0.18,-0.47 -2.17,-0.87 1.14,1.62 -2.53,3 -2.53,3 -0.26,0 0,-1.16 -3.84,-1.81 a 8.35,8.35 0 0 1 3.3,4.62 6.55,6.55 0 0 1 -1.94,1 11,11 0 0 1 -3.11,0.8 l -1.14,2 -0.35,-1.92 a 2.5,2.5 0 0 1 -2.35,-1.88 c 0,0 -0.73,-2 2.25,-3.26 a 1.23,1.23 0 0 0 1.19,-0.29 c 0.57,-0.49 0,-1.18 -0.84,-1.36 a 16.57,16.57 0 0 0 -6.38,0 c -0.88,0.18 -1.41,0.87 -0.84,1.36 a 1.23,1.23 0 0 0 1.19,0.29 c 3,1.25 2.26,3.26 2.26,3.26 a 2.52,2.52 0 0 1 -2.36,1.88 l -0.35,1.92 -1.14,-2 a 11,11 0 0 1 -3.11,-0.8 6.55,6.55 0 0 1 -1.94,-1 8.44,8.44 0 0 1 3.26,-4.77 c -3.85,0.65 -3.58,1.81 -3.84,1.81 0,0 -3.66,-1.33 -2.53,-3 -2.34,0.4 -2.17,0.87 -2.17,0.87 A 2.75,2.75 0 0 1 80.64,69.84 2,2 0 0 0 81.83,66.7 C 83,65 85.49,60.06 93.08,65.42 c 0,0 -0.23,-3.4 -6.63,-4 0,0 5.56,-2.42 9.07,1.68 3.51,-4.1 9.07,-1.68 9.07,-1.68 -6.4,0.56 -6.63,4 -6.63,4 7.59,-5.36 10.05,-0.44 11.25,1.33 a 2,2 0 0 0 1.19,3.14 2.75,2.75 0 0 1 -0.12,2.71 M 138,71.28 c 3.46,-0.8 7.59,-1.51 10.54,-3.59 0.29,-0.2 3.06,-2.31 3.18,-2 a 0.2,0.2 0 0 1 0,0.11 c 0,0.13 0,0.26 -0.08,0.38 -0.69,3 -3.34,5 -6.07,6.23 a 20.15,20.15 0 0 1 -4.57,1.3 c -0.36,0.05 -4.18,0.19 -4.19,0.2 0.39,-1 1,-1.42 1.18,-2.63 m -9.56,17.91 c 0.63,-0.42 1.21,-0.82 1.77,-1.22 3.25,-0.63 6.3,-0.22 9.57,-0.73 -0.13,1 -2.08,2 -2.95,2.52 a 18.65,18.65 0 0 1 -8.39,-0.57 m 7.6,2.19 c -0.75,0.44 -1.51,0.88 -2.33,1.33 A 17.71,17.71 0 0 1 127,92 c 1.6,-2.13 7.08,-0.89 9,-0.61 m 3,-5.36 a 101.71,101.71 0 0 1 -10.33,0.11 c 3.49,-3.38 10.26,-2.8 14.81,-3.38 A 10.62,10.62 0 0 1 139.07,86 m 3.46,-4.49 v 0 a 6.71,6.71 0 0 1 -1.77,0.31 c -0.59,0 -1.16,0.15 -1.74,0.21 -1.31,0.12 -2.62,0.19 -3.93,0.25 -1.07,0 -2.14,0.08 -3.21,0.11 h -1.63 -0.86 c -0.13,0 -0.64,-0.06 -0.73,0 a 11,11 0 0 1 4.61,-2.37 31.24,31.24 0 0 1 5.29,-0.77 22.21,22.21 0 0 0 2.7,-0.25 49.46,49.46 0 0 1 5.25,-1.25 c -0.65,0.74 -1.34,1.46 -2,2.14 a 6.44,6.44 0 0 1 -1.9,1.51 M 144,76.94 a 17,17 0 0 1 -1.66,0.44 c -4.24,0.86 -8.59,1.28 -12.88,1.77 4.37,-3.45 9.95,-4.22 15.24,-5.35 1.44,-0.36 2.85,-0.9 4.26,-1.39 0.1,0 0.26,-0.06 0.31,0 0.05,0.06 0,0.16 -0.06,0.23 a 10.14,10.14 0 0 1 -5.21,4.3 m -18.27,11 a 4.55,4.55 0 0 1 -1,0.67 c -0.46,0.23 -0.5,0.31 -0.65,-0.12 a 5.09,5.09 0 0 1 0,-1.6 c 0,-0.53 0,-1.07 0.07,-1.59 0.06,-1 0.11,-2 0.17,-2.92 a 11.63,11.63 0 0 1 0.68,-3.48 7.35,7.35 0 0 1 1,-1.83 13.1,13.1 0 0 1 6.53,-4.21 c 1.27,-0.44 2.56,-0.78 3.85,-1.13 -0.14,1.92 -2.06,3 -3.62,3.66 -1.84,0.81 -3.91,1.08 -4.7,3.2 a 10.27,10.27 0 0 0 -0.41,3.67 9.8,9.8 0 0 1 -0.44,3.66 4.92,4.92 0 0 1 -1.4,2 m 7.16,5.91 c -0.14,0.26 -0.14,0.26 -1.8,1.4 -1.27,0.13 -4.63,0.49 -5.47,-0.53 2.64,-1.39 4.35,-1.25 7.27,-0.87 m -10.3,3.57 c 1.73,-1.74 4.29,-0.88 6.38,-0.46 a 1,1 0 0 1 -0.07,0.37 8.35,8.35 0 0 0 -0.75,0.44 c -2.08,0.28 -3.65,0.52 -5.56,-0.35 m 7.28,4.76 a 0.85,0.85 0 0 1 -0.25,0.21 4.6,4.6 0 0 1 -0.55,0.25 11.8,11.8 0 0 1 -4.15,0.53 5.66,5.66 0 0 1 -1.6,-0.2 4.66,4.66 0 0 1 -0.94,-0.56 c 1.11,-0.62 2.17,-1.18 3.22,-1.74 0.35,-0.18 2,0.56 2.44,0.67 0.44,0.11 2.1,0.4 1.83,0.84 m 3.25,-2 a 13.77,13.77 0 0 1 -3.91,0.31 c -0.22,0 -2.45,0.14 -2.5,-0.09 -0.05,-0.23 -0.07,-0.4 -0.11,-0.57 1,-0.66 2,-1.26 2.88,-1.85 0.48,-0.31 2.19,0.34 2.7,0.48 a 9.41,9.41 0 0 1 2.59,0.8 3.48,3.48 0 0 1 -1.65,0.92 m 6.15,-4 c -0.12,0.25 -0.64,0.37 -0.87,0.47 -0.23,0.1 -0.71,0.26 -1.07,0.36 a 12.7,12.7 0 0 1 -2.21,0.43 13.12,13.12 0 0 1 -2.26,0 c -0.38,0 -0.75,-0.08 -1.12,-0.14 a 5.26,5.26 0 0 0 -1,-0.22 18.37,18.37 0 0 1 1.49,-1.29 3.75,3.75 0 0 1 1.69,-0.77 9.68,9.68 0 0 1 3,0.58 l 1.63,0.35 c 0.1,0 0.59,0 0.63,0.17 a 0.09,0.09 0 0 1 0,0.07 m 4.52,-3.43 c -0.2,0.15 -0.4,0.29 -0.61,0.42 a 10,10 0 0 1 -1.33,0.71 10.61,10.61 0 0 1 -1.85,0.63 14.08,14.08 0 0 1 -4.75,0.26 1.31,1.31 0 0 1 -0.67,-0.2 c -0.76,-0.56 0.5,-1.16 0.83,-1.5 a 4.28,4.28 0 0 1 1.69,-1.12 6.31,6.31 0 0 1 2.67,-0.08 l 2.76,0.33 a 6,6 0 0 1 1.41,0.16 c 0.32,0.11 0,0.27 -0.15,0.39 m 8,-4.49 a 12.31,12.31 0 0 1 -4.17,2.24 16.56,16.56 0 0 1 -5.29,0.75 26.64,26.64 0 0 1 -3.19,-0.37 c -0.59,-0.07 -0.56,-0.39 -0.26,-0.81 l 0.9,-1.25 a 3.4,3.4 0 0 1 0.9,-1 2.7,2.7 0 0 1 1.94,-0.17 17.06,17.06 0 0 0 2,0.26 25.84,25.84 0 0 0 4.57,-0.07 l 2.37,-0.29 c 0.14,0 0.32,0 0.41,0.09 0.09,0.09 0,0.42 -0.21,0.57 m 3.8,-4.36 c -1.07,0.51 -2.07,1.18 -3.17,1.65 a 13,13 0 0 1 -1.75,0.61 18.24,18.24 0 0 1 -8.47,0 7.65,7.65 0 0 0 0.71,-1 c 0.3,-0.36 0.4,-0.83 0.69,-1.2 a 2.68,2.68 0 0 1 1.08,-0.8 5.5,5.5 0 0 1 2.46,-0.18 36.25,36.25 0 0 0 11.08,-1 8.84,8.84 0 0 1 -2.63,2 m 5.77,-6.19 c -0.56,0.43 -1.13,0.87 -1.72,1.26 a 11.11,11.11 0 0 1 -2.6,1.27 14.16,14.16 0 0 1 -1.42,0.38 32.49,32.49 0 0 1 -5.91,0.55 l -2.77,0.08 a 1,1 0 0 1 -0.75,-0.19 c -0.51,-0.55 0.42,-1.3 0.71,-1.72 a 4.1,4.1 0 0 1 0.88,-1 3.55,3.55 0 0 1 2,-0.38 l 2.46,-0.15 c 1.47,-0.1 2.93,-0.2 4.39,-0.41 1.2,-0.17 2.38,-0.41 3.56,-0.69 1.18,-0.28 2.15,-0.44 3.21,-0.7 a 15.79,15.79 0 0 1 -1.89,1.67 m -0.91,-2.8 -0.3,0.11 a 31.74,31.74 0 0 1 -8.11,1.19 c -1.08,0.07 -2.16,0.12 -3.25,0.13 0.2,0 0.67,-1.47 0.74,-1.64 a 10.61,10.61 0 0 0 0.44,-1 c 0.12,-0.47 0.16,-0.84 0.66,-1.09 a 3.21,3.21 0 0 1 1.31,-0.24 38,38 0 0 0 4.75,-0.56 37.51,37.51 0 0 0 6,-1.61 c 1,-0.36 1.94,-0.75 2.89,-1.18 0.69,-0.32 1.45,-0.42 2.15,-0.76 -1.18,3.09 -4.25,5.57 -7.29,6.7 m 9.23,-15.35 a 14.16,14.16 0 0 1 -1,2.88 11.12,11.12 0 0 1 -3.89,4.46 18.68,18.68 0 0 1 -5,2.34 11.19,11.19 0 0 1 -1.12,0.24 c -1.23,0.22 -2.47,0.36 -3.71,0.53 -1.24,0.17 -2.33,0.41 -3.5,0.65 0.28,-1.06 0.63,-2.08 1,-3.11 0.37,-1.03 0.43,-1.7 1.31,-2.23 a 6,6 0 0 1 2.16,-0.67 25.14,25.14 0 0 0 3.61,-0.92 q 1.92,-0.6 3.78,-1.38 a 14.88,14.88 0 0 0 2.41,-1.39 11.38,11.38 0 0 0 2.24,-1.92 c 0.37,-0.41 0.67,-0.88 1,-1.28 a 3.86,3.86 0 0 0 0.9,-1.19 7,7 0 0 0 0,1.45 9.17,9.17 0 0 1 -0.28,1.46"
         id="path90"
         inkscape:connector-curvature="0"
         style="fill:#12100b" />
      <path
         class="cls-2"
         d="m 103.51,66.64 a 9.54,9.54 0 0 0 -3.79,1.53 c 0,0 0.23,1.7 -2.09,2.12 a 2.42,2.42 0 0 0 2.75,-0.69 c 2.64,-0.81 2.85,1.18 3.57,-0.66 a 2,2 0 0 1 1.76,-0.23 c 0.07,-0.78 -0.11,-2.09 -2.2,-2.07"
         id="path92"
         inkscape:connector-curvature="0"
         style="fill:#12100b" />
      <path
         class="cls-5"
         d="m 103.67,167.09 a 3.31,3.31 0 0 1 0.55,-0.05 c 1.79,0 2.93,1.24 3.43,3.74 0.12,0.54 0.23,0.81 0.34,0.81 0.11,0 0.2,-0.13 0.2,-0.38 v -1.43 c 0,-0.5 0,-0.78 0,-0.86 a 10.57,10.57 0 0 1 0.13,-1.74 1.76,1.76 0 0 0 0,-0.19 c 0,-0.09 0,-0.14 -0.08,-0.14 -0.08,0 -0.15,0.1 -0.34,0.29 a 1.13,1.13 0 0 1 -0.81,0.4 2.16,2.16 0 0 1 -0.91,-0.36 4.77,4.77 0 0 0 -2.45,-0.62 h -0.06 z"
         id="path94"
         inkscape:connector-curvature="0"
         style="fill:#ffffff" />
      <path
         class="cls-5"
         d="m 91.51,171.22 c 0,-0.19 0,-0.29 0,-0.3 0,-0.19 -0.06,-0.29 -0.17,-0.29 -0.11,0 -0.18,0.09 -0.2,0.27 a 4.1,4.1 0 0 1 -0.75,2.31 4.5,4.5 0 0 1 -2.45,0.41 h -0.61 v -6.35 0 -0.52 c -0.71,0 -1.5,0 -2.36,0 H 83 c -0.27,0 -0.41,0.08 -0.41,0.21 0,0.13 0.2,0.16 0.6,0.19 a 2.48,2.48 0 0 1 0.8,0.15 0.5,0.5 0 0 1 0.24,0.39 v 12 a 1.62,1.62 0 0 1 -0.08,0.59 q -0.11,0.41 -1.08,0.45 c -0.45,0 -0.67,0.08 -0.67,0.2 0,0.12 0.08,0.18 0.25,0.18 h 0.29 c 0.58,0 1.25,0 2,0 1.08,0 2.06,0 2.91,0 h 1.11 c 0.26,0 0.39,-0.06 0.39,-0.19 0,-0.13 -0.12,-0.16 -0.38,-0.16 -0.82,0 -1.31,-0.08 -1.45,-0.23 a 3.19,3.19 0 0 1 -0.21,-1.56 v -5 c 0.51,0 1.11,0 1.82,0 a 1.91,1.91 0 0 1 1.11,0.23 2.54,2.54 0 0 1 0.75,2 c 0,0.44 0.13,0.66 0.31,0.66 0.18,0 0.19,-0.11 0.19,-0.33 0,-0.22 0,-0.49 0,-0.8 0,-0.31 0,-0.95 0,-1.92 v -1.35 c 0,-0.59 0,-1 0,-1.26"
         id="path96"
         inkscape:connector-curvature="0"
         style="fill:#ffffff" />
      <path
         class="cls-5"
         d="m 93.57,166.74 a 9,9 0 0 1 -1,0.06 l -1.43,-0.06 c -0.78,0 -1.72,0 -2.8,0 v 0.48 h 0.93 a 6.38,6.38 0 0 1 2.52,0.34 3.07,3.07 0 0 1 1.61,2.22 4.34,4.34 0 0 0 0.2,0.7 0.18,0.18 0 0 0 0.17,0.11 c 0.1,0 0.15,-0.06 0.15,-0.17 a 1.94,1.94 0 0 0 0,-0.24 q -0.16,-0.94 -0.33,-3.42"
         id="path98"
         inkscape:connector-curvature="0"
         style="fill:#ffffff" />
      <path
         class="cls-5"
         d="m 91.53,170.92 v 0"
         id="path100"
         inkscape:connector-curvature="0"
         style="fill:#ffffff" />
      <path
         class="cls-5"
         d="m 108.42,176.37 c -0.12,0 -0.23,0.21 -0.33,0.64 -0.61,2.6 -1.89,3.91 -3.84,3.91 a 3.68,3.68 0 0 1 -0.58,0 v 0.6 h 0.12 a 5,5 0 0 0 3.34,-1.33 2.29,2.29 0 0 1 1,1 c 0.08,0.13 0.16,0.2 0.23,0.2 0.07,0 0.1,-0.07 0.1,-0.22 a 1.89,1.89 0 0 0 0,-0.36 c 0,-0.28 0,-0.62 0,-1 0,-0.38 0,-0.8 0.09,-1.41 0.06,-0.8 0.1,-1.24 0.1,-1.31 v -0.35 c 0,-0.18 0,-0.27 -0.19,-0.27"
         id="path102"
         inkscape:connector-curvature="0"
         style="fill:#ffffff" />
      <path
         class="cls-5"
         d="m 102.7,180.5 a 2.92,2.92 0 0 1 -0.64,-0.54 q -1.57,-1.8 -1.58,-5.69 a 13.53,13.53 0 0 1 0.67,-4.49 4.37,4.37 0 0 1 1.55,-2.28 v -0.87 a 6.42,6.42 0 0 0 -3.93,2.06 7.5,7.5 0 0 0 -2,5.31 7.29,7.29 0 0 0 2.2,5.44 6.75,6.75 0 0 0 3.71,1.94 z"
         id="path104"
         inkscape:connector-curvature="0"
         style="fill:#ffffff" />
      <path
         class="cls-6"
         d="m 101.4,146.88 -5.57,7.85 -0.31,0.44 v 0 a 60.08,60.08 0 0 0 9.35,-0.75 84.7,84.7 0 0 0 7.59,-7.54 z"
         id="path106"
         inkscape:connector-curvature="0"
         style="fill:#ad1917" />
      <path
         class="cls-3"
         d="m 86.17,154.43 v 0 a 59.83,59.83 0 0 0 9.33,0.74 v 0 l -0.3,-0.42 -5.59,-7.87 h -11 a 84.53,84.53 0 0 0 7.59,7.54"
         id="path108"
         inkscape:connector-curvature="0"
         style="fill:#09611f" />
    </g>
  </g>
</svg>
