<svg width="512" height="512" viewBox="0 0 512 512" fill="none" xmlns="http://www.w3.org/2000/svg">
<g clip-path="url(#clip0_1_2197)">
<path d="M261.51 2.00098C329.267 2.00098 394.473 16.0014 456.07 43.5021C468.816 95.4996 476.882 149.503 477.097 185.001C477.097 186.001 477.097 186.501 477.097 187C477.097 222 471.996 256.5 462.013 289.003C452.243 320.999 437.803 350.999 418.899 379.001C400.207 406.002 377.268 431 350.718 453.002C322.469 476.499 289.122 498 261.509 510.004C234.112 498 200.763 476.499 172.516 453.002C145.967 431 123.027 406.002 104.334 379.001C85.4297 350.999 70.99 320.999 61.2194 289.003C51.237 256.5 46.1355 222 46.1355 187C46.1355 186.501 46.1355 186.001 46.1355 185.001C46.3543 149.503 54.4215 95.5014 67.1682 43.5021C128.764 16.0014 193.967 2.00098 261.51 2.00098Z" fill="white"/>
<path d="M261.51 202.004C276.594 202.004 290.612 206.001 302.93 213.002H428.454C428.67 204.001 428.454 194.002 428.244 185.001C427.605 146.5 416.35 81.5027 405.305 36.501C360.913 22.0005 313.124 13.501 261.726 13.501" fill="#DA140A"/>
<path d="M261.726 14.001C211.175 14.001 164.872 21.4986 117.931 36.5009C106.462 82.9994 96.9037 145 95.4156 174.503C93.2937 218.003 96.4765 249.502 105.186 283.506C110.072 303.002 116.445 321.001 124.729 339.502C133.651 335.003 142.994 329.002 152.336 322.005C162.108 314.503 170.606 305.5 177.614 296.502C177.402 293.004 177.192 289.998 177.192 286.499C177.192 281.504 177.614 276.496 178.463 272.004C161.049 272.5 151.277 272.5 143.419 272.5C134.071 272.5 125.578 266.003 121.541 256C119.414 256 117.082 256 117.082 256C113.898 256 108.161 253.499 108.161 242.499C108.161 232.001 113.896 229.501 117.082 229.501C117.082 229.501 119.416 229.501 121.541 229.501C125.576 219.501 134.071 213.002 143.419 213.002H220.516C232.624 206.001 246.642 202.004 261.724 202.004" fill="#EE120B"/>
<path d="M185.259 436.501C161.474 412.999 141.933 387.004 126.426 359.001C110.71 331.002 99.4509 299.502 92.8666 268.003C86.0704 235.501 83.9451 202.501 86.2823 168C88.4093 135.5 96.9037 85.9993 107.523 40.001C97.5409 43.5015 87.3432 47.5004 77.3608 52.0011C66.1073 97.001 58.2467 154.003 58.0349 185.002C58.0349 220.002 62.9193 253.501 72.4746 285.004C82.6723 318.504 96.263 345.504 114.316 372.005C132.161 398.505 154.461 422.5 180.159 444.002C204.165 464.001 231.773 481.502 261.509 496.505C233.051 479.004 207.348 459.004 185.259 436.501Z" fill="#163A76"/>
<path d="M337.973 436.501C361.762 412.999 381.305 387.004 396.811 359.001C412.528 331.002 423.785 299.502 430.369 268.003C437.166 235.501 439.291 202.501 436.954 168C434.827 135.5 426.122 85.4992 415.503 40.001C425.697 43.5015 435.895 47.5004 445.877 52.0011C457.131 97.001 464.991 154.003 464.991 185.002C465.203 220.002 460.317 253.501 450.546 285.004C441.203 316.005 427.185 345.008 408.92 372.005C390.865 398.505 368.775 422.5 343.07 444.002C319.071 464.001 291.461 481.502 261.51 496.505C289.973 479.004 315.888 459.004 337.973 436.501Z" fill="#163A76"/>
<path d="M261.51 206.5C217.12 206.5 181.227 242.499 181.227 286.498C181.227 331.002 217.12 366.998 261.51 366.998C305.901 366.998 341.799 331.002 341.799 286.498C341.799 242.5 305.901 206.5 261.51 206.5Z" fill="#8D6E26"/>
<path d="M261.51 371.001C234.324 371.001 210.112 358.002 194.608 337.999C175.704 349.001 155.951 357.499 136.837 363.501C151.917 389.503 170.392 414.005 192.91 436.502C213.085 457.005 236.024 475.501 261.512 492.002" fill="#EE120B"/>
<path d="M143.419 268.502C134.71 268.502 127.275 261.501 124.3 252.001C120.692 252.001 117.082 252.001 117.082 252.001C115.167 252.001 112.41 249.502 112.41 243.001C112.41 236.002 115.167 233.5 117.082 233.5C117.082 233.5 120.692 233.5 124.3 233.5C127.275 224 134.71 216.999 143.419 216.999H213.51C196.516 228.999 183.986 246.5 179.312 267.5C163.594 268.003 151.704 268.502 143.419 268.502Z" fill="#8D6E26"/>
<path d="M457.769 41.5011C398.086 15.0006 332.456 0 261.511 0C190.782 0 125.15 15.0006 65.4694 41.5011C51.6635 97.501 44.2301 151.501 44.0182 185C44.0182 220.999 48.9027 256.001 59.0969 289.501C69.0793 321.502 83.7361 352 102.64 379.504C121.332 407.003 144.483 432.5 171.246 454.498C196.309 475.5 230.507 498.503 261.511 511.998C292.733 498.503 326.721 475.498 351.992 454.498C378.757 432.5 401.908 407.001 420.6 379.504C439.504 352 454.159 321.502 464.141 289.501C474.124 256.001 479.222 221.001 479.01 185C479.01 151.501 471.575 97.501 457.769 41.5011ZM408.919 372.005C391.076 398.002 368.774 422.5 343.069 444.002C319.071 464.001 291.46 481.502 261.51 496.003C231.774 481.501 204.168 464 180.161 444.002C154.46 422.5 132.16 398.002 114.317 372.005C112.831 370.008 111.348 367.502 110.072 365.502C136.197 361 165.294 350.001 192.058 334.501C185.474 325.003 180.589 314.005 178.462 302.003C171.668 310.506 163.806 318.503 154.674 325.505C139.805 336.501 121.968 347.504 102.638 353.5C89.8915 332.004 79.9109 309.004 72.4757 285.004C62.9204 253.5 58.036 220.002 58.036 185.002C58.2478 154.003 66.1084 97.0009 77.3619 52.001C135.562 26.5006 197.582 14.0004 261.511 14.0004C325.655 14.0004 387.678 26.5006 445.878 51.9993C457.132 96.9992 464.992 154.001 465.204 185C465.204 196 464.78 206.5 463.716 217H309.305C328.421 230.5 342.013 251.002 345.198 275L374.723 268.003C381.308 266.501 383.855 262.002 384.704 258.001L458.62 252.999C456.493 264.002 453.735 274.502 450.763 285.002C441.202 316.003 427.184 345.006 408.919 372.005Z" fill="#8D6E26"/>
<path d="M266.822 309.002V352C286.997 350.505 304.628 339.502 315.673 324.001L278.082 302.505C275.106 305.5 271.281 308.002 266.822 309.002Z" fill="white"/>
<path d="M256.202 221.001C236.022 223.001 218.396 233.501 207.563 249.502L244.942 271C247.918 267.501 251.738 265.501 256.201 264.502" fill="white"/>
<path d="M261.51 275.001C255.143 275.001 249.83 280.002 249.83 286.499C249.83 293.004 255.143 298.503 261.51 298.503C268.095 298.503 273.194 293.004 273.194 286.499C273.194 280.002 268.095 275.001 261.51 275.001Z" fill="white"/>
<path d="M266.822 221.001V264.502C271.279 265.501 275.318 267.503 278.291 271L315.671 249.502C304.63 233.501 286.999 223.001 266.822 221.001Z" fill="white"/>
<path d="M256.202 309.002C252.589 308.002 249.406 306.504 246.642 304C246.22 303.498 245.583 303 244.942 302.505L207.563 324.001C208.412 325.503 209.263 326.498 210.324 327.503C221.154 341.504 237.72 350.505 256.202 352" fill="white"/>
<path d="M283.389 293.005L320.983 314.999C328.201 299.504 330.328 278.001 320.983 258.503L283.599 280.003C284.665 284.003 284.877 288.501 283.389 293.005Z" fill="white"/>
<path d="M213.722 248.003L244.305 265.5C246.642 264.004 249.189 262.503 251.953 261.001V226.003C236.871 228.5 223.281 236.003 213.722 248.003Z" fill="#8D6E26"/>
<path d="M271.071 226.003V261.5C273.83 262.503 276.379 264.002 278.716 265.5L309.302 248.003C299.744 236.003 286.148 228.5 271.071 226.003Z" fill="#8D6E26"/>
<path d="M322.683 280.498C322.256 275.001 320.983 269.502 318.858 264.501L288.275 282.002C288.487 283.504 288.697 285.002 288.697 286.499C288.697 287.003 288.697 288.003 288.697 288.499C297.196 286.003 306.328 284.002 315.673 282.002C317.798 281.505 320.347 281.004 322.683 280.498Z" fill="#8D6E26"/>
<path d="M261.51 492C286.999 475.499 310.15 457.004 330.33 436.5C354.118 412.999 373.659 386.501 388.95 358.506C404.458 330.002 415.503 298.502 422.089 266.997C422.509 264.5 422.936 262.002 423.358 259.503L387.889 262.002C385.977 266.997 381.732 270.999 375.78 272.005C375.569 272.005 362.611 275.504 345.622 279.502C345.834 281.503 346.044 284.003 346.044 286.498C346.044 333.504 308.238 370.999 261.509 370.999" fill="#DA140A"/>
<path d="M268.944 286.501C268.944 282.5 265.756 279.003 261.51 279.003C257.475 279.003 254.077 282.502 254.077 286.501C254.077 291.006 257.475 294 261.51 294C265.756 294 268.944 291.005 268.944 286.501Z" fill="#8D6E26"/>
<path d="M271.071 347.503C286.149 345.006 299.745 337.003 309.304 325.503L278.718 307.5C276.379 309.499 273.832 311.002 271.073 312.002V347.503" fill="#D40026"/>
<path d="M213.722 325.503L244.305 307.5C246.642 309.499 249.189 311.002 251.953 312.002V347.503C236.871 345.006 223.281 337.003 213.722 325.503Z" fill="#FE000C"/>
<path d="M323.105 286.5C323.105 286.004 323.105 285.004 322.895 284.5C320.768 284.5 318.43 285.004 316.31 285.507C306.967 287.506 298.044 289.999 289.973 291.999L318.858 309.004C321.618 302.001 323.105 294.502 323.105 286.5Z" fill="#D40026"/>
<path d="M202.041 258.503C193.545 277.002 193.969 297.504 202.251 314.999L239.635 293.005C238.361 289.004 238.361 284.5 239.635 280.003" fill="white"/>
<path d="M204.378 309.002L234.751 291.004C234.324 288.002 234.324 285.002 234.751 282.001L204.167 264.502C198.643 279.001 198.643 294.501 204.378 309.002Z" fill="#8D6E26"/>
<path d="M292.093 149.002C292.093 151.002 291.673 156.499 291.461 158.001H315.888C314.4 151.502 313.761 142.501 313.55 135.501C313.55 136.002 313.124 121.501 313.124 121.501C313.124 120.501 313.55 119.002 314.183 118.501C315.032 117.502 315.887 117.502 316.948 117.502C318.009 117.004 319.919 117.004 320.136 121.003L320.768 136.003C320.983 143.001 320.983 152.504 320.136 158.003H343.707C343.497 156.005 342.858 151.006 342.648 149.504C345.622 156.003 351.991 159.502 360.489 159.502C365.587 159.502 369.412 157.503 372.381 155.501C372.381 156.003 373.658 158.001 373.658 158.001H417.411C415.499 151.502 414.225 142.501 413.586 135.501L407.428 86.5009L384.911 82.5003C386.826 89.0013 388.097 98.501 388.946 105.002L392.345 136.502C392.984 142.002 393.409 148.002 393.409 154.503V155.001L392.56 153.004C390.86 149.002 390.011 143.999 389.374 136.502L388.525 126.5C387.248 110.499 378.542 103.502 359.423 103.502C356.235 103.502 348.169 104.002 343.283 105.502L344.554 123.5L349.652 120.497C353.903 118.001 357.091 117 360.909 117C363.885 117 365.795 118 366.646 119.999C363.036 120.497 359.001 121.498 354.537 123.5C347.741 126.5 343.495 130.999 341.583 136C341.583 136 341.583 136 341.583 135.5L340.946 118.999C340.519 108.499 333.723 101.5 323.315 101.5C318.646 101.5 314.397 103 310.573 105.502C310.362 105.002 310.146 104.502 309.934 104.002L309.085 102.002L289.544 101.001C290.393 104.504 291.671 114.502 291.881 118.004C290.822 113.003 288.061 107.501 282.96 103.502C278.923 101.001 273.826 99.5012 268.52 99.5012C261.299 99.5012 253.865 102.502 248.979 107.499C243.881 112.5 241.334 119.497 241.117 127.5C239.208 125.502 236.661 123.5 233.688 122.499L224.767 118.002H224.341C222.218 117.002 222.003 116.502 222.003 116.002C222.218 115.002 224.341 114.002 227.104 114.002C230.922 114.002 236.232 116.002 240.483 118.501L240.905 102.502C237.719 101.001 233.261 100.001 226.889 100.001C223.491 100.001 217.116 100.503 211.596 103.503C210.11 104.504 208.832 105.504 207.561 106.506L207.773 102.003C202.675 101.003 197.153 101.003 190.357 107.502C190.14 107.002 189.72 104.504 189.298 103.503L168.269 104.504C169.755 110.501 169.969 119.002 169.54 126.502L169.118 134.503V135.501C168.906 139.504 168.691 144.001 168.269 148.002C166.569 142.501 164.66 135.001 163.171 129.004L152.761 82.002L123.027 86.5009C123.239 87.0027 123.665 88.5029 123.876 90.0014C124.088 92.0017 124.088 96.0006 121.327 104.504C116.441 118.004 109.647 138.504 103.063 153.006C102.213 155.003 100.51 158.003 100.51 158.003H123.665C124.088 154.504 125.576 148.503 127.063 144.003C130.249 144.003 138.532 144.003 142.353 143.504C143.202 147.005 144.053 151.504 144.268 154.506L144.69 158.005H190.998C189.932 150.507 190.359 140.507 190.781 135.005C191.208 128.506 192.481 124.005 195.243 121.505C197.365 119.006 199.702 118.504 201.402 118.504C201.19 127.505 206.926 131.504 212.022 134.005L221.153 138.507C224.341 140.507 224.341 141.006 224.341 142.008C224.13 143.506 221.581 144.004 219.243 144.004C214.359 144.004 207.775 141.006 200.551 133.005L200.128 154.008C205.863 157.006 213.081 158.507 219.454 158.507C230.073 158.507 241.334 153.508 244.305 144.004C249.618 154.008 260.026 158.507 270.22 158.507C279.353 158.501 286.148 155.499 292.093 149.002ZM132.584 128.5C133.861 125 134.922 122.001 136.835 116.502C138.108 122.001 138.747 125.502 139.384 128.002C136.835 128.5 135.561 128.5 132.584 128.5ZM262.575 123C262.575 116.002 265.124 113.001 267.673 113.001C268.522 113.001 270.432 112.5 271.281 116.002C271.708 117.5 271.92 118.499 271.92 119.001C271.92 121.001 270.859 121.499 269.581 121.499V122.001C269.581 122.001 265.973 123 262.575 124.5C262.575 124.001 262.575 123.5 262.575 123ZM286.787 137.502C282.328 141.504 279.141 143.999 273.828 143.999C269.581 143.501 267.032 141.001 265.546 137.502C270.006 136.002 287.212 129.502 292.091 127.5C292.091 131.501 292.308 136.002 292.308 136.002C292.308 139.002 292.308 142.002 292.308 144.501L286.787 137.502ZM366.009 144.499C361.977 144.499 361.124 141.502 360.911 139.502C361.123 137.502 361.76 134.501 368.134 132.501C368.346 135 368.561 137.002 368.561 137.002V139C368.771 140.502 368.771 142.002 368.983 143.501C368.136 143.999 367.075 143.999 366.009 144.499Z" fill="#8D6E26"/>
<path d="M237.298 105.002C235.171 104.502 231.985 103.502 226.89 103.502C222.853 103.502 217.545 104.502 213.51 106.504C208.836 109.503 205.438 113.502 205.226 118.004C204.799 125.002 208.412 128.004 213.722 130.503C217.335 132.501 220.732 134.503 222.853 135.502C225.618 137.002 228.167 138.504 227.95 142.003C227.741 145.501 224.553 148.002 219.245 148.002C214.781 148.002 208.414 145 203.949 141.002L203.738 151.502C207.563 153.503 213.722 154.505 219.455 154.505C229.226 154.505 241.335 150.004 241.547 139.002C241.757 130.503 235.812 127.502 232.202 125.504C228.589 124.003 224.98 122.003 223.281 121.501C221.581 120.501 218.183 119.501 218.396 115.504C218.818 112.003 222.853 110.501 227.108 110.501C230.716 110.501 234.324 111.501 237.088 113.003" fill="white"/>
<path d="M150.004 86.499L127.486 89.5012C127.914 92.5017 127.065 98.5008 124.727 105.502C120.053 118.999 112.408 141.502 106.461 154.502H120.478C121.328 150.002 122.39 146.001 124.514 140.502L145.328 140C146.177 143.999 147.665 150.502 147.877 154.502H166.779C164.442 149.002 161.471 137.502 159.557 129.502L150.004 86.499ZM127.486 131.999L137.684 102.501L143.841 131.501" fill="white"/>
<path d="M203.949 105.002L203.528 115.002C200.129 114.502 195.882 115.502 192.481 119.001C189.51 122.003 187.596 126.5 187.173 134.503C186.745 141.002 186.535 148.503 186.961 154.504H171.028C172.089 148.503 172.516 141.506 172.728 135.003L173.155 127.005C173.577 120.503 173.577 114.005 172.518 108.004L186.535 107.504C187.173 109.504 187.595 113.007 187.384 116.507C193.545 107.001 199.492 105.002 203.949 105.002Z" fill="white"/>
<path d="M404.244 89.5014L389.799 87.001C391.287 93.502 391.714 97.9992 392.563 104.502L395.961 136.002C396.6 142.501 397.232 148.502 397.021 154.503H412.738C411.255 148.502 410.616 142.501 409.979 136.002" fill="white"/>
<path d="M339.461 154.503C338.612 148.502 338.189 142.501 337.973 136.001L337.34 119.499C336.914 110.499 331.816 105.502 323.318 105.502C318.649 105.502 313.126 106.999 308.45 113.001C308.238 111.499 307.601 107.499 306.75 105.502L294.008 105.002C295.068 111.001 295.495 117.002 295.708 123.5L295.918 136C296.13 142.499 295.918 148.5 295.496 154.501H311.426C310.577 148.5 310.15 142.499 309.938 136L309.516 121.999C309.304 117 313.126 113.498 316.949 113.498C321.407 113.498 323.534 116.5 323.746 120.997L324.383 135.998C324.595 142.497 324.595 148.498 324.171 154.499" fill="white"/>
<path d="M389.164 154.503C387.248 149.502 386.189 143.501 385.762 137.002L384.913 127.002C384.064 115.002 378.968 106.999 359.425 106.999C356.028 106.999 351.14 107.499 347.105 108.499L347.742 117.501C351.779 115.002 355.815 113.002 360.911 113.002C366.224 113.002 370.682 115.5 371.11 123C366.009 123.5 361.338 124.5 356.027 127.002C350.08 129.501 343.922 134.501 344.556 142.501C345.193 151.502 351.99 155.499 360.489 155.499C367.073 155.499 371.531 152.501 374.08 149.502C374.507 151.501 375.144 153.004 375.78 154.503H389.164ZM366.009 148.002C361.34 148.002 357.513 145.501 357.303 140.002C357.303 134.503 360.701 130.003 371.531 128.502L372.17 137.004C372.38 140.004 372.38 142.004 372.807 144.501C371.322 146.502 368.773 147.502 366.009 148.002Z" fill="white"/>
<path d="M280.841 106.502C277.228 104.002 272.981 103 268.522 103C258.112 103 244.306 110.498 244.733 129.501C244.944 149 259.812 155.001 270.222 155.001C279.355 155.001 284.877 151.5 289.338 147.002L286.15 142.501C283.812 144.499 279.992 147.502 273.83 147.502C267.246 147.002 263 142.501 260.661 135.501L289.548 125.002C288.697 115.502 285.299 110.001 280.841 106.502ZM270.859 125.002L259.39 129.502C259.175 127.502 258.963 125.502 258.963 123.001C258.963 111.501 265.337 109.503 267.457 109.503C270.861 109.003 273.832 111.003 274.896 115.004C276.167 119.499 275.743 123.5 270.859 125.002Z" fill="white"/>
</g>
<defs>
<clipPath id="clip0_1_2197">
<rect width="434.992" height="512" fill="white" transform="translate(44.0182)"/>
</clipPath>
</defs>
</svg>
