<svg width="512" height="512" viewBox="0 0 512 512" fill="none" xmlns="http://www.w3.org/2000/svg">
<g clip-path="url(#clip0_1_3073)">
<g clip-path="url(#clip1_1_3073)">
<mask id="mask0_1_3073" style="mask-type:luminance" maskUnits="userSpaceOnUse" x="87" y="56" width="356" height="441">
<path d="M87.8575 56.8274V185.491C115.221 409.477 266.392 496.718 266.392 496.718C266.392 496.718 431.269 384.266 442.809 185.491V56.8274H87.8575Z" fill="white"/>
</mask>
<g mask="url(#mask0_1_3073)">
<path d="M396.962 615.765L-59.6761 439.901L133.705 -62.2183L590.345 113.646L396.962 615.765Z" fill="url(#paint0_linear_1_3073)"/>
</g>
<mask id="mask1_1_3073" style="mask-type:luminance" maskUnits="userSpaceOnUse" x="70" y="-2" width="391" height="513">
<path d="M460.658 -1.81519H70.1581V510.186H460.658V-1.81519Z" fill="white"/>
</mask>
<g mask="url(#mask1_1_3073)">
<path d="M302.063 239.671C304.558 239.898 307.084 240.034 309.631 240.065C307.082 240.034 304.558 239.898 302.063 239.671Z" fill="white"/>
</g>
<mask id="mask2_1_3073" style="mask-type:luminance" maskUnits="userSpaceOnUse" x="70" y="-2" width="391" height="513">
<path d="M460.658 -1.81519H70.1581V510.186H460.658V-1.81519Z" fill="white"/>
</mask>
<g mask="url(#mask2_1_3073)">
<path d="M296.44 239.039V239.061L296.453 239.039H296.44Z" fill="white"/>
</g>
<mask id="mask3_1_3073" style="mask-type:luminance" maskUnits="userSpaceOnUse" x="70" y="-2" width="391" height="513">
<path d="M460.658 -1.81519H70.1581V510.186H460.658V-1.81519Z" fill="white"/>
</mask>
<g mask="url(#mask3_1_3073)">
<path d="M225.378 224.569L185.506 223.512L184.789 239.339C184.789 239.339 178.932 239 172.756 239.339C166.571 239.711 166.223 248.29 166.223 248.29C166.223 248.29 161.401 247.948 156.254 249.317C151.102 250.698 151.79 258.615 151.79 258.615C151.79 258.615 138.368 258.964 133.901 264.116C129.428 269.295 128.752 279.928 133.231 286.124C137.688 292.32 163.128 328.755 169.663 343.201C176.197 357.663 177.24 406.501 177.24 406.501L177.626 407.667L177.643 407.678C200.448 435.826 229.176 462.929 265.453 487.256C277.742 479.027 289.164 470.437 299.771 461.613L233.634 385.274L237.685 381.763L238.969 381.693C239.399 381.665 239.819 381.646 240.261 381.646C242.644 381.669 244.972 381.944 247.639 381.934C251.885 381.934 256.886 381.333 263.352 377.924C266.008 376.494 267.747 374.505 268.914 372.081C270.088 369.645 270.623 366.819 270.591 364.091C270.623 361.163 269.929 358.354 269.15 356.83C267.903 354.28 265.076 352.284 261.961 351.039C258.868 349.766 255.725 349.262 254.597 349.136C254.268 349.077 254.157 349.077 254.157 349.077H253.96L250.199 348.41L237.779 334.572L243.665 329.489L254.201 341.205L255.017 341.345C255.821 341.434 258.791 341.787 262.351 342.94L247.694 326.002L253.577 320.891L341.097 421.939C342.137 420.775 343.143 419.621 344.151 418.46L257.043 317.915L262.921 312.819L349.285 412.486C350.272 411.304 351.263 410.092 352.232 408.918L266.379 309.827L268.417 308.063C268.417 308.063 271.388 308.908 276.056 309.083L357.182 402.735C358.138 401.501 359.107 400.281 360.053 399.041L282.015 308.968C284.74 308.762 287.742 308.259 290.908 307.34L364.827 392.657C365.741 391.384 366.647 390.129 367.563 388.84L295.512 305.688C298.124 304.368 299.987 302.546 301.288 300.475L372.153 382.26C373.033 380.96 373.939 379.619 374.79 378.308L303.328 295.823C304.644 291.208 304.255 286.565 304.009 284.717L379.182 371.486C380.035 370.134 380.882 368.776 381.716 367.414L300.186 273.314V261.43L385.924 360.391C386.85 358.786 387.779 357.19 388.678 355.57L286.361 237.017C285.323 236.751 284.315 236.438 283.294 236.151C279.136 234.929 275.094 233.438 271.171 231.708C270.427 231.374 269.693 230.998 268.96 230.633C266.473 229.45 264.036 228.179 261.658 226.793C260.832 226.308 260.013 225.804 259.197 225.293C256.897 223.854 254.674 222.336 252.507 220.71C251.829 220.211 251.145 219.718 250.476 219.183C247.91 217.163 245.455 215.027 243.108 212.77C242.973 212.645 242.819 212.535 242.686 212.404C233.217 213.953 225.378 224.569 225.378 224.569Z" fill="white"/>
</g>
<mask id="mask4_1_3073" style="mask-type:luminance" maskUnits="userSpaceOnUse" x="70" y="-2" width="391" height="513">
<path d="M460.658 -1.81348H70.1581V510.187H460.658V-1.81348Z" fill="white"/>
</mask>
<g mask="url(#mask4_1_3073)">
<path d="M98.189 233.947C102.381 256.065 108.845 280.645 118.829 306.255C119.594 308.194 120.441 310.154 121.233 312.108C120.441 310.154 119.593 308.194 118.829 306.244C108.845 280.643 102.381 256.064 98.189 233.947Z" fill="white"/>
</g>
<mask id="mask5_1_3073" style="mask-type:luminance" maskUnits="userSpaceOnUse" x="70" y="-2" width="391" height="513">
<path d="M460.658 -1.81348H70.1581V510.187H460.658V-1.81348Z" fill="white"/>
</mask>
<g mask="url(#mask5_1_3073)">
<path d="M70.2229 25.9696V79.8914H70.1581L70.2683 154.426C70.2359 156.112 70.2229 157.895 70.2229 159.785C70.2229 161.619 70.2489 163.6 70.2813 165.618V165.933H70.2878C70.4158 173.471 70.7952 182.202 71.5814 191.983C74.1931 224.092 81.3746 267.264 99.5102 313.799C124.704 378.504 171.331 449.795 255.822 505.797L265.337 511.866L275.021 505.816C282.95 500.556 290.545 495.173 297.809 489.699C363.162 440.221 402.711 381.413 426.3 326.238L426.399 326.001L426.588 325.52C428.268 321.6 429.861 317.685 431.392 313.784C432.982 309.657 434.504 305.576 435.936 301.511C457.092 241.754 460.652 188.876 460.666 159.781C460.666 158.688 460.648 157.702 460.639 156.679L460.666 156.666V91.904V79.8931V25.9712C333.152 -11.0748 197.728 -11.0748 70.2229 25.9696ZM388.662 344.637L360.344 312.961V219.321C374.729 203.844 381.675 182.8 381.333 159.688C381.025 138.095 374.646 117.72 360.344 101.744V70.7094C368.52 71.8328 380.545 73.9646 388.688 75.3734L388.664 344.637H388.662ZM330.684 278.47L328.089 275.741L301.906 245.394C303.01 245.378 304.116 245.378 305.215 245.326C313.225 244.875 323.482 241.644 330.684 239.06V278.47ZM305.735 456.599L247.78 389.721C249.518 389.721 251.455 389.604 253.537 389.286L309.162 453.574C308.024 454.551 306.873 455.586 305.735 456.599ZM314.953 448.354L261.923 387.122C263.349 386.573 264.797 385.919 266.301 385.166L318.304 445.262C317.21 446.297 316.084 447.321 314.953 448.354ZM323.927 439.853L272.552 380.493C273.613 379.3 274.501 378.037 275.273 376.7L327.178 436.623C326.09 437.698 325.03 438.758 323.927 439.853ZM332.638 431.034L278.095 368.089C278.281 366.737 278.377 365.42 278.377 364.088C278.377 363.141 278.327 362.184 278.233 361.251L335.81 427.691C334.771 428.818 333.693 429.944 332.638 431.034ZM385.923 360.392L300.183 261.432V273.316L381.712 367.416C380.874 368.778 380.033 370.136 379.179 371.488L304.002 284.719C304.253 286.567 304.641 291.21 303.325 295.825L374.787 378.31C373.938 379.621 373.033 380.962 372.149 382.262L301.285 300.476C299.982 302.545 298.122 304.367 295.509 305.69L367.56 388.842C366.647 390.131 365.743 391.384 364.824 392.658L290.903 307.342C287.737 308.261 284.732 308.764 282.012 308.969L360.049 399.042C359.107 400.286 358.135 401.507 357.178 402.737L276.052 309.085C271.385 308.909 268.412 308.065 268.412 308.065L266.376 309.829L352.234 408.915C351.258 410.092 350.271 411.303 349.285 412.483L262.921 312.816L257.043 317.912L344.153 418.457C343.143 419.618 342.136 420.772 341.095 421.936L253.577 320.888L247.694 325.999L262.351 342.937C258.791 341.784 255.821 341.426 255.017 341.342L254.201 341.202L243.666 329.486L237.779 334.569L250.199 348.407L253.96 349.073H254.156C254.156 349.073 254.266 349.073 254.595 349.133C255.723 349.259 258.867 349.763 261.96 351.036C265.074 352.284 267.901 354.275 269.146 356.827C269.925 358.351 270.618 361.162 270.588 364.088C270.622 366.816 270.082 369.642 268.913 372.078C267.744 374.5 266.006 376.493 263.349 377.921C256.884 381.33 251.885 381.931 247.637 381.931C244.971 381.941 242.643 381.666 240.26 381.643C239.82 381.643 239.397 381.666 238.966 381.69L237.682 381.76L233.631 385.271L299.768 461.61C289.161 470.433 277.737 479.024 265.45 487.253C229.168 462.929 200.445 435.826 177.639 407.685L177.622 407.667C152.088 376.204 134.074 343.496 121.23 312.108C120.441 310.158 119.591 308.195 118.829 306.259C108.843 280.645 102.38 256.069 98.1873 233.95C93.5072 209.201 91.7207 187.643 91.1889 171.229V86.2187C168.752 66.2724 251.462 60.2823 330.681 67.4007V80.1249C320.987 76.2293 308.04 72.4813 297.39 72.4083C250.735 72.0031 214.485 111.275 215.189 158.586C215.876 203.838 249.845 241.252 293.277 245.045L388.675 355.575C387.771 357.193 386.847 358.787 385.923 360.392ZM417.064 292.627C417.064 292.637 417.486 292.643 417.483 292.651V80.809C425.029 82.482 432.125 84.2717 439.627 86.1976V171.232L439.708 171.175C438.794 199.618 434.091 243.748 417.064 292.627Z" fill="black"/>
</g>
<mask id="mask6_1_3073" style="mask-type:luminance" maskUnits="userSpaceOnUse" x="70" y="-2" width="391" height="513">
<path d="M460.658 -1.81519H70.1581V510.186H460.658V-1.81519Z" fill="white"/>
</mask>
<g mask="url(#mask6_1_3073)">
<path d="M234.811 197.632L264.726 206.237L282.655 233.242C288.045 234.532 293.633 235.268 299.354 235.318C305.002 235.347 310.474 234.707 315.733 233.537L332.395 207.27L362.676 198.728C368.161 189.228 371.613 178.342 372.474 166.647L352.918 141.779L353.729 109.512C352.56 108.143 351.35 106.794 350.094 105.523C343.394 98.7352 335.507 93.2039 326.774 89.3246L297.965 100.172L268.149 88.6761C259.303 92.4679 251.389 97.996 244.744 104.842C243.61 106.024 242.531 107.248 241.446 108.507L243.323 140.095L224.157 165.386C225.345 177.053 229.067 188.017 234.811 197.632ZM298.375 126.941L330.569 150.853L318.983 189.043L279.596 188.785L266.916 150.422L298.375 126.941Z" fill="white"/>
</g>
<mask id="mask7_1_3073" style="mask-type:luminance" maskUnits="userSpaceOnUse" x="70" y="-2" width="391" height="513">
<path d="M460.658 -1.81519H70.1581V510.186H460.658V-1.81519Z" fill="white"/>
</mask>
<g mask="url(#mask7_1_3073)">
<path d="M330.569 150.423L298.375 126.511L266.919 149.99L279.596 188.354L318.983 188.612L330.569 150.423Z" fill="black"/>
</g>
<mask id="mask8_1_3073" style="mask-type:luminance" maskUnits="userSpaceOnUse" x="70" y="-2" width="391" height="513">
<path d="M460.658 -1.81519H70.1581V510.186H460.658V-1.81519Z" fill="white"/>
</mask>
<g mask="url(#mask8_1_3073)">
<path d="M247.78 389.722L305.735 456.6C306.873 455.587 308.024 454.551 309.161 453.577L253.537 389.289C251.455 389.604 249.518 389.722 247.78 389.722Z" fill="white"/>
</g>
<mask id="mask9_1_3073" style="mask-type:luminance" maskUnits="userSpaceOnUse" x="70" y="-2" width="391" height="513">
<path d="M460.658 -1.81519H70.1581V510.186H460.658V-1.81519Z" fill="white"/>
</mask>
<g mask="url(#mask9_1_3073)">
<path d="M261.923 387.122L314.953 448.354C316.083 447.321 317.213 446.295 318.302 445.262L266.3 385.164C264.797 385.918 263.349 386.571 261.923 387.122Z" fill="white"/>
</g>
<mask id="mask10_1_3073" style="mask-type:luminance" maskUnits="userSpaceOnUse" x="70" y="-2" width="391" height="513">
<path d="M460.658 -1.81519H70.1581V510.186H460.658V-1.81519Z" fill="white"/>
</mask>
<g mask="url(#mask10_1_3073)">
<path d="M272.551 380.493L323.926 439.852C325.031 438.76 326.088 437.696 327.175 436.621L275.268 376.698C274.499 378.037 273.611 379.299 272.551 380.493Z" fill="white"/>
</g>
<mask id="mask11_1_3073" style="mask-type:luminance" maskUnits="userSpaceOnUse" x="70" y="-2" width="391" height="513">
<path d="M460.658 -1.81519H70.1581V510.186H460.658V-1.81519Z" fill="white"/>
</mask>
<g mask="url(#mask11_1_3073)">
<path d="M278.233 361.252C278.33 362.186 278.379 363.142 278.379 364.089C278.379 365.417 278.281 366.738 278.097 368.088L332.641 431.035C333.693 429.944 334.773 428.819 335.813 427.694L278.233 361.252Z" fill="white"/>
</g>
<mask id="mask12_1_3073" style="mask-type:luminance" maskUnits="userSpaceOnUse" x="91" y="35" width="24" height="31">
<path d="M102.166 41.4429C102.245 41.0636 102.349 40.8561 102.666 40.7815C103 40.7134 103.067 40.8755 103.14 41.2305C103.869 44.4128 104.599 47.587 105.335 50.7725C103.55 51.1632 101.765 51.5733 99.9819 51.9656C100.713 48.464 101.438 44.9608 102.166 41.4429ZM102.666 35.6263C100.186 36.1759 97.5372 37.335 96.7088 41.0133C94.9305 48.9422 93.1488 56.8776 91.3688 64.8131C91.3786 64.8925 91.3186 64.9817 91.3316 65.0125C91.3186 65.3691 91.5926 65.5328 91.9443 65.4502C93.619 65.0514 95.2887 64.6477 96.965 64.2684C97.3249 64.1792 97.6037 63.8177 97.6847 63.4383C98.116 61.3568 98.5391 59.2623 98.9752 57.1792C101.431 56.6102 103.884 56.059 106.343 55.5305C106.771 57.424 107.204 59.3207 107.634 61.2061C107.708 61.5562 107.99 61.7848 108.361 61.7037C110.033 61.3438 111.714 60.9969 113.398 60.6435C113.758 60.5673 114.003 60.2966 114.003 59.9351C114.009 59.9059 113.971 59.8378 113.971 59.7584C112.179 52.6108 110.391 45.4811 108.616 38.3563C108.031 36.0219 106.541 35.3442 104.844 35.3442C104.138 35.3442 103.394 35.4626 102.666 35.6263Z" fill="white"/>
</mask>
<g mask="url(#mask12_1_3073)">
<path d="M76.8403 54.7086L99.455 24.4632L128.486 46.1685L105.873 76.4154L76.8403 54.7086Z" fill="url(#paint1_linear_1_3073)"/>
</g>
<mask id="mask13_1_3073" style="mask-type:luminance" maskUnits="userSpaceOnUse" x="117" y="30" width="17" height="30">
<path d="M132.866 30.0334C131.595 30.0821 129.788 30.1129 125.883 30.8521C121.225 31.7389 117.082 33.7539 117.082 40.3649V59.1537C117.082 59.5606 117.409 59.8184 117.809 59.7389C119.367 59.4277 120.932 59.1132 122.494 58.8019C122.89 58.7241 123.221 58.3415 123.221 57.9411V47.326C126.33 46.7245 129.451 46.1361 132.571 45.5719C132.957 45.5022 133.299 45.1131 133.29 44.7192V41.2614C133.29 40.8561 132.973 40.587 132.571 40.6648C129.451 41.2208 126.33 41.8174 123.221 42.4188V39.1474C123.221 37.2491 123.832 36.5471 125.528 36.2261C127.976 35.7625 130.414 35.3102 132.865 34.8628C133.262 34.7979 133.588 34.404 133.588 34.0149V30.63C133.593 30.1874 133.388 30.0318 132.946 30.0318C132.92 30.0318 132.894 30.0318 132.866 30.0334Z" fill="white"/>
</mask>
<g mask="url(#mask13_1_3073)">
<path d="M102.796 49.1384L123.003 22.1126L147.878 40.7118L127.672 67.7375L102.796 49.1384Z" fill="url(#paint2_linear_1_3073)"/>
</g>
<mask id="mask14_1_3073" style="mask-type:luminance" maskUnits="userSpaceOnUse" x="137" y="26" width="18" height="29">
<path d="M148.275 26.9063C142.762 27.7753 137.548 31.5606 137.552 40.2207V44.7987C137.548 53.4523 142.77 55.4398 148.275 54.5676C150.811 54.1591 152.917 53.4782 153.677 53.107C154.192 52.8962 154.481 52.6709 154.481 52.1538V48.6294C154.481 48.2031 154.252 47.9275 153.785 47.9939C153.753 48.0053 153.706 48.0166 153.677 48.0166C152.292 48.3392 150.307 48.8386 148.306 49.1482C145.806 49.5551 143.807 48.5613 143.807 43.7336V39.1588C143.807 34.3149 145.806 32.6824 148.306 32.2804C150.305 31.9691 152.292 31.8329 153.677 31.7389C153.706 31.7292 153.761 31.7179 153.785 31.7097C154.259 31.6498 154.481 31.3288 154.481 30.8911V27.3635C154.465 26.8464 154.192 26.754 153.677 26.6891C153.362 26.6275 152.813 26.5854 152.095 26.5854C151.091 26.5854 149.759 26.6713 148.275 26.9063Z" fill="white"/>
</mask>
<g mask="url(#mask14_1_3073)">
<path d="M123.71 45.0938L143.621 18.462L168.325 36.9314L148.413 63.5633L123.71 45.0938Z" fill="url(#paint3_linear_1_3073)"/>
</g>
<mask id="mask15_1_3073" style="mask-type:luminance" maskUnits="userSpaceOnUse" x="167" y="22" width="22" height="30">
<path d="M174.075 38.9999C175.432 38.8329 176.797 38.6708 178.156 38.5022C181.071 38.1683 182.016 39.5559 182.016 41.3019V41.6991C182.016 43.7417 180.808 45.0337 177.055 45.4747C176.548 45.5314 174.653 45.7195 174.075 45.7973C174.075 43.5277 174.075 41.2727 174.075 38.9999ZM174.075 28.3977C174.581 28.2907 176.254 28.0784 176.835 28.0103C180.588 27.5596 181.871 28.3394 181.871 30.3334V30.8813C181.871 32.4489 181.024 33.848 178.154 34.1819C176.796 34.344 175.431 34.511 174.074 34.6796C174.074 32.5754 174.074 30.4825 174.075 28.3977ZM176.366 22.9848C174.038 23.2555 171.091 23.8521 169.851 24.1958C168.429 24.5994 167.925 25.1766 167.925 26.8025V48.9066C167.925 50.5472 168.476 50.9476 169.925 51.0141C171.341 51.0838 174.187 50.9103 176.582 50.6153C182.881 49.8679 188.069 47.587 188.063 41.1917V40.647C188.063 38.1488 186.751 36.3396 184.82 35.615C186.745 34.451 187.871 32.3111 187.879 29.9346V29.2796C187.879 24.5135 184.713 22.7643 179.736 22.7643C178.689 22.7643 177.561 22.8421 176.366 22.9848Z" fill="white"/>
</mask>
<g mask="url(#mask15_1_3073)">
<path d="M154.345 40.929L175.149 13.104L201.649 32.9191L180.845 60.7441L154.345 40.929Z" fill="url(#paint4_linear_1_3073)"/>
</g>
<mask id="mask16_1_3073" style="mask-type:luminance" maskUnits="userSpaceOnUse" x="191" y="20" width="23" height="29">
<path d="M197.956 36.7044V32.3695C197.956 28.0103 199.38 26.0244 202.448 25.757C205.524 25.5073 206.966 27.2452 206.973 31.6092V35.9311C206.973 40.3001 205.514 42.2665 202.448 42.5178C202.249 42.5356 202.056 42.5453 201.87 42.5453C199.2 42.5421 197.956 40.7799 197.956 36.7044ZM202.447 20.3051C196.428 20.8125 191.647 24.5411 191.647 32.9661V37.301C191.647 45.739 196.418 48.4819 202.447 47.9648C208.473 47.459 213.253 43.8974 213.261 35.4691V31.1359C213.261 23.3091 209.139 20.25 203.732 20.25C203.312 20.25 202.883 20.2678 202.447 20.3051Z" fill="white"/>
</mask>
<g mask="url(#mask16_1_3073)">
<path d="M178.107 38.3596L199.397 9.88452L226.801 30.3739L205.511 58.8474L178.107 38.3596Z" fill="url(#paint5_linear_1_3073)"/>
</g>
<mask id="mask17_1_3073" style="mask-type:luminance" maskUnits="userSpaceOnUse" x="217" y="18" width="22" height="29">
<path d="M237.957 18.4765C236.37 18.5365 234.785 18.5948 233.195 18.6694C232.794 18.6791 232.462 18.9936 232.465 19.3827V35.5664C232.465 39.2771 231.449 40.8756 228.15 41.0344C224.865 41.2014 223.876 39.7132 223.876 35.9911V19.822C223.876 19.4232 223.549 19.1509 223.139 19.1671C221.544 19.2579 219.947 19.3535 218.347 19.4621C217.945 19.4816 217.617 19.8026 217.617 20.1868V36.3705C217.616 44.669 222.338 46.5284 228.15 46.2366C233.961 45.9513 238.731 43.6055 238.726 35.3216V19.1411C238.726 18.744 238.363 18.4765 237.975 18.4765C237.975 18.4765 237.959 18.4765 237.957 18.4765Z" fill="white"/>
</mask>
<g mask="url(#mask17_1_3073)">
<path d="M204.162 36.4694L225.186 8.35095L252.183 28.5356L231.158 56.654L204.162 36.4694Z" fill="url(#paint6_linear_1_3073)"/>
</g>
<mask id="mask18_1_3073" style="mask-type:luminance" maskUnits="userSpaceOnUse" x="243" y="17" width="22" height="29">
<path d="M249.931 30.1713V23.1923C250.367 23.134 252.27 23.0351 252.786 23.014C255.86 22.9637 257.575 23.9802 257.575 26.1898V26.6713C257.575 29.1273 256.372 30.1226 252.52 30.1923C252.381 30.1956 252.073 30.1972 251.714 30.1972C251.042 30.1972 250.191 30.1907 249.931 30.1713ZM252.786 17.7421C250.15 17.7842 247.037 18.0874 245.355 18.3889C244.235 18.5948 243.703 18.9352 243.706 20.1787V44.5733C243.706 44.9705 244.045 45.2818 244.437 45.2704C246.023 45.2299 247.611 45.1926 249.192 45.1537C249.597 45.1407 249.923 44.8181 249.931 44.4129V35.1887C250.302 35.1773 250.8 35.187 251.303 35.1951C251.732 35.2049 252.165 35.2113 252.52 35.2049C252.656 35.1886 252.796 35.1773 252.927 35.166C254.564 38.1926 256.2 41.2419 257.842 44.2913C258.022 44.6609 258.154 45.0094 258.559 45.0094C260.43 44.99 262.3 44.99 264.176 44.9802C264.576 44.9802 264.724 44.7987 264.724 44.5442C264.724 44.4339 264.68 44.2913 264.614 44.1437C262.761 40.7232 260.921 37.3221 259.081 33.9161C261.754 32.838 263.811 30.4728 263.803 26.6194V26.1525C263.803 19.8577 259.217 17.7405 253.177 17.7405C253.047 17.7405 252.917 17.7421 252.786 17.7421Z" fill="white"/>
</mask>
<g mask="url(#mask18_1_3073)">
<path d="M230.495 35.4075L251.241 7.66032L277.931 27.6164L257.187 55.3619L230.495 35.4075Z" fill="url(#paint7_linear_1_3073)"/>
</g>
<mask id="mask19_1_3073" style="mask-type:luminance" maskUnits="userSpaceOnUse" x="268" y="17" width="23" height="29">
<path d="M269.949 17.9788C269.198 17.9788 268.582 18.6013 268.582 19.3535V44.2507C268.582 44.6609 268.91 44.99 269.315 44.99C270.753 44.9997 272.192 45.0094 273.634 45.0208C274.032 45.024 274.374 44.7095 274.368 44.3091V29.5876C274.368 29.3591 274.438 29.2894 274.545 29.2894C274.65 29.2894 274.734 29.3591 274.87 29.5876C277.66 34.391 280.441 39.2252 283.218 44.0643C283.805 45.0548 284.359 45.2218 285.121 45.2428C286.309 45.2704 287.514 45.3012 288.704 45.3401C289.474 45.3709 290.129 44.7792 290.137 44.0043C290.137 35.6944 290.137 27.3732 290.137 19.073C290.137 18.6694 289.803 18.3581 289.407 18.35C287.966 18.3095 286.526 18.2608 285.085 18.2317C284.69 18.2106 284.354 18.4975 284.354 18.8963V34.2711C284.372 34.5321 284.244 34.5921 284.169 34.5921C284.067 34.5921 284.015 34.5223 283.886 34.2954C280.987 29.2359 278.095 24.1958 275.206 19.1622C274.767 18.3889 274.407 18.0193 273.669 18.0193C272.434 17.9998 271.2 17.9885 269.968 17.9788C269.967 17.9788 269.952 17.9788 269.949 17.9788Z" fill="white"/>
</mask>
<g mask="url(#mask19_1_3073)">
<path d="M255.446 35.5485L276.312 7.64087L303.276 27.8012L282.41 55.7089L255.446 35.5485Z" fill="url(#paint8_linear_1_3073)"/>
</g>
<mask id="mask20_1_3073" style="mask-type:luminance" maskUnits="userSpaceOnUse" x="295" y="18" width="17" height="29">
<path d="M295.12 26.0147V38.0791C295.12 44.6998 299.283 46.0599 304.014 46.3063C307.963 46.4976 309.827 46.3355 311.109 46.2253C311.62 46.188 311.824 45.9886 311.824 45.5022V42.127C311.824 41.7299 311.508 41.3748 311.109 41.3538C308.63 41.2127 306.16 41.0636 303.684 40.9355C301.955 40.8561 301.335 40.2514 301.35 38.3433V34.5029C304.501 34.6504 307.663 34.8239 310.816 35.0103C311.215 35.0395 311.544 34.738 311.544 34.3343V30.8813C311.544 30.4825 311.215 30.1323 310.816 30.1032C307.663 29.9054 304.501 29.7433 301.35 29.5957V26.2854C301.35 24.4 301.966 23.8408 303.684 23.9299C306.16 24.058 308.63 24.1958 311.109 24.3498C311.501 24.3692 311.837 24.0693 311.824 23.6705V20.2759C311.824 19.8123 311.62 19.6193 311.109 19.5107C309.837 19.2449 307.993 18.8461 304.051 18.645C303.631 18.6223 303.219 18.611 302.811 18.611C298.618 18.611 295.12 19.9792 295.12 26.0147Z" fill="white"/>
</mask>
<g mask="url(#mask20_1_3073)">
<path d="M281.747 36.4986L301.117 10.593L325.215 28.6102L305.844 54.5157L281.747 36.4986Z" fill="url(#paint9_linear_1_3073)"/>
</g>
<mask id="mask21_1_3073" style="mask-type:luminance" maskUnits="userSpaceOnUse" x="316" y="19" width="26" height="30">
<path d="M316.423 20.9503V46.2172C316.407 46.6062 316.762 46.744 317.047 46.7619C318.655 46.8737 320.255 46.9937 321.868 47.1137C322.194 47.1445 322.452 46.8332 322.452 46.4198V31.2704C322.452 31.0191 322.562 30.9899 322.63 30.9899C322.736 31.0013 322.825 31.0888 322.927 31.2704C324.023 33.3535 325.117 35.4497 326.21 37.5312C326.471 37.9786 326.831 38.1926 327.309 38.2412C328.28 38.319 329.254 38.3936 330.229 38.4828C330.708 38.5314 331.073 38.3725 331.334 37.9705C332.42 36.0576 333.513 34.1625 334.609 32.2658C334.721 32.0972 334.799 32.0291 334.901 32.0291C334.983 32.0404 335.09 32.0972 335.09 32.3387V47.4979C335.09 47.9129 335.343 48.2517 335.669 48.2922C337.279 48.4349 338.877 48.5905 340.479 48.7591C340.776 48.7883 341.115 48.7202 341.103 48.31V23.0821C341.119 22.3202 340.555 21.7576 339.798 21.6831C338.652 21.5647 337.503 21.4464 336.363 21.3394C335.586 21.2713 335.092 21.5858 334.755 22.1824C332.897 25.4587 331.031 28.7431 329.167 32.0291C329.027 32.3112 328.92 32.4879 328.778 32.4684C328.635 32.4684 328.522 32.2658 328.379 31.9691C326.508 28.3589 324.655 24.7535 322.791 21.1578C322.459 20.5013 321.946 20.1122 321.176 20.0538C320.037 19.9695 318.89 19.8804 317.746 19.8026C317.704 19.7993 317.657 19.7977 317.611 19.7977C316.908 19.7977 316.417 20.2338 316.423 20.9503Z" fill="white"/>
</mask>
<g mask="url(#mask21_1_3073)">
<path d="M302.511 38.3936L325.27 7.95374L355.012 30.1923L332.253 60.6322L302.511 38.3936Z" fill="url(#paint10_linear_1_3073)"/>
</g>
<mask id="mask22_1_3073" style="mask-type:luminance" maskUnits="userSpaceOnUse" x="345" y="23" width="23" height="28">
<path d="M356.34 45.405C353.278 45.024 351.853 43.0106 351.853 38.6595V34.3262C351.869 29.9654 353.281 28.2697 356.34 28.6555C359.396 29.0235 360.85 31.0694 360.85 35.4286V39.7635C360.85 43.7271 359.641 45.4553 357.128 45.4553C356.882 45.4553 356.616 45.4374 356.34 45.405ZM345.555 33.6194V37.9494C345.555 46.3842 350.336 50.1176 356.337 50.8617C362.337 51.6026 367.108 49.0298 367.108 40.5951V36.2667C367.108 27.8336 362.345 23.93 356.337 23.1972C355.716 23.121 355.11 23.0805 354.521 23.0805C349.394 23.0805 345.555 26.0585 345.555 33.6194Z" fill="white"/>
</mask>
<g mask="url(#mask22_1_3073)">
<path d="M331.871 41.3766L353.279 12.741L380.787 33.3082L359.38 61.9422L331.871 41.3766Z" fill="url(#paint11_linear_1_3073)"/>
</g>
<mask id="mask23_1_3073" style="mask-type:luminance" maskUnits="userSpaceOnUse" x="371" y="25" width="22" height="30">
<path d="M371.438 26.2205V42.3994C371.454 50.6963 376.137 53.5284 381.894 54.4427C387.656 55.3603 392.37 53.9969 392.37 45.7097V29.5276C392.37 29.1272 392 28.777 391.605 28.7138C390.04 28.4382 388.469 28.1772 386.905 27.9211C386.501 27.8416 386.177 28.0881 386.177 28.4885V44.6689C386.177 48.3797 385.167 49.7674 381.896 49.2454C378.636 48.7299 377.656 47.026 377.656 43.3153V27.1429C377.656 26.7425 377.331 26.4053 376.93 26.3356C375.348 26.1038 373.754 25.8671 372.167 25.6353C372.13 25.6288 372.088 25.6256 372.052 25.6256C371.705 25.6256 371.438 25.8655 371.438 26.2205Z" fill="white"/>
</mask>
<g mask="url(#mask23_1_3073)">
<path d="M357.178 44.6981L378.944 15.5875L406.631 36.2877L384.864 65.3982L357.178 44.6981Z" fill="url(#paint12_linear_1_3073)"/>
</g>
<mask id="mask24_1_3073" style="mask-type:luminance" maskUnits="userSpaceOnUse" x="395" y="29" width="21" height="30">
<path d="M395.665 30.1032V33.848C395.682 34.2516 395.986 34.6018 396.403 34.6699C398.36 35.0298 400.323 35.3799 402.289 35.7544V56.8971C402.289 57.3057 402.615 57.685 403.014 57.7628C404.595 58.066 406.167 58.3707 407.738 58.669C408.14 58.7436 408.467 58.4891 408.459 58.0741V36.9265C410.403 37.3091 412.36 37.6998 414.307 38.0888C414.699 38.178 415.07 37.9624 415.061 37.5539V33.7977C415.061 33.4119 414.704 33.0439 414.307 32.9661C408.352 31.747 402.38 30.6203 396.398 29.5471C396.345 29.5374 396.294 29.5325 396.246 29.5325C395.92 29.5325 395.677 29.7563 395.665 30.1032Z" fill="white"/>
</mask>
<g mask="url(#mask24_1_3073)">
<path d="M381.656 48.2695L402.623 20.2256L429.08 40.0066L408.114 68.0504L381.656 48.2695Z" fill="url(#paint13_linear_1_3073)"/>
</g>
<mask id="mask25_1_3073" style="mask-type:luminance" maskUnits="userSpaceOnUse" x="418" y="33" width="22" height="33">
<path d="M418.47 34.511V60.1102C418.47 60.5122 418.784 60.9013 419.183 60.9872C420.762 61.3146 422.333 61.6567 423.897 61.9988C424.286 62.0733 424.619 61.8221 424.619 61.4233V50.92C427.584 51.562 430.533 52.2218 433.494 52.9059V63.4091C433.494 63.8177 433.824 64.2165 434.209 64.3153C435.777 64.6752 437.345 65.0497 438.911 65.4193C439.296 65.5134 439.621 65.2621 439.621 64.8633V39.2657C439.621 38.8718 439.296 38.5022 438.911 38.4033C437.343 38.0385 435.774 37.6705 434.209 37.309C433.811 37.2134 433.488 37.4338 433.494 37.8245V47.4881C430.534 46.8137 427.584 46.1474 424.619 45.5022V35.8273C424.619 35.4285 424.303 35.0686 423.897 34.9811C422.333 34.6406 420.759 34.2953 419.183 33.9744C419.123 33.9614 419.07 33.9549 419.015 33.9549C418.7 33.9549 418.47 34.1705 418.47 34.511Z" fill="white"/>
</mask>
<g mask="url(#mask25_1_3073)">
<path d="M403.333 54.1978L426.055 23.8082L454.764 45.2703L432.04 75.6599L403.333 54.1978Z" fill="url(#paint14_linear_1_3073)"/>
</g>
</g>
</g>
<defs>
<linearGradient id="paint0_linear_1_3073" x1="192.145" y1="468.088" x2="362.397" y2="26.0246" gradientUnits="userSpaceOnUse">
<stop stop-color="#8B0304"/>
<stop offset="1" stop-color="#ED1C24"/>
</linearGradient>
<linearGradient id="paint1_linear_1_3073" x1="111.543" y1="57.1576" x2="305.907" y2="202.477" gradientUnits="userSpaceOnUse">
<stop stop-color="#A8996E"/>
<stop offset="0.4417" stop-color="#FFE5C7"/>
<stop offset="1" stop-color="#A8996E"/>
</linearGradient>
<linearGradient id="paint2_linear_1_3073" x1="122.497" y1="42.6188" x2="316.834" y2="187.917" gradientUnits="userSpaceOnUse">
<stop stop-color="#A8996E"/>
<stop offset="0.4417" stop-color="#FFE5C7"/>
<stop offset="1" stop-color="#A8996E"/>
</linearGradient>
<linearGradient id="paint3_linear_1_3073" x1="131.744" y1="30.1584" x2="326.768" y2="175.97" gradientUnits="userSpaceOnUse">
<stop stop-color="#A8996E"/>
<stop offset="0.4417" stop-color="#FFE5C7"/>
<stop offset="1" stop-color="#A8996E"/>
</linearGradient>
<linearGradient id="paint4_linear_1_3073" x1="145.224" y1="12.32" x2="338.883" y2="157.111" gradientUnits="userSpaceOnUse">
<stop stop-color="#A8996E"/>
<stop offset="0.4417" stop-color="#FFE5C7"/>
<stop offset="1" stop-color="#A8996E"/>
</linearGradient>
<linearGradient id="paint5_linear_1_3073" x1="155.03" y1="-1.06779" x2="349.333" y2="144.206" gradientUnits="userSpaceOnUse">
<stop stop-color="#A8996E"/>
<stop offset="0.4417" stop-color="#FFE5C7"/>
<stop offset="1" stop-color="#A8996E"/>
</linearGradient>
<linearGradient id="paint6_linear_1_3073" x1="165.511" y1="-14.5018" x2="359.067" y2="130.212" gradientUnits="userSpaceOnUse">
<stop stop-color="#A8996E"/>
<stop offset="0.4417" stop-color="#FFE5C7"/>
<stop offset="1" stop-color="#A8996E"/>
</linearGradient>
<linearGradient id="paint7_linear_1_3073" x1="175.003" y1="-27.8055" x2="369.256" y2="117.43" gradientUnits="userSpaceOnUse">
<stop stop-color="#A8996E"/>
<stop offset="0.4417" stop-color="#FFE5C7"/>
<stop offset="1" stop-color="#A8996E"/>
</linearGradient>
<linearGradient id="paint8_linear_1_3073" x1="183.619" y1="-39.9527" x2="378.663" y2="105.874" gradientUnits="userSpaceOnUse">
<stop stop-color="#A8996E"/>
<stop offset="0.4417" stop-color="#FFE5C7"/>
<stop offset="1" stop-color="#A8996E"/>
</linearGradient>
<linearGradient id="paint9_linear_1_3073" x1="192.204" y1="-50.6008" x2="386.492" y2="94.6611" gradientUnits="userSpaceOnUse">
<stop stop-color="#A8996E"/>
<stop offset="0.4417" stop-color="#FFE5C7"/>
<stop offset="1" stop-color="#A8996E"/>
</linearGradient>
<linearGradient id="paint10_linear_1_3073" x1="199.941" y1="-62.0987" x2="394.931" y2="83.6883" gradientUnits="userSpaceOnUse">
<stop stop-color="#A8996E"/>
<stop offset="0.4417" stop-color="#FFE5C7"/>
<stop offset="1" stop-color="#A8996E"/>
</linearGradient>
<linearGradient id="paint11_linear_1_3073" x1="208.795" y1="-72.9419" x2="403.118" y2="72.3461" gradientUnits="userSpaceOnUse">
<stop stop-color="#A8996E"/>
<stop offset="0.4417" stop-color="#FFE5C7"/>
<stop offset="1" stop-color="#A8996E"/>
</linearGradient>
<linearGradient id="paint12_linear_1_3073" x1="216.008" y1="-83.6593" x2="410.971" y2="62.1063" gradientUnits="userSpaceOnUse">
<stop stop-color="#A8996E"/>
<stop offset="0.4417" stop-color="#FFE5C7"/>
<stop offset="1" stop-color="#A8996E"/>
</linearGradient>
<linearGradient id="paint13_linear_1_3073" x1="223.612" y1="-91.7039" x2="417.257" y2="53.0773" gradientUnits="userSpaceOnUse">
<stop stop-color="#A8996E"/>
<stop offset="0.4417" stop-color="#FFE5C7"/>
<stop offset="1" stop-color="#A8996E"/>
</linearGradient>
<linearGradient id="paint14_linear_1_3073" x1="229.679" y1="-99.4495" x2="423.326" y2="45.3328" gradientUnits="userSpaceOnUse">
<stop stop-color="#A8996E"/>
<stop offset="0.4417" stop-color="#FFE5C7"/>
<stop offset="1" stop-color="#A8996E"/>
</linearGradient>
<clipPath id="clip0_1_3073">
<rect width="512" height="512" fill="white"/>
</clipPath>
<clipPath id="clip1_1_3073">
<rect width="390.5" height="512" fill="white" transform="translate(70.1581 -1.81348)"/>
</clipPath>
</defs>
</svg>
