<svg width="512" height="512" viewBox="0 0 512 512" fill="none" xmlns="http://www.w3.org/2000/svg">
<g clip-path="url(#clip0_1_3226)">
<path d="M513.611 326.874C513.514 326.585 513.322 326.393 513.033 326.393L482.038 314.456C482.615 312.242 483.77 309.258 485.888 306.178L501.867 313.205C502.445 313.494 502.926 313.59 503.503 313.59C504.947 313.59 506.295 312.82 507.065 311.569C507.45 310.895 508.701 308.873 509.76 306.274C511.3 302.135 511.685 298.381 510.723 295.301C509.76 292.028 507.45 289.525 503.985 287.985L461.342 268.445C461.342 268.445 461.15 268.349 461.053 268.252C459.417 267.578 456.337 266.712 452.583 267.964C452.583 266.616 452.583 265.268 452.583 263.921C452.583 260.648 452.486 257.182 452.294 253.717C452.101 250.156 451.812 246.498 451.427 242.744C448.925 221.182 443.919 205.299 441.898 199.524L441.128 197.598C432.753 174.304 426.208 155.822 426.4 133.779C426.496 117.126 447.288 93.8315 455.278 86.2271L462.786 79.1039L383.95 7.19867L377.693 11.3378C363.255 20.8674 344.58 26.0654 325.04 26.0654C304.633 26.0654 285.189 20.3861 270.557 10.0865L265.071 6.23608L259.584 10.0865C244.856 20.3861 225.508 26.0654 205.101 26.0654C185.561 26.0654 166.887 20.8674 152.448 11.3378L146.191 7.19867L74.9597 72.1733L67.3553 79.1039L74.7672 86.2271C82.7567 93.8315 103.549 117.126 103.741 133.779C103.837 155.822 97.2917 174.304 88.9172 197.598L88.2434 199.524C86.222 205.299 81.1203 221.182 78.7138 242.744C78.3288 246.498 78.04 250.156 77.8475 253.717C77.655 257.182 77.4624 260.648 77.4624 263.921C77.4624 265.268 77.4624 266.616 77.5587 267.964C73.8046 266.712 70.7243 267.578 69.1842 268.252C69.0879 268.349 68.8954 268.445 68.7992 268.445L26.1565 287.985C22.6912 289.525 20.3811 292.028 19.4185 295.301C18.4559 298.381 18.8409 302.135 20.381 306.274C21.4399 308.873 22.6913 310.895 23.1726 311.569C23.8464 312.82 25.194 313.59 26.6379 313.59C27.2154 313.59 27.6967 313.494 28.2743 313.205L44.2532 306.178C46.3709 309.258 47.4297 312.242 48.1035 314.456L17.1082 326.393C16.8195 326.393 16.6269 326.585 16.5307 326.874C16.4344 327.163 16.4344 327.355 16.5307 327.644L18.3596 332.361C37.7076 380.682 70.6281 422.17 113.463 452.01C153.314 479.733 200 496 248.418 498.984L264.397 514.771C264.589 514.963 264.782 515.06 265.071 515.06C265.263 515.06 265.552 514.963 265.744 514.771L281.723 498.984C330.142 496 376.827 479.733 416.582 452.01C459.513 422.17 492.434 380.682 511.782 332.361L513.611 327.644C513.707 327.355 513.707 327.163 513.611 326.874Z" fill="white"/>
<path d="M65.5456 290.325C64.0054 286.282 63.5241 282.143 64.1017 278.485C64.1979 278.292 64.1979 278.003 64.2942 277.715L64.6792 275.79L28.1972 292.539C26.0795 293.501 24.7319 294.849 24.2506 296.678C23.0955 300.528 25.5019 305.533 26.5608 307.555L27.0421 308.325L65.9306 291.191L65.5456 290.325Z" fill="#274488"/>
<path d="M464.605 290.325C466.145 286.282 466.627 282.143 466.049 278.485C465.953 278.292 465.953 278.003 465.857 277.715L465.375 275.79L501.954 292.539C504.071 293.501 505.419 294.849 505.9 296.678C507.055 300.528 504.649 305.533 503.59 307.555L503.109 308.325L464.22 291.191L464.605 290.325Z" fill="#274488"/>
<path d="M139.097 428.379L133.418 432.903L138.327 436.079L140.252 429.149C140.444 428.283 140.637 427.609 140.83 427.031C140.252 427.416 139.674 427.897 139.097 428.379Z" fill="#274488"/>
<path d="M337.149 449.969C334.261 450.932 333.106 454.205 334.839 459.114C336.572 464.408 339.171 466.045 342.347 464.986C345.331 464.023 346.486 461.039 344.657 455.841C342.925 450.451 340.326 448.911 337.149 449.969Z" fill="#274488"/>
<path d="M359.597 441.248L358.057 442.019L361.233 448.853C361.714 448.757 362.773 448.275 363.062 448.083C365.372 447.024 366.142 445.291 365.083 442.981C363.928 440.478 362.003 440.093 359.597 441.248Z" fill="#274488"/>
<path d="M306.953 241.04C306.953 240.944 302.429 239.692 299.156 239.115C295.113 238.441 292.706 238.345 291.936 238.249C291.07 238.056 288.856 238.056 288.952 236.805C288.952 235.938 289.915 235.746 290.878 235.65C292.321 235.553 296.076 235.938 298.289 236.227C303.584 236.997 306.953 238.056 306.953 237.864V231.222C306.953 231.029 299.541 228.526 291.551 227.66C286.161 227.179 283.658 227.275 280.482 227.179C279.904 227.179 278.653 227.371 278.653 226.312C278.653 225.254 279.808 225.157 280.193 225.061C284.236 224.676 289.434 224.58 294.824 224.965C300.792 225.35 306.856 227.468 306.856 227.275V220.152C304.546 219.093 301.177 218.034 298.386 217.553C294.824 216.975 290.107 216.687 289.434 216.687C288.76 216.687 288.471 216.302 288.375 216.013C288.279 215.532 288.567 215.146 289.241 214.954C290.3 214.761 292.899 214.665 296.076 214.761C298.386 214.858 303.969 215.435 306.76 215.82L306.664 210.334C301.37 207.542 293.188 206.194 287.894 205.424C279.904 204.173 272.588 203.98 271.337 203.98C270.663 203.884 269.989 203.884 269.893 203.21C269.893 202.633 270.278 202.152 271.337 202.152C272.3 202.152 278.556 201.959 288.375 202.825C293.091 203.21 302.429 205.039 306.664 205.906L306.568 200.515C301.851 198.205 294.439 196.472 283.754 194.932C270.663 193.007 245.636 193.873 244.288 194.066C242.459 194.162 242.171 193.777 242.074 193.103C241.978 192.429 242.652 192.044 244 191.756C245.347 191.563 262.481 189.927 276.342 190.6C286.835 191.082 301.947 194.066 306.568 194.932L306.471 190.697C298.578 185.306 285.583 184.729 284.717 184.729C283.851 184.632 283.273 184.247 283.177 183.766C283.081 183.285 283.658 182.9 284.332 182.804C285.006 182.707 286.931 182.515 290.974 182.804C294.247 182.996 303.006 184.825 306.471 185.595L306.375 181.36C300.503 177.894 286.931 175.873 276.439 174.91C276.439 174.91 275.187 174.814 272.877 174.718L272.685 177.509C272.685 178.376 272.011 178.953 271.145 178.953C264.984 178.664 262.77 178.664 256.609 178.953C255.839 178.953 255.069 178.376 255.069 177.509L254.877 174.718C249.294 174.91 242.748 175.392 235.433 176.162C234.374 176.258 233.315 176.547 233.219 175.777C233.026 175.295 233.315 174.91 234.662 174.525C235.721 174.333 250.256 172.311 253.914 171.926C254.107 171.926 254.395 171.926 254.684 171.926L253.722 154.022C253.722 153.637 253.914 153.252 254.107 152.867C254.395 152.578 254.781 152.386 255.166 152.386C262.674 152.097 265.273 152.097 272.588 152.386C272.973 152.386 273.358 152.578 273.647 152.867C273.84 153.156 274.032 153.541 274.032 153.83C277.401 153.926 280.77 154.118 283.466 154.311C289.145 154.6 302.525 156.525 306.086 157.006V152.867C305.413 152.386 304.45 152.097 303.68 151.712C299.926 150.268 285.391 147.765 264.695 147.765C243.903 147.765 231.486 150.461 229.561 150.942C227.443 151.519 225.133 152.29 225.229 153.637L225.518 200.515C225.229 203.692 225.614 216.302 225.71 219.286C225.807 224.195 233.507 227.275 250.353 233.147C267.968 239.596 290.204 246.527 306.953 251.147V241.04Z" fill="#274488"/>
<path d="M292.177 250.762C288.808 249.8 287.075 249.222 283.706 248.163C283.321 248.067 283.032 248.259 283.032 248.644C283.032 254.612 283.032 257.596 283.032 263.276C283.032 263.661 283.321 263.95 283.61 264.142C286.979 265.297 288.712 265.875 292.177 267.03C292.466 267.222 292.755 266.934 292.755 266.645C292.755 260.966 292.755 257.789 292.755 251.628C292.755 251.243 292.466 250.858 292.177 250.762Z" fill="#274488"/>
<path d="M277.96 246.421C274.494 245.362 272.858 244.881 269.393 243.726C269.104 243.629 268.815 243.822 268.815 244.111C268.815 249.79 268.815 252.678 268.815 258.357C268.815 258.646 269.104 259.031 269.393 259.127C272.762 260.282 274.494 260.956 277.96 262.111C278.248 262.207 278.537 262.111 278.537 261.726C278.537 256.047 278.537 253.063 278.537 247.191C278.537 246.902 278.248 246.517 277.96 246.421Z" fill="#274488"/>
<path d="M249.419 237.007C245.954 235.852 244.317 235.274 240.852 233.926C240.563 233.83 240.274 234.023 240.274 234.311V248.269C240.274 248.558 240.563 248.943 240.852 249.039C244.221 250.194 245.954 250.868 249.419 252.119C249.708 252.216 249.997 252.023 249.997 251.734C249.997 246.055 249.997 243.263 249.997 237.777C249.997 237.488 249.708 237.199 249.419 237.007Z" fill="#274488"/>
<path d="M298.299 133.865C298.01 133.384 297.818 132.807 297.433 132.037C294.064 130.785 285.593 128.667 279.529 128.09C278.374 127.994 276.641 127.897 276.641 127.031C276.641 126.261 277.315 125.972 279.24 125.972C284.149 126.069 292.042 127.32 295.508 127.994C294.545 125.876 293.39 123.373 292.139 120.678C285.593 118.175 273.176 117.405 270.962 117.213C268.555 116.924 267.785 116.635 267.978 115.865C268.074 115.095 269.614 115.191 273.368 115.095C277.7 114.999 287.229 115.769 289.925 116.058C289.058 114.132 288.096 112.111 287.133 109.897C283.475 107.394 276.545 106.913 274.62 106.817C272.791 106.721 272.117 106.047 272.213 105.469C272.309 104.795 273.272 104.603 274.042 104.507C274.716 104.507 282.705 104.41 283.379 104.314C283.86 104.314 284.342 104.025 283.957 103.351C283.187 101.619 282.705 100.56 281.839 98.8273C280.588 98.2497 278.951 97.7685 277.604 97.5759C276.448 97.3834 272.694 97.1909 270.769 96.9984C269.71 96.7096 269.518 96.5171 269.518 96.1321C269.518 95.6508 269.807 95.362 270.769 95.2657C273.176 95.0732 277.604 95.2657 278.566 95.1695C279.24 95.1695 280.01 94.8807 279.721 94.3031C279.24 93.148 278.759 92.1854 278.277 91.1266C277.219 90.6453 275.582 90.3565 274.234 90.0678C272.502 89.6827 269.229 89.3939 266.534 89.2977C265.86 89.2977 265.282 88.9127 265.282 88.5276C265.282 88.1426 265.571 87.7575 266.341 87.6613C268.17 87.3725 272.021 87.3725 273.561 87.2763C274.812 87.18 276.352 86.9875 275.871 85.9286C275.005 84.196 274.523 82.9446 273.657 81.3082C272.502 81.3082 270.48 81.212 269.037 81.0194C268.459 80.9232 267.689 80.8269 267.689 80.3456C267.593 79.8643 268.363 79.5756 269.037 79.2868C269.518 79.0943 271.154 78.613 272.309 78.3242C271.732 77.2654 271.347 76.3028 270.865 75.2439C269.229 75.1477 266.245 74.9551 263.935 74.9551C262.972 74.9551 262.491 74.4739 262.491 74.0888C262.491 73.7038 262.683 73.415 263.742 73.2225C265.475 72.7412 268.17 72.5487 269.518 72.4524C267.978 69.1796 266.534 66.0031 265.186 63.1153C254.598 85.7361 235.153 127.416 231.977 134.058C242.95 131.459 257.774 130.496 264.705 130.496C271.636 130.496 287.229 131.555 298.299 133.865Z" fill="#274488"/>
<path d="M235.125 231.886C231.756 230.634 230.023 230.057 226.558 228.709C226.269 228.613 225.98 228.709 225.98 229.094V243.244C225.98 243.629 226.269 244.014 226.558 244.014C230.023 245.266 231.756 245.843 235.125 247.095C235.51 247.095 235.702 246.998 235.702 246.613V232.656C235.702 232.367 235.51 232.078 235.125 231.886Z" fill="#274488"/>
<path d="M263.704 241.868C260.238 240.809 258.602 240.135 255.137 238.98C254.848 238.884 254.559 239.076 254.559 239.365V253.322C254.559 253.611 254.848 253.996 255.137 254.093C258.506 255.344 260.238 255.921 263.704 257.077C263.993 257.269 264.281 257.077 264.281 256.788C264.281 251.109 264.281 248.221 264.281 242.638C264.281 242.349 263.993 241.964 263.704 241.868Z" fill="#274488"/>
<path d="M236.058 312.887C236.058 309.229 233.363 306.534 229.801 306.534C224.796 306.534 222.678 310.288 222.293 316.738L231.342 316.449C234.711 316.449 236.058 315.39 236.058 312.887Z" fill="#274488"/>
<path d="M328.313 306.351C321.767 306.351 319.264 312.319 319.264 321.656C319.264 332.726 322.537 338.598 328.601 338.598C334.666 338.598 337.938 333.4 337.938 323.293C337.938 312.319 334.473 306.351 328.313 306.351Z" fill="#274488"/>
<path d="M286.931 163.224C287.701 163.128 291.166 163.128 295.69 163.706C299.06 164.187 303.969 165.246 306.183 165.727V161.877C301.562 159.951 290.974 158.026 285.295 157.352C281.829 156.871 277.786 156.486 273.84 156.197L273.07 171.31C275.091 171.406 276.439 171.406 276.439 171.406C279.038 171.599 281.637 171.695 284.236 171.984C294.247 172.946 302.621 174.872 306.279 175.642V170.251C300.6 165.534 287.509 165.149 286.738 165.149C285.968 165.149 285.198 164.957 285.198 164.187C285.198 163.417 286.161 163.32 286.931 163.224Z" fill="#274488"/>
<path d="M225.431 147.544C227.164 147.159 240.448 142.346 264.705 142.346C288.866 142.346 303.305 147.64 305.037 148.41C306.962 149.277 308.695 149.854 309.561 148.41C310.331 146.966 309.369 145.138 308.021 144.271C302.727 140.902 284.149 136.667 264.705 136.956C245.164 137.052 225.624 141.383 222.929 142.539C220.137 143.597 218.982 145.234 219.848 146.774C221.292 149.373 223.699 148.025 225.431 147.544Z" fill="#274488"/>
<path d="M306.375 254.978C303.006 253.919 301.274 253.438 297.905 252.475C297.519 252.379 297.327 252.572 297.327 252.957C297.231 259.31 297.231 262.486 297.231 268.166C297.231 268.551 297.519 268.839 297.808 269.032C301.274 270.187 303.006 270.765 306.375 272.016C306.664 272.112 306.953 271.92 306.953 271.631V255.845C306.953 255.459 306.664 255.074 306.375 254.978Z" fill="#274488"/>
<path d="M259.728 175.854C264.156 175.757 269.739 175.854 269.739 175.854L270.798 156.313C266.178 156.024 258.573 156.409 258.573 156.409L259.728 175.854Z" fill="#274488"/>
<path d="M370.079 440.334C372.486 445.436 369.79 449.767 364.881 451.981C364.496 452.174 363.437 452.655 363.052 452.751L366.133 459.297C366.421 459.874 366.325 460.259 365.555 460.644L362.379 462.088C361.801 462.377 361.32 462.281 361.031 461.607L351.501 441.393C351.116 440.623 351.309 440.334 351.983 439.949L357.084 437.639C360.742 435.906 363.63 435.425 366.133 436.387C367.865 437.157 369.309 438.601 370.079 440.334ZM458.348 347.637C458.06 347.059 457.963 346.578 458.348 345.904L459.696 343.786C459.985 343.209 460.37 343.113 460.947 343.498L480.777 354.375C481.451 354.76 481.547 355.241 481.162 355.722L479.237 358.706C478.852 359.477 478.274 359.477 477.504 358.995L466.915 352.931L474.905 364.193C475.386 364.771 475.194 365.252 474.905 365.637L474.231 366.696C473.942 367.273 473.557 367.562 472.787 367.466L458.733 365.926L458.637 366.022L469.129 372.76C469.996 373.242 469.899 373.723 469.418 374.3L467.878 376.803C467.493 377.477 467.012 377.669 466.338 377.188L447.856 364.674C447.182 364.097 447.182 363.712 447.471 363.134L448.819 361.017C449.3 360.247 449.685 360.15 450.455 360.247L468.167 362.076L468.263 361.979L458.348 347.637ZM449.396 382.097L439.867 374.397C439.385 373.915 439.482 373.434 439.867 372.953L442.081 370.258C442.562 369.776 442.947 369.584 443.525 370.065L453.247 378.054C459.311 383.156 459.504 388.547 455.076 393.648C450.455 399.231 445.257 399.231 439.482 394.515L429.76 386.525C429.182 386.044 429.375 385.466 429.76 384.985L431.974 382.386C432.455 381.809 432.744 381.712 433.321 382.194L442.755 389.894C447.086 393.456 449.493 392.975 451.61 390.472C453.632 388.065 453.632 385.563 449.396 382.097ZM421.674 394.611C421.481 394.033 421.578 393.456 422.155 392.878L423.888 391.242C424.465 390.761 424.85 390.857 425.235 391.242L441.503 406.932C441.503 407.028 441.599 407.028 441.599 407.028C441.984 407.51 441.984 407.991 441.503 408.376L438.904 410.782C438.23 411.456 437.749 411.264 437.075 410.494L428.508 401.927L433.225 414.922C433.514 415.595 433.225 415.98 432.936 416.269L431.974 417.135C431.396 417.617 431.107 417.809 430.337 417.521L417.15 412.323L417.053 412.419L425.428 421.66C426.102 422.43 425.813 422.718 425.235 423.296L423.118 425.221C422.54 425.799 422.059 425.895 421.578 425.317L421.481 425.221L407.043 408.28C406.465 407.606 406.561 407.221 407.043 406.74L408.968 405.007C409.545 404.429 410.027 404.429 410.7 404.718L427.257 411.167L427.353 411.071L421.674 394.611ZM411.182 429.649L412.626 428.687C413.107 428.301 413.588 428.494 413.877 428.879L414.936 430.419C415.225 430.708 415.225 431.189 414.84 431.478L407.524 436.869C407.043 437.157 406.561 437.061 406.272 436.772L405.214 435.232C404.829 434.751 404.925 434.27 405.31 433.981L406.658 433.018L396.358 419.157L394.818 420.312C394.336 420.601 393.855 420.408 393.566 420.023L392.508 418.579C392.219 418.194 392.219 417.713 392.604 417.424L400.304 411.841C400.689 411.552 401.171 411.552 401.46 411.938L402.615 413.478C402.903 413.959 402.903 414.344 402.422 414.729L400.882 415.788L411.182 429.649ZM393.085 445.147C393.566 445.917 393.47 446.013 392.893 446.398L389.427 448.42C388.85 448.805 388.753 448.708 388.272 448.131L378.454 431.767L372.871 435.04C372.293 435.425 371.812 435.328 371.523 434.655L370.175 432.441C369.79 431.863 369.983 431.478 370.561 431.189L385.384 422.43L386.924 421.467C387.502 421.178 387.791 421.275 388.08 421.66L389.331 424.355C389.62 424.932 389.331 425.317 388.657 425.703L383.267 428.879L393.085 445.147ZM335.715 445.436C342.838 443.125 348.132 447.072 350.346 453.81C352.945 461.318 350.057 467.479 343.704 469.596C336.966 471.81 331.576 468.345 329.169 461.126C326.667 454.003 329.073 447.649 335.715 445.436ZM309.34 474.217L311.073 473.928C311.65 473.928 312.035 474.217 312.132 474.698L312.42 476.527C312.517 477.008 312.228 477.393 311.746 477.49L302.794 479.03C302.313 479.126 301.832 478.837 301.832 478.452L301.447 476.527C301.351 475.95 301.639 475.565 302.121 475.468L303.757 475.179L300.869 458.238L298.944 458.527C298.366 458.623 298.078 458.238 297.981 457.757L297.596 455.928C297.596 455.543 297.789 455.158 298.27 455.061L307.704 453.425C308.185 453.329 308.57 453.714 308.666 454.003L308.955 455.928C309.051 456.505 308.762 456.89 308.281 456.987L306.356 457.275L309.34 474.217ZM280.655 463.436C280.847 464.591 282.291 465.072 283.158 465.457L287.393 466.997C290.281 467.96 292.206 469.693 292.495 472.966C292.88 477.971 289.029 481.244 284.216 481.629C281.906 481.821 279.115 481.533 276.708 480.955C276.131 480.859 275.938 480.57 275.938 480.281C275.938 480.089 275.938 479.896 276.034 479.704L276.805 476.72C276.805 476.431 276.997 476.046 277.478 476.046C277.575 476.046 277.863 476.046 278.056 476.142C279.885 476.72 281.906 476.912 283.639 476.816C285.179 476.72 286.912 475.757 286.815 474.024C286.719 472.677 285.564 472.195 284.409 471.714L279.596 469.885C276.805 468.923 274.976 466.901 274.687 463.917C274.302 459.489 278.633 456.505 282.773 456.217C285.372 456.024 287.586 456.313 289.896 457.083C290.473 457.275 290.666 457.468 290.762 457.853C290.762 457.949 290.666 458.142 290.666 458.43L289.703 461.222C289.607 461.703 289.414 461.8 289.126 461.896C288.933 461.896 288.741 461.8 288.452 461.8C286.912 461.318 284.987 460.837 283.543 461.029C282.099 461.126 280.559 461.8 280.655 463.436ZM64.5541 352.546L52.8106 359.765C52.1368 360.15 51.7517 359.958 51.3667 359.38L49.634 356.589C49.1528 355.915 49.1528 355.53 49.8266 355.049L68.982 343.401C69.8484 342.92 70.1371 343.209 70.6184 343.786L72.1586 346.289C72.4474 346.963 72.5436 347.348 72.2548 347.925L65.7093 364.289L77.5491 357.07C78.2229 356.685 78.7042 356.878 78.993 357.455L80.8219 360.439C81.3031 361.209 80.9181 361.498 80.4368 361.787L61.2814 373.434C60.5113 373.915 60.2225 373.723 59.8375 373.145L58.2973 370.546C57.9123 370.065 57.9123 369.487 58.1048 368.91L64.5541 352.642V352.546ZM74.9501 387.199C75.2389 387.68 75.0463 388.162 74.6613 388.45L73.2174 389.605C72.9286 389.798 72.3511 389.798 72.0623 389.509L66.5756 382.29C66.1905 381.809 66.383 381.327 66.5756 381.135L68.1157 379.98C68.597 379.595 69.0783 379.691 69.3671 380.076L70.4259 381.424L84.1909 370.835L83.0358 369.391C82.6508 368.91 82.8433 368.429 83.2283 368.14L84.7685 367.081C85.0572 366.792 85.5385 366.792 85.8273 367.177L91.6028 374.685C91.9879 375.07 91.8916 375.552 91.6028 375.84L90.0627 376.899C89.5814 377.381 89.1001 377.188 88.8113 376.803L87.56 375.359L73.795 385.755L74.9501 387.199ZM92.4692 405.296C92.9504 405.777 92.8542 406.258 92.3729 406.74L90.4477 408.568C89.8702 409.05 89.3889 408.953 88.9076 408.472L79.763 398.654C79.2817 398.076 79.1855 397.691 79.8593 397.114L96.4158 381.905C96.8971 381.52 97.3783 381.52 97.8596 382.001L100.266 384.6C100.747 385.178 100.844 385.563 100.266 386.044L86.4049 398.75L92.4692 405.296ZM116.823 420.697L114.512 415.98C113.165 413.381 113.261 410.686 115.09 408.376C117.978 404.814 123.079 405.681 126.352 408.28C128.277 409.916 129.721 411.649 130.876 413.766C131.165 414.344 131.165 414.633 130.973 414.825C130.876 415.018 130.684 415.114 130.491 415.21L127.892 416.654C127.507 416.847 127.219 416.847 126.93 416.654C126.834 416.558 126.737 416.365 126.545 416.173C125.871 414.729 124.716 413.189 123.561 412.323C122.502 411.36 120.865 410.782 119.807 412.034C119.133 412.996 119.807 414.344 120.192 415.307L122.213 419.253C123.561 421.948 123.753 424.547 121.732 427.05C118.555 430.997 113.55 430.708 109.699 427.724C107.967 426.28 106.042 424.162 104.79 422.141C104.405 421.563 104.405 421.275 104.694 421.082C104.79 420.89 104.983 420.793 105.175 420.697L107.678 419.061C108.063 418.868 108.352 418.676 108.737 418.964C108.833 419.157 108.929 419.253 109.026 419.446C109.988 421.082 111.336 422.622 112.683 423.777C113.839 424.74 115.764 425.317 116.919 423.97C117.689 422.911 117.304 421.756 116.823 420.697ZM136.171 439.756L130.973 436.387L129.914 435.713L126.448 438.505C126.063 438.794 125.582 438.986 125.005 438.601L121.636 436.387C121.347 436.195 121.347 435.906 121.443 435.617C121.539 435.521 121.636 435.425 121.732 435.328L141.272 420.986C141.754 420.697 142.235 420.601 142.716 420.89L145.796 422.911C146.47 423.296 146.567 423.777 146.47 424.259L141.369 447.649C141.272 447.938 141.272 448.035 141.176 448.131C140.887 448.516 140.599 448.708 140.117 448.42L136.844 446.206C136.074 445.724 136.074 445.243 136.171 444.665L137.229 440.526L136.171 439.756ZM152.246 432.344C151.668 431.959 151.572 431.574 151.861 430.997L153.112 428.59C153.401 428.109 153.786 427.916 154.363 428.301L169.669 436.195L171.305 437.061C171.883 437.35 171.979 437.735 171.69 438.12L170.15 440.623C169.669 441.2 169.187 441.104 168.61 440.719L163.027 437.927L154.171 454.676C153.786 455.35 153.69 455.446 153.016 455.158L149.454 453.232C148.78 452.944 148.78 452.847 149.166 452.174L158.021 435.328L152.246 432.344ZM178.621 462.57C179.102 462.762 179.198 463.243 179.102 463.725L178.332 465.457C178.236 465.842 177.754 466.131 177.273 465.842L168.899 462.57C168.417 462.281 168.225 461.8 168.321 461.511L169.091 459.682C169.284 459.104 169.669 459.008 170.246 459.201L171.69 459.778L178.236 443.799L176.503 443.125C175.925 442.837 175.829 442.355 176.022 441.97L176.792 440.238C176.888 439.853 177.273 439.564 177.754 439.756L186.61 443.318C187.091 443.51 187.284 443.895 187.188 444.377L186.418 446.109C186.129 446.687 185.744 446.783 185.263 446.591L183.434 445.917L176.984 461.896L178.621 462.57ZM198.546 456.409L202.012 459.297C204.322 461.318 205.477 463.725 204.514 466.805C203.07 471.618 198.257 473.254 193.637 471.907C191.423 471.233 188.92 469.982 186.899 468.538C186.418 468.249 186.321 467.96 186.418 467.671C186.418 467.479 186.61 467.286 186.706 467.094L188.439 464.687C188.632 464.302 188.92 464.11 189.402 464.206C189.498 464.302 189.69 464.302 189.883 464.591C191.423 465.65 193.156 466.612 194.888 467.19C196.332 467.575 198.354 467.383 198.835 465.746C199.22 464.398 198.45 463.532 197.487 462.762L193.541 459.297C191.423 457.372 190.364 454.773 191.231 451.981C192.578 447.649 197.68 446.494 201.627 447.746C204.033 448.42 206.054 449.478 207.883 451.019C208.365 451.5 208.461 451.789 208.365 452.077C208.365 452.174 208.268 452.366 208.076 452.462L206.247 454.773C205.958 455.254 205.766 455.35 205.381 455.254C205.284 455.158 205.092 455.061 204.803 454.869C203.648 453.906 201.915 452.847 200.568 452.462C199.22 451.981 197.487 452.077 197.006 453.714C196.717 454.773 197.872 455.831 198.546 456.409ZM248.601 458.238L245.809 480.281C245.713 481.148 245.232 481.34 244.654 481.244L241.67 480.859C240.996 480.762 240.515 480.474 240.226 479.896L231.467 464.784L229.638 478.356C229.542 479.126 229.157 479.319 228.483 479.222L225.21 478.837C224.44 478.741 224.055 478.549 224.247 477.682L226.943 455.543C227.039 454.676 227.52 454.484 228.29 454.676L231.178 454.965C231.948 455.061 232.237 455.35 232.526 455.928L241.285 471.137L243.114 457.468C243.21 456.698 243.595 456.505 244.269 456.602L247.734 456.987C248.601 457.083 248.601 457.66 248.601 458.238ZM509.847 331.562C490.691 379.595 458.06 420.697 415.513 450.345C375.855 477.971 329.458 494.142 281.232 497.03C280.944 497.03 280.751 497.126 280.559 497.319L265.061 512.72L249.563 497.319C249.371 497.126 249.178 497.03 248.89 497.03C200.76 494.142 154.267 477.971 114.609 450.345C72.1586 420.697 39.4306 379.595 20.2751 331.562L18.735 327.807L77.4528 305.283C78.993 304.609 80.6294 305.187 81.4957 306.534L81.5919 306.63C81.977 307.208 82.747 308.363 83.9021 309.422C84.3834 310.962 84.8647 312.502 85.4423 313.946C82.362 312.791 80.1481 309.903 79.2817 308.652L79.0892 308.267C78.9929 308.171 78.8004 308.074 78.6079 308.074C78.6079 308.074 78.5117 308.074 78.4154 308.074L74.2763 309.711L72.4474 310.481L72.7361 311.251C72.9286 311.636 73.0249 312.021 73.1212 312.214C74.8538 316.545 76.779 320.684 78.7042 324.823C79.0892 325.401 79.378 326.075 79.6668 326.652L81.4957 325.979L89.1964 323.187C89.6777 324.15 90.159 325.016 90.544 325.882L82.9396 328.674L81.0144 329.348C81.3032 329.925 81.5919 330.503 81.977 331.08C97.4746 360.343 119.614 385.466 147.048 404.718C178.236 426.376 214.333 438.794 252.259 441.2L255.531 444.377C215.777 442.644 177.754 429.842 145.315 407.125C111.336 383.445 85.2498 350.717 69.9446 312.406L69.5596 311.54L22.7779 329.54L23.1629 330.406C42.1259 377.958 74.3725 418.579 116.438 447.938C156 475.468 202.397 491.447 250.622 494.046L264.387 507.715L265.061 508.389L279.5 494.046C327.725 491.447 374.122 475.468 413.684 447.938C455.749 418.579 488.092 377.958 507.055 330.406L507.344 329.54L460.562 311.54L460.274 312.406C444.872 350.717 418.786 383.445 384.807 407.125C352.271 429.842 314.345 442.644 274.591 444.377L277.863 441.2C315.789 438.794 351.886 426.376 383.074 404.718C410.508 385.466 432.744 360.343 448.145 331.08C448.53 330.503 448.819 329.925 449.108 329.348L447.182 328.674L439.578 325.882C439.963 325.016 440.444 324.15 440.829 323.187L448.626 325.979L450.455 326.652C450.744 326.075 451.129 325.401 451.418 324.823C453.343 320.684 455.268 316.545 457.001 312.214C457.097 312.021 457.29 311.636 457.386 311.251L457.771 310.481L455.846 309.711L451.707 308.074C451.61 308.074 451.61 308.074 451.418 308.074C451.322 308.074 451.129 308.171 451.033 308.267L450.84 308.652C449.974 309.903 447.76 312.791 444.68 314.042C445.161 312.502 445.739 310.962 446.22 309.422C447.279 308.459 448.145 307.208 448.53 306.63L448.626 306.534C449.493 305.187 451.129 304.609 452.669 305.283L511.387 327.807L509.847 331.562ZM45.3987 304.417L44.9174 303.646L27.4945 311.443C26.4357 311.828 25.3769 311.443 24.8956 310.481C24.5105 310 23.2592 308.074 22.2966 305.572C21.334 302.973 20.3714 299.219 21.334 295.85C22.1041 293.154 24.0292 291.037 26.917 289.785L69.6558 270.245C69.7521 270.245 69.8484 270.148 69.9446 270.148C70.7147 269.763 72.1586 269.282 73.795 269.282C74.9501 269.282 76.2014 269.571 77.5491 270.052C77.6453 271.304 77.6453 272.362 77.7416 273.518C76.394 272.747 75.0463 272.266 73.6987 272.266C72.8324 272.266 71.9661 272.459 71.196 272.844L70.9072 272.94C68.982 273.903 67.6344 276.117 67.0569 279.101C66.4793 282.47 67.0569 286.416 68.7895 290.267L69.0783 291.037C69.4633 291.999 68.982 293.058 68.0195 293.539L47.7089 302.491L48.3827 303.454C50.7892 306.823 52.0405 310.096 52.8106 312.599L49.9228 313.754C49.249 311.251 47.9014 307.786 45.3987 304.417ZM250.141 439.082C213.37 436.387 178.428 424.066 148.203 402.985C121.154 384.119 99.2073 359.284 83.8059 330.406L91.5066 327.711C91.6991 328.192 91.9879 328.577 92.1804 329.059C93.913 332.139 95.742 335.219 97.7634 338.107C97.9559 338.396 98.2447 338.781 98.6297 339.262L98.726 339.551C133.09 390.953 183.53 423.007 240.996 429.842L250.141 439.082ZM266.216 478.356C266.794 478.356 267.082 478.741 267.082 479.222V481.148C267.082 481.533 266.794 481.918 266.312 481.918L257.168 481.821C256.59 481.821 256.301 481.436 256.301 481.051V479.126C256.301 478.452 256.686 478.26 257.168 478.26H258.9L259.093 461.029L257.264 460.933C256.686 460.933 256.398 460.548 256.398 460.067V458.238C256.398 457.757 256.686 457.372 257.168 457.372L266.697 457.564C267.275 457.564 267.564 457.949 267.564 458.334V460.259C267.564 460.837 267.179 461.126 266.697 461.126H264.772L264.483 478.356H266.216ZM438.615 327.711L446.316 330.406C431.011 359.284 409.064 384.119 381.919 402.985C351.694 424.066 316.752 436.387 279.981 439.082L289.126 429.842C346.592 423.007 397.032 390.953 431.3 339.551L431.492 339.262C431.781 338.781 432.07 338.396 432.359 338.011C434.284 335.219 436.209 332.139 437.845 329.059C438.134 328.577 438.423 328.192 438.615 327.711ZM80.8219 253.881C81.0144 250.319 81.3032 246.758 81.7845 243.1C84.0947 221.73 89.1001 206.233 91.1215 200.553L91.7953 198.628C100.266 175.045 106.908 156.371 106.715 133.75C106.619 116.135 85.1535 91.8773 76.8753 83.9842L71.7735 79.1712L76.9715 74.4545L146.47 11.0201L150.706 13.8116C165.722 23.6299 184.974 29.1167 205.092 29.1167C226.076 29.1167 246.098 23.1487 261.307 12.5602L265.061 9.96121L268.815 12.5602C284.024 23.1487 303.949 29.1167 325.03 29.1167C345.052 29.1167 364.4 23.6299 379.32 13.8116L383.555 11.0201L458.348 79.1712L453.247 84.0804C444.969 91.8773 423.503 116.135 423.407 133.75C423.214 156.371 429.856 175.045 438.327 198.628L439 200.553C441.022 206.233 446.027 221.73 448.338 243.1C448.723 246.758 449.108 250.319 449.3 253.881C449.396 257.25 449.589 260.715 449.589 263.988C449.685 288.63 444.872 310.096 435.246 327.615C433.61 330.599 431.781 333.583 429.856 336.278C429.663 336.663 429.375 337.048 428.99 337.626L428.797 337.818C394.914 388.643 345.052 420.312 288.259 426.954H287.778L265.061 449.671L242.344 426.954H241.863C185.07 420.312 135.112 388.643 101.229 337.818L101.132 337.626C100.747 337.048 100.459 336.663 100.266 336.374C98.3409 333.583 96.512 330.599 94.8756 327.615C85.2498 310.096 80.4368 288.63 80.5331 263.988C80.5331 260.715 80.6293 257.25 80.8219 253.881ZM452.477 270.148C453.921 269.571 455.268 269.282 456.327 269.282C457.963 269.282 459.311 269.763 460.177 270.148C460.274 270.148 460.37 270.245 460.466 270.245L503.205 289.785C506.093 291.037 508.018 293.154 508.788 295.85C509.847 299.219 508.788 302.973 507.825 305.572C506.863 308.074 505.611 310 505.226 310.481C504.745 311.443 503.59 311.828 502.724 311.443L485.205 303.646L484.723 304.417C482.221 307.786 480.873 311.251 480.199 313.754L477.408 312.599C478.081 310.096 479.333 306.823 481.739 303.454L482.413 302.491L462.103 293.539C461.14 293.058 460.659 291.999 461.044 291.037L461.332 290.267C463.065 286.416 463.643 282.47 463.065 279.101C462.584 276.117 461.14 273.903 459.215 272.94L459.022 272.844C458.156 272.459 457.29 272.266 456.423 272.266C455.076 272.266 453.728 272.747 452.38 273.614C452.477 272.362 452.477 271.304 452.477 270.148ZM513.601 326.845C513.505 326.652 513.312 326.46 513.12 326.364L482.124 314.427C482.702 312.31 483.761 309.229 485.878 306.149L501.857 313.272C502.435 313.465 502.916 313.561 503.494 313.561C504.938 313.561 506.285 312.791 507.055 311.54C507.44 310.866 508.692 308.941 509.751 306.245C511.291 302.106 511.676 298.449 510.713 295.272C509.751 291.999 507.44 289.496 503.975 287.956L461.332 268.512C461.332 268.416 461.236 268.32 461.044 268.32C459.407 267.549 456.327 266.683 452.573 267.935V263.988C452.573 260.619 452.477 257.154 452.284 253.688C452.092 250.127 451.803 246.469 451.418 242.811C448.915 221.153 443.91 205.366 441.792 199.591L441.118 197.666C432.84 174.275 426.198 155.793 426.391 133.846C426.487 117.193 447.279 93.8026 455.268 86.1981L462.776 79.075L383.94 7.26599L377.684 11.3089C363.245 20.8385 344.571 26.0364 325.03 26.0364C304.623 26.0364 285.179 20.3572 270.548 10.0575L265.061 6.20712L259.574 10.0575C244.847 20.3572 225.499 26.0364 205.092 26.0364C185.551 26.0364 166.877 20.8385 152.438 11.3089L146.182 7.26599L74.9501 72.1443L67.3456 79.075L74.7576 86.1981C82.747 93.8026 103.539 117.193 103.731 133.846C103.828 155.793 97.2821 174.275 88.9076 197.666L88.2338 199.591C86.2123 205.366 81.1106 221.153 78.7042 242.811C78.3191 246.469 78.0304 250.127 77.8378 253.688C77.6453 257.154 77.4528 260.619 77.4528 263.988C77.4528 265.336 77.4528 266.587 77.5491 267.935C73.795 266.683 70.7147 267.549 69.1746 268.32H69.0783C68.982 268.32 68.8858 268.416 68.7895 268.512L26.1469 287.956C22.6816 289.496 20.3714 291.999 19.4088 295.272C18.4462 298.449 18.8313 302.106 20.3714 306.245C21.4303 308.941 22.6816 310.866 23.1629 311.54C23.8367 312.791 25.1843 313.561 26.6282 313.561C27.2058 313.561 27.6871 313.465 28.2646 313.272L44.2436 306.149C46.3613 309.229 47.4201 312.31 48.0939 314.427L17.0986 326.364C16.8098 326.46 16.6173 326.652 16.521 326.845C16.4248 327.134 16.4248 327.422 16.521 327.615L18.35 332.332C37.698 380.75 70.6184 422.141 113.454 451.981C153.305 479.8 199.99 496.068 248.408 498.955L264.387 514.838C264.58 514.934 264.772 515.127 265.061 515.127C265.35 515.127 265.639 514.934 265.735 514.838L281.714 498.955C330.132 496.068 376.817 479.8 416.668 451.981C459.504 422.141 492.424 380.75 511.772 332.332L513.601 327.615C513.697 327.422 513.697 327.134 513.601 326.845Z" fill="#274488"/>
<path d="M251.806 376.977C253.924 375.725 256.138 374.185 256.138 371.201C256.138 368.602 254.213 366.581 251.517 366.581C248.918 366.581 246.897 368.506 246.897 371.105C246.897 373.896 249.111 375.436 251.806 376.977Z" fill="#274488"/>
<path d="M396.926 106.461C394.423 108.001 391.824 108.578 389.995 108.193C390.573 106.172 392.305 103.958 394.808 102.322C397.215 100.782 399.91 100.204 401.739 100.589C401.161 102.707 399.428 104.921 396.926 106.461ZM392.017 115.509C389.61 117.146 387.011 117.723 385.086 117.242C385.664 115.22 387.396 113.006 389.899 111.466C392.402 109.83 395.001 109.252 396.926 109.734C396.252 111.755 394.519 113.969 392.017 115.509ZM387.3 123.499C384.508 124.076 381.813 123.595 380.177 122.44C381.332 120.803 383.738 119.359 386.53 118.782C389.321 118.204 391.92 118.686 393.557 119.841C392.402 121.477 390.091 122.921 387.3 123.499ZM385.086 341.621C382.487 341.621 379.888 341.717 378.444 341.717C379.214 337.385 379.503 332.38 379.503 326.508V319.481C379.503 314.861 379.118 309.374 372.476 309.374C370.166 309.374 367.856 310.337 366.027 312.069C364.005 314.091 363.428 315.823 363.428 320.829V326.508C363.428 333.92 363.909 338.348 365.064 341.717C363.813 341.717 361.214 341.621 358.711 341.621C356.016 341.621 353.513 341.717 352.165 341.717C352.839 337.385 353.128 332.38 353.128 326.508V316.69C353.128 312.743 352.743 306.871 351.395 302.636C354.957 302.636 359.866 302.636 363.331 302.347L363.043 309.278L366.315 306.486C370.262 303.214 373.439 301.77 377.482 301.77C386.722 301.77 389.899 307.064 389.899 316.112V326.508C389.899 333.92 390.38 338.348 391.535 341.717C390.188 341.717 387.589 341.621 385.086 341.621ZM327.716 342.968C315.298 342.968 307.983 335.749 307.983 323.235C307.983 310.914 315.491 301.866 329.545 301.866C342.058 301.866 349.181 308.989 349.181 321.214C349.181 334.594 340.807 342.968 327.716 342.968ZM307.116 303.31C306.828 304.465 305.961 307.738 305.48 309.085C302.4 308.797 300.571 308.7 298.453 308.7H294.892C294.795 311.396 294.699 314.572 294.699 316.882V325.931C294.699 331.995 295.373 336.519 300.667 336.519C302.303 336.519 303.651 336.134 305.769 335.075C306.154 334.883 306.924 334.883 306.635 336.038C306.154 337.77 305.673 339.407 305.191 341.428C300.378 342.68 298.357 342.968 295.854 342.968C288.924 342.968 284.496 340.081 284.496 330.262V318.037C284.496 314.187 284.496 311.299 284.399 308.604C282.282 308.604 279.971 308.893 278.913 309.085C278.72 309.085 278.143 309.085 278.431 308.219C278.431 307.93 279.49 304.272 279.875 303.021C280.838 303.117 282.763 303.214 284.688 303.214C284.688 300.037 284.496 298.401 284.399 295.994C287.191 295.128 292.293 292.818 294.507 291.47C295.373 290.892 295.758 291.663 295.662 292.529C295.565 293.491 294.988 296.09 294.892 303.214H300.475C302.4 303.214 304.517 303.117 306.539 302.636C306.924 302.54 307.309 302.732 307.116 303.31ZM291.426 396.103C286.132 396.103 282.474 392.927 282.474 388.306C282.474 384.36 284.881 382.146 288.924 379.835C286.421 378.295 283.918 376.274 283.918 372.52C283.918 368.188 287.672 364.723 292.485 364.723C297.105 364.723 300.571 367.707 300.571 371.75C300.571 375.504 297.972 377.429 295.18 378.969C298.549 380.894 301.533 383.205 301.533 387.344C301.533 392.445 297.298 396.103 291.426 396.103ZM269.576 395.044L269.479 395.237H269.287C269.287 395.237 265.821 395.237 263.8 395.429L263.319 394.659L278.143 369.343H268.805C267.362 369.343 265.533 369.536 263.993 370.691L263.8 370.787L263.126 370.402L263.222 370.21C263.704 368.862 264.089 366.552 264.281 365.685V365.493H264.474C265.533 365.493 266.688 365.493 267.939 365.493H278.624C279.971 365.493 280.645 365.493 281.897 365.493L282.185 365.397V365.685C282.185 366.07 282.474 367.996 282.57 368.381L282.667 368.477L282.57 368.573C280.26 371.172 277.565 375.985 275.159 380.221C271.308 387.247 269.864 391.098 269.576 395.044ZM262.934 341.717C261.682 341.717 259.083 341.621 256.677 341.621C254.174 341.621 251.671 341.717 250.131 341.717C250.901 337.193 251.094 333.246 251.094 327.567V317.941C251.094 314.187 250.805 307.256 249.457 303.021C252.441 303.021 257.158 302.925 260.335 302.732L260.238 311.877L263.126 308.123C266.688 303.31 269.19 301.866 272.945 301.866C274.292 301.866 274.966 301.962 276.41 302.636C275.255 306.679 274.1 310.914 273.426 313.417C273.233 313.898 272.752 314.668 272.078 313.802C270.538 312.166 270.249 311.492 268.42 311.492C266.11 311.492 264.281 312.743 262.934 314.957C261.779 316.786 261.394 318.326 261.394 322.08V328.53C261.394 335.46 261.779 338.348 262.934 341.717ZM250.516 395.526C245.222 395.526 241.564 392.253 241.564 387.729C241.564 383.782 244.067 381.568 248.014 379.162C245.511 377.718 243.008 375.6 243.008 371.942C243.008 367.514 246.762 364.145 251.671 364.145C256.292 364.145 259.661 367.129 259.661 371.172C259.661 374.926 257.062 376.851 254.27 378.392C257.639 380.221 260.623 382.531 260.623 386.67C260.623 391.772 256.388 395.526 250.516 395.526ZM237.425 394.756C236.944 394.659 235.981 394.563 235.019 394.563C234.249 394.563 233.479 394.659 232.516 394.756H232.131L232.227 394.467C232.612 392.06 232.708 389.654 232.708 386.959V373.29C232.708 369.44 232.42 369.054 231.168 369.054C230.88 369.054 230.302 369.151 229.628 369.247L227.51 369.728C226.837 369.921 226.452 370.017 225.97 370.306L225.297 369.825L225.393 369.632C225.682 369.054 226.067 368.092 226.259 367.226L226.355 367.033C227.51 366.937 228.377 366.841 229.628 366.552L234.152 365.589C235.019 365.397 235.981 365.204 236.751 364.915H236.848L237.425 365.397L237.329 365.493C236.944 368.092 236.848 370.98 236.848 372.616V387.44C236.848 390.424 237.136 392.83 237.618 394.371L237.714 394.756H237.425ZM211.339 322.754C211.339 310.433 219.136 301.962 230.398 301.962C240.217 301.962 246.281 307.738 246.281 317.171C246.281 317.941 246.281 321.406 244.837 321.406H234.826C230.687 321.406 224.911 321.503 222.312 321.599C222.505 331.032 227.51 336.423 235.981 336.423C239.35 336.423 241.372 335.653 244.163 333.824C244.837 333.343 245.607 333.728 245.222 334.979C244.452 337.77 244.259 338.444 243.586 340.754C240.024 342.006 235.404 343.161 231.265 343.161C219.04 343.161 211.339 334.883 211.339 322.754ZM199.499 333.631C198.344 336.423 197.767 338.54 197.093 341.717C196.226 341.621 194.397 341.621 192.569 341.621C191.028 341.621 189.007 341.717 187.563 341.717C186.986 338.252 186.312 336.134 185.157 332.572L179.959 316.69C178.322 311.877 176.493 306.679 173.028 302.636C178.226 302.829 182.269 302.636 187.274 302.251C187.659 306.101 188.429 309.855 189.585 313.513L192.472 323.524C193.242 325.931 194.783 331.225 194.783 331.225C195.264 329.492 195.938 327.76 196.515 326.316L201.039 314.476C201.809 312.358 202.868 309.182 203.157 306.005C203.157 304.946 203.253 303.887 203.157 302.54C204.312 302.636 206.334 302.636 208.066 302.636C209.606 302.636 212.205 302.443 213.36 302.251C214.516 302.155 214.323 302.829 213.938 303.214C211.243 306.679 209.029 311.396 207.007 316.208L199.499 333.631ZM175.82 333.535C175.242 335.46 173.606 341.525 173.413 342.102C164.557 341.717 158.686 341.717 153.488 341.717C146.942 341.717 142.707 341.717 139.145 341.717C139.723 337.578 140.204 332.765 140.204 326.797V302.058C140.204 298.016 140.011 290.411 138.664 286.85C141.263 287.042 143.188 287.042 145.113 287.042H159.937C165.231 287.042 167.349 286.85 173.124 286.85C172.065 290.604 171.007 294.55 170.525 296.09C170.14 297.631 169.274 296.475 169.178 296.283C166.771 292.721 161.958 292.336 157.53 292.336C156.087 292.336 154.45 292.433 152.429 292.433C152.332 293.78 152.14 297.534 152.14 301V308.989H158.686C163.498 308.989 168.311 308.604 170.237 308.315C171.007 308.315 170.814 308.893 170.814 308.893C170.237 311.107 169.466 313.898 168.985 315.727C163.883 315.246 161.188 315.15 157.627 315.15H152.044V326.316C152.044 333.535 152.814 335.942 161.477 335.942C166.29 335.942 168.985 335.942 174.279 331.995C175.146 331.225 176.301 331.61 175.82 333.535ZM136.546 119.841C138.182 118.686 140.878 118.204 143.669 118.782C146.461 119.359 148.771 120.803 150.022 122.44C148.29 123.595 145.691 124.076 142.899 123.499C140.108 122.921 137.797 121.477 136.546 119.841ZM133.273 109.734C135.198 109.252 137.797 109.83 140.204 111.466C142.707 113.006 144.439 115.22 145.017 117.242C143.188 117.723 140.589 117.146 138.086 115.509C135.68 113.969 133.851 111.755 133.273 109.734ZM128.364 100.589C130.289 100.204 132.888 100.782 135.391 102.322C137.894 103.958 139.626 106.172 140.204 108.193C138.279 108.578 135.68 108.001 133.177 106.461C130.77 104.921 129.038 102.707 128.364 100.589ZM129.519 78.9308C131.348 79.7009 133.273 81.7223 134.621 84.5138C135.968 87.3053 136.45 90.1931 135.968 92.3108C134.14 91.5407 132.214 89.5193 130.867 86.7278C129.519 83.9363 129.038 81.0485 129.519 78.9308ZM135.006 71.5189C136.45 72.8665 137.797 75.4655 138.279 78.5458C138.76 81.7223 138.279 84.6101 137.316 86.439C135.776 85.0914 134.525 82.4924 134.043 79.4121C133.562 76.2356 133.947 73.3478 135.006 71.5189ZM137.894 69.7862C137.99 66.5134 139.049 63.8182 140.396 62.2781C141.551 64.0107 142.322 66.8022 142.129 70.075C141.936 73.1553 140.974 75.8505 139.626 77.3907C138.471 75.7543 137.701 72.8665 137.894 69.7862ZM141.07 94.9098C142.514 96.2574 143.765 98.8564 144.247 101.937C144.728 105.113 144.343 108.001 143.284 109.83C141.744 108.482 140.493 105.883 140.011 102.707C139.626 99.6264 140.011 96.7387 141.07 94.9098ZM138.182 102.418C136.257 102.033 133.947 100.493 132.118 98.0863C130.289 95.5836 129.327 92.8883 129.423 90.7706C131.348 91.0594 133.658 92.5995 135.391 95.006C137.22 97.5087 138.182 100.204 138.182 102.418ZM136.931 95.006C136.642 93.0808 137.124 90.5781 138.471 88.1716C139.819 85.7652 141.648 84.0325 143.284 83.455C143.669 85.3801 143.092 87.9791 141.744 90.3856C140.493 92.7921 138.567 94.5247 136.931 95.006ZM142.995 76.8131C144.921 75.0804 147.134 74.1179 148.867 74.2141C148.578 76.1393 147.327 78.3533 145.306 80.1822C143.38 81.9148 141.166 82.8774 139.434 82.7812C139.723 80.856 140.974 78.642 142.995 76.8131ZM145.594 66.6097C147.231 64.0107 149.348 62.2781 151.177 61.7005C151.466 63.9145 150.696 66.8022 149.06 69.305C147.52 72.0002 145.306 73.7328 143.477 74.2141C143.284 72.0964 143.958 69.2087 145.594 66.6097ZM151.177 121.092C149.348 120.322 147.52 118.301 146.172 115.509C144.824 112.718 144.535 109.734 145.017 107.712C146.749 108.482 148.675 110.504 150.022 113.295C151.274 116.183 151.659 119.071 151.177 121.092ZM157.338 126.001C155.99 127.638 153.584 128.889 150.792 129.274C147.905 129.659 145.306 128.985 143.765 127.734C145.017 126.194 147.52 124.942 150.311 124.557C153.103 124.172 155.701 124.75 157.338 126.001ZM159.841 120.803C162.151 122.632 163.787 124.942 164.269 126.964C162.343 127.349 159.841 126.579 157.434 124.75C155.028 123.114 153.391 120.707 152.91 118.589C154.835 118.301 157.338 119.071 159.841 120.803ZM165.327 128.408C165.424 128.408 165.424 128.504 165.424 128.504C166.194 128.889 166.964 129.178 167.734 129.563C167.734 129.563 168.6 128.985 170.237 128.408C171.873 127.734 174.087 127.541 176.397 128.215C179.189 128.889 181.403 130.429 182.558 132.162C180.921 133.221 178.322 133.509 175.435 132.836C172.836 132.162 170.622 130.718 169.466 129.082C169.081 129.37 168.793 129.659 168.408 129.948C171.392 131.777 173.798 134.087 176.205 137.167C175.242 138.611 174.857 139.381 173.894 140.825C172.065 136.782 170.237 133.509 167.734 130.718C165.135 133.509 162.921 136.879 161.188 140.825C160.226 139.381 159.744 138.707 158.878 137.264C161.188 134.183 163.883 131.777 166.964 129.948C166.675 129.659 166.29 129.37 166.001 128.985C164.75 130.718 162.632 132.162 159.937 132.836C157.145 133.509 154.45 133.221 152.814 132.162C153.873 130.429 156.183 128.889 158.974 128.215C161.381 127.541 163.595 127.734 165.231 128.408H165.327ZM175.435 120.803C177.841 119.071 180.344 118.301 182.269 118.589C181.788 120.707 180.151 123.114 177.841 124.75C175.435 126.579 172.836 127.349 171.007 126.964C171.392 124.942 173.028 122.632 175.435 120.803ZM184.964 124.557C187.756 124.942 190.162 126.194 191.51 127.734C189.873 128.985 187.274 129.659 184.387 129.274C181.595 128.889 179.189 127.638 177.937 126.001C179.477 124.75 182.076 124.172 184.964 124.557ZM185.253 113.295C186.601 110.504 188.429 108.482 190.258 107.712C190.74 109.734 190.355 112.718 189.007 115.509C187.756 118.301 185.83 120.322 184.002 121.092C183.617 119.071 183.905 116.183 185.253 113.295ZM184.002 61.7005C185.927 62.2781 188.044 64.0107 189.681 66.6097C191.221 69.2087 191.991 72.0964 191.702 74.2141C189.873 73.7328 187.756 72.0002 186.119 69.305C184.483 66.8022 183.809 63.9145 184.002 61.7005ZM195.841 82.7812C194.109 82.8774 191.895 81.9148 189.873 80.1822C187.852 78.3533 186.601 76.1393 186.312 74.2141C188.044 74.1179 190.258 75.0804 192.28 76.8131C194.301 78.642 195.553 80.856 195.841 82.7812ZM194.783 62.2781C196.226 63.8182 197.189 66.5134 197.285 69.7862C197.574 72.8665 196.804 75.7543 195.649 77.3907C194.301 75.8505 193.242 73.1553 193.05 70.075C192.954 66.8022 193.627 64.0107 194.783 62.2781ZM200.269 71.5189C201.328 73.3478 201.713 76.2356 201.232 79.4121C200.751 82.4924 199.403 85.0914 197.959 86.439C196.9 84.6101 196.515 81.7223 196.996 78.5458C197.478 75.4655 198.729 72.8665 200.269 71.5189ZM205.66 78.9308C206.141 81.0485 205.756 83.9363 204.408 86.7278C203.061 89.5193 201.039 91.5407 199.307 92.3108C198.825 90.1931 199.21 87.3053 200.558 84.5138C201.906 81.7223 203.831 79.7009 205.66 78.9308ZM195.071 108.193C195.649 106.172 197.382 103.958 199.884 102.322C202.387 100.782 204.89 100.204 206.815 100.589C206.237 102.707 204.505 104.921 202.002 106.461C199.499 108.001 196.9 108.578 195.071 108.193ZM194.205 94.9098C195.168 96.7387 195.649 99.6264 195.168 102.707C194.686 105.883 193.435 108.482 191.895 109.83C190.932 108.001 190.451 105.113 190.932 101.937C191.413 98.8564 192.665 96.2574 194.205 94.9098ZM199.788 95.006C201.617 92.5995 203.831 91.0594 205.756 90.7706C205.852 92.8883 204.89 95.5836 203.061 98.0863C201.232 100.493 199.018 102.033 197.093 102.418C197.093 100.204 197.959 97.5087 199.788 95.006ZM198.344 95.006C196.611 94.5247 194.783 92.7921 193.435 90.3856C192.087 87.9791 191.606 85.3801 191.895 83.455C193.531 84.0325 195.36 85.7652 196.708 88.1716C198.055 90.5781 198.633 93.0808 198.344 95.006ZM198.633 119.841C197.478 121.477 195.168 122.921 192.28 123.499C189.488 124.076 186.889 123.595 185.253 122.44C186.408 120.803 188.718 119.359 191.606 118.782C194.397 118.204 196.996 118.686 198.633 119.841ZM197.093 115.509C194.686 117.146 191.991 117.723 190.162 117.242C190.74 115.22 192.472 113.006 194.975 111.466C197.478 109.83 200.077 109.252 201.906 109.734C201.328 111.755 199.595 113.969 197.093 115.509ZM221.061 137.841L260.527 53.9998C259.083 50.8233 261.49 46.8766 264.57 46.8766C267.65 46.8766 270.538 50.8232 269.094 53.9035L308.849 137.264C315.587 140.536 318.571 144.675 318.186 147.467C317.897 150.451 315.78 152.28 313.277 153.243C313.469 168.355 312.796 221.971 312.988 252.581C316.357 253.352 316.357 256.913 316.068 268.464C315.876 279.534 316.839 283.288 309.523 283.288C308.56 283.288 306.635 283.192 306.635 283.192V279.438C306.539 277.512 306.539 276.935 305.48 276.55C302.4 275.299 299.127 274.24 295.565 272.796C293.063 271.929 217.788 244.977 217.788 244.977C217.788 244.977 214.323 244.014 214.323 240.645C214.323 240.357 214.227 237.469 214.227 236.506V225.725C214.227 222.934 216.056 221.971 217.692 222.164C217.788 222.164 217.788 221.875 217.788 221.682C217.692 211.768 217.596 159.884 217.596 154.398C214.131 153.339 213.168 150.932 213.168 150.932C211.532 147.371 213.264 141.98 221.061 137.841ZM330.315 102.322C332.721 103.958 334.55 106.172 335.128 108.193C333.203 108.578 330.604 108.001 328.197 106.461C325.694 104.921 323.865 102.707 323.288 100.589C325.213 100.204 327.812 100.782 330.315 102.322ZM324.443 78.9308C326.272 79.7009 328.197 81.7223 329.545 84.5138C330.892 87.3053 331.374 90.1931 330.892 92.3108C329.063 91.5407 327.138 89.5193 325.791 86.7278C324.443 83.9363 323.962 81.0485 324.443 78.9308ZM329.93 71.5189C331.47 72.8665 332.721 75.4655 333.203 78.5458C333.684 81.7223 333.299 84.6101 332.24 86.439C330.7 85.0914 329.448 82.4924 328.967 79.4121C328.486 76.2356 328.871 73.3478 329.93 71.5189ZM332.817 69.7862C333.01 66.5134 333.973 63.8182 335.32 62.2781C336.572 64.0107 337.245 66.8022 337.053 70.075C336.86 73.1553 335.898 75.8505 334.55 77.3907C333.299 75.7543 332.625 72.8665 332.817 69.7862ZM337.823 76.8131C339.844 75.0804 342.058 74.1179 343.887 74.2141C343.502 76.1393 342.251 78.3533 340.326 80.1822C338.304 81.9148 335.994 82.8774 334.261 82.7812C334.55 80.856 335.898 78.642 337.823 76.8131ZM340.518 66.6097C342.155 64.0107 344.272 62.2781 346.101 61.7005C346.39 63.9145 345.62 66.8022 344.08 69.305C342.347 72.0002 340.326 73.7328 338.4 74.2141C338.208 72.0964 338.882 69.2087 340.518 66.6097ZM346.101 121.092C344.272 120.322 342.347 118.301 341.096 115.509C339.748 112.718 339.363 109.734 339.844 107.712C341.673 108.482 343.598 110.504 344.85 113.295C346.197 116.183 346.582 119.071 346.101 121.092ZM338.593 118.782C341.385 119.359 343.695 120.803 344.85 122.44C343.213 123.595 340.614 124.076 337.823 123.499C335.031 122.921 332.721 121.477 331.47 119.841C333.203 118.686 335.801 118.204 338.593 118.782ZM340.037 117.242C338.112 117.723 335.513 117.146 333.01 115.509C330.507 113.969 328.775 111.755 328.197 109.734C330.122 109.252 332.721 109.83 335.128 111.466C337.63 113.006 339.363 115.22 340.037 117.242ZM335.994 94.9098C337.534 96.2574 338.785 98.8564 339.171 101.937C339.652 105.113 339.267 108.001 338.208 109.83C336.668 108.482 335.416 105.883 335.031 102.707C334.55 99.6264 334.935 96.7387 335.994 94.9098ZM333.01 102.418C331.181 102.033 328.871 100.493 327.042 98.0863C325.213 95.5836 324.25 92.8883 324.347 90.7706C326.272 91.0594 328.486 92.5995 330.315 95.006C332.144 97.5087 333.106 100.204 333.01 102.418ZM331.855 95.006C331.566 93.0808 332.047 90.5781 333.395 88.1716C334.743 85.7652 336.572 84.0325 338.304 83.455C338.593 85.3801 338.015 87.9791 336.668 90.3856C335.32 92.7921 333.491 94.5247 331.855 95.006ZM352.165 126.001C350.914 127.638 348.508 128.889 345.716 129.274C342.828 129.659 340.326 128.985 338.689 127.734C340.037 126.194 342.347 124.942 345.235 124.557C348.026 124.172 350.625 124.75 352.165 126.001ZM354.764 120.803C357.075 122.632 358.711 124.942 359.192 126.964C357.267 127.349 354.764 126.579 352.358 124.75C349.952 123.114 348.315 120.707 347.834 118.589C349.759 118.301 352.358 119.071 354.764 120.803ZM362.465 129.563C363.139 129.178 363.909 128.889 364.679 128.504C364.775 128.504 364.775 128.408 364.872 128.408C366.604 127.734 368.818 127.541 371.128 128.215C373.92 128.889 376.23 130.429 377.385 132.162C375.653 133.221 372.957 133.509 370.262 132.836C367.567 132.162 365.353 130.718 364.198 128.985C363.813 129.37 363.524 129.659 363.139 129.948C366.315 131.777 369.011 134.183 371.321 137.264C370.358 138.707 369.973 139.381 369.011 140.825C367.278 136.879 365.064 133.509 362.465 130.718C359.962 133.509 358.037 136.782 356.208 140.825C355.342 139.381 354.861 138.611 353.994 137.167C356.305 134.087 358.711 131.777 361.695 129.948C361.406 129.659 361.021 129.37 360.733 129.082C359.481 130.718 357.363 132.162 354.668 132.836C351.877 133.509 349.278 133.221 347.545 132.162C348.7 130.429 350.914 128.889 353.706 128.215C356.016 127.541 358.23 127.734 359.962 128.408C361.503 128.985 362.465 129.563 362.465 129.563ZM370.358 120.803C372.765 119.071 375.268 118.301 377.193 118.589C376.711 120.707 375.075 123.114 372.765 124.75C370.358 126.579 367.759 127.349 365.834 126.964C366.316 124.942 367.952 122.632 370.358 120.803ZM379.888 124.557C382.679 124.942 385.086 126.194 386.337 127.734C384.797 128.985 382.198 129.659 379.407 129.274C376.519 128.889 374.112 127.638 372.861 126.001C374.401 124.75 377 124.172 379.888 124.557ZM380.177 113.295C381.524 110.504 383.353 108.482 385.182 107.712C385.664 109.734 385.278 112.718 384.027 115.509C382.679 118.301 380.754 120.322 379.022 121.092C378.444 119.071 378.829 116.183 380.177 113.295ZM378.925 61.7005C380.851 62.2781 382.968 64.0107 384.605 66.6097C386.241 69.2087 386.915 72.0964 386.722 74.2141C384.797 73.7328 382.679 72.0002 381.043 69.305C379.407 66.8022 378.733 63.9145 378.925 61.7005ZM390.765 82.7812C389.033 82.8774 386.819 81.9148 384.797 80.1822C382.776 78.3533 381.524 76.1393 381.236 74.2141C382.968 74.1179 385.182 75.0804 387.204 76.8131C389.225 78.642 390.476 80.856 390.765 82.7812ZM389.803 62.2781C391.15 63.8182 392.113 66.5134 392.305 69.7862C392.402 72.8665 391.728 75.7543 390.573 77.3907C389.129 75.8505 388.166 73.1553 388.07 70.075C387.877 66.8022 388.551 64.0107 389.803 62.2781ZM395.193 71.5189C396.156 73.3478 396.637 76.2356 396.156 79.4121C395.674 82.4924 394.327 85.0914 392.883 86.439C391.824 84.6101 391.439 81.7223 391.92 78.5458C392.402 75.4655 393.653 72.8665 395.193 71.5189ZM394.712 95.006C396.541 92.5995 398.755 91.0594 400.68 90.7706C400.776 92.8883 399.814 95.5836 397.985 98.0863C396.156 100.493 393.942 102.033 392.017 102.418C391.92 100.204 392.883 97.5087 394.712 95.006ZM390.091 102.707C389.61 105.883 388.359 108.482 386.819 109.83C385.856 108.001 385.375 105.113 385.856 101.937C386.337 98.8564 387.589 96.2574 389.129 94.9098C390.091 96.7387 390.573 99.6264 390.091 102.707ZM388.359 90.3856C387.011 87.9791 386.53 85.3801 386.819 83.455C388.455 84.0325 390.284 85.7652 391.632 88.1716C392.979 90.5781 393.557 93.0808 393.172 95.006C391.535 94.5247 389.706 92.7921 388.359 90.3856ZM400.584 78.9308C401.065 81.0485 400.68 83.9363 399.236 86.7278C397.888 89.5193 395.963 91.5407 394.23 92.3108C393.749 90.1931 394.134 87.3053 395.482 84.5138C396.829 81.7223 398.755 79.7009 400.584 78.9308ZM448.713 79.2196L382.968 19.3467C367.471 29.4539 347.256 35.6144 325.021 35.6144C301.822 35.6144 280.742 28.8763 265.051 17.9028C249.361 28.8763 228.281 35.6144 205.082 35.6144C182.846 35.6144 162.632 29.4539 147.231 19.3467L81.3898 79.2196C81.3898 79.2196 113.155 109.349 113.348 133.702C113.444 158.152 106.225 177.885 97.2725 202.816C93.9997 212.153 90.1493 226.88 88.3204 243.918C87.9354 247.191 87.5503 250.753 87.3578 254.314C87.1653 257.491 87.1653 260.763 87.069 264.036C86.9728 284.251 90.4381 305.813 100.642 324.487C102.182 327.278 103.818 329.973 105.647 332.572C110.941 340.177 153.969 411.408 245.318 420.745L245.703 421.034L265.051 440.382L284.496 421.034L284.784 420.745C376.134 411.408 419.162 340.177 424.456 332.572C426.285 329.973 428.017 327.278 429.461 324.487C439.665 305.813 443.13 284.251 443.034 264.036C443.034 260.763 442.937 257.491 442.745 254.314C442.552 250.753 442.167 247.191 441.879 243.918C439.953 226.88 436.199 212.153 432.83 202.816C423.974 177.885 416.659 158.152 416.851 133.702C416.948 109.349 448.713 79.2196 448.713 79.2196Z" fill="#274488"/>
<path d="M292.687 377.583C294.805 376.332 297.019 374.792 297.019 371.807C297.019 369.209 295.094 367.187 292.398 367.187C289.799 367.187 287.874 369.112 287.874 371.711C287.874 374.503 289.992 376.043 292.687 377.583Z" fill="#274488"/>
<path d="M291.426 381.27C287.865 383.002 286.132 385.313 286.132 388.104C286.132 391.184 288.442 393.495 291.715 393.495C294.988 393.495 297.49 391.184 297.49 388.104C297.49 385.12 295.469 383.484 291.426 381.27Z" fill="#274488"/>
<path d="M250.536 380.673C246.974 382.406 245.241 384.716 245.241 387.507C245.241 390.588 247.552 392.898 250.824 392.898C254.097 392.898 256.6 390.491 256.6 387.507C256.6 384.523 254.578 382.887 250.536 380.673Z" fill="#274488"/>
</g>
<defs>
<clipPath id="clip0_1_3226">
<rect width="512" height="512" fill="white"/>
</clipPath>
</defs>
</svg>
