<svg width="512" height="512" viewBox="0 0 512 512" fill="none" xmlns="http://www.w3.org/2000/svg">
<path d="M45.2871 4.75909C65.7999 4.67703 86.3128 4.59498 106.744 4.75909C106.99 11.077 106.744 17.395 106.908 23.6309C114.292 23.7129 121.677 23.6309 129.061 23.7129C129.226 17.395 129.144 11.077 129.061 4.84114C149.985 4.67703 170.908 4.43088 191.831 4.92319C191.749 11.1591 191.667 17.395 191.831 23.7129C199.215 23.6309 206.6 23.7129 213.985 23.6309C213.902 17.3129 213.902 11.077 214.067 4.75909C234.99 4.59498 255.995 4.67703 276.918 4.75909C276.754 10.995 276.918 17.3129 276.836 23.6309C284.631 23.6309 292.344 23.7129 300.138 23.5488C300.056 17.395 300.056 11.1591 300.138 5.00524C320.815 4.34883 341.738 4.67703 362.497 4.84114C362.497 11.1591 362.415 17.395 362.579 23.6309C370.456 23.6309 378.333 23.7129 386.292 23.6309C386.046 17.3129 386.128 11.077 386.21 4.75909C406.395 4.67703 426.497 4.67703 446.682 4.75909C446.764 39.877 446.764 74.995 446.6 110.113C439.626 110.277 432.323 109.949 425.841 113.067C418.867 116.185 414.026 123.569 414.19 131.282C414.272 232.698 414.108 334.195 414.19 435.61C410.99 437.087 407.872 438.892 404.426 439.631C404.015 439.877 403.277 440.287 402.949 440.451C401.718 441.354 400.241 441.928 398.682 442.092C398.354 442.339 397.615 442.749 397.205 442.913C395.974 443.815 394.497 444.472 392.938 444.636C392.61 444.8 391.872 445.21 391.461 445.374C387.687 447.262 383.831 449.231 379.81 450.298C379.4 450.544 378.661 450.954 378.333 451.118C377.103 452.021 375.626 452.595 374.067 452.759C373.738 453.005 373 453.415 372.59 453.58C371.359 454.482 369.882 455.139 368.323 455.303C367.995 455.467 367.256 455.877 366.846 456.041C363.154 458.01 359.215 459.815 355.195 460.964C354.785 461.21 354.046 461.621 353.718 461.785C352.487 462.687 351.01 463.262 349.451 463.426C349.123 463.672 348.385 464 347.974 464.246C334.108 470.482 320.159 476.882 305.964 482.298C305.554 482.544 304.815 482.954 304.487 483.118C303.256 484.021 301.779 484.595 300.22 484.759C299.892 485.005 299.154 485.415 298.744 485.58C297.513 486.482 296.036 487.139 294.477 487.303C294.149 487.467 293.41 487.877 293 488.041C291.195 489.19 289.226 490.092 287.092 490.503C286.682 490.749 285.944 491.159 285.615 491.323C284.302 492.144 282.826 492.8 281.349 492.964C280.938 493.21 280.2 493.621 279.872 493.785C276.672 495.426 273.39 497.067 269.861 497.969C269.533 498.133 268.795 498.544 268.385 498.708C266.579 499.857 264.61 500.759 262.477 501.169C262.067 501.415 261.41 501.826 261 501.99C259.687 502.81 258.21 503.467 256.733 503.631C256.323 503.877 255.585 504.287 255.256 504.451C252.056 506.092 248.856 507.651 245.41 508.554C241.39 507.405 237.615 505.436 233.923 503.631C233.513 503.467 232.774 503.057 232.446 502.892C230.887 502.728 229.41 502.072 228.179 501.169C227.769 501.005 227.031 500.595 226.702 500.349C220.795 498.38 214.969 495.672 209.308 492.964C208.979 492.8 208.241 492.39 207.831 492.144C203.81 490.995 199.954 489.108 196.179 487.221C195.769 487.057 195.031 486.646 194.702 486.4C193.144 486.318 191.749 485.58 190.436 484.759C190.108 484.595 189.369 484.185 188.959 483.939C178.62 480 168.528 475.323 158.436 470.81C158.108 470.564 157.369 470.154 156.959 469.99C154.826 469.58 152.856 468.595 151.051 467.528C150.641 467.364 149.902 466.954 149.574 466.708C148.015 466.544 146.62 465.887 145.308 465.067C144.897 464.903 144.241 464.492 143.831 464.246C139.81 463.098 135.954 461.128 132.179 459.323C131.769 459.159 131.031 458.749 130.702 458.585C129.144 458.339 127.667 457.682 126.436 456.862C126.108 456.698 125.369 456.287 124.959 456.041C114.62 452.185 104.528 447.344 94.4358 442.913C94.0256 442.749 93.3692 442.339 92.9589 442.092C88.9384 440.862 85.082 439.057 81.3076 437.169C80.9794 437.005 80.241 436.595 79.8307 436.349C79.2563 436.185 78.1076 435.774 77.5333 435.528C78.0256 397.867 77.6153 360.123 77.6974 322.462C77.6153 314.421 78.0256 306.38 77.5333 298.421C77.2871 243.282 77.3692 188.062 77.4512 132.923C78.4358 124.062 72.6102 115.939 64.8974 112.164C64.5692 112 63.7486 111.672 63.4204 111.426C57.4307 110.031 51.3589 110.195 45.3692 110.113C45.3692 74.995 45.3692 39.877 45.2871 4.75909ZM52.8358 11.7334C52.9999 41.9283 52.9999 72.2052 52.8358 102.4C59.8102 103.139 67.1128 104.123 72.8563 108.554C79.5845 113.477 85.2461 121.026 85.4922 129.641C85.5743 229.99 85.6563 330.339 85.6563 430.605C138.908 453.744 192.077 477.046 245.41 499.692C299.318 477.046 352.815 453.169 406.723 430.441C406.723 329.354 406.723 228.267 406.723 127.18C408.446 111.836 424.364 102.154 438.887 102.564C438.805 72.2873 438.887 42.0104 438.887 11.7334C423.708 11.8155 408.528 11.8155 393.349 11.7334C393.349 18.2155 393.431 24.6975 393.267 31.1796C380.385 31.1796 367.503 31.3437 354.62 31.0975C354.62 24.6155 354.867 18.1334 354.538 11.6514C338.867 11.8155 323.277 11.8155 307.687 11.6514C307.277 18.1334 307.441 24.6155 307.523 31.0975C294.805 31.3437 282.005 31.2617 269.205 31.0975C269.041 24.6155 269.287 18.1334 269.041 11.7334C253.369 11.8155 237.615 11.7334 221.861 11.7334C221.944 18.2155 221.944 24.6975 221.861 31.1796C209.226 31.2616 196.59 31.3437 183.954 31.0975C183.872 24.6155 184.118 18.1334 183.708 11.7334C168.118 11.7334 152.528 11.8155 136.938 11.6514C136.61 18.1334 136.774 24.6155 136.856 31.0155C124.056 31.4258 111.256 31.1796 98.4563 31.1796C98.2922 24.6975 98.4563 18.2155 98.3743 11.7334C83.1948 11.8155 68.0153 11.7334 52.8358 11.7334Z" fill="#DE2C37" stroke="#DE2C37" stroke-width="0.0769231"/>
<path d="M276.918 4.75903C277.246 10.9949 277 17.2308 277.082 23.5488C284.631 23.6308 292.262 23.7129 299.81 23.4667C300.056 17.3129 299.4 11.077 300.139 5.00519C300.056 11.159 300.056 17.3949 300.139 23.5488C292.344 23.7129 284.631 23.6308 276.836 23.6308C276.918 17.3129 276.754 10.9949 276.918 4.75903Z" fill="#FEFEFE" stroke="#FEFEFE" stroke-width="0.0769231"/>
<path d="M52.8359 11.7334C68.0154 11.7334 83.1949 11.8155 98.3744 11.7334C98.4565 18.2155 98.2924 24.6975 98.4565 31.1796C111.256 31.1796 124.056 31.4257 136.856 31.0155C136.774 24.6155 136.61 18.1334 136.938 11.6514C152.528 11.8155 168.118 11.7334 183.708 11.7334C184.118 18.1334 183.872 24.6155 183.954 31.0975C196.59 31.3437 209.226 31.2616 221.862 31.1796C221.944 24.6975 221.944 18.2155 221.862 11.7334C237.615 11.7334 253.369 11.8155 269.041 11.7334C269.287 18.1334 269.041 24.6155 269.205 31.0975C282.005 31.2616 294.805 31.3437 307.523 31.0975C307.441 24.6155 307.277 18.1334 307.687 11.6514C323.277 11.8155 338.867 11.8155 354.539 11.6514C354.867 18.1334 354.621 24.6155 354.621 31.0975C367.503 31.3437 380.385 31.1796 393.267 31.1796C393.431 24.6975 393.349 18.2155 393.349 11.7334C408.528 11.8155 423.708 11.8155 438.887 11.7334C438.887 42.0103 438.805 72.2873 438.887 102.564C424.364 102.154 408.446 111.836 406.723 127.18C406.723 228.267 406.723 329.354 406.723 430.441C352.815 453.169 299.318 477.046 245.41 499.692C192.077 477.046 138.908 453.744 85.6565 430.605C85.6565 330.339 85.5744 229.99 85.4923 129.641C85.2462 121.026 79.5847 113.477 72.8565 108.554C67.1129 104.123 59.8103 103.139 52.8359 102.4C53 72.2052 53 41.9283 52.8359 11.7334ZM57.677 16.5744C57.5129 43.8155 57.5949 71.0565 57.5949 98.2155C72.6923 99.2001 88.3641 110.031 90.9077 125.539C90.9898 225.641 90.9077 325.744 90.9898 425.846C90.8257 427.077 91.2359 428.308 92.5488 428.554C143.585 450.708 194.374 473.19 245.41 495.262C297.431 472.862 349.287 450.051 401.226 427.487C401.554 328.205 401.226 228.923 401.39 129.559C401.964 112.574 417.472 99.036 434.046 98.1334C434.292 70.9744 434.21 43.8155 434.046 16.5744C422.067 16.7385 410.169 16.6565 398.19 16.5744C398.19 23.0565 398.518 29.4565 398.026 35.8565C381.944 35.6924 365.862 35.7744 349.78 35.8565C349.698 29.4565 349.944 23.0565 349.615 16.5744C337.308 16.6565 324.918 16.6565 312.61 16.5744C312.282 22.9744 312.446 29.4565 312.446 35.8565C296.446 35.7744 280.446 35.6924 264.446 35.8565C264.2 29.4565 264.528 23.0565 264.2 16.5744C251.728 16.6565 239.174 16.6565 226.703 16.5744C226.538 23.0565 226.949 29.4565 226.456 35.8565C210.621 35.7744 194.867 35.6924 179.031 35.8565C178.539 29.4565 178.949 23.0565 178.785 16.5744C166.313 16.6565 153.841 16.6565 141.369 16.5744C141.205 23.0565 141.615 29.4565 141.123 35.8565C125.369 35.6924 109.533 35.6924 93.6975 35.8565C93.2872 29.4565 93.6154 23.0565 93.4513 16.5744C81.5539 16.6565 69.5744 16.6565 57.677 16.5744Z" fill="#FEFEFE" stroke="#FEFEFE" stroke-width="0.0769231"/>
<path d="M57.677 16.5745C69.5745 16.6565 81.554 16.6565 93.4514 16.5745C93.6155 23.0565 93.2873 29.4565 93.6975 35.8565C109.533 35.6924 125.369 35.6924 141.123 35.8565C141.615 29.4565 141.205 23.0565 141.369 16.5745C153.841 16.6565 166.313 16.6565 178.785 16.5745C178.949 23.0565 178.539 29.4565 179.031 35.8565C194.867 35.6924 210.621 35.7745 226.457 35.8565C226.949 29.4565 226.539 23.0565 226.703 16.5745C239.174 16.6565 251.728 16.6565 264.2 16.5745C264.528 23.0565 264.2 29.4565 264.446 35.8565C280.446 35.6924 296.446 35.7745 312.446 35.8565C312.446 29.4565 312.282 22.9745 312.61 16.5745C324.918 16.6565 337.308 16.6565 349.615 16.5745C349.944 23.0565 349.698 29.4565 349.78 35.8565C365.862 35.7745 381.944 35.6924 398.026 35.8565C398.518 29.4565 398.19 23.0565 398.19 16.5745C410.169 16.6565 422.067 16.7386 434.046 16.5745C434.21 43.8155 434.292 70.9745 434.046 98.1334C417.472 99.036 401.964 112.574 401.39 129.559C401.226 228.923 401.554 328.205 401.226 427.487C349.287 450.051 297.431 472.862 245.41 495.262C194.374 473.19 143.585 450.708 92.5488 428.554C91.236 428.308 90.8257 427.077 90.9898 425.846C90.9078 325.744 90.9898 225.641 90.9078 125.539C88.3642 110.031 72.6924 99.2001 57.595 98.2155C57.595 71.0565 57.5129 43.8155 57.677 16.5745ZM85.4924 46.7693C85.5745 62.8514 85.4924 78.9334 85.5745 94.9334C192.651 94.8514 299.728 94.9334 406.805 94.9334C406.641 78.9334 406.641 62.9334 406.805 46.8514C404.426 46.7693 402.046 46.6873 399.667 46.6873C294.969 46.7693 190.19 46.6052 85.4924 46.7693ZM105.267 105.19C105.349 177.969 105.349 250.667 105.267 323.364C198.805 323.692 292.344 323.528 385.964 323.446C386.046 250.667 386.128 177.887 385.882 105.19C292.344 105.272 198.805 105.19 105.267 105.19ZM104.774 329.682C104.774 344.533 104.528 359.549 104.939 374.4V373.744C198.723 374.072 292.508 373.744 386.292 373.908C386.292 369.641 386.21 365.292 386.457 360.944C386.292 350.523 386.785 340.021 386.128 329.6V330.174C292.344 330.01 198.641 329.928 104.939 330.257L104.774 329.682ZM105.267 384C105.349 397.867 105.349 411.815 105.267 425.682C198.805 425.846 292.344 425.682 385.882 425.764C386.128 411.815 386.046 397.867 385.882 383.918C292.344 383.836 198.805 383.754 105.267 384ZM136.2 436.021C171.646 451.61 207.585 466.215 243.195 481.477C245.492 482.954 247.872 481.313 250.005 480.492C285.369 465.559 321.062 451.282 356.262 436.021C282.908 435.857 209.554 435.857 136.2 436.021Z" fill="#DE2C37" stroke="#DE2C37" stroke-width="0.0769231"/>
<path d="M85.4922 46.7693C190.19 46.6052 294.969 46.7693 399.667 46.6873C402.046 46.6873 404.426 46.7693 406.805 46.8514C406.641 62.9334 406.641 78.9334 406.805 94.9334C299.728 94.9334 192.651 94.8514 85.5742 94.9334C85.4922 78.9334 85.5742 62.8514 85.4922 46.7693ZM90.5794 51.7744C90.6614 64.5744 90.6614 77.3744 90.4973 90.1744C194.21 90.4206 297.841 90.2565 401.472 90.2565C401.636 77.3744 401.636 64.4924 401.472 51.6103C299.974 51.4462 198.395 51.6103 96.8973 51.5283C94.764 51.5283 92.6306 51.6103 90.5794 51.7744Z" fill="#FEFEFE" stroke="#FEFEFE" stroke-width="0.0769231"/>
<path d="M90.5794 51.7745C92.6306 51.6104 94.764 51.5283 96.8973 51.5283C198.395 51.6104 299.974 51.4463 401.472 51.6104C401.636 64.4924 401.636 77.3745 401.472 90.2565C297.841 90.2565 194.21 90.4206 90.4973 90.1745C90.6614 77.3745 90.6614 64.5745 90.5794 51.7745ZM139.4 63.0155C136.61 65.0668 136.938 69.4155 139.318 71.6309C141.943 74.0924 145.882 74.0924 148.754 76.1437C149.82 76.9642 148.836 78.6052 147.687 78.7693C144.241 79.754 140.877 77.8668 137.923 76.3899C137.841 78.0309 137.841 79.6719 137.759 81.3129C142.272 83.1181 147.769 84.3488 152.2 81.5591C155.4 79.9181 155.892 74.8309 153.267 72.4514C150.231 69.5796 145.472 69.7437 142.6 66.6258C146.128 64.0001 150.477 65.8052 154.005 67.2001C154.005 65.6411 154.005 64.1642 154.005 62.6052C149.41 60.9642 143.584 59.6514 139.4 63.0155ZM211.031 64.9027C207.01 68.5129 206.682 75.4052 210.62 79.0976C215.708 84.3488 224.159 84.1027 230.395 81.0668C230.395 79.5078 230.395 77.8668 230.395 76.3078C226.292 77.9488 221.369 79.836 217.185 77.4565C213.738 75.7334 212.754 70.5642 215.79 68.0206C219.646 64.4924 225.718 65.477 229.902 67.9386C229.985 66.1335 229.985 64.3283 229.82 62.5232C223.667 60.2258 215.954 60.0617 211.031 64.9027ZM304.815 61.1283C298.251 61.9488 292.343 68.595 294.805 75.4052C298.743 86.236 317.451 85.6617 320.487 74.3386C322.374 65.7232 312.528 59.4052 304.815 61.1283ZM105.267 61.4565C105.349 68.677 105.349 75.8155 105.267 83.036C107.4 83.1181 109.451 83.1181 111.502 83.036C111.502 75.8155 111.502 68.677 111.502 61.4565C109.451 61.3745 107.4 61.3745 105.267 61.4565ZM116.508 61.4565C116.426 68.595 116.343 75.7334 116.508 82.8719C118.477 82.8719 120.446 82.8719 122.415 82.8719C122.579 79.9181 122.579 77.0463 122.579 74.0924C126.026 74.1745 130.21 74.9129 132.754 71.9591C136.118 68.8411 134.149 62.5232 129.636 61.7027C125.287 60.9642 120.856 61.4565 116.508 61.4565ZM156.056 61.5386C159.42 68.3488 162.374 75.3232 165.738 82.1334C166.149 83.6104 168.61 83.6104 169.185 82.2155C171.482 78.1129 173.205 73.8463 175.667 69.9078C178.456 74.1745 180.343 78.9334 182.887 83.2822C183.543 83.2001 184.856 83.036 185.513 82.954C188.549 75.7334 192.077 68.677 195.277 61.5386C193.226 61.5386 191.01 60.8822 189.041 61.7847C187.072 65.2309 185.759 69.0873 183.872 72.5335C181.656 69.0052 180.015 65.1488 178.128 61.3745C176.487 61.3745 174.846 61.3745 173.205 61.4565C171.4 65.1488 169.677 69.0052 167.543 72.5335C165.574 69.0052 164.261 65.2309 162.292 61.7027C160.323 60.9642 158.108 61.4565 156.056 61.5386ZM197.82 61.3745C197.82 68.595 197.82 75.8976 197.82 83.1181C199.954 83.2001 202.087 83.1181 204.138 82.954C204.056 75.8155 204.056 68.677 204.138 61.5386C202.087 61.3745 199.954 61.3745 197.82 61.3745ZM234.661 61.3745C234.579 68.595 234.497 75.7334 234.661 82.8719C236.631 82.954 238.518 82.954 240.405 82.954C240.487 80.0001 240.569 77.0463 240.651 74.0924C244.343 74.1745 248.036 74.1745 251.728 74.0924C251.646 77.0463 251.728 80.0001 251.81 82.8719C253.697 82.8719 255.667 82.8719 257.554 82.7899C257.554 75.6514 257.472 68.595 257.554 61.4565C255.667 61.3745 253.697 61.3745 251.81 61.3745C251.728 64.1642 251.728 66.954 251.81 69.7437C248.036 70.0719 244.261 69.9899 240.569 69.8258C240.569 67.036 240.569 64.1642 240.487 61.3745C238.518 61.3745 236.631 61.3745 234.661 61.3745ZM270.19 61.5386C270.19 62.8514 270.272 64.1642 270.272 65.477C272.979 65.477 275.687 65.477 278.395 65.5591C278.559 71.3027 278.477 77.0463 278.395 82.7899C280.446 82.8719 282.497 82.7899 284.549 82.7899C284.385 77.0463 284.385 71.3027 284.549 65.5591C287.256 65.477 290.046 65.477 292.754 65.395C292.754 64.1642 292.754 62.8514 292.754 61.6206C285.287 61.1283 277.738 61.2924 270.19 61.5386ZM321.472 61.4565C324.508 68.8411 328.036 75.9796 331.4 83.2001C332.056 83.1181 333.369 83.036 334.026 83.036C336.241 78.5232 338.456 74.0104 340.836 69.6617C343.461 74.0104 345.431 78.6873 347.81 83.1181C348.467 83.1181 349.779 83.036 350.436 83.036C353.882 75.8976 357.246 68.7591 360.446 61.5386C358.313 61.5386 356.015 60.8001 354.128 61.8668C352.323 65.395 351.092 69.1693 348.959 72.5335C346.908 69.0873 345.513 65.3129 343.543 61.8668C341.82 61.0463 338.62 60.636 337.8 62.9334C336.077 66.1334 334.846 69.5796 332.631 72.5335C330.908 68.8411 329.267 65.0668 327.461 61.3745C325.492 61.3745 323.523 61.3745 321.472 61.4565ZM362.908 61.5386C363.072 68.595 362.99 75.6514 362.99 82.7899C364.877 82.7899 366.764 82.8719 368.651 82.954C368.815 78.5232 368.815 74.1745 368.733 69.8258C372.672 73.6822 376.364 77.7847 380.22 81.7232C381.697 83.5283 384.323 82.7078 386.292 82.7899C386.128 75.6514 386.128 68.595 386.292 61.5386C384.405 61.4565 382.518 61.3745 380.549 61.3745C380.467 65.477 380.467 69.6617 380.549 73.7642C376.856 70.154 373.328 66.4617 369.8 62.7693C368.159 60.554 365.205 61.5386 362.908 61.5386Z" fill="#3A64A3" stroke="#3A64A3" stroke-width="0.0769231"/>
<path d="M139.4 63.0154C143.585 59.6513 149.41 60.9641 154.005 62.6051C154.005 64.1641 154.005 65.641 154.005 67.2C150.477 65.8051 146.128 64 142.6 66.6256C145.472 69.7436 150.231 69.5795 153.267 72.4513C155.892 74.8308 155.4 79.918 152.2 81.559C147.769 84.3487 142.272 83.118 137.759 81.3128C137.841 79.6718 137.841 78.0308 137.923 76.3897C140.877 77.8667 144.241 79.7539 147.687 78.7692C148.836 78.6051 149.821 76.9641 148.754 76.1436C145.882 74.0923 141.944 74.0923 139.318 71.6308C136.938 69.4154 136.61 65.0667 139.4 63.0154Z" fill="#FEFEFE" stroke="#FEFEFE" stroke-width="0.0769231"/>
<path d="M211.031 64.9025C215.954 60.0615 223.667 60.2256 229.821 62.523C229.985 64.3281 229.985 66.1333 229.903 67.9384C225.718 65.4769 219.646 64.4922 215.79 68.0205C212.754 70.564 213.739 75.7333 217.185 77.4564C221.369 79.8358 226.292 77.9487 230.395 76.3076C230.395 77.8666 230.395 79.5076 230.395 81.0666C224.159 84.1025 215.708 84.3487 210.621 79.0974C206.682 75.4051 207.01 68.5128 211.031 64.9025Z" fill="#FEFEFE" stroke="#FEFEFE" stroke-width="0.0769231"/>
<path d="M304.815 61.1282C312.528 59.4051 322.374 65.723 320.487 74.3384C317.451 85.6615 298.743 86.2359 294.805 75.4051C292.343 68.5948 298.251 61.9487 304.815 61.1282ZM305.554 65.9692C301.123 66.3795 299.072 71.8769 301.205 75.4872C303.256 78.9333 308.179 79.5077 311.461 77.6205C314.826 75.7333 315.646 70.5641 312.938 67.8564C311.051 65.8871 308.097 65.5589 305.554 65.9692Z" fill="#FEFEFE" stroke="#FEFEFE" stroke-width="0.0769231"/>
<path d="M105.267 61.4563C107.4 61.3743 109.451 61.3743 111.503 61.4563C111.503 68.6768 111.503 75.8153 111.503 83.0358C109.451 83.1179 107.4 83.1179 105.267 83.0358C105.349 75.8153 105.349 68.6768 105.267 61.4563Z" fill="#FEFEFE" stroke="#FEFEFE" stroke-width="0.0769231"/>
<path d="M116.508 61.4564C120.856 61.4564 125.287 60.9641 129.636 61.7026C134.149 62.5231 136.118 68.841 132.754 71.959C130.21 74.9128 126.026 74.1744 122.579 74.0923C122.579 77.0462 122.579 79.9179 122.415 82.8718C120.446 82.8718 118.477 82.8718 116.508 82.8718C116.343 75.7333 116.426 68.5949 116.508 61.4564ZM122.497 65.4769C122.497 67.1179 122.579 68.759 122.579 70.4821C125.369 70.4821 129.143 70.1538 128.487 66.3795C126.518 65.559 124.549 65.3128 122.497 65.4769Z" fill="#FEFEFE" stroke="#FEFEFE" stroke-width="0.0769231"/>
<path d="M156.056 61.5384C158.108 61.4564 160.323 60.9641 162.292 61.7025C164.262 65.2307 165.574 69.0051 167.544 72.5333C169.677 69.0051 171.4 65.1487 173.205 61.4564C174.846 61.3743 176.487 61.3743 178.128 61.3743C180.015 65.1487 181.656 69.0051 183.872 72.5333C185.759 69.0871 187.072 65.2307 189.041 61.7846C191.01 60.882 193.226 61.5384 195.277 61.5384C192.077 68.6769 188.549 75.7333 185.513 82.9538C184.856 83.0359 183.544 83.2 182.887 83.282C180.344 78.9333 178.456 74.1743 175.667 69.9077C173.205 73.8461 171.482 78.1128 169.185 82.2153C168.61 83.6102 166.149 83.6102 165.738 82.1333C162.374 75.323 159.42 68.3487 156.056 61.5384Z" fill="#FEFEFE" stroke="#FEFEFE" stroke-width="0.0769231"/>
<path d="M197.821 61.3743C199.954 61.3743 202.087 61.3743 204.139 61.5384C204.056 68.6768 204.056 75.8153 204.139 82.9538C202.087 83.1179 199.954 83.1999 197.821 83.1179C197.821 75.8973 197.821 68.5948 197.821 61.3743Z" fill="#FEFEFE" stroke="#FEFEFE" stroke-width="0.0769231"/>
<path d="M234.662 61.3743C236.631 61.3743 238.518 61.3743 240.487 61.3743C240.569 64.164 240.569 67.0358 240.569 69.8255C244.262 69.9896 248.036 70.0717 251.81 69.7435C251.728 66.9538 251.728 64.164 251.81 61.3743C253.698 61.3743 255.667 61.3743 257.554 61.4563C257.472 68.5948 257.554 75.6512 257.554 82.7897C255.667 82.8717 253.698 82.8717 251.81 82.8717C251.728 79.9999 251.646 77.0461 251.728 74.0922C248.036 74.1743 244.344 74.1743 240.651 74.0922C240.569 77.0461 240.487 79.9999 240.405 82.9538C238.518 82.9538 236.631 82.9538 234.662 82.8717C234.498 75.7332 234.58 68.5948 234.662 61.3743Z" fill="#FEFEFE" stroke="#FEFEFE" stroke-width="0.0769231"/>
<path d="M270.19 61.5385C277.738 61.2923 285.287 61.1282 292.754 61.6205C292.754 62.8513 292.754 64.1641 292.754 65.3949C290.046 65.477 287.256 65.477 284.549 65.559C284.385 71.3026 284.385 77.0462 284.549 82.7898C282.497 82.7898 280.446 82.8718 278.395 82.7898C278.477 77.0462 278.559 71.3026 278.395 65.559C275.687 65.477 272.979 65.477 270.272 65.477C270.272 64.1641 270.19 62.8513 270.19 61.5385Z" fill="#FEFEFE" stroke="#FEFEFE" stroke-width="0.0769231"/>
<path d="M321.472 61.4565C323.523 61.3744 325.492 61.3744 327.461 61.3744C329.267 65.0667 330.908 68.8411 332.631 72.5334C334.846 69.5796 336.077 66.1334 337.8 62.9334C338.62 60.636 341.82 61.0462 343.543 61.8667C345.513 65.3129 346.908 69.0873 348.959 72.5334C351.092 69.1693 352.323 65.3949 354.128 61.8667C356.015 60.8001 358.313 61.5385 360.446 61.5385C357.246 68.759 353.882 75.8975 350.436 83.036C349.779 83.036 348.467 83.118 347.81 83.118C345.431 78.6873 343.461 74.0103 340.836 69.6616C338.456 74.0103 336.241 78.5231 334.026 83.036C333.369 83.036 332.056 83.118 331.4 83.2001C328.036 75.9796 324.508 68.8411 321.472 61.4565Z" fill="#FEFEFE" stroke="#FEFEFE" stroke-width="0.0769231"/>
<path d="M362.908 61.5384C365.205 61.5384 368.159 60.5537 369.8 62.7691C373.328 66.4614 376.856 70.1537 380.549 73.764C380.467 69.6614 380.467 65.4768 380.549 61.3743C382.518 61.3743 384.405 61.4563 386.292 61.5384C386.128 68.5948 386.128 75.6512 386.292 82.7896C384.323 82.7076 381.697 83.5281 380.221 81.723C376.364 77.7845 372.672 73.6819 368.733 69.8255C368.815 74.1743 368.815 78.523 368.651 82.9537C366.764 82.8717 364.877 82.7896 362.99 82.7896C362.99 75.6512 363.072 68.5948 362.908 61.5384Z" fill="#FEFEFE" stroke="#FEFEFE" stroke-width="0.0769231"/>
<path d="M122.497 65.4769C124.549 65.3128 126.518 65.559 128.487 66.3795C129.143 70.1539 125.369 70.4821 122.579 70.4821C122.579 68.759 122.497 67.118 122.497 65.4769Z" fill="#3A64A3" stroke="#3A64A3" stroke-width="0.0769231"/>
<path d="M305.554 65.9693C308.097 65.559 311.051 65.8872 312.938 67.8565C315.646 70.5641 314.826 75.7334 311.461 77.6206C308.179 79.5077 303.256 78.9334 301.205 75.4872C299.072 71.877 301.123 66.3795 305.554 65.9693Z" fill="#3A64A3" stroke="#3A64A3" stroke-width="0.0769231"/>
<path d="M105.267 105.19C198.805 105.19 292.344 105.272 385.882 105.19C386.128 177.887 386.046 250.667 385.964 323.446C292.344 323.528 198.805 323.692 105.267 323.364C105.349 250.667 105.349 177.969 105.267 105.19ZM111.585 110.769C111.42 177.231 111.585 243.692 111.503 310.154C111.42 312.779 111.503 315.487 111.749 318.113C201.185 318.031 290.62 318.031 379.974 318.113C380.138 316.308 380.303 314.42 380.303 312.615C380.138 245.333 380.385 178.051 380.138 110.769C290.62 110.769 201.103 110.769 111.585 110.769Z" fill="#FEFEFE" stroke="#FEFEFE" stroke-width="0.0769231"/>
<path d="M111.584 110.769C201.102 110.769 290.62 110.769 380.138 110.769C380.384 178.051 380.138 245.333 380.302 312.615C380.302 314.421 380.138 316.308 379.974 318.113C290.62 318.031 201.185 318.031 111.749 318.113C111.502 315.487 111.42 312.78 111.502 310.154C111.585 243.692 111.42 177.231 111.584 110.769ZM151.543 114.872C151.297 117.826 151.626 121.272 154.497 122.831C157.861 120.944 156.795 117.087 156.056 114.051C154.579 114.38 152.692 113.723 151.543 114.872ZM165.984 113.969C165.492 117.251 165 121.026 168.036 123.241C171.154 121.108 171.072 117.497 170.661 114.133C169.102 114.133 167.543 114.051 165.984 113.969ZM137.02 117.251C136.774 121.764 140.631 124.144 142.108 127.836C139.072 129.477 135.872 131.528 132.426 131.939C129.061 127.344 123.482 125.785 118.149 124.8C119.626 128.739 120.856 132.759 122.826 136.533C124.056 139.405 121.184 141.785 120.856 144.492C119.133 154.749 122.005 164.841 122.908 175.015C123.646 183.877 124.138 192.903 126.846 201.436C130.456 205.374 136.2 207.097 141.451 206.933C142.354 203.98 140.467 199.877 143.092 197.908C146.949 197.744 145.964 202.995 146.867 205.539C149.164 205.128 151.461 203.815 152.364 201.518C153.02 198.81 148.918 196.759 150.641 194.051C157.697 189.292 157.205 178.626 164.918 174.441C166.477 180.021 168.528 185.518 171.154 190.687C175.174 199.713 169.02 208.985 170.251 218.256C171.4 229.251 181.082 237.21 190.764 240.903C192.979 248.615 198.805 254.359 202.333 261.415C204.467 265.354 204.22 270.195 207.092 273.723C210.292 277.99 214.559 281.682 215.954 287.097C219.564 296.287 216.118 306.297 210.867 314.092C215.215 314.667 219.646 314.585 224.077 314.503C227.113 314.339 230.395 312.862 231.051 309.662C231.626 306.38 234.826 304.656 236.056 301.785C236.795 293.744 229.985 288.082 226.374 281.6C222.928 277.908 225.554 272.492 223.092 268.472C217.349 260.267 223.42 250.092 220.877 241.067C231.379 244.841 243.031 247.385 254.108 244.103C266.99 240.985 278.559 234.339 291.113 230.236C290.538 226.544 283.564 228.021 283.646 223.836C287.667 224.41 291.523 226.298 294.477 229.087C300.056 234.339 306.21 238.933 313.02 242.462C317.123 244.677 322.046 245.58 325.574 248.862C329.349 252.144 333.533 254.851 338.046 256.903C343.543 259.61 343.297 266.831 341.656 271.918C339.195 278.974 338.292 286.523 335.42 293.497C333.123 298.913 326.395 301.128 324.836 306.872C331.072 309.662 338.62 309.087 344.938 307.118C345.431 302.359 349.123 299.159 353.554 297.682C354.128 292.021 351.338 286.523 352.487 280.944C354.867 269.374 359.708 258.462 362.579 246.974C353.554 242.38 341.738 236.636 341.984 224.821C334.6 224.492 326.395 223.754 320.733 218.421C315.318 213.908 314.826 204.308 320.241 199.549C329.431 190.195 342.559 186.831 353.636 180.267C351.667 176.574 347.482 174.359 346.333 170.174C350.272 168.615 355.605 167.631 358.723 171.405C361.759 174.277 359.461 178.872 356.59 180.923C345.677 188.472 331.564 190.851 322.128 200.615C318.108 204.554 316.959 212.103 321.308 216.205C327.379 222.277 336.733 222.851 344.856 222.523C342.395 217.682 341.656 211.692 344.938 207.015C352.651 196.021 366.928 191.836 373.738 180.021C376.61 175.918 375.708 169.682 371.605 166.728C364.713 161.313 355.113 161.641 347.154 164.267C344.528 165.251 341.41 167.056 338.702 165.169C331.154 160.328 322.62 156.472 313.513 156.39C291.687 155.651 272.159 168.533 250.333 167.959C241.226 168.041 230.231 165.662 225.554 156.882C222.436 151.713 215.872 149.415 213.328 143.918C209.472 144.082 206.764 140.636 203.81 138.667C206.518 135.549 210.374 133.497 211.113 128.985C209.718 128.41 208.405 127.836 207.01 127.344C204.795 130.215 202.826 133.58 204.713 137.272C200.282 138.749 196.672 134.564 192.979 132.759C194.374 128.739 199.133 127.015 199.461 122.339C198.149 121.764 196.754 121.19 195.441 120.697C193.472 123.323 191.831 126.277 193.308 129.559C192.979 130.462 192.405 131.282 191.913 132.103C187.974 131.364 184.364 129.805 180.754 128.082C181.82 124.226 186.169 121.846 185.02 117.169C179.933 115.036 177.472 122.339 180.508 125.621C180.261 126.359 179.933 127.18 179.605 127.918C175.667 127.015 170.251 127.918 167.872 123.98C167.543 124.39 166.887 125.292 166.559 125.785C162.867 125.456 157.943 127.262 155.236 123.98C153.677 127.508 148.836 126.605 145.718 127.59C143.749 128.574 141.697 126.277 142.682 124.39C144.077 121.846 142.518 119.139 141.779 116.595C140.22 116.841 138.661 117.005 137.02 117.251ZM113.882 130.544C114.292 134.646 116.918 138.503 120.528 140.39C122.005 136.041 118.559 130.79 113.882 130.544ZM217.595 133.826C215.297 136.205 212.672 139.159 214.067 142.769C217.677 142.195 219.892 139.405 221.451 136.369C220.22 135.549 218.908 134.646 217.595 133.826ZM345.513 218.667C350.682 213.333 355.031 206.605 356.261 199.139C349.533 202.831 341.738 210.297 345.513 218.667ZM124.138 224.164C122.661 225.723 123.318 228.021 123.892 229.826C126.682 239.262 132.426 247.549 134.969 257.149C136.61 263.385 131.277 269.703 134.559 275.692C139.564 273.969 144.241 271.344 148.672 268.472C149.492 265.108 150.149 261.744 152.774 259.2C146.949 252.882 143.749 243.939 144.323 235.405C150.313 235.733 155.4 239.344 160.897 241.231C169.677 244.677 179.605 246.154 188.795 243.364C180.179 238.113 171.072 231.795 168.282 221.539C158.19 220.226 148.015 219.569 137.923 219.651C133.082 219.815 127.584 220.308 124.138 224.164ZM287.338 234.749C289.226 243.282 294.067 250.667 298.169 258.215C299.728 261.005 300.138 264.944 298.087 267.651C293.492 273.969 287.995 279.549 283.728 286.195C280.2 291.774 273.061 293.99 269.943 300.062C275.277 300.636 280.61 300.554 285.861 300.8C289.718 301.128 290.046 295.959 293 294.564C294.887 293.826 296.938 293.58 298.908 293.005C299.81 280.451 308.754 270.687 317.615 262.564C318.846 261.333 321.308 259.856 320.077 257.805C317.861 254.441 316.549 250.585 315.318 246.728C307.605 242.872 300.549 237.785 293.738 232.533C291.441 232.862 289.39 233.928 287.338 234.749ZM149.902 273.723C147.195 275.692 143.585 277.005 142.682 280.615C145.964 282.503 147.851 278.81 150.067 277.169C154.087 273.805 159.174 272.41 163.687 270.031C158.682 267.98 153.923 271.098 149.902 273.723ZM142.026 276.513C144.405 275.2 146.62 273.559 148.508 271.672C146.128 272.821 142.928 273.723 142.026 276.513ZM166.969 271.918C159.749 273.313 152.528 276.431 147.769 282.174C149.574 283.733 151.954 284.144 154.005 282.749C159.995 279.467 167.051 276.923 172.713 274.215C170.908 273.313 169.184 271.426 166.969 271.918ZM172.138 277.087C165.164 279.467 157.943 281.846 152.118 286.359C154.005 289.149 157.533 289.395 160.651 289.313C163.769 288.164 165.246 283.569 169.102 284.226C172.549 284.636 175.092 281.846 178.292 281.354C177.554 278.646 175.174 275.692 172.138 277.087ZM138.169 284.39C142.928 293.251 152.364 298.667 161.718 301.374C164.426 298.092 161.143 294.482 160.077 291.364C156.877 290.544 151.872 291.61 150.559 287.754C149.328 284.226 145.39 283.077 142.026 282.913C141.451 281.518 140.795 280.041 140.22 278.646C138.743 280.041 136.774 282.256 138.169 284.39ZM172.877 285.456C173.451 291.856 173.123 298.256 172.22 304.656C173.533 304.492 174.846 304.328 176.241 304.164C178.046 297.682 176.979 290.954 176.405 284.39C175.256 284.8 174.108 285.128 172.877 285.456ZM179.113 284.554C178.702 290.133 179.523 295.631 179.359 301.21C181.902 296.287 182.723 289.231 179.113 284.554ZM135.79 286.195C134.313 290.297 135.708 294.564 138.826 297.436C139.892 295.877 140.631 293.99 140.959 292.103C139.81 289.723 137.841 287.754 135.79 286.195ZM162.374 291.282C163.359 294.154 164.508 296.78 165.492 299.569C162.128 302.359 160.733 306.544 160.569 310.81C158.6 311.877 155.482 312.287 155.564 315.159C158.518 315.159 162.128 316.062 164.59 313.846C170.743 306.133 171.974 295.713 170.743 286.113C166.887 285.21 164.754 288.903 162.374 291.282ZM141.533 299.98C146.374 304.328 153.02 305.969 159.42 306.051C159.584 304.985 159.831 303.918 159.995 302.933C153.759 300.964 148.179 297.6 142.764 293.99C142.19 295.959 140.959 297.928 141.533 299.98ZM136.2 297.764C136.446 301.128 137.759 304.903 141.123 306.051C144.651 307.364 148.343 308.349 151.379 310.564C154.005 312.697 157.615 310.81 159.174 308.349C150.559 307.61 142.026 304.492 136.2 297.764ZM170.99 306.297C170.005 308.349 169.02 310.482 168.282 312.697C171.482 311.713 174.436 309.58 175.831 306.297C174.19 306.297 172.549 306.215 170.99 306.297ZM144.405 309.415C145.554 313.354 150.395 313.764 153.677 314.831C151.379 312.041 147.605 310.974 144.405 309.415Z" fill="#3A64A3" stroke="#3A64A3" stroke-width="0.0769231"/>
<path d="M63.4204 111.426C63.7486 111.672 64.5691 112 64.8973 112.164" stroke="#3A64A3" stroke-width="0.0769231"/>
<path d="M151.544 114.872C152.692 113.723 154.58 114.379 156.056 114.051C156.795 117.087 157.862 120.944 154.497 122.831C151.626 121.272 151.297 117.826 151.544 114.872Z" fill="#FEFEFE" stroke="#FEFEFE" stroke-width="0.0769231"/>
<path d="M165.984 113.969C167.543 114.051 169.102 114.133 170.661 114.133C171.072 117.497 171.154 121.108 168.036 123.241C165 121.026 165.492 117.251 165.984 113.969Z" fill="#FEFEFE" stroke="#FEFEFE" stroke-width="0.0769231"/>
<path d="M137.02 117.251C138.662 117.005 140.22 116.841 141.779 116.595C142.518 119.139 144.077 121.846 142.682 124.39C141.697 126.277 143.749 128.574 145.718 127.59C148.836 126.605 153.677 127.508 155.236 123.98C157.944 127.262 162.867 125.457 166.559 125.785C166.887 125.292 167.544 124.39 167.872 123.98C170.251 127.918 175.667 127.015 179.605 127.918C179.933 127.18 180.261 126.359 180.508 125.621C177.472 122.339 179.933 115.036 185.02 117.169C186.169 121.846 181.82 124.226 180.754 128.082C184.364 129.805 187.974 131.364 191.913 132.103C192.405 131.282 192.979 130.462 193.308 129.559C191.831 126.277 193.472 123.323 195.441 120.698C196.754 121.19 198.149 121.764 199.462 122.339C199.133 127.015 194.374 128.739 192.979 132.759C196.672 134.564 200.282 138.749 204.713 137.272C202.826 133.58 204.795 130.215 207.01 127.344C208.405 127.836 209.718 128.41 211.113 128.985C210.374 133.498 206.518 135.549 203.81 138.667C206.764 140.636 209.472 144.082 213.328 143.918C215.872 149.415 222.436 151.713 225.554 156.882C230.231 165.662 241.226 168.041 250.333 167.959C272.159 168.533 291.687 155.651 313.513 156.39C322.62 156.472 331.154 160.328 338.703 165.169C341.41 167.057 344.528 165.251 347.154 164.267C355.113 161.641 364.713 161.313 371.605 166.728C375.708 169.682 376.61 175.918 373.738 180.021C366.928 191.836 352.651 196.021 344.938 207.015C341.656 211.692 342.395 217.682 344.856 222.523C336.733 222.851 327.379 222.277 321.308 216.205C316.959 212.103 318.108 204.554 322.128 200.615C331.564 190.851 345.677 188.472 356.59 180.923C359.462 178.872 361.759 174.277 358.723 171.405C355.605 167.631 350.272 168.615 346.333 170.174C347.482 174.359 351.667 176.574 353.636 180.267C342.559 186.831 329.431 190.195 320.241 199.549C314.826 204.308 315.318 213.908 320.733 218.421C326.395 223.754 334.6 224.492 341.985 224.821C341.738 236.636 353.554 242.38 362.579 246.974C359.708 258.462 354.867 269.374 352.487 280.944C351.338 286.523 354.128 292.021 353.554 297.682C349.123 299.159 345.431 302.359 344.938 307.118C338.62 309.087 331.072 309.662 324.836 306.872C326.395 301.128 333.123 298.913 335.421 293.498C338.292 286.523 339.195 278.974 341.656 271.918C343.297 266.831 343.544 259.61 338.046 256.903C333.533 254.851 329.349 252.144 325.574 248.862C322.046 245.58 317.123 244.677 313.02 242.462C306.21 238.933 300.056 234.339 294.477 229.087C291.523 226.298 287.667 224.41 283.646 223.836C283.564 228.021 290.538 226.544 291.113 230.236C278.559 234.339 266.99 240.985 254.108 244.103C243.031 247.385 231.379 244.841 220.877 241.067C223.42 250.092 217.349 260.267 223.092 268.472C225.554 272.492 222.928 277.908 226.374 281.6C229.985 288.082 236.795 293.744 236.056 301.785C234.826 304.657 231.626 306.38 231.051 309.662C230.395 312.862 227.113 314.339 224.077 314.503C219.646 314.585 215.215 314.667 210.867 314.092C216.118 306.298 219.564 296.287 215.954 287.098C214.559 281.682 210.292 277.99 207.092 273.723C204.22 270.195 204.467 265.354 202.333 261.415C198.805 254.359 192.979 248.615 190.764 240.903C181.082 237.21 171.4 229.251 170.251 218.257C169.02 208.985 175.174 199.713 171.154 190.687C168.528 185.518 166.477 180.021 164.918 174.441C157.205 178.626 157.697 189.292 150.641 194.051C148.918 196.759 153.02 198.81 152.364 201.518C151.462 203.815 149.164 205.128 146.867 205.539C145.964 202.995 146.949 197.744 143.092 197.908C140.467 199.877 142.354 203.98 141.451 206.933C136.2 207.098 130.456 205.374 126.846 201.436C124.138 192.903 123.646 183.877 122.908 175.015C122.005 164.841 119.133 154.749 120.856 144.492C121.185 141.785 124.056 139.405 122.826 136.533C120.856 132.759 119.626 128.739 118.149 124.8C123.482 125.785 129.062 127.344 132.426 131.939C135.872 131.528 139.072 129.477 142.108 127.836C140.631 124.144 136.774 121.764 137.02 117.251ZM125.533 156.882C124.631 159.426 126.026 161.969 127.174 164.267C128.815 162.133 131.605 159.836 130.62 156.8C130.046 154.503 126.19 154.585 125.533 156.882ZM128.077 197.498C128.241 198.482 128.405 199.467 128.651 200.451C130.128 201.846 132.015 202.585 133.82 203.405C133.738 200.369 130.867 198.236 128.077 197.498Z" fill="#FEFEFE" stroke="#FEFEFE" stroke-width="0.0769231"/>
<path d="M113.882 130.544C118.559 130.79 122.005 136.041 120.528 140.39C116.918 138.503 114.292 134.646 113.882 130.544Z" fill="#FEFEFE" stroke="#FEFEFE" stroke-width="0.0769231"/>
<path d="M217.595 133.826C218.908 134.646 220.22 135.549 221.451 136.369C219.892 139.405 217.677 142.195 214.067 142.769C212.672 139.159 215.297 136.205 217.595 133.826Z" fill="#FEFEFE" stroke="#FEFEFE" stroke-width="0.0769231"/>
<path d="M125.533 156.882C126.19 154.585 130.046 154.503 130.621 156.8C131.605 159.836 128.815 162.133 127.174 164.267C126.026 161.969 124.631 159.426 125.533 156.882Z" fill="#3A64A3" stroke="#3A64A3" stroke-width="0.0769231"/>
<path d="M128.077 197.497C130.867 198.236 133.738 200.369 133.82 203.405C132.015 202.584 130.128 201.846 128.651 200.451C128.405 199.467 128.241 198.482 128.077 197.497Z" fill="#3A64A3" stroke="#3A64A3" stroke-width="0.0769231"/>
<path d="M345.513 218.667C341.738 210.297 349.533 202.831 356.261 199.138C355.031 206.605 350.682 213.333 345.513 218.667Z" fill="#FEFEFE" stroke="#FEFEFE" stroke-width="0.0769231"/>
<path d="M124.139 224.164C127.585 220.308 133.082 219.815 137.923 219.651C148.015 219.569 158.19 220.226 168.282 221.539C171.072 231.795 180.18 238.113 188.795 243.364C179.605 246.154 169.677 244.677 160.897 241.231C155.4 239.344 150.313 235.733 144.323 235.405C143.749 243.939 146.949 252.882 152.774 259.2C150.149 261.744 149.492 265.108 148.672 268.472C144.241 271.344 139.564 273.969 134.559 275.692C131.277 269.703 136.61 263.385 134.969 257.149C132.426 247.549 126.682 239.262 123.892 229.826C123.318 228.021 122.662 225.723 124.139 224.164Z" fill="#FEFEFE" stroke="#FEFEFE" stroke-width="0.0769231"/>
<path d="M287.338 234.749C289.39 233.928 291.441 232.862 293.738 232.533C300.549 237.785 307.605 242.872 315.318 246.728C316.549 250.585 317.862 254.441 320.077 257.805C321.308 259.857 318.846 261.333 317.615 262.564C308.754 270.687 299.81 280.451 298.908 293.005C296.938 293.58 294.887 293.826 293 294.564C290.046 295.959 289.718 301.128 285.862 300.8C280.61 300.554 275.277 300.636 269.944 300.062C273.062 293.99 280.2 291.774 283.728 286.195C287.995 279.549 293.492 273.969 298.087 267.651C300.138 264.944 299.728 261.005 298.169 258.216C294.067 250.667 289.226 243.282 287.338 234.749Z" fill="#FEFEFE" stroke="#FEFEFE" stroke-width="0.0769231"/>
<path d="M149.903 273.723C153.923 271.097 158.682 267.979 163.687 270.031C159.174 272.41 154.087 273.805 150.067 277.169C147.851 278.81 145.964 282.503 142.682 280.615C143.585 277.005 147.195 275.692 149.903 273.723Z" fill="#FEFEFE" stroke="#FEFEFE" stroke-width="0.0769231"/>
<path d="M142.026 276.513C142.928 273.723 146.128 272.821 148.508 271.672C146.621 273.559 144.405 275.2 142.026 276.513Z" fill="#FEFEFE" stroke="#FEFEFE" stroke-width="0.0769231"/>
<path d="M166.969 271.918C169.185 271.426 170.908 273.313 172.713 274.215C167.051 276.923 159.995 279.467 154.005 282.749C151.954 284.144 149.574 283.733 147.769 282.174C152.528 276.431 159.749 273.313 166.969 271.918Z" fill="#FEFEFE" stroke="#FEFEFE" stroke-width="0.0769231"/>
<path d="M172.138 277.087C175.174 275.692 177.554 278.646 178.292 281.354C175.092 281.846 172.549 284.636 169.103 284.226C165.246 283.569 163.769 288.164 160.651 289.313C157.533 289.395 154.005 289.149 152.118 286.359C157.944 281.846 165.164 279.467 172.138 277.087Z" fill="#FEFEFE" stroke="#FEFEFE" stroke-width="0.0769231"/>
<path d="M138.169 284.39C136.774 282.256 138.744 280.041 140.22 278.646C140.795 280.041 141.451 281.518 142.026 282.913C145.39 283.077 149.328 284.226 150.559 287.754C151.872 291.61 156.877 290.544 160.077 291.364C161.144 294.482 164.426 298.092 161.718 301.374C152.364 298.667 142.928 293.251 138.169 284.39Z" fill="#FEFEFE" stroke="#FEFEFE" stroke-width="0.0769231"/>
<path d="M172.877 285.456C174.108 285.128 175.256 284.8 176.405 284.39C176.979 290.954 178.046 297.682 176.241 304.164C174.846 304.328 173.533 304.492 172.22 304.656C173.123 298.256 173.451 291.856 172.877 285.456Z" fill="#FEFEFE" stroke="#FEFEFE" stroke-width="0.0769231"/>
<path d="M179.113 284.554C182.723 289.231 181.903 296.287 179.359 301.21C179.523 295.631 178.703 290.133 179.113 284.554Z" fill="#FEFEFE" stroke="#FEFEFE" stroke-width="0.0769231"/>
<path d="M135.79 286.195C137.841 287.754 139.81 289.723 140.959 292.103C140.631 293.99 139.892 295.877 138.826 297.436C135.708 294.564 134.313 290.297 135.79 286.195Z" fill="#FEFEFE" stroke="#FEFEFE" stroke-width="0.0769231"/>
<path d="M162.374 291.282C164.754 288.903 166.887 285.21 170.744 286.113C171.974 295.713 170.744 306.133 164.59 313.846C162.128 316.062 158.518 315.159 155.564 315.159C155.482 312.287 158.6 311.877 160.569 310.81C160.733 306.544 162.128 302.359 165.492 299.569C164.508 296.779 163.359 294.154 162.374 291.282Z" fill="#FEFEFE" stroke="#FEFEFE" stroke-width="0.0769231"/>
<path d="M141.533 299.98C140.959 297.928 142.19 295.959 142.764 293.99C148.179 297.6 153.759 300.964 159.995 302.933C159.831 303.918 159.585 304.985 159.421 306.051C153.021 305.969 146.374 304.328 141.533 299.98Z" fill="#FEFEFE" stroke="#FEFEFE" stroke-width="0.0769231"/>
<path d="M136.2 297.764C142.026 304.492 150.559 307.61 159.174 308.349C157.615 310.81 154.005 312.697 151.379 310.564C148.344 308.349 144.651 307.364 141.123 306.051C137.759 304.903 136.446 301.128 136.2 297.764Z" fill="#FEFEFE" stroke="#FEFEFE" stroke-width="0.0769231"/>
<path d="M77.5333 298.42C78.0257 306.379 77.6154 314.42 77.6974 322.461C77.6154 360.123 78.0257 397.867 77.5333 435.528L77.6154 436.102C77.2051 390.236 77.3692 344.287 77.5333 298.42Z" fill="#3A64A3" stroke="#3A64A3" stroke-width="0.0769231"/>
<path d="M170.99 306.297C172.549 306.215 174.19 306.297 175.831 306.297C174.436 309.58 171.482 311.713 168.282 312.697C169.02 310.482 170.005 308.349 170.99 306.297Z" fill="#FEFEFE" stroke="#FEFEFE" stroke-width="0.0769231"/>
<path d="M144.405 309.416C147.605 310.975 151.379 312.041 153.677 314.831C150.395 313.764 145.554 313.354 144.405 309.416Z" fill="#FEFEFE" stroke="#FEFEFE" stroke-width="0.0769231"/>
<path d="M104.774 329.682L104.939 330.256C105.103 331.487 105.185 332.8 105.431 334.031C113.718 334.031 122.333 334.195 130.046 337.723C134.149 339.61 138.005 342.892 142.846 342.4C151.297 341.744 158.518 336.41 166.805 335.098C177.308 333.292 187.974 335.508 197.985 338.708C201.923 339.939 205.78 341.99 210.128 341.908C217.677 342.4 224.651 338.872 231.79 336.821C239.092 334.441 247.133 333.539 254.6 335.426C263.872 337.477 272.651 342.318 282.333 341.908C287.585 341.99 292.097 339.2 297.021 337.969C303.995 336 311.133 334.359 318.436 334.441C327.79 334.605 336.241 339.2 345.103 341.744C350.354 343.385 355.851 341.498 360.528 339.036C368.323 335.015 377.185 334.031 385.882 334.113C385.964 332.8 386.046 331.487 386.128 330.174V329.6C386.785 340.021 386.292 350.523 386.456 360.944C379.728 360.369 372.918 361.108 366.6 363.241C361.431 364.964 357 369.067 351.256 368.821C339.031 369.559 329.021 359.959 316.795 360.698C305.882 361.026 295.954 365.949 285.451 368.246C269.78 370.79 255.831 357.99 240.077 361.436C227.605 364.308 214.723 371.692 201.677 367.015C188.795 361.764 173.615 357.58 160.323 363.733C152.774 367.59 143.995 369.477 135.626 367.508C131.277 366.523 127.749 363.487 123.482 362.257C117.574 360.533 111.339 360.533 105.267 360.862C105.185 365.128 105.677 369.477 104.939 373.744V374.4C104.528 359.549 104.774 344.533 104.774 329.682ZM105.267 342.974C105.267 345.846 105.267 348.8 105.267 351.754C110.354 351.672 115.523 351.918 120.528 352.328C128.487 352.985 134.723 359.713 142.846 359.467C151.462 359.139 158.764 353.887 167.133 352.492C177.472 350.523 187.892 353.149 197.739 356.267C201.841 357.415 205.78 359.385 210.046 359.467C222.682 359.877 233.677 351.59 246.231 352.082C256.323 352.082 265.595 356.595 275.195 359.057C283.728 361.108 291.933 357.415 299.81 354.708C306.785 352.246 314.251 351.672 321.554 352.328C330.087 353.395 337.964 357.169 346.251 359.467C350.928 360.862 355.851 358.892 360.036 356.677C367.913 352.328 377.103 351.836 385.882 351.836C386.046 349.046 386.046 346.339 385.964 343.549C379.072 343.385 371.605 342.892 365.451 346.421C360.774 348.964 355.769 351.18 350.436 351.344C343.38 351.344 336.815 348.39 330.415 345.764C320.323 341.908 309.164 343.549 299.072 346.585C293.492 348.062 288.323 351.262 282.415 351.015C269.205 351.672 257.8 342.646 244.672 343.467C235.072 343.959 226.539 348.964 217.185 350.687C204.549 352.492 193.144 345.518 181.082 343.385C169.759 341.908 159.092 346.831 148.672 350.523C142.19 352.082 135.215 350.523 129.39 347.405C122.087 343.385 113.472 342.482 105.267 342.974Z" fill="#FEFEFE" stroke="#FEFEFE" stroke-width="0.0769231"/>
<path d="M104.938 330.256C198.641 329.928 292.344 330.01 386.128 330.174C386.046 331.487 385.964 332.8 385.882 334.113C377.185 334.031 368.323 335.015 360.528 339.036C355.851 341.497 350.354 343.385 345.103 341.744C336.241 339.2 327.79 334.605 318.436 334.441C311.133 334.359 303.995 336 297.021 337.969C292.097 339.2 287.585 341.99 282.333 341.908C272.651 342.318 263.872 337.477 254.6 335.426C247.133 333.538 239.092 334.441 231.79 336.821C224.651 338.872 217.677 342.4 210.128 341.908C205.78 341.99 201.923 339.938 197.985 338.708C187.974 335.508 177.308 333.292 166.805 335.097C158.518 336.41 151.297 341.744 142.846 342.4C138.005 342.892 134.149 339.61 130.046 337.723C122.333 334.195 113.718 334.031 105.431 334.031C105.185 332.8 105.103 331.487 104.938 330.256Z" fill="#3A64A3" stroke="#3A64A3" stroke-width="0.0769231"/>
<path d="M105.267 342.974C113.472 342.482 122.087 343.385 129.39 347.405C135.215 350.523 142.19 352.082 148.672 350.523C159.092 346.831 169.759 341.908 181.082 343.385C193.144 345.518 204.549 352.492 217.185 350.687C226.538 348.964 235.072 343.959 244.672 343.467C257.8 342.646 269.205 351.672 282.415 351.015C288.323 351.262 293.492 348.062 299.072 346.585C309.164 343.549 320.323 341.908 330.415 345.764C336.815 348.39 343.379 351.344 350.436 351.344C355.769 351.18 360.774 348.964 365.451 346.421C371.605 342.892 379.072 343.385 385.964 343.549C386.046 346.339 386.046 349.046 385.882 351.836C377.103 351.836 367.913 352.328 360.036 356.677C355.851 358.892 350.928 360.862 346.251 359.467C337.964 357.169 330.087 353.395 321.554 352.328C314.251 351.672 306.785 352.246 299.81 354.708C291.933 357.415 283.728 361.108 275.195 359.056C265.595 356.595 256.323 352.082 246.231 352.082C233.677 351.59 222.682 359.877 210.046 359.467C205.779 359.385 201.841 357.415 197.738 356.267C187.892 353.149 177.472 350.523 167.133 352.492C158.764 353.887 151.461 359.139 142.846 359.467C134.723 359.713 128.487 352.985 120.528 352.328C115.523 351.918 110.354 351.672 105.267 351.754C105.267 348.8 105.267 345.846 105.267 342.974Z" fill="#3A64A3" stroke="#3A64A3" stroke-width="0.0769231"/>
<path d="M105.267 360.862C111.338 360.533 117.574 360.533 123.482 362.257C127.749 363.487 131.277 366.523 135.626 367.508C143.995 369.477 152.774 367.59 160.323 363.733C173.615 357.58 188.795 361.764 201.677 367.015C214.723 371.692 227.605 364.308 240.077 361.436C255.831 357.99 269.78 370.79 285.451 368.246C295.954 365.949 305.882 361.026 316.795 360.698C329.021 359.959 339.031 369.559 351.256 368.821C357 369.067 361.431 364.964 366.6 363.241C372.918 361.108 379.728 360.369 386.456 360.944C386.21 365.292 386.292 369.641 386.292 373.908C292.508 373.744 198.723 374.072 104.938 373.744C105.677 369.477 105.185 365.128 105.267 360.862Z" fill="#3A64A3" stroke="#3A64A3" stroke-width="0.0769231"/>
<path d="M105.267 384C198.805 383.754 292.344 383.836 385.882 383.918C386.046 397.867 386.128 411.815 385.882 425.764C292.344 425.682 198.805 425.846 105.267 425.682C105.349 411.815 105.349 397.867 105.267 384ZM111.585 388.759C111.503 399.59 111.42 410.339 111.585 421.087C201.103 421.251 290.62 421.251 380.138 421.087C380.303 410.339 380.303 399.508 380.138 388.759C290.62 388.595 201.103 388.595 111.585 388.759Z" fill="#FEFEFE" stroke="#FEFEFE" stroke-width="0.0769231"/>
<path d="M111.584 388.759C201.102 388.595 290.62 388.595 380.138 388.759C380.302 399.508 380.302 410.339 380.138 421.087C290.62 421.251 201.102 421.251 111.584 421.087C111.42 410.339 111.502 399.59 111.584 388.759ZM123.892 396.39C123.728 401.887 123.728 407.385 123.892 412.882C125.451 412.882 127.092 412.882 128.733 412.8C128.651 410.585 128.733 408.451 128.733 406.236C131.441 406.318 134.231 406.236 136.938 406.072C136.938 405.087 136.938 404.021 136.938 403.036C134.149 402.954 131.441 402.954 128.733 402.872C128.733 401.805 128.815 400.739 128.815 399.754C131.523 399.754 134.231 399.754 136.938 399.59C136.938 398.523 136.938 397.457 136.938 396.472C132.59 396.308 128.241 396.39 123.892 396.39ZM146.456 396.718C141.943 397.785 138.333 402.626 140.138 407.303C143.256 414.031 153.184 414.769 158.6 410.421C161.718 408.205 162.62 403.364 160.077 400.41C157.041 396.226 151.133 395.323 146.456 396.718ZM170.99 396.636C166.805 397.539 163.031 401.641 164.015 406.154C166.559 415.836 184.036 415.426 185.677 405.333C186.087 397.949 176.979 394.667 170.99 396.636ZM186.415 396.39C186.415 397.374 186.415 398.441 186.415 399.508C188.631 399.508 190.846 399.508 193.061 399.59C193.226 403.939 193.226 408.369 193.143 412.718C194.785 412.8 196.426 412.882 198.067 412.964C198.231 408.533 198.231 404.103 198.067 399.754C200.364 399.59 202.661 399.426 204.959 399.426C204.959 398.441 205.041 397.457 205.041 396.472C198.805 396.308 192.569 396.39 186.415 396.39ZM207.667 396.39C207.584 401.887 207.584 407.385 207.667 412.882C212.261 412.718 217.267 413.785 221.615 411.898C224.897 410.01 223.831 405.251 220.795 403.692C222.682 401.805 222.682 398.441 219.974 397.128C216.118 395.651 211.769 396.636 207.667 396.39ZM232.446 396.472C229.984 401.887 227.359 407.303 224.897 412.8C226.62 412.882 228.261 412.882 229.984 412.964C230.477 411.815 230.969 410.749 231.543 409.682C234.169 409.682 236.877 409.682 239.585 409.682C240.159 410.667 240.733 411.733 241.472 412.718C243.113 413.128 244.754 412.8 246.395 412.8C243.851 407.139 240.815 401.887 238.108 396.39C236.22 396.39 234.333 396.39 232.446 396.472ZM248.61 396.308C248.446 401.887 248.528 407.385 248.61 412.882C253.451 412.882 258.374 413.21 263.215 412.636C263.215 411.651 263.215 410.667 263.215 409.682C259.933 409.764 256.733 409.764 253.533 409.6C253.369 405.251 253.369 400.821 253.451 396.39C251.81 396.39 250.251 396.39 248.61 396.308ZM265.677 396.39C265.513 401.887 265.513 407.385 265.677 412.882C270.518 412.964 275.277 413.046 280.118 412.8C279.954 411.733 279.872 410.667 279.872 409.6C276.672 409.764 273.472 409.764 270.272 409.518C270.354 405.087 270.354 400.739 270.272 396.39C268.713 396.39 267.236 396.39 265.677 396.39ZM291.441 399.672C288.241 402.708 288.979 408.369 292.508 410.831C296.938 414.031 302.928 413.292 307.851 411.815C307.769 410.421 307.933 409.108 307.933 407.795C304.323 409.108 300.056 410.667 296.61 408.369C294.149 407.057 293.738 403.364 295.872 401.641C299.072 398.523 304.077 399.836 307.687 401.313C307.687 399.918 307.605 398.605 307.605 397.21C302.272 395.651 295.543 395.241 291.441 399.672ZM311.626 396.308C311.461 401.805 311.461 407.303 311.626 412.882C316.467 412.964 321.308 413.046 326.149 412.8C325.984 411.733 325.902 410.667 325.902 409.682C322.785 409.764 319.667 409.764 316.549 409.6C316.467 405.251 316.467 400.821 316.549 396.472C314.908 396.39 313.267 396.39 311.626 396.308ZM328.364 396.39C328.528 400.657 327.543 405.333 329.184 409.436C333.041 414.523 342.395 414.441 346.497 409.6C348.22 405.498 347.236 400.739 347.318 396.308C345.677 396.39 344.036 396.39 342.395 396.472C342.395 399.918 342.805 403.446 342.231 406.892C341.082 410.749 334.518 410.585 333.533 406.728C333.041 403.282 333.369 399.836 333.205 396.39C331.564 396.39 329.923 396.39 328.364 396.39ZM351.338 396.39C351.256 401.887 351.338 407.385 351.338 412.882C355.933 412.718 360.856 413.785 365.205 411.898C368.487 410.01 367.502 405.251 364.385 403.774C365.779 402.051 366.764 399.262 364.549 397.785C360.692 395.159 355.687 396.8 351.338 396.39Z" fill="#3A64A3" stroke="#3A64A3" stroke-width="0.0769231"/>
<path d="M123.892 396.39C128.241 396.39 132.59 396.308 136.939 396.472C136.939 397.456 136.939 398.523 136.939 399.59C134.231 399.754 131.523 399.754 128.815 399.754C128.815 400.738 128.733 401.805 128.733 402.872C131.441 402.954 134.149 402.954 136.939 403.036C136.939 404.02 136.939 405.087 136.939 406.072C134.231 406.236 131.441 406.318 128.733 406.236C128.733 408.451 128.651 410.585 128.733 412.8C127.092 412.882 125.451 412.882 123.892 412.882C123.728 407.385 123.728 401.887 123.892 396.39Z" fill="#FEFEFE" stroke="#FEFEFE" stroke-width="0.0769231"/>
<path d="M146.456 396.718C151.133 395.323 157.041 396.226 160.077 400.41C162.621 403.364 161.718 408.205 158.6 410.42C153.185 414.769 143.256 414.031 140.139 407.303C138.333 402.626 141.944 397.785 146.456 396.718ZM148.918 399.918C145.964 400.328 143.913 403.61 144.98 406.4C147.113 411.241 155.728 410.503 156.467 405.087C156.877 401.149 152.282 399.015 148.918 399.918Z" fill="#FEFEFE" stroke="#FEFEFE" stroke-width="0.0769231"/>
<path d="M170.99 396.636C176.98 394.667 186.087 397.949 185.677 405.333C184.036 415.426 166.559 415.836 164.015 406.154C163.031 401.641 166.805 397.538 170.99 396.636ZM172.713 400C169.841 400.574 168.036 404.021 169.349 406.728C171.564 411.487 180.836 410.174 180.59 404.513C180.59 400.656 175.913 399.015 172.713 400Z" fill="#FEFEFE" stroke="#FEFEFE" stroke-width="0.0769231"/>
<path d="M186.415 396.39C192.569 396.39 198.805 396.308 205.041 396.472C205.041 397.456 204.959 398.441 204.959 399.426C202.661 399.426 200.364 399.59 198.067 399.754C198.231 404.102 198.231 408.533 198.067 412.964C196.426 412.882 194.785 412.8 193.143 412.718C193.226 408.369 193.226 403.938 193.061 399.59C190.846 399.508 188.631 399.508 186.415 399.508C186.415 398.441 186.415 397.374 186.415 396.39Z" fill="#FEFEFE" stroke="#FEFEFE" stroke-width="0.0769231"/>
<path d="M207.667 396.39C211.769 396.636 216.118 395.651 219.974 397.128C222.682 398.441 222.682 401.805 220.795 403.692C223.831 405.251 224.898 410.01 221.615 411.897C217.267 413.785 212.262 412.718 207.667 412.882C207.585 407.385 207.585 401.887 207.667 396.39ZM212.59 399.344C212.59 400.492 212.59 401.723 212.672 402.872C214.231 402.626 217.759 403.282 217.349 400.656C216.282 399.015 214.149 399.59 212.59 399.344ZM212.59 405.908C212.59 407.138 212.59 408.451 212.59 409.682C214.559 409.682 216.446 409.6 218.415 409.354C218.333 408.369 218.333 407.385 218.415 406.318C216.446 406.154 214.477 405.99 212.59 405.908Z" fill="#FEFEFE" stroke="#FEFEFE" stroke-width="0.0769231"/>
<path d="M232.446 396.472C234.333 396.39 236.221 396.39 238.108 396.39C240.815 401.887 243.851 407.138 246.395 412.8C244.754 412.8 243.113 413.128 241.472 412.718C240.733 411.733 240.159 410.667 239.585 409.682C236.877 409.682 234.169 409.682 231.544 409.682C230.969 410.749 230.477 411.815 229.985 412.964C228.262 412.882 226.621 412.882 224.897 412.8C227.359 407.302 229.985 401.887 232.446 396.472ZM233.103 406.646C234.744 406.646 236.385 406.646 238.026 406.646C237.369 404.677 236.467 402.79 235.4 401.067C234.333 402.79 233.513 404.677 233.103 406.646Z" fill="#FEFEFE" stroke="#FEFEFE" stroke-width="0.0769231"/>
<path d="M248.61 396.308C250.251 396.39 251.81 396.39 253.451 396.39C253.369 400.82 253.369 405.251 253.533 409.6C256.733 409.764 259.933 409.764 263.216 409.682C263.216 410.667 263.216 411.651 263.216 412.636C258.374 413.21 253.451 412.882 248.61 412.882C248.528 407.385 248.446 401.887 248.61 396.308Z" fill="#FEFEFE" stroke="#FEFEFE" stroke-width="0.0769231"/>
<path d="M265.677 396.39C267.236 396.39 268.713 396.39 270.272 396.39C270.354 400.738 270.354 405.087 270.272 409.518C273.472 409.764 276.672 409.764 279.872 409.6C279.872 410.667 279.954 411.733 280.118 412.8C275.277 413.046 270.518 412.964 265.677 412.882C265.513 407.385 265.513 401.887 265.677 396.39Z" fill="#FEFEFE" stroke="#FEFEFE" stroke-width="0.0769231"/>
<path d="M291.441 399.672C295.544 395.241 302.272 395.651 307.605 397.21C307.605 398.605 307.687 399.918 307.687 401.313C304.077 399.836 299.072 398.523 295.872 401.641C293.738 403.364 294.149 407.056 296.61 408.369C300.056 410.667 304.323 409.108 307.933 407.795C307.933 409.108 307.769 410.42 307.851 411.815C302.928 413.292 296.938 414.031 292.508 410.831C288.98 408.369 288.241 402.708 291.441 399.672Z" fill="#FEFEFE" stroke="#FEFEFE" stroke-width="0.0769231"/>
<path d="M311.626 396.308C313.267 396.39 314.908 396.39 316.549 396.472C316.467 400.82 316.467 405.251 316.549 409.6C319.667 409.764 322.784 409.764 325.902 409.682C325.902 410.667 325.984 411.733 326.149 412.8C321.308 413.046 316.467 412.964 311.626 412.882C311.461 407.302 311.461 401.805 311.626 396.308Z" fill="#FEFEFE" stroke="#FEFEFE" stroke-width="0.0769231"/>
<path d="M328.364 396.39C329.923 396.39 331.564 396.39 333.205 396.39C333.369 399.836 333.041 403.282 333.533 406.728C334.518 410.585 341.082 410.749 342.231 406.892C342.805 403.446 342.395 399.918 342.395 396.472C344.036 396.39 345.677 396.39 347.318 396.308C347.236 400.738 348.22 405.497 346.497 409.6C342.395 414.441 333.041 414.523 329.184 409.436C327.543 405.333 328.528 400.656 328.364 396.39Z" fill="#FEFEFE" stroke="#FEFEFE" stroke-width="0.0769231"/>
<path d="M351.338 396.39C355.687 396.8 360.692 395.159 364.549 397.785C366.764 399.261 365.779 402.051 364.385 403.774C367.503 405.251 368.487 410.01 365.205 411.897C360.856 413.785 355.933 412.718 351.338 412.882C351.338 407.385 351.256 401.887 351.338 396.39ZM356.179 399.344C356.262 400.492 356.262 401.723 356.262 402.872C357.903 402.626 361.267 403.282 360.938 400.656C359.954 399.015 357.821 399.59 356.179 399.344ZM356.179 405.908C356.179 407.22 356.179 408.451 356.262 409.682C358.149 409.682 360.118 409.6 362.005 409.354C361.923 408.369 361.923 407.303 362.005 406.318C360.036 406.154 358.149 405.99 356.179 405.908Z" fill="#FEFEFE" stroke="#FEFEFE" stroke-width="0.0769231"/>
<path d="M148.918 399.918C152.282 399.015 156.877 401.149 156.467 405.087C155.728 410.503 147.113 411.241 144.98 406.4C143.913 403.61 145.964 400.328 148.918 399.918Z" fill="#3A64A3" stroke="#3A64A3" stroke-width="0.0769231"/>
<path d="M172.713 400C175.913 399.015 180.59 400.656 180.59 404.513C180.836 410.174 171.564 411.487 169.349 406.728C168.036 404.02 169.841 400.574 172.713 400Z" fill="#3A64A3" stroke="#3A64A3" stroke-width="0.0769231"/>
<path d="M212.59 399.344C214.149 399.59 216.282 399.015 217.349 400.656C217.759 403.282 214.231 402.626 212.672 402.872C212.59 401.723 212.59 400.492 212.59 399.344Z" fill="#3A64A3" stroke="#3A64A3" stroke-width="0.0769231"/>
<path d="M356.179 399.344C357.82 399.59 359.954 399.015 360.938 400.656C361.267 403.282 357.903 402.626 356.261 402.872C356.261 401.723 356.261 400.492 356.179 399.344Z" fill="#3A64A3" stroke="#3A64A3" stroke-width="0.0769231"/>
<path d="M233.103 406.646C233.513 404.677 234.333 402.79 235.4 401.067C236.467 402.79 237.369 404.677 238.026 406.646C236.385 406.646 234.744 406.646 233.103 406.646Z" fill="#3A64A3" stroke="#3A64A3" stroke-width="0.0769231"/>
<path d="M212.59 405.908C214.477 405.99 216.446 406.154 218.415 406.318C218.333 407.385 218.333 408.369 218.415 409.354C216.446 409.6 214.559 409.682 212.59 409.682C212.59 408.451 212.59 407.138 212.59 405.908Z" fill="#3A64A3" stroke="#3A64A3" stroke-width="0.0769231"/>
<path d="M356.179 405.908C358.149 405.99 360.036 406.154 362.005 406.318C361.923 407.303 361.923 408.369 362.005 409.354C360.118 409.6 358.149 409.682 356.261 409.682C356.179 408.451 356.179 407.221 356.179 405.908Z" fill="#3A64A3" stroke="#3A64A3" stroke-width="0.0769231"/>
<path d="M136.2 436.021C209.554 435.856 282.908 435.856 356.262 436.021C321.062 451.282 285.369 465.559 250.005 480.492C247.872 481.313 245.492 482.954 243.195 481.477C207.585 466.215 171.646 451.61 136.2 436.021Z" fill="#3A64A3" stroke="#3A64A3" stroke-width="0.0769231"/>
<path d="M79.8308 436.349C80.2411 436.595 80.9795 437.005 81.3077 437.169" stroke="#3A64A3" stroke-width="0.0769231"/>
<path d="M402.949 440.451C403.277 440.287 404.015 439.877 404.426 439.631" stroke="#3A64A3" stroke-width="0.0769231"/>
<path d="M92.959 442.092C93.3692 442.338 94.0257 442.749 94.4359 442.913" stroke="#3A64A3" stroke-width="0.0769231"/>
<path d="M397.205 442.913C397.615 442.749 398.354 442.338 398.682 442.092" stroke="#3A64A3" stroke-width="0.0769231"/>
<path d="M391.461 445.374C391.872 445.21 392.61 444.8 392.938 444.636" stroke="#3A64A3" stroke-width="0.0769231"/>
<path d="M378.333 451.118C378.661 450.954 379.4 450.544 379.81 450.297" stroke="#3A64A3" stroke-width="0.0769231"/>
<path d="M372.59 453.58C373 453.415 373.739 453.005 374.067 452.759" stroke="#3A64A3" stroke-width="0.0769231"/>
<path d="M366.846 456.041C367.256 455.877 367.995 455.467 368.323 455.302" stroke="#3A64A3" stroke-width="0.0769231"/>
<path d="M124.959 456.041C125.369 456.287 126.108 456.697 126.436 456.862" stroke="#3A64A3" stroke-width="0.0769231"/>
<path d="M130.703 458.585C131.031 458.749 131.769 459.159 132.18 459.323" stroke="#3A64A3" stroke-width="0.0769231"/>
<path d="M353.718 461.785C354.046 461.621 354.785 461.21 355.195 460.964" stroke="#3A64A3" stroke-width="0.0769231"/>
<path d="M347.974 464.246C348.385 464 349.123 463.672 349.451 463.426" stroke="#3A64A3" stroke-width="0.0769231"/>
<path d="M143.831 464.246C144.241 464.492 144.897 464.903 145.308 465.067" stroke="#3A64A3" stroke-width="0.0769231"/>
<path d="M149.574 466.708C149.903 466.954 150.641 467.364 151.051 467.528" stroke="#3A64A3" stroke-width="0.0769231"/>
<path d="M156.959 469.99C157.369 470.154 158.108 470.564 158.436 470.81" stroke="#3A64A3" stroke-width="0.0769231"/>
<path d="M304.487 483.118C304.816 482.954 305.554 482.544 305.964 482.297" stroke="#3A64A3" stroke-width="0.0769231"/>
<path d="M188.959 483.938C189.369 484.185 190.108 484.595 190.436 484.759" stroke="#3A64A3" stroke-width="0.0769231"/>
<path d="M298.744 485.58C299.154 485.415 299.892 485.005 300.221 484.759" stroke="#3A64A3" stroke-width="0.0769231"/>
<path d="M194.703 486.4C195.031 486.646 195.769 487.056 196.18 487.22" stroke="#3A64A3" stroke-width="0.0769231"/>
<path d="M293 488.041C293.41 487.877 294.149 487.467 294.477 487.302" stroke="#3A64A3" stroke-width="0.0769231"/>
<path d="M285.615 491.323C285.944 491.159 286.682 490.749 287.092 490.502" stroke="#3A64A3" stroke-width="0.0769231"/>
<path d="M207.831 492.144C208.241 492.39 208.98 492.8 209.308 492.964" stroke="#3A64A3" stroke-width="0.0769231"/>
<path d="M279.872 493.785C280.2 493.621 280.938 493.21 281.349 492.964" stroke="#3A64A3" stroke-width="0.0769231"/>
<path d="M268.385 498.708C268.795 498.544 269.533 498.133 269.861 497.969" stroke="#3A64A3" stroke-width="0.0769231"/>
<path d="M226.703 500.349C227.031 500.595 227.769 501.005 228.18 501.169" stroke="#3A64A3" stroke-width="0.0769231"/>
<path d="M261 501.99C261.41 501.826 262.067 501.415 262.477 501.169" stroke="#3A64A3" stroke-width="0.0769231"/>
<path d="M232.446 502.892C232.774 503.056 233.513 503.467 233.923 503.631" stroke="#3A64A3" stroke-width="0.0769231"/>
<path d="M255.256 504.451C255.585 504.287 256.323 503.877 256.733 503.631" stroke="#3A64A3" stroke-width="0.0769231"/>
</svg>
