<svg width="512" height="512" viewBox="0 0 512 512" fill="none" xmlns="http://www.w3.org/2000/svg">
<g clip-path="url(#clip0_1_3308)">
<path d="M512 255.998C512 397.389 397.388 512.001 256.003 512.001C114.618 512.001 0 397.389 0 255.998C0 114.612 114.618 0.000732445 256.003 0.000732445C397.388 -0.00114377 512 114.612 512 255.998Z" fill="white" stroke="#0053A0" stroke-width="13.2129"/>
<path fill-rule="evenodd" clip-rule="evenodd" d="M19.2743 259.024C17.6201 128.315 122.278 20.9704 252.994 19.3131C383.704 17.6583 491.048 122.323 492.706 253.033C494.357 383.743 389.695 491.087 258.986 492.738C128.276 494.395 20.9316 389.734 19.2743 259.024ZM252.957 16.3612C120.615 18.0366 14.6463 126.72 16.3223 259.062C17.9991 391.404 126.681 497.366 259.023 495.696C391.365 494.02 497.327 385.337 495.657 252.996C493.981 120.654 385.299 14.6851 252.957 16.3612Z" fill="#0053A0"/>
<path fill-rule="evenodd" clip-rule="evenodd" d="M247.31 98.6832C218.247 98.6144 184.482 110.134 161.786 128.921C161.711 128.972 161.711 129.172 161.867 129.253C174.844 134.4 183.744 141.229 197.615 148.997C198.115 149.272 198.291 149.153 198.397 148.703C205.108 114.618 246.716 124.075 250.599 99.221C250.431 99.0522 250.456 98.7457 250.099 98.727C249.18 98.7019 248.242 98.6894 247.31 98.6832ZM264.615 98.727C264.327 98.727 264.233 98.8458 264.246 99.3023C262.501 103.68 267.629 108.239 270.619 111.191C270.906 111.46 271.382 111.773 271.738 111.929C290.313 119.49 310.87 125.075 315.373 146.439C315.466 146.771 315.529 146.983 315.873 146.689C325.773 140.122 335.592 133.462 345.611 127.145C346.124 126.933 345.936 126.695 345.611 126.489C322.971 110.391 294.684 99.9152 264.615 98.727ZM148.784 139.741C130.671 155.801 115.13 176.809 107.036 200.411C106.945 200.643 107.083 200.749 107.406 200.78C125.13 202.382 130.921 179.267 144.506 170.674C144.687 170.567 144.85 170.473 144.837 170.254C143.874 159.723 143.411 150.848 148.784 139.741ZM367.419 144.794C368.419 152.968 367.656 160.723 365.486 168.278C365.392 168.635 365.405 168.91 365.811 169.185C378.907 176.19 386.006 196.647 401.141 197.447C401.328 197.528 401.616 197.541 401.51 197.291C396.256 179.035 381.146 157.434 367.419 144.794ZM406.369 209.255C387.794 227.879 417.939 259.087 377.044 276.504C373.435 277.568 369.97 278.831 366.706 278.843C357.612 278.887 344.673 271.952 344.754 285.754C344.754 286.004 344.979 286.179 345.279 286.298C357.913 291.708 374.986 303.434 375.261 321.509C375.88 343.054 353.203 357.563 356.799 378.026C405.262 336.118 425.194 274.241 406.369 209.255ZM103.41 212.332C103.254 212.375 103.14 212.544 102.998 212.876C84.6458 263.027 102.679 340.99 158.977 382.173C158.99 381.11 159.609 378.896 160.253 377.407C160.491 376.832 160.453 376.094 160.253 375.393C158.189 366.325 152.779 357.182 147.632 348.282C129.876 318.807 139.733 298.594 168.402 285.479C168.771 285.36 168.852 285.154 168.652 284.772C168.208 283.797 167.77 282.834 167.339 281.845C167.207 281.583 167.339 281.057 166.682 281.151C160.253 281.952 153.017 282.521 146.475 282.227C136.631 280.032 127.23 276.11 120.151 265.685C107.478 247.992 124.834 224.196 103.904 212.463C103.731 212.363 103.567 212.294 103.41 212.332ZM368.813 284.822C369.289 284.822 369.777 284.891 370.252 285.022C376.606 286.179 386.218 289.919 391.928 296.986C392.297 297.443 392.129 297.824 391.559 297.774C382.385 297.499 372.078 296.486 364.942 290.864C363.929 290.063 362.997 289.269 363.71 287.361C364.235 286.154 365.918 285.229 367.325 284.979C367.838 284.891 368.326 284.81 368.813 284.822ZM141.873 288.562C142.386 288.55 142.886 288.562 143.399 288.6C143.824 288.65 144.256 288.65 144.543 288.931C146.307 291.033 145.957 293.972 142.661 296.248C135.7 300.708 127.631 300.958 120.199 301.277C119.908 301.289 119.399 300.97 119.911 300.489C126.683 294.285 134.174 288.637 141.873 288.562ZM267.711 373.092C267.617 373.079 267.51 373.104 267.423 373.173C261.719 375.881 252.757 377.201 247.716 374.368C247.11 374.068 246.753 374.293 246.516 374.643C237.46 389.978 215.94 389.615 200.661 385.719C189.31 383.161 178.203 379.921 169.028 389.008C216.796 423.456 290.431 424.531 345.698 386.626C335.273 381.704 325.811 385.244 314.347 387.902C301.37 390.916 283.152 393.643 268.449 373.423C268.198 373.355 267.973 373.104 267.711 373.092ZM258.167 376.544C258.298 376.557 258.442 376.569 258.617 376.582C260.274 376.776 261.219 377.62 262.232 378.764C262.72 379.409 262.895 380.159 262.814 380.953C262.538 388.033 261.325 395.194 258.942 401.391C258.892 401.685 258.68 401.748 258.573 401.391C255.809 392.667 251.087 383.836 257.047 376.963C257.429 376.632 257.748 376.525 258.167 376.544Z" fill="#0053A0"/>
<path fill-rule="evenodd" clip-rule="evenodd" d="M273.464 32.7053C274.884 34.5797 276.304 36.666 275.803 38.9156C273.977 49.2066 272.013 59.4764 269.925 69.7268C269.556 72.0158 267.892 72.9976 266.222 74.5361C277.479 76.5812 298.537 80.5588 309.832 82.6852C309.531 78.226 312.94 75.6181 314.31 71.578C310.557 74.2047 305.766 75.1678 301.314 74.2109C296.679 73.3354 285.203 71.0526 280.581 70.0958C281.332 66.5122 281.807 62.8598 282.639 59.2763C287.142 60.0705 294.39 61.7779 298.881 62.322C302.708 63.2288 305.604 57.9129 307.686 55.4113C306.223 55.7427 303.471 55.9116 301.977 55.5739C297.261 54.6589 288.787 52.874 284.071 51.9153C284.49 48.4987 285.216 45.129 285.929 41.7956C294.009 43.9201 310.901 44.7125 316.899 51.5037C317.099 47.7544 314.979 43.0964 317.111 40.6036C305.948 38.4365 284.628 34.7879 273.464 32.7053ZM268.08 32.8698C257.323 32.9198 236.709 34.0518 225.959 34.1863C228.26 37.9719 224.839 41.2959 224.758 45.0865C228.404 41.7787 237.504 40.7887 242.238 40.9325C242.225 51.3086 243.295 61.7278 243.439 72.072C243.501 74.0296 241.975 75.2741 240.724 76.0621C245.402 76.0121 252.795 75.4367 257.179 75.3617C255.021 73.3791 253.927 73.2165 253.889 70.4272C253.126 60.8773 252.745 49.7438 252.482 40.2321C257.323 39.8793 266.222 40.748 270.175 43.1527C270.156 38.975 266.116 34.8198 268.08 32.8698ZM221.024 35.6672C214.151 37.1663 198.841 38.2433 192.918 42.7424C185.839 47.6575 184.207 58.5633 193.381 63.3476C199.16 65.7117 210.123 63.1413 215.833 63.5978C219.761 63.7604 221.418 69.2014 218.835 71.8657C213.257 76.8251 198.103 76.8251 191.486 74.8238C193.106 78.62 194.92 81.8971 196.633 85.6433C198.885 84.2299 202.881 83.8797 205.427 83.4231C210.849 82.6351 223.695 79.1579 227.316 74.7863C231.644 69.7018 231.856 62.3345 227.641 57.6752C223.851 53.5225 212.112 54.2561 207.121 54.5889C204.276 54.5889 201.924 55.5926 199.223 54.2599C196.921 52.6764 197.052 48.7232 199.629 47.3898C204.582 44.7656 215.808 44.3597 220.98 46.4842C220.68 42.8606 221.143 39.2908 221.024 35.6672ZM331.746 44.922C332.671 47.2135 333.209 49.3774 332.115 51.5444C328.037 60.3332 323.403 69.0576 319.088 77.9133C317.874 80.4962 316.323 82.1348 313.453 83.2167C317.28 85.1743 323.853 88.4576 327.718 90.4152C326.098 84.4988 330.113 79.1891 332.409 74.4173C334.616 75.6243 340.539 78.3886 341.99 80.7902C343.935 84.0798 344.41 87.457 344.829 90.8654C345.017 93.9487 345.267 96.2752 342.084 97.3697C346.555 99.1896 353.585 102.936 357.744 104.937C354.442 98.1326 356.481 88.8767 352.071 82.1911C354.942 82.3162 359.758 82.7977 362.81 80.9153C368.326 77.6819 369.67 72.5661 367.788 65.818C366.75 62.2657 363.26 60.2394 360.296 58.826C353.216 55.3237 338.832 48.3798 331.746 44.922ZM170.46 49.4462C160.591 54.9879 141.623 64.4671 131.883 70.1771C134.424 70.8462 136.188 71.7969 137.395 74.0045C142.267 82.754 147.126 91.4971 151.954 100.247C153.205 102.417 152.824 105.031 151.836 107.445C161.961 101.823 180.917 91.9662 191.074 86.3876C187.903 84.5864 189.917 78.5762 188.641 74.6237C187.64 78.0759 184.075 81.2155 181.167 83.3418C176.452 86.5064 165.382 92.1475 160.472 94.9431C158.684 91.7723 156.864 88.5264 155.169 85.2743C158.997 82.8978 167.871 78.9703 171.623 76.4749C173.819 73.7231 172.53 69.7518 173.018 66.5184C172.055 67.6817 170.804 68.7324 169.435 69.4391C165.319 71.7281 156.289 76.7313 152.117 78.9828C150.535 75.9808 148.64 73.1352 147.27 70.0145C154.894 66.556 168.565 57.3 177.252 57.7941C175.082 54.6308 171.592 53.1961 170.46 49.4462ZM340.67 57.4251C344.435 59.3075 349.964 61.7654 353.385 63.6353C362.459 68.3509 356.005 78.2135 349.439 74.4986C345.686 73.2478 339.119 69.5392 335.461 68.0382C337.037 64.3733 339.051 61.0899 340.67 57.4251ZM122.961 76.8001C121.918 78.3011 120.553 79.6707 118.929 80.5463C113.502 83.0729 103.78 91.8411 101.447 97.3697C98.1972 103.699 98.2316 109.521 102.063 116.907C106.431 125.619 112.623 129.659 122.096 129.659C131.506 129.078 139.98 120.835 143.852 115.757C145.984 113.299 148.054 110.591 151.181 109.215C148.555 106.3 145.79 103.536 143.114 100.659C142.157 104.155 140.468 107.163 138.179 110.078C134.796 113.918 129.545 119.953 123.577 119.665C117.607 119.371 115.708 116.526 113.046 113.618C110.385 110.71 108.554 107.314 109.016 102.098C109.478 96.8818 119.817 87.2506 127.281 86.9629C125.569 83.7108 124.674 80.0897 122.961 76.8001ZM86.6391 111.885C83.9155 115.4 79.0755 121.51 76.1905 124.894C78.8691 124.5 81.3082 124.725 83.3482 126.326C91.1814 132.424 99.004 138.584 106.794 144.719C108.795 146.233 109.699 148.496 109.961 151.086C112.844 147.652 117.485 141.636 120.286 138.29C117.86 138.609 115.497 138.74 113.623 137.227C105.666 131.091 97.8432 124.856 89.93 118.677C87.7655 117.032 86.5584 114.806 86.6391 111.885ZM68.0464 135.501C63.0826 145.701 52.8116 164.657 47.9322 174.857C50.6396 173.782 52.6734 173.975 55.13 175.226C63.9594 179.648 72.8327 183.944 81.6609 188.31C83.8273 189.404 85.7241 191.574 86.5966 193.826C91.5185 183.457 100.599 165.107 106.26 154.826C105.094 154.826 103.925 153.85 103.093 153.024C100.76 150.81 99.5831 148.284 97.2103 146.114C97.8707 150.229 97.276 155.157 95.4817 159.153C93.3966 163.606 87.8605 174.401 85.7754 178.86C82.3176 177.69 79.6458 175.702 76.3143 174.201C77.9829 170.211 82.9123 161.167 84.6222 157.221C84.6409 154.907 81.8898 150.998 79.9341 148.203C79.8497 149.704 79.203 151.23 78.4938 152.612C76.3668 156.946 71.5725 166.539 69.4036 170.83C66.3629 169.291 62.4072 167.803 59.3671 166.302C61.4941 161.974 66.8644 151.142 69.0746 146.852C70.7843 143.481 73.5551 140.66 76.9722 138.953C73.4314 137.527 71.0857 137.965 68.0464 135.501ZM74.4212 192.219C75.8389 194.514 76.1479 198.398 76.2324 201.143C76.6064 206.321 73.5683 216.14 72.7758 221.181C63.2365 219.311 53.6466 217.01 44.1467 214.927C41.5231 214.427 40.4649 212.319 38.9233 210.068C37.9233 214.364 36.2197 222.482 35.3041 226.816C37.2203 225.402 38.6487 224.302 40.8983 224.802C51.0624 226.935 61.1727 229.167 71.2967 231.463C73.6289 231.963 75.9692 233.739 77.1774 235.947C79.3444 226.115 83.4033 208.148 85.5278 198.266C84.4871 198.354 83.4008 198.529 82.4846 197.947C79.5258 196.315 77.4213 193.763 74.4212 192.219Z" fill="#0053A0"/>
<path fill-rule="evenodd" clip-rule="evenodd" d="M74.5397 276.467C73.1102 278.518 71.0607 280.2 68.6164 280.663C59.3179 283.296 49.4015 285.31 38.7946 287.862C36.6658 288.625 35.3774 287.73 33.3649 286.179C34.3055 290.482 35.7552 297.499 36.779 301.802C40.5558 296.511 47.5872 296.711 53.1495 294.854C54.471 299.313 56.0258 308.663 57.5105 313.028C59.8445 315.455 63.7195 315.792 66.7652 316.862C65.9743 315.673 64.4869 313.147 64.2565 311.715C63.176 306.999 61.1385 297.999 60.0603 293.328C63.6182 292.533 67.1048 291.483 70.714 290.982C72.6242 298.444 77.0982 312.334 73.6351 319.451C77.267 318.294 80.2625 314.291 83.5071 315.136C81.3682 305.117 76.5142 286.573 74.5397 276.467ZM75.0333 322.084C73.8461 322.046 72.6495 322.153 71.4543 322.284C63.4016 324.01 55.9199 327.981 52.4921 336.393C47.9748 348.126 56.8974 366.169 68.8639 370.578C76.5589 373.329 84.17 371.266 89.8825 367C95.1884 363.367 98.787 357.294 98.645 349.151C98.3123 339.964 93.1759 330.852 85.6873 325.667C82.1256 323.166 78.5975 322.178 75.0333 322.084ZM74.7042 332.328C79.1454 332.303 83.6563 333.435 86.7151 338C90.5182 342.728 91.6721 349.37 88.9778 353.348C85.1504 358.376 78.9807 361.378 72.4834 361.115C65.4188 360.865 58.2611 351.822 60.3487 343.147C62.3337 336.08 70.3514 332.684 74.7042 332.328ZM102.553 366.513C100.817 366.563 99.1263 366.907 97.4508 367.538C89.415 370.503 83.5181 375.687 81.1634 384.568C77.8619 396.72 91.1511 412.674 103.703 414.925C111.761 416.282 118.896 413.374 123.774 408.171C128.368 403.668 131.224 396.932 129.658 388.927C127.723 379.94 120.458 372.235 112.177 368.445C108.525 367.088 105.445 366.406 102.553 366.513ZM106.542 376.344C110.056 376.356 113.25 377.764 115.633 380.253C120.033 384.318 122.107 389.309 120.075 394.599C117.278 400.816 112.08 404.831 105.637 405.713C98.6366 406.682 89.5889 397.42 90.5401 389.784C91.6802 382.779 96.2488 379.921 100.002 377.939C102.225 376.857 104.433 376.331 106.542 376.344ZM137.808 394.481C137.739 398.483 133.636 397.301 130.395 402.342C135.262 401.854 143.424 406.194 147.232 409.04C141.572 417.633 135.687 426.032 129.947 434.538C128.881 436.326 127.012 436.527 125.051 436.683C128.631 439.16 135.131 443.5 138.714 445.976C138.001 443.118 138.264 440.748 139.821 438.409C144.887 430.917 150.022 423.443 155.075 415.913C155.363 415.607 155.6 414.9 156.157 415.081C160.303 417.333 166.776 422.968 168.24 427.508C169.978 424.162 169.647 418.821 172.843 417.514C164.037 411.448 146.651 400.416 137.808 394.481ZM175.032 419.359C176.32 421.705 175.988 424.387 175.238 426.852C172.361 436.483 168.696 445.145 165.813 454.745C165.169 457.071 163.712 458.453 160.76 459.141C169.897 462.037 180.504 465.902 190.166 468.854C200.173 472.093 209.16 469.679 210.242 459.179C210.874 453.15 204.451 450.361 201.937 449.016C208.553 449.835 213.006 446.302 213.363 440.091C213.926 435.67 209.898 430.835 200.78 427.877C194.238 425.745 181.623 421.204 175.032 419.359ZM313.49 426.927C309.25 428.021 302.158 430.986 297.986 432.405C300.313 433.406 301.92 434.088 302.708 436.433C305.685 445.476 309.281 453.913 312.37 462.931C313.215 465.771 314.253 468.985 312.702 471.774C322.308 468.816 338.975 462.8 348.494 459.642C347.95 458.847 347.124 458.203 347.174 457.202C346.937 453.807 347.793 451.055 347.506 447.621C345.304 452.199 340.464 454.544 335.535 456.464C332.759 457.359 324.954 460.836 322.202 461.111C319.162 451.962 315.541 442.33 312.464 433.181C311.62 430.81 312.239 429.153 313.49 426.927ZM184.087 429.929C187.602 431.167 197.615 433.456 201.03 434.882C205.789 436.852 202.7 445.382 197.734 444.288C194.25 443.725 184.469 440.986 181.204 439.76C182.124 436.483 183.074 433.181 184.087 429.929ZM230.68 434.882C230.987 435.513 230.799 437.052 230.274 437.746L212.387 468.022C210.792 470.617 209.291 471.799 207.071 473.5C211.149 474.132 218.203 476.158 222.3 476.946C220.98 474.076 221.099 470.524 223.232 467.784C229.548 468.341 241.356 469.198 247.635 469.961C248.911 472.944 250.543 476.527 247.635 479.254C251.794 479.223 259.048 479.067 263.101 479.342C261.275 477.172 259.499 474.989 258.736 472.181C256.835 466.577 249.767 445.764 247.547 439.316C247.166 438.146 247.679 436.695 247.716 436.564L230.68 434.882ZM277.948 435.113C273.383 435.864 265.615 436.764 261.25 437.302C263.326 438.759 264.865 439.66 265.159 442.118C266.234 451.568 268.142 460.623 269.355 470.08C269.605 473.038 269.655 476.84 267.579 479.254C277.585 478.304 295.997 475.314 305.96 474.157C305.579 473.275 304.934 472.444 305.185 471.487C305.635 468.103 306.898 465.195 307.317 461.774C304.015 465.552 299.237 467.578 294.034 468.485C291.05 468.985 282.345 470.392 279.637 470.33C278.505 460.742 276.847 450.623 275.684 441.042C275.359 438.54 276.278 437.039 277.948 435.113ZM238.004 442.155L245.296 462.018C240.737 461.755 232.025 461.218 227.472 460.705L238.004 442.155ZM179.597 446.07C183.781 447.703 190.723 450.054 194.444 451.493C202.593 454.332 200.448 465.258 190.573 461.862C186.139 460.455 180.229 458.61 176.02 457.009C177.033 453.425 178.584 449.685 179.597 446.07Z" fill="#0053A0"/>
<path fill-rule="evenodd" clip-rule="evenodd" d="M398.22 90.578C391.772 90.3028 387.507 92.0789 383.004 95.8877C377.963 100.472 374.53 105.794 374.567 113.78C374.736 120.072 381.609 129.96 389.877 135.176C392.204 136.895 395.893 139.041 396.244 141.911C398.983 139.109 401.841 136.345 404.643 133.725C397.932 131.711 386.569 125.194 384.936 117.689C383.898 111.717 385.362 109.765 387.901 106.501C392.641 100.778 397.444 98.7082 404.643 100.697C411.078 103.261 416.845 111.323 417.345 117.195C420.691 115.444 423.862 114.049 427.258 112.342C424.562 110.672 423.374 108.671 421.548 106.251C417.595 100.491 410.159 92.2666 401.141 90.8281C400.127 90.7093 399.139 90.6218 398.22 90.578ZM433.718 121.31C433.587 125.526 431.366 126.826 428.339 129.078C420.991 134.106 414.03 139.228 406.7 144.1C404.618 145.426 401.922 147.127 398.958 145.701C401.341 149.404 406.05 155.658 408.464 159.316C408.714 155.539 410.741 153.825 413.03 152.324C420.953 147.033 428.402 141.323 436.351 136.082C438.646 134.531 439.959 133.856 443.011 134.882C440.647 131.267 436.101 124.931 433.718 121.31ZM447.79 141.136C445.594 144.45 440.722 142.437 437.264 143.769C441.473 146.139 446.12 153.744 447.871 158.209C438.459 162.618 430.678 166.577 421.254 171.043C419.465 171.949 416.638 171.374 414.806 170.674C416.751 174.62 420.003 181.562 421.954 185.483C422.992 182.444 426.032 179.861 428.865 178.61C437.289 174.782 444.225 171.08 452.73 167.465C454.888 171.712 458.509 179.704 457.296 184.495C460.548 182.531 462.143 178.253 465.851 178.654C461.348 168.897 452.336 150.879 447.79 141.136ZM468.234 183.338C467.34 187.428 463.625 189.786 461.323 192.838C456.714 198.223 451.173 204.289 445.776 209.743C444.487 210.95 441.292 211.331 439.353 211.769C435.338 212.351 433.468 212.82 430.391 210.243C431.354 214.571 432.93 222.288 433.799 226.616C435.513 224.021 437.339 222.495 440.71 221.638C443.712 221.1 446.37 219.943 448.528 220.887C458.378 226.247 476.858 233.883 479.172 236.278L475.801 220.112C474.707 221.694 473.419 222.457 472.105 221.957C466.195 219.668 459.178 216.403 454.162 214.483C457.834 210.218 462.124 206.096 466.008 202.056C467.696 199.999 470.01 199.186 472.062 201.187L468.234 183.338Z" fill="#0053A0"/>
<path fill-rule="evenodd" clip-rule="evenodd" d="M444.869 278.731C442.999 278.781 440.879 279.45 438.615 280.951C435.394 283.784 434.206 288.218 433.143 292.184C431.692 298.882 428.089 312.647 426.77 319.364C428.996 317.575 430.916 317.375 433.43 317.925C443.262 320.045 453.056 322.272 462.849 324.392C465.22 324.848 466.971 326.706 468.315 328.788C469.76 319.47 475.551 300.526 475.395 291.02C475.207 283.228 467.984 278.256 461.073 279.876C457.152 280.976 454.951 285.504 454.081 288.681C454.069 283.953 450.479 278.581 444.869 278.731ZM444.907 290.032C447.79 290.051 450.454 292.709 449.685 296.049C448.922 299.526 447.539 306.843 446.689 310.283C443.343 309.607 439.866 308.857 436.564 308.094C437.514 304.504 438.409 299.407 439.353 295.761C440.304 291.627 442.674 290.032 444.907 290.032ZM462.931 290.651C465.933 290.758 468.684 293.772 468.022 297.443C467.09 301.859 465.389 310.001 464.576 314.348C460.929 313.61 457.152 312.728 453.468 312.003C454.4 307.581 455.832 301.208 457.008 296.787C458.096 292.259 460.585 290.576 462.931 290.651ZM426.076 321.296C423.311 326.262 420.785 330.996 417.889 336.024C420.084 334.974 422.254 334.855 424.062 335.818C430.485 339.214 435.957 342.397 442.317 345.937C444.775 347.357 447.439 350.002 447.715 353.504C447.608 358.195 444.369 363.867 440.053 365.775C436.933 367.238 433.38 365.737 431.01 364.368C425.181 360.865 420.585 358.376 414.756 354.824C412.742 353.667 410.947 352.81 410.766 349.07C407.976 353.798 405.462 358.97 402.535 363.842C406.419 362.104 409.096 363.261 411.885 364.987C417.07 367.97 421.385 370.472 426.52 373.461C430.441 375.688 434.368 377.157 439.722 375.963C444.344 374.893 448.265 370.422 451.086 365.812C454.069 360.984 456.689 355.362 456.389 350.021C456.126 344.505 452.768 340.74 449.028 338.251C442.924 334.555 438.077 332.009 431.917 328.419C429.547 326.994 426.151 324.848 426.076 321.296ZM429.44 378.145C429.309 382.792 426.707 388.258 423.399 392.048C421.729 394.287 416.357 400.379 414.187 402.711C406.832 396.47 400.14 390.81 392.76 384.612C390.809 383.005 389.271 380.766 389.177 378.227C386.125 381.372 382.003 386.044 379.177 389.415C381.703 389.059 384.073 390.284 385.968 391.892C393.204 398.065 400.221 404.394 407.564 410.473C409.765 412.474 410.897 414.413 411.016 417.596C417.676 410.079 430.034 395.876 436.526 388.233C435.644 387.852 434.469 387.714 433.968 386.663C432.048 383.161 431.473 380.922 429.44 378.145ZM378.476 390.284C376.412 392.992 372.278 394.562 369.301 395.876C362.866 398.946 353.835 406.289 351.953 414.888C350.452 422.299 352.084 428.284 356.18 433.681C360.233 439.16 365.343 442.343 372.397 442.525C380.29 442.449 388.701 437.377 394.93 431.048C396.982 428.997 399.496 426.176 402.498 425.945C399.996 422.968 397.907 419.61 395.181 416.77C393.417 422.205 384.924 431.13 379.177 432.693C374.104 433.838 370.709 432.468 367 429.272C362.878 425.007 360.314 419.754 362.022 413.606C364.561 405.682 375.08 399.878 381.691 401.023C380.49 397.483 379.583 393.693 378.476 390.284Z" fill="#0053A0"/>
<path fill-rule="evenodd" clip-rule="evenodd" d="M257.179 100.084C256.341 102.498 255.772 105.681 255.209 108.477C255.09 109.09 254.784 109.509 254.415 109.953C235.696 128.79 212.569 123.305 203.951 150.929C202.975 153.262 204.213 155.732 208.385 158.04C208.804 158.29 209.173 158.184 209.173 157.746C208.122 127.752 248.648 129.778 257.51 108.965C257.604 108.752 257.904 108.808 257.998 108.965C265.447 122.861 277.755 124.681 289.006 131.185C297.43 136.045 303.503 140.454 305.222 154.257C305.279 154.907 305.46 154.788 305.792 154.457C307.067 153.049 310.163 152.324 310.069 150.216C307.343 129.853 284.916 125.457 266.923 117.07C266.172 116.495 265.409 115.919 264.659 115.344C260.894 110.891 258.023 105.869 257.179 100.084ZM256.854 125.55C256.653 125.563 256.485 125.607 256.31 125.707C256.116 125.801 255.928 126.001 255.822 126.207C255.722 126.395 255.759 126.989 255.822 127.395C255.89 127.658 256.128 127.802 256.272 127.971C256.572 128.34 256.835 128.552 257.223 128.84C257.704 129.159 258.298 128.765 258.405 128.384C258.548 127.721 258.548 126.989 258.405 126.407C258.367 126.195 258.204 126.063 258.073 125.869C257.892 125.669 257.692 125.563 257.379 125.55C257.248 125.538 257.035 125.525 256.854 125.55ZM262.97 131.223C262.908 131.235 262.883 131.248 262.814 131.304C262.695 131.398 262.601 131.554 262.601 131.711C262.589 132.53 262.22 133.724 262.97 134.15C263.339 134.319 263.802 134.381 264.09 134.056C264.233 133.818 264.515 133.737 264.496 133.318C264.496 133.118 264.221 133.055 264.133 132.83C264.015 132.499 264.077 131.911 263.958 131.673C263.852 131.498 263.746 131.329 263.552 131.304C263.352 131.267 263.17 131.173 262.97 131.223ZM251.707 131.342C251.162 131.529 250.587 131.923 250.387 132.618C250.149 133.03 250.162 133.356 250.387 133.606C250.675 134.031 251.031 134.531 251.531 134.763C251.957 134.963 252.507 134.963 252.695 134.056C252.901 133.305 252.914 132.249 252.576 131.961C252.138 131.648 252.244 131.21 251.707 131.342ZM257.667 141.254C255.271 148.465 254.652 152.099 252.945 157.84C256.072 157.865 257.798 157.878 260.049 157.921C258.217 151.38 258.129 148.784 257.667 141.254Z" fill="#0053A0"/>
<path fill-rule="evenodd" clip-rule="evenodd" d="M147.101 176.884C146.995 176.884 146.864 176.94 146.732 177.046C130.053 188.81 125.525 209.661 104.075 206.215C119.3 213.332 118.933 230.831 120.486 247.06C121.797 260.732 132.251 279.15 160.435 275.316C160.748 275.291 160.96 275.041 160.76 274.741C158.959 272.17 152.918 273.015 151.417 272.765C129.105 268.581 125.327 248.061 120.693 224.84C119.615 218.129 115.261 213.889 112.588 208.848C112.395 208.335 112.221 208.173 112.877 208.054C127.091 205.333 137.808 193 149.203 179.886C149.44 179.742 149.484 179.417 149.203 179.179C148.558 178.535 147.971 177.822 147.389 177.046C147.283 176.94 147.22 176.871 147.101 176.884ZM144.969 203.87C144.769 203.883 144.556 203.926 144.387 204.026C144.187 204.12 144.006 204.32 143.887 204.527C143.793 204.714 143.837 205.308 143.887 205.715C143.968 205.978 144.243 206.121 144.387 206.29C144.687 206.659 144.956 206.872 145.338 207.16C145.819 207.479 146.376 207.085 146.482 206.703C146.626 206.04 146.626 205.308 146.482 204.727C146.438 204.514 146.282 204.383 146.151 204.189C145.969 203.989 145.769 203.883 145.456 203.87C145.319 203.857 145.15 203.845 144.969 203.87ZM151.379 209.699C151.31 209.718 151.248 209.743 151.179 209.793C151.06 209.874 150.966 210.03 150.966 210.199C150.929 211.006 150.51 212.188 151.26 212.626C151.617 212.82 152.073 212.863 152.361 212.544C152.524 212.307 152.811 212.257 152.811 211.85C152.824 211.638 152.574 211.581 152.499 211.35C152.392 211.018 152.442 210.424 152.323 210.199C152.23 210.018 152.117 209.818 151.917 209.793C151.717 209.743 151.573 209.661 151.379 209.699ZM140.028 210.568C139.49 210.756 138.908 211.187 138.715 211.888C138.477 212.294 138.489 212.582 138.715 212.832C138.99 213.257 139.396 213.758 139.897 213.983C140.322 214.189 140.872 214.233 141.06 213.32C141.266 212.569 141.241 211.481 140.885 211.187C140.453 210.875 140.572 210.437 140.028 210.568ZM146.613 220.362C145.732 227.642 143.074 235.96 140.478 241.426C143.505 241.019 145.926 242.858 146.113 245.203C146.876 242.545 148.915 240.5 151.335 241.213C149.747 234.609 147.783 227.51 146.613 220.362Z" fill="#0053A0"/>
<path fill-rule="evenodd" clip-rule="evenodd" d="M170.423 291.27C170.304 291.301 170.172 291.339 170.016 291.402C144.187 301.383 139.027 324.573 153.468 344.992C164.319 363.223 169.122 370.734 163.962 385.387C184.15 361.353 219.917 400.234 240.437 370.253C240.712 369.884 240.28 369.633 239.855 369.221C238.854 368.526 237.804 368.064 236.778 367.657C236.015 367.369 235.596 367.538 235.133 368.195C226.734 377.044 199.498 375.081 178.903 375.143C178.271 375.143 176.389 375.475 175.77 375.806C173.794 376.819 171.792 377.714 169.685 377.526C169.122 377.526 168.265 377.226 168.409 376.056C169.434 361.078 160.522 351.559 154.875 339.201C153.111 334.986 140.028 311.346 171.492 296.986C171.636 296.711 171.936 296.549 171.899 296.13C171.805 294.666 171.505 293.221 171.079 291.721C171.004 291.352 170.792 291.22 170.423 291.27ZM193.788 319.82C193.588 319.851 193.381 319.889 193.206 319.983C193.012 320.089 192.825 320.283 192.725 320.483C192.631 320.677 192.656 321.271 192.725 321.677C192.787 321.94 193.062 322.071 193.206 322.247C193.525 322.615 193.775 322.822 194.157 323.116C194.645 323.429 195.251 323.035 195.351 322.653C195.483 321.996 195.501 321.258 195.351 320.677C195.301 320.47 195.101 320.352 194.988 320.151C194.788 319.939 194.632 319.851 194.326 319.82C194.182 319.807 193.988 319.795 193.788 319.82ZM200.292 325.336C200.223 325.349 200.148 325.361 200.079 325.417C199.973 325.511 199.867 325.667 199.879 325.824C199.842 326.643 199.423 327.813 200.161 328.263C200.53 328.444 200.936 328.482 201.236 328.169C201.38 327.931 201.724 327.894 201.724 327.469C201.737 327.275 201.449 327.218 201.355 326.981C201.249 326.656 201.343 326.061 201.236 325.824C201.13 325.642 201.03 325.442 200.817 325.417C200.63 325.361 200.486 325.298 200.292 325.336ZM188.691 326.036C188.153 326.218 187.577 326.656 187.377 327.35C187.127 327.744 187.152 328.05 187.377 328.3C187.653 328.719 188.021 329.207 188.522 329.445C188.941 329.658 189.497 329.695 189.666 328.788C189.879 328.038 189.904 326.943 189.547 326.656C189.116 326.337 189.235 325.905 188.691 326.036ZM194.62 335.405C193.738 342.685 191.073 351.003 188.484 356.469C191.511 356.062 193.932 357.863 194.119 360.221C194.882 357.563 196.921 355.549 199.341 356.269C197.747 349.664 195.777 342.566 194.62 335.405Z" fill="#0053A0"/>
<path fill-rule="evenodd" clip-rule="evenodd" d="M341.333 291.233C341.202 291.245 341.052 291.377 341.002 291.52C340.433 292.734 339.857 293.891 339.276 295.104C338.763 296.474 338.738 297.643 340.802 298.3C377.807 313.428 359.589 342.053 349.939 358.852C348.938 360.578 346.543 365.668 346.361 367.907C345.992 370.29 346.361 372.367 346.305 374.856C346.305 375.437 345.492 375.594 345.042 375.512C321.352 370.959 300.857 391.892 281.438 369.302C279.65 367.37 277.504 367.182 276.716 367.789C275.86 368.433 275.228 369.146 274.621 370.09C274.215 370.659 274.227 370.984 274.703 371.566C294.891 399.878 324.735 366.444 350.345 380.528C344.348 366.131 356.168 352.166 362.853 339.608C377.713 314.36 360.327 298.844 341.465 291.233C341.408 291.208 341.383 291.233 341.333 291.233ZM321.721 319.282C321.52 319.307 321.352 319.351 321.176 319.451C320.983 319.545 320.795 319.745 320.689 319.939C320.601 320.139 320.626 320.771 320.689 321.177C320.757 321.44 320.995 321.546 321.139 321.715C321.439 322.072 321.702 322.297 322.083 322.572C322.571 322.903 323.165 322.509 323.272 322.128C323.415 321.471 323.415 320.721 323.272 320.152C323.234 319.926 323.071 319.808 322.953 319.614C322.759 319.414 322.559 319.307 322.246 319.282C322.115 319.27 321.902 319.257 321.721 319.282ZM327.931 324.967C327.862 324.967 327.787 324.998 327.718 325.048C327.599 325.13 327.512 325.299 327.512 325.455C327.48 326.262 327.061 327.444 327.799 327.875C328.168 328.075 328.612 328.113 328.919 327.8C329.063 327.563 329.363 327.525 329.363 327.1C329.363 326.906 329.132 326.837 329.038 326.599C328.931 326.274 328.981 325.693 328.881 325.455C328.775 325.274 328.706 325.073 328.494 325.048C328.312 324.998 328.112 324.93 327.931 324.967ZM316.455 325.824C315.91 326.012 315.373 326.456 315.179 327.144C314.941 327.55 314.954 327.838 315.179 328.088C315.466 328.513 315.823 329.007 316.323 329.232C316.742 329.445 317.293 329.483 317.48 328.576C317.693 327.825 317.662 326.731 317.305 326.443C316.886 326.13 316.992 325.693 316.455 325.824ZM322.746 335.211C321.877 342.491 319.206 350.809 316.611 356.269C319.65 355.862 322.071 357.707 322.246 360.046C323.009 357.388 325.048 355.349 327.468 356.062C325.879 349.452 323.916 342.36 322.746 335.211Z" fill="#0053A0"/>
<path fill-rule="evenodd" clip-rule="evenodd" d="M363.798 176.502C363.723 176.534 363.654 176.596 363.591 176.678C363.31 177.003 363.079 178.81 363.01 180.005C362.997 180.255 362.997 180.455 363.26 180.624C368.563 183.851 384.455 201.869 398.301 205.015C398.908 205.146 398.983 205.659 398.683 205.965C382.216 225.315 401.854 255.535 369.395 267.055C363.366 268.712 357.3 267.924 356.18 271.939C356.149 272.083 356.349 272.264 356.468 272.264C375.987 273.503 388.164 266.923 391.81 252.983C396.506 237.448 387.663 215.378 404.318 203.332C404.737 203.013 404.512 202.463 404.143 202.5C387.307 204.214 376.544 186.353 364.035 176.546C363.973 176.502 363.867 176.49 363.798 176.502ZM369.145 202.5C368.945 202.544 368.739 202.607 368.563 202.713C368.37 202.807 368.182 203.001 368.076 203.213C367.988 203.395 368.013 203.989 368.076 204.395C368.144 204.658 368.382 204.808 368.526 204.977C368.826 205.346 369.089 205.515 369.47 205.79C369.958 206.122 370.552 205.765 370.659 205.384C370.802 204.727 370.802 203.989 370.659 203.407C370.621 203.201 370.458 203.026 370.34 202.832C370.146 202.632 369.946 202.525 369.633 202.5C369.502 202.5 369.326 202.475 369.145 202.5ZM374.855 208.848C374.792 208.861 374.724 208.873 374.661 208.923C374.542 209.017 374.486 209.174 374.486 209.336C374.448 210.149 374.042 211.319 374.78 211.769C375.13 211.95 375.555 211.994 375.843 211.675C375.999 211.438 376.306 211.4 376.306 210.981C376.306 210.781 376.056 210.731 375.974 210.493C375.868 210.162 375.924 209.568 375.806 209.336C375.712 209.149 375.63 208.955 375.437 208.923C375.236 208.873 375.055 208.805 374.855 208.848ZM363.104 208.923C362.56 209.111 362.022 209.543 361.828 210.243C361.59 210.649 361.603 210.937 361.828 211.187C362.103 211.613 362.472 212.113 362.972 212.332C363.391 212.544 363.942 212.582 364.129 211.675C364.323 210.925 364.311 209.874 363.96 209.586C363.523 209.267 363.641 208.792 363.104 208.923ZM369.433 218.217C368.563 225.497 365.893 233.814 363.298 239.281C366.324 238.874 368.764 240.713 368.932 243.07C369.695 240.412 371.734 238.355 374.161 239.068C372.566 232.476 370.602 225.365 369.433 218.217Z" fill="#0053A0"/>
<path fill-rule="evenodd" clip-rule="evenodd" d="M352.609 131.423C352.547 131.436 352.478 131.436 352.403 131.473C337.449 135.701 317.255 152.956 300.619 168.078C300.132 168.635 299.462 168.753 298.918 168.566C287.861 164.932 275.003 164.463 264.29 164.169C249.005 162.762 230.63 164.632 214.188 169.96C213.482 170.211 212.95 169.566 212.425 168.935C199.41 154.457 181.073 142.599 161.286 134.344C160.735 134.081 160.272 133.843 159.641 134.425C149.484 143.794 151.717 171.543 160.435 186.59C161.461 188.773 161.686 192.6 161.711 193.907C162.33 202 163.906 208.992 166.026 216.534C166.551 221.219 168.346 225.984 171.042 230.024C171.567 230.669 171.342 231.25 170.961 231.669C167.515 235.121 164.369 238.386 160.923 241.832C160.673 242.07 160.197 242.238 159.735 242.32C156.876 242.651 155.982 243.583 154.631 246.885C154.431 247.361 154.456 247.692 154.706 248.086C155.194 248.993 158.509 254.734 161.248 257.786C163.893 260.406 162.905 262.896 160.673 265.278C164.894 268.437 172.449 274.478 172.899 275.397C173.375 277.83 177.665 278.65 175.107 282.139C175.782 282.296 176.189 282.546 176.714 282.965C177.096 283.378 177.177 283.772 177.215 284.203C177.559 287.993 178.272 291.433 180.373 295.06C188.928 309.57 198.516 307.331 209.911 319.701C216.728 327.112 223.457 327.406 228.091 340.477C227.666 345.436 227.403 348.476 229.448 352.766C231.869 358.007 237.829 358.207 245.49 361.691C246.516 362.091 247.085 362.404 247.835 363.179C249.837 365.13 252.138 366.381 254.746 367.62C256.854 368.514 259.349 368.514 261.288 367.538C264.971 365.431 265.747 366.957 272.557 362.06C278.98 360.165 289.468 352.253 288.349 338.788C288.386 338.394 288.48 338.132 288.599 337.788C288.799 337.169 289.375 336.549 289.919 335.949C292.508 332.853 295.472 330.114 297.286 326.362C297.655 325.455 297.974 324.573 298.799 323.891C324.441 302.959 315.373 312.159 324.641 305.054C343.647 290.601 331.17 273.728 353.429 264.29C350.414 257.905 351.44 257.323 361.246 243.727C356.062 240.988 352.453 237.842 348.857 235.328C337.581 226.485 347.819 218.98 348.744 214.639C349.388 212.175 350.358 209.067 350.595 205.921C351.796 198.673 351.121 190.13 354.823 186.34C357.55 183.707 358.338 169.291 358.77 168.122C361.759 158.709 360.664 157.446 361.209 151.536C361.296 150.748 361.578 150.116 361.209 149.247C359.126 143.506 356.574 137.952 353.635 132.449C353.372 131.973 353.178 131.517 352.809 131.423C352.753 131.411 352.678 131.423 352.609 131.423ZM343.729 153.562C342.528 165.37 338.225 173.188 339.57 183.088C334.554 189.248 336.236 200.737 331.627 207.61C331.327 208.004 330.92 208.229 330.432 208.185C324.31 207.172 320.019 199.461 314.81 195.102C314.278 194.683 314.016 194.289 314.191 193.87C316.311 189.154 321.176 184.426 317.399 179.635C317.587 165.908 333.985 163.7 343.729 153.562ZM167.383 155.826C177.002 161.211 183.137 170.254 187.865 170.386C188.603 171.53 189.654 172.712 190.536 173.638C197.615 181.693 191.999 184.695 198.222 195.027C198.897 196.471 199.198 197.879 198.222 198.76C194.063 202.381 190.367 206.053 186.915 210.03C182.349 215.571 180.123 213.532 178.772 210.03C177.928 207.435 177.033 204.502 178.203 201.512C178.928 199.867 178.49 198.516 177.252 196.947C175.595 194.62 174.244 192.156 172.937 189.704C172.474 188.785 172.174 187.997 171.992 186.84C170.348 176.652 170.648 161.417 167.383 155.826ZM286.873 256.679C287.573 256.604 288.193 257.086 288.274 257.786C288.349 258.499 287.824 259.156 287.123 259.231C286.416 259.3 285.797 258.787 285.716 258.074C285.653 257.38 286.179 256.76 286.873 256.679ZM221.181 256.798C221.893 256.735 222.506 257.204 222.575 257.917C222.656 258.618 222.125 259.231 221.431 259.312C220.73 259.393 220.099 258.906 220.036 258.205C219.955 257.498 220.48 256.879 221.181 256.798ZM327.024 285.391C328.062 285.404 328.381 286.373 328.262 287.361C327.155 301.314 320.651 297.474 305.791 310.689C301.908 313.791 303.184 316.805 297.943 321.221C293.552 325.323 289.456 329.614 285.716 334.923C285.109 335.83 284.665 334.867 284.609 334.461C284.428 333.354 283.771 332.103 282.845 331.09C280.388 328.325 284.309 328.669 279.887 322.046C278.055 319.363 275.935 322.822 274.659 318.469C273.871 315.661 274.621 317.043 273.633 310.526L276.229 308.381C277.448 311.859 279.162 314.767 281.032 317.187C281.307 317.518 280.794 320.452 281.939 323.035C282.176 318.957 285.822 316.612 280.625 309.294C279.95 308.344 279.6 307.412 279.349 306.292C279.318 306.174 279.293 306.08 279.268 305.961C289.112 299.563 300.132 294.341 310.532 290.032C310 290.626 309.488 291.22 308.962 291.852C308.725 292.139 309.187 292.246 309.331 292.183C309.963 292.008 310.263 292.089 310.763 292.183C311.095 292.377 311.057 292.721 311.057 293.034C311.132 294.247 310.163 294.316 310.451 295.667C312.164 293.472 313.797 291.339 315.542 289.338C315.954 288.825 316.492 288.218 317.305 288.312L319.206 288.562C319.851 288.587 320.47 288.468 321.176 288.268C322.853 287.612 324.103 286.799 325.704 285.717C326.23 285.466 326.668 285.391 327.024 285.391ZM187.246 287.612C187.309 287.612 187.415 287.655 187.496 287.693C192.431 290.169 199.16 291.72 202.593 293.165C204.395 294.009 206.333 295.26 207.728 295.473C208.303 295.51 208.303 295.198 208.016 294.854C207.647 294.272 207.278 293.722 206.909 293.209C215.389 297.143 223.244 301.708 231.55 307.199C231.525 307.268 231.487 307.331 231.475 307.399C231.237 308.106 230.999 308.75 230.762 309.332C230.63 309.663 230.487 310.032 230.355 310.32C230.249 310.57 230.13 310.833 230.024 311.058C229.83 311.477 229.63 311.94 229.448 312.296C229.211 312.753 228.948 313.291 228.748 313.691C228.685 313.847 228.617 313.991 228.548 314.147C228.416 314.441 228.273 314.729 228.185 315.004C228.116 315.204 228.066 315.386 228.01 315.586C227.985 315.673 227.947 315.767 227.935 315.874C227.879 316.136 227.866 316.399 227.841 316.687C227.829 316.956 227.829 317.231 227.841 317.518C227.866 317.825 227.879 318.125 227.935 318.469C228.035 319.295 228.273 319.614 228.548 319.745C228.629 319.782 228.748 319.795 228.842 319.82C229.036 319.864 229.417 319.926 229.536 319.614C229.63 319.32 229.774 319.032 229.905 318.757C230.036 318.469 230.155 318.206 230.318 317.925C230.618 317.375 230.974 316.824 231.343 316.28C231.418 316.161 231.5 316.03 231.593 315.911C232.263 314.967 233.001 314.06 233.682 313.122C233.751 313.028 233.789 312.953 233.857 312.872C234.133 312.465 234.383 312.046 234.633 311.633C234.727 311.49 234.827 311.333 234.921 311.189C235.158 310.777 235.396 310.37 235.577 309.951L240.887 313.897C240.005 316.055 238.873 318.982 238.542 321.058C237.923 325.73 235.052 324.679 232.907 322.903C233.038 327.719 233.407 329.789 230.724 334.01C230.368 334.617 230.036 334.404 229.817 334.01C223.326 321.496 217.059 324.479 208.848 311.146C208.11 309.213 206.715 307.368 204.026 306.367C193.907 302.384 186.677 299.644 186.915 288.018C186.927 287.812 187.033 287.612 187.246 287.612ZM276.504 329.407C276.923 329.432 277.292 329.789 277.448 330.233C279.493 334.842 282.032 342.947 281.201 345.568C278.199 357.075 270.093 358.983 262.564 357.995C256.916 357.257 256.891 355.931 256.797 352.153C256.81 351.741 257.379 351.584 257.835 351.453C264.659 349.308 268.761 345.593 268.936 338.501C268.974 337.538 269.093 336.524 268.605 335.655C270.512 334.436 272.276 333.172 274.002 331.59C274.052 331.54 274.121 331.484 274.159 331.421C274.684 330.589 275.278 329.92 276.097 329.482C276.241 329.432 276.372 329.395 276.504 329.407ZM238.579 330.277C238.804 330.208 239.005 330.327 239.242 330.602C239.411 330.79 239.649 331.377 240.187 331.377C241.106 332.541 242.388 333.541 243.595 334.423C243.226 334.786 243.001 335.211 242.857 335.655C242.476 336.75 242.544 338.607 242.857 340.302C242.988 341.303 243.332 342.184 243.845 343.054C246.309 346.887 248.06 348.607 250.837 350.502C251.994 351.203 253.27 351.809 254.746 351.665C255.152 351.609 255.39 351.884 255.321 352.228C254.877 357.876 252.307 358.257 245.821 357.457C231.45 354.586 230.18 345.224 237.96 331.09C238.135 330.589 238.373 330.339 238.579 330.277ZM257.223 360.828C259.205 360.784 261.313 360.853 263.383 361.115C263.696 361.178 263.721 361.441 263.633 361.653C263.339 362.429 262.47 363.417 262.026 363.798C261.75 364.011 261.325 364.092 260.956 364.205C259.405 364.618 256.985 364.799 256.56 364.736C256.178 364.655 255.797 364.511 255.44 364.286C254.089 363.523 252.826 362.641 251.494 361.828C251.206 361.603 251.194 361.259 251.531 361.209C253.326 361.034 255.221 360.878 257.223 360.828Z" fill="#0053A0"/>
<path fill-rule="evenodd" clip-rule="evenodd" d="M351.008 141.874C350.927 141.874 350.846 141.886 350.758 141.911C334.423 147.852 314.159 159.673 303.621 175.358C299.369 178.785 295.01 182.125 290.494 185.058C299.881 172.581 281.151 171.755 258.573 169.304C243.057 167.978 224.539 172.831 218.51 176.139C217.966 176.452 217.628 177.071 218.06 177.622C219.742 180.017 220.261 182.838 221.256 185.483C221.393 185.771 221.112 185.796 220.893 185.602C201.249 168.015 171.899 144.294 162.117 141.955C161.655 141.874 161.235 142.03 160.998 142.455C160.304 143.912 160.141 144.338 159.603 145.782C159.222 147.058 158.521 147.852 158.171 148.203C152.574 153.694 162.38 163.988 163.843 182.813C164.819 190.761 166.739 194.326 168.565 199.792C168.847 200.53 169.028 201.162 169.147 201.894C171.686 210.662 173.343 219.599 176.714 227.723C180.729 240.769 164.988 238.624 164.344 249.443C163.975 256.785 172.593 260.813 171.123 266.185C171.029 266.523 170.398 266.892 170.754 267.33C177.39 274.215 179.954 272.608 182.637 278.318C188.866 289.231 195.633 277.292 206.909 293.209C215.389 297.143 223.244 301.708 231.55 307.199C232.144 305.342 232.694 303.04 233.195 300.038C234.183 294.103 233.989 288.112 230.236 279.832C229.548 278.624 229.961 276.579 231.181 275.61C231.8 275.147 232.063 274.966 232.131 275.923C233.182 286.93 242.2 294.353 236.647 304.766C236.447 305.148 236.209 305.461 236.278 306.08C236.397 307.487 236.109 308.75 235.577 309.951L240.887 313.897C241.237 313.041 241.556 312.321 241.756 311.808C244.12 299.576 245.978 279.832 247.754 277.374C247.917 277.136 248.11 276.767 247.754 276.504C245.69 274.372 243.37 270.832 244.427 269.763C245.559 268.906 252.151 271.57 252.113 276.348C251.838 280.626 247.666 320.233 242.451 325.824C242.2 326.111 242.294 326.312 242.451 326.524C244.727 329.733 244.239 330.527 243.439 330.933C242.713 331.209 241.2 331.09 240.518 331.34C240.399 331.377 240.28 331.377 240.187 331.377C241.106 332.541 242.388 333.541 243.595 334.423C244.32 333.71 245.546 333.185 247.429 332.903C254.784 331.628 261.801 331.84 267.173 334.379C267.892 334.748 268.342 335.186 268.605 335.655C270.512 334.436 272.276 333.172 274.002 331.59C273.502 331.959 272.439 331.603 272.276 330.758C269.33 314.704 266.185 312.227 264.327 300.12C263.577 296.011 263.22 291.708 263.996 287.768C264.246 286.492 264.327 285.335 263.996 283.953C262.933 279.994 262.995 275.86 263.883 271.939C264.484 270.619 266.028 268.856 267.129 267.367C268.042 266.173 268.686 264.778 269.187 263.265C269.699 261.695 274.79 254.09 279.137 252.889C279.506 252.795 279.556 252.576 279.6 252.232C279.637 251.851 278.924 251.838 278.98 251.257C279.137 248.23 298.168 249.862 308.187 250.794C312.002 250.456 315.811 249.862 319.413 249.193C320.044 249.074 320.088 249.293 319.707 249.693C316.717 252.983 312.415 254.784 308.518 255.284C307.78 255.391 307.58 255.797 307.436 256.354C305.21 267.524 289.049 272.921 282.02 271.607C281.57 271.526 281.557 271.845 281.57 272.07C282.082 277.793 279.625 278.374 277.492 295.104C277.361 296.036 277.398 296.868 277.542 297.812C277.873 300.526 278.661 303.103 279.268 305.961C289.112 299.563 300.132 294.341 310.532 290.032C312.633 287.655 314.716 285.504 316.899 283.084C317.505 282.283 318.675 281.795 319.782 281.401C328.062 277.924 336.449 272.514 342.74 265.685C342.922 265.46 343.303 265.091 343.184 264.659C341.264 255.678 347.187 253.02 350.914 246.36C351.477 245.491 350.871 245.265 350.258 244.953C346.161 242.37 342.434 238.805 339.57 235.459C338.894 234.458 338.607 233.195 338.369 232.076C335.404 218.129 341.54 217.11 342.647 209.042C342.565 205.027 343.647 200.305 344.911 196.134C346.399 191.274 347.068 187.328 348.782 184.614C349.626 160.317 357.169 165.802 355.111 152.849C354.573 150.26 353.203 145.557 351.571 142.324C351.44 142.017 351.24 141.886 351.008 141.874ZM346.362 146.614C346.493 146.583 346.637 146.602 346.768 146.614C347.637 146.677 348.319 147.321 348.413 148.128C348.569 149.704 348.913 151.155 349.226 152.612C343.61 166.039 346.874 184.47 339.526 195.765C339.157 205.659 337.919 211.969 332.04 215.915C331.802 216.097 331.539 216.072 331.258 215.915C321.877 211.331 313.49 201.775 305.304 194.276C318.043 185.983 306.504 177.271 315.585 167.753C326.155 156.589 335.461 155.482 345.123 147.177C345.53 146.833 345.949 146.652 346.362 146.614ZM163.725 147.308C164.882 147.321 166.214 147.94 167.171 148.866C176.583 152.981 175.739 156.746 183.087 160.436C184.651 161.249 187.327 162.712 189.391 163.181C190.342 166.477 191.893 166.383 195.351 172.281C196.183 173.725 199.223 176.096 199.498 178.072C199.71 179.31 199.685 180.386 199.592 181.574C199.498 184.926 198.116 188.128 199.961 189.629C201.474 190.405 200.473 191.168 203.213 192.55C204.595 193.219 205.308 193.907 204.57 195.352C202.381 199.186 199.698 202.344 197.253 205.846C196.615 206.659 195.683 207.303 194.738 207.86C189.429 211.043 185.02 215.521 180.254 219.743C179.954 219.968 179.81 219.743 179.597 219.668C175.032 217.072 173.819 212.544 173.212 206.372C171.636 189.892 168.328 204.145 162.774 155.076C162.024 152.862 161.21 148.916 161.905 148.009C162.38 147.521 163.012 147.296 163.725 147.308ZM271.2 179.266C266.973 187.103 264.828 186.365 262.276 189.429C262.088 189.642 261.894 189.905 261.694 190.167C261.513 190.43 261.313 190.705 261.131 191.024C260.931 191.337 260.787 191.618 260.706 191.893C260.706 191.906 260.719 191.918 260.706 191.931C260.644 192.194 260.6 192.488 260.587 192.719C260.706 195.277 260.287 196.315 260.956 197.159C261 197.222 261.025 197.291 261.038 197.366C261.075 197.447 261.075 197.528 261.088 197.603C261.1 197.778 261.063 197.947 261 198.066C260.525 197.766 259.787 197.197 259.155 196.634C258.667 196.196 258.261 195.79 258.073 195.433C258.073 195.421 258.086 195.408 258.073 195.396C258.023 195.277 257.998 195.158 257.998 195.064C257.998 194.802 257.973 194.633 257.954 194.483C257.892 193.895 257.723 193.982 257.585 193.338C257.523 193.013 257.441 192.5 257.416 191.606C257.404 191.168 257.416 190.618 257.416 189.955C257.366 189.536 257.404 189.323 257.51 189.142C257.548 189.06 257.604 188.973 257.667 188.891C257.735 188.81 257.798 188.735 257.879 188.641C261.694 184.72 266.76 182.125 271.2 179.266ZM240.768 180.217C244.765 182.931 249.255 186.559 253.639 190.205C253.733 190.311 253.795 190.417 253.889 190.536C254.139 190.918 254.327 191.368 254.221 191.931C253.958 193.588 253.164 195.183 252.532 196.865C252.507 196.947 252.457 196.984 252.401 197.04C252.351 197.078 252.307 197.134 252.244 197.159C252.113 197.209 251.957 197.197 251.875 197.116C251.087 196.115 250.231 195.102 249.518 194.076C249.28 193.763 249.03 193.419 249.03 193C249.061 192.669 249.074 192.337 249.074 192.062C249.074 191.775 249.061 191.524 249.03 191.274C248.967 190.811 248.823 190.405 248.623 190.086C248.611 190.073 248.623 190.048 248.623 190.048C248.204 189.379 247.479 188.985 246.322 188.679C245.371 188.404 244.546 187.985 243.845 187.497C243.833 187.484 243.82 187.497 243.808 187.497C242.782 186.759 242.044 185.771 241.544 184.576C241.544 184.564 241.506 184.545 241.506 184.532C241.006 183.313 240.781 181.887 240.768 180.217ZM293.709 218.717C294.784 218.667 295.916 218.798 297.036 219.048C298.143 219.299 299.25 219.68 300.194 220.193C300.488 220.374 300.563 220.731 300.238 220.85C298.656 221.275 297.048 221.813 295.429 222.457C294.616 222.77 293.828 223.126 292.996 223.483C288.918 225.284 284.759 227.535 280.625 229.618C280.187 229.799 279.9 229.737 279.712 229.486C279.65 229.393 279.6 229.299 279.556 229.155C279.462 228.711 279.481 228.273 279.518 227.842C279.543 227.416 279.625 226.985 279.637 226.522C279.675 225.89 280.069 225.853 280.294 225.534C281.069 225.234 281.726 224.971 282.27 224.721C283.89 223.97 284.547 223.445 285.097 222.957C285.478 222.626 285.822 222.326 286.298 221.957C286.785 221.6 287.43 221.194 288.48 220.693C289.112 220.406 289.744 220.143 290.363 219.861C290.994 219.599 291.614 219.336 292.22 219.124C292.696 218.873 293.246 218.729 293.709 218.717ZM213.451 219.574C213.532 219.574 213.638 219.599 213.701 219.574C213.963 219.668 214.176 219.774 214.364 219.861C214.545 219.968 214.676 220.074 214.808 220.193C215.295 220.612 215.496 221.087 216.746 221.681C217.047 221.825 217.441 222.007 217.891 222.169C218.347 222.326 218.892 222.482 219.536 222.67C221.087 223.17 222.194 223.458 223.232 223.852C223.257 223.864 223.257 223.889 223.288 223.889C224.314 224.302 225.302 224.802 226.521 225.665C226.947 225.959 227.391 226.303 227.891 226.697C228.379 227.091 228.936 227.535 229.536 228.048C229.786 228.248 230.011 228.379 230.068 228.748C230.08 228.867 230.068 228.986 230.024 229.117V229.155C229.986 229.286 229.93 229.405 229.867 229.536C229.711 229.812 229.498 230.049 229.286 230.237C229.211 230.287 229.142 230.331 229.079 230.356C229.023 230.368 228.917 230.368 228.785 230.356C228.391 230.274 228.079 230.224 227.76 230.106C227.472 229.999 227.222 229.868 226.984 229.737C226.734 229.605 226.521 229.486 226.328 229.33C226.127 229.167 225.971 228.999 225.79 228.83C225.421 228.486 225.039 228.129 224.551 227.76C224.326 227.579 224.076 227.404 223.77 227.222C223.47 227.047 223.126 226.866 222.744 226.697C222.35 226.522 222.037 226.485 221.718 226.566C221.612 226.603 221.493 226.628 221.393 226.697C220.968 226.866 220.574 226.666 220.155 226.566C219.836 226.497 219.479 226.378 219.129 226.247C219.11 226.234 219.098 226.247 219.085 226.247C216.521 225.234 213.332 222.732 213.319 219.743C213.319 219.693 213.35 219.643 213.363 219.611C213.388 219.599 213.413 219.574 213.451 219.574ZM218.917 248.205C219.598 248.205 220.311 248.242 221.024 248.28C221.743 248.349 222.481 248.411 223.232 248.53C223.801 248.624 224.351 248.743 224.933 248.861C225.114 248.912 225.302 248.943 225.496 248.993C225.84 249.074 226.184 249.174 226.521 249.281C226.972 249.399 227.403 249.531 227.841 249.693C228.485 249.912 229.104 250.15 229.736 250.425C230.286 250.663 230.843 250.925 231.381 251.207C231.919 251.494 232.463 251.826 232.988 252.151C233.432 252.426 233.87 252.72 234.302 253.02C234.502 253.152 234.696 253.246 234.883 253.389C235.196 253.627 235.515 253.877 235.828 254.127C235.896 254.177 235.959 254.234 236.028 254.296C236.078 254.34 236.146 254.378 236.196 254.415C236.29 254.496 236.397 254.59 236.49 254.665C236.897 255.022 237.303 255.428 237.71 255.81C238.242 256.31 238.742 256.823 239.242 257.38C239.28 257.417 239.317 257.455 239.374 257.498C239.818 258.011 240.237 258.549 240.687 259.099C240.937 259.443 241.2 259.787 241.462 260.131C241.675 260.431 241.869 260.694 242.082 261.001C242.544 261.682 242.963 262.395 243.401 263.146C243.57 263.433 243.701 263.815 243.689 264.128C243.676 264.234 243.651 264.315 243.595 264.422C243.189 265.291 242.938 266.173 242.738 267.173C242.713 267.317 242.582 267.436 242.451 267.461C242.401 267.461 242.319 267.449 242.282 267.424C241.569 266.986 240.912 266.567 240.268 266.104C239.649 265.66 239.067 265.172 238.504 264.697C238.492 264.697 238.46 264.709 238.46 264.697C237.885 264.221 237.36 263.721 236.816 263.221C231.988 258.762 228.592 253.915 222.087 252.614C222.075 252.601 222.062 252.614 222.05 252.614C219.142 252.032 215.652 252.176 211.112 253.352C209.598 253.508 207.922 253.508 206.215 253.389C204.501 253.271 202.762 253.033 201.105 252.733C200.305 252.589 199.473 252.414 198.722 252.232C198.71 252.232 198.697 252.245 198.685 252.232C197.934 252.057 197.234 251.851 196.59 251.663C196.565 251.651 196.552 251.663 196.54 251.663C195.207 251.269 194.132 250.85 193.381 250.469C196.777 250.531 200.511 250.494 203.738 250.35C206.965 250.206 209.648 249.993 210.936 249.731C211.374 249.518 211.9 249.337 212.469 249.149C212.994 248.98 213.601 248.793 214.232 248.661C214.282 248.649 214.351 248.661 214.401 248.661C214.964 248.543 215.558 248.442 216.202 248.374C216.309 248.361 216.39 248.336 216.496 248.336C217.272 248.255 218.072 248.217 218.917 248.205ZM290.613 253.721C287.742 253.89 284.597 254.984 281.032 258.074C275.635 263.377 271.094 269.975 267.617 276.217C267.21 276.98 267.079 277.674 267.248 278.481C271.2 296.667 272.895 305.723 273.633 310.526L276.229 308.381C274.671 304.003 273.871 298.706 274.409 292.34C276.279 287.468 277.254 281.714 278.111 276.217C280.95 270.188 281.244 267.63 283.99 267.792C286.454 267.924 289.006 268.043 291.313 267.542C292.208 267.367 292.946 267.011 293.746 266.51C297.63 264.171 300.945 261.001 303.778 257.417C304.122 257.048 304.328 256.26 304.147 255.904C304.04 255.628 303.872 255.485 303.528 255.485C299.444 255.735 295.416 253.439 290.613 253.721ZM289.3 254.165C290.063 254.152 290.851 254.321 291.601 254.628C293.115 255.222 294.222 256.379 294.816 257.748C295.116 258.443 295.285 259.168 295.316 259.931C295.328 260.694 295.197 261.482 294.891 262.233C294.591 262.983 294.153 263.627 293.615 264.171C292.008 265.791 289.493 266.379 287.242 265.485C286.861 265.328 286.504 265.172 286.179 264.947C285.847 264.734 285.585 264.472 285.31 264.209C283.69 262.602 283.096 260.131 283.99 257.88C284.109 257.573 284.24 257.311 284.403 257.048C284.428 257.023 284.465 256.998 284.49 256.967C284.559 256.854 284.609 256.748 284.69 256.642C284.847 256.429 285.022 256.248 285.191 256.06L285.347 255.904C285.597 255.653 285.847 255.403 286.141 255.203C286.36 255.034 286.623 254.915 286.873 254.784C286.917 254.772 286.954 254.772 286.992 254.747C287.073 254.722 287.123 254.653 287.204 254.628C287.523 254.496 287.849 254.403 288.193 254.34C288.549 254.259 288.931 254.177 289.3 254.165ZM223.657 254.259C224.42 254.234 225.152 254.365 225.921 254.665C226.284 254.809 226.653 254.984 226.984 255.203C227.316 255.416 227.578 255.666 227.841 255.941C228.129 256.223 228.366 256.485 228.592 256.798C229.011 257.43 229.33 258.13 229.498 258.868C229.736 259.956 229.655 261.144 229.211 262.276C229.048 262.658 228.879 262.971 228.667 263.302C228.667 263.315 228.685 263.327 228.667 263.34C227.816 264.628 226.471 265.497 225.008 265.816C224.27 265.973 223.507 265.985 222.744 265.854C222.363 265.791 221.969 265.672 221.6 265.529C221.218 265.366 220.849 265.197 220.524 264.984C219.88 264.565 219.348 264.009 218.917 263.377C217.86 261.826 217.559 259.8 218.31 257.917C218.454 257.548 218.666 257.204 218.879 256.892C219.073 256.585 219.261 256.31 219.492 256.06C219.548 256.01 219.611 255.985 219.667 255.941C219.917 255.691 220.155 255.428 220.443 255.247C220.68 255.072 220.93 254.953 221.181 254.822C221.193 254.822 221.206 254.797 221.218 254.784C221.456 254.678 221.718 254.628 221.969 254.546C222.206 254.471 222.456 254.378 222.707 254.34H222.788C223.063 254.284 223.363 254.259 223.657 254.259ZM204.976 257.129C205.12 257.129 205.276 257.154 205.427 257.179C205.452 257.179 205.489 257.167 205.514 257.179C205.777 257.204 206.039 257.298 206.333 257.417C206.646 257.548 206.978 257.705 207.322 257.917C207.672 258.13 208.041 258.368 208.441 258.655L208.554 258.737C208.898 258.999 209.242 259.262 209.623 259.562C210.03 259.881 210.411 260.156 210.861 260.513C211.687 261.157 212.6 261.864 213.569 262.564C214.057 262.921 214.557 263.246 215.095 263.59C215.508 263.852 215.927 264.159 216.377 264.422C216.559 264.528 216.759 264.628 216.94 264.734C217.453 265.028 217.997 265.303 218.548 265.566C219.085 265.829 219.655 266.066 220.23 266.304C220.418 266.379 220.586 266.485 220.774 266.554C221.349 266.773 221.956 266.948 222.575 267.13C223.313 267.342 224.064 267.555 224.839 267.711C225.627 267.855 226.434 267.961 227.272 268.024C228.116 268.105 228.998 268.155 229.905 268.155C230.08 268.155 230.211 268.199 230.318 268.274C230.418 268.343 230.499 268.437 230.524 268.606C230.549 270.025 229.248 270.526 227.841 270.619C227.009 270.632 226.184 270.607 225.339 270.582C222.863 270.513 220.405 270.319 217.928 269.919C217.666 269.894 217.441 269.831 217.19 269.725C216.953 269.619 216.746 269.475 216.496 269.306C215.733 268.787 214.926 268.199 214.113 267.542C213.294 266.879 212.519 266.198 211.768 265.529C210.993 264.841 210.28 264.209 209.661 263.627C209.054 263.064 208.572 262.577 208.228 262.233C207.872 261.92 207.597 261.657 207.359 261.407C207.134 261.169 206.94 260.932 206.777 260.75C206.477 260.381 206.346 260.131 206.177 259.894C206.083 259.775 205.989 259.668 205.883 259.562C205.558 259.218 205.026 258.849 203.832 258.205C203.688 258.143 203.594 258.086 203.582 257.999C203.569 257.942 203.569 257.905 203.619 257.836C203.663 257.774 203.7 257.692 203.776 257.63C203.907 257.523 204.069 257.442 204.201 257.38C204.32 257.311 204.438 257.248 204.57 257.217C204.701 257.179 204.832 257.142 204.976 257.129Z" fill="#FDBE11"/>
</g>
<defs>
<clipPath id="clip0_1_3308">
<rect width="512" height="509.952" fill="white" transform="translate(0 0.000732422)"/>
</clipPath>
</defs>
</svg>
