<svg width="512" height="512" viewBox="0 0 512 512" fill="none" xmlns="http://www.w3.org/2000/svg">
<g clip-path="url(#clip0_1_2237)">
<path d="M313.931 512C312.273 511.714 310.615 511.485 308.985 511.142C298.063 508.912 288.4 504.28 281.166 495.589C275.133 488.327 271.874 479.892 271.274 470.286C270.702 461.566 271.903 453.246 275.534 445.412C280.794 434.09 289.543 426.456 301.38 422.568C311.901 419.08 322.651 418.908 333.487 421.252C336.747 421.967 339.978 422.682 343.237 423.368C344.095 423.54 344.495 423.911 344.581 424.855C345.038 430.03 345.553 435.176 346.125 440.323C346.21 441.18 346.039 441.809 345.21 441.952C344.752 442.038 344.066 441.724 343.723 441.352C339.634 437.063 335.146 433.346 329.399 431.545C322.966 429.544 316.447 428.372 309.786 430.402C298.721 433.775 291.602 441.38 288.657 452.274C284.854 466.34 287.17 479.549 296.577 491.071C301.151 496.675 307.413 499.363 314.446 500.106C321.651 500.878 328.684 500.135 335.26 496.79C338.72 495.046 341.807 492.758 344.438 489.871C344.695 489.585 344.867 489.242 345.038 489.013C346.325 489.442 346.582 490.042 346.439 491.129C345.924 495.331 345.467 499.534 345.153 503.766C345.038 505.338 344.581 506.11 343.008 506.682C335.46 509.513 327.769 511.342 319.707 511.657C319.506 511.657 319.335 511.828 319.135 511.943C317.362 512 315.647 512 313.931 512Z" fill="#E51B24"/>
<path d="M179.811 108.411C181.098 108.468 182.413 108.468 183.728 108.64C186.959 109.069 189.246 111.099 191.305 113.357C191.962 114.072 192.563 114.301 193.392 113.9C195.479 112.843 197.566 111.756 199.568 110.727C200.311 113.9 196.451 119.361 191.248 121.363C187.845 122.678 184.672 121.992 181.813 119.905C179.068 117.903 177.581 114.958 176.209 111.87C175.294 112.557 174.493 113.214 173.636 113.815C172.092 114.901 170.834 115.902 171.348 118.303C171.863 120.705 170.376 122.764 168.604 124.422C167.86 125.137 167.003 125.766 166.231 126.48C163.915 128.596 162.085 130.912 163.657 134.314C158.34 135.172 154.308 130.798 155.195 125.308C155.709 122.163 157.711 120.105 160.084 118.389C162.342 116.731 164.83 115.444 167.203 113.929C168.832 112.871 170.434 111.756 172.006 110.612C172.435 110.298 172.749 109.812 173.235 109.269C171.091 108.354 169.29 109.269 167.603 109.898C165.745 110.584 164.058 111.699 162.285 112.614C157.911 114.844 153.536 114.901 149.248 112.471C147.675 111.585 147.046 110.098 147.446 108.411C150.534 110.155 153.079 108.354 155.709 107.096C157.253 106.352 158.74 105.466 160.312 104.809C165.43 102.693 170.233 103.036 174.551 106.838C174.694 106.953 174.837 107.039 175.294 107.353C177.124 104.608 178.925 101.892 180.841 98.976C179.783 98.5471 178.982 98.2898 178.239 97.9181C177.41 97.4893 176.495 97.0604 175.894 96.4028C175.523 95.974 175.437 95.059 175.58 94.43C175.637 94.1441 176.552 93.9726 177.095 93.9154C178.611 93.7725 180.126 93.7439 181.641 93.6581C182.499 93.6009 183.042 93.2864 183.214 92.3429C183.728 89.7983 184.3 87.2823 184.901 84.4804C178.582 84.652 173.207 86.4818 167.489 88.8834C167.832 87.6826 167.975 86.7391 168.318 85.8528C169.776 82.1931 172.578 79.8201 176.066 78.2476C178.496 77.1611 181.012 76.332 183.643 75.3313C183.357 72.5008 181.756 70.185 180.212 67.8405C182.127 67.4688 183.957 67.0686 185.815 66.8398C186.187 66.7827 186.902 67.1829 187.045 67.5546C187.874 69.5274 188.532 71.5573 189.332 73.5301C189.504 73.9304 189.961 74.5022 190.247 74.5022C193.707 74.4164 197.166 74.2449 200.568 74.0733C200.654 73.8732 200.768 73.7588 200.74 73.7017C199.253 70.3279 200.797 67.8977 204.685 65.9535C207.687 64.4668 210.947 64.5812 214.206 64.6669C223.098 64.9242 231.332 67.9835 239.623 70.6424C247.143 73.0441 254.605 75.5601 262.468 76.6465C266.728 77.2469 270.73 76.6179 274.133 73.7874C274.59 73.4157 274.847 72.8153 275.219 72.3579C275.419 72.072 275.705 71.5859 275.877 71.6145C276.248 71.6717 276.706 71.9576 276.849 72.2721C277.078 72.7581 277.192 73.3871 277.163 73.9304C276.992 76.2462 276.163 78.2476 274.476 79.9059C270.845 83.5083 266.27 84.9379 261.41 85.6526C257.235 86.253 253.061 86.1101 248.944 85.1952C248.029 84.9951 247.057 85.0808 246.114 85.1094C245.885 85.1094 245.542 85.3667 245.513 85.5669C245.485 85.767 245.742 86.0243 245.885 86.2531C245.942 86.3102 246.056 86.3388 246.142 86.396C252.89 89.3695 256.263 98.5185 254.977 105.809C254.09 110.87 251.946 115.33 248.773 119.247C243.912 125.28 238.909 131.227 233.82 137.059C227.644 144.15 221.668 151.326 217.466 159.817C213.72 167.394 211.49 175.399 212.005 183.977C212.176 186.607 212.548 189.295 213.206 191.839C213.549 193.24 214.464 194.613 215.436 195.699C216.894 197.3 218.495 197.186 220.039 195.642C222.326 193.355 223.498 190.41 224.299 187.379C226.729 178.43 228.759 169.395 231.446 160.532C234.248 151.212 238.852 142.806 245.284 135.372C252.175 127.395 260.352 120.877 268.157 113.929C276.391 106.581 284.883 99.4906 292.631 91.6567C303.867 80.3061 313.731 67.7547 320.793 53.2878C323.652 47.4266 326.225 41.4225 327.14 34.9038C327.884 29.6145 326.826 24.5825 324.081 19.9508C323.795 19.4647 323.481 18.5498 323.681 18.3497C324.081 17.978 324.824 17.8351 325.453 17.8065C326.054 17.8065 326.683 17.978 327.226 18.2353C334.545 21.7806 339.063 27.2701 339.349 35.733C339.692 45.8827 336.489 55.0032 331.429 63.6091C325.453 73.7874 317.934 82.8222 309.814 91.3422C299.865 101.778 288.485 110.584 277.592 119.933C270.845 125.737 264.126 131.57 258.15 138.174C249.173 148.038 243.226 159.531 239.366 172.226C237.794 177.401 236.25 182.604 234.506 187.722C232.133 194.67 228.159 200.359 221.325 203.647C220.811 203.905 220.611 204.819 220.267 205.42C220.925 205.677 221.611 206.192 222.212 206.135C226.901 205.62 230.703 203.218 234.105 200.131C239.881 194.898 243.169 188.151 245.713 180.946C247.2 176.772 248.887 172.655 250.517 168.48C253.347 161.218 258.122 155.414 264.297 150.84C272.017 145.122 279.908 139.632 287.771 134.114C300.093 125.48 312.302 116.702 323.28 106.381C346.468 84.5376 363.308 58.6343 372.857 28.0992C375.344 20.1509 377.46 12.1169 378.032 3.76835C378.089 3.02498 377.946 2.22444 378.061 1.48107C378.146 0.966438 378.346 0.308848 378.747 0.0515298C379.004 -0.120016 379.833 0.165893 380.119 0.480393C381.463 1.99571 382.892 3.51102 383.95 5.22647C388.582 12.7745 389.268 20.7513 386.695 29.2142C384.036 37.963 380.148 46.1114 375.802 54.0883C362.021 79.3055 343.551 100.577 321.308 118.675C309.099 128.596 295.919 137.088 282.767 145.665C280.423 147.209 278.107 148.781 275.791 150.382C275.391 150.668 275.191 151.212 274.905 151.669C275.505 151.755 276.134 152.041 276.649 151.898C283.997 149.811 290.858 146.58 297.72 143.32C299.55 142.463 300.493 143.006 300.551 145.065C300.665 149.439 298.549 152.87 295.519 155.7C290.344 160.475 284.111 163.448 277.621 165.907C274.819 166.965 271.988 167.88 269.158 168.909C268.529 169.138 267.957 169.538 267.385 169.881C267.414 170.053 267.414 170.196 267.442 170.367C268.043 170.482 268.643 170.796 269.215 170.711C278.822 169.31 288.028 166.565 297.005 162.962C297.663 162.705 298.778 162.534 299.178 162.877C299.636 163.277 299.807 164.392 299.607 165.078C298.864 167.937 297.234 170.31 295.004 172.283C291.344 175.514 286.999 177.544 282.424 179.059C277.935 180.574 273.332 181.718 268.786 183.09C268.214 183.262 267.728 183.719 267.328 184.291C277.506 185.492 287.142 182.576 297.005 181.032C297.606 183.062 296.577 184.463 295.547 185.892C289.772 193.926 281.109 196.185 272.046 197.643C270.788 197.843 269.472 197.815 268.214 198.043C267.757 198.129 267.357 198.615 266.928 198.93C267.328 199.187 267.671 199.587 268.129 199.702C274.218 200.988 280.394 200.988 286.598 200.645C287.084 200.617 287.542 200.531 288.028 200.559C288.542 200.617 289.429 200.674 289.486 200.931C289.629 201.446 289.543 202.275 289.2 202.647C287.542 204.534 285.969 206.564 284.025 208.107C279.25 211.824 273.589 213.197 267.671 213.683C267.328 213.711 266.985 213.654 266.67 213.74C266.327 213.854 266.013 214.111 265.67 214.312C265.87 214.655 265.984 215.141 266.299 215.312C268.386 216.456 270.444 217.657 272.617 218.572C286.655 224.49 301.294 227.263 316.533 226.92C317.019 226.92 317.82 227.149 317.934 227.492C318.077 227.892 317.791 228.636 317.448 228.95C310.729 235.383 303.009 240.101 293.574 240.93C286.913 241.53 280.423 240.072 274.161 237.756C265.555 234.583 258.093 229.579 251.346 223.461C249.173 221.488 247.2 219.286 245.056 217.256C244.655 216.885 243.969 216.799 243.397 216.57C243.255 217.228 242.797 218.028 243.054 218.486C244.627 221.288 246.171 224.147 248.029 226.749C253.204 233.896 259.837 239.643 266.442 245.39C272.446 250.593 278.479 255.74 284.254 261.229C293.946 270.407 299.493 281.872 301.523 295.024C302.695 302.6 302.295 310.12 299.893 317.439C299.664 318.154 299.321 318.84 298.864 319.44C298.635 319.755 297.92 320.069 297.72 319.926C297.377 319.698 297.12 319.126 297.12 318.697C297.148 317.182 297.377 315.666 297.377 314.151C297.463 300.084 292.86 287.762 283.225 277.583C276.992 270.979 270.302 264.832 263.726 258.542C257.407 252.509 251.231 246.419 246.371 239.1C242.168 232.781 239.052 225.891 236.421 218.8C236.221 218.257 235.707 217.828 235.335 217.314C235.02 217.943 234.334 218.629 234.42 219.201C234.906 222.66 235.249 226.205 236.193 229.551C238.508 237.699 243.054 244.675 248.372 251.137C256.321 260.743 265.298 269.292 274.962 277.154C275.591 277.669 275.877 278.098 275.734 279.041C273.618 293.08 276.134 306.088 284.368 317.839C286.684 321.156 289.658 323.815 292.888 326.188C293.46 326.617 293.975 327.103 294.918 327.875C293.717 328.389 292.803 329.018 291.83 329.133C287.828 329.619 284.111 328.418 280.537 326.76C278.907 326.016 277.421 324.987 275.591 323.958C275.734 325.788 275.791 327.503 275.963 329.19C277.221 342.027 279.393 354.721 282.796 367.187C284.139 372.162 285.826 377.08 287.685 381.911C290.229 388.573 293.86 390.26 301.952 390.146C305.411 390.088 308.899 390.06 312.33 390.403C313.988 390.574 315.704 391.404 317.191 392.261C319.649 393.691 320.307 396.064 319.192 398.666C318.248 400.896 316.533 402.468 314.532 403.726C313.617 404.298 312.959 404.212 312.273 403.069C310.5 400.238 307.555 399.237 304.468 398.637C293.975 396.636 283.368 396.464 272.789 397.35C268.157 397.722 263.525 398.38 258.98 399.237C256.921 399.609 254.977 400.696 253.09 401.639C250.917 402.726 249.373 404.412 249.316 407.071C246.857 407.1 244.827 406.357 243.884 404.069C242.139 399.752 245.284 397.694 248.344 395.692C248.001 395.406 247.858 395.178 247.715 395.178C244.57 395.092 241.51 395.378 238.937 397.436C238.194 398.037 237.508 398.894 237.136 399.752C236.707 400.781 236.193 400.753 235.392 400.381C233.333 399.438 232.59 395.978 234.02 393.719C236.107 390.431 239.223 389.316 242.969 389.602C243.769 389.66 244.57 389.602 245.342 389.602C245.427 389.459 245.513 389.374 245.513 389.316C244.598 385.314 247.114 383.684 250.459 383.541C253.204 383.398 256.063 383.827 258.751 384.485C262.439 385.371 265.984 386.743 269.644 387.801C270.873 388.173 272.16 388.316 273.418 388.43C275.019 388.544 276.248 387.229 276.02 385.657C275.905 384.885 275.677 384.056 275.305 383.37C269.815 373.105 266.013 362.184 262.868 351.005C260.266 341.741 258.379 332.335 257.093 322.814C257.035 322.414 256.892 322.042 256.978 322.042C255.234 323.557 253.547 325.13 251.717 326.531C249.916 327.875 247.972 329.018 245.799 330.448C245.799 329.704 245.713 329.39 245.799 329.161C249.144 320.441 249.03 311.578 246.886 302.657C246.285 300.113 245.456 297.625 244.598 295.167C244.427 294.681 243.712 294.137 243.197 294.08C226.472 291.936 210.346 287.647 194.736 281.243C184.186 276.84 174.35 271.379 165.716 263.888C153.336 253.195 145.903 239.815 144.13 223.518C142.729 210.623 145.016 198.329 150.591 186.521C156.939 172.998 166.545 162.19 177.81 152.698C186.616 145.265 195.679 138.146 204.514 130.798C208.888 127.138 213.177 123.364 216.551 118.675C218.552 115.902 220.153 112.928 220.496 109.469C221.24 101.921 216.122 96.0025 208.488 95.345C204.285 94.9733 200.282 96.0311 196.223 96.8317C193.278 97.4035 190.333 97.8895 187.359 98.3184C186.416 98.4614 185.901 98.8616 185.387 99.6622C183.614 102.578 181.698 105.466 179.811 108.411ZM226.329 261.887C226.5 261.658 226.672 261.401 226.843 261.172C226.386 260.943 225.9 260.743 225.471 260.457C224.413 259.743 223.355 258.999 222.297 258.284C214.835 253.224 208.202 247.277 202.684 240.129C198.91 235.24 196.108 229.808 193.849 224.061C189.761 213.625 187.817 202.847 189.218 191.668C190.647 180.374 194.764 169.996 200.797 160.361C201.197 159.703 201.34 158.845 201.598 158.102C200.826 158.416 199.939 158.588 199.31 159.074C193.421 163.934 188.703 169.767 184.843 176.372C177.839 188.265 175.523 200.931 178.153 214.512C180.955 228.922 188.617 240.186 199.997 249.193C207.373 255.025 215.722 258.885 224.556 261.858C225.099 262.058 225.728 261.887 226.329 261.887ZM189.504 92.8004C190.133 92.7146 190.847 92.6574 191.505 92.5145C194.822 91.8569 198.167 91.285 201.026 89.3123C201.941 88.6833 202.913 87.7112 202.398 86.5961C202.026 85.7956 200.94 84.9665 200.082 84.8521C197.137 84.4232 194.164 84.2803 191.333 84.023C190.704 87.1394 190.133 89.9127 189.504 92.8004ZM225.185 79.477C224.67 79.1053 224.47 78.848 224.242 78.8194C219.753 77.9045 215.235 76.9896 210.747 76.1033C209.918 75.9317 209.546 76.4178 209.403 77.1897C208.803 80.1918 210.718 82.2789 213.977 81.7643C217.609 81.1925 221.182 80.3062 225.185 79.477Z" fill="#E51B24"/>
<path d="M207.802 403.64C208.431 401.525 207.344 400.524 205.858 399.695C202.97 398.037 199.796 397.465 196.566 397.179C185.558 396.15 174.522 396.378 163.515 397.236C160.398 397.465 157.31 398.151 154.28 398.952C152.621 399.38 151.078 400.353 149.648 401.325C148.133 402.354 147.389 403.869 147.961 405.899C145.76 406.271 143.901 405.785 142.386 404.241C140.899 402.726 140.842 400.982 141.671 399.095C142.615 396.922 144.273 395.521 146.274 394.406C146.846 394.091 147.361 393.719 147.961 393.348C144.73 391.061 136.782 394.177 133.494 398.866C131.664 398.208 130.692 396.864 130.492 394.977C130.263 392.862 130.978 391.118 132.751 389.945C134.895 388.544 137.297 388.087 139.813 388.03C141.271 388.001 142.758 388.03 143.901 388.03C144.301 386.715 144.359 385.228 145.102 384.342C146.589 382.598 148.876 382.255 151.078 382.026C154.308 381.711 157.225 382.855 160.198 383.884C162.399 384.656 164.601 385.371 166.888 385.828C170.376 386.515 173.464 385.657 175.523 382.569C177.581 379.481 179.468 376.308 181.47 373.163C191.362 357.638 199.711 341.37 206.029 324.072C206.973 321.527 207.687 318.926 208.488 316.324C208.545 316.152 208.517 315.952 208.574 315.466C203.456 319.498 198.567 323.557 191.648 323.7C196.737 312.035 199.396 299.941 200.254 287.218C209.632 291.65 219.067 295.51 229.331 296.768C230.16 308.376 232.104 319.44 238.623 329.19C238.566 329.333 238.537 329.476 238.48 329.619C237.279 329.39 236.021 329.304 234.906 328.875C231.504 327.532 228.559 325.473 225.843 323.043C225.557 322.785 225.299 322.557 225.042 322.328C224.442 325.416 223.956 328.504 223.184 331.506C221.583 337.767 218.238 343.199 214.492 348.374C206.172 359.954 197.824 371.533 189.504 383.112C189.018 383.798 188.56 384.57 188.274 385.342C187.731 386.972 188.36 388.087 190.047 388.402C191.076 388.602 192.134 388.602 193.163 388.602C198.11 388.602 203.056 388.001 207.916 389.345C208.545 389.517 209.203 389.717 209.803 389.974C212.891 391.232 214.321 393.176 214.206 395.921C214.063 399.266 211.862 402.525 209.117 403.383C208.831 403.526 208.431 403.526 207.802 403.64Z" fill="#E51B24"/>
<path d="M221.668 458.649C229.702 458.992 237.479 458.363 243.655 452.045C244.741 452.445 245.084 453.246 245.084 454.447C245.027 460.651 245.027 466.826 245.084 473.031C245.084 474.117 244.627 474.489 243.798 474.918C242.854 475.432 242.711 474.546 242.225 474.26C240.453 473.174 238.766 471.83 236.879 471.115C232.104 469.342 227.129 468.656 221.84 468.885C221.84 469.485 221.84 470.029 221.84 470.572C221.84 479.235 221.926 487.898 221.811 496.561C221.726 501.135 223.756 504.566 226.786 507.654C227.329 508.197 227.844 508.569 227.472 509.541C227.101 510.485 226.529 510.542 225.728 510.542C217.637 510.513 209.546 510.542 201.455 510.513C200.969 510.513 200.311 510.199 200.025 509.798C199.539 509.169 199.768 508.598 200.368 507.969C204.142 504.166 205.715 499.42 206.258 494.216C206.487 492.101 206.515 489.928 206.515 487.812C206.544 471.43 206.572 455.047 206.487 438.664C206.458 434.09 205.572 429.658 202.884 425.827C202.055 424.655 200.911 423.654 199.825 422.453C200.111 421.739 200.454 421.052 201.712 421.052C217.18 421.081 232.647 421.081 248.115 421.081C248.401 421.081 248.687 421.11 248.944 421.138C249.373 425.198 249.83 429.201 250.259 433.203C250.374 434.29 250.431 435.405 250.631 436.463C250.802 437.435 250.316 437.95 249.544 438.121C249.144 438.207 248.515 437.921 248.172 437.606C245.284 435.005 241.711 433.832 238.08 432.86C233.019 431.545 227.844 431.316 222.669 431.116C222.011 431.088 221.583 431.174 221.583 432.003C221.583 440.751 221.525 449.529 221.497 458.278C221.468 458.363 221.554 458.449 221.668 458.649Z" fill="#E51B24"/>
<path d="M138.898 499.477C150.649 500.106 160.884 496.761 169.719 489.156C170.92 489.785 171.148 490.528 170.662 491.872C168.547 497.562 166.574 503.308 164.601 509.084C164.258 510.113 163.772 510.456 162.685 510.456C147.704 510.427 132.694 510.427 117.712 510.427C117.083 510.427 116.425 510.57 116.111 509.684C115.796 508.826 116.197 508.426 116.74 507.854C120.314 504.166 122.086 499.563 122.83 494.588C123.201 492.158 123.201 489.671 123.201 487.212C123.23 470.543 123.23 453.875 123.201 437.206C123.201 432.003 121.629 427.285 118.312 423.225C118.055 422.911 117.826 422.196 117.998 421.91C118.255 421.481 118.884 420.995 119.342 420.995C127.776 420.938 136.182 420.938 144.616 421.024C145.274 421.024 145.903 421.91 146.789 422.568C144.073 424.369 142.186 426.342 141.071 428.943C139.784 431.888 138.926 434.919 138.926 438.178C138.926 458.049 138.926 477.891 138.926 497.762C138.898 498.305 138.898 498.848 138.898 499.477Z" fill="#E51B24"/>
<path d="M265.384 237.642C266.041 237.842 266.728 238.014 267.385 238.271C275.219 241.301 283.024 244.418 290.858 247.42C299.15 250.594 307.527 253.596 314.989 258.542C330.485 268.806 339.749 283.016 342.007 301.628C343.809 316.553 340.235 330.305 333.201 343.314C331.572 346.316 329.742 349.203 327.998 352.148C327.912 352.263 327.884 352.434 327.769 352.491C327.054 352.92 326.34 353.349 325.625 353.778C325.653 353.035 325.511 352.234 325.711 351.548C329.942 337.453 329.628 323.415 325.339 309.405C319.249 289.506 307.641 273.352 291.83 260.114C284.997 254.425 277.849 249.107 270.873 243.589C269.129 242.216 267.442 240.701 265.784 239.214C265.412 238.9 265.298 238.328 265.041 237.871C265.127 237.842 265.241 237.756 265.384 237.642Z" fill="#E51B24"/>
<path d="M303.324 154.957C303.496 154.614 303.638 154.242 303.839 153.899C306.269 149.896 306.783 145.722 304.782 141.405C304.296 140.347 304.41 139.804 305.497 139.175C325.225 127.452 343.751 114.129 360.592 98.5185C370.312 89.5124 379.29 79.8201 387.353 69.2986C387.553 69.0413 387.724 68.6696 388.01 68.5553C388.496 68.3265 389.125 68.012 389.526 68.1836C389.897 68.3265 390.326 69.0985 390.24 69.4988C389.697 71.9004 389.325 74.3878 388.353 76.6179C383.579 87.7969 376.745 97.6322 368.454 106.495C352.929 123.107 334.945 136.573 315.589 148.324C312.016 150.468 308.356 152.527 304.754 154.642C304.382 154.871 303.953 155.043 303.581 155.214C303.496 155.128 303.41 155.043 303.324 154.957Z" fill="#E51B24"/>
<path d="M351.671 52.0012C351.471 56.2041 349.727 61.4362 347.097 66.411C340.349 79.134 331.6 90.3416 321.336 100.377C311.844 109.64 301.408 117.703 290.544 125.308C281.366 131.741 272.532 138.689 263.525 145.379C263.068 145.722 262.439 145.979 261.867 146.037C260.838 146.151 260.209 145.322 260.666 144.378C261.095 143.463 261.696 142.549 262.439 141.834C268.843 135.887 275.219 129.883 281.795 124.107C291.259 115.787 301.122 107.896 310.386 99.3763C322.766 87.9972 333.059 74.9025 340.063 59.4634C342.665 53.7739 344.438 47.7984 345.238 41.5941C345.438 40.0216 345.095 38.3634 345.152 36.7623C345.181 36.1905 345.61 35.6472 345.867 35.104C346.353 35.3899 347.011 35.5615 347.354 35.9617C350.642 40.279 351.986 45.168 351.671 52.0012Z" fill="#E51B24"/>
<path d="M300.665 175.085C304.41 170.653 305.84 165.707 304.325 160.018C307.67 158.273 311.015 156.587 314.303 154.814C333.859 144.264 351.557 131.227 367.082 115.301C367.968 114.386 368.797 113.386 369.769 112.557C370.169 112.214 370.913 112.042 371.399 112.156C371.685 112.214 371.942 113.071 371.885 113.557C371.542 117.017 370.284 120.19 368.626 123.192C363.765 131.913 357.132 139.146 349.813 145.779C336.146 158.131 320.364 167.079 303.667 174.513C302.838 174.885 301.952 175.171 301.065 175.485C300.951 175.342 300.808 175.228 300.665 175.085Z" fill="#E51B24"/>
<path d="M294.89 195.07C295.29 194.641 295.69 194.212 296.119 193.812C299.922 190.295 301.78 185.892 301.751 180.746C301.751 179.631 302.037 179.145 303.152 178.745C319.335 172.998 334.431 165.25 348.069 154.7C351.042 152.412 353.844 149.896 356.76 147.552C357.246 147.18 357.99 147.152 358.619 146.98C358.705 147.638 358.933 148.324 358.819 148.953C357.933 153.041 355.588 156.415 353.158 159.703C347.383 167.48 340.12 173.627 332.229 179.145C321.822 186.436 310.529 191.811 298.178 194.898C297.177 195.156 296.176 195.299 295.176 195.499C295.061 195.384 294.975 195.213 294.89 195.07Z" fill="#E51B24"/>
<path d="M283.225 216.856C286.027 214.455 288.886 212.31 291.344 209.823C293.918 207.193 294.804 203.79 294.461 200.417C300.236 198.815 305.869 197.472 311.358 195.699C321.108 192.554 330.228 187.979 338.862 182.461C340.778 181.232 342.551 179.774 344.438 178.487C344.895 178.173 345.61 178.287 346.21 178.201C346.239 178.859 346.525 179.717 346.239 180.146C344.581 182.662 342.951 185.292 340.95 187.522C331.4 198.129 319.85 205.82 306.612 211.138C300.093 213.74 293.432 215.684 286.484 216.685C285.398 216.828 284.311 216.799 283.225 216.856Z" fill="#E51B24"/>
<path d="M395.73 41.3654C395.415 48.027 393.557 54.0025 389.754 59.4634C380.491 72.7296 369.369 84.2803 357.389 95.0591C353.101 98.8902 348.669 102.578 344.323 106.324C344.152 106.467 343.98 106.724 343.78 106.753C343.123 106.839 342.465 106.839 341.807 106.867C341.95 106.267 341.865 105.495 342.236 105.094C345.295 101.692 348.355 98.3184 351.557 95.0591C364.909 81.2782 375.831 65.782 384.465 48.6274C387.267 43.0522 389.783 37.3912 391.927 31.5301C392.099 31.044 392.585 30.701 392.928 30.2721C393.328 30.701 393.986 31.0726 394.072 31.5587C394.701 34.818 395.187 38.106 395.73 41.3654Z" fill="#E51B24"/>
<path d="M307.127 222.174C303.181 221.774 298.521 221.288 293.832 220.83C293.689 220.802 293.546 220.83 293.403 220.773C292.917 220.544 292.431 220.259 291.945 220.001C292.431 219.801 292.888 219.544 293.403 219.429C294.833 219.143 296.319 218.943 297.749 218.657C307.956 216.599 317.362 212.539 326.454 207.564C327.026 207.25 327.798 207.221 328.455 207.078C328.312 207.821 328.37 208.765 327.941 209.308C325.253 212.996 322.508 216.627 319.678 220.173C319.192 220.773 318.191 221.231 317.391 221.316C314.246 221.688 311.072 221.86 307.127 222.174Z" fill="#E51B24"/>
<path d="M188.131 504.223C188.131 507.826 185.358 510.685 181.784 510.713C178.125 510.742 175.265 507.854 175.294 504.223C175.323 500.649 178.21 497.762 181.727 497.79C185.272 497.762 188.103 500.621 188.131 504.223Z" fill="#E51B24"/>
<path d="M239.909 504.166C239.938 500.592 242.826 497.733 246.371 497.762C249.916 497.819 252.747 500.678 252.747 504.28C252.747 507.911 249.802 510.799 246.171 510.713C242.597 510.628 239.909 507.826 239.909 504.166Z" fill="#E51B24"/>
<path d="M368.568 504.309C368.54 507.912 365.709 510.742 362.135 510.685C358.533 510.628 355.702 507.797 355.731 504.223C355.731 500.678 358.619 497.762 362.135 497.733C365.709 497.733 368.597 500.678 368.568 504.309Z" fill="#E51B24"/>
</g>
<defs>
<clipPath id="clip0_1_2237">
<rect width="279.73" height="512" fill="white" transform="translate(116)"/>
</clipPath>
</defs>
</svg>
