<svg width="512" height="512" viewBox="0 0 512 512" fill="none" xmlns="http://www.w3.org/2000/svg">
<g clip-path="url(#clip0_1_3306)">
<path d="M270.816 511.616C261.13 510.362 251.61 505.995 245.957 500.214C241.819 495.982 239.797 492.555 238.363 487.344C237.597 484.559 237.503 482.889 237.292 468.312C237.065 452.616 237.045 452.307 236.158 450.882C235.285 449.478 234.265 448.865 231.967 448.363L230.869 448.123V469.303V490.483H222.08H213.292V445.143V399.803L223.778 399.816C229.546 399.824 236.062 399.994 238.259 400.194C247.557 401.042 252.399 404.126 254.259 410.385C255.056 413.069 255.431 423.072 254.906 427.637C254.674 429.654 254.104 432.188 253.639 433.27C252.018 437.036 248.006 439.908 243.64 440.425C240.255 440.826 240.645 441.412 244.651 441.946C248.589 442.472 251.75 444.459 253.234 447.342C254.686 450.164 254.855 451.927 254.965 465.395C255.072 478.515 255.088 478.741 256.111 481.792C257.426 485.716 259.08 488.289 262.064 491.051C266.552 495.206 271.848 496.962 280.102 497.031L285.194 497.074L285.195 504.307L285.197 511.541L282.741 511.797C279.581 512.128 274.123 512.045 270.816 511.616ZM235.018 435.772C237.118 434.974 237.311 433.844 237.18 423.118L237.061 413.314L235.94 412.351C235.082 411.614 234.355 411.387 232.844 411.387H230.869V423.771V436.155H232.441C233.305 436.155 234.465 435.983 235.018 435.772ZM183.624 492.057C174.553 490.802 169.873 486.238 168.298 477.109C167.819 474.335 167.743 468.555 167.856 443.472C167.981 415.818 168.054 412.979 168.704 410.81C171.429 401.718 177.08 398.092 188.525 398.095C200.576 398.098 206.158 401.759 208.788 411.387C209.439 413.771 209.497 416.538 209.497 445.143C209.497 473.748 209.439 476.514 208.788 478.898C206.817 486.113 203.32 489.744 196.674 491.475C193.757 492.235 187.065 492.533 183.624 492.057ZM190.884 478.137C191.428 477.592 191.721 476.538 191.91 474.441C192.056 472.828 192.118 458.235 192.048 442.012L191.92 412.516L190.8 411.552C189.368 410.321 187.951 410.327 186.709 411.569L185.729 412.55V444.925C185.729 476.768 185.742 477.313 186.528 478.099C187.568 479.139 189.862 479.159 190.884 478.137ZM274.48 492.077C266.048 490.894 261.428 486.798 259.338 478.655C258.693 476.139 258.632 473.255 258.632 445.143C258.632 416.299 258.679 414.209 259.383 411.587C261.996 401.854 267.608 398.108 279.604 398.088C291.701 398.068 297.679 402.278 299.741 412.269C300.258 414.773 300.377 418.226 300.377 430.745V446.141H288.379H276.382L276.495 461.756L276.608 477.371L277.551 478.135C278.756 479.109 280.453 479.109 281.657 478.135C282.6 477.372 282.6 477.365 282.719 466.75L282.837 456.128H291.607H300.377V465.532C300.377 472.542 300.216 475.721 299.745 478.016C298.175 485.668 294.326 489.888 287.467 491.479C284.21 492.234 277.727 492.533 274.48 492.077ZM282.719 422.786C282.585 410.821 282.581 410.806 279.604 410.806C276.628 410.806 276.624 410.821 276.49 422.786L276.371 433.358H279.604H282.837L282.719 422.786ZM320.35 492.106C311.472 490.817 306.572 486.778 304.588 479.114C304.11 477.267 303.972 474.42 303.972 466.43V456.128H312.76H321.549L321.551 465.616C321.553 475.456 321.842 477.8 323.138 478.494C324.412 479.176 325.931 478.947 326.96 477.917C327.929 476.948 327.94 476.854 327.94 469.655C327.94 463.147 327.854 462.194 327.127 460.693C326.68 459.77 321.922 454.038 316.553 447.957C309.154 439.575 306.475 436.256 305.482 434.24L304.172 431.581L304.04 422.519C303.932 415.153 304.028 412.984 304.554 410.934C306.695 402.578 313.814 398.095 324.944 398.095C336.888 398.095 343.932 403.185 345.549 412.985C345.749 414.194 345.913 418.823 345.914 423.272L345.916 431.361H336.928H327.94V421.955V412.549L326.959 411.569C325.88 410.489 324.908 410.349 323.366 411.051C321.942 411.7 321.553 413.491 321.551 419.404C321.547 427.416 321.173 426.737 332.436 439.145C342.983 450.763 344.006 452.064 344.978 455.096C345.799 457.654 346.221 473.348 345.58 477.465C344.451 484.713 339.968 489.528 332.547 491.461C329.754 492.188 323.276 492.531 320.35 492.106ZM132.2 445.143V399.803H148.977H165.755V405.995V412.186H157.966H150.176V422.772V433.358H157.766H165.356V439.75V446.141H157.766H150.176V468.312V490.483H141.188H132.2V445.143ZM359.498 451.534V412.586H353.706H347.914V406.194V399.803H368.486H389.059V406.194V412.586H383.067H377.075V451.534V490.483H368.287H359.498V451.534ZM252.572 384.214C244.346 383.418 235.352 381.261 227.473 378.196C225.057 377.256 218.321 374.068 212.505 371.112C198.064 363.771 190.213 360.714 179.936 358.428C175.98 357.548 165.985 357.22 162.414 357.852C154.044 359.335 145.331 364.389 135.895 373.236L132.2 376.7V362.722V348.745L134.232 346.917C140.422 341.352 150.713 336.555 160.163 334.829C165.87 333.787 175.417 333.882 181.305 335.041C190.252 336.801 198.53 340.186 208.299 346.082C221.932 354.31 233.242 358.787 246.248 361.103C253.039 362.312 267.056 362.426 273.412 361.323C287.074 358.951 299.179 354.251 312.76 346.043C322.409 340.212 329.1 337.366 338.158 335.24C342.495 334.223 343.615 334.121 350.71 334.106C359.391 334.088 362.186 334.505 369.349 336.888C376.205 339.168 382.818 342.884 386.911 346.755L389.059 348.786V362.8V376.813L386.163 373.982C377.479 365.494 369.552 360.562 361.145 358.415C358.06 357.628 356.402 357.459 351.757 357.46C339.197 357.464 327.67 360.736 314.558 368.018C301.185 375.446 292.172 379.159 281.002 381.841C271.767 384.059 260.599 384.991 252.572 384.214ZM251.042 350.799C242.923 349.792 234.686 347.717 227.419 344.85C224.812 343.822 217.467 340.35 211.095 337.135C196.758 329.901 188.59 326.833 178.338 324.832C173.599 323.907 163.434 323.905 158.311 324.828C148.897 326.524 140.454 330.564 134.497 336.224L132.2 338.406V325.491V312.577L133.498 311.429C139.389 306.223 148.73 302.08 158.09 300.524C163.693 299.592 175.033 299.881 180.483 301.094C189.73 303.152 197.928 306.6 208.327 312.803C227.751 324.391 242.292 328.87 260.43 328.851C268.87 328.842 274.111 328.182 282.187 326.11C291.749 323.656 301.87 319.292 311.585 313.433C324.279 305.778 332.689 302.369 343.519 300.486C348.705 299.585 358.068 299.6 363.293 300.518C372.602 302.153 381.889 306.333 387.523 311.423L389.059 312.811V325.566V338.322L386.184 335.847C373.746 325.142 357.488 321.641 338.25 325.524C329.703 327.25 325.274 329.104 307.864 338.246C295.217 344.888 283.251 348.818 270.696 350.453C266.425 351.01 254.438 351.22 251.042 350.799ZM248.645 317.469C237.105 314.637 225.301 309.885 212.394 302.875C199.498 295.871 188.232 291.84 176.889 290.173C171.899 289.44 169.124 289.396 163.842 289.971C151.583 291.303 139.205 295.912 133.498 301.27L132.2 302.489V289.674V276.859L133.82 275.395C137.322 272.231 142.082 269.743 148.662 267.636C162.238 263.289 176.744 264.022 194.517 269.955C203.653 273.005 211.003 276.169 222.38 281.951L231.668 286.671V258.916V231.161L230.37 231.96C227.356 233.813 222.333 236.066 219.165 236.984C202.045 241.945 183.443 235.082 173.479 220.129C172.202 218.213 171.156 216.617 171.153 216.582C171.149 216.547 169.8 216.958 168.153 217.496C159.12 220.445 149.394 220.228 140.2 216.873C126.693 211.943 116.788 200.329 113.775 185.886C113.131 182.8 113.131 174.592 113.775 171.505C115.045 165.418 117.639 159.481 121.022 154.917C123.203 151.975 128.086 147.158 130.517 145.549L132.061 144.527L131.54 142.037C129.202 130.881 134.998 119.073 145.828 112.929C147.692 111.871 148.162 111.415 148.031 110.786C147.939 110.347 147.485 108.565 147.022 106.827C146.08 103.287 145.905 97.9869 146.617 94.5272C147.344 90.9913 149.935 86.1053 152.587 83.2712C156.766 78.8034 161.841 76.0559 168.236 74.7994L171.6 74.1386L170.599 70.8909C169.703 67.9846 169.595 66.9292 169.574 60.8521C169.548 53.5761 169.797 52.143 172.036 46.671C175.504 38.1924 181.987 31.3181 190.323 27.2821C196.29 24.3929 199.209 23.7706 207.001 23.7276L213.692 23.6907L215.151 21.4989C217.242 18.3575 224.56 11.1877 228.076 8.83628C233.627 5.12261 238.982 2.78248 245.811 1.08482C250.492 -0.079031 260.123 -0.362104 265.422 0.508406C273.278 1.79899 281.106 5.07339 287.718 9.83401C291.533 12.5811 297.591 18.8036 299.777 22.2225C301.099 24.2883 301.525 24.6843 302.242 24.511C314.606 21.5224 329.609 26.0018 338.198 35.2463C344.237 41.7465 346.661 47.9811 347.007 57.9039C347.195 63.2887 346.753 68.0769 345.702 72.0373C345.52 72.7229 345.919 72.9963 348.517 73.9644C357.2 77.1997 366.392 86.3922 370.013 95.4605C371.594 99.4195 372.003 101.905 371.792 106.279L371.603 110.207L374.439 111.677C380.179 114.653 385.085 120.834 386.892 127.364C387.809 130.68 388.027 138.476 387.315 142.544C386.632 146.446 386.175 145.627 391.375 149.816C397.119 154.444 402.046 161.99 403.71 168.709C404.775 173.012 404.669 181.623 403.493 186.286C400.588 197.799 392.516 207.712 381.669 213.089C375.085 216.353 370.809 217.342 363.094 217.385C358.521 217.41 356.031 217.231 353.573 216.7C351.742 216.304 350.2 216.04 350.148 216.113C345.115 223.104 339.953 227.605 332.933 231.122C325.403 234.895 318.549 236.534 310.164 236.567C303.699 236.593 300.469 235.907 294.285 233.196C292.253 232.305 290.365 231.478 290.09 231.358C289.694 231.185 289.591 236.852 289.591 258.947C289.591 274.24 289.654 286.753 289.731 286.753C289.808 286.753 291.56 285.834 293.626 284.71C314.695 273.252 333.287 266.653 348.713 265.16C363.294 263.748 378.907 267.498 386.649 274.27L388.66 276.029V288.827V301.626L387.116 300.231C378.997 292.897 359.007 288.084 345.117 290.121C333.431 291.834 322.306 295.792 309.264 302.875C298.884 308.513 289.306 312.659 280.203 315.454C275.747 316.823 269.788 318.304 268.719 318.308C268.056 318.311 268.02 315.143 268.02 257.351V196.392L270.277 198.455C276.325 203.983 286.354 207.85 297.315 208.881C316.866 210.719 335.193 201.38 339.527 187.371L340.187 185.238L341.653 187.027C342.459 188.01 344.194 189.534 345.51 190.412C353.656 195.852 364.255 194.89 371.107 188.09C380.374 178.893 377.658 163.066 365.794 157.131C364.301 156.384 362.29 155.655 361.323 155.51L359.567 155.246L360.748 153.389C362.742 150.252 363.611 146.67 363.423 142.365C363.278 139.049 363.098 138.312 361.778 135.641C359.084 130.19 354.332 126.719 347.863 125.478C346.023 125.124 344.459 124.791 344.386 124.736C344.314 124.682 344.536 124.207 344.88 123.682C345.9 122.126 347.083 118.267 347.348 115.636C348.296 106.209 341.526 96.7631 331.27 93.2039C328.114 92.1089 324.25 91.419 321.249 91.4146C320.096 91.413 319.152 91.3374 319.152 91.2468C319.152 91.1561 319.784 90.1225 320.557 88.9498C323.565 84.3879 324.893 79.0899 324.647 72.6365C324.509 69.0055 324.244 67.3728 323.383 64.8469C319.582 53.6861 309.539 46.3061 298.115 46.2784C294.641 46.27 290.07 47.1095 287.461 48.235C286.399 48.693 285.473 49.0678 285.403 49.0678C285.334 49.0678 285.06 48.124 284.796 46.9706C284.01 43.5402 281.718 39.3235 279.064 36.425C274.023 30.9203 267.656 27.9732 259.991 27.5969C254.573 27.3308 250.77 28.1195 245.685 30.5636C239.164 33.6975 234.054 39.7836 232.31 46.4901C231.733 48.7117 231.898 48.6754 227.873 47.4654C224.36 46.4094 217.854 46.3035 214.291 47.2444C200.601 50.8592 192.03 64.3528 194.653 78.1637C195.347 81.8221 197.24 86.3246 199.129 88.8116C199.797 89.6924 200.455 90.5942 200.59 90.8158C200.747 91.0722 199.579 91.2489 197.377 91.3019C189.799 91.4845 183.44 94.1157 178.295 99.1976C173.238 104.193 171.465 108.692 171.849 115.56C172.069 119.502 172.97 122.305 174.969 125.267C175.614 126.223 176.141 127.085 176.141 127.184C176.141 127.283 174.443 127.364 172.366 127.364C170.29 127.364 167.638 127.562 166.474 127.804C161.404 128.858 156.685 132.381 154.881 136.459C152.392 142.085 154.372 149.951 159.761 155.848L161.749 158.023L160.257 158.264C157.618 158.691 153.05 161.188 150.555 163.568C146.054 167.861 144.147 172.051 144.123 177.697C144.099 183.099 146.277 187.751 150.342 190.982C157.996 197.066 169.627 196.643 177.793 189.985L180.044 188.149L180.763 189.814C181.972 192.614 184.776 196.611 187.006 198.713C194.768 206.032 206.139 210.051 219.084 210.051C232.162 210.051 243.465 206.015 251.342 198.533L253.639 196.351V257.331V318.311L252.74 318.282C252.245 318.266 250.403 317.9 248.645 317.469Z" fill="#E53233"/>
</g>
<defs>
<clipPath id="clip0_1_3306">
<rect width="512" height="512" fill="white"/>
</clipPath>
</defs>
</svg>
