<svg width="512" height="512" viewBox="0 0 512 512" fill="none" xmlns="http://www.w3.org/2000/svg">
<g clip-path="url(#clip0_1_3609)">
<g clip-path="url(#clip1_1_3609)">
<path fill-rule="evenodd" clip-rule="evenodd" d="M417.465 366.02C379.284 411.4 322.082 440.262 258.103 440.262C194.755 440.262 138.108 412.006 99.8956 367.387L54.6591 421.788C105.465 476.344 177.951 510.514 258.396 510.514C339.32 510.514 412.13 475.976 462.934 420.837L417.465 366.02Z" fill="#211E1F"/>
<path d="M417.465 366.02C379.284 411.4 322.082 440.262 258.103 440.262C194.755 440.262 138.108 412.006 99.8956 367.387L54.6591 421.788C105.465 476.344 177.951 510.514 258.396 510.514C339.32 510.514 412.13 475.976 462.934 420.837L417.465 366.02Z" stroke="white" stroke-width="2.97411"/>
<path fill-rule="evenodd" clip-rule="evenodd" d="M381.666 157.643V399.236C381.666 406.216 377.245 412.266 371.042 414.587L258.861 458.084L146.643 414.587C140.475 412.266 136.019 406.216 136.019 399.236L136.036 157.643H381.666Z" fill="#211E1F"/>
<path d="M381.666 157.643V399.236C381.666 406.216 377.245 412.266 371.042 414.587L258.861 458.084L146.643 414.587C140.475 412.266 136.019 406.216 136.019 399.236L136.036 157.643H381.666Z" stroke="white" stroke-width="2.97411"/>
<path fill-rule="evenodd" clip-rule="evenodd" d="M141.859 344.143V195.252H375.768L375.812 344.143H141.859Z" fill="white"/>
<path fill-rule="evenodd" clip-rule="evenodd" d="M375.812 330.179C373.751 333.474 368.7 335.792 362.847 335.792C356.906 335.792 351.829 333.474 349.815 330.135C347.754 333.475 342.703 335.792 336.785 335.792C330.866 335.792 325.877 333.474 323.795 330.179C321.714 333.474 316.685 335.792 310.807 335.792C304.866 335.792 299.859 333.474 297.798 330.135H297.734C295.696 333.475 290.663 335.792 284.766 335.792C278.848 335.792 273.838 333.474 271.801 330.179C269.718 333.474 264.622 335.792 258.776 335.792C252.844 335.792 247.825 333.474 245.76 330.135H245.807C243.714 333.475 238.695 335.792 232.814 335.792C226.889 335.792 221.838 333.474 219.774 330.179C217.719 333.474 212.645 335.792 206.758 335.792C200.885 335.792 195.835 333.474 193.779 330.135H193.726C191.699 333.475 186.637 335.792 180.784 335.792C174.838 335.792 169.825 333.474 167.74 330.179V330.264C165.674 333.58 160.643 335.792 154.806 335.792C148.832 335.792 143.813 333.474 141.787 330.135V329.852L141.859 395.66C141.859 402.337 146.079 408.02 151.985 410.229L258.861 451.733L365.664 410.229C371.584 408.02 375.812 402.337 375.812 395.66V329.894V330.179Z" fill="#D61F26"/>
<path fill-rule="evenodd" clip-rule="evenodd" d="M375.812 323.307C373.751 326.579 368.7 328.921 362.847 328.921C356.906 328.921 351.829 326.556 349.815 323.307C347.754 326.556 342.703 328.921 336.785 328.921C330.866 328.921 325.877 326.579 323.795 323.307C321.714 326.579 316.685 328.921 310.807 328.921C304.866 328.921 299.859 326.556 297.798 323.307H297.734C295.696 326.556 290.663 328.921 284.766 328.921C278.848 328.921 273.838 326.579 271.801 323.307C269.718 326.579 264.622 328.921 258.776 328.921C252.844 328.921 247.825 326.556 245.76 323.307H245.807C243.714 326.556 238.695 328.921 232.814 328.921C226.889 328.921 221.838 326.579 219.774 323.307C217.719 326.579 212.645 328.921 206.758 328.921C200.885 328.921 195.835 326.556 193.779 323.307H193.726C191.699 326.556 186.637 328.921 180.784 328.921C174.838 328.921 169.825 326.579 167.74 323.307V323.413C165.674 326.706 160.643 328.921 154.806 328.921C148.832 328.921 143.813 326.556 141.787 323.307V315.153C143.813 318.446 148.832 320.81 154.806 320.81C160.643 320.81 165.674 318.49 167.74 315.192C169.825 318.49 174.838 320.81 180.784 320.81C186.637 320.81 191.699 318.446 193.726 315.153H193.779C195.835 318.446 200.885 320.81 206.758 320.81C212.645 320.81 217.719 318.49 219.774 315.192C221.838 318.49 226.889 320.81 232.814 320.81C238.695 320.81 243.714 318.446 245.807 315.153H245.76C247.825 318.446 252.844 320.81 258.776 320.81C264.623 320.81 269.718 318.49 271.801 315.192C273.837 318.49 278.847 320.81 284.766 320.81C290.664 320.81 295.696 318.446 297.734 315.153H297.798C299.859 318.446 304.866 320.81 310.807 320.81C316.685 320.81 321.714 318.49 323.795 315.192C325.877 318.49 330.866 320.81 336.785 320.81C342.703 320.81 347.754 318.446 349.815 315.153C351.83 318.446 356.906 320.81 362.847 320.81C368.7 320.81 373.751 318.49 375.812 315.192V323.307Z" fill="#2EABE2"/>
<path fill-rule="evenodd" clip-rule="evenodd" d="M375.812 308.625C373.751 311.899 368.7 314.199 362.847 314.199C356.906 314.199 351.829 311.876 349.815 308.625C347.754 311.876 342.703 314.199 336.785 314.199C330.866 314.199 325.877 311.899 323.795 308.625C321.714 311.899 316.685 314.199 310.807 314.199C304.866 314.199 299.859 311.876 297.798 308.625H297.734C295.696 311.876 290.663 314.199 284.766 314.199C278.848 314.199 273.838 311.899 271.801 308.625C269.718 311.899 264.622 314.199 258.776 314.199C252.844 314.199 247.825 311.876 245.76 308.625H245.807C243.714 311.876 238.695 314.199 232.814 314.199C226.889 314.199 221.838 311.899 219.774 308.625C217.719 311.899 212.645 314.199 206.758 314.199C200.885 314.199 195.835 311.876 193.779 308.625H193.726C191.699 311.876 186.637 314.199 180.784 314.199C174.838 314.199 169.825 311.899 167.74 308.625V308.709C165.674 312.008 160.643 314.199 154.806 314.199C148.832 314.199 143.813 311.876 141.787 308.625V300.474C143.813 303.748 148.832 306.113 154.806 306.113C160.643 306.113 165.674 303.811 167.74 300.493C169.825 303.811 174.838 306.113 180.784 306.113C186.637 306.113 191.699 303.748 193.726 300.474H193.779C195.835 303.748 200.885 306.113 206.758 306.113C212.645 306.113 217.719 303.811 219.774 300.493C221.838 303.811 226.889 306.113 232.814 306.113C238.695 306.113 243.714 303.748 245.807 300.474H245.76C247.825 303.748 252.844 306.113 258.776 306.113C264.623 306.113 269.718 303.811 271.801 300.493C273.837 303.811 278.847 306.113 284.766 306.113C290.664 306.113 295.696 303.748 297.734 300.474H297.798C299.859 303.748 304.866 306.113 310.807 306.113C316.685 306.113 321.714 303.811 323.795 300.493C325.877 303.811 330.866 306.113 336.785 306.113C342.703 306.113 347.754 303.748 349.815 300.474C351.83 303.748 356.906 306.113 362.847 306.113C368.7 306.113 373.751 303.811 375.812 300.493V308.625Z" fill="#2EABE2"/>
<path fill-rule="evenodd" clip-rule="evenodd" d="M275.987 405.137C275.987 405.137 287.458 423.066 281.429 418.017C277.027 414.221 270.999 405.48 266.641 398.283L243.1 407.433C243.1 407.433 229.59 423.87 232.583 416.607C234.74 411.358 241.406 402.839 246.904 396.395L230.782 376.927C230.782 376.927 210.954 369.209 218.814 369.793C223.957 370.183 234.687 374.042 242.419 377.168L255.844 355.786C255.844 355.786 257.107 334.517 258.981 342.169C260.28 347.418 259.869 358.779 259.243 367.189L283.859 373.176C283.859 373.176 304.454 367.776 297.736 371.919C293.028 374.867 282.75 377.947 274.556 379.919L275.987 405.137Z" fill="#211E1F"/>
<path d="M275.987 405.137C275.987 405.137 287.458 423.066 281.429 418.017C277.027 414.221 270.999 405.48 266.641 398.283L243.1 407.433C243.1 407.433 229.59 423.87 232.583 416.607C234.74 411.358 241.406 402.839 246.904 396.395L230.782 376.927C230.782 376.927 210.954 369.209 218.814 369.793C223.957 370.183 234.687 374.042 242.419 377.168L255.844 355.786C255.844 355.786 257.107 334.517 258.981 342.169C260.28 347.418 259.869 358.779 259.243 367.189L283.859 373.176C283.859 373.176 304.454 367.776 297.736 371.919C293.028 374.867 282.75 377.947 274.556 379.919L275.987 405.137Z" stroke="#211E1F" stroke-width="1.81905"/>
<path fill-rule="evenodd" clip-rule="evenodd" d="M257.231 400.386C257.376 400.732 257.637 400.971 257.931 400.971C258.208 400.971 258.42 400.734 258.604 400.386C258.862 399.779 259.101 398.352 259.013 395.379C259.013 395.379 259.163 385.337 266.664 396.116C287.672 426.406 257.751 426.578 257.751 426.578H258.037C258.037 426.578 228.111 426.406 249.148 396.116C256.65 385.337 256.738 395.379 256.738 395.379C256.716 398.35 256.899 399.778 257.232 400.431L257.231 400.386Z" fill="white"/>
<path d="M257.231 400.386L257.931 400.971L258.604 400.386C258.862 399.779 259.013 398.352 259.013 395.379C259.013 395.379 259.163 385.337 266.664 396.116C287.672 426.406 257.751 426.578 257.751 426.578H258.037C258.037 426.578 228.111 426.406 249.148 396.116C256.65 385.337 256.738 395.379 256.738 395.379C256.738 398.35 256.899 399.778 257.232 400.431L257.231 400.386Z" stroke="#211E1F" stroke-width="1.81905"/>
<path fill-rule="evenodd" clip-rule="evenodd" d="M241.84 388.248C241.566 388.503 241.44 388.788 241.562 389.025C241.629 389.308 241.895 389.525 242.283 389.525H242.264C242.963 389.569 244.338 389.436 247.175 388.442C247.175 388.442 256.784 385.493 248.854 395.88C226.51 425.237 217.165 396.899 217.165 396.899V397.093C217.165 397.093 208.145 368.579 243.429 379.226C256.031 382.977 246.459 386.252 246.459 386.252C243.566 387.094 242.328 387.747 241.84 388.248Z" fill="white"/>
<path d="M241.84 388.248C241.566 388.503 241.562 389.025 241.562 389.025L242.283 389.525H242.264C242.264 389.525 244.338 389.436 247.175 388.442C247.175 388.442 256.784 385.493 248.854 395.88C226.51 425.237 217.165 396.899 217.165 396.899V397.093C217.165 397.093 208.145 368.579 243.429 379.226C256.031 382.977 246.459 386.252 246.459 386.252C243.566 387.094 242.328 387.747 241.84 388.248Z" stroke="#211E1F" stroke-width="1.81905"/>
<path fill-rule="evenodd" clip-rule="evenodd" d="M248.559 369.769C248.26 369.576 247.923 369.576 247.697 369.769C247.457 369.919 247.392 370.226 247.457 370.575V370.551C247.603 371.269 248.185 372.568 250.082 374.908C250.082 374.908 255.828 383.106 243.431 378.789C208.648 366.649 232.717 348.952 232.717 348.952L232.539 349.04C232.539 349.04 256.785 331.628 257.638 368.513C257.931 381.652 251.869 373.541 251.869 373.541C250.199 371.114 249.17 370.118 248.559 369.769Z" fill="white"/>
<path d="M248.559 369.769H247.697L247.457 370.575V370.551C247.457 370.551 248.185 372.568 250.082 374.908C250.082 374.908 255.828 383.106 243.431 378.789C208.648 366.649 232.717 348.952 232.717 348.952L232.539 349.04C232.539 349.04 256.785 331.628 257.638 368.513C257.931 381.652 251.869 373.541 251.869 373.541C250.199 371.114 249.17 370.118 248.559 369.769Z" stroke="#211E1F" stroke-width="1.81905"/>
<path fill-rule="evenodd" clip-rule="evenodd" d="M268.29 370.509C268.353 370.182 268.29 369.837 268.073 369.663C267.856 369.552 267.51 369.576 267.182 369.769C266.597 370.055 265.556 371.008 263.843 373.524C263.843 373.524 257.831 381.565 258.103 368.472C258.95 331.61 283.206 349.021 283.206 349.021L283.033 348.89C283.033 348.89 307.123 366.584 272.255 378.751C259.913 383.063 265.708 374.867 265.708 374.867C267.531 372.482 268.18 371.225 268.29 370.509Z" fill="white"/>
<path d="M268.29 370.509L268.073 369.663L267.182 369.769C266.597 370.055 265.556 371.008 263.843 373.524C263.843 373.524 257.831 381.565 258.103 368.472C258.95 331.61 283.206 349.021 283.206 349.021L283.033 348.89C283.033 348.89 307.123 366.584 272.255 378.751C259.913 383.063 265.708 374.867 265.708 374.867C267.531 372.482 268.29 370.509 268.29 370.509Z" stroke="#211E1F" stroke-width="1.81905"/>
<path fill-rule="evenodd" clip-rule="evenodd" d="M273.664 389.524C274.01 389.5 274.317 389.307 274.381 389.024C274.511 388.787 274.338 388.501 274.077 388.246C273.557 387.746 272.318 387.053 269.438 386.249C269.438 386.249 259.912 382.973 272.45 379.223C307.818 368.576 298.751 397.09 298.751 397.09L298.795 396.896C298.795 396.896 289.407 425.235 267.097 395.877C259.1 385.491 268.721 388.439 268.721 388.439C271.562 389.434 272.995 389.568 273.664 389.524Z" fill="white"/>
<path d="M273.664 389.524L274.381 389.024C274.381 389.024 274.338 388.501 274.077 388.246C273.557 387.746 272.318 387.053 269.438 386.249C269.438 386.249 259.912 382.973 272.45 379.223C307.818 368.576 298.751 397.09 298.751 397.09L298.795 396.896C298.795 396.896 289.407 425.235 267.097 395.877C259.1 385.491 268.721 388.439 268.721 388.439C271.562 389.434 273.664 389.524 273.664 389.524Z" stroke="#211E1F" stroke-width="1.81905"/>
<path fill-rule="evenodd" clip-rule="evenodd" d="M237.401 355.546C237.401 355.546 235.156 357.105 233.204 357.734C231.259 358.298 230.419 359.773 230.173 360.122C230.173 360.122 229.062 362.68 228.352 361.638C227.593 360.616 229.106 358.689 229.106 358.689C229.33 358.298 230.23 356.888 232.115 356.219C234.057 355.657 236.301 354.118 236.301 354.118C236.301 354.113 238.5 352.403 239.667 350.774C240.864 349.108 242.475 348.738 242.928 348.671C242.928 348.671 245.207 347.848 246.003 348.847C246.743 349.911 243.997 350.104 243.997 350.104C243.533 350.278 241.895 350.624 240.723 352.231C239.587 353.879 237.401 355.546 237.401 355.546Z" fill="#211E1F"/>
<path fill-rule="evenodd" clip-rule="evenodd" d="M278.306 355.524C278.306 355.524 276.161 353.859 275.03 352.186C273.838 350.561 272.191 350.191 271.801 350.037C271.801 350.037 269.002 349.843 269.739 348.803C270.519 347.785 272.819 348.629 272.819 348.629C273.271 348.694 274.921 349.064 276.048 350.732C277.241 352.356 279.409 354.119 279.409 354.119C279.409 354.114 281.709 355.613 283.616 356.196C285.502 356.828 286.371 358.236 286.588 358.606C286.588 358.606 288.105 360.578 287.391 361.618C286.655 362.66 285.591 360.1 285.591 360.1C285.307 359.711 284.463 358.279 282.513 357.697C280.626 357.062 278.306 355.524 278.306 355.524Z" fill="#211E1F"/>
<path fill-rule="evenodd" clip-rule="evenodd" d="M291.033 394.445C291.033 394.445 291.99 391.887 293.156 390.241C294.439 388.682 294.199 386.944 294.177 386.532C294.177 386.532 293.573 383.822 294.765 384.233C295.955 384.646 295.914 387.055 295.914 387.055C295.914 387.507 296.109 389.2 294.917 390.824C293.657 392.431 292.727 395.029 292.727 395.029C292.727 395.029 292.01 397.679 292.053 399.649C292.053 401.687 290.905 402.925 290.665 403.314C290.665 403.314 289.233 405.33 288.065 404.963C286.806 404.571 288.952 402.748 288.952 402.748C289.191 402.381 290.341 401.083 290.274 399.132C290.274 397.113 291.033 394.445 291.033 394.445Z" fill="#211E1F"/>
<path fill-rule="evenodd" clip-rule="evenodd" d="M257.931 418.449C257.931 418.449 260.693 418.556 262.582 419.208C264.495 419.837 266.013 419.164 266.447 419.011C266.447 419.011 268.787 417.561 268.766 418.862C268.766 420.051 266.447 420.835 266.447 420.835C266.013 420.965 264.495 421.679 262.582 421.008C260.694 420.358 257.931 420.228 257.931 420.228C257.931 420.228 255.124 420.359 253.245 421.008C251.338 421.679 249.837 420.965 249.358 420.835C249.358 420.835 247.002 420.051 247.002 418.862C246.992 417.561 249.358 419.011 249.358 419.011C249.837 419.164 251.338 419.837 253.245 419.208C255.124 418.556 257.931 418.449 257.931 418.449Z" fill="#211E1F"/>
<path fill-rule="evenodd" clip-rule="evenodd" d="M224.88 394.445C224.88 394.445 225.655 397.113 225.62 399.132C225.62 401.165 226.712 402.381 227.007 402.748C227.007 402.748 229.107 404.571 227.909 404.963C226.712 405.33 225.274 403.314 225.274 403.314C224.994 402.924 223.899 401.687 223.899 399.649C223.908 397.678 223.194 395.029 223.194 395.029C223.194 395.029 222.249 392.431 221.014 390.824C219.84 389.2 220.006 387.507 220.006 387.055C220.006 387.055 220.006 384.646 221.18 384.233C222.338 383.822 221.712 386.532 221.712 386.532C221.67 386.944 221.513 388.682 222.759 390.241C223.957 391.886 224.88 394.445 224.88 394.445Z" fill="#211E1F"/>
<path fill-rule="evenodd" clip-rule="evenodd" d="M257.752 376.883C254.064 376.883 251.045 379.917 251.045 383.627C251.045 387.422 254.066 390.371 257.752 390.371C261.517 390.371 264.538 387.422 264.538 383.627C264.538 379.917 261.517 376.883 257.752 376.883Z" fill="#FFC213"/>
<path d="M257.752 376.883C254.064 376.883 251.045 379.917 251.045 383.627C251.045 387.422 254.066 390.371 257.752 390.371C261.517 390.371 264.538 387.422 264.538 383.627C264.538 379.917 261.517 376.883 257.752 376.883Z" stroke="#FFCB04" stroke-width="0.720805"/>
<path fill-rule="evenodd" clip-rule="evenodd" d="M270.521 254.663L271.412 272.87L286.805 262.873L291.639 270.769L273.491 281.259V285.058C273.491 285.058 294.609 296.916 268.871 296.459L268.875 296.593C259.868 304.115 251.337 296.676 251.337 296.676C225.601 297.131 246.692 285.315 246.692 285.315V281.499L230.643 269.031L234.448 260.789L248.801 273.066L249.635 254.889L270.521 254.663Z" fill="#211E1F"/>
<path fill-rule="evenodd" clip-rule="evenodd" d="M289.69 270.269C304.608 287.336 315.555 269.368 315.555 269.368C334.4 264.792 323.213 251.454 323.213 251.454C342.856 238.574 319.785 228.469 319.785 228.469C319.634 211.354 305.061 212.63 305.061 212.63C289.838 199.328 275.291 214.094 275.291 214.094C252.477 195.102 235.156 217.018 235.156 217.018C235.156 217.018 220.578 206.913 214.033 222.748C214.033 222.748 190.822 222.103 199.488 245.534C199.488 245.534 181.551 263.488 204.964 272.33C204.964 272.33 217.412 295.379 234.523 273.435C234.523 273.435 245.04 274.064 243.385 259.242C243.385 259.242 256.714 264.792 269.328 258.638C269.328 258.635 273.361 267.71 282.035 262.632C282.035 262.632 280.691 268.469 289.08 269.663L289.69 270.269Z" fill="#0CB14B"/>
<path d="M289.69 270.269C304.608 287.336 315.555 269.368 315.555 269.368C334.4 264.792 323.213 251.454 323.213 251.454C342.856 238.574 319.785 228.469 319.785 228.469C319.785 211.354 305.061 212.63 305.061 212.63C289.838 199.328 275.291 214.094 275.291 214.094C252.477 195.102 235.156 217.018 235.156 217.018C235.156 217.018 220.578 206.913 214.033 222.748C214.033 222.748 190.822 222.103 199.488 245.534C199.488 245.534 181.551 263.488 204.964 272.33C204.964 272.33 217.412 295.379 234.523 273.435C234.523 273.435 245.04 274.064 243.385 259.242C243.385 259.242 256.714 264.792 269.328 258.638C269.328 258.638 273.361 267.71 282.035 262.632C282.035 262.632 280.691 268.469 289.08 269.663L289.69 270.269Z" stroke="#211E1F" stroke-width="7.44916"/>
<path fill-rule="evenodd" clip-rule="evenodd" d="M90.0518 417.235L91.1626 418.166C87.339 425.106 86.7974 430.005 89.4635 432.285C91.3823 433.974 93.9196 433.278 96.2411 430.658C97.2333 429.529 97.8872 428.229 97.8872 427.23C97.8872 425.78 96.8091 424.153 95.6124 421.703C93.3124 417.018 93.4096 413.246 97.4971 408.52C101.595 403.838 106.947 402.276 110.347 405.204C111.819 406.525 112.59 408.37 112.731 410.753L115.375 409.951L116.297 410.753L108.134 420.681L107.159 419.728C110.355 413.117 111.038 409.148 108.631 407.109C106.799 405.46 104.405 406.028 102.284 408.476C99.6116 411.534 101.15 413.313 103.178 417.104C104.241 419.209 105.081 420.837 104.647 423.331C104.247 425.565 102.908 428.144 100.76 430.659C96.3105 435.711 91.2257 437.251 87.6318 434.128C85.8532 432.522 85.0288 430.635 85.1387 427.754L81.9134 428.835L80.9767 428.013L90.0518 417.235Z" fill="#FFC213"/>
<path fill-rule="evenodd" clip-rule="evenodd" d="M120.678 420.638C124.398 418.884 127.486 418.947 130.25 420.835C133.036 422.786 134.204 425.584 133.801 429.875C133.479 433.649 131.715 437.941 128.756 442.212C125.785 446.461 122.9 449.217 119.224 450.926C115.296 452.77 111.917 452.793 109.312 450.926C106.616 449.087 105.488 446.178 105.869 441.779C106.215 437.615 107.765 433.93 110.767 429.657C113.761 425.346 117.206 422.242 120.678 420.638ZM110.79 448.74C113.686 450.734 118.005 447.441 123.995 438.853C130.002 430.201 131.593 425.086 128.696 423.024C125.826 421.052 121.555 424.324 115.539 432.955C109.544 441.561 107.877 446.724 110.79 448.74Z" fill="#FFC213"/>
<path fill-rule="evenodd" clip-rule="evenodd" d="M150.785 437.4L149.501 436.704C148.367 436.12 147.912 436.574 147.003 438.287L138.675 453.855C135.676 459.451 135.541 462.767 138.774 464.461C140.23 465.195 141.753 465.13 143.097 464.461C145.224 463.268 146.643 460.839 148.715 456.977L154.74 445.745C156.462 442.472 156.811 440.608 154.617 439.458C154.596 439.416 154.482 439.392 154.46 439.376L155.631 437.12L162.699 440.914L161.502 443.102C159.294 442.324 158.136 443.45 156.418 446.658L150.209 458.235C148.422 461.618 147.024 464.133 144.95 465.912C141.86 468.516 138.833 468.859 135.541 467.017C130.484 464.35 129.839 459.495 133.416 452.644L142.414 435.861C143.326 434.125 143.39 433.47 142.307 432.89L141.027 432.195L142.188 429.961L151.965 435.166L150.785 437.4Z" fill="#FFC213"/>
<path fill-rule="evenodd" clip-rule="evenodd" d="M177.952 449.52C176.959 449.15 176.457 449.562 175.752 451.297L166.504 474.694C165.768 476.471 165.768 477.124 166.915 477.6L168.304 478.163L167.35 480.527L157.082 476.451L158.026 474.044L159.382 474.607C160.547 475.064 160.92 474.607 161.67 472.765L170.981 449.411C171.648 447.657 171.648 447.049 170.688 446.658C168.574 445.767 165.399 448.716 162.33 455.009L160.92 454.507L166.224 442.406L184.035 449.477L179.586 461.88L178.279 461.401C180.335 454.703 180.072 450.343 177.952 449.52Z" fill="#FFC213"/>
<path fill-rule="evenodd" clip-rule="evenodd" d="M193.27 485.949C194.454 486.316 194.806 485.776 195.303 483.909L198.28 472.871L190.841 470.877L187.911 481.872C187.388 483.736 187.445 484.345 188.64 484.689L190.073 485.101L189.376 487.553L178.712 484.688L179.374 482.216L180.801 482.542C182.008 482.909 182.346 482.412 182.848 480.526L189.298 456.59C189.846 454.702 189.812 454.03 188.575 453.681L187.156 453.313L187.845 450.883L198.503 453.792L197.837 456.221L196.436 455.827C195.236 455.481 194.882 456.045 194.327 457.932L191.687 467.882L199.136 469.879L201.785 459.924C202.324 458.083 202.274 457.369 201.065 457.04L199.668 456.672L200.297 454.226L210.98 457.175L210.358 459.578L208.894 459.187C207.702 458.861 207.359 459.427 206.827 461.312L200.388 485.252C199.869 487.138 199.922 487.747 201.14 488.048L202.531 488.481L201.899 490.913L191.14 488.048L191.859 485.555L193.27 485.949Z" fill="#FFC213"/>
<path fill-rule="evenodd" clip-rule="evenodd" d="M221.513 491.648L222.976 491.737C223.606 491.78 223.842 491.454 223.956 490.737C223.99 490.392 223.99 489.957 223.956 489.375L223.457 483.779L216.089 482.716L215.04 485.165C214.711 485.948 214.442 486.898 214.38 487.553C214.033 489.721 214.823 490.543 216.937 490.998L216.585 493.473L208.406 492.28L208.781 489.785C210.628 489.571 211.843 487.593 213.413 483.909L224.034 458.669L226.174 458.996L229.61 490.765C229.762 492.28 230.155 492.865 231.215 493.059L230.847 495.596L221.183 494.163L221.513 491.648ZM217.305 479.811L223.194 480.723L222.033 468.622L217.305 479.811Z" fill="#FFC213"/>
<path fill-rule="evenodd" clip-rule="evenodd" d="M243.015 487.704C242.86 492.192 243.43 493.864 246.152 493.991L246.091 496.573L237.733 496.333V493.752C240.345 493.645 240.865 491.997 240.984 487.616L241.51 466.606C241.567 464.74 241.375 464.005 240.123 463.916L238.589 463.897L238.697 461.357L248.08 461.617L252.147 482.63L256.898 461.813L266.144 462.03L266.056 464.59L264.603 464.484C263.384 464.484 263.123 465.088 263.09 467.017L262.507 491.845C262.441 493.796 262.646 494.403 263.889 494.403L265.384 494.424L265.301 496.984L254.46 496.745L254.543 494.208H255.808C257.034 494.253 257.309 493.645 257.378 491.737L258.038 465.543L250.905 496.681L249.486 496.656L243.535 465.371L243.015 487.704Z" fill="#FFC213"/>
<path fill-rule="evenodd" clip-rule="evenodd" d="M282.447 493.058L284.288 492.906L284.528 495.423L273.078 496.573L272.821 493.991L274.381 493.863C275.637 493.707 275.769 493.146 275.617 491.193L273.211 466.54C273.078 464.611 272.775 464.005 271.539 464.089L270 464.268L269.716 461.728L282.446 460.514C287.735 459.992 290.75 463.158 291.38 469.623C292.071 476.517 289.19 479.962 282.726 480.59C281.86 480.721 280.908 480.744 279.8 480.807L280.797 490.721C280.993 492.714 281.277 493.146 282.447 493.058ZM279.606 478.078C279.934 478.163 280.387 478.163 281.039 478.078C284.963 477.732 286.395 475.975 285.832 470.205C285.309 464.591 283.814 462.922 280.387 463.225C278.523 463.42 278.241 463.79 278.436 466.48L279.606 478.078Z" fill="#FFC213"/>
<path fill-rule="evenodd" clip-rule="evenodd" d="M308.271 458.602C307.23 458.775 307.124 459.385 307.513 461.229L312.563 485.926C312.976 487.815 313.303 488.311 314.536 488.049L315.945 487.788L316.445 490.308L305.667 492.519L305.126 490.046L306.557 489.721C307.792 489.481 307.857 488.831 307.511 486.945L302.394 462.314C302.004 460.492 301.658 459.925 300.638 460.145C298.381 460.622 297.362 464.851 298.231 471.789L296.821 472.048L294.609 459.104L313.342 455.181L316.508 468.016L315.102 468.297C313.13 461.618 310.55 458.085 308.271 458.602Z" fill="#FFC213"/>
<path fill-rule="evenodd" clip-rule="evenodd" d="M321.931 457.37C322.8 453.398 324.707 450.906 327.917 449.91C331.146 448.827 334.117 449.628 337.283 452.489C340.102 455.048 342.421 459.038 344.049 463.938C345.698 468.882 346.065 472.87 345.285 476.841C344.395 481.089 342.359 483.756 339.256 484.755C336.134 485.777 333.208 484.905 329.932 481.956C326.833 479.203 324.814 475.755 323.214 470.77C321.585 465.783 321.152 461.162 321.931 457.37ZM338.453 482.217C341.774 481.156 341.774 475.714 338.52 465.76C335.266 455.765 332.144 451.365 328.72 452.472C325.446 453.553 325.446 458.952 328.676 468.95C331.971 478.921 335.114 483.346 338.453 482.217Z" fill="#FFC213"/>
<path fill-rule="evenodd" clip-rule="evenodd" d="M356.016 475.341C358.252 473.893 357.968 472.242 356.168 468.407L347.324 449.3L346.411 448.655C345.479 447.96 344.806 447.505 343.744 448.024L343.441 448.174L342.337 445.918L349.014 442.819L368.245 457.913L362.718 446.052C360.742 441.78 359.594 440.697 356.969 441.91L355.93 439.57L363.628 435.992L364.71 438.289C362.543 439.504 362.715 441.086 364.604 445.185L375.901 469.423L374.229 470.205L350.445 451.451L357.882 467.628C359.745 471.682 361.048 472.871 363.561 471.832L364.689 474.11L357.102 477.643L356.016 475.341Z" fill="#FFC213"/>
<path fill-rule="evenodd" clip-rule="evenodd" d="M399.882 427.835L398.71 428.662C393.593 423.132 390.494 422.157 386.826 424.67C385.418 425.623 385.16 426.019 386.547 428.075L392.357 436.598C392.511 436.531 392.641 436.468 392.747 436.381C394.893 434.904 394.68 432.718 392.335 428.465L393.507 427.641L402.595 440.913L401.379 441.759C398.277 437.964 396.347 437.096 394.224 438.505C394.113 438.593 393.985 438.699 393.918 438.743L400.467 448.394C401.576 449.997 402.028 450.343 403.092 449.651L404.804 448.459L406.235 450.584L396.631 457.177L395.2 455.049L396.391 454.206C397.474 453.533 397.279 452.88 396.218 451.297L382.211 430.808C381.126 429.183 380.584 428.813 379.564 429.529L378.309 430.351L376.899 428.295L392.574 417.56L399.882 427.835Z" fill="#FFC213"/>
<path fill-rule="evenodd" clip-rule="evenodd" d="M428.045 434.971C426.137 436.598 423.707 437.119 420.87 436.576C416.555 435.708 412.065 432.694 407.967 427.881C404.762 424.152 402.698 420.227 401.852 416.455C400.876 412.202 401.764 409.147 404.348 406.912C405.951 405.524 407.817 405.048 410.246 405.479L409.811 402.53L410.743 401.732L420.262 412.139L419.241 413.288C413.061 408.017 408.684 406.456 406.233 408.517C403.306 411.053 405.257 415.802 412.196 423.868C419.158 432.043 423.406 434.624 426.678 431.848C429.129 429.701 428.61 425.562 424.967 419.597L426.745 419.252C431.409 426.231 431.819 431.761 428.045 434.971Z" fill="#FFC213"/>
<path fill-rule="evenodd" clip-rule="evenodd" d="M54.6604 140.691L60.1983 152.145L44.6373 156.395L49.4923 166.077L65.095 161.816L69.9664 171.509L54.3511 175.738L59.1632 185.374L74.8088 181.157L79.7257 190.849L63.9993 195.035L68.8896 204.668L84.5769 200.52L91.5578 213.942C94.5028 213.107 97.4239 212.11 100.199 210.94L63.7077 138.117C61.0605 139.234 58.0586 140.113 54.6604 140.691Z" fill="white"/>
<path fill-rule="evenodd" clip-rule="evenodd" d="M97.4769 144.719C96.3938 139.559 108.135 133.397 117.564 125.803L105.083 100.823C100.154 103.523 94.6694 107.74 89.206 113.892C87.7429 115.402 86.4528 116.989 85.2094 118.566L97.4769 144.719Z" fill="white"/>
<path fill-rule="evenodd" clip-rule="evenodd" d="M125.451 100.303C122.424 96.1816 114.637 95.6312 105.081 100.823L117.561 125.803C126.217 118.732 132.89 110.387 125.451 100.303Z" fill="#D61F26"/>
<path fill-rule="evenodd" clip-rule="evenodd" d="M63.7064 138.117L100.197 210.94C110.421 206.701 118.855 200.706 121.699 196.275L105.99 162.858L98.1952 146.264C97.79 145.739 97.5843 145.261 97.4757 144.719L85.2081 118.566C79.0693 126.203 73.7573 133.819 63.7064 138.117Z" fill="#D61F26"/>
<path fill-rule="evenodd" clip-rule="evenodd" d="M54.6604 140.691C49.7447 141.532 44.0225 141.755 37.0278 141.178L44.6372 156.395L60.1983 152.146L54.6604 140.691Z" fill="#D61F26"/>
<path fill-rule="evenodd" clip-rule="evenodd" d="M65.0937 161.816L49.491 166.077L54.3511 175.738L69.9664 171.509L65.0937 161.816Z" fill="#D61F26"/>
<path fill-rule="evenodd" clip-rule="evenodd" d="M74.8088 181.157L59.1619 185.375L63.9993 195.035L79.7244 190.849L74.8088 181.157Z" fill="#D61F26"/>
<path fill-rule="evenodd" clip-rule="evenodd" d="M68.8896 204.668L74.5854 216.157C80.083 216.456 85.8986 215.546 91.5565 213.942L84.5769 200.52L68.8896 204.668Z" fill="#D61F26"/>
<path fill-rule="evenodd" clip-rule="evenodd" d="M117.339 125.996L124.265 139.826C129.194 135.684 134.446 130.756 140.051 126.06L127.072 102.881C131.746 111.89 125.372 119.475 117.339 125.996Z" fill="white"/>
<path fill-rule="evenodd" clip-rule="evenodd" d="M98.1952 146.264C98.5474 146.796 99.0763 147.253 99.7845 147.727C106.768 152.656 114.962 147.63 124.264 139.826L117.339 125.996C107.03 134.306 93.9487 140.827 98.1952 146.264Z" fill="#D61F26"/>
<path d="M98.1952 146.264C90.3598 136.188 141.752 122.438 125.451 100.303C120.857 94.019 105.345 95.929 89.2047 113.892C76.7061 127.676 71.1947 144.064 37.0253 141.178L74.5841 216.157C93.5258 217.152 116.671 204.184 121.7 196.233L98.1952 146.264Z" stroke="#211E1F" stroke-width="5.93812"/>
<path d="M140.051 126.06C123.974 139.57 110.477 155.245 99.7858 147.727C99.0776 147.253 98.5487 146.796 98.1965 146.264C90.6792 136.584 137.785 123.503 127.073 102.881L140.051 126.06Z" stroke="#211E1F" stroke-width="5.93812"/>
<path fill-rule="evenodd" clip-rule="evenodd" d="M458.122 140.691L452.571 152.145L468.075 156.395L463.261 166.077L447.649 161.816L442.793 171.509L458.405 175.738L453.59 185.374L437.957 181.157L433.056 190.849L448.735 195.035L443.875 204.668L428.179 200.52L421.195 213.942C418.269 213.107 415.342 212.11 412.567 210.94L449.057 138.117C451.723 139.234 454.653 140.113 458.122 140.691Z" fill="white"/>
<path fill-rule="evenodd" clip-rule="evenodd" d="M415.275 144.719C416.339 139.559 404.608 133.397 395.198 125.803L407.689 100.823C412.589 103.523 418.052 107.74 423.625 113.892C424.991 115.402 426.29 116.989 427.571 118.566L415.275 144.719Z" fill="white"/>
<path fill-rule="evenodd" clip-rule="evenodd" d="M387.262 100.303C390.32 96.1813 398.103 95.6309 407.689 100.823L395.198 125.802C386.526 118.732 379.844 110.387 387.262 100.303Z" fill="#D61F26"/>
<path fill-rule="evenodd" clip-rule="evenodd" d="M449.057 138.117L412.567 210.94C402.374 206.701 393.918 200.706 391.058 196.275L414.562 146.264C414.973 145.739 415.168 145.261 415.275 144.719L427.57 118.566C433.728 126.203 438.976 133.819 449.057 138.117Z" fill="#D61F26"/>
<path fill-rule="evenodd" clip-rule="evenodd" d="M458.122 140.691C463.002 141.532 468.767 141.755 475.751 141.178L468.075 156.395L452.571 152.146L458.122 140.691Z" fill="#D61F26"/>
<path fill-rule="evenodd" clip-rule="evenodd" d="M447.648 161.816L463.26 166.077L458.403 175.738L442.792 171.509L447.648 161.816Z" fill="#D61F26"/>
<path fill-rule="evenodd" clip-rule="evenodd" d="M437.956 181.157L453.589 185.375L448.734 195.035L433.055 190.849L437.956 181.157Z" fill="#D61F26"/>
<path fill-rule="evenodd" clip-rule="evenodd" d="M443.874 204.668L438.15 216.157C432.688 216.456 426.834 215.546 421.194 213.942L428.177 200.52L443.874 204.668Z" fill="#D61F26"/>
<path fill-rule="evenodd" clip-rule="evenodd" d="M395.393 125.996L388.476 139.826C383.556 135.684 378.265 130.756 372.736 126.06L385.679 102.881C380.997 111.89 387.391 119.475 395.393 125.996Z" fill="white"/>
<path fill-rule="evenodd" clip-rule="evenodd" d="M414.562 146.264C414.172 146.796 413.627 147.253 412.979 147.727C405.952 152.656 397.823 147.63 388.476 139.826L395.393 125.996C405.715 134.306 418.769 140.827 414.562 146.264Z" fill="#D61F26"/>
<path d="M414.562 146.264C422.366 136.188 371.021 122.438 387.262 100.303C391.923 94.019 407.428 95.929 423.625 113.892C436.049 127.676 441.556 144.064 475.751 141.178L438.151 216.157C419.244 217.152 396.087 204.184 391.036 196.233L414.562 146.264Z" stroke="#211E1F" stroke-width="5.93812"/>
<path d="M372.736 126.06C388.802 139.57 402.266 155.245 412.979 147.727C413.628 147.253 414.172 146.796 414.562 146.264C422.087 136.584 374.968 123.503 385.679 102.881L372.736 126.06Z" stroke="#211E1F" stroke-width="5.93812"/>
<path fill-rule="evenodd" clip-rule="evenodd" d="M303.305 123.556C299.945 126.257 294.114 130.177 287.608 134.127V185.997C294.938 181.547 302.395 176.774 309.442 172.972V119.211C307.015 120.818 304.866 122.311 303.305 123.556Z" fill="white"/>
<path fill-rule="evenodd" clip-rule="evenodd" d="M338.28 109.474C337.978 109.474 337.673 109.55 337.37 109.55L329.954 165.59C330.236 165.58 330.56 165.501 330.866 165.501C336.937 165.501 342.572 167.548 347.884 170.543L364.475 119.622C356.344 113.81 347.605 109.474 338.28 109.474Z" fill="white"/>
<path fill-rule="evenodd" clip-rule="evenodd" d="M412.979 147.727C406.04 152.59 397.909 147.727 388.715 140.024L367.119 185.132C375.902 192.725 383.706 198.998 391.035 196.233L414.562 146.264C414.172 146.796 413.626 147.253 412.979 147.727Z" fill="white"/>
<path fill-rule="evenodd" clip-rule="evenodd" d="M99.7845 147.727C99.0763 147.253 98.5474 146.796 98.1952 146.264L121.699 196.231C129.095 198.998 136.875 192.725 145.655 185.132L124.023 140.024C114.795 147.727 106.724 152.59 99.7845 147.727Z" fill="white"/>
<path fill-rule="evenodd" clip-rule="evenodd" d="M256.385 147.601C254.222 147.601 251.337 146.865 248.078 145.695V197.877C251.088 198.927 253.873 199.56 256.385 199.56C258.862 199.56 261.669 198.927 264.646 197.877V145.695C261.442 146.865 258.524 147.601 256.385 147.601Z" fill="white"/>
<path fill-rule="evenodd" clip-rule="evenodd" d="M174.455 109.474C165.159 109.474 156.428 113.81 148.302 119.622L164.912 170.543C170.17 167.548 175.812 165.501 181.905 165.501C182.181 165.501 182.497 165.58 182.783 165.59L175.387 109.55C175.078 109.55 174.785 109.474 174.455 109.474Z" fill="white"/>
<path fill-rule="evenodd" clip-rule="evenodd" d="M209.437 123.556C207.876 122.311 205.806 120.818 203.332 119.211V172.972C210.391 176.774 217.849 181.547 225.134 185.997V134.127C218.608 130.174 212.777 126.257 209.437 123.556Z" fill="white"/>
<path fill-rule="evenodd" clip-rule="evenodd" d="M225.134 134.127V185.997C233.303 190.979 241.29 195.554 248.08 197.877V145.695C241.288 143.255 232.716 138.715 225.134 134.127Z" fill="#D61F26"/>
<path fill-rule="evenodd" clip-rule="evenodd" d="M175.386 109.55L182.782 165.59C188.575 165.869 195.668 168.84 203.331 172.972V119.211C196.308 114.754 186.17 109.848 175.386 109.55Z" fill="#D61F26"/>
<path fill-rule="evenodd" clip-rule="evenodd" d="M124.023 140.024L145.655 185.132C151.542 180.033 157.867 174.451 164.911 170.543L148.301 119.622C139.51 125.882 131.407 133.853 124.023 140.024Z" fill="#D61F26"/>
<path fill-rule="evenodd" clip-rule="evenodd" d="M264.646 145.695V197.877C271.474 195.554 279.433 190.982 287.608 185.997V134.127C280.063 138.715 271.496 143.255 264.646 145.695Z" fill="#D61F26"/>
<path fill-rule="evenodd" clip-rule="evenodd" d="M309.442 119.211V172.972C317.095 168.84 324.166 165.869 329.954 165.59L337.37 109.55C326.592 109.848 316.469 114.754 309.442 119.211Z" fill="#D61F26"/>
<path fill-rule="evenodd" clip-rule="evenodd" d="M364.475 119.622L347.884 170.543C354.867 174.451 361.198 180.033 367.117 185.132L388.714 140.024C381.365 133.85 373.278 125.882 364.475 119.622Z" fill="#D61F26"/>
<path d="M256.385 199.56C275.162 199.56 311.134 165.501 330.866 165.501C357.102 165.501 375.032 202.261 391.035 196.233L414.562 146.264C414.172 146.796 413.628 147.253 412.979 147.727C395.35 160.164 370.242 109.474 338.28 109.474C323.386 109.474 309.507 118.754 303.305 123.556C294.047 130.942 266.942 147.601 256.385 147.601C245.873 147.601 218.672 130.942 209.436 123.556C203.247 118.754 189.356 109.474 174.455 109.474C142.562 109.474 117.427 160.164 99.7858 147.727C99.0776 147.253 98.5487 146.796 98.1965 146.264L121.702 196.231C137.722 202.261 155.675 165.501 181.905 165.501C201.62 165.501 237.644 199.56 256.385 199.56Z" stroke="#211E1F" stroke-width="5.93812"/>
<path fill-rule="evenodd" clip-rule="evenodd" d="M257.194 96.6055C305.691 96.6055 345.003 75.2919 345.003 49.0551C345.003 22.7918 305.691 1.48706 257.194 1.48706C208.716 1.48706 169.374 22.7918 169.374 49.0551C169.374 75.2919 208.714 96.6055 257.194 96.6055Z" fill="#211E1F"/>
<path d="M257.194 96.6055C305.691 96.6055 345.003 75.2919 345.003 49.0551C345.003 22.7918 305.691 1.48706 257.194 1.48706C208.716 1.48706 169.374 22.7918 169.374 49.0551C169.374 75.2919 208.714 96.6055 257.194 96.6055Z" stroke="white" stroke-width="2.97411"/>
<path fill-rule="evenodd" clip-rule="evenodd" d="M257.285 88.8801C300.355 88.8801 335.354 71.0531 335.354 49.0553C335.354 27.0373 300.355 9.2356 257.285 9.2356C214.11 9.2356 179.231 27.0373 179.231 49.0553C179.231 71.0531 214.11 88.8801 257.285 88.8801Z" fill="#FFC213"/>
<path d="M257.285 88.8801C300.355 88.8801 335.354 71.0531 335.354 49.0553C335.354 27.0373 300.355 9.2356 257.285 9.2356C214.11 9.2356 179.231 27.0373 179.231 49.0553C179.231 71.0531 214.11 88.8801 257.285 88.8801Z" stroke="#211E1F" stroke-width="0.00252471"/>
<path fill-rule="evenodd" clip-rule="evenodd" d="M257.354 79.3441C292.42 79.3441 320.935 67.9501 320.935 53.9013C320.935 39.8892 292.42 28.509 257.354 28.509C222.251 28.509 193.781 39.8892 193.781 53.9013C193.781 67.9501 222.249 79.3441 257.354 79.3441Z" fill="white"/>
<path d="M257.354 79.3441C292.42 79.3441 320.935 67.9501 320.935 53.9013C320.935 39.8892 292.42 28.509 257.354 28.509C222.251 28.509 193.781 39.8892 193.781 53.9013C193.781 67.9501 222.249 79.3441 257.354 79.3441Z" stroke="#211E1F" stroke-width="11.9116"/>
<path fill-rule="evenodd" clip-rule="evenodd" d="M257.137 35.8169C223.325 35.8169 195.994 63.2453 195.994 96.9957C195.994 130.809 223.325 158.176 257.137 158.176H256.385C290.124 158.176 317.551 130.809 317.551 96.9957C317.551 63.2453 290.122 35.8169 256.385 35.8169H257.137Z" fill="white"/>
<path d="M257.137 35.8169C223.325 35.8169 195.994 63.2453 195.994 96.9957C195.994 130.809 223.325 158.176 257.137 158.176H256.385C290.124 158.176 317.551 130.809 317.551 96.9957C317.551 63.2453 290.122 35.8169 256.385 35.8169H257.137Z" stroke="#211E1F" stroke-width="5.93812"/>
<path fill-rule="evenodd" clip-rule="evenodd" d="M246.969 147.576L234.382 126.203L211.332 122.438L205.543 129.768C205.805 130.133 205.949 130.523 206.226 130.863L207.224 132.295C214.943 143.193 226.067 151.456 239.13 155.491L241.484 155.928L246.969 147.576Z" fill="#211E1F"/>
<path fill-rule="evenodd" clip-rule="evenodd" d="M231.216 88.5343L241.109 119.04H272.388L282.274 88.5343L256.716 70.0269L231.216 88.5343Z" fill="#211E1F"/>
<path fill-rule="evenodd" clip-rule="evenodd" d="M256.715 57.6632V57.619L275.748 45.1861V39.0334C269.785 37.0224 263.407 35.8926 256.737 35.8396C250.135 35.8926 243.759 37.0224 237.751 39.0334V45.1861L256.715 57.6632Z" fill="#211E1F"/>
<path fill-rule="evenodd" clip-rule="evenodd" d="M221.469 78.8318L222.137 54.5719L217.209 50.7368C214.597 52.9459 212.199 55.3532 210.046 57.984L209.794 58.239C202.834 66.7548 198.183 77.168 196.6 88.6037L202.052 91.0022L221.469 78.8318Z" fill="#211E1F"/>
<path fill-rule="evenodd" clip-rule="evenodd" d="M279.175 126.203L266.597 147.576L272.042 155.928L274.318 155.501C287.565 151.437 298.949 142.932 306.69 131.785L307.168 131.043C307.47 130.608 307.711 130.133 307.992 129.768L302.159 122.438L279.175 126.203Z" fill="#211E1F"/>
<path fill-rule="evenodd" clip-rule="evenodd" d="M292.073 78.8318L311.436 91.0022L316.9 88.6037C315.317 77.1226 310.633 66.6564 303.611 58.1064L303.567 58.0976C301.398 55.4189 298.903 52.9901 296.326 50.7368L291.382 54.5719L292.073 78.8318Z" fill="#211E1F"/>
</g>
</g>
<defs>
<clipPath id="clip0_1_3609">
<rect width="512" height="512" fill="white"/>
</clipPath>
<clipPath id="clip1_1_3609">
<rect width="448.779" height="512" fill="white" transform="translate(31.9999)"/>
</clipPath>
</defs>
</svg>
