<svg width="512" height="512" viewBox="0 0 512 512" fill="none" xmlns="http://www.w3.org/2000/svg">
<g clip-path="url(#clip0_1_3217)">
<g clip-path="url(#clip1_1_3217)">
<path d="M130.136 26.2532L2.13354 248.052L130.136 469.832H386.141L514.134 248.052L386.141 26.2532H130.136Z" fill="white"/>
<path d="M383.385 31.0188C384.739 33.363 507.285 245.716 508.64 248.053C507.286 250.389 384.741 462.732 383.385 465.076H132.884C131.537 462.731 8.98271 250.388 7.63745 248.051C8.98271 245.716 131.537 33.363 132.884 31.0188H383.385Z" fill="black"/>
<path d="M154.008 67.6433L49.896 248.052L154.008 428.442H362.241L466.371 248.052L362.241 67.6433H154.008Z" fill="white"/>
<path d="M358.578 73.9973C360.363 77.0897 457.253 244.969 459.028 248.051C457.253 251.145 360.363 418.995 358.578 422.089H157.671C155.895 418.995 59.0053 251.145 57.2219 248.051C59.0066 244.968 155.895 77.0897 157.671 73.9973H358.578Z" fill="#F6A800"/>
<path d="M228.866 165.537H287.186L318.374 87.3064L402.8 258.773L311.506 312.721L282.244 408.78H234.024L204.854 312.572L113.467 258.773L197.753 87.3064L228.866 165.537Z" fill="black"/>
<path d="M318.444 228.922V275.068H275.316L318.444 228.922Z" fill="white"/>
<path d="M197.823 275.068V228.922L240.878 275.068H197.823Z" fill="white"/>
</g>
</g>
<defs>
<clipPath id="clip0_1_3217">
<rect width="512" height="512" fill="white"/>
</clipPath>
<clipPath id="clip1_1_3217">
<rect width="512" height="443.579" fill="white" transform="translate(2.13354 26.2532)"/>
</clipPath>
</defs>
</svg>
