<?xml version="1.0" encoding="UTF-8"?>
<svg id="Layer_1" data-name="Layer 1" xmlns="http://www.w3.org/2000/svg" viewBox="0 0 950 950">
  <defs>
    <style>
      .cls-1 {
        fill: #010101;
      }

      .cls-1, .cls-2, .cls-3 {
        stroke-width: 0px;
      }

      .cls-2 {
        fill: #d22027;
      }

      .cls-3 {
        fill: #fff;
      }
    </style>
  </defs>
  <rect class="cls-2" x="49.72" y="71.38" width="850.84" height="676.66"/>
  <path class="cls-3" d="M750.67,427.99c0,1.46-1.47,2.92-4.41,4.38l-1.47,1.47v1.46q0,1.46-1.47,2.92l-2.94,1.47h-2.94v-1.47l-2.94,1.47v1.46q0,1.46-1.47,2.92l-2.94,1.47h-2.94v-1.47c-10.29,5.85-23.51,10.23-35.27,16.08v1.47q0,1.46-1.47,2.92l-2.94,1.46h-2.94l-1.47-1.46-4.41,1.46,1.47,1.47q0,1.46-1.47,2.92l-2.94,1.46h-2.94l-1.47-1.46c-5.88,2.93-11.76,2.93-16.17-5.85-1.47-4.39-1.47-13.15-2.94-17.54-1.47-2.93-4.41-2.93-4.41-2.93-55.84-10.23-73.48,1.47-110.21-7.31-11.76-2.92-17.63-13.15-30.86-13.15-29.39-1.46-38.21,0-72-1.46-1.47,4.38-1.47,5.85-1.47,5.85h-114.62l17.63,8.77,5.88,49.69s-4.41,1.46-5.88,1.46c1.47,10.23,1.47,23.38,2.94,35.07,0,10.23,1.47,21.92,1.47,29.23,0,2.93,0,7.31-2.94,13.16-1.47,4.39-5.88,7.31-8.82,8.77-1.47,1.47-5.88,4.39-10.28,7.31-5.88,2.92-11.76,5.85-14.69,7.31,0,1.46,1.47,2.92,1.47,4.39-69.07,33.61-155.77,43.84-183.69,97.92-2.94,5.85-14.69,2.92-14.69-4.39v-10.23h-1.47c-1.47,0-1.47-1.46-1.47-2.92v-2.93c0-1.46,1.47-2.92,1.47-2.92h1.47c0-2.93,1.47-5.85,1.47-8.77h-1.47c-1.47,0-1.47-1.46,0-2.92l1.47-2.93c0-1.46,1.47-2.92,2.94-1.46h1.47c4.41-11.69,14.69-16.08,19.1-27.77h0c-1.47,0-1.47-1.46,0-2.92l-1.47-2.93c0-1.46,1.47-2.93,2.94-1.46h1.47c0-1.47,1.47-2.93,2.94-4.39h-1.47c-1.47,0-1.47-1.46,0-2.93l1.47-2.92q1.47-1.46,2.94-1.46h0l1.47-1.47c4.41-2.92,10.29-2.92,14.69,0,4.41,2.93,22.04,11.69,38.21-2.92,26.45-24.84,58.78-57,82.29-58.46-5.88-13.16-17.63-42.39-19.1-54.08l-7.35-1.46c-4.41-8.77-14.69-49.69-17.63-81.84,0,0-2.94-33.61,0-45.31-1.47,0-5.88,2.92-5.88,2.92-4.41-10.23,10.28-100.84,23.51-127.15l22.04-8.77c-2.94,0-17.63-1.46-58.78-4.39-23.51,20.46-48.49,42.39-63.19,54.08-2.94,1.46-5.88,14.62-5.88,14.62,0,0-5.88,5.85-13.22,10.23-8.82,5.85-27.92,10.23-32.33,2.93-1.47-1.46-1.47-2.93,0-2.93,2.94-2.92,14.69-8.77,19.1-16.08-5.88,2.93-13.23,7.31-19.1,5.85-2.94,0-4.41-5.85,0-7.31,8.82-2.92,14.69-5.85,20.57-11.69,4.41-7.31,10.29-11.69,19.1-11.69,0,0,38.21-49.69,60.25-73.07,5.88-5.85,17.63-4.38,17.63-4.38l1.47-7.31s76.41-8.77,113.15,2.93c-1.47-21.92,8.82-49.69,42.62-49.69,17.63,0,42.62,16.08,47.03,33.61,1.47,5.85-2.94,10.23-4.41,17.54-2.94,11.69,1.47,23.38,0,26.31-1.47,2.92-4.41,2.92-7.35,7.31-2.94,4.39-7.35,13.15-7.35,13.15l-4.41,10.23-23.51-1.46c-8.82,19-26.45,57-32.33,94.99h0c19.1,1.47,104.33,13.16,104.33,13.16l1.47,7.31s35.27,4.39,64.66,17.54c5.88,1.46,23.51-1.46,33.8,4.39l2.94-2.93c38.21,11.69,70.54,32.15,107.27,40.93,0,0,17.63,4.38,23.51,5.85,13.23,2.92,22.04,2.92,29.39,4.38,11.76,1.47,19.1,1.47,26.45,1.47,4.41-1.47,13.23-2.93,14.7,5.85M806.51,312.52c-26.45,0-47.02,20.46-47.02,46.77s20.57,46.77,47.02,46.77,47.03-20.46,47.03-46.77-22.04-46.77-47.03-46.77Z"/>
  <path class="cls-1" d="M124.77,852.3c0,16.07-7.67,24.7-28.07,24.7h-47.26v-90.78h45.44c21.2,0,28.47,8.23,28.47,23.7,0,11.65-4.44,17.07-16.96,20.08l-2.42.61,2.02.4c14.34,3.21,18.78,8.44,18.78,21.29ZM71.25,824.18h19.19c7.67,0,10.9-3.21,10.9-11.05,0-8.23-3.23-11.44-10.9-11.44h-19.19v22.49ZM102.76,850.09c0-8.23-3.43-11.84-11.11-11.84h-20.4v23.5h20.4c8.08-.2,11.11-3.62,11.11-11.65ZM139.71,847.48v-61.25h22.82v60.45c0,10.04,4.65,13.86,16.96,13.86s16.96-3.82,16.96-13.86v-60.45h22.82v61.05c0,21.3-12.52,31.14-39.58,31.14-27.67.2-39.99-9.64-39.99-30.94ZM325.71,786.23v90.78h-27.67l-38.77-65.68v65.68h-21.21v-90.78h27.67l38.78,65.68v-65.68h21.21ZM344.49,786.23h40.59c31.91,0,40.39,13.05,40.39,45.19s-9.09,45.39-40.39,45.39h-40.59v-90.58ZM384.48,859.73c13.33,0,17.57-6.82,17.57-28.11s-4.24-27.92-17.57-27.92h-17.37v56.03h17.37ZM442.04,786.23h63.82v17.27h-41v19.08h34.13v17.07h-34.13v19.88h42.01v17.27h-64.83v-90.58ZM520.19,873.39v-17.67c10.91,3.61,20.8,5.02,30.5,5.02,10.5,0,15.15-2.82,15.15-9.84,0-6.03-2.02-8.04-10.3-9.64l-15.15-3.21c-15.75-3.21-21-9.64-21-25.11,0-19.88,11.71-28.52,35.54-28.52,10.7,0,20.8,1.81,29.08,5.02v17.67c-9.9-3.41-18.78-4.82-27.67-4.82-11.31,0-14.94,3.01-14.94,10.04,0,5.82,2.62,7.63,9.89,9.04l14.74,3.21c17.17,3.61,21.81,9.44,21.81,25.7,0,19.48-12.12,28.33-36.55,28.33-11.11,0-21.61-1.81-31.1-5.22ZM603.4,786.23h22.82v73.31h39.18v17.27h-61.8l-.2-90.58ZM679.54,786.23h22.82v90.78h-22.82v-90.78ZM796.67,824.59v49.4c-8.48,2.81-19.79,4.62-31.5,4.62-31.71,0-46.65-13.86-46.65-47s14.94-47,46.65-47c11.31,0,22.01,1.81,30.09,5.02v17.47c-8.88-3.01-18.78-4.82-28.27-4.82-19.18,0-25.04,7.63-25.04,29.12s6.26,29.73,24.24,29.73c4.04,0,8.07-.2,11.91-.8v-20.08h-16.96v-15.67h35.54ZM870.99,857.92h-35.74l-6.47,19.08h-22.62l32.52-90.78h29.08l32.52,90.78h-22.82l-6.46-19.08ZM853.22,800.48l-13.12,40.98h26.25l-13.13-40.98Z"/>
</svg>