<svg xmlns="http://www.w3.org/2000/svg" xmlns:xlink="http://www.w3.org/1999/xlink" viewBox="0,0,256,256" width="64px" height="64px" fill-rule="nonzero"><g fill="#000d9e" fill-rule="nonzero" stroke="none" stroke-width="1" stroke-linecap="butt" stroke-linejoin="miter" stroke-miterlimit="10" stroke-dasharray="" stroke-dashoffset="0" font-family="none" font-weight="none" font-size="none" text-anchor="none" style="mix-blend-mode: normal"><g transform="scale(16,16)"><path d="M12.95,9.463c-0.016,0.033 -0.048,0.059 -0.087,0.061c-0.857,0.1 -1.767,-0.02 -2.117,-0.076c-0.588,-0.591 -1.221,-1.249 -1.689,-1.823c-0.049,-0.06 -0.049,-0.145 -0.005,-0.205c0.665,-0.94 1.276,-1.685 1.536,-1.98c0.737,-0.163 1.473,-0.307 1.969,-0.327c0.039,-0.003 0.073,0.015 0.095,0.047c0.641,0.899 1.099,1.76 1.247,2.076c-0.296,0.801 -0.65,1.605 -0.949,2.227zM12.134,10.985c-0.473,0.799 -0.832,1.281 -0.948,1.428c-0.155,0.224 -0.555,0.803 -1.172,1.389c-0.039,0.039 -0.091,0.059 -0.147,0.061c-0.773,0.032 -1.493,-0.023 -1.772,-0.084c-0.237,-0.099 -0.791,-0.349 -1.444,-0.715c-0.056,-0.032 -0.089,-0.093 -0.085,-0.159c0.035,-0.512 0.195,-1.24 0.337,-2.011c0.351,-0.624 0.715,-1.333 1.092,-1.917c0.04,-0.061 0.116,-0.091 0.184,-0.071c1.131,0.312 2.115,0.548 2.511,0.64c0.545,0.639 1.073,1.087 1.428,1.365c0.025,0.019 0.029,0.05 0.016,0.074zM5.293,12.097c-0.056,0.035 -0.131,0.032 -0.185,-0.007c-0.492,-0.351 -1.08,-0.803 -1.568,-1.264c-0.29,-0.496 -0.513,-1.135 -0.669,-1.679c-0.011,-0.035 -0.001,-0.072 0.023,-0.1c0.547,-0.681 1.207,-1.221 1.483,-1.427c0.62,0.271 1.335,0.509 1.956,0.719c0.065,0.023 0.111,0.08 0.117,0.147c0.087,1.121 0.291,2.028 0.344,2.373c-0.232,0.252 -0.843,0.824 -1.501,1.238zM2.558,7.683c-0.081,-0.529 -0.135,-1.084 -0.14,-1.337c-0.013,-0.588 0.079,-1.109 0.188,-1.592c0.016,-0.079 0.056,-0.149 0.115,-0.205c0.313,-0.288 0.876,-0.797 1.232,-1.028c0.336,-0.216 1.268,-0.52 1.652,-0.633c0.076,-0.021 0.155,0.012 0.193,0.08c0.047,0.081 0.095,0.164 0.147,0.244c0.303,0.476 0.635,0.885 0.776,1.063c-0.187,0.748 -0.267,1.584 -0.3,2.291c-0.006,0.065 -0.047,0.121 -0.11,0.147c-0.972,0.382 -1.705,0.684 -1.956,0.797c-0.665,0.031 -1.302,0.145 -1.733,0.221c-0.031,0.006 -0.059,-0.017 -0.064,-0.048zM7.463,2.554c0.025,-0.04 0.071,-0.068 0.117,-0.075c1.001,-0.133 1.916,-0.153 2.267,-0.143c0.641,0.429 1.267,0.997 1.765,1.536c0.036,0.037 0.043,0.093 0.015,0.136c-0.357,0.564 -0.875,1.103 -1.104,1.34c-0.843,0.2 -1.739,0.495 -2.464,0.736c-0.069,0.023 -0.148,-0.003 -0.192,-0.065c-0.549,-0.809 -0.901,-1.502 -1.036,-1.76c0.15,-0.673 0.356,-1.273 0.632,-1.705zM14.145,9.193c-0.016,0.009 -0.039,-0.004 -0.039,-0.025c-0.041,-0.829 -0.116,-1.636 -0.159,-1.931c0.005,-0.717 -0.112,-1.46 -0.232,-2.008c-0.004,-0.02 0.015,-0.039 0.033,-0.035c0.672,0.139 0.887,0.392 0.887,0.392c-0.353,-0.804 -0.867,-1.411 -1.424,-1.869c-0.476,-1.007 -1.023,-1.472 -1.023,-1.472c0.043,0.223 0.012,0.475 -0.065,0.735c-0.005,0.017 -0.024,0.025 -0.039,0.017c-0.912,-0.449 -1.855,-0.657 -2.219,-0.708c-0.543,-0.268 -1.138,-0.445 -1.622,-0.579c-0.013,-0.005 -0.018,-0.02 -0.006,-0.029c0.643,-0.539 1.232,-0.673 1.232,-0.673c-1.043,-0.044 -1.944,0.146 -2.699,0.44c-1.123,-0.092 -1.839,0.105 -1.839,0.105c0,0 0.309,0.376 0.432,0.585c0.015,0.024 0.007,0.056 -0.018,0.075c-0.707,0.493 -1.214,1.037 -1.414,1.262c-0.224,0.031 -0.609,0.086 -0.945,0.17c-0.015,0.001 -0.025,-0.011 -0.021,-0.024c0.339,-0.811 0.707,-1.26 0.707,-1.26c0,0 -2.17,1.554 -2.583,4.349c0,0 0.18,-0.497 0.784,-1.248c0.008,-0.008 0.024,-0.007 0.028,0.004c0.173,0.383 0.369,0.724 0.465,0.88c-0.331,0.539 -0.561,1.127 -0.701,1.609c-0.004,0.016 -0.019,0.03 -0.035,0.036c-0.501,0.194 -0.629,0.376 -0.629,0.376c0.077,0.269 0.231,0.532 0.424,0.78c0.017,0.02 0.025,0.047 0.024,0.075c-0.053,1.193 0.328,1.979 0.328,1.979c0.085,-0.419 0.255,-0.821 0.468,-1.201c0.008,-0.018 0.029,-0.019 0.042,-0.01c0.496,0.399 1.008,0.745 1.213,0.868c0.104,0.272 0.405,0.976 0.807,1.697c0.009,0.015 0.001,0.033 -0.012,0.039c-0.483,0.177 -0.977,0.257 -1.431,0.147c0,0 0.547,0.688 2.232,0.98c0.468,0.557 1.037,1.019 1.701,1.18c0,0 -0.195,-0.217 -0.244,-1.021c0,-0.016 0.013,-0.031 0.029,-0.031c0.416,0.007 0.98,0.016 1.497,-0.023c0.183,0.147 0.583,0.467 0.973,0.671c0.019,0.009 0.02,0.036 0.003,0.048c-0.687,0.419 -1.143,0.455 -1.143,0.455c3.103,0.067 4.967,-1.976 4.967,-1.976c-0.511,0.34 -1.101,0.551 -1.689,0.677c-0.019,0.004 -0.036,-0.015 -0.033,-0.035c0.109,-0.532 0.079,-1.047 0.073,-1.229c0.735,-0.183 1.377,-0.515 1.852,-0.855c0.009,-0.007 0.021,-0.007 0.032,0c0.197,0.139 0.369,0.293 0.537,0.553c0,0 0.321,-0.459 0.433,-1.523c0.796,-1.051 0.915,-2.125 0.915,-2.125c-0.198,0.316 -0.501,0.543 -0.854,0.706z"></path></g></g></svg>